ISO-10303-21;
HEADER;
FILE_DESCRIPTION (( 'STEP AP203' ),
    '1' );
FILE_NAME ('Core+yoke.step',
    '2026-06-05T03:33:03',
    ( '' ),
    ( '' ),
    'SwSTEP 2.0',
    'SolidWorks 2024',
    '' );
FILE_SCHEMA (( 'CONFIG_CONTROL_DESIGN' ));
ENDSEC;

DATA;
#1 = FACE_OUTER_BOUND ( 'NONE', #624, .T. ) ;
#2 = VERTEX_POINT ( 'NONE', #611 ) ;
#3 = CARTESIAN_POINT ( 'NONE',  ( -10.49999999999999822, 5.253520777581088375, 3.000000000000000000 ) ) ;
#4 = EDGE_CURVE ( 'NONE', #509, #421, #82, .T. ) ;
#5 = ORIENTED_EDGE ( 'NONE', *, *, #91, .T. ) ;
#6 = ADVANCED_FACE ( 'NONE', ( #1045 ), #1252, .F. ) ;
#7 = MANIFOLD_SOLID_BREP ( '填料-伸長2[3]', #537 ) ;
#8 = EDGE_CURVE ( 'NONE', #450, #1362, #999, .T. ) ;
#9 = DIRECTION ( 'NONE',  ( -1.000000000000000000, 0.000000000000000000, 0.000000000000000000 ) ) ;
#10 = ORIENTED_EDGE ( 'NONE', *, *, #105, .T. ) ;
#11 = CARTESIAN_POINT ( 'NONE',  ( -10.25000000000008704, -17.75352077758094893, 3.000000000000000000 ) ) ;
#12 = AXIS2_PLACEMENT_3D ( 'NONE', #735, #840, #526 ) ;
#13 = AXIS2_PLACEMENT_3D ( 'NONE', #170, #718, #1140 ) ;
#14 = FACE_OUTER_BOUND ( 'NONE', #983, .T. ) ;
#15 = AXIS2_PLACEMENT_3D ( 'NONE', #267, #919, #589 ) ;
#16 = AXIS2_PLACEMENT_3D ( 'NONE', #1354, #291, #1151 ) ;
#17 = VERTEX_POINT ( 'NONE', #196 ) ;
#18 = CARTESIAN_POINT ( 'NONE',  ( -24.90000000000001279, 21.90000000000000924, 2.999999999999999112 ) ) ;
#19 = VERTEX_POINT ( 'NONE', #299 ) ;
#20 = LINE ( 'NONE', #1193, #1296 ) ;
#21 = CARTESIAN_POINT ( 'NONE',  ( -22.99999999999999645, 0.000000000000000000, 14.75000000000000000 ) ) ;
#22 = ORIENTED_EDGE ( 'NONE', *, *, #33, .F. ) ;
#23 = CARTESIAN_POINT ( 'NONE',  ( -29.90000000000001634, 21.90000000000000924, 2.999999999999999112 ) ) ;
#24 = EDGE_LOOP ( 'NONE', ( #139, #584, #181, #405 ) ) ;
#25 = DIRECTION ( 'NONE',  ( 1.000000000000000000, 0.000000000000000000, 0.000000000000000000 ) ) ;
#26 = EDGE_CURVE ( 'NONE', #547, #974, #36, .T. ) ;
#27 = ORIENTED_EDGE ( 'NONE', *, *, #155, .F. ) ;
#28 = DIRECTION ( 'NONE',  ( -0.000000000000000000, -0.000000000000000000, -1.000000000000000000 ) ) ;
#29 = EDGE_LOOP ( 'NONE', ( #854, #781, #10, #1068 ) ) ;
#30 = DIRECTION ( 'NONE',  ( -1.000000000000000000, 0.000000000000000000, 0.000000000000000000 ) ) ;
#31 = DIRECTION ( 'NONE',  ( 0.000000000000000000, 1.000000000000000000, 0.000000000000000000 ) ) ;
#32 = COORDINATED_UNIVERSAL_TIME_OFFSET ( 8, 0, .AHEAD. ) ;
#33 = EDGE_CURVE ( 'NONE', #1094, #1389, #90, .T. ) ;
#34 = EDGE_LOOP ( 'NONE', ( #883, #133, #1096, #249 ) ) ;
#35 = CIRCLE ( 'NONE', #1344, 5.000000000000004441 ) ;
#36 = CIRCLE ( 'NONE', #79, 2.500000000000001332 ) ;
#37 = CARTESIAN_POINT ( 'NONE',  ( -12.75000000000008882, -17.75352077758094893, 0.000000000000000000 ) ) ;
#38 = EDGE_LOOP ( 'NONE', ( #1155, #681 ) ) ;
#39 = DIRECTION ( 'NONE',  ( 1.000000000000000000, 0.000000000000000000, 0.000000000000000000 ) ) ;
#40 = CARTESIAN_POINT ( 'NONE',  ( -22.99999999999999645, 0.000000000000000000, 0.000000000000000000 ) ) ;
#41 = LINE ( 'NONE', #366, #1327 ) ;
#42 = LOCAL_TIME ( 11, 33, 3.000000000000000000, #270 ) ;
#43 = ORIENTED_EDGE ( 'NONE', *, *, #246, .T. ) ;
#44 = DIRECTION ( 'NONE',  ( 1.000000000000000000, 0.000000000000000000, 0.000000000000000000 ) ) ;
#45 = CARTESIAN_POINT ( 'NONE',  ( 10.25000000000008349, 17.75352077758093827, 0.000000000000000000 ) ) ;
#46 = PLANE ( 'NONE',  #580 ) ;
#47 = CARTESIAN_POINT ( 'NONE',  ( 7.749999999999884537, -17.75352077758106262, 0.000000000000000000 ) ) ;
#48 = EDGE_CURVE ( 'NONE', #64, #1290, #381, .T. ) ;
#49 = ORIENTED_EDGE ( 'NONE', *, *, #1084, .T. ) ;
#50 = ADVANCED_FACE ( 'NONE', ( #1242 ), #1237, .F. ) ;
#51 = FACE_OUTER_BOUND ( 'NONE', #1005, .T. ) ;
#52 = FACE_BOUND ( 'NONE', #513, .T. ) ;
#53 = CARTESIAN_POINT ( 'NONE',  ( -0.000000000000000000, 10.25352077758108926, 0.000000000000000000 ) ) ;
#54 = DIRECTION ( 'NONE',  ( 0.000000000000000000, 0.000000000000000000, 1.000000000000000000 ) ) ;
#55 = VERTEX_POINT ( 'NONE', #172 ) ;
#56 = VECTOR ( 'NONE', #159, 1000.000000000000000 ) ;
#57 = AXIS2_PLACEMENT_3D ( 'NONE', #778, #663, #240 ) ;
#58 = LINE ( 'NONE', #806, #374 ) ;
#59 = PRODUCT_RELATED_PRODUCT_CATEGORY ( 'detail', '', ( #783 ) ) ;
#60 = AXIS2_PLACEMENT_3D ( 'NONE', #410, #859, #758 ) ;
#61 = FACE_BOUND ( 'NONE', #1320, .T. ) ;
#62 = DIRECTION ( 'NONE',  ( 1.584222352490234794E-16, 1.000000000000000000, 0.000000000000000000 ) ) ;
#63 = SECURITY_CLASSIFICATION_LEVEL ( 'unclassified' ) ;
#64 = VERTEX_POINT ( 'NONE', #71 ) ;
#65 = CC_DESIGN_APPROVAL ( #605, ( #577 ) ) ;
#66 = ORIENTED_EDGE ( 'NONE', *, *, #265, .T. ) ;
#67 = CARTESIAN_POINT ( 'NONE',  ( -7.749999999999840128, 17.75352077758108749, 0.000000000000000000 ) ) ;
#68 = DIRECTION ( 'NONE',  ( -1.000000000000000000, 0.000000000000000000, 0.000000000000000000 ) ) ;
#69 = CARTESIAN_POINT ( 'NONE',  ( 20.50000000000000000, 0.000000000000000000, 0.000000000000000000 ) ) ;
#70 = EDGE_CURVE ( 'NONE', #689, #97, #825, .T. ) ;
#71 = CARTESIAN_POINT ( 'NONE',  ( 29.90000000000001634, 21.90000000000000213, 2.999999999999999112 ) ) ;
#72 = EDGE_LOOP ( 'NONE', ( #524, #287 ) ) ;
#73 = CARTESIAN_POINT ( 'NONE',  ( -15.50000000000000000, -5.253520777581088375, 3.000000000000000000 ) ) ;
#74 = DIRECTION ( 'NONE',  ( 0.000000000000000000, 0.000000000000000000, 1.000000000000000000 ) ) ;
#75 = LINE ( 'NONE', #505, #625 ) ;
#76 = ORIENTED_EDGE ( 'NONE', *, *, #26, .F. ) ;
#77 = EDGE_CURVE ( 'NONE', #1210, #1106, #980, .T. ) ;
#78 = ORIENTED_EDGE ( 'NONE', *, *, #1031, .F. ) ;
#79 = AXIS2_PLACEMENT_3D ( 'NONE', #602, #635, #1052 ) ;
#80 = DIRECTION ( 'NONE',  ( -0.000000000000000000, -0.000000000000000000, -1.000000000000000000 ) ) ;
#81 = CARTESIAN_POINT ( 'NONE',  ( 15.50000000000000178, -5.253520777581088375, 3.000000000000000000 ) ) ;
#82 = CIRCLE ( 'NONE', #16, 2.499999999999996891 ) ;
#83 = DIRECTION ( 'NONE',  ( 1.000000000000000000, 0.000000000000000000, 0.000000000000000000 ) ) ;
#84 = ORIENTED_EDGE ( 'NONE', *, *, #111, .T. ) ;
#85 = ORIENTED_EDGE ( 'NONE', *, *, #553, .T. ) ;
#86 = CARTESIAN_POINT ( 'NONE',  ( 15.50000000000000178, -5.253520777581088375, 0.000000000000000000 ) ) ;
#87 = AXIS2_PLACEMENT_3D ( 'NONE', #108, #188, #629 ) ;
#88 = LINE ( 'NONE', #134, #1066 ) ;
#89 = ORIENTED_EDGE ( 'NONE', *, *, #495, .T. ) ;
#90 = LINE ( 'NONE', #1026, #753 ) ;
#91 = EDGE_CURVE ( 'NONE', #1137, #408, #759, .T. ) ;
#92 = EDGE_LOOP ( 'NONE', ( #1056, #1186, #1038, #641 ) ) ;
#93 = LINE ( 'NONE', #1176, #494 ) ;
#94 = EDGE_CURVE ( 'NONE', #594, #1175, #1174, .T. ) ;
#95 = DIRECTION ( 'NONE',  ( 0.000000000000000000, 0.000000000000000000, 1.000000000000000000 ) ) ;
#96 = EDGE_CURVE ( 'NONE', #527, #450, #106, .T. ) ;
#97 = VERTEX_POINT ( 'NONE', #752 ) ;
#98 = DIRECTION ( 'NONE',  ( -0.000000000000000000, -0.000000000000000000, -1.000000000000000000 ) ) ;
#99 = DIRECTION ( 'NONE',  ( 0.000000000000000000, -0.000000000000000000, -1.000000000000000000 ) ) ;
#100 = VERTEX_POINT ( 'NONE', #965 ) ;
#101 = DIRECTION ( 'NONE',  ( -0.000000000000000000, 0.000000000000000000, 1.000000000000000000 ) ) ;
#102 = DIRECTION ( 'NONE',  ( -0.000000000000000000, 0.000000000000000000, 1.000000000000000000 ) ) ;
#103 = CIRCLE ( 'NONE', #870, 5.000000000000004441 ) ;
#104 = DIRECTION ( 'NONE',  ( -0.000000000000000000, -0.000000000000000000, -1.000000000000000000 ) ) ;
#105 = EDGE_CURVE ( 'NONE', #722, #296, #1058, .T. ) ;
#106 = LINE ( 'NONE', #640, #508 ) ;
#107 = ORIENTED_EDGE ( 'NONE', *, *, #1047, .T. ) ;
#108 = CARTESIAN_POINT ( 'NONE',  ( -24.90000000000001990, -21.89999999999998792, 2.999999999999999112 ) ) ;
#109 = VECTOR ( 'NONE', #739, 1000.000000000000000 ) ;
#110 = LINE ( 'NONE', #548, #692 ) ;
#111 = EDGE_CURVE ( 'NONE', #343, #1362, #546, .T. ) ;
#112 = EDGE_LOOP ( 'NONE', ( #76, #1215 ) ) ;
#113 = DIRECTION ( 'NONE',  ( -0.000000000000000000, -0.000000000000000000, -1.000000000000000000 ) ) ;
#114 = ADVANCED_FACE ( 'NONE', ( #14 ), #1401, .F. ) ;
#115 = EDGE_LOOP ( 'NONE', ( #481, #66 ) ) ;
#116 = DIRECTION ( 'NONE',  ( -1.000000000000000000, 0.000000000000000000, 0.000000000000000000 ) ) ;
#117 = ORIENTED_EDGE ( 'NONE', *, *, #593, .F. ) ;
#118 = DIRECTION ( 'NONE',  ( 0.000000000000000000, 0.000000000000000000, 1.000000000000000000 ) ) ;
#119 = ORIENTED_EDGE ( 'NONE', *, *, #614, .F. ) ;
#120 = ADVANCED_FACE ( 'NONE', ( #971 ), #313, .T. ) ;
#121 = DIRECTION ( 'NONE',  ( 0.000000000000000000, 0.000000000000000000, 1.000000000000000000 ) ) ;
#122 = VECTOR ( 'NONE', #570, 1000.000000000000000 ) ;
#123 = AXIS2_PLACEMENT_3D ( 'NONE', #1062, #104, #847 ) ;
#124 = DIRECTION ( 'NONE',  ( -1.000000000000000000, 0.000000000000000000, 0.000000000000000000 ) ) ;
#125 = CIRCLE ( 'NONE', #670, 5.000000000000000888 ) ;
#126 = VERTEX_POINT ( 'NONE', #849 ) ;
#127 = DIRECTION ( 'NONE',  ( 1.000000000000000000, 0.000000000000000000, 0.000000000000000000 ) ) ;
#128 = ORIENTED_EDGE ( 'NONE', *, *, #614, .T. ) ;
#129 = CARTESIAN_POINT ( 'NONE',  ( -20.49999999999999645, 0.000000000000000000, 0.000000000000000000 ) ) ;
#130 = ADVANCED_BREP_SHAPE_REPRESENTATION ( 'Core+yoke', ( #7, #473, #915, #908, #918, #438, #930, #380 ), #877 ) ;
#131 = CARTESIAN_POINT ( 'NONE',  ( 0.000000000000000000, 10.25352077758108926, 3.000000000000000000 ) ) ;
#132 =( NAMED_UNIT ( * ) PLANE_ANGLE_UNIT ( ) SI_UNIT ( $, .RADIAN. ) );
#133 = ORIENTED_EDGE ( 'NONE', *, *, #94, .T. ) ;
#134 = CARTESIAN_POINT ( 'NONE',  ( -29.90000000000001634, 21.90000000000000924, 14.75000000000000000 ) ) ;
#135 = ORIENTED_EDGE ( 'NONE', *, *, #916, .T. ) ;
#136 = ADVANCED_FACE ( 'NONE', ( #209 ), #429, .F. ) ;
#137 = LINE ( 'NONE', #802, #1132 ) ;
#138 = PERSON_AND_ORGANIZATION_ROLE ( 'creator' ) ;
#139 = ORIENTED_EDGE ( 'NONE', *, *, #904, .F. ) ;
#140 = APPLICATION_CONTEXT ( 'configuration controlled 3d designs of mechanical parts and assemblies' ) ;
#141 = DIRECTION ( 'NONE',  ( -0.000000000000000000, -0.000000000000000000, -1.000000000000000000 ) ) ;
#142 = ORIENTED_EDGE ( 'NONE', *, *, #745, .T. ) ;
#143 = CLOSED_SHELL ( 'NONE', ( #403, #507, #1087, #1161 ) ) ;
#144 = DIRECTION ( 'NONE',  ( -1.000000000000000000, 0.000000000000000000, 0.000000000000000000 ) ) ;
#145 = DIRECTION ( 'NONE',  ( 0.000000000000000000, -1.000000000000000000, 0.000000000000000000 ) ) ;
#146 = CIRCLE ( 'NONE', #462, 2.499999999999998668 ) ;
#147 = EDGE_LOOP ( 'NONE', ( #85, #729 ) ) ;
#148 = AXIS2_PLACEMENT_3D ( 'NONE', #828, #1138, #1021 ) ;
#149 = VECTOR ( 'NONE', #672, 1000.000000000000000 ) ;
#150 = DIRECTION ( 'NONE',  ( -0.000000000000000000, -0.000000000000000000, -1.000000000000000000 ) ) ;
#151 = ORIENTED_EDGE ( 'NONE', *, *, #1150, .F. ) ;
#152 = FACE_OUTER_BOUND ( 'NONE', #875, .T. ) ;
#153 = EDGE_CURVE ( 'NONE', #100, #1179, #798, .T. ) ;
#154 = CARTESIAN_POINT ( 'NONE',  ( -10.24999999999983658, 17.75352077758108749, 0.000000000000000000 ) ) ;
#155 = EDGE_CURVE ( 'NONE', #1205, #276, #1160, .T. ) ;
#156 = VERTEX_POINT ( 'NONE', #975 ) ;
#157 = PLANE ( 'NONE',  #441 ) ;
#158 = CARTESIAN_POINT ( 'NONE',  ( 10.50000000000000178, 5.253520777581088375, 3.000000000000000000 ) ) ;
#159 = DIRECTION ( 'NONE',  ( -0.000000000000000000, -0.000000000000000000, -1.000000000000000000 ) ) ;
#160 = PERSON_AND_ORGANIZATION ( #1020, #241 ) ;
#161 = ORIENTED_EDGE ( 'NONE', *, *, #1170, .T. ) ;
#162 = EDGE_CURVE ( 'NONE', #818, #1380, #867, .T. ) ;
#163 = DIRECTION ( 'NONE',  ( 1.000000000000000000, 0.000000000000000000, 0.000000000000000000 ) ) ;
#164 = CARTESIAN_POINT ( 'NONE',  ( 15.50000000000000178, 0.000000000000000000, 3.000000000000000000 ) ) ;
#165 = LINE ( 'NONE', #53, #232 ) ;
#166 = ORIENTED_EDGE ( 'NONE', *, *, #932, .F. ) ;
#167 = AXIS2_PLACEMENT_3D ( 'NONE', #158, #283, #598 ) ;
#168 = CIRCLE ( 'NONE', #1368, 2.499999999999996891 ) ;
#169 = CARTESIAN_POINT ( 'NONE',  ( 10.25000000000008349, 17.75352077758093827, 3.000000000000000000 ) ) ;
#170 = CARTESIAN_POINT ( 'NONE',  ( 0.000000000000000000, 10.25352077758108926, 3.000000000000000000 ) ) ;
#171 = DIRECTION ( 'NONE',  ( 1.000000000000000000, 0.000000000000000000, 0.000000000000000000 ) ) ;
#172 = CARTESIAN_POINT ( 'NONE',  ( 10.50000000000000178, -10.25352077758108749, 0.000000000000000000 ) ) ;
#173 = CIRCLE ( 'NONE', #583, 2.499999999999998668 ) ;
#174 = VERTEX_POINT ( 'NONE', #861 ) ;
#175 = LINE ( 'NONE', #1008, #1305 ) ;
#176 = FACE_BOUND ( 'NONE', #545, .T. ) ;
#177 = DIRECTION ( 'NONE',  ( 1.000000000000000000, 0.000000000000000000, 0.000000000000000000 ) ) ;
#178 = DATE_TIME_ROLE ( 'classification_date' ) ;
#179 = ADVANCED_FACE ( 'NONE', ( #1297 ), #876, .F. ) ;
#180 = CARTESIAN_POINT ( 'NONE',  ( 29.90000000000001634, 21.90000000000000213, 14.75000000000000000 ) ) ;
#181 = ORIENTED_EDGE ( 'NONE', *, *, #924, .T. ) ;
#182 = FACE_OUTER_BOUND ( 'NONE', #1262, .T. ) ;
#183 = CARTESIAN_POINT ( 'NONE',  ( -12.75000000000008704, -17.75352077758094893, 3.000000000000000000 ) ) ;
#184 = LINE ( 'NONE', #1042, #1064 ) ;
#185 = ORIENTED_EDGE ( 'NONE', *, *, #510, .F. ) ;
#186 = ORIENTED_EDGE ( 'NONE', *, *, #400, .T. ) ;
#187 = AXIS2_PLACEMENT_3D ( 'NONE', #741, #204, #1206 ) ;
#188 = DIRECTION ( 'NONE',  ( 0.000000000000000000, -0.000000000000000000, -1.000000000000000000 ) ) ;
#189 = VECTOR ( 'NONE', #1239, 1000.000000000000000 ) ;
#190 = DIRECTION ( 'NONE',  ( -0.000000000000000000, -0.000000000000000000, -1.000000000000000000 ) ) ;
#191 = AXIS2_PLACEMENT_3D ( 'NONE', #650, #529, #116 ) ;
#192 = CLOSED_SHELL ( 'NONE', ( #1257, #1346, #1141, #251, #222, #114, #50, #947, #354, #254, #800, #136, #742, #1007, #727, #539, #756, #413, #551, #362, #120, #1343, #658, #1146 ) ) ;
#193 = ORIENTED_EDGE ( 'NONE', *, *, #1306, .T. ) ;
#194 = CYLINDRICAL_SURFACE ( 'NONE', #123, 2.499999999999996891 ) ;
#195 = EDGE_CURVE ( 'NONE', #19, #17, #1067, .T. ) ;
#196 = CARTESIAN_POINT ( 'NONE',  ( 12.75000000000008349, 17.75352077758093827, 0.000000000000000000 ) ) ;
#197 = ADVANCED_FACE ( 'NONE', ( #1307 ), #227, .T. ) ;
#198 = ORIENTED_EDGE ( 'NONE', *, *, #904, .T. ) ;
#199 = DIRECTION ( 'NONE',  ( 1.000000000000000000, 0.000000000000000000, 0.000000000000000000 ) ) ;
#200 = AXIS2_PLACEMENT_3D ( 'NONE', #371, #810, #1092 ) ;
#201 = EDGE_CURVE ( 'NONE', #942, #292, #437, .T. ) ;
#202 = CARTESIAN_POINT ( 'NONE',  ( 10.24999999999995914, -17.75352077758106262, 14.75000000000000000 ) ) ;
#203 = DIRECTION ( 'NONE',  ( -1.000000000000000000, 0.000000000000000000, 0.000000000000000000 ) ) ;
#204 = DIRECTION ( 'NONE',  ( 0.000000000000000000, 0.000000000000000000, 1.000000000000000000 ) ) ;
#205 = EDGE_LOOP ( 'NONE', ( #931, #323, #732, #355 ) ) ;
#206 = CARTESIAN_POINT ( 'NONE',  ( 23.00000000000000000, 3.061616997868381662E-16, 14.00000000000000000 ) ) ;
#207 = DIRECTION ( 'NONE',  ( 1.000000000000000000, 0.000000000000000000, 0.000000000000000000 ) ) ;
#208 = EDGE_CURVE ( 'NONE', #1106, #1210, #574, .T. ) ;
#209 = FACE_OUTER_BOUND ( 'NONE', #459, .T. ) ;
#210 = ORIENTED_EDGE ( 'NONE', *, *, #924, .F. ) ;
#211 = CARTESIAN_POINT ( 'NONE',  ( 12.75000000000008349, 17.75352077758093827, 3.000000000000000000 ) ) ;
#212 = CYLINDRICAL_SURFACE ( 'NONE', #191, 2.500000000000074163 ) ;
#213 = AXIS2_PLACEMENT_3D ( 'NONE', #839, #1149, #1029 ) ;
#214 = ORIENTED_EDGE ( 'NONE', *, *, #208, .T. ) ;
#215 = AXIS2_PLACEMENT_3D ( 'NONE', #1079, #121, #555 ) ;
#216 = EDGE_CURVE ( 'NONE', #1290, #1361, #960, .T. ) ;
#217 = CLOSED_SHELL ( 'NONE', ( #846, #197, #446, #415 ) ) ;
#218 = DIRECTION ( 'NONE',  ( -0.000000000000000000, 0.000000000000000000, 1.000000000000000000 ) ) ;
#219 = ORIENTED_EDGE ( 'NONE', *, *, #950, .F. ) ;
#220 = LOCAL_TIME ( 11, 33, 3.000000000000000000, #32 ) ;
#221 = DIRECTION ( 'NONE',  ( 1.000000000000000000, 0.000000000000000000, 0.000000000000000000 ) ) ;
#222 = ADVANCED_FACE ( 'NONE', ( #900 ), #1104, .T. ) ;
#223 = DIRECTION ( 'NONE',  ( -0.000000000000000000, -0.000000000000000000, -1.000000000000000000 ) ) ;
#224 = EDGE_LOOP ( 'NONE', ( #612, #581, #43, #1399 ) ) ;
#225 = CARTESIAN_POINT ( 'NONE',  ( -22.99999999999999645, 0.000000000000000000, 14.00000000000000000 ) ) ;
#226 = EDGE_LOOP ( 'NONE', ( #455, #1270 ) ) ;
#227 = CYLINDRICAL_SURFACE ( 'NONE', #651, 2.499999999999998668 ) ;
#228 = ORIENTED_EDGE ( 'NONE', *, *, #4, .T. ) ;
#229 = DIRECTION ( 'NONE',  ( -1.000000000000000000, 0.000000000000000000, 0.000000000000000000 ) ) ;
#230 = ORIENTED_EDGE ( 'NONE', *, *, #1194, .T. ) ;
#231 = DIRECTION ( 'NONE',  ( 1.000000000000000000, -1.584222352490234794E-16, 0.000000000000000000 ) ) ;
#232 = VECTOR ( 'NONE', #171, 1000.000000000000000 ) ;
#233 = CARTESIAN_POINT ( 'NONE',  ( 0.000000000000000000, 0.000000000000000000, 0.000000000000000000 ) ) ;
#234 = DATE_AND_TIME ( #694, #1326 ) ;
#235 = CIRCLE ( 'NONE', #892, 2.499999999999996891 ) ;
#236 = ORIENTED_EDGE ( 'NONE', *, *, #1376, .T. ) ;
#237 = ADVANCED_FACE ( 'NONE', ( #1325 ), #578, .F. ) ;
#238 = CARTESIAN_POINT ( 'NONE',  ( 0.000000000000000000, 0.000000000000000000, 14.00000000000000000 ) ) ;
#239 = ORIENTED_EDGE ( 'NONE', *, *, #1098, .F. ) ;
#240 = DIRECTION ( 'NONE',  ( 1.000000000000000000, 0.000000000000000000, 0.000000000000000000 ) ) ;
#241 = ORGANIZATION ( 'UNSPECIFIED', 'UNSPECIFIED', '' ) ;
#242 = DIRECTION ( 'NONE',  ( 0.000000000000000000, -0.000000000000000000, 1.000000000000000000 ) ) ;
#243 = COORDINATED_UNIVERSAL_TIME_OFFSET ( 8, 0, .AHEAD. ) ;
#244 = EDGE_LOOP ( 'NONE', ( #367, #27 ) ) ;
#245 = DIRECTION ( 'NONE',  ( -0.000000000000000000, 0.000000000000000000, 1.000000000000000000 ) ) ;
#246 = EDGE_CURVE ( 'NONE', #336, #954, #1363, .T. ) ;
#247 = ORIENTED_EDGE ( 'NONE', *, *, #804, .F. ) ;
#248 = DIRECTION ( 'NONE',  ( -0.000000000000000000, -0.000000000000000000, -1.000000000000000000 ) ) ;
#249 = ORIENTED_EDGE ( 'NONE', *, *, #916, .F. ) ;
#250 = LINE ( 'NONE', #682, #959 ) ;
#251 = ADVANCED_FACE ( 'NONE', ( #886 ), #46, .F. ) ;
#252 = ORIENTED_EDGE ( 'NONE', *, *, #848, .T. ) ;
#253 = DIRECTION ( 'NONE',  ( 0.000000000000000000, 0.000000000000000000, 1.000000000000000000 ) ) ;
#254 = ADVANCED_FACE ( 'NONE', ( #1002 ), #1317, .F. ) ;
#255 = VECTOR ( 'NONE', #958, 1000.000000000000000 ) ;
#256 = DIRECTION ( 'NONE',  ( -0.000000000000000000, 0.000000000000000000, 1.000000000000000000 ) ) ;
#257 = VECTOR ( 'NONE', #456, 1000.000000000000000 ) ;
#258 = ORIENTED_EDGE ( 'NONE', *, *, #1178, .F. ) ;
#259 = AXIS2_PLACEMENT_3D ( 'NONE', #1356, #1015, #44 ) ;
#260 = CARTESIAN_POINT ( 'NONE',  ( -10.25000000000008704, -17.75352077758094893, 0.000000000000000000 ) ) ;
#261 = FACE_BOUND ( 'NONE', #1230, .T. ) ;
#262 = CC_DESIGN_PERSON_AND_ORGANIZATION_ASSIGNMENT ( #1018, #458, ( #783 ) ) ;
#263 = CARTESIAN_POINT ( 'NONE',  ( 7.750000000000083489, 17.75352077758093827, 3.000000000000000000 ) ) ;
#264 = CIRCLE ( 'NONE', #309, 2.500000000000001332 ) ;
#265 = EDGE_CURVE ( 'NONE', #834, #818, #320, .T. ) ;
#266 = ORIENTED_EDGE ( 'NONE', *, *, #335, .T. ) ;
#267 = CARTESIAN_POINT ( 'NONE',  ( 24.90000000000001279, 21.90000000000000213, 2.999999999999999112 ) ) ;
#268 = CARTESIAN_POINT ( 'NONE',  ( -10.25000000000008704, -17.75352077758094893, 3.000000000000000000 ) ) ;
#269 = FACE_BOUND ( 'NONE', #244, .T. ) ;
#270 = COORDINATED_UNIVERSAL_TIME_OFFSET ( 8, 0, .AHEAD. ) ;
#271 = ORIENTED_EDGE ( 'NONE', *, *, #676, .T. ) ;
#272 = DIRECTION ( 'NONE',  ( -0.000000000000000000, -0.000000000000000000, -1.000000000000000000 ) ) ;
#273 = EDGE_CURVE ( 'NONE', #1205, #17, #137, .T. ) ;
#274 = CARTESIAN_POINT ( 'NONE',  ( 0.000000000000000000, 0.000000000000000000, 0.000000000000000000 ) ) ;
#275 = DIRECTION ( 'NONE',  ( -0.000000000000000000, -0.000000000000000000, -1.000000000000000000 ) ) ;
#276 = VERTEX_POINT ( 'NONE', #263 ) ;
#277 = CC_DESIGN_DATE_AND_TIME_ASSIGNMENT ( #833, #178, ( #543 ) ) ;
#278 = VECTOR ( 'NONE', #190, 1000.000000000000000 ) ;
#279 = ORIENTED_EDGE ( 'NONE', *, *, #162, .F. ) ;
#280 = DIRECTION ( 'NONE',  ( -0.000000000000000000, -0.000000000000000000, -1.000000000000000000 ) ) ;
#281 = AXIS2_PLACEMENT_3D ( 'NONE', #3, #327, #444 ) ;
#282 = EDGE_CURVE ( 'NONE', #1175, #662, #1295, .T. ) ;
#283 = DIRECTION ( 'NONE',  ( 0.000000000000000000, -0.000000000000000000, -1.000000000000000000 ) ) ;
#284 = CARTESIAN_POINT ( 'NONE',  ( 0.000000000000000000, -10.25352077758108749, 0.000000000000000000 ) ) ;
#285 = AXIS2_PLACEMENT_3D ( 'NONE', #1386, #1060, #417 ) ;
#286 = CARTESIAN_POINT ( 'NONE',  ( 29.90000000000000924, -21.89999999999999503, 14.75000000000000000 ) ) ;
#287 = ORIENTED_EDGE ( 'NONE', *, *, #1105, .F. ) ;
#288 = CYLINDRICAL_SURFACE ( 'NONE', #1109, 2.500000000000000444 ) ;
#289 = DIRECTION ( 'NONE',  ( 1.000000000000000000, 0.000000000000000000, 0.000000000000000000 ) ) ;
#290 = DIRECTION ( 'NONE',  ( 1.000000000000000000, 0.000000000000000000, 0.000000000000000000 ) ) ;
#291 = DIRECTION ( 'NONE',  ( 0.000000000000000000, 0.000000000000000000, 1.000000000000000000 ) ) ;
#292 = VERTEX_POINT ( 'NONE', #700 ) ;
#293 = CARTESIAN_POINT ( 'NONE',  ( -10.25000000000008704, -17.75352077758094893, 3.000000000000000000 ) ) ;
#294 = EDGE_CURVE ( 'NONE', #276, #19, #1213, .T. ) ;
#295 = CARTESIAN_POINT ( 'NONE',  ( 20.50000000000000000, 0.000000000000000000, 14.00000000000000000 ) ) ;
#296 = VERTEX_POINT ( 'NONE', #693 ) ;
#297 = EDGE_CURVE ( 'NONE', #1355, #1350, #684, .T. ) ;
#298 = CARTESIAN_POINT ( 'NONE',  ( -15.50000000000000000, -5.253520777581088375, 0.000000000000000000 ) ) ;
#299 = CARTESIAN_POINT ( 'NONE',  ( 7.750000000000083489, 17.75352077758093827, 0.000000000000000000 ) ) ;
#300 = ORIENTED_EDGE ( 'NONE', *, *, #760, .F. ) ;
#301 = CIRCLE ( 'NONE', #910, 2.500000000000001332 ) ;
#302 = CARTESIAN_POINT ( 'NONE',  ( 10.25000000000008349, 17.75352077758093827, 0.000000000000000000 ) ) ;
#303 = AXIS2_PLACEMENT_3D ( 'NONE', #268, #705, #821 ) ;
#304 = DIRECTION ( 'NONE',  ( -0.000000000000000000, -0.000000000000000000, -1.000000000000000000 ) ) ;
#305 = AXIS2_PLACEMENT_3D ( 'NONE', #1351, #1145, #163 ) ;
#306 = DIRECTION ( 'NONE',  ( 0.000000000000000000, 0.000000000000000000, 1.000000000000000000 ) ) ;
#307 = ORIENTED_EDGE ( 'NONE', *, *, #1043, .T. ) ;
#308 = DIRECTION ( 'NONE',  ( -0.000000000000000000, -0.000000000000000000, -1.000000000000000000 ) ) ;
#309 = AXIS2_PLACEMENT_3D ( 'NONE', #522, #1381, #528 ) ;
#310 = CARTESIAN_POINT ( 'NONE',  ( 29.90000000000001279, -4.736824833945804391E-15, 0.000000000000000000 ) ) ;
#311 = ORIENTED_EDGE ( 'NONE', *, *, #1306, .F. ) ;
#312 = CARTESIAN_POINT ( 'NONE',  ( -20.49999999999999645, 0.000000000000000000, 14.75000000000000000 ) ) ;
#313 = CYLINDRICAL_SURFACE ( 'NONE', #1322, 5.000000000000004441 ) ;
#314 = ORIENTED_EDGE ( 'NONE', *, *, #1245, .T. ) ;
#315 = CARTESIAN_POINT ( 'NONE',  ( -10.49999999999999822, 10.25352077758108926, 0.000000000000000000 ) ) ;
#316 = CARTESIAN_POINT ( 'NONE',  ( 12.75000000000008349, 17.75352077758093827, 14.00000000000000000 ) ) ;
#317 = ORIENTED_EDGE ( 'NONE', *, *, #1269, .F. ) ;
#318 = DIRECTION ( 'NONE',  ( 1.000000000000000000, 0.000000000000000000, 0.000000000000000000 ) ) ;
#319 = ORIENTED_EDGE ( 'NONE', *, *, #1001, .F. ) ;
#320 = CIRCLE ( 'NONE', #350, 2.500000000000075051 ) ;
#321 = DIRECTION ( 'NONE',  ( -0.000000000000000000, 0.000000000000000000, 1.000000000000000000 ) ) ;
#322 = AXIS2_PLACEMENT_3D ( 'NONE', #713, #1157, #622 ) ;
#323 = ORIENTED_EDGE ( 'NONE', *, *, #745, .F. ) ;
#324 = AXIS2_PLACEMENT_3D ( 'NONE', #661, #342, #127 ) ;
#325 = CYLINDRICAL_SURFACE ( 'NONE', #576, 2.500000000000074163 ) ;
#326 = VECTOR ( 'NONE', #618, 1000.000000000000000 ) ;
#327 = DIRECTION ( 'NONE',  ( -0.000000000000000000, -0.000000000000000000, -1.000000000000000000 ) ) ;
#328 = EDGE_LOOP ( 'NONE', ( #1159, #314, #1115, #22 ) ) ;
#329 = PRODUCT_DEFINITION_FORMATION_WITH_SPECIFIED_SOURCE ( 'ANY', '', #783, .NOT_KNOWN. ) ;
#330 = DIRECTION ( 'NONE',  ( -0.000000000000000000, -0.000000000000000000, -1.000000000000000000 ) ) ;
#331 = VERTEX_POINT ( 'NONE', #40 ) ;
#332 = DIRECTION ( 'NONE',  ( 0.000000000000000000, -1.000000000000000000, 0.000000000000000000 ) ) ;
#333 = ORIENTED_EDGE ( 'NONE', *, *, #617, .T. ) ;
#334 = FACE_OUTER_BOUND ( 'NONE', #702, .T. ) ;
#335 = EDGE_CURVE ( 'NONE', #1350, #1137, #457, .T. ) ;
#336 = VERTEX_POINT ( 'NONE', #1333 ) ;
#337 = EDGE_CURVE ( 'NONE', #1254, #2, #734, .T. ) ;
#338 = PLANE ( 'NONE',  #1082 ) ;
#339 = DIRECTION ( 'NONE',  ( 1.000000000000000000, 0.000000000000000000, 0.000000000000000000 ) ) ;
#340 = EDGE_CURVE ( 'NONE', #722, #527, #479, .T. ) ;
#341 = ORIENTED_EDGE ( 'NONE', *, *, #1081, .F. ) ;
#342 = DIRECTION ( 'NONE',  ( -0.000000000000000000, 0.000000000000000000, 1.000000000000000000 ) ) ;
#343 = VERTEX_POINT ( 'NONE', #982 ) ;
#344 = DIRECTION ( 'NONE',  ( -0.000000000000000000, 0.000000000000000000, 1.000000000000000000 ) ) ;
#345 = AXIS2_PLACEMENT_3D ( 'NONE', #129, #344, #992 ) ;
#346 = AXIS2_PLACEMENT_3D ( 'NONE', #984, #353, #9 ) ;
#347 = CARTESIAN_POINT ( 'NONE',  ( -24.90000000000001990, -21.89999999999998792, 0.000000000000000000 ) ) ;
#348 = CARTESIAN_POINT ( 'NONE',  ( -12.75000000000008704, -17.75352077758094893, 14.00000000000000000 ) ) ;
#349 = CC_DESIGN_PERSON_AND_ORGANIZATION_ASSIGNMENT ( #788, #138, ( #577 ) ) ;
#350 = AXIS2_PLACEMENT_3D ( 'NONE', #464, #679, #25 ) ;
#351 = ORIENTED_EDGE ( 'NONE', *, *, #1245, .F. ) ;
#352 = VERTEX_POINT ( 'NONE', #21 ) ;
#353 = DIRECTION ( 'NONE',  ( -0.000000000000000000, -0.000000000000000000, -1.000000000000000000 ) ) ;
#354 = ADVANCED_FACE ( 'NONE', ( #452 ), #338, .T. ) ;
#355 = ORIENTED_EDGE ( 'NONE', *, *, #1001, .T. ) ;
#356 = VECTOR ( 'NONE', #1039, 1000.000000000000000 ) ;
#357 = CARTESIAN_POINT ( 'NONE',  ( -29.89999999999999503, -26.89999999999999858, 3.000000000000000000 ) ) ;
#358 = APPROVAL_DATE_TIME ( #887, #605 ) ;
#359 = EDGE_CURVE ( 'NONE', #292, #942, #301, .T. ) ;
#360 = ORIENTED_EDGE ( 'NONE', *, *, #888, .T. ) ;
#361 = FACE_OUTER_BOUND ( 'NONE', #502, .T. ) ;
#362 = ADVANCED_FACE ( 'NONE', ( #733 ), #1240, .F. ) ;
#363 = EDGE_LOOP ( 'NONE', ( #471, #1071, #317, #161 ) ) ;
#364 = CARTESIAN_POINT ( 'NONE',  ( 23.00000000000000000, 3.061616997868381662E-16, 14.00000000000000000 ) ) ;
#365 = CARTESIAN_POINT ( 'NONE',  ( -10.25000000000008704, -17.75352077758094893, 0.000000000000000000 ) ) ;
#366 = CARTESIAN_POINT ( 'NONE',  ( 15.50000000000000178, 0.000000000000000000, 0.000000000000000000 ) ) ;
#367 = ORIENTED_EDGE ( 'NONE', *, *, #699, .F. ) ;
#368 = DIRECTION ( 'NONE',  ( -0.000000000000000000, -0.000000000000000000, -1.000000000000000000 ) ) ;
#369 = AXIS2_PLACEMENT_3D ( 'NONE', #1291, #99, #318 ) ;
#370 = DIRECTION ( 'NONE',  ( 1.000000000000000000, 0.000000000000000000, 0.000000000000000000 ) ) ;
#371 = CARTESIAN_POINT ( 'NONE',  ( -10.49999999999999822, 5.253520777581088375, 0.000000000000000000 ) ) ;
#372 = VECTOR ( 'NONE', #74, 1000.000000000000000 ) ;
#373 = ORIENTED_EDGE ( 'NONE', *, *, #294, .F. ) ;
#374 = VECTOR ( 'NONE', #395, 1000.000000000000000 ) ;
#375 = VECTOR ( 'NONE', #812, 1000.000000000000000 ) ;
#376 = DIRECTION ( 'NONE',  ( -1.000000000000000000, 0.000000000000000000, 0.000000000000000000 ) ) ;
#377 = CARTESIAN_POINT ( 'NONE',  ( 10.50000000000000178, -5.253520777581088375, 3.000000000000000000 ) ) ;
#378 = DIRECTION ( 'NONE',  ( -1.584222352490234794E-16, -1.000000000000000000, 0.000000000000000000 ) ) ;
#379 = APPROVAL_STATUS ( 'not_yet_approved' ) ;
#380 = AXIS2_PLACEMENT_3D ( 'NONE', #780, #54, #1207 ) ;
#381 = LINE ( 'NONE', #180, #375 ) ;
#382 = CARTESIAN_POINT ( 'NONE',  ( -12.75000000000008882, -17.75352077758094893, 14.00000000000000000 ) ) ;
#383 = CARTESIAN_POINT ( 'NONE',  ( 0.000000000000000000, 0.000000000000000000, 0.000000000000000000 ) ) ;
#384 = DIRECTION ( 'NONE',  ( -0.000000000000000000, 0.000000000000000000, 1.000000000000000000 ) ) ;
#385 = APPROVAL ( #1030, 'UNSPECIFIED' ) ;
#386 = ORIENTED_EDGE ( 'NONE', *, *, #1365, .F. ) ;
#387 = ORIENTED_EDGE ( 'NONE', *, *, #1266, .F. ) ;
#388 = CYLINDRICAL_SURFACE ( 'NONE', #1208, 2.499999999999996891 ) ;
#389 = CARTESIAN_POINT ( 'NONE',  ( 24.90000000000001279, 26.90000000000000213, 14.75000000000000000 ) ) ;
#390 = CARTESIAN_POINT ( 'NONE',  ( -10.25000000000008704, -17.75352077758094893, 14.00000000000000000 ) ) ;
#391 = ORIENTED_EDGE ( 'NONE', *, *, #451, .T. ) ;
#392 = CIRCLE ( 'NONE', #167, 4.999999999999999112 ) ;
#393 = AXIS2_PLACEMENT_3D ( 'NONE', #740, #321, #1177 ) ;
#394 = ORIENTED_EDGE ( 'NONE', *, *, #70, .T. ) ;
#395 = DIRECTION ( 'NONE',  ( 1.584222352490234794E-16, 1.000000000000000000, 0.000000000000000000 ) ) ;
#396 = AXIS2_PLACEMENT_3D ( 'NONE', #772, #794, #144 ) ;
#397 = DIRECTION ( 'NONE',  ( -0.000000000000000000, 0.000000000000000000, 1.000000000000000000 ) ) ;
#398 = DIRECTION ( 'NONE',  ( -0.000000000000000000, 0.000000000000000000, 1.000000000000000000 ) ) ;
#399 = EDGE_LOOP ( 'NONE', ( #300, #453, #1372, #748 ) ) ;
#400 = EDGE_CURVE ( 'NONE', #1389, #521, #1340, .T. ) ;
#401 = EDGE_LOOP ( 'NONE', ( #827, #198, #1219, #210 ) ) ;
#402 = FACE_OUTER_BOUND ( 'NONE', #34, .T. ) ;
#403 = ADVANCED_FACE ( 'NONE', ( #938 ), #720, .T. ) ;
#404 = DIRECTION ( 'NONE',  ( 1.000000000000000000, 0.000000000000000000, 0.000000000000000000 ) ) ;
#405 = ORIENTED_EDGE ( 'NONE', *, *, #610, .T. ) ;
#406 = CARTESIAN_POINT ( 'NONE',  ( -7.749999999999840128, 17.75352077758108749, 14.00000000000000000 ) ) ;
#407 = DIRECTION ( 'NONE',  ( 0.000000000000000000, 0.000000000000000000, 1.000000000000000000 ) ) ;
#408 = VERTEX_POINT ( 'NONE', #485 ) ;
#409 = CARTESIAN_POINT ( 'NONE',  ( -10.24999999999983658, 17.75352077758108749, 3.000000000000000000 ) ) ;
#410 = CARTESIAN_POINT ( 'NONE',  ( 10.25000000000008349, 17.75352077758093827, 14.00000000000000000 ) ) ;
#411 = DIRECTION ( 'NONE',  ( -0.000000000000000000, -0.000000000000000000, -1.000000000000000000 ) ) ;
#412 = COORDINATED_UNIVERSAL_TIME_OFFSET ( 8, 0, .AHEAD. ) ;
#413 = ADVANCED_FACE ( 'NONE', ( #493, #1378, #726, #269, #1370 ), #1017, .T. ) ;
#414 = DIRECTION ( 'NONE',  ( 0.000000000000000000, -1.000000000000000000, 0.000000000000000000 ) ) ;
#415 = ADVANCED_FACE ( 'NONE', ( #607 ), #929, .T. ) ;
#416 = ORIENTED_EDGE ( 'NONE', *, *, #761, .T. ) ;
#417 = DIRECTION ( 'NONE',  ( -1.000000000000000000, 0.000000000000000000, 0.000000000000000000 ) ) ;
#418 = CIRCLE ( 'NONE', #1247, 2.500000000000000444 ) ;
#419 = DIRECTION ( 'NONE',  ( -1.000000000000000000, 0.000000000000000000, 0.000000000000000000 ) ) ;
#420 = VECTOR ( 'NONE', #1382, 1000.000000000000000 ) ;
#421 = VERTEX_POINT ( 'NONE', #406 ) ;
#422 = DIRECTION ( 'NONE',  ( -0.000000000000000000, -0.000000000000000000, -1.000000000000000000 ) ) ;
#423 = ORIENTED_EDGE ( 'NONE', *, *, #48, .T. ) ;
#424 = CARTESIAN_POINT ( 'NONE',  ( 15.50000000000000178, -5.253520777581088375, 3.000000000000000000 ) ) ;
#425 = LOCAL_TIME ( 11, 33, 3.000000000000000000, #243 ) ;
#426 = FACE_OUTER_BOUND ( 'NONE', #569, .T. ) ;
#427 = ORIENTED_EDGE ( 'NONE', *, *, #335, .F. ) ;
#428 = DIRECTION ( 'NONE',  ( 0.000000000000000000, 0.000000000000000000, 1.000000000000000000 ) ) ;
#429 = CYLINDRICAL_SURFACE ( 'NONE', #281, 5.000000000000000888 ) ;
#430 = ORIENTED_EDGE ( 'NONE', *, *, #1178, .T. ) ;
#431 = CARTESIAN_POINT ( 'NONE',  ( -24.90000000000001279, 26.89999999999999858, 3.000000000000000000 ) ) ;
#432 = EDGE_CURVE ( 'NONE', #674, #907, #103, .T. ) ;
#433 = DIRECTION ( 'NONE',  ( 1.000000000000000000, 0.000000000000000000, 0.000000000000000000 ) ) ;
#434 = ORIENTED_EDGE ( 'NONE', *, *, #400, .F. ) ;
#435 = DIRECTION ( 'NONE',  ( 1.000000000000000000, 0.000000000000000000, 0.000000000000000000 ) ) ;
#436 = ORIENTED_EDGE ( 'NONE', *, *, #957, .F. ) ;
#437 = CIRCLE ( 'NONE', #1221, 2.500000000000001332 ) ;
#438 = MANIFOLD_SOLID_BREP ( '填料-伸長3[3]', #516 ) ;
#439 = CARTESIAN_POINT ( 'NONE',  ( -10.24999999999983658, 17.75352077758108749, 14.00000000000000000 ) ) ;
#440 = EDGE_LOOP ( 'NONE', ( #754, #728, #989, #271, #1048, #1103, #1280, #995 ) ) ;
#441 = AXIS2_PLACEMENT_3D ( 'NONE', #1255, #1117, #934 ) ;
#442 = DIRECTION ( 'NONE',  ( 1.000000000000000000, 0.000000000000000000, 0.000000000000000000 ) ) ;
#443 = AXIS2_PLACEMENT_3D ( 'NONE', #233, #1113, #370 ) ;
#444 = DIRECTION ( 'NONE',  ( -1.000000000000000000, 0.000000000000000000, 0.000000000000000000 ) ) ;
#445 = ORIENTED_EDGE ( 'NONE', *, *, #8, .F. ) ;
#446 = ADVANCED_FACE ( 'NONE', ( #1268 ), #1036, .F. ) ;
#447 = CIRCLE ( 'NONE', #200, 5.000000000000000888 ) ;
#448 = CARTESIAN_POINT ( 'NONE',  ( 24.90000000000000568, -26.89999999999999858, 2.999999999999999112 ) ) ;
#449 = ADVANCED_FACE ( 'NONE', ( #1251 ), #1353, .T. ) ;
#450 = VERTEX_POINT ( 'NONE', #298 ) ;
#451 = EDGE_CURVE ( 'NONE', #1362, #55, #591, .T. ) ;
#452 = FACE_OUTER_BOUND ( 'NONE', #768, .T. ) ;
#453 = ORIENTED_EDGE ( 'NONE', *, *, #531, .T. ) ;
#454 = CARTESIAN_POINT ( 'NONE',  ( 12.75000000000008349, 17.75352077758093827, 14.75000000000000000 ) ) ;
#455 = ORIENTED_EDGE ( 'NONE', *, *, #201, .F. ) ;
#456 = DIRECTION ( 'NONE',  ( -0.000000000000000000, -0.000000000000000000, -1.000000000000000000 ) ) ;
#457 = LINE ( 'NONE', #586, #122 ) ;
#458 = PERSON_AND_ORGANIZATION_ROLE ( 'design_owner' ) ;
#459 = EDGE_LOOP ( 'NONE', ( #476, #78, #430, #841 ) ) ;
#460 = CYLINDRICAL_SURFACE ( 'NONE', #757, 2.499999999999996891 ) ;
#461 = ORIENTED_EDGE ( 'NONE', *, *, #593, .T. ) ;
#462 = AXIS2_PLACEMENT_3D ( 'NONE', #792, #253, #690 ) ;
#463 = CIRCLE ( 'NONE', #324, 2.499999999999998668 ) ;
#464 = CARTESIAN_POINT ( 'NONE',  ( 10.24999999999995914, -17.75352077758106262, 14.75000000000000000 ) ) ;
#465 = CALENDAR_DATE ( 2026, 5, 6 ) ;
#466 = CLOSED_SHELL ( 'NONE', ( #1191, #1004, #1050, #6 ) ) ;
#467 = EDGE_CURVE ( 'NONE', #1335, #1137, #165, .T. ) ;
#468 = ORIENTED_EDGE ( 'NONE', *, *, #888, .F. ) ;
#469 = DIRECTION ( 'NONE',  ( 0.000000000000000000, 0.000000000000000000, 1.000000000000000000 ) ) ;
#470 = AXIS2_PLACEMENT_3D ( 'NONE', #1069, #80, #842 ) ;
#471 = ORIENTED_EDGE ( 'NONE', *, *, #761, .F. ) ;
#472 = LINE ( 'NONE', #1097, #257 ) ;
#473 = MANIFOLD_SOLID_BREP ( '填料-伸長2[4]', #466 ) ;
#474 = DIRECTION ( 'NONE',  ( -0.000000000000000000, -0.000000000000000000, -1.000000000000000000 ) ) ;
#475 = APPLICATION_PROTOCOL_DEFINITION ( 'international standard', 'config_control_design', 1994, #721 ) ;
#476 = ORIENTED_EDGE ( 'NONE', *, *, #1376, .F. ) ;
#477 = APPROVAL ( #1214, 'UNSPECIFIED' ) ;
#478 = DIRECTION ( 'NONE',  ( -0.000000000000000000, 0.000000000000000000, 1.000000000000000000 ) ) ;
#479 = LINE ( 'NONE', #906, #56 ) ;
#480 = CARTESIAN_POINT ( 'NONE',  ( 18.00000000000000355, 0.000000000000000000, 0.000000000000000000 ) ) ;
#481 = ORIENTED_EDGE ( 'NONE', *, *, #1148, .T. ) ;
#482 = CARTESIAN_POINT ( 'NONE',  ( 12.75000000000003197, -17.75352077758106262, 14.00000000000000000 ) ) ;
#483 = PLANE ( 'NONE',  #977 ) ;
#484 = AXIS2_PLACEMENT_3D ( 'NONE', #616, #1125, #62 ) ;
#485 = CARTESIAN_POINT ( 'NONE',  ( 15.50000000000000178, 5.253520777581088375, 0.000000000000000000 ) ) ;
#486 =( LENGTH_UNIT ( ) NAMED_UNIT ( * ) SI_UNIT ( .MILLI., .METRE. ) );
#487 = AXIS2_PLACEMENT_3D ( 'NONE', #799, #1226, #853 ) ;
#488 = ORIENTED_EDGE ( 'NONE', *, *, #273, .F. ) ;
#489 = AXIS2_PLACEMENT_3D ( 'NONE', #238, #245, #582 ) ;
#490 = CARTESIAN_POINT ( 'NONE',  ( 12.75000000000003375, -17.75352077758106262, 0.000000000000000000 ) ) ;
#491 = FACE_OUTER_BOUND ( 'NONE', #399, .T. ) ;
#492 = EDGE_CURVE ( 'NONE', #954, #716, #75, .T. ) ;
#493 = FACE_OUTER_BOUND ( 'NONE', #1275, .T. ) ;
#494 = VECTOR ( 'NONE', #1163, 1000.000000000000000 ) ;
#495 = EDGE_CURVE ( 'NONE', #674, #336, #184, .T. ) ;
#496 = DIRECTION ( 'NONE',  ( 1.000000000000000000, 0.000000000000000000, -0.000000000000000000 ) ) ;
#497 = ORIENTED_EDGE ( 'NONE', *, *, #492, .T. ) ;
#498 = CARTESIAN_POINT ( 'NONE',  ( 12.75000000000008349, 17.75352077758093827, 0.000000000000000000 ) ) ;
#499 = CARTESIAN_POINT ( 'NONE',  ( -7.750000000000086153, -17.75352077758094893, 3.000000000000000000 ) ) ;
#500 = DIRECTION ( 'NONE',  ( -1.000000000000000000, 0.000000000000000000, 0.000000000000000000 ) ) ;
#501 = ORIENTED_EDGE ( 'NONE', *, *, #820, .T. ) ;
#502 = EDGE_LOOP ( 'NONE', ( #228, #461 ) ) ;
#503 = DIRECTION ( 'NONE',  ( -0.000000000000000000, -0.000000000000000000, -1.000000000000000000 ) ) ;
#504 = CARTESIAN_POINT ( 'NONE',  ( 10.50000000000000178, -10.25352077758108749, 3.000000000000000000 ) ) ;
#505 = CARTESIAN_POINT ( 'NONE',  ( -29.89999999999999503, -26.89999999999999858, 0.000000000000000000 ) ) ;
#506 = PERSON_AND_ORGANIZATION ( #1020, #241 ) ;
#507 = ADVANCED_FACE ( 'NONE', ( #600 ), #518, .T. ) ;
#508 = VECTOR ( 'NONE', #332, 1000.000000000000000 ) ;
#509 = VERTEX_POINT ( 'NONE', #809 ) ;
#510 = EDGE_CURVE ( 'NONE', #1009, #716, #1234, .T. ) ;
#511 = AXIS2_PLACEMENT_3D ( 'NONE', #538, #98, #203 ) ;
#512 = AXIS2_PLACEMENT_3D ( 'NONE', #643, #951, #221 ) ;
#513 = EDGE_LOOP ( 'NONE', ( #636, #660 ) ) ;
#514 = FACE_OUTER_BOUND ( 'NONE', #838, .T. ) ;
#515 = ADVANCED_FACE ( 'NONE', ( #855 ), #325, .T. ) ;
#516 = CLOSED_SHELL ( 'NONE', ( #811, #874, #179, #449 ) ) ;
#517 = PLANE ( 'NONE',  #487 ) ;
#518 = CYLINDRICAL_SURFACE ( 'NONE', #691, 2.500000000000000444 ) ;
#519 = AXIS2_PLACEMENT_3D ( 'NONE', #852, #101, #962 ) ;
#520 = ORIENTED_EDGE ( 'NONE', *, *, #1063, .T. ) ;
#521 = VERTEX_POINT ( 'NONE', #1383 ) ;
#522 = CARTESIAN_POINT ( 'NONE',  ( -10.25000000000008704, -17.75352077758094893, 0.000000000000000000 ) ) ;
#523 = CARTESIAN_POINT ( 'NONE',  ( -12.74999999999983480, 17.75352077758108749, 3.000000000000000000 ) ) ;
#524 = ORIENTED_EDGE ( 'NONE', *, *, #610, .F. ) ;
#525 = CARTESIAN_POINT ( 'NONE',  ( 10.24999999999995914, -17.75352077758106262, 14.00000000000000000 ) ) ;
#526 = DIRECTION ( 'NONE',  ( 1.000000000000000000, 0.000000000000000000, 0.000000000000000000 ) ) ;
#527 = VERTEX_POINT ( 'NONE', #866 ) ;
#528 = DIRECTION ( 'NONE',  ( 1.000000000000000000, 0.000000000000000000, 0.000000000000000000 ) ) ;
#529 = DIRECTION ( 'NONE',  ( -0.000000000000000000, -0.000000000000000000, -1.000000000000000000 ) ) ;
#530 = CARTESIAN_POINT ( 'NONE',  ( -10.24999999999983658, 17.75352077758108749, 14.00000000000000000 ) ) ;
#531 = EDGE_CURVE ( 'NONE', #974, #547, #736, .T. ) ;
#532 = CARTESIAN_POINT ( 'NONE',  ( -10.49999999999999822, -10.25352077758108749, 3.000000000000000000 ) ) ;
#533 = EDGE_LOOP ( 'NONE', ( #774, #940, #230, #677 ) ) ;
#534 = VECTOR ( 'NONE', #970, 1000.000000000000000 ) ;
#535 = LINE ( 'NONE', #1403, #109 ) ;
#536 = LINE ( 'NONE', #1164, #420 ) ;
#537 = CLOSED_SHELL ( 'NONE', ( #626, #985, #952, #793 ) ) ;
#538 = CARTESIAN_POINT ( 'NONE',  ( -24.90000000000001990, -21.89999999999998792, 14.75000000000000000 ) ) ;
#539 = ADVANCED_FACE ( 'NONE', ( #1284 ), #194, .F. ) ;
#540 = CARTESIAN_POINT ( 'NONE',  ( -15.50000000000000000, 0.000000000000000000, 3.000000000000000000 ) ) ;
#541 = ORIENTED_EDGE ( 'NONE', *, *, #162, .T. ) ;
#542 = CARTESIAN_POINT ( 'NONE',  ( -24.90000000000001279, 26.90000000000000924, 14.75000000000000000 ) ) ;
#543 = SECURITY_CLASSIFICATION ( '', '', #63 ) ;
#544 = CARTESIAN_POINT ( 'NONE',  ( 10.25000000000008349, 17.75352077758093827, 14.00000000000000000 ) ) ;
#545 = EDGE_LOOP ( 'NONE', ( #193, #1144 ) ) ;
#546 = LINE ( 'NONE', #532, #623 ) ;
#547 = VERTEX_POINT ( 'NONE', #1400 ) ;
#548 = CARTESIAN_POINT ( 'NONE',  ( -18.00000000000000000, 3.061616997868381662E-16, 14.00000000000000000 ) ) ;
#549 = ORIENTED_EDGE ( 'NONE', *, *, #1227, .T. ) ;
#550 = DIRECTION ( 'NONE',  ( -0.000000000000000000, 0.000000000000000000, 1.000000000000000000 ) ) ;
#551 = ADVANCED_FACE ( 'NONE', ( #1277 ), #1166, .T. ) ;
#552 = VERTEX_POINT ( 'NONE', #639 ) ;
#553 = EDGE_CURVE ( 'NONE', #352, #966, #801, .T. ) ;
#554 = AXIS2_PLACEMENT_3D ( 'NONE', #706, #398, #1142 ) ;
#555 = DIRECTION ( 'NONE',  ( 1.000000000000000000, 0.000000000000000000, -0.000000000000000000 ) ) ;
#556 = AXIS2_PLACEMENT_3D ( 'NONE', #923, #1025, #177 ) ;
#557 = ORIENTED_EDGE ( 'NONE', *, *, #1220, .T. ) ;
#558 = AXIS2_PLACEMENT_3D ( 'NONE', #963, #304, #1061 ) ;
#559 = DIRECTION ( 'NONE',  ( 0.000000000000000000, 0.000000000000000000, 1.000000000000000000 ) ) ;
#560 = DESIGN_CONTEXT ( 'detailed design', #140, 'design' ) ;
#561 = ORIENTED_EDGE ( 'NONE', *, *, #359, .T. ) ;
#562 = CC_DESIGN_PERSON_AND_ORGANIZATION_ASSIGNMENT ( #1334, #1012, ( #329 ) ) ;
#563 = CYLINDRICAL_SURFACE ( 'NONE', #346, 2.499999999999998668 ) ;
#564 = ORIENTED_EDGE ( 'NONE', *, *, #195, .F. ) ;
#565 = DIRECTION ( 'NONE',  ( -0.000000000000000000, -0.000000000000000000, 1.000000000000000000 ) ) ;
#566 = CARTESIAN_POINT ( 'NONE',  ( -10.49999999999999822, 10.25352077758108926, 3.000000000000000000 ) ) ;
#567 = EDGE_LOOP ( 'NONE', ( #351, #1184, #766, #186 ) ) ;
#568 = CARTESIAN_POINT ( 'NONE',  ( -24.90000000000001990, -26.89999999999999503, 0.000000000000000000 ) ) ;
#569 = EDGE_LOOP ( 'NONE', ( #468, #1347, #557, #1074 ) ) ;
#570 = DIRECTION ( 'NONE',  ( -0.000000000000000000, -0.000000000000000000, -1.000000000000000000 ) ) ;
#571 = CALENDAR_DATE ( 2026, 5, 6 ) ;
#572 = ORIENTED_EDGE ( 'NONE', *, *, #155, .T. ) ;
#573 = CARTESIAN_POINT ( 'NONE',  ( -10.49999999999999822, 10.25352077758108926, 3.000000000000000000 ) ) ;
#574 = CIRCLE ( 'NONE', #187, 2.500000000000001332 ) ;
#575 = ORIENTED_EDGE ( 'NONE', *, *, #1148, .F. ) ;
#576 = AXIS2_PLACEMENT_3D ( 'NONE', #525, #411, #644 ) ;
#577 = PRODUCT_DEFINITION ( 'UNKNOWN', '', #329, #560 ) ;
#578 = PLANE ( 'NONE',  #443 ) ;
#579 = APPROVAL_ROLE ( '' ) ;
#580 = AXIS2_PLACEMENT_3D ( 'NONE', #357, #31, #242 ) ;
#581 = ORIENTED_EDGE ( 'NONE', *, *, #1303, .T. ) ;
#582 = DIRECTION ( 'NONE',  ( 1.000000000000000000, 0.000000000000000000, 0.000000000000000000 ) ) ;
#583 = AXIS2_PLACEMENT_3D ( 'NONE', #1169, #1281, #858 ) ;
#584 = ORIENTED_EDGE ( 'NONE', *, *, #553, .F. ) ;
#585 = PLANE ( 'NONE',  #1388 ) ;
#586 = CARTESIAN_POINT ( 'NONE',  ( 10.50000000000000178, 10.25352077758108926, 3.000000000000000000 ) ) ;
#587 = PERSON_AND_ORGANIZATION ( #1020, #241 ) ;
#588 = EDGE_LOOP ( 'NONE', ( #764, #575, #541, #501 ) ) ;
#589 = DIRECTION ( 'NONE',  ( 1.000000000000000000, 0.000000000000000000, 0.000000000000000000 ) ) ;
#590 = CARTESIAN_POINT ( 'NONE',  ( 24.90000000000000568, -26.89999999999999858, -0.000000000000000000 ) ) ;
#591 = LINE ( 'NONE', #284, #1180 ) ;
#592 = LINE ( 'NONE', #348, #1231 ) ;
#593 = EDGE_CURVE ( 'NONE', #421, #509, #599, .T. ) ;
#594 = VERTEX_POINT ( 'NONE', #1000 ) ;
#595 = EDGE_CURVE ( 'NONE', #126, #1009, #20, .T. ) ;
#596 = DIRECTION ( 'NONE',  ( 1.000000000000000000, 5.801750755775273780E-17, 0.000000000000000000 ) ) ;
#597 = EDGE_CURVE ( 'NONE', #1179, #100, #1129, .T. ) ;
#598 = DIRECTION ( 'NONE',  ( 1.000000000000000000, 0.000000000000000000, 0.000000000000000000 ) ) ;
#599 = CIRCLE ( 'NONE', #755, 2.499999999999996891 ) ;
#600 = FACE_OUTER_BOUND ( 'NONE', #1313, .T. ) ;
#601 = CIRCLE ( 'NONE', #775, 2.500000000000073275 ) ;
#602 = CARTESIAN_POINT ( 'NONE',  ( -10.25000000000008704, -17.75352077758094893, 3.000000000000000000 ) ) ;
#603 = VECTOR ( 'NONE', #710, 1000.000000000000000 ) ;
#604 = PLANE ( 'NONE',  #1158 ) ;
#605 = APPROVAL ( #379, 'UNSPECIFIED' ) ;
#606 = DIRECTION ( 'NONE',  ( -0.000000000000000000, 0.000000000000000000, 1.000000000000000000 ) ) ;
#607 = FACE_OUTER_BOUND ( 'NONE', #147, .T. ) ;
#608 = SHAPE_DEFINITION_REPRESENTATION ( #964, #130 ) ;
#609 = CIRCLE ( 'NONE', #784, 2.500000000000000444 ) ;
#610 = EDGE_CURVE ( 'NONE', #331, #552, #1366, .T. ) ;
#611 = CARTESIAN_POINT ( 'NONE',  ( -12.75000000000008882, -17.75352077758094893, 0.000000000000000000 ) ) ;
#612 = ORIENTED_EDGE ( 'NONE', *, *, #1259, .T. ) ;
#613 = FACE_OUTER_BOUND ( 'NONE', #998, .T. ) ;
#614 = EDGE_CURVE ( 'NONE', #1210, #292, #472, .T. ) ;
#615 = LINE ( 'NONE', #499, #1341 ) ;
#616 = CARTESIAN_POINT ( 'NONE',  ( -29.90000000000001990, 4.736824833945805179E-15, 14.75000000000000000 ) ) ;
#617 = EDGE_CURVE ( 'NONE', #969, #795, #1276, .T. ) ;
#618 = DIRECTION ( 'NONE',  ( -0.000000000000000000, -0.000000000000000000, -1.000000000000000000 ) ) ;
#619 = ORIENTED_EDGE ( 'NONE', *, *, #1043, .F. ) ;
#620 = DIRECTION ( 'NONE',  ( -0.000000000000000000, 0.000000000000000000, 1.000000000000000000 ) ) ;
#621 = DIRECTION ( 'NONE',  ( -0.000000000000000000, -0.000000000000000000, -1.000000000000000000 ) ) ;
#622 = DIRECTION ( 'NONE',  ( 1.000000000000000000, 0.000000000000000000, -0.000000000000000000 ) ) ;
#623 = VECTOR ( 'NONE', #422, 1000.000000000000000 ) ;
#624 = EDGE_LOOP ( 'NONE', ( #669, #360, #1019, #1013 ) ) ;
#625 = VECTOR ( 'NONE', #290, 1000.000000000000000 ) ;
#626 = ADVANCED_FACE ( 'NONE', ( #1332 ), #1112, .T. ) ;
#627 = VECTOR ( 'NONE', #330, 1000.000000000000000 ) ;
#628 = VERTEX_POINT ( 'NONE', #364 ) ;
#629 = DIRECTION ( 'NONE',  ( 1.000000000000000000, 0.000000000000000000, 0.000000000000000000 ) ) ;
#630 = AXIS2_PLACEMENT_3D ( 'NONE', #659, #218, #653 ) ;
#631 = CARTESIAN_POINT ( 'NONE',  ( -10.24999999999983658, 17.75352077758108749, 0.000000000000000000 ) ) ;
#632 = ORIENTED_EDGE ( 'NONE', *, *, #1196, .F. ) ;
#633 = CARTESIAN_POINT ( 'NONE',  ( 24.90000000000000568, -26.89999999999999858, 14.75000000000000000 ) ) ;
#634 = AXIS2_PLACEMENT_3D ( 'NONE', #744, #1201, #199 ) ;
#635 = DIRECTION ( 'NONE',  ( -0.000000000000000000, 0.000000000000000000, 1.000000000000000000 ) ) ;
#636 = ORIENTED_EDGE ( 'NONE', *, *, #829, .T. ) ;
#637 = DIRECTION ( 'NONE',  ( 1.000000000000000000, 0.000000000000000000, 0.000000000000000000 ) ) ;
#638 = DIRECTION ( 'NONE',  ( -0.000000000000000000, -0.000000000000000000, -1.000000000000000000 ) ) ;
#639 = CARTESIAN_POINT ( 'NONE',  ( -18.00000000000000000, 3.061616997868381662E-16, 0.000000000000000000 ) ) ;
#640 = CARTESIAN_POINT ( 'NONE',  ( -15.50000000000000000, 0.000000000000000000, 0.000000000000000000 ) ) ;
#641 = ORIENTED_EDGE ( 'NONE', *, *, #826, .F. ) ;
#642 = CARTESIAN_POINT ( 'NONE',  ( -7.749999999999840128, 17.75352077758108749, 14.00000000000000000 ) ) ;
#643 = CARTESIAN_POINT ( 'NONE',  ( 10.50000000000000178, -5.253520777581088375, 0.000000000000000000 ) ) ;
#644 = DIRECTION ( 'NONE',  ( -1.000000000000000000, 0.000000000000000000, 0.000000000000000000 ) ) ;
#645 = CARTESIAN_POINT ( 'NONE',  ( 10.25000000000008349, 17.75352077758093827, 3.000000000000000000 ) ) ;
#646 = EDGE_LOOP ( 'NONE', ( #445, #632, #1126, #84 ) ) ;
#647 = CIRCLE ( 'NONE', #1222, 4.999999999999999112 ) ;
#648 = CARTESIAN_POINT ( 'NONE',  ( -7.750000000000086153, -17.75352077758094893, 0.000000000000000000 ) ) ;
#649 = VECTOR ( 'NONE', #979, 1000.000000000000000 ) ;
#650 = CARTESIAN_POINT ( 'NONE',  ( 10.24999999999995914, -17.75352077758106262, 14.00000000000000000 ) ) ;
#651 = AXIS2_PLACEMENT_3D ( 'NONE', #664, #1080, #124 ) ;
#652 = ORIENTED_EDGE ( 'NONE', *, *, #451, .F. ) ;
#653 = DIRECTION ( 'NONE',  ( 1.000000000000000000, 0.000000000000000000, 0.000000000000000000 ) ) ;
#654 = APPROVAL_PERSON_ORGANIZATION ( #1235, #385, #1241 ) ;
#655 = VERTEX_POINT ( 'NONE', #981 ) ;
#656 = FACE_OUTER_BOUND ( 'NONE', #401, .T. ) ;
#657 = EDGE_CURVE ( 'NONE', #966, #352, #146, .T. ) ;
#658 = ADVANCED_FACE ( 'NONE', ( #152 ), #585, .T. ) ;
#659 = CARTESIAN_POINT ( 'NONE',  ( 10.25000000000008349, 17.75352077758093827, 0.000000000000000000 ) ) ;
#660 = ORIENTED_EDGE ( 'NONE', *, *, #282, .T. ) ;
#661 = CARTESIAN_POINT ( 'NONE',  ( 20.50000000000000000, 0.000000000000000000, 0.000000000000000000 ) ) ;
#662 = VERTEX_POINT ( 'NONE', #1090 ) ;
#663 = DIRECTION ( 'NONE',  ( 0.000000000000000000, 0.000000000000000000, 1.000000000000000000 ) ) ;
#664 = CARTESIAN_POINT ( 'NONE',  ( -20.49999999999999645, 0.000000000000000000, 14.00000000000000000 ) ) ;
#665 = ORIENTED_EDGE ( 'NONE', *, *, #1266, .T. ) ;
#666 = AXIS2_PLACEMENT_3D ( 'NONE', #365, #256, #1011 ) ;
#667 = CARTESIAN_POINT ( 'NONE',  ( -18.00000000000000000, 3.061616997868381662E-16, 14.75000000000000000 ) ) ;
#668 = VECTOR ( 'NONE', #844, 1000.000000000000000 ) ;
#669 = ORIENTED_EDGE ( 'NONE', *, *, #617, .F. ) ;
#670 = AXIS2_PLACEMENT_3D ( 'NONE', #813, #478, #1238 ) ;
#671 = DIRECTION ( 'NONE',  ( 1.584222352490234794E-16, 1.000000000000000000, 0.000000000000000000 ) ) ;
#672 = DIRECTION ( 'NONE',  ( 1.000000000000000000, 0.000000000000000000, 0.000000000000000000 ) ) ;
#673 = PERSON_AND_ORGANIZATION ( #1020, #241 ) ;
#674 = VERTEX_POINT ( 'NONE', #928 ) ;
#675 = CYLINDRICAL_SURFACE ( 'NONE', #1182, 4.999999999999999112 ) ;
#676 = EDGE_CURVE ( 'NONE', #97, #716, #1023, .T. ) ;
#677 = ORIENTED_EDGE ( 'NONE', *, *, #913, .T. ) ;
#678 = CARTESIAN_POINT ( 'NONE',  ( 20.50000000000000000, 0.000000000000000000, 14.00000000000000000 ) ) ;
#679 = DIRECTION ( 'NONE',  ( 0.000000000000000000, 0.000000000000000000, 1.000000000000000000 ) ) ;
#680 = MECHANICAL_CONTEXT ( 'NONE', #721, 'mechanical' ) ;
#681 = ORIENTED_EDGE ( 'NONE', *, *, #1047, .F. ) ;
#682 = CARTESIAN_POINT ( 'NONE',  ( -24.90000000000001990, -26.89999999999999858, 14.75000000000000000 ) ) ;
#683 = EDGE_CURVE ( 'NONE', #156, #1294, #1035, .T. ) ;
#684 = LINE ( 'NONE', #131, #149 ) ;
#685 = DATE_AND_TIME ( #465, #220 ) ;
#686 = EDGE_LOOP ( 'NONE', ( #488, #572, #889, #387 ) ) ;
#687 = CYLINDRICAL_SURFACE ( 'NONE', #1321, 2.500000000000000444 ) ;
#688 = AXIS2_PLACEMENT_3D ( 'NONE', #154, #1217, #787 ) ;
#689 = VERTEX_POINT ( 'NONE', #1118 ) ;
#690 = DIRECTION ( 'NONE',  ( 1.000000000000000000, 0.000000000000000000, 0.000000000000000000 ) ) ;
#691 = AXIS2_PLACEMENT_3D ( 'NONE', #945, #914, #1348 ) ;
#692 = VECTOR ( 'NONE', #973, 1000.000000000000000 ) ;
#693 = CARTESIAN_POINT ( 'NONE',  ( -15.50000000000000000, -5.253520777581088375, 3.000000000000000000 ) ) ;
#694 = CALENDAR_DATE ( 2026, 5, 6 ) ;
#695 = AXIS2_PLACEMENT_3D ( 'NONE', #767, #118, #435 ) ;
#696 = ORIENTED_EDGE ( 'NONE', *, *, #94, .F. ) ;
#697 = DIRECTION ( 'NONE',  ( 0.000000000000000000, 0.000000000000000000, 1.000000000000000000 ) ) ;
#698 = DIRECTION ( 'NONE',  ( 0.000000000000000000, 0.000000000000000000, -1.000000000000000000 ) ) ;
#699 = EDGE_CURVE ( 'NONE', #276, #1205, #418, .T. ) ;
#700 = CARTESIAN_POINT ( 'NONE',  ( -7.750000000000086153, -17.75352077758094893, 0.000000000000000000 ) ) ;
#701 = EDGE_CURVE ( 'NONE', #865, #1294, #647, .T. ) ;
#702 = EDGE_LOOP ( 'NONE', ( #549, #252 ) ) ;
#703 = EDGE_CURVE ( 'NONE', #1350, #156, #392, .T. ) ;
#704 = CARTESIAN_POINT ( 'NONE',  ( 10.50000000000000178, 10.25352077758108926, 0.000000000000000000 ) ) ;
#705 = DIRECTION ( 'NONE',  ( -0.000000000000000000, -0.000000000000000000, -1.000000000000000000 ) ) ;
#706 = CARTESIAN_POINT ( 'NONE',  ( 0.000000000000000000, 0.000000000000000000, 3.000000000000000000 ) ) ;
#707 = PERSON_AND_ORGANIZATION_ROLE ( 'classification_officer' ) ;
#708 = CARTESIAN_POINT ( 'NONE',  ( 15.50000000000000178, 0.000000000000000000, 3.000000000000000000 ) ) ;
#709 = EDGE_CURVE ( 'NONE', #865, #55, #1022, .T. ) ;
#710 = DIRECTION ( 'NONE',  ( -0.000000000000000000, -0.000000000000000000, -1.000000000000000000 ) ) ;
#711 = CARTESIAN_POINT ( 'NONE',  ( -12.74999999999983480, 17.75352077758108749, 0.000000000000000000 ) ) ;
#712 = AXIS2_PLACEMENT_3D ( 'NONE', #11, #1391, #442 ) ;
#713 = CARTESIAN_POINT ( 'NONE',  ( -20.49999999999999645, 0.000000000000000000, 14.75000000000000000 ) ) ;
#714 = CIRCLE ( 'NONE', #777, 2.499999999999998668 ) ;
#715 = DIRECTION ( 'NONE',  ( -0.000000000000000000, 0.000000000000000000, -1.000000000000000000 ) ) ;
#716 = VERTEX_POINT ( 'NONE', #590 ) ;
#717 = DIRECTION ( 'NONE',  ( -1.000000000000000000, 0.000000000000000000, 0.000000000000000000 ) ) ;
#718 = DIRECTION ( 'NONE',  ( 0.000000000000000000, 1.000000000000000000, 0.000000000000000000 ) ) ;
#719 = AXIS2_PLACEMENT_3D ( 'NONE', #409, #836, #339 ) ;
#720 = CYLINDRICAL_SURFACE ( 'NONE', #822, 2.500000000000000444 ) ;
#721 = APPLICATION_CONTEXT ( 'configuration controlled 3d designs of mechanical parts and assemblies' ) ;
#722 = VERTEX_POINT ( 'NONE', #944 ) ;
#723 = ORIENTED_EDGE ( 'NONE', *, *, #1031, .T. ) ;
#724 = DIRECTION ( 'NONE',  ( 1.000000000000000000, 0.000000000000000000, -0.000000000000000000 ) ) ;
#725 = CARTESIAN_POINT ( 'NONE',  ( 24.90000000000000568, -21.89999999999999503, 0.000000000000000000 ) ) ;
#726 = FACE_BOUND ( 'NONE', #112, .T. ) ;
#727 = ADVANCED_FACE ( 'NONE', ( #491 ), #808, .F. ) ;
#728 = ORIENTED_EDGE ( 'NONE', *, *, #216, .F. ) ;
#729 = ORIENTED_EDGE ( 'NONE', *, *, #657, .T. ) ;
#730 = LINE ( 'NONE', #642, #1006 ) ;
#731 = CYLINDRICAL_SURFACE ( 'NONE', #1390, 2.500000000000000444 ) ;
#732 = ORIENTED_EDGE ( 'NONE', *, *, #683, .F. ) ;
#733 = FACE_OUTER_BOUND ( 'NONE', #933, .T. ) ;
#734 = CIRCLE ( 'NONE', #666, 2.500000000000001332 ) ;
#735 = CARTESIAN_POINT ( 'NONE',  ( -10.49999999999999822, -5.253520777581088375, 0.000000000000000000 ) ) ;
#736 = CIRCLE ( 'NONE', #712, 2.500000000000001332 ) ;
#737 = VECTOR ( 'NONE', #596, 1000.000000000000000 ) ;
#738 = ORIENTED_EDGE ( 'NONE', *, *, #797, .F. ) ;
#739 = DIRECTION ( 'NONE',  ( 1.000000000000000000, 5.801750755775273780E-17, 0.000000000000000000 ) ) ;
#740 = CARTESIAN_POINT ( 'NONE',  ( 24.90000000000000568, -21.89999999999999503, 2.999999999999999112 ) ) ;
#741 = CARTESIAN_POINT ( 'NONE',  ( -10.25000000000008704, -17.75352077758094893, 14.00000000000000000 ) ) ;
#742 = ADVANCED_FACE ( 'NONE', ( #1345 ), #1352, .F. ) ;
#743 = ORIENTED_EDGE ( 'NONE', *, *, #1349, .F. ) ;
#744 = CARTESIAN_POINT ( 'NONE',  ( -10.24999999999983658, 17.75352077758108749, 3.000000000000000000 ) ) ;
#745 = EDGE_CURVE ( 'NONE', #1294, #1304, #1377, .T. ) ;
#746 = CARTESIAN_POINT ( 'NONE',  ( 10.24999999999995914, -17.75352077758106262, 0.000000000000000000 ) ) ;
#747 = DIRECTION ( 'NONE',  ( -1.000000000000000000, 0.000000000000000000, 0.000000000000000000 ) ) ;
#748 = ORIENTED_EDGE ( 'NONE', *, *, #337, .F. ) ;
#749 = DIRECTION ( 'NONE',  ( -0.000000000000000000, -0.000000000000000000, -1.000000000000000000 ) ) ;
#750 = LINE ( 'NONE', #310, #668 ) ;
#751 = EDGE_LOOP ( 'NONE', ( #1078, #899 ) ) ;
#752 = CARTESIAN_POINT ( 'NONE',  ( 29.90000000000000924, -21.89999999999999503, 0.000000000000000000 ) ) ;
#753 = VECTOR ( 'NONE', #1032, 1000.000000000000000 ) ;
#754 = ORIENTED_EDGE ( 'NONE', *, *, #1253, .T. ) ;
#755 = AXIS2_PLACEMENT_3D ( 'NONE', #530, #860, #1173 ) ;
#756 = ADVANCED_FACE ( 'NONE', ( #52, #176, #61, #261, #1130 ), #483, .F. ) ;
#757 = AXIS2_PLACEMENT_3D ( 'NONE', #439, #1204, #1323 ) ;
#758 = DIRECTION ( 'NONE',  ( -1.000000000000000000, 0.000000000000000000, 0.000000000000000000 ) ) ;
#759 = CIRCLE ( 'NONE', #369, 4.999999999999999112 ) ;
#760 = EDGE_CURVE ( 'NONE', #974, #1254, #615, .T. ) ;
#761 = EDGE_CURVE ( 'NONE', #1361, #174, #1123, .T. ) ;
#762 = CARTESIAN_POINT ( 'NONE',  ( 7.749999999999884537, -17.75352077758106262, 14.00000000000000000 ) ) ;
#763 = CIRCLE ( 'NONE', #634, 2.499999999999996891 ) ;
#764 = ORIENTED_EDGE ( 'NONE', *, *, #1063, .F. ) ;
#765 = PLANE ( 'NONE',  #215 ) ;
#766 = ORIENTED_EDGE ( 'NONE', *, *, #33, .T. ) ;
#767 = CARTESIAN_POINT ( 'NONE',  ( 10.25000000000008349, 17.75352077758093827, 0.000000000000000000 ) ) ;
#768 = EDGE_LOOP ( 'NONE', ( #652, #917, #1283, #953 ) ) ;
#769 = LINE ( 'NONE', #482, #603 ) ;
#770 = ORIENTED_EDGE ( 'NONE', *, *, #932, .T. ) ;
#771 = CARTESIAN_POINT ( 'NONE',  ( 29.90000000000001279, -4.736824833945804391E-15, 14.75000000000000000 ) ) ;
#772 = CARTESIAN_POINT ( 'NONE',  ( 24.90000000000001279, 21.90000000000000213, 0.000000000000000000 ) ) ;
#773 = CARTESIAN_POINT ( 'NONE',  ( -7.750000000000086153, -17.75352077758094893, 14.00000000000000000 ) ) ;
#774 = ORIENTED_EDGE ( 'NONE', *, *, #1301, .F. ) ;
#775 = AXIS2_PLACEMENT_3D ( 'NONE', #746, #1293, #433 ) ;
#776 = PLANE ( 'NONE',  #489 ) ;
#777 = AXIS2_PLACEMENT_3D ( 'NONE', #295, #102, #404 ) ;
#778 = CARTESIAN_POINT ( 'NONE',  ( 10.25000000000008349, 17.75352077758093827, 14.75000000000000000 ) ) ;
#779 = DIRECTION ( 'NONE',  ( -1.000000000000000000, -5.801750755775273780E-17, 0.000000000000000000 ) ) ;
#780 = CARTESIAN_POINT ( 'NONE',  ( 0.000000000000000000, 0.000000000000000000, 0.000000000000000000 ) ) ;
#781 = ORIENTED_EDGE ( 'NONE', *, *, #340, .F. ) ;
#782 = EDGE_LOOP ( 'NONE', ( #851, #1121, #311, #738 ) ) ;
#783 = PRODUCT ( 'Core+yoke', 'Core+yoke', '', ( #680 ) ) ;
#784 = AXIS2_PLACEMENT_3D ( 'NONE', #302, #620, #637 ) ;
#785 = LINE ( 'NONE', #1211, #649 ) ;
#786 = EDGE_LOOP ( 'NONE', ( #972, #128, #561, #386 ) ) ;
#787 = DIRECTION ( 'NONE',  ( 1.000000000000000000, 0.000000000000000000, 0.000000000000000000 ) ) ;
#788 = PERSON_AND_ORGANIZATION ( #1020, #241 ) ;
#789 = ORIENTED_EDGE ( 'NONE', *, *, #297, .F. ) ;
#790 = DIRECTION ( 'NONE',  ( -0.000000000000000000, -0.000000000000000000, -1.000000000000000000 ) ) ;
#791 = VERTEX_POINT ( 'NONE', #711 ) ;
#792 = CARTESIAN_POINT ( 'NONE',  ( -20.49999999999999645, 0.000000000000000000, 14.75000000000000000 ) ) ;
#793 = ADVANCED_FACE ( 'NONE', ( #830 ), #911, .F. ) ;
#794 = DIRECTION ( 'NONE',  ( -0.000000000000000000, -0.000000000000000000, 1.000000000000000000 ) ) ;
#795 = VERTEX_POINT ( 'NONE', #1258 ) ;
#796 = DIRECTION ( 'NONE',  ( 0.000000000000000000, 0.000000000000000000, 1.000000000000000000 ) ) ;
#797 = EDGE_CURVE ( 'NONE', #547, #2, #1248, .T. ) ;
#798 = CIRCLE ( 'NONE', #695, 2.500000000000000444 ) ;
#799 = CARTESIAN_POINT ( 'NONE',  ( -15.50000000000000000, 0.000000000000000000, 3.000000000000000000 ) ) ;
#800 = ADVANCED_FACE ( 'NONE', ( #1040 ), #517, .T. ) ;
#801 = CIRCLE ( 'NONE', #1107, 2.499999999999998668 ) ;
#802 = CARTESIAN_POINT ( 'NONE',  ( 12.75000000000008349, 17.75352077758093827, 3.000000000000000000 ) ) ;
#803 =( NAMED_UNIT ( * ) SI_UNIT ( $, .STERADIAN. ) SOLID_ANGLE_UNIT ( ) );
#804 = EDGE_CURVE ( 'NONE', #1290, #97, #750, .T. ) ;
#805 = ORIENTED_EDGE ( 'NONE', *, *, #683, .T. ) ;
#806 = CARTESIAN_POINT ( 'NONE',  ( 29.90000000000001279, -4.736824833945804391E-15, 3.000000000000000000 ) ) ;
#807 = CIRCLE ( 'NONE', #87, 5.000000000000004441 ) ;
#808 = CYLINDRICAL_SURFACE ( 'NONE', #303, 2.500000000000000444 ) ;
#809 = CARTESIAN_POINT ( 'NONE',  ( -12.74999999999983480, 17.75352077758108749, 14.00000000000000000 ) ) ;
#810 = DIRECTION ( 'NONE',  ( -0.000000000000000000, 0.000000000000000000, 1.000000000000000000 ) ) ;
#811 = ADVANCED_FACE ( 'NONE', ( #1 ), #731, .T. ) ;
#812 = DIRECTION ( 'NONE',  ( -0.000000000000000000, -0.000000000000000000, -1.000000000000000000 ) ) ;
#813 = CARTESIAN_POINT ( 'NONE',  ( -10.49999999999999822, 5.253520777581088375, 3.000000000000000000 ) ) ;
#814 = DIRECTION ( 'NONE',  ( -0.000000000000000000, 0.000000000000000000, 1.000000000000000000 ) ) ;
#815 = DIRECTION ( 'NONE',  ( 1.000000000000000000, 0.000000000000000000, 0.000000000000000000 ) ) ;
#816 = CALENDAR_DATE ( 2026, 5, 6 ) ;
#817 = EDGE_LOOP ( 'NONE', ( #1192, #520, #1310, #279 ) ) ;
#818 = VERTEX_POINT ( 'NONE', #1282 ) ;
#819 = CARTESIAN_POINT ( 'NONE',  ( -10.24999999999983658, 17.75352077758108749, 14.00000000000000000 ) ) ;
#820 = EDGE_CURVE ( 'NONE', #1380, #1136, #601, .T. ) ;
#821 = DIRECTION ( 'NONE',  ( -1.000000000000000000, 0.000000000000000000, 0.000000000000000000 ) ) ;
#822 = AXIS2_PLACEMENT_3D ( 'NONE', #390, #275, #500 ) ;
#823 = DIRECTION ( 'NONE',  ( 0.000000000000000000, 0.000000000000000000, -1.000000000000000000 ) ) ;
#824 = AXIS2_PLACEMENT_3D ( 'NONE', #996, #469, #1108 ) ;
#825 = LINE ( 'NONE', #286, #326 ) ;
#826 = EDGE_CURVE ( 'NONE', #1009, #689, #1224, .T. ) ;
#827 = ORIENTED_EDGE ( 'NONE', *, *, #657, .F. ) ;
#828 = CARTESIAN_POINT ( 'NONE',  ( 10.25000000000008349, 17.75352077758093827, 14.75000000000000000 ) ) ;
#829 = EDGE_CURVE ( 'NONE', #662, #1175, #168, .T. ) ;
#830 = FACE_OUTER_BOUND ( 'NONE', #1212, .T. ) ;
#831 = CC_DESIGN_APPROVAL ( #385, ( #543 ) ) ;
#832 = DIRECTION ( 'NONE',  ( 0.000000000000000000, 0.000000000000000000, 1.000000000000000000 ) ) ;
#833 = DATE_AND_TIME ( #816, #1256 ) ;
#834 = VERTEX_POINT ( 'NONE', #1273 ) ;
#835 = ORIENTED_EDGE ( 'NONE', *, *, #820, .F. ) ;
#836 = DIRECTION ( 'NONE',  ( -0.000000000000000000, 0.000000000000000000, 1.000000000000000000 ) ) ;
#837 = CARTESIAN_POINT ( 'NONE',  ( -10.24999999999983658, 17.75352077758108749, 0.000000000000000000 ) ) ;
#838 = EDGE_LOOP ( 'NONE', ( #845, #423, #903, #416 ) ) ;
#839 = CARTESIAN_POINT ( 'NONE',  ( 10.25000000000008349, 17.75352077758093827, 14.75000000000000000 ) ) ;
#840 = DIRECTION ( 'NONE',  ( -0.000000000000000000, 0.000000000000000000, 1.000000000000000000 ) ) ;
#841 = ORIENTED_EDGE ( 'NONE', *, *, #340, .T. ) ;
#842 = DIRECTION ( 'NONE',  ( -1.000000000000000000, 0.000000000000000000, 0.000000000000000000 ) ) ;
#843 = EDGE_CURVE ( 'NONE', #55, #1304, #1203, .T. ) ;
#844 = DIRECTION ( 'NONE',  ( -1.584222352490234794E-16, -1.000000000000000000, 0.000000000000000000 ) ) ;
#845 = ORIENTED_EDGE ( 'NONE', *, *, #1098, .T. ) ;
#846 = ADVANCED_FACE ( 'NONE', ( #656 ), #1185, .T. ) ;
#847 = DIRECTION ( 'NONE',  ( -1.000000000000000000, 0.000000000000000000, 0.000000000000000000 ) ) ;
#848 = EDGE_CURVE ( 'NONE', #628, #1094, #714, .T. ) ;
#849 = CARTESIAN_POINT ( 'NONE',  ( -24.90000000000001990, -26.89999999999999503, 2.999999999999999112 ) ) ;
#850 = VECTOR ( 'NONE', #1357, 1000.000000000000000 ) ;
#851 = ORIENTED_EDGE ( 'NONE', *, *, #26, .T. ) ;
#852 = CARTESIAN_POINT ( 'NONE',  ( -10.49999999999999822, -5.253520777581088375, 3.000000000000000000 ) ) ;
#853 = DIRECTION ( 'NONE',  ( -0.000000000000000000, 0.000000000000000000, -1.000000000000000000 ) ) ;
#854 = ORIENTED_EDGE ( 'NONE', *, *, #96, .F. ) ;
#855 = FACE_OUTER_BOUND ( 'NONE', #817, .T. ) ;
#856 = DIRECTION ( 'NONE',  ( 0.000000000000000000, 0.000000000000000000, 1.000000000000000000 ) ) ;
#857 = ORIENTED_EDGE ( 'NONE', *, *, #91, .F. ) ;
#858 = DIRECTION ( 'NONE',  ( 1.000000000000000000, 0.000000000000000000, 0.000000000000000000 ) ) ;
#859 = DIRECTION ( 'NONE',  ( -0.000000000000000000, -0.000000000000000000, -1.000000000000000000 ) ) ;
#860 = DIRECTION ( 'NONE',  ( 0.000000000000000000, 0.000000000000000000, 1.000000000000000000 ) ) ;
#861 = CARTESIAN_POINT ( 'NONE',  ( 24.90000000000001279, 26.90000000000000213, 2.999999999999999112 ) ) ;
#862 = ORIENTED_EDGE ( 'NONE', *, *, #1259, .F. ) ;
#863 = EDGE_CURVE ( 'NONE', #343, #865, #536, .T. ) ;
#864 = CYLINDRICAL_SURFACE ( 'NONE', #60, 2.500000000000000444 ) ;
#865 = VERTEX_POINT ( 'NONE', #1397 ) ;
#866 = CARTESIAN_POINT ( 'NONE',  ( -15.50000000000000000, 5.253520777581088375, 0.000000000000000000 ) ) ;
#867 = LINE ( 'NONE', #762, #1299 ) ;
#868 = AXIS2_PLACEMENT_3D ( 'NONE', #1037, #856, #1394 ) ;
#869 = ORIENTED_EDGE ( 'NONE', *, *, #699, .T. ) ;
#870 = AXIS2_PLACEMENT_3D ( 'NONE', #1359, #823, #1261 ) ;
#871 = CIRCLE ( 'NONE', #15, 5.000000000000004441 ) ;
#872 = FACE_OUTER_BOUND ( 'NONE', #686, .T. ) ;
#873 = AXIS2_PLACEMENT_3D ( 'NONE', #946, #407, #496 ) ;
#874 = ADVANCED_FACE ( 'NONE', ( #426 ), #864, .T. ) ;
#875 = EDGE_LOOP ( 'NONE', ( #394, #247, #1402, #151 ) ) ;
#876 = PLANE ( 'NONE',  #1041 ) ;
#877 =( GEOMETRIC_REPRESENTATION_CONTEXT ( 3 ) GLOBAL_UNCERTAINTY_ASSIGNED_CONTEXT ( ( #1100 ) ) GLOBAL_UNIT_ASSIGNED_CONTEXT ( ( #486, #132, #803 ) ) REPRESENTATION_CONTEXT ( 'NONE', 'WORKASPACE' ) );
#878 = EDGE_LOOP ( 'NONE', ( #185, #1292, #436, #497 ) ) ;
#879 = CARTESIAN_POINT ( 'NONE',  ( 15.50000000000000178, 5.253520777581088375, 3.000000000000000000 ) ) ;
#880 = ORIENTED_EDGE ( 'NONE', *, *, #467, .T. ) ;
#881 = CARTESIAN_POINT ( 'NONE',  ( 0.000000000000000000, -10.25352077758108749, 3.000000000000000000 ) ) ;
#882 = CARTESIAN_POINT ( 'NONE',  ( 29.90000000000001634, 21.90000000000000213, 0.000000000000000000 ) ) ;
#883 = ORIENTED_EDGE ( 'NONE', *, *, #1236, .T. ) ;
#884 = DIRECTION ( 'NONE',  ( -0.000000000000000000, 0.000000000000000000, 1.000000000000000000 ) ) ;
#885 = ORIENTED_EDGE ( 'NONE', *, *, #273, .T. ) ;
#886 = FACE_OUTER_BOUND ( 'NONE', #878, .T. ) ;
#887 = DATE_AND_TIME ( #571, #425 ) ;
#888 = EDGE_CURVE ( 'NONE', #969, #1179, #1289, .T. ) ;
#889 = ORIENTED_EDGE ( 'NONE', *, *, #294, .T. ) ;
#890 = AXIS2_PLACEMENT_3D ( 'NONE', #45, #1010, #39 ) ;
#891 = DIRECTION ( 'NONE',  ( -0.000000000000000000, -0.000000000000000000, -1.000000000000000000 ) ) ;
#892 = AXIS2_PLACEMENT_3D ( 'NONE', #837, #1265, #1051 ) ;
#893 = AXIS2_PLACEMENT_3D ( 'NONE', #708, #1127, #715 ) ;
#894 = DIRECTION ( 'NONE',  ( -0.000000000000000000, -0.000000000000000000, -1.000000000000000000 ) ) ;
#895 = ORIENTED_EDGE ( 'NONE', *, *, #208, .F. ) ;
#896 = ADVANCED_FACE ( 'NONE', ( #1075 ), #212, .T. ) ;
#897 = VECTOR ( 'NONE', #1054, 1000.000000000000000 ) ;
#898 = FACE_OUTER_BOUND ( 'NONE', #1124, .T. ) ;
#899 = ORIENTED_EDGE ( 'NONE', *, *, #1329, .F. ) ;
#900 = FACE_OUTER_BOUND ( 'NONE', #363, .T. ) ;
#901 = PERSON_AND_ORGANIZATION_ROLE ( 'creator' ) ;
#902 = ADVANCED_FACE ( 'NONE', ( #956 ), #1387, .T. ) ;
#903 = ORIENTED_EDGE ( 'NONE', *, *, #216, .T. ) ;
#904 = EDGE_CURVE ( 'NONE', #966, #552, #110, .T. ) ;
#905 = LINE ( 'NONE', #73, #920 ) ;
#906 = CARTESIAN_POINT ( 'NONE',  ( -15.50000000000000000, 5.253520777581088375, 3.000000000000000000 ) ) ;
#907 = VERTEX_POINT ( 'NONE', #1055 ) ;
#908 = MANIFOLD_SOLID_BREP ( '填料-伸長3[1]', #217 ) ;
#909 = FACE_OUTER_BOUND ( 'NONE', #92, .T. ) ;
#910 = AXIS2_PLACEMENT_3D ( 'NONE', #1091, #832, #83 ) ;
#911 = PLANE ( 'NONE',  #1156 ) ;
#912 = AXIS2_PLACEMENT_3D ( 'NONE', #678, #987, #30 ) ;
#913 = EDGE_CURVE ( 'NONE', #791, #1189, #235, .T. ) ;
#914 = DIRECTION ( 'NONE',  ( -0.000000000000000000, -0.000000000000000000, -1.000000000000000000 ) ) ;
#915 = MANIFOLD_SOLID_BREP ( '填料-伸長2[6]', #143 ) ;
#916 = EDGE_CURVE ( 'NONE', #655, #662, #1154, .T. ) ;
#917 = ORIENTED_EDGE ( 'NONE', *, *, #111, .F. ) ;
#918 = MANIFOLD_SOLID_BREP ( '填料-伸長3[2]', #941 ) ;
#919 = DIRECTION ( 'NONE',  ( 0.000000000000000000, -0.000000000000000000, -1.000000000000000000 ) ) ;
#920 = VECTOR ( 'NONE', #503, 1000.000000000000000 ) ;
#921 = DIRECTION ( 'NONE',  ( 0.000000000000000000, -1.000000000000000000, 0.000000000000000000 ) ) ;
#922 = EDGE_CURVE ( 'NONE', #926, #674, #88, .T. ) ;
#923 = CARTESIAN_POINT ( 'NONE',  ( 0.000000000000000000, 0.000000000000000000, 0.000000000000000000 ) ) ;
#924 = EDGE_CURVE ( 'NONE', #352, #331, #1088, .T. ) ;
#925 = ORIENTED_EDGE ( 'NONE', *, *, #1393, .F. ) ;
#926 = VERTEX_POINT ( 'NONE', #23 ) ;
#927 = CARTESIAN_POINT ( 'NONE',  ( -7.749999999999840128, 17.75352077758108749, 0.000000000000000000 ) ) ;
#928 = CARTESIAN_POINT ( 'NONE',  ( -29.90000000000001634, 21.90000000000000924, -0.000000000000000000 ) ) ;
#929 = PLANE ( 'NONE',  #322 ) ;
#930 = MANIFOLD_SOLID_BREP ( '除料-伸長1', #192 ) ;
#931 = ORIENTED_EDGE ( 'NONE', *, *, #1393, .T. ) ;
#932 = EDGE_CURVE ( 'NONE', #1197, #926, #35, .T. ) ;
#933 = EDGE_LOOP ( 'NONE', ( #307, #1162, #89, #1315 ) ) ;
#934 = DIRECTION ( 'NONE',  ( 1.000000000000000000, 0.000000000000000000, -0.000000000000000000 ) ) ;
#935 = CARTESIAN_POINT ( 'NONE',  ( 10.25000000000008349, 17.75352077758093827, 3.000000000000000000 ) ) ;
#936 = AXIS2_PLACEMENT_3D ( 'NONE', #1099, #474, #1337 ) ;
#937 = AXIS2_PLACEMENT_3D ( 'NONE', #725, #698, #68 ) ;
#938 = FACE_OUTER_BOUND ( 'NONE', #786, .T. ) ;
#939 = CIRCLE ( 'NONE', #978, 2.500000000000075051 ) ;
#940 = ORIENTED_EDGE ( 'NONE', *, *, #4, .F. ) ;
#941 = CLOSED_SHELL ( 'NONE', ( #515, #896, #237, #902 ) ) ;
#942 = VERTEX_POINT ( 'NONE', #37 ) ;
#943 = LINE ( 'NONE', #206, #1398 ) ;
#944 = CARTESIAN_POINT ( 'NONE',  ( -15.50000000000000000, 5.253520777581088375, 3.000000000000000000 ) ) ;
#945 = CARTESIAN_POINT ( 'NONE',  ( -10.25000000000008704, -17.75352077758094893, 14.00000000000000000 ) ) ;
#946 = CARTESIAN_POINT ( 'NONE',  ( -10.24999999999983658, 17.75352077758108749, 0.000000000000000000 ) ) ;
#947 = ADVANCED_FACE ( 'NONE', ( #898 ), #675, .F. ) ;
#948 = ORIENTED_EDGE ( 'NONE', *, *, #863, .F. ) ;
#949 = CYLINDRICAL_SURFACE ( 'NONE', #470, 2.499999999999996891 ) ;
#950 = EDGE_CURVE ( 'NONE', #521, #1389, #463, .T. ) ;
#951 = DIRECTION ( 'NONE',  ( -0.000000000000000000, 0.000000000000000000, 1.000000000000000000 ) ) ;
#952 = ADVANCED_FACE ( 'NONE', ( #334 ), #776, .T. ) ;
#953 = ORIENTED_EDGE ( 'NONE', *, *, #709, .T. ) ;
#954 = VERTEX_POINT ( 'NONE', #568 ) ;
#955 = CARTESIAN_POINT ( 'NONE',  ( -29.90000000000002345, -21.89999999999998792, 2.999999999999999112 ) ) ;
#956 = FACE_OUTER_BOUND ( 'NONE', #115, .T. ) ;
#957 = EDGE_CURVE ( 'NONE', #954, #126, #250, .T. ) ;
#958 = DIRECTION ( 'NONE',  ( -0.000000000000000000, -0.000000000000000000, -1.000000000000000000 ) ) ;
#959 = VECTOR ( 'NONE', #990, 1000.000000000000000 ) ;
#960 = CIRCLE ( 'NONE', #396, 5.000000000000004441 ) ;
#961 = ORIENTED_EDGE ( 'NONE', *, *, #1269, .T. ) ;
#962 = DIRECTION ( 'NONE',  ( 1.000000000000000000, 0.000000000000000000, 0.000000000000000000 ) ) ;
#963 = CARTESIAN_POINT ( 'NONE',  ( -20.49999999999999645, 0.000000000000000000, 14.00000000000000000 ) ) ;
#964 = PRODUCT_DEFINITION_SHAPE ( 'NONE', 'NONE',  #577 ) ;
#965 = CARTESIAN_POINT ( 'NONE',  ( 7.750000000000083489, 17.75352077758093827, 0.000000000000000000 ) ) ;
#966 = VERTEX_POINT ( 'NONE', #667 ) ;
#967 = LINE ( 'NONE', #1312, #356 ) ;
#968 = DIRECTION ( 'NONE',  ( -0.000000000000000000, -0.000000000000000000, -1.000000000000000000 ) ) ;
#969 = VERTEX_POINT ( 'NONE', #454 ) ;
#970 = DIRECTION ( 'NONE',  ( -0.000000000000000000, -0.000000000000000000, -1.000000000000000000 ) ) ;
#971 = FACE_OUTER_BOUND ( 'NONE', #1033, .T. ) ;
#972 = ORIENTED_EDGE ( 'NONE', *, *, #77, .F. ) ;
#973 = DIRECTION ( 'NONE',  ( -0.000000000000000000, -0.000000000000000000, -1.000000000000000000 ) ) ;
#974 = VERTEX_POINT ( 'NONE', #1314 ) ;
#975 = CARTESIAN_POINT ( 'NONE',  ( 15.50000000000000178, 5.253520777581088375, 3.000000000000000000 ) ) ;
#976 = ORIENTED_EDGE ( 'NONE', *, *, #843, .T. ) ;
#977 = AXIS2_PLACEMENT_3D ( 'NONE', #274, #397, #1016 ) ;
#978 = AXIS2_PLACEMENT_3D ( 'NONE', #1232, #697, #1128 ) ;
#979 = DIRECTION ( 'NONE',  ( 1.584222352490234794E-16, 1.000000000000000000, 0.000000000000000000 ) ) ;
#980 = CIRCLE ( 'NONE', #868, 2.500000000000001332 ) ;
#981 = CARTESIAN_POINT ( 'NONE',  ( -12.74999999999983480, 17.75352077758108749, 3.000000000000000000 ) ) ;
#982 = CARTESIAN_POINT ( 'NONE',  ( -10.49999999999999822, -10.25352077758108749, 3.000000000000000000 ) ) ;
#983 = EDGE_LOOP ( 'NONE', ( #5, #319, #1324, #266 ) ) ;
#984 = CARTESIAN_POINT ( 'NONE',  ( 20.50000000000000000, 0.000000000000000000, 14.00000000000000000 ) ) ;
#985 = ADVANCED_FACE ( 'NONE', ( #1216 ), #563, .T. ) ;
#986 = ORIENTED_EDGE ( 'NONE', *, *, #77, .T. ) ;
#987 = DIRECTION ( 'NONE',  ( -0.000000000000000000, -0.000000000000000000, -1.000000000000000000 ) ) ;
#988 = DIRECTION ( 'NONE',  ( -1.000000000000000000, 0.000000000000000000, 0.000000000000000000 ) ) ;
#989 = ORIENTED_EDGE ( 'NONE', *, *, #804, .T. ) ;
#990 = DIRECTION ( 'NONE',  ( 0.000000000000000000, 0.000000000000000000, 1.000000000000000000 ) ) ;
#991 = ORIENTED_EDGE ( 'NONE', *, *, #597, .F. ) ;
#992 = DIRECTION ( 'NONE',  ( 1.000000000000000000, 0.000000000000000000, 0.000000000000000000 ) ) ;
#993 = CARTESIAN_POINT ( 'NONE',  ( -29.89999999999999858, 26.89999999999999858, 3.000000000000000000 ) ) ;
#994 = COORDINATED_UNIVERSAL_TIME_OFFSET ( 8, 0, .AHEAD. ) ;
#995 = ORIENTED_EDGE ( 'NONE', *, *, #432, .T. ) ;
#996 = CARTESIAN_POINT ( 'NONE',  ( -10.24999999999983658, 17.75352077758108749, 0.000000000000000000 ) ) ;
#997 = CIRCLE ( 'NONE', #148, 2.500000000000000444 ) ;
#998 = EDGE_LOOP ( 'NONE', ( #214, #986 ) ) ;
#999 = CIRCLE ( 'NONE', #12, 4.999999999999999112 ) ;
#1000 = CARTESIAN_POINT ( 'NONE',  ( -7.749999999999840128, 17.75352077758108749, 3.000000000000000000 ) ) ;
#1001 = EDGE_CURVE ( 'NONE', #156, #408, #1190, .T. ) ;
#1002 = FACE_OUTER_BOUND ( 'NONE', #646, .T. ) ;
#1003 = APPROVAL_DATE_TIME ( #685, #477 ) ;
#1004 = ADVANCED_FACE ( 'NONE', ( #1330 ), #460, .T. ) ;
#1005 = EDGE_LOOP ( 'NONE', ( #869, #885, #564, #373 ) ) ;
#1006 = VECTOR ( 'NONE', #308, 1000.000000000000000 ) ;
#1007 = ADVANCED_FACE ( 'NONE', ( #872 ), #687, .F. ) ;
#1008 = CARTESIAN_POINT ( 'NONE',  ( -12.74999999999983480, 17.75352077758108749, 14.00000000000000000 ) ) ;
#1009 = VERTEX_POINT ( 'NONE', #448 ) ;
#1010 = DIRECTION ( 'NONE',  ( 0.000000000000000000, 0.000000000000000000, 1.000000000000000000 ) ) ;
#1011 = DIRECTION ( 'NONE',  ( 1.000000000000000000, 0.000000000000000000, 0.000000000000000000 ) ) ;
#1012 = PERSON_AND_ORGANIZATION_ROLE ( 'design_supplier' ) ;
#1013 = ORIENTED_EDGE ( 'NONE', *, *, #1220, .F. ) ;
#1014 = CC_DESIGN_PERSON_AND_ORGANIZATION_ASSIGNMENT ( #587, #901, ( #329 ) ) ;
#1015 = DIRECTION ( 'NONE',  ( -0.000000000000000000, 0.000000000000000000, 1.000000000000000000 ) ) ;
#1016 = DIRECTION ( 'NONE',  ( 1.000000000000000000, 0.000000000000000000, 0.000000000000000000 ) ) ;
#1017 = PLANE ( 'NONE',  #554 ) ;
#1018 = PERSON_AND_ORGANIZATION ( #1020, #241 ) ;
#1019 = ORIENTED_EDGE ( 'NONE', *, *, #597, .T. ) ;
#1020 = PERSON ( 'UNSPECIFIED', 'UNSPECIFIED', 'UNSPECIFIED', ('UNSPECIFIED'), ('UNSPECIFIED'), ('UNSPECIFIED') ) ;
#1021 = DIRECTION ( 'NONE',  ( 1.000000000000000000, 0.000000000000000000, 0.000000000000000000 ) ) ;
#1022 = LINE ( 'NONE', #504, #850 ) ;
#1023 = CIRCLE ( 'NONE', #937, 5.000000000000004441 ) ;
#1024 = CIRCLE ( 'NONE', #824, 2.499999999999996891 ) ;
#1025 = DIRECTION ( 'NONE',  ( -0.000000000000000000, 0.000000000000000000, 1.000000000000000000 ) ) ;
#1026 = CARTESIAN_POINT ( 'NONE',  ( 18.00000000000000355, 0.000000000000000000, 14.00000000000000000 ) ) ;
#1027 = LINE ( 'NONE', #1122, #737 ) ;
#1028 = DIRECTION ( 'NONE',  ( 1.000000000000000000, 0.000000000000000000, 0.000000000000000000 ) ) ;
#1029 = DIRECTION ( 'NONE',  ( 1.000000000000000000, 0.000000000000000000, -0.000000000000000000 ) ) ;
#1030 = APPROVAL_STATUS ( 'not_yet_approved' ) ;
#1031 = EDGE_CURVE ( 'NONE', #1355, #1335, #1309, .T. ) ;
#1032 = DIRECTION ( 'NONE',  ( -0.000000000000000000, -0.000000000000000000, -1.000000000000000000 ) ) ;
#1033 = EDGE_LOOP ( 'NONE', ( #961, #1358, #1133, #166 ) ) ;
#1034 = DIRECTION ( 'NONE',  ( -0.000000000000000000, -0.000000000000000000, -1.000000000000000000 ) ) ;
#1035 = LINE ( 'NONE', #164, #1319 ) ;
#1036 = PLANE ( 'NONE',  #556 ) ;
#1037 = CARTESIAN_POINT ( 'NONE',  ( -10.25000000000008704, -17.75352077758094893, 14.00000000000000000 ) ) ;
#1038 = ORIENTED_EDGE ( 'NONE', *, *, #70, .F. ) ;
#1039 = DIRECTION ( 'NONE',  ( -0.000000000000000000, -0.000000000000000000, -1.000000000000000000 ) ) ;
#1040 = FACE_OUTER_BOUND ( 'NONE', #29, .T. ) ;
#1041 = AXIS2_PLACEMENT_3D ( 'NONE', #1279, #306, #1188 ) ;
#1042 = CARTESIAN_POINT ( 'NONE',  ( -29.90000000000001990, 4.736824833945805179E-15, -0.000000000000000000 ) ) ;
#1043 = EDGE_CURVE ( 'NONE', #1308, #926, #785, .T. ) ;
#1044 = VECTOR ( 'NONE', #638, 1000.000000000000000 ) ;
#1045 = FACE_OUTER_BOUND ( 'NONE', #38, .T. ) ;
#1046 = VECTOR ( 'NONE', #414, 1000.000000000000000 ) ;
#1047 = EDGE_CURVE ( 'NONE', #1189, #791, #1024, .T. ) ;
#1048 = ORIENTED_EDGE ( 'NONE', *, *, #492, .F. ) ;
#1049 = LINE ( 'NONE', #542, #897 ) ;
#1050 = ADVANCED_FACE ( 'NONE', ( #361 ), #765, .T. ) ;
#1051 = DIRECTION ( 'NONE',  ( 1.000000000000000000, 0.000000000000000000, 0.000000000000000000 ) ) ;
#1052 = DIRECTION ( 'NONE',  ( 1.000000000000000000, 0.000000000000000000, 0.000000000000000000 ) ) ;
#1053 = ORIENTED_EDGE ( 'NONE', *, *, #595, .T. ) ;
#1054 = DIRECTION ( 'NONE',  ( -0.000000000000000000, -0.000000000000000000, -1.000000000000000000 ) ) ;
#1055 = CARTESIAN_POINT ( 'NONE',  ( -24.90000000000001279, 26.90000000000000924, 0.000000000000000000 ) ) ;
#1056 = ORIENTED_EDGE ( 'NONE', *, *, #510, .T. ) ;
#1057 = DIRECTION ( 'NONE',  ( 1.000000000000000000, 0.000000000000000000, 0.000000000000000000 ) ) ;
#1058 = LINE ( 'NONE', #540, #1046 ) ;
#1059 = ORIENTED_EDGE ( 'NONE', *, *, #1365, .T. ) ;
#1060 = DIRECTION ( 'NONE',  ( -0.000000000000000000, -0.000000000000000000, -1.000000000000000000 ) ) ;
#1061 = DIRECTION ( 'NONE',  ( -1.000000000000000000, 0.000000000000000000, 0.000000000000000000 ) ) ;
#1062 = CARTESIAN_POINT ( 'NONE',  ( -10.24999999999983658, 17.75352077758108749, 3.000000000000000000 ) ) ;
#1063 = EDGE_CURVE ( 'NONE', #834, #1136, #769, .T. ) ;
#1064 = VECTOR ( 'NONE', #378, 1000.000000000000000 ) ;
#1065 = DIRECTION ( 'NONE',  ( -0.000000000000000000, -0.000000000000000000, -1.000000000000000000 ) ) ;
#1066 = VECTOR ( 'NONE', #891, 1000.000000000000000 ) ;
#1067 = CIRCLE ( 'NONE', #630, 2.500000000000000444 ) ;
#1068 = ORIENTED_EDGE ( 'NONE', *, *, #1196, .T. ) ;
#1069 = CARTESIAN_POINT ( 'NONE',  ( -10.24999999999983658, 17.75352077758108749, 3.000000000000000000 ) ) ;
#1070 = DIRECTION ( 'NONE',  ( 1.000000000000000000, 0.000000000000000000, -0.000000000000000000 ) ) ;
#1071 = ORIENTED_EDGE ( 'NONE', *, *, #1253, .F. ) ;
#1072 = CIRCLE ( 'NONE', #519, 4.999999999999999112 ) ;
#1073 = CARTESIAN_POINT ( 'NONE',  ( -7.749999999999840128, 17.75352077758108749, 3.000000000000000000 ) ) ;
#1074 = ORIENTED_EDGE ( 'NONE', *, *, #153, .T. ) ;
#1075 = FACE_OUTER_BOUND ( 'NONE', #588, .T. ) ;
#1076 = ORIENTED_EDGE ( 'NONE', *, *, #467, .F. ) ;
#1077 = CARTESIAN_POINT ( 'NONE',  ( 10.50000000000000178, 5.253520777581088375, 3.000000000000000000 ) ) ;
#1078 = ORIENTED_EDGE ( 'NONE', *, *, #1236, .F. ) ;
#1079 = CARTESIAN_POINT ( 'NONE',  ( -10.24999999999983658, 17.75352077758108749, 14.00000000000000000 ) ) ;
#1080 = DIRECTION ( 'NONE',  ( -0.000000000000000000, -0.000000000000000000, -1.000000000000000000 ) ) ;
#1081 = EDGE_CURVE ( 'NONE', #1136, #1380, #1392, .T. ) ;
#1082 = AXIS2_PLACEMENT_3D ( 'NONE', #881, #1311, #1200 ) ;
#1083 = ORIENTED_EDGE ( 'NONE', *, *, #105, .F. ) ;
#1084 = EDGE_CURVE ( 'NONE', #795, #969, #997, .T. ) ;
#1085 = VECTOR ( 'NONE', #621, 1000.000000000000000 ) ;
#1086 = CIRCLE ( 'NONE', #259, 2.499999999999998668 ) ;
#1087 = ADVANCED_FACE ( 'NONE', ( #613 ), #157, .T. ) ;
#1088 = LINE ( 'NONE', #225, #1298 ) ;
#1089 = ORIENTED_EDGE ( 'NONE', *, *, #282, .F. ) ;
#1090 = CARTESIAN_POINT ( 'NONE',  ( -12.74999999999983480, 17.75352077758108749, 0.000000000000000000 ) ) ;
#1091 = CARTESIAN_POINT ( 'NONE',  ( -10.25000000000008704, -17.75352077758094893, 0.000000000000000000 ) ) ;
#1092 = DIRECTION ( 'NONE',  ( 1.000000000000000000, 0.000000000000000000, 0.000000000000000000 ) ) ;
#1093 = APPROVAL_PERSON_ORGANIZATION ( #160, #605, #579 ) ;
#1094 = VERTEX_POINT ( 'NONE', #1336 ) ;
#1095 = CARTESIAN_POINT ( 'NONE',  ( 10.25000000000008349, 17.75352077758093827, 3.000000000000000000 ) ) ;
#1096 = ORIENTED_EDGE ( 'NONE', *, *, #829, .F. ) ;
#1097 = CARTESIAN_POINT ( 'NONE',  ( -7.750000000000086153, -17.75352077758094893, 14.00000000000000000 ) ) ;
#1098 = EDGE_CURVE ( 'NONE', #174, #64, #871, .T. ) ;
#1099 = CARTESIAN_POINT ( 'NONE',  ( -10.49999999999999822, -5.253520777581088375, 3.000000000000000000 ) ) ;
#1100 = UNCERTAINTY_MEASURE_WITH_UNIT (LENGTH_MEASURE( 1.000000000000000082E-05 ), #486, 'distance_accuracy_value', 'NONE');
#1101 = EDGE_LOOP ( 'NONE', ( #1172, #1395, #805, #1110, #948, #743, #1083, #258 ) ) ;
#1102 = CARTESIAN_POINT ( 'NONE',  ( 10.50000000000000178, -5.253520777581088375, 3.000000000000000000 ) ) ;
#1103 = ORIENTED_EDGE ( 'NONE', *, *, #246, .F. ) ;
#1104 = PLANE ( 'NONE',  #1225 ) ;
#1105 = EDGE_CURVE ( 'NONE', #552, #331, #1086, .T. ) ;
#1106 = VERTEX_POINT ( 'NONE', #382 ) ;
#1107 = AXIS2_PLACEMENT_3D ( 'NONE', #312, #428, #1057 ) ;
#1108 = DIRECTION ( 'NONE',  ( 1.000000000000000000, 0.000000000000000000, 0.000000000000000000 ) ) ;
#1109 = AXIS2_PLACEMENT_3D ( 'NONE', #169, #272, #1246 ) ;
#1110 = ORIENTED_EDGE ( 'NONE', *, *, #701, .F. ) ;
#1111 = AXIS2_PLACEMENT_3D ( 'NONE', #645, #550, #1195 ) ;
#1112 = CYLINDRICAL_SURFACE ( 'NONE', #912, 2.499999999999998668 ) ;
#1113 = DIRECTION ( 'NONE',  ( -0.000000000000000000, 0.000000000000000000, 1.000000000000000000 ) ) ;
#1114 = APPROVAL_ROLE ( '' ) ;
#1115 = ORIENTED_EDGE ( 'NONE', *, *, #950, .T. ) ;
#1116 = APPROVAL_PERSON_ORGANIZATION ( #673, #477, #1114 ) ;
#1117 = DIRECTION ( 'NONE',  ( 0.000000000000000000, 0.000000000000000000, 1.000000000000000000 ) ) ;
#1118 = CARTESIAN_POINT ( 'NONE',  ( 29.90000000000000924, -21.89999999999999503, 2.999999999999999112 ) ) ;
#1119 = CARTESIAN_POINT ( 'NONE',  ( 7.750000000000083489, 17.75352077758093827, 3.000000000000000000 ) ) ;
#1120 = CARTESIAN_POINT ( 'NONE',  ( -10.49999999999999822, -10.25352077758108749, 0.000000000000000000 ) ) ;
#1121 = ORIENTED_EDGE ( 'NONE', *, *, #760, .T. ) ;
#1122 = CARTESIAN_POINT ( 'NONE',  ( -29.89999999999999858, 26.89999999999999858, 3.000000000000000000 ) ) ;
#1123 = LINE ( 'NONE', #389, #372 ) ;
#1124 = EDGE_LOOP ( 'NONE', ( #1339, #1202, #1385, #142 ) ) ;
#1125 = DIRECTION ( 'NONE',  ( 1.000000000000000000, -1.584222352490234794E-16, 0.000000000000000000 ) ) ;
#1126 = ORIENTED_EDGE ( 'NONE', *, *, #1349, .T. ) ;
#1127 = DIRECTION ( 'NONE',  ( 1.000000000000000000, 0.000000000000000000, -0.000000000000000000 ) ) ;
#1128 = DIRECTION ( 'NONE',  ( 1.000000000000000000, 0.000000000000000000, 0.000000000000000000 ) ) ;
#1129 = CIRCLE ( 'NONE', #890, 2.500000000000000444 ) ;
#1130 = FACE_OUTER_BOUND ( 'NONE', #440, .T. ) ;
#1131 = AXIS2_PLACEMENT_3D ( 'NONE', #202, #95, #1070 ) ;
#1132 = VECTOR ( 'NONE', #894, 1000.000000000000000 ) ;
#1133 = ORIENTED_EDGE ( 'NONE', *, *, #922, .F. ) ;
#1134 = DIRECTION ( 'NONE',  ( 1.000000000000000000, 0.000000000000000000, 0.000000000000000000 ) ) ;
#1135 = CALENDAR_DATE ( 2026, 5, 6 ) ;
#1136 = VERTEX_POINT ( 'NONE', #490 ) ;
#1137 = VERTEX_POINT ( 'NONE', #704 ) ;
#1138 = DIRECTION ( 'NONE',  ( 0.000000000000000000, 0.000000000000000000, 1.000000000000000000 ) ) ;
#1139 = CIRCLE ( 'NONE', #719, 2.499999999999996891 ) ;
#1140 = DIRECTION ( 'NONE',  ( 0.000000000000000000, -0.000000000000000000, 1.000000000000000000 ) ) ;
#1141 = ADVANCED_FACE ( 'NONE', ( #51 ), #288, .F. ) ;
#1142 = DIRECTION ( 'NONE',  ( 1.000000000000000000, 0.000000000000000000, 0.000000000000000000 ) ) ;
#1143 = ORIENTED_EDGE ( 'NONE', *, *, #153, .F. ) ;
#1144 = ORIENTED_EDGE ( 'NONE', *, *, #337, .T. ) ;
#1145 = DIRECTION ( 'NONE',  ( -0.000000000000000000, 0.000000000000000000, 1.000000000000000000 ) ) ;
#1146 = ADVANCED_FACE ( 'NONE', ( #909 ), #1364, .T. ) ;
#1147 = DIRECTION ( 'NONE',  ( -0.000000000000000000, -0.000000000000000000, -1.000000000000000000 ) ) ;
#1148 = EDGE_CURVE ( 'NONE', #818, #834, #939, .T. ) ;
#1149 = DIRECTION ( 'NONE',  ( 0.000000000000000000, 0.000000000000000000, 1.000000000000000000 ) ) ;
#1150 = EDGE_CURVE ( 'NONE', #689, #64, #58, .T. ) ;
#1151 = DIRECTION ( 'NONE',  ( 1.000000000000000000, 0.000000000000000000, 0.000000000000000000 ) ) ;
#1152 = ORIENTED_EDGE ( 'NONE', *, *, #1170, .F. ) ;
#1153 = DIRECTION ( 'NONE',  ( -0.000000000000000000, -0.000000000000000000, -1.000000000000000000 ) ) ;
#1154 = LINE ( 'NONE', #523, #278 ) ;
#1155 = ORIENTED_EDGE ( 'NONE', *, *, #913, .F. ) ;
#1156 = AXIS2_PLACEMENT_3D ( 'NONE', #383, #606, #1028 ) ;
#1157 = DIRECTION ( 'NONE',  ( 0.000000000000000000, 0.000000000000000000, 1.000000000000000000 ) ) ;
#1158 = AXIS2_PLACEMENT_3D ( 'NONE', #260, #796, #724 ) ;
#1159 = ORIENTED_EDGE ( 'NONE', *, *, #848, .F. ) ;
#1160 = CIRCLE ( 'NONE', #1111, 2.500000000000000444 ) ;
#1161 = ADVANCED_FACE ( 'NONE', ( #1223 ), #604, .F. ) ;
#1162 = ORIENTED_EDGE ( 'NONE', *, *, #922, .T. ) ;
#1163 = DIRECTION ( 'NONE',  ( -0.000000000000000000, -0.000000000000000000, -1.000000000000000000 ) ) ;
#1164 = CARTESIAN_POINT ( 'NONE',  ( 0.000000000000000000, -10.25352077758108749, 3.000000000000000000 ) ) ;
#1165 = AXIS2_PLACEMENT_3D ( 'NONE', #293, #1153, #1288 ) ;
#1166 = CYLINDRICAL_SURFACE ( 'NONE', #511, 5.000000000000004441 ) ;
#1167 = CARTESIAN_POINT ( 'NONE',  ( -10.25000000000008704, -17.75352077758094893, 0.000000000000000000 ) ) ;
#1168 = EDGE_LOOP ( 'NONE', ( #1143, #991 ) ) ;
#1169 = CARTESIAN_POINT ( 'NONE',  ( 20.50000000000000000, 0.000000000000000000, 14.00000000000000000 ) ) ;
#1170 = EDGE_CURVE ( 'NONE', #1197, #174, #1027, .T. ) ;
#1171 = DIRECTION ( 'NONE',  ( -0.000000000000000000, 0.000000000000000000, 1.000000000000000000 ) ) ;
#1172 = ORIENTED_EDGE ( 'NONE', *, *, #297, .T. ) ;
#1173 = DIRECTION ( 'NONE',  ( 1.000000000000000000, 0.000000000000000000, 0.000000000000000000 ) ) ;
#1174 = LINE ( 'NONE', #1073, #255 ) ;
#1175 = VERTEX_POINT ( 'NONE', #67 ) ;
#1176 = CARTESIAN_POINT ( 'NONE',  ( 7.750000000000083489, 17.75352077758093827, 14.00000000000000000 ) ) ;
#1177 = DIRECTION ( 'NONE',  ( 1.000000000000000000, 0.000000000000000000, 0.000000000000000000 ) ) ;
#1178 = EDGE_CURVE ( 'NONE', #1355, #722, #125, .T. ) ;
#1179 = VERTEX_POINT ( 'NONE', #498 ) ;
#1180 = VECTOR ( 'NONE', #815, 1000.000000000000000 ) ;
#1181 = DIRECTION ( 'NONE',  ( -1.000000000000000000, 0.000000000000000000, 0.000000000000000000 ) ) ;
#1182 = AXIS2_PLACEMENT_3D ( 'NONE', #1102, #790, #229 ) ;
#1183 = AXIS2_PLACEMENT_3D ( 'NONE', #347, #565, #988 ) ;
#1184 = ORIENTED_EDGE ( 'NONE', *, *, #1227, .F. ) ;
#1185 = CYLINDRICAL_SURFACE ( 'NONE', #558, 2.499999999999998668 ) ;
#1186 = ORIENTED_EDGE ( 'NONE', *, *, #676, .F. ) ;
#1187 = CC_DESIGN_APPROVAL ( #477, ( #329 ) ) ;
#1188 = DIRECTION ( 'NONE',  ( 1.000000000000000000, 0.000000000000000000, -0.000000000000000000 ) ) ;
#1189 = VERTEX_POINT ( 'NONE', #927 ) ;
#1190 = LINE ( 'NONE', #879, #1249 ) ;
#1191 = ADVANCED_FACE ( 'NONE', ( #182 ), #388, .T. ) ;
#1192 = ORIENTED_EDGE ( 'NONE', *, *, #265, .F. ) ;
#1193 = CARTESIAN_POINT ( 'NONE',  ( -29.89999999999999503, -26.89999999999999858, 3.000000000000000000 ) ) ;
#1194 = EDGE_CURVE ( 'NONE', #509, #791, #175, .T. ) ;
#1195 = DIRECTION ( 'NONE',  ( 1.000000000000000000, 0.000000000000000000, 0.000000000000000000 ) ) ;
#1196 = EDGE_CURVE ( 'NONE', #296, #450, #905, .T. ) ;
#1197 = VERTEX_POINT ( 'NONE', #431 ) ;
#1198 = DIRECTION ( 'NONE',  ( 1.000000000000000000, 0.000000000000000000, 0.000000000000000000 ) ) ;
#1199 = ORIENTED_EDGE ( 'NONE', *, *, #1150, .T. ) ;
#1200 = DIRECTION ( 'NONE',  ( 0.000000000000000000, -0.000000000000000000, 1.000000000000000000 ) ) ;
#1201 = DIRECTION ( 'NONE',  ( -0.000000000000000000, 0.000000000000000000, 1.000000000000000000 ) ) ;
#1202 = ORIENTED_EDGE ( 'NONE', *, *, #709, .F. ) ;
#1203 = CIRCLE ( 'NONE', #512, 4.999999999999999112 ) ;
#1204 = DIRECTION ( 'NONE',  ( -0.000000000000000000, -0.000000000000000000, -1.000000000000000000 ) ) ;
#1205 = VERTEX_POINT ( 'NONE', #211 ) ;
#1206 = DIRECTION ( 'NONE',  ( 1.000000000000000000, 0.000000000000000000, 0.000000000000000000 ) ) ;
#1207 = DIRECTION ( 'NONE',  ( 1.000000000000000000, 0.000000000000000000, 0.000000000000000000 ) ) ;
#1208 = AXIS2_PLACEMENT_3D ( 'NONE', #819, #280, #717 ) ;
#1209 = EDGE_LOOP ( 'NONE', ( #835, #341 ) ) ;
#1210 = VERTEX_POINT ( 'NONE', #773 ) ;
#1211 = CARTESIAN_POINT ( 'NONE',  ( -29.90000000000001990, 4.736824833945805179E-15, 3.000000000000000000 ) ) ;
#1212 = EDGE_LOOP ( 'NONE', ( #434, #219 ) ) ;
#1213 = LINE ( 'NONE', #1119, #1369 ) ;
#1214 = APPROVAL_STATUS ( 'not_yet_approved' ) ;
#1215 = ORIENTED_EDGE ( 'NONE', *, *, #531, .F. ) ;
#1216 = FACE_OUTER_BOUND ( 'NONE', #567, .T. ) ;
#1217 = DIRECTION ( 'NONE',  ( -0.000000000000000000, 0.000000000000000000, 1.000000000000000000 ) ) ;
#1218 = CARTESIAN_POINT ( 'NONE',  ( 24.90000000000000213, 26.89999999999999858, 0.000000000000000000 ) ) ;
#1219 = ORIENTED_EDGE ( 'NONE', *, *, #1105, .T. ) ;
#1220 = EDGE_CURVE ( 'NONE', #795, #100, #93, .T. ) ;
#1221 = AXIS2_PLACEMENT_3D ( 'NONE', #1167, #559, #1384 ) ;
#1222 = AXIS2_PLACEMENT_3D ( 'NONE', #377, #1233, #289 ) ;
#1223 = FACE_OUTER_BOUND ( 'NONE', #226, .T. ) ;
#1224 = CIRCLE ( 'NONE', #393, 5.000000000000004441 ) ;
#1225 = AXIS2_PLACEMENT_3D ( 'NONE', #993, #1228, #779 ) ;
#1226 = DIRECTION ( 'NONE',  ( 1.000000000000000000, 0.000000000000000000, -0.000000000000000000 ) ) ;
#1227 = EDGE_CURVE ( 'NONE', #1094, #628, #173, .T. ) ;
#1228 = DIRECTION ( 'NONE',  ( -5.801750755775273780E-17, 1.000000000000000000, 0.000000000000000000 ) ) ;
#1229 = DIRECTION ( 'NONE',  ( -0.000000000000000000, -0.000000000000000000, -1.000000000000000000 ) ) ;
#1230 = EDGE_LOOP ( 'NONE', ( #1076, #236, #1300, #1331, #391, #976, #925, #857 ) ) ;
#1231 = VECTOR ( 'NONE', #1229, 1000.000000000000000 ) ;
#1232 = CARTESIAN_POINT ( 'NONE',  ( 10.24999999999995914, -17.75352077758106262, 14.75000000000000000 ) ) ;
#1233 = DIRECTION ( 'NONE',  ( -0.000000000000000000, 0.000000000000000000, 1.000000000000000000 ) ) ;
#1234 = LINE ( 'NONE', #633, #534 ) ;
#1235 = PERSON_AND_ORGANIZATION ( #1020, #241 ) ;
#1236 = EDGE_CURVE ( 'NONE', #655, #594, #763, .T. ) ;
#1237 = PLANE ( 'NONE',  #893 ) ;
#1238 = DIRECTION ( 'NONE',  ( 1.000000000000000000, 0.000000000000000000, 0.000000000000000000 ) ) ;
#1239 = DIRECTION ( 'NONE',  ( -0.000000000000000000, -0.000000000000000000, -1.000000000000000000 ) ) ;
#1240 = PLANE ( 'NONE',  #484 ) ;
#1241 = APPROVAL_ROLE ( '' ) ;
#1242 = FACE_OUTER_BOUND ( 'NONE', #205, .T. ) ;
#1243 = CC_DESIGN_PERSON_AND_ORGANIZATION_ASSIGNMENT ( #506, #707, ( #543 ) ) ;
#1244 = EDGE_LOOP ( 'NONE', ( #696, #1263, #135, #1089 ) ) ;
#1245 = EDGE_CURVE ( 'NONE', #628, #521, #943, .T. ) ;
#1246 = DIRECTION ( 'NONE',  ( -1.000000000000000000, 0.000000000000000000, 0.000000000000000000 ) ) ;
#1247 = AXIS2_PLACEMENT_3D ( 'NONE', #935, #814, #1367 ) ;
#1248 = LINE ( 'NONE', #183, #1085 ) ;
#1249 = VECTOR ( 'NONE', #28, 1000.000000000000000 ) ;
#1250 = AXIS2_PLACEMENT_3D ( 'NONE', #1077, #223, #1181 ) ;
#1251 = FACE_OUTER_BOUND ( 'NONE', #1373, .T. ) ;
#1252 = PLANE ( 'NONE',  #873 ) ;
#1253 = EDGE_CURVE ( 'NONE', #907, #1361, #535, .T. ) ;
#1254 = VERTEX_POINT ( 'NONE', #648 ) ;
#1255 = CARTESIAN_POINT ( 'NONE',  ( -10.25000000000008704, -17.75352077758094893, 14.00000000000000000 ) ) ;
#1256 = LOCAL_TIME ( 11, 33, 3.000000000000000000, #412 ) ;
#1257 = ADVANCED_FACE ( 'NONE', ( #402 ), #949, .F. ) ;
#1258 = CARTESIAN_POINT ( 'NONE',  ( 7.750000000000083489, 17.75352077758093827, 14.75000000000000000 ) ) ;
#1259 = EDGE_CURVE ( 'NONE', #126, #1308, #807, .T. ) ;
#1260 = ORIENTED_EDGE ( 'NONE', *, *, #201, .T. ) ;
#1261 = DIRECTION ( 'NONE',  ( -1.000000000000000000, 0.000000000000000000, 0.000000000000000000 ) ) ;
#1262 = EDGE_LOOP ( 'NONE', ( #117, #1267, #107, #1328 ) ) ;
#1263 = ORIENTED_EDGE ( 'NONE', *, *, #1329, .T. ) ;
#1264 = CYLINDRICAL_SURFACE ( 'NONE', #1165, 2.500000000000000444 ) ;
#1265 = DIRECTION ( 'NONE',  ( 0.000000000000000000, 0.000000000000000000, 1.000000000000000000 ) ) ;
#1266 = EDGE_CURVE ( 'NONE', #17, #19, #609, .T. ) ;
#1267 = ORIENTED_EDGE ( 'NONE', *, *, #1301, .T. ) ;
#1268 = FACE_OUTER_BOUND ( 'NONE', #72, .T. ) ;
#1269 = EDGE_CURVE ( 'NONE', #1197, #907, #1049, .T. ) ;
#1270 = ORIENTED_EDGE ( 'NONE', *, *, #359, .F. ) ;
#1271 = ORIENTED_EDGE ( 'NONE', *, *, #826, .T. ) ;
#1272 = FACE_OUTER_BOUND ( 'NONE', #782, .T. ) ;
#1273 = CARTESIAN_POINT ( 'NONE',  ( 12.75000000000003375, -17.75352077758106262, 14.75000000000000000 ) ) ;
#1274 = AXIS2_PLACEMENT_3D ( 'NONE', #69, #384, #1134 ) ;
#1275 = EDGE_LOOP ( 'NONE', ( #239, #1152, #770, #619, #862, #1053, #1271, #1199 ) ) ;
#1276 = CIRCLE ( 'NONE', #57, 2.500000000000000444 ) ;
#1277 = FACE_OUTER_BOUND ( 'NONE', #224, .T. ) ;
#1278 = AXIS2_PLACEMENT_3D ( 'NONE', #1342, #368, #376 ) ;
#1279 = CARTESIAN_POINT ( 'NONE',  ( 10.25000000000008349, 17.75352077758093827, 0.000000000000000000 ) ) ;
#1280 = ORIENTED_EDGE ( 'NONE', *, *, #495, .F. ) ;
#1281 = DIRECTION ( 'NONE',  ( -0.000000000000000000, 0.000000000000000000, 1.000000000000000000 ) ) ;
#1282 = CARTESIAN_POINT ( 'NONE',  ( 7.749999999999883649, -17.75352077758106262, 14.75000000000000000 ) ) ;
#1283 = ORIENTED_EDGE ( 'NONE', *, *, #863, .T. ) ;
#1284 = FACE_OUTER_BOUND ( 'NONE', #1244, .T. ) ;
#1285 = CARTESIAN_POINT ( 'NONE',  ( -24.90000000000001279, 21.90000000000000924, 14.75000000000000000 ) ) ;
#1286 = CC_DESIGN_DATE_AND_TIME_ASSIGNMENT ( #234, #1318, ( #577 ) ) ;
#1287 = ORIENTED_EDGE ( 'NONE', *, *, #195, .T. ) ;
#1288 = DIRECTION ( 'NONE',  ( -1.000000000000000000, 0.000000000000000000, 0.000000000000000000 ) ) ;
#1289 = LINE ( 'NONE', #316, #1044 ) ;
#1290 = VERTEX_POINT ( 'NONE', #882 ) ;
#1291 = CARTESIAN_POINT ( 'NONE',  ( 10.50000000000000178, 5.253520777581088375, 0.000000000000000000 ) ) ;
#1292 = ORIENTED_EDGE ( 'NONE', *, *, #595, .F. ) ;
#1293 = DIRECTION ( 'NONE',  ( -0.000000000000000000, 0.000000000000000000, 1.000000000000000000 ) ) ;
#1294 = VERTEX_POINT ( 'NONE', #424 ) ;
#1295 = CIRCLE ( 'NONE', #688, 2.499999999999996891 ) ;
#1296 = VECTOR ( 'NONE', #1316, 1000.000000000000000 ) ;
#1297 = FACE_OUTER_BOUND ( 'NONE', #1168, .T. ) ;
#1298 = VECTOR ( 'NONE', #150, 1000.000000000000000 ) ;
#1299 = VECTOR ( 'NONE', #1065, 1000.000000000000000 ) ;
#1300 = ORIENTED_EDGE ( 'NONE', *, *, #96, .T. ) ;
#1301 = EDGE_CURVE ( 'NONE', #421, #1189, #730, .T. ) ;
#1302 = DIRECTION ( 'NONE',  ( -1.000000000000000000, 0.000000000000000000, 0.000000000000000000 ) ) ;
#1303 = EDGE_CURVE ( 'NONE', #1308, #336, #967, .T. ) ;
#1304 = VERTEX_POINT ( 'NONE', #86 ) ;
#1305 = VECTOR ( 'NONE', #1034, 1000.000000000000000 ) ;
#1306 = EDGE_CURVE ( 'NONE', #2, #1254, #264, .T. ) ;
#1307 = FACE_OUTER_BOUND ( 'NONE', #24, .T. ) ;
#1308 = VERTEX_POINT ( 'NONE', #955 ) ;
#1309 = LINE ( 'NONE', #573, #627 ) ;
#1310 = ORIENTED_EDGE ( 'NONE', *, *, #1081, .T. ) ;
#1311 = DIRECTION ( 'NONE',  ( 0.000000000000000000, 1.000000000000000000, 0.000000000000000000 ) ) ;
#1312 = CARTESIAN_POINT ( 'NONE',  ( -29.90000000000002345, -21.89999999999998792, 14.75000000000000000 ) ) ;
#1313 = EDGE_LOOP ( 'NONE', ( #119, #895, #1059, #1260 ) ) ;
#1314 = CARTESIAN_POINT ( 'NONE',  ( -7.750000000000086153, -17.75352077758094893, 3.000000000000000000 ) ) ;
#1315 = ORIENTED_EDGE ( 'NONE', *, *, #1303, .F. ) ;
#1316 = DIRECTION ( 'NONE',  ( 1.000000000000000000, 0.000000000000000000, 0.000000000000000000 ) ) ;
#1317 = CYLINDRICAL_SURFACE ( 'NONE', #936, 4.999999999999999112 ) ;
#1318 = DATE_TIME_ROLE ( 'creation_date' ) ;
#1319 = VECTOR ( 'NONE', #921, 1000.000000000000000 ) ;
#1320 = EDGE_LOOP ( 'NONE', ( #1287, #665 ) ) ;
#1321 = AXIS2_PLACEMENT_3D ( 'NONE', #1095, #141, #1302 ) ;
#1322 = AXIS2_PLACEMENT_3D ( 'NONE', #1285, #113, #747 ) ;
#1323 = DIRECTION ( 'NONE',  ( -1.000000000000000000, 0.000000000000000000, 0.000000000000000000 ) ) ;
#1324 = ORIENTED_EDGE ( 'NONE', *, *, #703, .F. ) ;
#1325 = FACE_OUTER_BOUND ( 'NONE', #1209, .T. ) ;
#1326 = LOCAL_TIME ( 11, 33, 3.000000000000000000, #994 ) ;
#1327 = VECTOR ( 'NONE', #145, 1000.000000000000000 ) ;
#1328 = ORIENTED_EDGE ( 'NONE', *, *, #1194, .F. ) ;
#1329 = EDGE_CURVE ( 'NONE', #594, #655, #1139, .T. ) ;
#1330 = FACE_OUTER_BOUND ( 'NONE', #533, .T. ) ;
#1331 = ORIENTED_EDGE ( 'NONE', *, *, #8, .T. ) ;
#1332 = FACE_OUTER_BOUND ( 'NONE', #328, .T. ) ;
#1333 = CARTESIAN_POINT ( 'NONE',  ( -29.90000000000002345, -21.89999999999998792, 0.000000000000000000 ) ) ;
#1334 = PERSON_AND_ORGANIZATION ( #1020, #241 ) ;
#1335 = VERTEX_POINT ( 'NONE', #315 ) ;
#1336 = CARTESIAN_POINT ( 'NONE',  ( 18.00000000000000355, 0.000000000000000000, 14.00000000000000000 ) ) ;
#1337 = DIRECTION ( 'NONE',  ( -1.000000000000000000, 0.000000000000000000, 0.000000000000000000 ) ) ;
#1338 = APPLICATION_PROTOCOL_DEFINITION ( 'international standard', 'config_control_design', 1994, #140 ) ;
#1339 = ORIENTED_EDGE ( 'NONE', *, *, #843, .F. ) ;
#1340 = CIRCLE ( 'NONE', #1274, 2.499999999999998668 ) ;
#1341 = VECTOR ( 'NONE', #1147, 1000.000000000000000 ) ;
#1342 = CARTESIAN_POINT ( 'NONE',  ( 24.90000000000000568, -21.89999999999999503, 14.75000000000000000 ) ) ;
#1343 = ADVANCED_FACE ( 'NONE', ( #514 ), #1374, .T. ) ;
#1344 = AXIS2_PLACEMENT_3D ( 'NONE', #18, #884, #1198 ) ;
#1345 = FACE_OUTER_BOUND ( 'NONE', #1379, .T. ) ;
#1346 = ADVANCED_FACE ( 'NONE', ( #1272 ), #1264, .F. ) ;
#1347 = ORIENTED_EDGE ( 'NONE', *, *, #1084, .F. ) ;
#1348 = DIRECTION ( 'NONE',  ( -1.000000000000000000, 0.000000000000000000, 0.000000000000000000 ) ) ;
#1349 = EDGE_CURVE ( 'NONE', #296, #343, #1072, .T. ) ;
#1350 = VERTEX_POINT ( 'NONE', #1396 ) ;
#1351 = CARTESIAN_POINT ( 'NONE',  ( 10.24999999999995914, -17.75352077758106262, 0.000000000000000000 ) ) ;
#1352 = PLANE ( 'NONE',  #13 ) ;
#1353 = PLANE ( 'NONE',  #213 ) ;
#1354 = CARTESIAN_POINT ( 'NONE',  ( -10.24999999999983658, 17.75352077758108749, 14.00000000000000000 ) ) ;
#1355 = VERTEX_POINT ( 'NONE', #566 ) ;
#1356 = CARTESIAN_POINT ( 'NONE',  ( -20.49999999999999645, 0.000000000000000000, 0.000000000000000000 ) ) ;
#1357 = DIRECTION ( 'NONE',  ( -0.000000000000000000, -0.000000000000000000, -1.000000000000000000 ) ) ;
#1358 = ORIENTED_EDGE ( 'NONE', *, *, #432, .F. ) ;
#1359 = CARTESIAN_POINT ( 'NONE',  ( -24.90000000000001279, 21.90000000000000924, 0.000000000000000000 ) ) ;
#1360 = APPROVAL_DATE_TIME ( #1371, #385 ) ;
#1361 = VERTEX_POINT ( 'NONE', #1218 ) ;
#1362 = VERTEX_POINT ( 'NONE', #1120 ) ;
#1363 = CIRCLE ( 'NONE', #1183, 5.000000000000004441 ) ;
#1364 = CYLINDRICAL_SURFACE ( 'NONE', #1278, 5.000000000000004441 ) ;
#1365 = EDGE_CURVE ( 'NONE', #1106, #942, #592, .T. ) ;
#1366 = CIRCLE ( 'NONE', #345, 2.499999999999998668 ) ;
#1367 = DIRECTION ( 'NONE',  ( 1.000000000000000000, 0.000000000000000000, 0.000000000000000000 ) ) ;
#1368 = AXIS2_PLACEMENT_3D ( 'NONE', #631, #1171, #207 ) ;
#1369 = VECTOR ( 'NONE', #248, 1000.000000000000000 ) ;
#1370 = FACE_BOUND ( 'NONE', #1101, .T. ) ;
#1371 = DATE_AND_TIME ( #1135, #42 ) ;
#1372 = ORIENTED_EDGE ( 'NONE', *, *, #797, .T. ) ;
#1373 = EDGE_LOOP ( 'NONE', ( #49, #333 ) ) ;
#1374 = CYLINDRICAL_SURFACE ( 'NONE', #285, 5.000000000000004441 ) ;
#1375 = CC_DESIGN_SECURITY_CLASSIFICATION ( #543, ( #329 ) ) ;
#1376 = EDGE_CURVE ( 'NONE', #1335, #527, #447, .T. ) ;
#1377 = LINE ( 'NONE', #81, #189 ) ;
#1378 = FACE_BOUND ( 'NONE', #751, .T. ) ;
#1379 = EDGE_LOOP ( 'NONE', ( #880, #427, #789, #723 ) ) ;
#1380 = VERTEX_POINT ( 'NONE', #47 ) ;
#1381 = DIRECTION ( 'NONE',  ( -0.000000000000000000, 0.000000000000000000, 1.000000000000000000 ) ) ;
#1382 = DIRECTION ( 'NONE',  ( 1.000000000000000000, 0.000000000000000000, 0.000000000000000000 ) ) ;
#1383 = CARTESIAN_POINT ( 'NONE',  ( 23.00000000000000000, 3.061616997868381662E-16, 0.000000000000000000 ) ) ;
#1384 = DIRECTION ( 'NONE',  ( 1.000000000000000000, 0.000000000000000000, 0.000000000000000000 ) ) ;
#1385 = ORIENTED_EDGE ( 'NONE', *, *, #701, .T. ) ;
#1386 = CARTESIAN_POINT ( 'NONE',  ( 24.90000000000001279, 21.90000000000000213, 14.75000000000000000 ) ) ;
#1387 = PLANE ( 'NONE',  #1131 ) ;
#1388 = AXIS2_PLACEMENT_3D ( 'NONE', #771, #231, #671 ) ;
#1389 = VERTEX_POINT ( 'NONE', #480 ) ;
#1390 = AXIS2_PLACEMENT_3D ( 'NONE', #544, #968, #419 ) ;
#1391 = DIRECTION ( 'NONE',  ( -0.000000000000000000, 0.000000000000000000, 1.000000000000000000 ) ) ;
#1392 = CIRCLE ( 'NONE', #305, 2.500000000000073275 ) ;
#1393 = EDGE_CURVE ( 'NONE', #408, #1304, #41, .T. ) ;
#1394 = DIRECTION ( 'NONE',  ( 1.000000000000000000, 0.000000000000000000, 0.000000000000000000 ) ) ;
#1395 = ORIENTED_EDGE ( 'NONE', *, *, #703, .T. ) ;
#1396 = CARTESIAN_POINT ( 'NONE',  ( 10.50000000000000178, 10.25352077758108926, 3.000000000000000000 ) ) ;
#1397 = CARTESIAN_POINT ( 'NONE',  ( 10.50000000000000178, -10.25352077758108749, 3.000000000000000000 ) ) ;
#1398 = VECTOR ( 'NONE', #749, 1000.000000000000000 ) ;
#1399 = ORIENTED_EDGE ( 'NONE', *, *, #957, .T. ) ;
#1400 = CARTESIAN_POINT ( 'NONE',  ( -12.75000000000008882, -17.75352077758094893, 3.000000000000000000 ) ) ;
#1401 = CYLINDRICAL_SURFACE ( 'NONE', #1250, 4.999999999999999112 ) ;
#1402 = ORIENTED_EDGE ( 'NONE', *, *, #48, .F. ) ;
#1403 = CARTESIAN_POINT ( 'NONE',  ( -29.89999999999999858, 26.89999999999999858, 0.000000000000000000 ) ) ;
ENDSEC;
END-ISO-10303-21;
