ISO-10303-21;
HEADER;
FILE_DESCRIPTION (( 'STEP AP203' ),
    '1' );
FILE_NAME ('cover glass_lower.step',
    '2026-06-05T03:33:02',
    ( '' ),
    ( '' ),
    'SwSTEP 2.0',
    'SolidWorks 2024',
    '' );
FILE_SCHEMA (( 'CONFIG_CONTROL_DESIGN' ));
ENDSEC;

DATA;
#1 = DIRECTION ( 'NONE',  ( -0.000000000000000000, -0.000000000000000000, 1.000000000000000000 ) ) ;
#2 = VERTEX_POINT ( 'NONE', #281 ) ;
#3 = PERSON_AND_ORGANIZATION_ROLE ( 'classification_officer' ) ;
#4 = CC_DESIGN_PERSON_AND_ORGANIZATION_ASSIGNMENT ( #417, #279, ( #401 ) ) ;
#5 = LINE ( 'NONE', #311, #91 ) ;
#6 = ORIENTED_EDGE ( 'NONE', *, *, #108, .T. ) ;
#7 = ORIENTED_EDGE ( 'NONE', *, *, #268, .T. ) ;
#8 = CARTESIAN_POINT ( 'NONE',  ( 17.00000000000000711, -15.00000000000000178, 0.1300000000000000044 ) ) ;
#9 = FACE_OUTER_BOUND ( 'NONE', #363, .T. ) ;
#10 = PERSON_AND_ORGANIZATION ( #333, #209 ) ;
#11 = DIRECTION ( 'NONE',  ( -1.734723475976806848E-16, 1.000000000000000000, -0.000000000000000000 ) ) ;
#12 = ADVANCED_FACE ( 'NONE', ( #355 ), #21, .F. ) ;
#13 = PLANE ( 'NONE',  #198 ) ;
#14 = ORIENTED_EDGE ( 'NONE', *, *, #187, .F. ) ;
#15 = PLANE ( 'NONE',  #383 ) ;
#16 = ORIENTED_EDGE ( 'NONE', *, *, #224, .F. ) ;
#17 = LINE ( 'NONE', #430, #443 ) ;
#18 = EDGE_LOOP ( 'NONE', ( #394, #59, #300, #50 ) ) ;
#19 = VECTOR ( 'NONE', #106, 1000.000000000000000 ) ;
#20 = CC_DESIGN_APPROVAL ( #196, ( #219 ) ) ;
#21 = PLANE ( 'NONE',  #65 ) ;
#22 = EDGE_CURVE ( 'NONE', #39, #468, #220, .T. ) ;
#23 = APPLICATION_CONTEXT ( 'configuration controlled 3d designs of mechanical parts and assemblies' ) ;
#24 = CARTESIAN_POINT ( 'NONE',  ( 17.00000000000000711, -15.00000000000000178, 0.000000000000000000 ) ) ;
#25 = VECTOR ( 'NONE', #46, 1000.000000000000000 ) ;
#26 = EDGE_CURVE ( 'NONE', #2, #272, #481, .T. ) ;
#27 = CARTESIAN_POINT ( 'NONE',  ( 17.00000000000000711, -15.00000000000000178, 0.1300000000000000044 ) ) ;
#28 = MANIFOLD_SOLID_BREP ( '°£®Æ-¦ùªø1', #249 ) ;
#29 = CC_DESIGN_PERSON_AND_ORGANIZATION_ASSIGNMENT ( #154, #313, ( #219 ) ) ;
#30 = LINE ( 'NONE', #150, #122 ) ;
#31 = PLANE ( 'NONE',  #99 ) ;
#32 = VECTOR ( 'NONE', #462, 1000.000000000000000 ) ;
#33 = LINE ( 'NONE', #190, #134 ) ;
#34 = ADVANCED_FACE ( 'NONE', ( #282 ), #442, .F. ) ;
#35 = DIRECTION ( 'NONE',  ( -1.734723475976806848E-16, 1.000000000000000000, -0.000000000000000000 ) ) ;
#36 = VERTEX_POINT ( 'NONE', #362 ) ;
#37 = PERSON_AND_ORGANIZATION_ROLE ( 'creator' ) ;
#38 = APPROVAL ( #385, 'UNSPECIFIED' ) ;
#39 = VERTEX_POINT ( 'NONE', #440 ) ;
#40 = CALENDAR_DATE ( 2026, 5, 6 ) ;
#41 = DIRECTION ( 'NONE',  ( 1.734723475976806848E-16, 1.000000000000000000, 0.000000000000000000 ) ) ;
#42 = VECTOR ( 'NONE', #280, 1000.000000000000000 ) ;
#43 = ADVANCED_FACE ( 'NONE', ( #128 ), #13, .F. ) ;
#44 = VERTEX_POINT ( 'NONE', #98 ) ;
#45 = DIRECTION ( 'NONE',  ( 0.000000000000000000, 0.000000000000000000, 1.000000000000000000 ) ) ;
#46 = DIRECTION ( 'NONE',  ( -8.673617379884034239E-17, -1.000000000000000000, -0.000000000000000000 ) ) ;
#47 = ORIENTED_EDGE ( 'NONE', *, *, #77, .F. ) ;
#48 = APPLICATION_PROTOCOL_DEFINITION ( 'international standard', 'config_control_design', 1994, #49 ) ;
#49 = APPLICATION_CONTEXT ( 'configuration controlled 3d designs of mechanical parts and assemblies' ) ;
#50 = ORIENTED_EDGE ( 'NONE', *, *, #288, .T. ) ;
#51 = ORIENTED_EDGE ( 'NONE', *, *, #291, .T. ) ;
#52 = DIRECTION ( 'NONE',  ( 1.000000000000000000, 3.652049423109069799E-16, 0.000000000000000000 ) ) ;
#53 = AXIS2_PLACEMENT_3D ( 'NONE', #75, #45, #378 ) ;
#54 = CARTESIAN_POINT ( 'NONE',  ( -37.99999999999999289, -35.00000000000000000, 0.1300000000000000044 ) ) ;
#55 = EDGE_LOOP ( 'NONE', ( #358, #86, #14, #200 ) ) ;
#56 = LINE ( 'NONE', #202, #112 ) ;
#57 = EDGE_CURVE ( 'NONE', #164, #283, #369, .T. ) ;
#58 = DIRECTION ( 'NONE',  ( -0.000000000000000000, -0.000000000000000000, 1.000000000000000000 ) ) ;
#59 = ORIENTED_EDGE ( 'NONE', *, *, #167, .F. ) ;
#60 = FACE_OUTER_BOUND ( 'NONE', #55, .T. ) ;
#61 = FACE_OUTER_BOUND ( 'NONE', #275, .T. ) ;
#62 = DIRECTION ( 'NONE',  ( -1.734723475976806848E-16, 1.000000000000000000, 0.000000000000000000 ) ) ;
#63 = VECTOR ( 'NONE', #446, 1000.000000000000000 ) ;
#64 = DESIGN_CONTEXT ( 'detailed design', #49, 'design' ) ;
#65 = AXIS2_PLACEMENT_3D ( 'NONE', #285, #168, #92 ) ;
#66 = FACE_OUTER_BOUND ( 'NONE', #501, .T. ) ;
#67 = DIRECTION ( 'NONE',  ( -0.000000000000000000, -0.000000000000000000, 1.000000000000000000 ) ) ;
#68 = LINE ( 'NONE', #227, #305 ) ;
#69 = CARTESIAN_POINT ( 'NONE',  ( 7.499999999999998224, -35.00000000000000000, 0.1300000000000000044 ) ) ;
#70 = ADVANCED_FACE ( 'NONE', ( #9 ), #317, .F. ) ;
#71 =( GEOMETRIC_REPRESENTATION_CONTEXT ( 3 ) GLOBAL_UNCERTAINTY_ASSIGNED_CONTEXT ( ( #84 ) ) GLOBAL_UNIT_ASSIGNED_CONTEXT ( ( #111, #217, #409 ) ) REPRESENTATION_CONTEXT ( 'NONE', 'WORKASPACE' ) );
#72 = VERTEX_POINT ( 'NONE', #470 ) ;
#73 = DATE_AND_TIME ( #421, #429 ) ;
#74 = ORIENTED_EDGE ( 'NONE', *, *, #274, .F. ) ;
#75 = CARTESIAN_POINT ( 'NONE',  ( 0.000000000000000000, 0.000000000000000000, 0.000000000000000000 ) ) ;
#76 = DIRECTION ( 'NONE',  ( 4.625929269271484928E-16, -1.000000000000000000, -0.000000000000000000 ) ) ;
#77 = EDGE_CURVE ( 'NONE', #267, #497, #246, .T. ) ;
#78 = ORIENTED_EDGE ( 'NONE', *, *, #366, .T. ) ;
#79 = CALENDAR_DATE ( 2026, 5, 6 ) ;
#80 = AXIS2_PLACEMENT_3D ( 'NONE', #103, #143, #372 ) ;
#81 = APPROVAL_PERSON_ORGANIZATION ( #498, #252, #129 ) ;
#82 = VERTEX_POINT ( 'NONE', #250 ) ;
#83 = LINE ( 'NONE', #477, #261 ) ;
#84 = UNCERTAINTY_MEASURE_WITH_UNIT (LENGTH_MEASURE( 1.000000000000000082E-05 ), #111, 'distance_accuracy_value', 'NONE');
#85 = EDGE_LOOP ( 'NONE', ( #117, #170, #181, #345 ) ) ;
#86 = ORIENTED_EDGE ( 'NONE', *, *, #232, .T. ) ;
#87 = DIRECTION ( 'NONE',  ( -0.000000000000000000, -0.000000000000000000, 1.000000000000000000 ) ) ;
#88 = CARTESIAN_POINT ( 'NONE',  ( 7.499999999999998224, 35.00000000000000000, 0.000000000000000000 ) ) ;
#89 = EDGE_CURVE ( 'NONE', #135, #303, #322, .T. ) ;
#90 = DIRECTION ( 'NONE',  ( 3.652049423109069799E-16, -1.000000000000000000, 0.000000000000000000 ) ) ;
#91 = VECTOR ( 'NONE', #398, 1000.000000000000000 ) ;
#92 = DIRECTION ( 'NONE',  ( 0.000000000000000000, 0.000000000000000000, -1.000000000000000000 ) ) ;
#93 = CARTESIAN_POINT ( 'NONE',  ( -16.99999999999999289, -15.00000000000000178, 0.1300000000000000044 ) ) ;
#94 = DIRECTION ( 'NONE',  ( -1.000000000000000000, -4.625929269271484928E-16, 0.000000000000000000 ) ) ;
#95 = VERTEX_POINT ( 'NONE', #400 ) ;
#96 = LINE ( 'NONE', #121, #447 ) ;
#97 = CARTESIAN_POINT ( 'NONE',  ( -7.500000000000000000, 35.00000000000000000, 0.000000000000000000 ) ) ;
#98 = CARTESIAN_POINT ( 'NONE',  ( -16.99999999999999289, 15.00000000000000178, 0.000000000000000000 ) ) ;
#99 = AXIS2_PLACEMENT_3D ( 'NONE', #295, #334, #188 ) ;
#100 = ADVANCED_FACE ( 'NONE', ( #61 ), #216, .F. ) ;
#101 = ADVANCED_BREP_SHAPE_REPRESENTATION ( 'cover glass_lower', ( #28, #53 ), #71 ) ;
#102 = CC_DESIGN_DATE_AND_TIME_ASSIGNMENT ( #346, #310, ( #450 ) ) ;
#103 = CARTESIAN_POINT ( 'NONE',  ( 17.00000000000000711, -15.00000000000000178, 0.000000000000000000 ) ) ;
#104 = VECTOR ( 'NONE', #393, 1000.000000000000000 ) ;
#105 = VECTOR ( 'NONE', #277, 1000.000000000000000 ) ;
#106 = DIRECTION ( 'NONE',  ( -0.000000000000000000, -0.000000000000000000, 1.000000000000000000 ) ) ;
#107 = CARTESIAN_POINT ( 'NONE',  ( -16.99999999999999289, -15.00000000000000178, 0.1300000000000000044 ) ) ;
#108 = EDGE_CURVE ( 'NONE', #315, #354, #483, .T. ) ;
#109 = LINE ( 'NONE', #184, #293 ) ;
#110 = ORIENTED_EDGE ( 'NONE', *, *, #182, .F. ) ;
#111 =( LENGTH_UNIT ( ) NAMED_UNIT ( * ) SI_UNIT ( .MILLI., .METRE. ) );
#112 = VECTOR ( 'NONE', #11, 1000.000000000000000 ) ;
#113 = CARTESIAN_POINT ( 'NONE',  ( 7.499999999999998224, 35.00000000000000000, 0.000000000000000000 ) ) ;
#114 = ORIENTED_EDGE ( 'NONE', *, *, #176, .T. ) ;
#115 = SHAPE_DEFINITION_REPRESENTATION ( #331, #101 ) ;
#116 = PLANE ( 'NONE',  #155 ) ;
#117 = ORIENTED_EDGE ( 'NONE', *, *, #299, .F. ) ;
#118 = APPROVAL_ROLE ( '' ) ;
#119 = DIRECTION ( 'NONE',  ( -1.000000000000000000, -0.000000000000000000, -0.000000000000000000 ) ) ;
#120 = ORIENTED_EDGE ( 'NONE', *, *, #299, .T. ) ;
#121 = CARTESIAN_POINT ( 'NONE',  ( -16.99999999999999289, -15.00000000000000178, 0.000000000000000000 ) ) ;
#122 = VECTOR ( 'NONE', #67, 1000.000000000000000 ) ;
#123 = ORIENTED_EDGE ( 'NONE', *, *, #146, .F. ) ;
#124 = PERSON_AND_ORGANIZATION_ROLE ( 'creator' ) ;
#125 = ORIENTED_EDGE ( 'NONE', *, *, #291, .F. ) ;
#126 = CARTESIAN_POINT ( 'NONE',  ( 7.499999999999998224, -35.00000000000000000, 0.000000000000000000 ) ) ;
#127 = ADVANCED_FACE ( 'NONE', ( #405 ), #116, .F. ) ;
#128 = FACE_OUTER_BOUND ( 'NONE', #309, .T. ) ;
#129 = APPROVAL_ROLE ( '' ) ;
#130 = ORIENTED_EDGE ( 'NONE', *, *, #399, .F. ) ;
#131 = CARTESIAN_POINT ( 'NONE',  ( 7.499999999999998224, 35.00000000000000000, 0.1300000000000000044 ) ) ;
#132 = EDGE_LOOP ( 'NONE', ( #203, #432, #197, #380 ) ) ;
#133 = LINE ( 'NONE', #284, #427 ) ;
#134 = VECTOR ( 'NONE', #119, 1000.000000000000000 ) ;
#135 = VERTEX_POINT ( 'NONE', #460 ) ;
#136 = EDGE_CURVE ( 'NONE', #135, #72, #151, .T. ) ;
#137 = CARTESIAN_POINT ( 'NONE',  ( 16.99999999999999289, 15.00000000000000533, 0.000000000000000000 ) ) ;
#138 = ORIENTED_EDGE ( 'NONE', *, *, #448, .F. ) ;
#139 = DIRECTION ( 'NONE',  ( 0.000000000000000000, -0.000000000000000000, 1.000000000000000000 ) ) ;
#140 = AXIS2_PLACEMENT_3D ( 'NONE', #264, #444, #192 ) ;
#141 = CARTESIAN_POINT ( 'NONE',  ( -16.99999999999999289, 15.00000000000000178, 0.1300000000000000044 ) ) ;
#142 = LINE ( 'NONE', #228, #19 ) ;
#143 = DIRECTION ( 'NONE',  ( 0.000000000000000000, 1.000000000000000000, 0.000000000000000000 ) ) ;
#144 = VECTOR ( 'NONE', #371, 1000.000000000000000 ) ;
#145 = CC_DESIGN_SECURITY_CLASSIFICATION ( #450, ( #219 ) ) ;
#146 = EDGE_CURVE ( 'NONE', #272, #467, #495, .T. ) ;
#147 = LINE ( 'NONE', #296, #178 ) ;
#148 = DIRECTION ( 'NONE',  ( 0.000000000000000000, -1.000000000000000000, 0.000000000000000000 ) ) ;
#149 = ORIENTED_EDGE ( 'NONE', *, *, #332, .T. ) ;
#150 = CARTESIAN_POINT ( 'NONE',  ( -16.99999999999999289, -15.00000000000000178, 0.000000000000000000 ) ) ;
#151 = LINE ( 'NONE', #308, #438 ) ;
#152 = EDGE_CURVE ( 'NONE', #2, #153, #302, .T. ) ;
#153 = VERTEX_POINT ( 'NONE', #499 ) ;
#154 = PERSON_AND_ORGANIZATION ( #333, #209 ) ;
#155 = AXIS2_PLACEMENT_3D ( 'NONE', #376, #298, #454 ) ;
#156 = CARTESIAN_POINT ( 'NONE',  ( -7.500000000000000000, -35.00000000000000000, 0.1300000000000000044 ) ) ;
#157 = EDGE_LOOP ( 'NONE', ( #207, #47, #384, #6 ) ) ;
#158 = PERSON_AND_ORGANIZATION ( #333, #209 ) ;
#159 = CARTESIAN_POINT ( 'NONE',  ( -38.00000000000000711, 34.99999999999999289, 0.000000000000000000 ) ) ;
#160 = VERTEX_POINT ( 'NONE', #456 ) ;
#161 = CALENDAR_DATE ( 2026, 5, 6 ) ;
#162 = CARTESIAN_POINT ( 'NONE',  ( 16.99999999999999289, 15.00000000000000533, 0.1300000000000000044 ) ) ;
#163 = ORIENTED_EDGE ( 'NONE', *, *, #465, .F. ) ;
#164 = VERTEX_POINT ( 'NONE', #113 ) ;
#165 = CARTESIAN_POINT ( 'NONE',  ( -7.499999999999996447, 15.00000000000000000, 0.1300000000000000044 ) ) ;
#166 = VECTOR ( 'NONE', #1, 1000.000000000000000 ) ;
#167 = EDGE_CURVE ( 'NONE', #468, #352, #423, .T. ) ;
#168 = DIRECTION ( 'NONE',  ( 1.000000000000000000, -0.000000000000000000, 0.000000000000000000 ) ) ;
#169 = COORDINATED_UNIVERSAL_TIME_OFFSET ( 8, 0, .AHEAD. ) ;
#170 = ORIENTED_EDGE ( 'NONE', *, *, #26, .F. ) ;
#171 = CARTESIAN_POINT ( 'NONE',  ( 7.500000000000000000, 15.00000000000000178, 0.1300000000000000044 ) ) ;
#172 = DIRECTION ( 'NONE',  ( -0.000000000000000000, -0.000000000000000000, 1.000000000000000000 ) ) ;
#173 = ORIENTED_EDGE ( 'NONE', *, *, #431, .T. ) ;
#174 = LINE ( 'NONE', #248, #105 ) ;
#175 = ORIENTED_EDGE ( 'NONE', *, *, #224, .T. ) ;
#176 = EDGE_CURVE ( 'NONE', #468, #82, #419, .T. ) ;
#177 = CARTESIAN_POINT ( 'NONE',  ( -16.99999999999999289, 15.00000000000000178, 0.000000000000000000 ) ) ;
#178 = VECTOR ( 'NONE', #265, 1000.000000000000000 ) ;
#179 = APPROVAL_PERSON_ORGANIZATION ( #201, #196, #195 ) ;
#180 = CARTESIAN_POINT ( 'NONE',  ( 16.99999999999999289, 15.00000000000000533, 0.000000000000000000 ) ) ;
#181 = ORIENTED_EDGE ( 'NONE', *, *, #274, .T. ) ;
#182 = EDGE_CURVE ( 'NONE', #164, #72, #382, .T. ) ;
#183 = LOCAL_TIME ( 11, 33, 2.000000000000000000, #273 ) ;
#184 = CARTESIAN_POINT ( 'NONE',  ( -16.99999999999999289, -15.00000000000000178, 0.000000000000000000 ) ) ;
#185 = CARTESIAN_POINT ( 'NONE',  ( 0.000000000000000000, 0.000000000000000000, 0.1300000000000000044 ) ) ;
#186 = DIRECTION ( 'NONE',  ( -1.000000000000000000, -1.826024711554534160E-16, -0.000000000000000000 ) ) ;
#187 = EDGE_CURVE ( 'NONE', #283, #160, #33, .T. ) ;
#188 = DIRECTION ( 'NONE',  ( 8.673617379884034239E-17, -1.000000000000000000, 0.000000000000000000 ) ) ;
#189 = VECTOR ( 'NONE', #486, 1000.000000000000000 ) ;
#190 = CARTESIAN_POINT ( 'NONE',  ( -38.00000000000000711, 34.99999999999999289, 0.1300000000000000044 ) ) ;
#191 = ORIENTED_EDGE ( 'NONE', *, *, #136, .F. ) ;
#192 = DIRECTION ( 'NONE',  ( -1.000000000000000000, -1.826024711554534160E-16, 0.000000000000000000 ) ) ;
#193 = EDGE_CURVE ( 'NONE', #354, #497, #426, .T. ) ;
#194 = ORIENTED_EDGE ( 'NONE', *, *, #239, .T. ) ;
#195 = APPROVAL_ROLE ( '' ) ;
#196 = APPROVAL ( #356, 'UNSPECIFIED' ) ;
#197 = ORIENTED_EDGE ( 'NONE', *, *, #221, .F. ) ;
#198 = AXIS2_PLACEMENT_3D ( 'NONE', #97, #255, #62 ) ;
#199 = CARTESIAN_POINT ( 'NONE',  ( -7.500000000000000000, -35.00000000000000000, 0.000000000000000000 ) ) ;
#200 = ORIENTED_EDGE ( 'NONE', *, *, #57, .F. ) ;
#201 = PERSON_AND_ORGANIZATION ( #333, #209 ) ;
#202 = CARTESIAN_POINT ( 'NONE',  ( -7.500000000000000000, 35.00000000000000000, 0.1300000000000000044 ) ) ;
#203 = ORIENTED_EDGE ( 'NONE', *, *, #465, .T. ) ;
#204 = COORDINATED_UNIVERSAL_TIME_OFFSET ( 8, 0, .AHEAD. ) ;
#205 = DIRECTION ( 'NONE',  ( 4.625929269271484928E-16, -1.000000000000000000, -0.000000000000000000 ) ) ;
#206 = ORIENTED_EDGE ( 'NONE', *, *, #152, .T. ) ;
#207 = ORIENTED_EDGE ( 'NONE', *, *, #193, .T. ) ;
#208 = DIRECTION ( 'NONE',  ( -1.826024711554534160E-16, -1.000000000000000000, 0.000000000000000000 ) ) ;
#209 = ORGANIZATION ( 'UNSPECIFIED', 'UNSPECIFIED', '' ) ;
#210 = CARTESIAN_POINT ( 'NONE',  ( 17.00000000000000711, -15.00000000000000178, 0.000000000000000000 ) ) ;
#211 = ORIENTED_EDGE ( 'NONE', *, *, #26, .T. ) ;
#212 = CARTESIAN_POINT ( 'NONE',  ( 7.500000000000000000, -15.00000000000000178, 0.1300000000000000044 ) ) ;
#213 = EDGE_LOOP ( 'NONE', ( #7, #360, #125, #343 ) ) ;
#214 = ORIENTED_EDGE ( 'NONE', *, *, #260, .F. ) ;
#215 = CARTESIAN_POINT ( 'NONE',  ( 7.499999999999998224, -35.00000000000000000, 0.000000000000000000 ) ) ;
#216 = PLANE ( 'NONE',  #479 ) ;
#217 =( NAMED_UNIT ( * ) PLANE_ANGLE_UNIT ( ) SI_UNIT ( $, .RADIAN. ) );
#218 = VECTOR ( 'NONE', #413, 1000.000000000000000 ) ;
#219 = PRODUCT_DEFINITION_FORMATION_WITH_SPECIFIED_SOURCE ( 'ANY', '', #401, .NOT_KNOWN. ) ;
#220 = LINE ( 'NONE', #180, #485 ) ;
#221 = EDGE_CURVE ( 'NONE', #44, #135, #147, .T. ) ;
#222 = VECTOR ( 'NONE', #172, 1000.000000000000000 ) ;
#223 = DIRECTION ( 'NONE',  ( 1.000000000000000000, -1.734723475976806848E-16, 0.000000000000000000 ) ) ;
#224 = EDGE_CURVE ( 'NONE', #478, #36, #452, .T. ) ;
#225 = DIRECTION ( 'NONE',  ( 1.000000000000000000, -1.826024711554534160E-16, 0.000000000000000000 ) ) ;
#226 = PLANE ( 'NONE',  #276 ) ;
#227 = CARTESIAN_POINT ( 'NONE',  ( -7.500000000000000000, 35.00000000000000000, 0.000000000000000000 ) ) ;
#228 = CARTESIAN_POINT ( 'NONE',  ( 17.00000000000000711, -15.00000000000000178, 0.000000000000000000 ) ) ;
#229 = VECTOR ( 'NONE', #480, 1000.000000000000000 ) ;
#230 = ORIENTED_EDGE ( 'NONE', *, *, #258, .F. ) ;
#231 = DATE_AND_TIME ( #40, #183 ) ;
#232 = EDGE_CURVE ( 'NONE', #72, #160, #68, .T. ) ;
#233 = ORIENTED_EDGE ( 'NONE', *, *, #89, .T. ) ;
#234 = DATE_AND_TIME ( #344, #386 ) ;
#235 = CARTESIAN_POINT ( 'NONE',  ( 16.99999999999999289, 15.00000000000000533, 0.000000000000000000 ) ) ;
#236 = ORIENTED_EDGE ( 'NONE', *, *, #232, .F. ) ;
#237 = AXIS2_PLACEMENT_3D ( 'NONE', #290, #148, #266 ) ;
#238 = CC_DESIGN_APPROVAL ( #38, ( #411 ) ) ;
#239 = EDGE_CURVE ( 'NONE', #153, #467, #83, .T. ) ;
#240 = ORIENTED_EDGE ( 'NONE', *, *, #268, .F. ) ;
#241 = APPLICATION_PROTOCOL_DEFINITION ( 'international standard', 'config_control_design', 1994, #23 ) ;
#242 = LINE ( 'NONE', #439, #325 ) ;
#243 = ORIENTED_EDGE ( 'NONE', *, *, #488, .F. ) ;
#244 = MECHANICAL_CONTEXT ( 'NONE', #23, 'mechanical' ) ;
#245 = DIRECTION ( 'NONE',  ( -0.000000000000000000, -0.000000000000000000, 1.000000000000000000 ) ) ;
#246 = LINE ( 'NONE', #437, #222 ) ;
#247 = EDGE_CURVE ( 'NONE', #315, #267, #359, .T. ) ;
#248 = CARTESIAN_POINT ( 'NONE',  ( -37.99999999999999289, -35.00000000000000000, 0.000000000000000000 ) ) ;
#249 = CLOSED_SHELL ( 'NONE', ( #374, #34, #407, #100, #496, #127, #391, #70, #307, #43, #321, #12, #418, #475 ) ) ;
#250 = CARTESIAN_POINT ( 'NONE',  ( 17.00000000000000711, -15.00000000000000178, 0.000000000000000000 ) ) ;
#251 = ORIENTED_EDGE ( 'NONE', *, *, #484, .F. ) ;
#252 = APPROVAL ( #471, 'UNSPECIFIED' ) ;
#253 = DIRECTION ( 'NONE',  ( 4.625929269271484928E-16, -1.000000000000000000, 0.000000000000000000 ) ) ;
#254 = DIRECTION ( 'NONE',  ( 0.000000000000000000, 1.000000000000000000, 0.000000000000000000 ) ) ;
#255 = DIRECTION ( 'NONE',  ( 1.000000000000000000, 1.734723475976806848E-16, 0.000000000000000000 ) ) ;
#256 = VECTOR ( 'NONE', #76, 1000.000000000000000 ) ;
#257 = DIRECTION ( 'NONE',  ( -0.000000000000000000, -0.000000000000000000, 1.000000000000000000 ) ) ;
#258 = EDGE_CURVE ( 'NONE', #352, #289, #133, .T. ) ;
#259 = FACE_OUTER_BOUND ( 'NONE', #388, .T. ) ;
#260 = EDGE_CURVE ( 'NONE', #312, #352, #5, .T. ) ;
#261 = VECTOR ( 'NONE', #87, 1000.000000000000000 ) ;
#262 = PLANE ( 'NONE',  #314 ) ;
#263 = CC_DESIGN_PERSON_AND_ORGANIZATION_ASSIGNMENT ( #350, #37, ( #411 ) ) ;
#264 = CARTESIAN_POINT ( 'NONE',  ( -16.99999999999999289, -15.00000000000000178, 0.000000000000000000 ) ) ;
#265 = DIRECTION ( 'NONE',  ( 1.000000000000000000, -1.826024711554534160E-16, 0.000000000000000000 ) ) ;
#266 = DIRECTION ( 'NONE',  ( 0.000000000000000000, -0.000000000000000000, -1.000000000000000000 ) ) ;
#267 = VERTEX_POINT ( 'NONE', #215 ) ;
#268 = EDGE_CURVE ( 'NONE', #283, #312, #17, .T. ) ;
#269 = ORIENTED_EDGE ( 'NONE', *, *, #332, .F. ) ;
#270 = PERSON_AND_ORGANIZATION ( #333, #209 ) ;
#271 = DIRECTION ( 'NONE',  ( 1.734723475976806848E-16, 1.000000000000000000, 0.000000000000000000 ) ) ;
#272 = VERTEX_POINT ( 'NONE', #402 ) ;
#273 = COORDINATED_UNIVERSAL_TIME_OFFSET ( 8, 0, .AHEAD. ) ;
#274 = EDGE_CURVE ( 'NONE', #2, #267, #174, .T. ) ;
#275 = EDGE_LOOP ( 'NONE', ( #428, #455, #110, #51, #458, #114, #416, #340, #74, #206, #390, #149 ) ) ;
#276 = AXIS2_PLACEMENT_3D ( 'NONE', #335, #223, #487 ) ;
#277 = DIRECTION ( 'NONE',  ( 1.000000000000000000, 0.000000000000000000, 0.000000000000000000 ) ) ;
#278 = ORIENTED_EDGE ( 'NONE', *, *, #366, .F. ) ;
#279 = PERSON_AND_ORGANIZATION_ROLE ( 'design_owner' ) ;
#280 = DIRECTION ( 'NONE',  ( -8.673617379884034239E-17, -1.000000000000000000, -0.000000000000000000 ) ) ;
#281 = CARTESIAN_POINT ( 'NONE',  ( -7.500000000000000000, -35.00000000000000000, 0.000000000000000000 ) ) ;
#282 = FACE_OUTER_BOUND ( 'NONE', #85, .T. ) ;
#283 = VERTEX_POINT ( 'NONE', #131 ) ;
#284 = CARTESIAN_POINT ( 'NONE',  ( 17.00000000000000711, -15.00000000000000178, 0.1300000000000000044 ) ) ;
#285 = CARTESIAN_POINT ( 'NONE',  ( -16.99999999999999289, -15.00000000000000178, 0.000000000000000000 ) ) ;
#286 = DIRECTION ( 'NONE',  ( 1.000000000000000000, -1.826024711554534160E-16, 0.000000000000000000 ) ) ;
#287 = EDGE_LOOP ( 'NONE', ( #173, #420, #251, #319 ) ) ;
#288 = EDGE_CURVE ( 'NONE', #39, #312, #242, .T. ) ;
#289 = VERTEX_POINT ( 'NONE', #8 ) ;
#290 = CARTESIAN_POINT ( 'NONE',  ( -38.00000000000000711, 34.99999999999999289, 0.1300000000000000044 ) ) ;
#291 = EDGE_CURVE ( 'NONE', #164, #39, #473, .T. ) ;
#292 = LINE ( 'NONE', #27, #370 ) ;
#293 = VECTOR ( 'NONE', #186, 1000.000000000000000 ) ;
#294 = LOCAL_TIME ( 11, 33, 2.000000000000000000, #169 ) ;
#295 = CARTESIAN_POINT ( 'NONE',  ( 7.499999999999998224, 35.00000000000000000, 0.000000000000000000 ) ) ;
#296 = CARTESIAN_POINT ( 'NONE',  ( -16.99999999999999289, 15.00000000000000178, 0.000000000000000000 ) ) ;
#297 = CARTESIAN_POINT ( 'NONE',  ( -16.99999999999999289, -15.00000000000000178, 0.1300000000000000044 ) ) ;
#298 = DIRECTION ( 'NONE',  ( -1.000000000000000000, 8.673617379884034239E-17, 0.000000000000000000 ) ) ;
#299 = EDGE_CURVE ( 'NONE', #272, #497, #364, .T. ) ;
#300 = ORIENTED_EDGE ( 'NONE', *, *, #22, .F. ) ;
#301 = PLANE ( 'NONE',  #140 ) ;
#302 = LINE ( 'NONE', #199, #466 ) ;
#303 = VERTEX_POINT ( 'NONE', #165 ) ;
#304 = SECURITY_CLASSIFICATION_LEVEL ( 'unclassified' ) ;
#305 = VECTOR ( 'NONE', #316, 1000.000000000000000 ) ;
#306 = ORIENTED_EDGE ( 'NONE', *, *, #146, .T. ) ;
#307 = ADVANCED_FACE ( 'NONE', ( #326 ), #15, .F. ) ;
#308 = CARTESIAN_POINT ( 'NONE',  ( -7.500000000000000000, 35.00000000000000000, 0.000000000000000000 ) ) ;
#309 = EDGE_LOOP ( 'NONE', ( #476, #236, #191, #233 ) ) ;
#310 = DATE_TIME_ROLE ( 'classification_date' ) ;
#311 = CARTESIAN_POINT ( 'NONE',  ( 16.99999999999999289, 15.00000000000000533, 0.1300000000000000044 ) ) ;
#312 = VERTEX_POINT ( 'NONE', #171 ) ;
#313 = PERSON_AND_ORGANIZATION_ROLE ( 'design_supplier' ) ;
#314 = AXIS2_PLACEMENT_3D ( 'NONE', #185, #410, #451 ) ;
#315 = VERTEX_POINT ( 'NONE', #396 ) ;
#316 = DIRECTION ( 'NONE',  ( -0.000000000000000000, -0.000000000000000000, 1.000000000000000000 ) ) ;
#317 = PLANE ( 'NONE',  #327 ) ;
#318 = DATE_AND_TIME ( #79, #491 ) ;
#319 = ORIENTED_EDGE ( 'NONE', *, *, #379, .T. ) ;
#320 = CARTESIAN_POINT ( 'NONE',  ( -37.99999999999999289, -35.00000000000000000, 0.1300000000000000044 ) ) ;
#321 = ADVANCED_FACE ( 'NONE', ( #351 ), #434, .F. ) ;
#322 = LINE ( 'NONE', #474, #457 ) ;
#323 = EDGE_LOOP ( 'NONE', ( #78, #243, #130, #194 ) ) ;
#324 = ORIENTED_EDGE ( 'NONE', *, *, #176, .F. ) ;
#325 = VECTOR ( 'NONE', #245, 1000.000000000000000 ) ;
#326 = FACE_OUTER_BOUND ( 'NONE', #18, .T. ) ;
#327 = AXIS2_PLACEMENT_3D ( 'NONE', #210, #94, #253 ) ;
#328 = DIRECTION ( 'NONE',  ( 1.000000000000000000, 3.652049423109069799E-16, -0.000000000000000000 ) ) ;
#329 = ORIENTED_EDGE ( 'NONE', *, *, #187, .T. ) ;
#330 = CC_DESIGN_PERSON_AND_ORGANIZATION_ASSIGNMENT ( #158, #3, ( #450 ) ) ;
#331 = PRODUCT_DEFINITION_SHAPE ( 'NONE', 'NONE',  #411 ) ;
#332 = EDGE_CURVE ( 'NONE', #95, #44, #96, .T. ) ;
#333 = PERSON ( 'UNSPECIFIED', 'UNSPECIFIED', 'UNSPECIFIED', ('UNSPECIFIED'), ('UNSPECIFIED'), ('UNSPECIFIED') ) ;
#334 = DIRECTION ( 'NONE',  ( -1.000000000000000000, -8.673617379884034239E-17, 0.000000000000000000 ) ) ;
#335 = CARTESIAN_POINT ( 'NONE',  ( -7.500000000000000000, -35.00000000000000000, 0.000000000000000000 ) ) ;
#336 = FACE_OUTER_BOUND ( 'NONE', #323, .T. ) ;
#337 = AXIS2_PLACEMENT_3D ( 'NONE', #54, #397, #139 ) ;
#338 = CARTESIAN_POINT ( 'NONE',  ( -16.99999999999999289, 15.00000000000000178, 0.000000000000000000 ) ) ;
#339 = EDGE_CURVE ( 'NONE', #303, #160, #56, .T. ) ;
#340 = ORIENTED_EDGE ( 'NONE', *, *, #247, .T. ) ;
#341 = CARTESIAN_POINT ( 'NONE',  ( -7.499999999999996447, -15.00000000000000000, 0.1300000000000000044 ) ) ;
#342 = CC_DESIGN_DATE_AND_TIME_ASSIGNMENT ( #234, #353, ( #411 ) ) ;
#343 = ORIENTED_EDGE ( 'NONE', *, *, #57, .T. ) ;
#344 = CALENDAR_DATE ( 2026, 5, 6 ) ;
#345 = ORIENTED_EDGE ( 'NONE', *, *, #77, .T. ) ;
#346 = DATE_AND_TIME ( #161, #294 ) ;
#347 = VECTOR ( 'NONE', #257, 1000.000000000000000 ) ;
#348 = CARTESIAN_POINT ( 'NONE',  ( 17.00000000000000711, -15.00000000000000178, 0.000000000000000000 ) ) ;
#349 = ORIENTED_EDGE ( 'NONE', *, *, #431, .F. ) ;
#350 = PERSON_AND_ORGANIZATION ( #333, #209 ) ;
#351 = FACE_OUTER_BOUND ( 'NONE', #132, .T. ) ;
#352 = VERTEX_POINT ( 'NONE', #162 ) ;
#353 = DATE_TIME_ROLE ( 'creation_date' ) ;
#354 = VERTEX_POINT ( 'NONE', #212 ) ;
#355 = FACE_OUTER_BOUND ( 'NONE', #461, .T. ) ;
#356 = APPROVAL_STATUS ( 'not_yet_approved' ) ;
#357 = VECTOR ( 'NONE', #464, 1000.000000000000000 ) ;
#358 = ORIENTED_EDGE ( 'NONE', *, *, #182, .T. ) ;
#359 = LINE ( 'NONE', #126, #42 ) ;
#360 = ORIENTED_EDGE ( 'NONE', *, *, #288, .F. ) ;
#361 = LINE ( 'NONE', #93, #357 ) ;
#362 = CARTESIAN_POINT ( 'NONE',  ( -16.99999999999999289, 15.00000000000000178, 0.1300000000000000044 ) ) ;
#363 = EDGE_LOOP ( 'NONE', ( #463, #377, #324, #493 ) ) ;
#364 = LINE ( 'NONE', #320, #104 ) ;
#365 = CARTESIAN_POINT ( 'NONE',  ( 0.000000000000000000, 0.000000000000000000, 0.000000000000000000 ) ) ;
#366 = EDGE_CURVE ( 'NONE', #467, #478, #361, .T. ) ;
#367 = LINE ( 'NONE', #24, #63 ) ;
#368 = CC_DESIGN_APPROVAL ( #252, ( #450 ) ) ;
#369 = LINE ( 'NONE', #88, #347 ) ;
#370 = VECTOR ( 'NONE', #489, 1000.000000000000000 ) ;
#371 = DIRECTION ( 'NONE',  ( -0.000000000000000000, -0.000000000000000000, 1.000000000000000000 ) ) ;
#372 = DIRECTION ( 'NONE',  ( 0.000000000000000000, -0.000000000000000000, 1.000000000000000000 ) ) ;
#373 = FACE_OUTER_BOUND ( 'NONE', #213, .T. ) ;
#374 = ADVANCED_FACE ( 'NONE', ( #60 ), #492, .F. ) ;
#375 = PLANE ( 'NONE',  #80 ) ;
#376 = CARTESIAN_POINT ( 'NONE',  ( 7.499999999999998224, -35.00000000000000000, 0.000000000000000000 ) ) ;
#377 = ORIENTED_EDGE ( 'NONE', *, *, #379, .F. ) ;
#378 = DIRECTION ( 'NONE',  ( 1.000000000000000000, 0.000000000000000000, 0.000000000000000000 ) ) ;
#379 = EDGE_CURVE ( 'NONE', #82, #289, #142, .T. ) ;
#380 = ORIENTED_EDGE ( 'NONE', *, *, #448, .T. ) ;
#381 = APPROVAL_DATE_TIME ( #318, #196 ) ;
#382 = LINE ( 'NONE', #159, #32 ) ;
#383 = AXIS2_PLACEMENT_3D ( 'NONE', #137, #90, #52 ) ;
#384 = ORIENTED_EDGE ( 'NONE', *, *, #247, .F. ) ;
#385 = APPROVAL_STATUS ( 'not_yet_approved' ) ;
#386 = LOCAL_TIME ( 11, 33, 2.000000000000000000, #433 ) ;
#387 = CARTESIAN_POINT ( 'NONE',  ( 7.499999999999998224, -35.00000000000000000, 0.1300000000000000044 ) ) ;
#388 = EDGE_LOOP ( 'NONE', ( #306, #482, #424, #211 ) ) ;
#389 = COORDINATED_UNIVERSAL_TIME_OFFSET ( 8, 0, .AHEAD. ) ;
#390 = ORIENTED_EDGE ( 'NONE', *, *, #399, .T. ) ;
#391 = ADVANCED_FACE ( 'NONE', ( #453 ), #375, .F. ) ;
#392 = ORIENTED_EDGE ( 'NONE', *, *, #488, .T. ) ;
#393 = DIRECTION ( 'NONE',  ( 1.000000000000000000, 0.000000000000000000, 0.000000000000000000 ) ) ;
#394 = ORIENTED_EDGE ( 'NONE', *, *, #260, .T. ) ;
#395 = APPROVAL_PERSON_ORGANIZATION ( #270, #38, #118 ) ;
#396 = CARTESIAN_POINT ( 'NONE',  ( 7.500000000000000000, -15.00000000000000178, 0.000000000000000000 ) ) ;
#397 = DIRECTION ( 'NONE',  ( 0.000000000000000000, 1.000000000000000000, 0.000000000000000000 ) ) ;
#398 = DIRECTION ( 'NONE',  ( 1.000000000000000000, 3.652049423109069799E-16, -0.000000000000000000 ) ) ;
#399 = EDGE_CURVE ( 'NONE', #153, #95, #109, .T. ) ;
#400 = CARTESIAN_POINT ( 'NONE',  ( -16.99999999999999289, -15.00000000000000178, 0.000000000000000000 ) ) ;
#401 = PRODUCT ( 'cover glass_lower', 'cover glass_lower', '', ( #244 ) ) ;
#402 = CARTESIAN_POINT ( 'NONE',  ( -7.500000000000000000, -35.00000000000000000, 0.1300000000000000044 ) ) ;
#403 = DIRECTION ( 'NONE',  ( -0.000000000000000000, -0.000000000000000000, 1.000000000000000000 ) ) ;
#404 = AXIS2_PLACEMENT_3D ( 'NONE', #177, #208, #286 ) ;
#405 = FACE_OUTER_BOUND ( 'NONE', #157, .T. ) ;
#406 = DIRECTION ( 'NONE',  ( -0.000000000000000000, 0.000000000000000000, 1.000000000000000000 ) ) ;
#407 = ADVANCED_FACE ( 'NONE', ( #66 ), #262, .T. ) ;
#408 = CARTESIAN_POINT ( 'NONE',  ( 7.500000000000000000, -15.00000000000000178, 0.000000000000000000 ) ) ;
#409 =( NAMED_UNIT ( * ) SI_UNIT ( $, .STERADIAN. ) SOLID_ANGLE_UNIT ( ) );
#410 = DIRECTION ( 'NONE',  ( -0.000000000000000000, 0.000000000000000000, 1.000000000000000000 ) ) ;
#411 = PRODUCT_DEFINITION ( 'UNKNOWN', '', #219, #64 ) ;
#412 = LINE ( 'NONE', #338, #144 ) ;
#413 = DIRECTION ( 'NONE',  ( 0.000000000000000000, 1.000000000000000000, 0.000000000000000000 ) ) ;
#414 = LINE ( 'NONE', #141, #490 ) ;
#415 = VECTOR ( 'NONE', #403, 1000.000000000000000 ) ;
#416 = ORIENTED_EDGE ( 'NONE', *, *, #484, .T. ) ;
#417 = PERSON_AND_ORGANIZATION ( #333, #209 ) ;
#418 = ADVANCED_FACE ( 'NONE', ( #336 ), #301, .F. ) ;
#419 = LINE ( 'NONE', #348, #256 ) ;
#420 = ORIENTED_EDGE ( 'NONE', *, *, #108, .F. ) ;
#421 = CALENDAR_DATE ( 2026, 5, 6 ) ;
#422 = PRODUCT_RELATED_PRODUCT_CATEGORY ( 'detail', '', ( #401 ) ) ;
#423 = LINE ( 'NONE', #235, #166 ) ;
#424 = ORIENTED_EDGE ( 'NONE', *, *, #152, .F. ) ;
#425 = APPROVAL_DATE_TIME ( #231, #38 ) ;
#426 = LINE ( 'NONE', #387, #25 ) ;
#427 = VECTOR ( 'NONE', #205, 1000.000000000000000 ) ;
#428 = ORIENTED_EDGE ( 'NONE', *, *, #221, .T. ) ;
#429 = LOCAL_TIME ( 11, 33, 2.000000000000000000, #389 ) ;
#430 = CARTESIAN_POINT ( 'NONE',  ( 7.499999999999998224, 35.00000000000000000, 0.1300000000000000044 ) ) ;
#431 = EDGE_CURVE ( 'NONE', #289, #354, #292, .T. ) ;
#432 = ORIENTED_EDGE ( 'NONE', *, *, #89, .F. ) ;
#433 = COORDINATED_UNIVERSAL_TIME_OFFSET ( 8, 0, .AHEAD. ) ;
#434 = PLANE ( 'NONE',  #404 ) ;
#435 = ORIENTED_EDGE ( 'NONE', *, *, #339, .F. ) ;
#436 = DIRECTION ( 'NONE',  ( 8.673617379884034239E-17, -1.000000000000000000, 0.000000000000000000 ) ) ;
#437 = CARTESIAN_POINT ( 'NONE',  ( 7.499999999999998224, -35.00000000000000000, 0.000000000000000000 ) ) ;
#438 = VECTOR ( 'NONE', #35, 1000.000000000000000 ) ;
#439 = CARTESIAN_POINT ( 'NONE',  ( 7.500000000000000000, 15.00000000000000178, 0.000000000000000000 ) ) ;
#440 = CARTESIAN_POINT ( 'NONE',  ( 7.500000000000000000, 15.00000000000000178, 0.000000000000000000 ) ) ;
#441 = CARTESIAN_POINT ( 'NONE',  ( -7.500000000000000000, -35.00000000000000000, 0.000000000000000000 ) ) ;
#442 = PLANE ( 'NONE',  #337 ) ;
#443 = VECTOR ( 'NONE', #436, 1000.000000000000000 ) ;
#444 = DIRECTION ( 'NONE',  ( -1.826024711554534160E-16, 1.000000000000000000, 0.000000000000000000 ) ) ;
#445 = CC_DESIGN_PERSON_AND_ORGANIZATION_ASSIGNMENT ( #10, #124, ( #219 ) ) ;
#446 = DIRECTION ( 'NONE',  ( -1.000000000000000000, 0.000000000000000000, 0.000000000000000000 ) ) ;
#447 = VECTOR ( 'NONE', #254, 1000.000000000000000 ) ;
#448 = EDGE_CURVE ( 'NONE', #44, #36, #412, .T. ) ;
#449 = DIRECTION ( 'NONE',  ( 1.000000000000000000, 0.000000000000000000, 0.000000000000000000 ) ) ;
#450 = SECURITY_CLASSIFICATION ( '', '', #304 ) ;
#451 = DIRECTION ( 'NONE',  ( 1.000000000000000000, 0.000000000000000000, 0.000000000000000000 ) ) ;
#452 = LINE ( 'NONE', #107, #218 ) ;
#453 = FACE_OUTER_BOUND ( 'NONE', #287, .T. ) ;
#454 = DIRECTION ( 'NONE',  ( -8.673617379884034239E-17, -1.000000000000000000, 0.000000000000000000 ) ) ;
#455 = ORIENTED_EDGE ( 'NONE', *, *, #136, .T. ) ;
#456 = CARTESIAN_POINT ( 'NONE',  ( -7.500000000000000000, 35.00000000000000000, 0.1300000000000000044 ) ) ;
#457 = VECTOR ( 'NONE', #58, 1000.000000000000000 ) ;
#458 = ORIENTED_EDGE ( 'NONE', *, *, #22, .T. ) ;
#459 = APPROVAL_DATE_TIME ( #73, #252 ) ;
#460 = CARTESIAN_POINT ( 'NONE',  ( -7.499999999999996447, 15.00000000000000000, 0.000000000000000000 ) ) ;
#461 = EDGE_LOOP ( 'NONE', ( #175, #138, #269, #392 ) ) ;
#462 = DIRECTION ( 'NONE',  ( -1.000000000000000000, -0.000000000000000000, -0.000000000000000000 ) ) ;
#463 = ORIENTED_EDGE ( 'NONE', *, *, #258, .T. ) ;
#464 = DIRECTION ( 'NONE',  ( -1.000000000000000000, -1.826024711554534160E-16, -0.000000000000000000 ) ) ;
#465 = EDGE_CURVE ( 'NONE', #36, #303, #414, .T. ) ;
#466 = VECTOR ( 'NONE', #271, 1000.000000000000000 ) ;
#467 = VERTEX_POINT ( 'NONE', #341 ) ;
#468 = VERTEX_POINT ( 'NONE', #494 ) ;
#469 = CARTESIAN_POINT ( 'NONE',  ( 7.499999999999998224, 35.00000000000000000, 0.000000000000000000 ) ) ;
#470 = CARTESIAN_POINT ( 'NONE',  ( -7.500000000000000000, 35.00000000000000000, 0.000000000000000000 ) ) ;
#471 = APPROVAL_STATUS ( 'not_yet_approved' ) ;
#472 = ORIENTED_EDGE ( 'NONE', *, *, #193, .F. ) ;
#473 = LINE ( 'NONE', #469, #229 ) ;
#474 = CARTESIAN_POINT ( 'NONE',  ( -7.499999999999996447, 15.00000000000000000, 0.000000000000000000 ) ) ;
#475 = ADVANCED_FACE ( 'NONE', ( #259 ), #226, .F. ) ;
#476 = ORIENTED_EDGE ( 'NONE', *, *, #339, .T. ) ;
#477 = CARTESIAN_POINT ( 'NONE',  ( -7.499999999999996447, -15.00000000000000000, 0.000000000000000000 ) ) ;
#478 = VERTEX_POINT ( 'NONE', #297 ) ;
#479 = AXIS2_PLACEMENT_3D ( 'NONE', #365, #406, #449 ) ;
#480 = DIRECTION ( 'NONE',  ( 8.673617379884034239E-17, -1.000000000000000000, 0.000000000000000000 ) ) ;
#481 = LINE ( 'NONE', #441, #415 ) ;
#482 = ORIENTED_EDGE ( 'NONE', *, *, #239, .F. ) ;
#483 = LINE ( 'NONE', #408, #189 ) ;
#484 = EDGE_CURVE ( 'NONE', #82, #315, #367, .T. ) ;
#485 = VECTOR ( 'NONE', #328, 1000.000000000000000 ) ;
#486 = DIRECTION ( 'NONE',  ( -0.000000000000000000, -0.000000000000000000, 1.000000000000000000 ) ) ;
#487 = DIRECTION ( 'NONE',  ( 1.734723475976806848E-16, 1.000000000000000000, 0.000000000000000000 ) ) ;
#488 = EDGE_CURVE ( 'NONE', #95, #478, #30, .T. ) ;
#489 = DIRECTION ( 'NONE',  ( -1.000000000000000000, 0.000000000000000000, 0.000000000000000000 ) ) ;
#490 = VECTOR ( 'NONE', #225, 1000.000000000000000 ) ;
#491 = LOCAL_TIME ( 11, 33, 2.000000000000000000, #204 ) ;
#492 = PLANE ( 'NONE',  #237 ) ;
#493 = ORIENTED_EDGE ( 'NONE', *, *, #167, .T. ) ;
#494 = CARTESIAN_POINT ( 'NONE',  ( 16.99999999999999289, 15.00000000000000533, 0.000000000000000000 ) ) ;
#495 = LINE ( 'NONE', #156, #500 ) ;
#496 = ADVANCED_FACE ( 'NONE', ( #373 ), #31, .F. ) ;
#497 = VERTEX_POINT ( 'NONE', #69 ) ;
#498 = PERSON_AND_ORGANIZATION ( #333, #209 ) ;
#499 = CARTESIAN_POINT ( 'NONE',  ( -7.499999999999996447, -15.00000000000000000, 0.000000000000000000 ) ) ;
#500 = VECTOR ( 'NONE', #41, 1000.000000000000000 ) ;
#501 = EDGE_LOOP ( 'NONE', ( #435, #163, #16, #278, #123, #120, #472, #349, #230, #214, #240, #329 ) ) ;
ENDSEC;
END-ISO-10303-21;
