ISO-10303-21;
HEADER;
FILE_DESCRIPTION (( 'STEP AP203' ),
    '1' );
FILE_NAME ('cover glass.step',
    '2026-06-05T03:33:02',
    ( '' ),
    ( '' ),
    'SwSTEP 2.0',
    'SolidWorks 2024',
    '' );
FILE_SCHEMA (( 'CONFIG_CONTROL_DESIGN' ));
ENDSEC;

DATA;
#1 = VERTEX_POINT ( 'NONE', #196 ) ;
#2 = ORIENTED_EDGE ( 'NONE', *, *, #572, .T. ) ;
#3 = CARTESIAN_POINT ( 'NONE',  ( -38.00000000000000711, 34.99999999999999289, 0.000000000000000000 ) ) ;
#4 = EDGE_CURVE ( 'NONE', #585, #68, #584, .T. ) ;
#5 = CARTESIAN_POINT ( 'NONE',  ( 16.99999999999999289, 15.00000000000000533, 0.000000000000000000 ) ) ;
#6 = ORIENTED_EDGE ( 'NONE', *, *, #392, .T. ) ;
#7 = FACE_BOUND ( 'NONE', #559, .T. ) ;
#8 = CARTESIAN_POINT ( 'NONE',  ( -16.99999999999999289, -15.00000000000000178, 0.000000000000000000 ) ) ;
#9 = VECTOR ( 'NONE', #440, 1000.000000000000000 ) ;
#10 = ORIENTED_EDGE ( 'NONE', *, *, #240, .F. ) ;
#11 = DIRECTION ( 'NONE',  ( -0.000000000000000000, -0.000000000000000000, 1.000000000000000000 ) ) ;
#12 = FACE_OUTER_BOUND ( 'NONE', #596, .T. ) ;
#13 = EDGE_CURVE ( 'NONE', #434, #44, #356, .T. ) ;
#14 = ORIENTED_EDGE ( 'NONE', *, *, #240, .T. ) ;
#15 = DIRECTION ( 'NONE',  ( 8.673617379884034239E-17, -1.000000000000000000, 0.000000000000000000 ) ) ;
#16 = DIRECTION ( 'NONE',  ( -0.000000000000000000, -0.000000000000000000, 1.000000000000000000 ) ) ;
#17 = ADVANCED_FACE ( 'NONE', ( #588, #393, #144 ), #96, .F. ) ;
#18 = VERTEX_POINT ( 'NONE', #580 ) ;
#19 = CARTESIAN_POINT ( 'NONE',  ( 17.00000000000000711, -15.00000000000000178, 0.000000000000000000 ) ) ;
#20 = DIRECTION ( 'NONE',  ( 1.000000000000000000, 0.000000000000000000, 0.000000000000000000 ) ) ;
#21 = ORIENTED_EDGE ( 'NONE', *, *, #552, .F. ) ;
#22 = LINE ( 'NONE', #73, #464 ) ;
#23 = VECTOR ( 'NONE', #631, 1000.000000000000000 ) ;
#24 = AXIS2_PLACEMENT_3D ( 'NONE', #118, #568, #270 ) ;
#25 = VERTEX_POINT ( 'NONE', #136 ) ;
#26 =( NAMED_UNIT ( * ) PLANE_ANGLE_UNIT ( ) SI_UNIT ( $, .RADIAN. ) );
#27 = EDGE_CURVE ( 'NONE', #590, #402, #442, .T. ) ;
#28 = DIRECTION ( 'NONE',  ( 1.000000000000000000, 0.000000000000000000, 0.000000000000000000 ) ) ;
#29 = DATE_AND_TIME ( #273, #142 ) ;
#30 = PRODUCT_DEFINITION_FORMATION_WITH_SPECIFIED_SOURCE ( 'ANY', '', #364, .NOT_KNOWN. ) ;
#31 = DIRECTION ( 'NONE',  ( 1.734723475976806848E-16, 1.000000000000000000, 0.000000000000000000 ) ) ;
#32 = VECTOR ( 'NONE', #397, 1000.000000000000000 ) ;
#33 = LINE ( 'NONE', #477, #534 ) ;
#34 = MANIFOLD_SOLID_BREP ( '°£®Æ-¦ùªø2', #276 ) ;
#35 = EDGE_CURVE ( 'NONE', #362, #163, #538, .T. ) ;
#36 = DIRECTION ( 'NONE',  ( 1.000000000000000000, 0.000000000000000000, 0.000000000000000000 ) ) ;
#37 = DATE_AND_TIME ( #422, #318 ) ;
#38 = CARTESIAN_POINT ( 'NONE',  ( -7.500000000000000000, 35.00000000000000000, 0.000000000000000000 ) ) ;
#39 = CIRCLE ( 'NONE', #112, 0.7500000000000004441 ) ;
#40 = LINE ( 'NONE', #8, #32 ) ;
#41 = PERSON_AND_ORGANIZATION_ROLE ( 'design_supplier' ) ;
#42 = LINE ( 'NONE', #181, #601 ) ;
#43 = EDGE_CURVE ( 'NONE', #53, #563, #55, .T. ) ;
#44 = VERTEX_POINT ( 'NONE', #283 ) ;
#45 = ORIENTED_EDGE ( 'NONE', *, *, #272, .F. ) ;
#46 = CARTESIAN_POINT ( 'NONE',  ( 6.938893903907228378E-15, -30.50000000000000355, -0.0009999999999999972019 ) ) ;
#47 = EDGE_CURVE ( 'NONE', #605, #556, #40, .T. ) ;
#48 = VERTEX_POINT ( 'NONE', #253 ) ;
#49 = FACE_BOUND ( 'NONE', #366, .T. ) ;
#50 = AXIS2_PLACEMENT_3D ( 'NONE', #324, #433, #186 ) ;
#51 = DIRECTION ( 'NONE',  ( -0.000000000000000000, 0.000000000000000000, 1.000000000000000000 ) ) ;
#52 = VECTOR ( 'NONE', #74, 1000.000000000000000 ) ;
#53 = VERTEX_POINT ( 'NONE', #5 ) ;
#54 = PLANE ( 'NONE',  #182 ) ;
#55 = LINE ( 'NONE', #332, #412 ) ;
#56 = EDGE_LOOP ( 'NONE', ( #644, #351, #214, #648, #592, #494, #341, #103, #543, #386, #21, #539 ) ) ;
#57 = DIRECTION ( 'NONE',  ( 4.625929269271484928E-16, -1.000000000000000000, 0.000000000000000000 ) ) ;
#58 = ADVANCED_FACE ( 'NONE', ( #116 ), #598, .F. ) ;
#59 = ORIENTED_EDGE ( 'NONE', *, *, #526, .F. ) ;
#60 = CARTESIAN_POINT ( 'NONE',  ( 17.00000000000000711, -15.00000000000000178, 0.000000000000000000 ) ) ;
#61 = DIRECTION ( 'NONE',  ( 1.000000000000000000, 0.000000000000000000, 0.000000000000000000 ) ) ;
#62 = VECTOR ( 'NONE', #634, 1000.000000000000000 ) ;
#63 = ORIENTED_EDGE ( 'NONE', *, *, #498, .F. ) ;
#64 = DIRECTION ( 'NONE',  ( 4.625929269271484928E-16, -1.000000000000000000, -0.000000000000000000 ) ) ;
#65 = PRODUCT_DEFINITION_SHAPE ( 'NONE', 'NONE',  #635 ) ;
#66 = CARTESIAN_POINT ( 'NONE',  ( -16.99999999999999289, 15.00000000000000178, 0.000000000000000000 ) ) ;
#67 = EDGE_CURVE ( 'NONE', #362, #455, #303, .T. ) ;
#68 = VERTEX_POINT ( 'NONE', #203 ) ;
#69 = CARTESIAN_POINT ( 'NONE',  ( -7.500000000000000000, -35.00000000000000000, 0.1300000000000000044 ) ) ;
#70 = DIRECTION ( 'NONE',  ( -8.673617379884034239E-17, -1.000000000000000000, -0.000000000000000000 ) ) ;
#71 = ADVANCED_BREP_SHAPE_REPRESENTATION ( 'cover glass', ( #34, #50 ), #429 ) ;
#72 = ORIENTED_EDGE ( 'NONE', *, *, #396, .T. ) ;
#73 = CARTESIAN_POINT ( 'NONE',  ( 7.499999999999998224, 35.00000000000000000, 0.1300000000000000044 ) ) ;
#74 = DIRECTION ( 'NONE',  ( -1.000000000000000000, -1.826024711554534160E-16, -0.000000000000000000 ) ) ;
#75 = ORIENTED_EDGE ( 'NONE', *, *, #35, .F. ) ;
#76 = LINE ( 'NONE', #173, #377 ) ;
#77 = FACE_OUTER_BOUND ( 'NONE', #148, .T. ) ;
#78 = CC_DESIGN_PERSON_AND_ORGANIZATION_ASSIGNMENT ( #134, #41, ( #30 ) ) ;
#79 = APPLICATION_PROTOCOL_DEFINITION ( 'international standard', 'config_control_design', 1994, #468 ) ;
#80 = DATE_AND_TIME ( #369, #335 ) ;
#81 = CARTESIAN_POINT ( 'NONE',  ( 7.499999999999998224, -35.00000000000000000, 0.1300000000000000044 ) ) ;
#82 = VECTOR ( 'NONE', #607, 1000.000000000000000 ) ;
#83 = ADVANCED_FACE ( 'NONE', ( #308 ), #355, .F. ) ;
#84 = CARTESIAN_POINT ( 'NONE',  ( -7.500000000000000000, 35.00000000000000000, 0.000000000000000000 ) ) ;
#85 = DIRECTION ( 'NONE',  ( -1.000000000000000000, 0.000000000000000000, 0.000000000000000000 ) ) ;
#86 = DIRECTION ( 'NONE',  ( 4.625929269271484928E-16, -1.000000000000000000, -0.000000000000000000 ) ) ;
#87 = PERSON_AND_ORGANIZATION_ROLE ( 'design_owner' ) ;
#88 = LINE ( 'NONE', #84, #513 ) ;
#89 = EDGE_CURVE ( 'NONE', #402, #338, #261, .T. ) ;
#90 = AXIS2_PLACEMENT_3D ( 'NONE', #285, #639, #177 ) ;
#91 = ORIENTED_EDGE ( 'NONE', *, *, #323, .F. ) ;
#92 = CYLINDRICAL_SURFACE ( 'NONE', #143, 0.7500000000000004441 ) ;
#93 = APPROVAL ( #228, 'UNSPECIFIED' ) ;
#94 = VERTEX_POINT ( 'NONE', #401 ) ;
#95 = LINE ( 'NONE', #294, #574 ) ;
#96 = PLANE ( 'NONE',  #389 ) ;
#97 = EDGE_CURVE ( 'NONE', #140, #390, #206, .T. ) ;
#98 = ORIENTED_EDGE ( 'NONE', *, *, #372, .F. ) ;
#99 = LINE ( 'NONE', #345, #492 ) ;
#100 = CIRCLE ( 'NONE', #165, 0.7500000000000004441 ) ;
#101 = AXIS2_PLACEMENT_3D ( 'NONE', #560, #564, #221 ) ;
#102 = ADVANCED_FACE ( 'NONE', ( #264 ), #105, .F. ) ;
#103 = ORIENTED_EDGE ( 'NONE', *, *, #27, .F. ) ;
#104 = CARTESIAN_POINT ( 'NONE',  ( 7.499999999999998224, 35.00000000000000000, 0.1300000000000000044 ) ) ;
#105 = CYLINDRICAL_SURFACE ( 'NONE', #503, 0.7500000000000004441 ) ;
#106 = ORIENTED_EDGE ( 'NONE', *, *, #322, .T. ) ;
#107 = DIRECTION ( 'NONE',  ( -1.000000000000000000, 0.000000000000000000, 0.000000000000000000 ) ) ;
#108 = DIRECTION ( 'NONE',  ( 1.000000000000000000, 0.000000000000000000, 0.000000000000000000 ) ) ;
#109 = EDGE_LOOP ( 'NONE', ( #519, #614, #10, #310 ) ) ;
#110 = CYLINDRICAL_SURFACE ( 'NONE', #130, 0.7500000000000004441 ) ;
#111 = DIRECTION ( 'NONE',  ( -0.000000000000000000, -0.000000000000000000, 1.000000000000000000 ) ) ;
#112 = AXIS2_PLACEMENT_3D ( 'NONE', #521, #141, #334 ) ;
#113 = EDGE_LOOP ( 'NONE', ( #336, #91 ) ) ;
#114 = FACE_OUTER_BOUND ( 'NONE', #120, .T. ) ;
#115 = EDGE_CURVE ( 'NONE', #394, #68, #499, .T. ) ;
#116 = FACE_OUTER_BOUND ( 'NONE', #220, .T. ) ;
#117 = EDGE_LOOP ( 'NONE', ( #486, #59, #172, #623 ) ) ;
#118 = CARTESIAN_POINT ( 'NONE',  ( 16.99999999999999289, 15.00000000000000533, 0.000000000000000000 ) ) ;
#119 = CARTESIAN_POINT ( 'NONE',  ( 6.938893903907228378E-15, -30.50000000000000355, -0.0009999999999999972019 ) ) ;
#120 = EDGE_LOOP ( 'NONE', ( #254, #406, #512, #642 ) ) ;
#121 = CARTESIAN_POINT ( 'NONE',  ( -16.99999999999999289, 15.00000000000000178, 0.000000000000000000 ) ) ;
#122 = CC_DESIGN_PERSON_AND_ORGANIZATION_ASSIGNMENT ( #469, #480, ( #635 ) ) ;
#123 = ORIENTED_EDGE ( 'NONE', *, *, #184, .F. ) ;
#124 = CARTESIAN_POINT ( 'NONE',  ( 0.000000000000000000, 30.50000000000000355, 0.1300000000000000044 ) ) ;
#125 = AXIS2_PLACEMENT_3D ( 'NONE', #340, #482, #545 ) ;
#126 = ADVANCED_FACE ( 'NONE', ( #12 ), #169, .F. ) ;
#127 = APPROVAL_DATE_TIME ( #80, #93 ) ;
#128 = DIRECTION ( 'NONE',  ( -0.000000000000000000, -0.000000000000000000, 1.000000000000000000 ) ) ;
#129 = EDGE_CURVE ( 'NONE', #390, #25, #100, .T. ) ;
#130 = AXIS2_PLACEMENT_3D ( 'NONE', #271, #502, #358 ) ;
#131 = CARTESIAN_POINT ( 'NONE',  ( -7.499999999999996447, 15.00000000000000000, 0.000000000000000000 ) ) ;
#132 = VECTOR ( 'NONE', #481, 1000.000000000000000 ) ;
#133 = AXIS2_PLACEMENT_3D ( 'NONE', #279, #135, #628 ) ;
#134 = PERSON_AND_ORGANIZATION ( #387, #343 ) ;
#135 = DIRECTION ( 'NONE',  ( 1.000000000000000000, 1.734723475976806848E-16, 0.000000000000000000 ) ) ;
#136 = CARTESIAN_POINT ( 'NONE',  ( 0.7500000000000004441, 30.50000000000000355, 0.1300000000000000044 ) ) ;
#137 = ADVANCED_FACE ( 'NONE', ( #618 ), #350, .F. ) ;
#138 = APPROVAL_ROLE ( '' ) ;
#139 = CARTESIAN_POINT ( 'NONE',  ( -38.00000000000000711, 34.99999999999999289, 0.1300000000000000044 ) ) ;
#140 = VERTEX_POINT ( 'NONE', #213 ) ;
#141 = DIRECTION ( 'NONE',  ( 0.000000000000000000, -0.000000000000000000, -1.000000000000000000 ) ) ;
#142 = LOCAL_TIME ( 11, 33, 2.000000000000000000, #630 ) ;
#143 = AXIS2_PLACEMENT_3D ( 'NONE', #391, #487, #252 ) ;
#144 = FACE_OUTER_BOUND ( 'NONE', #619, .T. ) ;
#145 = ORIENTED_EDGE ( 'NONE', *, *, #97, .F. ) ;
#146 = DIRECTION ( 'NONE',  ( -1.000000000000000000, -0.000000000000000000, -0.000000000000000000 ) ) ;
#147 = DIRECTION ( 'NONE',  ( 1.734723475976806848E-16, 1.000000000000000000, 0.000000000000000000 ) ) ;
#148 = EDGE_LOOP ( 'NONE', ( #145, #287, #304, #501 ) ) ;
#149 = CARTESIAN_POINT ( 'NONE',  ( -16.99999999999999289, -15.00000000000000178, 0.1300000000000000044 ) ) ;
#150 = ORIENTED_EDGE ( 'NONE', *, *, #297, .T. ) ;
#151 = ORIENTED_EDGE ( 'NONE', *, *, #632, .T. ) ;
#152 = DIRECTION ( 'NONE',  ( 1.000000000000000000, 0.000000000000000000, 0.000000000000000000 ) ) ;
#153 = DIRECTION ( 'NONE',  ( 1.000000000000000000, -1.826024711554534160E-16, 0.000000000000000000 ) ) ;
#154 = AXIS2_PLACEMENT_3D ( 'NONE', #347, #404, #445 ) ;
#155 = ORIENTED_EDGE ( 'NONE', *, *, #323, .T. ) ;
#156 = DIRECTION ( 'NONE',  ( -0.000000000000000000, -0.000000000000000000, 1.000000000000000000 ) ) ;
#157 = CARTESIAN_POINT ( 'NONE',  ( -38.00000000000000711, 34.99999999999999289, 0.1300000000000000044 ) ) ;
#158 = EDGE_CURVE ( 'NONE', #140, #629, #647, .T. ) ;
#159 = ORIENTED_EDGE ( 'NONE', *, *, #382, .T. ) ;
#160 = FACE_OUTER_BOUND ( 'NONE', #204, .T. ) ;
#161 = CARTESIAN_POINT ( 'NONE',  ( 7.500000000000000000, 15.00000000000000178, 0.000000000000000000 ) ) ;
#162 = ORIENTED_EDGE ( 'NONE', *, *, #326, .F. ) ;
#163 = VERTEX_POINT ( 'NONE', #161 ) ;
#164 = CARTESIAN_POINT ( 'NONE',  ( 0.000000000000000000, 30.50000000000000355, 0.1300000000000000044 ) ) ;
#165 = AXIS2_PLACEMENT_3D ( 'NONE', #164, #300, #61 ) ;
#166 = ORIENTED_EDGE ( 'NONE', *, *, #326, .T. ) ;
#167 = CARTESIAN_POINT ( 'NONE',  ( -7.500000000000000000, -35.00000000000000000, 0.000000000000000000 ) ) ;
#168 = EDGE_CURVE ( 'NONE', #563, #590, #558, .T. ) ;
#169 = PLANE ( 'NONE',  #207 ) ;
#170 = ORIENTED_EDGE ( 'NONE', *, *, #67, .T. ) ;
#171 = DIRECTION ( 'NONE',  ( 0.000000000000000000, -0.000000000000000000, 1.000000000000000000 ) ) ;
#172 = ORIENTED_EDGE ( 'NONE', *, *, #297, .F. ) ;
#173 = CARTESIAN_POINT ( 'NONE',  ( 7.500000000000000000, 15.00000000000000178, 0.000000000000000000 ) ) ;
#174 = CC_DESIGN_APPROVAL ( #281, ( #635 ) ) ;
#175 = CALENDAR_DATE ( 2026, 5, 6 ) ;
#176 = PERSON_AND_ORGANIZATION ( #387, #343 ) ;
#177 = DIRECTION ( 'NONE',  ( 0.000000000000000000, 0.000000000000000000, -1.000000000000000000 ) ) ;
#178 = DATE_AND_TIME ( #570, #587 ) ;
#179 = DIRECTION ( 'NONE',  ( 1.000000000000000000, 3.652049423109069799E-16, -0.000000000000000000 ) ) ;
#180 = CC_DESIGN_APPROVAL ( #93, ( #546 ) ) ;
#181 = CARTESIAN_POINT ( 'NONE',  ( 7.499999999999998224, -35.00000000000000000, 0.000000000000000000 ) ) ;
#182 = AXIS2_PLACEMENT_3D ( 'NONE', #484, #349, #544 ) ;
#183 = VECTOR ( 'NONE', #354, 1000.000000000000000 ) ;
#184 = EDGE_CURVE ( 'NONE', #556, #201, #504, .T. ) ;
#185 = ORIENTED_EDGE ( 'NONE', *, *, #396, .F. ) ;
#186 = DIRECTION ( 'NONE',  ( 1.000000000000000000, 0.000000000000000000, 0.000000000000000000 ) ) ;
#187 = FACE_OUTER_BOUND ( 'NONE', #109, .T. ) ;
#188 = CC_DESIGN_PERSON_AND_ORGANIZATION_ASSIGNMENT ( #627, #370, ( #30 ) ) ;
#189 = VERTEX_POINT ( 'NONE', #38 ) ;
#190 = LINE ( 'NONE', #337, #489 ) ;
#191 = EDGE_LOOP ( 'NONE', ( #6, #292, #357, #457 ) ) ;
#192 = EDGE_CURVE ( 'NONE', #439, #394, #267, .T. ) ;
#193 = ORIENTED_EDGE ( 'NONE', *, *, #368, .T. ) ;
#194 = LINE ( 'NONE', #536, #9 ) ;
#195 = AXIS2_PLACEMENT_3D ( 'NONE', #555, #211, #108 ) ;
#196 = CARTESIAN_POINT ( 'NONE',  ( -0.7499999999999935607, -30.50000000000000355, 0.1300000000000000044 ) ) ;
#197 = ORIENTED_EDGE ( 'NONE', *, *, #461, .T. ) ;
#198 = CARTESIAN_POINT ( 'NONE',  ( 0.7500000000000074385, -30.50000000000000355, 0.000000000000000000 ) ) ;
#199 = EDGE_CURVE ( 'NONE', #439, #640, #331, .T. ) ;
#200 = ORIENTED_EDGE ( 'NONE', *, *, #43, .F. ) ;
#201 = VERTEX_POINT ( 'NONE', #227 ) ;
#202 = FACE_OUTER_BOUND ( 'NONE', #576, .T. ) ;
#203 = CARTESIAN_POINT ( 'NONE',  ( -7.499999999999996447, -15.00000000000000000, 0.1300000000000000044 ) ) ;
#204 = EDGE_LOOP ( 'NONE', ( #166, #381, #320, #63 ) ) ;
#205 = DIRECTION ( 'NONE',  ( -1.826024711554534160E-16, 1.000000000000000000, 0.000000000000000000 ) ) ;
#206 = LINE ( 'NONE', #604, #82 ) ;
#207 = AXIS2_PLACEMENT_3D ( 'NONE', #612, #562, #411 ) ;
#208 = ADVANCED_FACE ( 'NONE', ( #582 ), #475, .F. ) ;
#209 = ORIENTED_EDGE ( 'NONE', *, *, #312, .F. ) ;
#210 = DIRECTION ( 'NONE',  ( -1.000000000000000000, -4.625929269271484928E-16, 0.000000000000000000 ) ) ;
#211 = DIRECTION ( 'NONE',  ( 0.000000000000000000, -0.000000000000000000, -1.000000000000000000 ) ) ;
#212 = VERTEX_POINT ( 'NONE', #131 ) ;
#213 = CARTESIAN_POINT ( 'NONE',  ( -0.7500000000000004441, 30.50000000000000355, 0.000000000000000000 ) ) ;
#214 = ORIENTED_EDGE ( 'NONE', *, *, #485, .F. ) ;
#215 = PLANE ( 'NONE',  #550 ) ;
#216 = ADVANCED_FACE ( 'NONE', ( #282 ), #231, .F. ) ;
#217 = DIRECTION ( 'NONE',  ( -0.000000000000000000, -0.000000000000000000, 1.000000000000000000 ) ) ;
#218 = VECTOR ( 'NONE', #156, 1000.000000000000000 ) ;
#219 = VECTOR ( 'NONE', #352, 1000.000000000000000 ) ;
#220 = EDGE_LOOP ( 'NONE', ( #516, #98, #262, #437 ) ) ;
#221 = DIRECTION ( 'NONE',  ( -1.000000000000000000, 0.000000000000000000, 0.000000000000000000 ) ) ;
#222 = ORIENTED_EDGE ( 'NONE', *, *, #199, .F. ) ;
#223 = CARTESIAN_POINT ( 'NONE',  ( -7.500000000000000000, 35.00000000000000000, 0.1300000000000000044 ) ) ;
#224 = CARTESIAN_POINT ( 'NONE',  ( -16.99999999999999289, 15.00000000000000178, 0.000000000000000000 ) ) ;
#225 = COORDINATED_UNIVERSAL_TIME_OFFSET ( 8, 0, .AHEAD. ) ;
#226 = VECTOR ( 'NONE', #540, 1000.000000000000000 ) ;
#227 = CARTESIAN_POINT ( 'NONE',  ( -16.99999999999999289, 15.00000000000000178, 0.1300000000000000044 ) ) ;
#228 = APPROVAL_STATUS ( 'not_yet_approved' ) ;
#229 = CARTESIAN_POINT ( 'NONE',  ( 7.499999999999998224, -35.00000000000000000, 0.000000000000000000 ) ) ;
#230 = COORDINATED_UNIVERSAL_TIME_OFFSET ( 8, 0, .AHEAD. ) ;
#231 = PLANE ( 'NONE',  #90 ) ;
#232 = VECTOR ( 'NONE', #64, 1000.000000000000000 ) ;
#233 = DATE_AND_TIME ( #175, #522 ) ;
#234 = CARTESIAN_POINT ( 'NONE',  ( -37.99999999999999289, -35.00000000000000000, 0.000000000000000000 ) ) ;
#235 = VECTOR ( 'NONE', #147, 1000.000000000000000 ) ;
#236 = CARTESIAN_POINT ( 'NONE',  ( 17.00000000000000711, -15.00000000000000178, 0.1300000000000000044 ) ) ;
#237 = PERSON_AND_ORGANIZATION_ROLE ( 'classification_officer' ) ;
#238 = ORIENTED_EDGE ( 'NONE', *, *, #312, .T. ) ;
#239 = LINE ( 'NONE', #378, #23 ) ;
#240 = EDGE_CURVE ( 'NONE', #212, #189, #88, .T. ) ;
#241 = ORIENTED_EDGE ( 'NONE', *, *, #365, .T. ) ;
#242 = LINE ( 'NONE', #3, #346 ) ;
#243 = ADVANCED_FACE ( 'NONE', ( #187 ), #423, .F. ) ;
#244 = ORIENTED_EDGE ( 'NONE', *, *, #192, .T. ) ;
#245 = LINE ( 'NONE', #444, #636 ) ;
#246 = VECTOR ( 'NONE', #36, 1000.000000000000000 ) ;
#247 = DIRECTION ( 'NONE',  ( 1.000000000000000000, 0.000000000000000000, 0.000000000000000000 ) ) ;
#248 = ORIENTED_EDGE ( 'NONE', *, *, #523, .F. ) ;
#249 = PLANE ( 'NONE',  #268 ) ;
#250 = DIRECTION ( 'NONE',  ( -1.826024711554534160E-16, -1.000000000000000000, 0.000000000000000000 ) ) ;
#251 = ORIENTED_EDGE ( 'NONE', *, *, #47, .T. ) ;
#252 = DIRECTION ( 'NONE',  ( 1.000000000000000000, 0.000000000000000000, 0.000000000000000000 ) ) ;
#253 = CARTESIAN_POINT ( 'NONE',  ( 16.99999999999999289, 15.00000000000000533, 0.1300000000000000044 ) ) ;
#254 = ORIENTED_EDGE ( 'NONE', *, *, #27, .T. ) ;
#255 = FACE_OUTER_BOUND ( 'NONE', #379, .T. ) ;
#256 = VECTOR ( 'NONE', #363, 1000.000000000000000 ) ;
#257 = CARTESIAN_POINT ( 'NONE',  ( 17.00000000000000711, -15.00000000000000178, 0.000000000000000000 ) ) ;
#258 = VECTOR ( 'NONE', #217, 1000.000000000000000 ) ;
#259 = ORIENTED_EDGE ( 'NONE', *, *, #392, .F. ) ;
#260 = CARTESIAN_POINT ( 'NONE',  ( 7.499999999999998224, -35.00000000000000000, 0.000000000000000000 ) ) ;
#261 = LINE ( 'NONE', #551, #441 ) ;
#262 = ORIENTED_EDGE ( 'NONE', *, *, #617, .F. ) ;
#263 = CARTESIAN_POINT ( 'NONE',  ( 7.499999999999998224, -35.00000000000000000, 0.000000000000000000 ) ) ;
#264 = FACE_OUTER_BOUND ( 'NONE', #506, .T. ) ;
#265 = ORIENTED_EDGE ( 'NONE', *, *, #485, .T. ) ;
#266 = LINE ( 'NONE', #224, #500 ) ;
#267 = LINE ( 'NONE', #463, #450 ) ;
#268 = AXIS2_PLACEMENT_3D ( 'NONE', #497, #205, #449 ) ;
#269 = VERTEX_POINT ( 'NONE', #426 ) ;
#270 = DIRECTION ( 'NONE',  ( 1.000000000000000000, 3.652049423109069799E-16, 0.000000000000000000 ) ) ;
#271 = CARTESIAN_POINT ( 'NONE',  ( 0.000000000000000000, 30.50000000000000355, -0.0009999999999999972019 ) ) ;
#272 = EDGE_CURVE ( 'NONE', #394, #605, #329, .T. ) ;
#273 = CALENDAR_DATE ( 2026, 5, 6 ) ;
#274 = APPROVAL_PERSON_ORGANIZATION ( #427, #417, #520 ) ;
#275 = PERSON_AND_ORGANIZATION ( #387, #343 ) ;
#276 = CLOSED_SHELL ( 'NONE', ( #436, #102, #137, #126, #405, #17, #83, #208, #575, #425, #537, #243, #58, #216, #409, #643, #432, #581 ) ) ;
#277 = CARTESIAN_POINT ( 'NONE',  ( 7.499999999999998224, 35.00000000000000000, 0.000000000000000000 ) ) ;
#278 = APPROVAL_DATE_TIME ( #37, #417 ) ;
#279 = CARTESIAN_POINT ( 'NONE',  ( -7.500000000000000000, 35.00000000000000000, 0.000000000000000000 ) ) ;
#280 = APPROVAL_STATUS ( 'not_yet_approved' ) ;
#281 = APPROVAL ( #638, 'UNSPECIFIED' ) ;
#282 = FACE_OUTER_BOUND ( 'NONE', #459, .T. ) ;
#283 = CARTESIAN_POINT ( 'NONE',  ( -0.7499999999999935607, -30.50000000000000355, 0.000000000000000000 ) ) ;
#284 = APPROVAL_PERSON_ORGANIZATION ( #176, #93, #430 ) ;
#285 = CARTESIAN_POINT ( 'NONE',  ( -16.99999999999999289, -15.00000000000000178, 0.000000000000000000 ) ) ;
#286 = AXIS2_PLACEMENT_3D ( 'NONE', #46, #649, #339 ) ;
#287 = ORIENTED_EDGE ( 'NONE', *, *, #158, .T. ) ;
#288 = DIRECTION ( 'NONE',  ( -0.000000000000000000, -0.000000000000000000, 1.000000000000000000 ) ) ;
#289 = EDGE_CURVE ( 'NONE', #455, #269, #435, .T. ) ;
#290 = ORIENTED_EDGE ( 'NONE', *, *, #600, .T. ) ;
#291 = FACE_OUTER_BOUND ( 'NONE', #56, .T. ) ;
#292 = ORIENTED_EDGE ( 'NONE', *, *, #518, .T. ) ;
#293 = ORIENTED_EDGE ( 'NONE', *, *, #572, .F. ) ;
#294 = CARTESIAN_POINT ( 'NONE',  ( -7.500000000000000000, -35.00000000000000000, 0.000000000000000000 ) ) ;
#295 = AXIS2_PLACEMENT_3D ( 'NONE', #458, #250, #153 ) ;
#296 = CIRCLE ( 'NONE', #101, 0.7500000000000004441 ) ;
#297 = EDGE_CURVE ( 'NONE', #515, #640, #42, .T. ) ;
#298 = ORIENTED_EDGE ( 'NONE', *, *, #330, .T. ) ;
#299 = LINE ( 'NONE', #408, #183 ) ;
#300 = DIRECTION ( 'NONE',  ( 0.000000000000000000, 0.000000000000000000, 1.000000000000000000 ) ) ;
#301 = EDGE_LOOP ( 'NONE', ( #162, #608 ) ) ;
#302 = FACE_OUTER_BOUND ( 'NONE', #602, .T. ) ;
#303 = LINE ( 'NONE', #511, #626 ) ;
#304 = ORIENTED_EDGE ( 'NONE', *, *, #498, .T. ) ;
#305 = CARTESIAN_POINT ( 'NONE',  ( 17.00000000000000711, -15.00000000000000178, 0.000000000000000000 ) ) ;
#306 = CC_DESIGN_APPROVAL ( #417, ( #30 ) ) ;
#307 = EDGE_CURVE ( 'NONE', #563, #515, #371, .T. ) ;
#308 = FACE_OUTER_BOUND ( 'NONE', #548, .T. ) ;
#309 = AXIS2_PLACEMENT_3D ( 'NONE', #157, #315, #359 ) ;
#310 = ORIENTED_EDGE ( 'NONE', *, *, #372, .T. ) ;
#311 = DIRECTION ( 'NONE',  ( -0.000000000000000000, -0.000000000000000000, 1.000000000000000000 ) ) ;
#312 = EDGE_CURVE ( 'NONE', #53, #48, #239, .T. ) ;
#313 = ORIENTED_EDGE ( 'NONE', *, *, #382, .F. ) ;
#314 = LINE ( 'NONE', #223, #577 ) ;
#315 = DIRECTION ( 'NONE',  ( 0.000000000000000000, -1.000000000000000000, 0.000000000000000000 ) ) ;
#316 = ORIENTED_EDGE ( 'NONE', *, *, #199, .T. ) ;
#317 = FACE_OUTER_BOUND ( 'NONE', #348, .T. ) ;
#318 = LOCAL_TIME ( 11, 33, 2.000000000000000000, #225 ) ;
#319 = VECTOR ( 'NONE', #85, 1000.000000000000000 ) ;
#320 = ORIENTED_EDGE ( 'NONE', *, *, #129, .T. ) ;
#321 = FACE_OUTER_BOUND ( 'NONE', #490, .T. ) ;
#322 = EDGE_CURVE ( 'NONE', #44, #1, #641, .T. ) ;
#323 = EDGE_CURVE ( 'NONE', #44, #434, #479, .T. ) ;
#324 = CARTESIAN_POINT ( 'NONE',  ( 0.000000000000000000, 0.000000000000000000, 0.000000000000000000 ) ) ;
#325 = CARTESIAN_POINT ( 'NONE',  ( 6.938893903907228378E-15, -30.50000000000000355, 0.000000000000000000 ) ) ;
#326 = EDGE_CURVE ( 'NONE', #629, #140, #39, .T. ) ;
#327 = MECHANICAL_CONTEXT ( 'NONE', #583, 'mechanical' ) ;
#328 = AXIS2_PLACEMENT_3D ( 'NONE', #325, #586, #380 ) ;
#329 = LINE ( 'NONE', #428, #132 ) ;
#330 = EDGE_CURVE ( 'NONE', #535, #48, #190, .T. ) ;
#331 = LINE ( 'NONE', #234, #246 ) ;
#332 = CARTESIAN_POINT ( 'NONE',  ( 17.00000000000000711, -15.00000000000000178, 0.000000000000000000 ) ) ;
#333 = DATE_TIME_ROLE ( 'creation_date' ) ;
#334 = DIRECTION ( 'NONE',  ( 1.000000000000000000, 0.000000000000000000, 0.000000000000000000 ) ) ;
#335 = LOCAL_TIME ( 11, 33, 2.000000000000000000, #476 ) ;
#336 = ORIENTED_EDGE ( 'NONE', *, *, #13, .F. ) ;
#337 = CARTESIAN_POINT ( 'NONE',  ( 16.99999999999999289, 15.00000000000000533, 0.1300000000000000044 ) ) ;
#338 = VERTEX_POINT ( 'NONE', #81 ) ;
#339 = DIRECTION ( 'NONE',  ( 1.000000000000000000, 0.000000000000000000, 0.000000000000000000 ) ) ;
#340 = CARTESIAN_POINT ( 'NONE',  ( 6.938893903907228378E-15, -30.50000000000000355, 0.000000000000000000 ) ) ;
#341 = ORIENTED_EDGE ( 'NONE', *, *, #89, .F. ) ;
#342 = PLANE ( 'NONE',  #420 ) ;
#343 = ORGANIZATION ( 'UNSPECIFIED', 'UNSPECIFIED', '' ) ;
#344 = ORIENTED_EDGE ( 'NONE', *, *, #115, .F. ) ;
#345 = CARTESIAN_POINT ( 'NONE',  ( 0.7500000000000004441, 30.50000000000000355, -0.0009999999999999972019 ) ) ;
#346 = VECTOR ( 'NONE', #146, 1000.000000000000000 ) ;
#347 = CARTESIAN_POINT ( 'NONE',  ( 7.499999999999998224, 35.00000000000000000, 0.000000000000000000 ) ) ;
#348 = EDGE_LOOP ( 'NONE', ( #398, #344, #509, #159 ) ) ;
#349 = DIRECTION ( 'NONE',  ( -0.000000000000000000, 0.000000000000000000, 1.000000000000000000 ) ) ;
#350 = PLANE ( 'NONE',  #309 ) ;
#351 = ORIENTED_EDGE ( 'NONE', *, *, #471, .F. ) ;
#352 = DIRECTION ( 'NONE',  ( -0.000000000000000000, -0.000000000000000000, 1.000000000000000000 ) ) ;
#353 = ORIENTED_EDGE ( 'NONE', *, *, #307, .T. ) ;
#354 = DIRECTION ( 'NONE',  ( -0.000000000000000000, -0.000000000000000000, 1.000000000000000000 ) ) ;
#355 = PLANE ( 'NONE',  #154 ) ;
#356 = CIRCLE ( 'NONE', #125, 0.7500000000000004441 ) ;
#357 = ORIENTED_EDGE ( 'NONE', *, *, #289, .F. ) ;
#358 = DIRECTION ( 'NONE',  ( 1.000000000000000000, 0.000000000000000000, 0.000000000000000000 ) ) ;
#359 = DIRECTION ( 'NONE',  ( 0.000000000000000000, -0.000000000000000000, -1.000000000000000000 ) ) ;
#360 = CC_DESIGN_PERSON_AND_ORGANIZATION_ASSIGNMENT ( #373, #237, ( #546 ) ) ;
#361 = DESIGN_CONTEXT ( 'detailed design', #468, 'design' ) ;
#362 = VERTEX_POINT ( 'NONE', #277 ) ;
#363 = DIRECTION ( 'NONE',  ( -0.000000000000000000, -0.000000000000000000, 1.000000000000000000 ) ) ;
#364 = PRODUCT ( 'cover glass', 'cover glass', '', ( #327 ) ) ;
#365 = EDGE_CURVE ( 'NONE', #68, #94, #473, .T. ) ;
#366 = EDGE_LOOP ( 'NONE', ( #293, #185 ) ) ;
#367 = CARTESIAN_POINT ( 'NONE',  ( -16.99999999999999289, -15.00000000000000178, 0.000000000000000000 ) ) ;
#368 = EDGE_CURVE ( 'NONE', #163, #53, #33, .T. ) ;
#369 = CALENDAR_DATE ( 2026, 5, 6 ) ;
#370 = PERSON_AND_ORGANIZATION_ROLE ( 'creator' ) ;
#371 = LINE ( 'NONE', #571, #319 ) ;
#372 = EDGE_CURVE ( 'NONE', #212, #18, #384, .T. ) ;
#373 = PERSON_AND_ORGANIZATION ( #387, #343 ) ;
#374 = CARTESIAN_POINT ( 'NONE',  ( -16.99999999999999289, -15.00000000000000178, 0.1300000000000000044 ) ) ;
#375 = CC_DESIGN_PERSON_AND_ORGANIZATION_ASSIGNMENT ( #517, #87, ( #364 ) ) ;
#376 = AXIS2_PLACEMENT_3D ( 'NONE', #167, #453, #460 ) ;
#377 = VECTOR ( 'NONE', #311, 1000.000000000000000 ) ;
#378 = CARTESIAN_POINT ( 'NONE',  ( 16.99999999999999289, 15.00000000000000533, 0.000000000000000000 ) ) ;
#379 = EDGE_LOOP ( 'NONE', ( #567, #155, #290, #2 ) ) ;
#380 = DIRECTION ( 'NONE',  ( 1.000000000000000000, 0.000000000000000000, 0.000000000000000000 ) ) ;
#381 = ORIENTED_EDGE ( 'NONE', *, *, #97, .T. ) ;
#382 = EDGE_CURVE ( 'NONE', #439, #585, #95, .T. ) ;
#383 = ORIENTED_EDGE ( 'NONE', *, *, #115, .T. ) ;
#384 = LINE ( 'NONE', #603, #218 ) ;
#385 = CARTESIAN_POINT ( 'NONE',  ( -7.500000000000000000, -35.00000000000000000, 0.1300000000000000044 ) ) ;
#386 = ORIENTED_EDGE ( 'NONE', *, *, #330, .F. ) ;
#387 = PERSON ( 'UNSPECIFIED', 'UNSPECIFIED', 'UNSPECIFIED', ('UNSPECIFIED'), ('UNSPECIFIED'), ('UNSPECIFIED') ) ;
#388 = LINE ( 'NONE', #591, #226 ) ;
#389 = AXIS2_PLACEMENT_3D ( 'NONE', #488, #51, #247 ) ;
#390 = VERTEX_POINT ( 'NONE', #606 ) ;
#391 = CARTESIAN_POINT ( 'NONE',  ( 0.000000000000000000, 30.50000000000000355, -0.0009999999999999972019 ) ) ;
#392 = EDGE_CURVE ( 'NONE', #362, #189, #242, .T. ) ;
#393 = FACE_BOUND ( 'NONE', #113, .T. ) ;
#394 = VERTEX_POINT ( 'NONE', #554 ) ;
#395 = CARTESIAN_POINT ( 'NONE',  ( 6.938893903907228378E-15, -30.50000000000000355, 0.1300000000000000044 ) ) ;
#396 = EDGE_CURVE ( 'NONE', #1, #593, #470, .T. ) ;
#397 = DIRECTION ( 'NONE',  ( 0.000000000000000000, 1.000000000000000000, 0.000000000000000000 ) ) ;
#398 = ORIENTED_EDGE ( 'NONE', *, *, #4, .T. ) ;
#399 = CARTESIAN_POINT ( 'NONE',  ( 7.500000000000000000, -15.00000000000000178, 0.1300000000000000044 ) ) ;
#400 = VECTOR ( 'NONE', #111, 1000.000000000000000 ) ;
#401 = CARTESIAN_POINT ( 'NONE',  ( -16.99999999999999289, -15.00000000000000178, 0.1300000000000000044 ) ) ;
#402 = VERTEX_POINT ( 'NONE', #399 ) ;
#403 = CYLINDRICAL_SURFACE ( 'NONE', #286, 0.7500000000000004441 ) ;
#404 = DIRECTION ( 'NONE',  ( -1.000000000000000000, -8.673617379884034239E-17, 0.000000000000000000 ) ) ;
#405 = ADVANCED_FACE ( 'NONE', ( #7, #49, #291 ), #54, .T. ) ;
#406 = ORIENTED_EDGE ( 'NONE', *, *, #421, .F. ) ;
#407 = ORIENTED_EDGE ( 'NONE', *, *, #600, .F. ) ;
#408 = CARTESIAN_POINT ( 'NONE',  ( -7.500000000000000000, 35.00000000000000000, 0.000000000000000000 ) ) ;
#409 = ADVANCED_FACE ( 'NONE', ( #302 ), #249, .F. ) ;
#410 = AXIS2_PLACEMENT_3D ( 'NONE', #229, #532, #525 ) ;
#411 = DIRECTION ( 'NONE',  ( 0.000000000000000000, -0.000000000000000000, 1.000000000000000000 ) ) ;
#412 = VECTOR ( 'NONE', #86, 1000.000000000000000 ) ;
#413 = ORIENTED_EDGE ( 'NONE', *, *, #43, .T. ) ;
#414 = LINE ( 'NONE', #622, #256 ) ;
#415 = ORIENTED_EDGE ( 'NONE', *, *, #368, .F. ) ;
#416 = DIRECTION ( 'NONE',  ( 1.000000000000000000, -1.826024711554534160E-16, 0.000000000000000000 ) ) ;
#417 = APPROVAL ( #280, 'UNSPECIFIED' ) ;
#418 = CC_DESIGN_DATE_AND_TIME_ASSIGNMENT ( #233, #633, ( #546 ) ) ;
#419 = LINE ( 'NONE', #624, #232 ) ;
#420 = AXIS2_PLACEMENT_3D ( 'NONE', #60, #210, #57 ) ;
#421 = EDGE_CURVE ( 'NONE', #515, #402, #245, .T. ) ;
#422 = CALENDAR_DATE ( 2026, 5, 6 ) ;
#423 = PLANE ( 'NONE',  #133 ) ;
#424 =( NAMED_UNIT ( * ) SI_UNIT ( $, .STERADIAN. ) SOLID_ANGLE_UNIT ( ) );
#425 = ADVANCED_FACE ( 'NONE', ( #202 ), #342, .F. ) ;
#426 = CARTESIAN_POINT ( 'NONE',  ( -7.500000000000000000, 35.00000000000000000, 0.1300000000000000044 ) ) ;
#427 = PERSON_AND_ORGANIZATION ( #387, #343 ) ;
#428 = CARTESIAN_POINT ( 'NONE',  ( -16.99999999999999289, -15.00000000000000178, 0.000000000000000000 ) ) ;
#429 =( GEOMETRIC_REPRESENTATION_CONTEXT ( 3 ) GLOBAL_UNCERTAINTY_ASSIGNED_CONTEXT ( ( #569 ) ) GLOBAL_UNIT_ASSIGNED_CONTEXT ( ( #609, #26, #424 ) ) REPRESENTATION_CONTEXT ( 'NONE', 'WORKASPACE' ) );
#430 = APPROVAL_ROLE ( '' ) ;
#431 = DIRECTION ( 'NONE',  ( 1.000000000000000000, 3.652049423109069799E-16, -0.000000000000000000 ) ) ;
#432 = ADVANCED_FACE ( 'NONE', ( #255 ), #403, .F. ) ;
#433 = DIRECTION ( 'NONE',  ( 0.000000000000000000, 0.000000000000000000, 1.000000000000000000 ) ) ;
#434 = VERTEX_POINT ( 'NONE', #198 ) ;
#435 = LINE ( 'NONE', #139, #62 ) ;
#436 = ADVANCED_FACE ( 'NONE', ( #160 ), #92, .F. ) ;
#437 = ORIENTED_EDGE ( 'NONE', *, *, #184, .T. ) ;
#438 = DIRECTION ( 'NONE',  ( 0.000000000000000000, 0.000000000000000000, 1.000000000000000000 ) ) ;
#439 = VERTEX_POINT ( 'NONE', #645 ) ;
#440 = DIRECTION ( 'NONE',  ( -0.000000000000000000, -0.000000000000000000, 1.000000000000000000 ) ) ;
#441 = VECTOR ( 'NONE', #70, 1000.000000000000000 ) ;
#442 = LINE ( 'NONE', #236, #561 ) ;
#443 = ORIENTED_EDGE ( 'NONE', *, *, #526, .T. ) ;
#444 = CARTESIAN_POINT ( 'NONE',  ( 7.500000000000000000, -15.00000000000000178, 0.000000000000000000 ) ) ;
#445 = DIRECTION ( 'NONE',  ( 8.673617379884034239E-17, -1.000000000000000000, 0.000000000000000000 ) ) ;
#446 = ORIENTED_EDGE ( 'NONE', *, *, #461, .F. ) ;
#447 = DIRECTION ( 'NONE',  ( 0.000000000000000000, 1.000000000000000000, 0.000000000000000000 ) ) ;
#448 = ORIENTED_EDGE ( 'NONE', *, *, #523, .T. ) ;
#449 = DIRECTION ( 'NONE',  ( -1.000000000000000000, -1.826024711554534160E-16, 0.000000000000000000 ) ) ;
#450 = VECTOR ( 'NONE', #31, 1000.000000000000000 ) ;
#451 = CARTESIAN_POINT ( 'NONE',  ( -7.499999999999996447, -15.00000000000000000, 0.000000000000000000 ) ) ;
#452 = ORIENTED_EDGE ( 'NONE', *, *, #47, .F. ) ;
#453 = DIRECTION ( 'NONE',  ( 1.000000000000000000, -1.734723475976806848E-16, 0.000000000000000000 ) ) ;
#454 = DIRECTION ( 'NONE',  ( -0.000000000000000000, -0.000000000000000000, 1.000000000000000000 ) ) ;
#455 = VERTEX_POINT ( 'NONE', #104 ) ;
#456 = CARTESIAN_POINT ( 'NONE',  ( 17.00000000000000711, -15.00000000000000178, 0.1300000000000000044 ) ) ;
#457 = ORIENTED_EDGE ( 'NONE', *, *, #67, .F. ) ;
#458 = CARTESIAN_POINT ( 'NONE',  ( -16.99999999999999289, 15.00000000000000178, 0.000000000000000000 ) ) ;
#459 = EDGE_LOOP ( 'NONE', ( #265, #123, #452, #197 ) ) ;
#460 = DIRECTION ( 'NONE',  ( 1.734723475976806848E-16, 1.000000000000000000, 0.000000000000000000 ) ) ;
#461 = EDGE_CURVE ( 'NONE', #605, #94, #194, .T. ) ;
#462 = AXIS2_PLACEMENT_3D ( 'NONE', #395, #438, #107 ) ;
#463 = CARTESIAN_POINT ( 'NONE',  ( -7.500000000000000000, -35.00000000000000000, 0.000000000000000000 ) ) ;
#464 = VECTOR ( 'NONE', #15, 1000.000000000000000 ) ;
#465 = ORIENTED_EDGE ( 'NONE', *, *, #129, .F. ) ;
#466 = CARTESIAN_POINT ( 'NONE',  ( 0.7500000000000004441, 30.50000000000000355, 0.000000000000000000 ) ) ;
#467 = DIRECTION ( 'NONE',  ( 0.000000000000000000, 0.000000000000000000, 1.000000000000000000 ) ) ;
#468 = APPLICATION_CONTEXT ( 'configuration controlled 3d designs of mechanical parts and assemblies' ) ;
#469 = PERSON_AND_ORGANIZATION ( #387, #343 ) ;
#470 = CIRCLE ( 'NONE', #462, 0.7500000000000004441 ) ;
#471 = EDGE_CURVE ( 'NONE', #201, #18, #388, .T. ) ;
#472 = SHAPE_DEFINITION_REPRESENTATION ( #65, #71 ) ;
#473 = LINE ( 'NONE', #374, #52 ) ;
#474 = APPLICATION_PROTOCOL_DEFINITION ( 'international standard', 'config_control_design', 1994, #583 ) ;
#475 = PLANE ( 'NONE',  #410 ) ;
#476 = COORDINATED_UNIVERSAL_TIME_OFFSET ( 8, 0, .AHEAD. ) ;
#477 = CARTESIAN_POINT ( 'NONE',  ( 16.99999999999999289, 15.00000000000000533, 0.000000000000000000 ) ) ;
#478 = EDGE_CURVE ( 'NONE', #585, #338, #594, .T. ) ;
#479 = CIRCLE ( 'NONE', #328, 0.7500000000000004441 ) ;
#480 = PERSON_AND_ORGANIZATION_ROLE ( 'creator' ) ;
#481 = DIRECTION ( 'NONE',  ( -1.000000000000000000, -1.826024711554534160E-16, -0.000000000000000000 ) ) ;
#482 = DIRECTION ( 'NONE',  ( 0.000000000000000000, -0.000000000000000000, -1.000000000000000000 ) ) ;
#483 = ORIENTED_EDGE ( 'NONE', *, *, #478, .F. ) ;
#484 = CARTESIAN_POINT ( 'NONE',  ( 0.000000000000000000, 0.000000000000000000, 0.1300000000000000044 ) ) ;
#485 = EDGE_CURVE ( 'NONE', #94, #201, #495, .T. ) ;
#486 = ORIENTED_EDGE ( 'NONE', *, *, #89, .T. ) ;
#487 = DIRECTION ( 'NONE',  ( -0.000000000000000000, -0.000000000000000000, 1.000000000000000000 ) ) ;
#488 = CARTESIAN_POINT ( 'NONE',  ( 0.000000000000000000, 0.000000000000000000, 0.000000000000000000 ) ) ;
#489 = VECTOR ( 'NONE', #179, 1000.000000000000000 ) ;
#490 = EDGE_LOOP ( 'NONE', ( #298, #209, #415, #448 ) ) ;
#491 = DIRECTION ( 'NONE',  ( -0.000000000000000000, -0.000000000000000000, 1.000000000000000000 ) ) ;
#492 = VECTOR ( 'NONE', #491, 1000.000000000000000 ) ;
#493 = DIRECTION ( 'NONE',  ( 8.673617379884034239E-17, -1.000000000000000000, 0.000000000000000000 ) ) ;
#494 = ORIENTED_EDGE ( 'NONE', *, *, #478, .T. ) ;
#495 = LINE ( 'NONE', #149, #637 ) ;
#496 = ORIENTED_EDGE ( 'NONE', *, *, #552, .T. ) ;
#497 = CARTESIAN_POINT ( 'NONE',  ( -16.99999999999999289, -15.00000000000000178, 0.000000000000000000 ) ) ;
#498 = EDGE_CURVE ( 'NONE', #629, #25, #99, .T. ) ;
#499 = LINE ( 'NONE', #451, #258 ) ;
#500 = VECTOR ( 'NONE', #416, 1000.000000000000000 ) ;
#501 = ORIENTED_EDGE ( 'NONE', *, *, #610, .T. ) ;
#502 = DIRECTION ( 'NONE',  ( -0.000000000000000000, -0.000000000000000000, 1.000000000000000000 ) ) ;
#503 = AXIS2_PLACEMENT_3D ( 'NONE', #119, #508, #20 ) ;
#504 = LINE ( 'NONE', #66, #524 ) ;
#505 = PRODUCT_RELATED_PRODUCT_CATEGORY ( 'detail', '', ( #364 ) ) ;
#506 = EDGE_LOOP ( 'NONE', ( #565, #106, #72, #407 ) ) ;
#507 = DIRECTION ( 'NONE',  ( 0.000000000000000000, 1.000000000000000000, 0.000000000000000000 ) ) ;
#508 = DIRECTION ( 'NONE',  ( -0.000000000000000000, -0.000000000000000000, 1.000000000000000000 ) ) ;
#509 = ORIENTED_EDGE ( 'NONE', *, *, #192, .F. ) ;
#510 = DIRECTION ( 'NONE',  ( -1.734723475976806848E-16, 1.000000000000000000, -0.000000000000000000 ) ) ;
#511 = CARTESIAN_POINT ( 'NONE',  ( 7.499999999999998224, 35.00000000000000000, 0.000000000000000000 ) ) ;
#512 = ORIENTED_EDGE ( 'NONE', *, *, #307, .F. ) ;
#513 = VECTOR ( 'NONE', #579, 1000.000000000000000 ) ;
#514 = PLANE ( 'NONE',  #24 ) ;
#515 = VERTEX_POINT ( 'NONE', #549 ) ;
#516 = ORIENTED_EDGE ( 'NONE', *, *, #471, .T. ) ;
#517 = PERSON_AND_ORGANIZATION ( #387, #343 ) ;
#518 = EDGE_CURVE ( 'NONE', #189, #269, #299, .T. ) ;
#519 = ORIENTED_EDGE ( 'NONE', *, *, #541, .T. ) ;
#520 = APPROVAL_ROLE ( '' ) ;
#521 = CARTESIAN_POINT ( 'NONE',  ( 0.000000000000000000, 30.50000000000000355, 0.000000000000000000 ) ) ;
#522 = LOCAL_TIME ( 11, 33, 2.000000000000000000, #578 ) ;
#523 = EDGE_CURVE ( 'NONE', #163, #535, #76, .T. ) ;
#524 = VECTOR ( 'NONE', #16, 1000.000000000000000 ) ;
#525 = DIRECTION ( 'NONE',  ( -8.673617379884034239E-17, -1.000000000000000000, 0.000000000000000000 ) ) ;
#526 = EDGE_CURVE ( 'NONE', #640, #338, #557, .T. ) ;
#527 = SECURITY_CLASSIFICATION_LEVEL ( 'unclassified' ) ;
#528 = DIRECTION ( 'NONE',  ( -8.673617379884034239E-17, -1.000000000000000000, -0.000000000000000000 ) ) ;
#529 = DIRECTION ( 'NONE',  ( -1.000000000000000000, 0.000000000000000000, 0.000000000000000000 ) ) ;
#530 = APPROVAL_DATE_TIME ( #29, #281 ) ;
#531 = CC_DESIGN_DATE_AND_TIME_ASSIGNMENT ( #178, #333, ( #635 ) ) ;
#532 = DIRECTION ( 'NONE',  ( -1.000000000000000000, 8.673617379884034239E-17, 0.000000000000000000 ) ) ;
#533 = CC_DESIGN_SECURITY_CLASSIFICATION ( #546, ( #30 ) ) ;
#534 = VECTOR ( 'NONE', #431, 1000.000000000000000 ) ;
#535 = VERTEX_POINT ( 'NONE', #620 ) ;
#536 = CARTESIAN_POINT ( 'NONE',  ( -16.99999999999999289, -15.00000000000000178, 0.000000000000000000 ) ) ;
#537 = ADVANCED_FACE ( 'NONE', ( #321 ), #514, .F. ) ;
#538 = LINE ( 'NONE', #595, #547 ) ;
#539 = ORIENTED_EDGE ( 'NONE', *, *, #289, .T. ) ;
#540 = DIRECTION ( 'NONE',  ( 1.000000000000000000, -1.826024711554534160E-16, 0.000000000000000000 ) ) ;
#541 = EDGE_CURVE ( 'NONE', #18, #269, #314, .T. ) ;
#542 = ORIENTED_EDGE ( 'NONE', *, *, #35, .T. ) ;
#543 = ORIENTED_EDGE ( 'NONE', *, *, #632, .F. ) ;
#544 = DIRECTION ( 'NONE',  ( 1.000000000000000000, 0.000000000000000000, 0.000000000000000000 ) ) ;
#545 = DIRECTION ( 'NONE',  ( 1.000000000000000000, 0.000000000000000000, 0.000000000000000000 ) ) ;
#546 = SECURITY_CLASSIFICATION ( '', '', #527 ) ;
#547 = VECTOR ( 'NONE', #493, 1000.000000000000000 ) ;
#548 = EDGE_LOOP ( 'NONE', ( #496, #248, #75, #170 ) ) ;
#549 = CARTESIAN_POINT ( 'NONE',  ( 7.500000000000000000, -15.00000000000000178, 0.000000000000000000 ) ) ;
#550 = AXIS2_PLACEMENT_3D ( 'NONE', #305, #507, #171 ) ;
#551 = CARTESIAN_POINT ( 'NONE',  ( 7.499999999999998224, -35.00000000000000000, 0.1300000000000000044 ) ) ;
#552 = EDGE_CURVE ( 'NONE', #455, #535, #22, .T. ) ;
#553 = ORIENTED_EDGE ( 'NONE', *, *, #168, .F. ) ;
#554 = CARTESIAN_POINT ( 'NONE',  ( -7.499999999999996447, -15.00000000000000000, 0.000000000000000000 ) ) ;
#555 = CARTESIAN_POINT ( 'NONE',  ( 0.000000000000000000, 30.50000000000000355, 0.000000000000000000 ) ) ;
#556 = VERTEX_POINT ( 'NONE', #121 ) ;
#557 = LINE ( 'NONE', #263, #219 ) ;
#558 = LINE ( 'NONE', #257, #400 ) ;
#559 = EDGE_LOOP ( 'NONE', ( #611, #465 ) ) ;
#560 = CARTESIAN_POINT ( 'NONE',  ( 6.938893903907228378E-15, -30.50000000000000355, 0.1300000000000000044 ) ) ;
#561 = VECTOR ( 'NONE', #529, 1000.000000000000000 ) ;
#562 = DIRECTION ( 'NONE',  ( 0.000000000000000000, 1.000000000000000000, 0.000000000000000000 ) ) ;
#563 = VERTEX_POINT ( 'NONE', #19 ) ;
#564 = DIRECTION ( 'NONE',  ( 0.000000000000000000, 0.000000000000000000, 1.000000000000000000 ) ) ;
#565 = ORIENTED_EDGE ( 'NONE', *, *, #13, .T. ) ;
#566 = PLANE ( 'NONE',  #376 ) ;
#567 = ORIENTED_EDGE ( 'NONE', *, *, #322, .F. ) ;
#568 = DIRECTION ( 'NONE',  ( 3.652049423109069799E-16, -1.000000000000000000, 0.000000000000000000 ) ) ;
#569 = UNCERTAINTY_MEASURE_WITH_UNIT (LENGTH_MEASURE( 1.000000000000000082E-05 ), #609, 'distance_accuracy_value', 'NONE');
#570 = CALENDAR_DATE ( 2026, 5, 6 ) ;
#571 = CARTESIAN_POINT ( 'NONE',  ( 17.00000000000000711, -15.00000000000000178, 0.000000000000000000 ) ) ;
#572 = EDGE_CURVE ( 'NONE', #593, #1, #296, .T. ) ;
#573 = CARTESIAN_POINT ( 'NONE',  ( -0.7499999999999935607, -30.50000000000000355, -0.0009999999999999972019 ) ) ;
#574 = VECTOR ( 'NONE', #288, 1000.000000000000000 ) ;
#575 = ADVANCED_FACE ( 'NONE', ( #114 ), #215, .F. ) ;
#576 = EDGE_LOOP ( 'NONE', ( #151, #553, #200, #238 ) ) ;
#577 = VECTOR ( 'NONE', #510, 1000.000000000000000 ) ;
#578 = COORDINATED_UNIVERSAL_TIME_OFFSET ( 8, 0, .AHEAD. ) ;
#579 = DIRECTION ( 'NONE',  ( -1.734723475976806848E-16, 1.000000000000000000, -0.000000000000000000 ) ) ;
#580 = CARTESIAN_POINT ( 'NONE',  ( -7.499999999999996447, 15.00000000000000000, 0.1300000000000000044 ) ) ;
#581 = ADVANCED_FACE ( 'NONE', ( #77 ), #110, .F. ) ;
#582 = FACE_OUTER_BOUND ( 'NONE', #117, .T. ) ;
#583 = APPLICATION_CONTEXT ( 'configuration controlled 3d designs of mechanical parts and assemblies' ) ;
#584 = LINE ( 'NONE', #385, #235 ) ;
#585 = VERTEX_POINT ( 'NONE', #69 ) ;
#586 = DIRECTION ( 'NONE',  ( 0.000000000000000000, -0.000000000000000000, -1.000000000000000000 ) ) ;
#587 = LOCAL_TIME ( 11, 33, 2.000000000000000000, #230 ) ;
#588 = FACE_BOUND ( 'NONE', #301, .T. ) ;
#589 = VECTOR ( 'NONE', #152, 1000.000000000000000 ) ;
#590 = VERTEX_POINT ( 'NONE', #456 ) ;
#591 = CARTESIAN_POINT ( 'NONE',  ( -16.99999999999999289, 15.00000000000000178, 0.1300000000000000044 ) ) ;
#592 = ORIENTED_EDGE ( 'NONE', *, *, #4, .F. ) ;
#593 = VERTEX_POINT ( 'NONE', #615 ) ;
#594 = LINE ( 'NONE', #597, #589 ) ;
#595 = CARTESIAN_POINT ( 'NONE',  ( 7.499999999999998224, 35.00000000000000000, 0.000000000000000000 ) ) ;
#596 = EDGE_LOOP ( 'NONE', ( #483, #313, #316, #443 ) ) ;
#597 = CARTESIAN_POINT ( 'NONE',  ( -37.99999999999999289, -35.00000000000000000, 0.1300000000000000044 ) ) ;
#598 = PLANE ( 'NONE',  #295 ) ;
#599 = CIRCLE ( 'NONE', #613, 0.7500000000000004441 ) ;
#600 = EDGE_CURVE ( 'NONE', #434, #593, #414, .T. ) ;
#601 = VECTOR ( 'NONE', #528, 1000.000000000000000 ) ;
#602 = EDGE_LOOP ( 'NONE', ( #241, #446, #45, #383 ) ) ;
#603 = CARTESIAN_POINT ( 'NONE',  ( -7.499999999999996447, 15.00000000000000000, 0.000000000000000000 ) ) ;
#604 = CARTESIAN_POINT ( 'NONE',  ( -0.7500000000000004441, 30.50000000000000355, -0.0009999999999999972019 ) ) ;
#605 = VERTEX_POINT ( 'NONE', #367 ) ;
#606 = CARTESIAN_POINT ( 'NONE',  ( -0.7500000000000004441, 30.50000000000000355, 0.1300000000000000044 ) ) ;
#607 = DIRECTION ( 'NONE',  ( -0.000000000000000000, -0.000000000000000000, 1.000000000000000000 ) ) ;
#608 = ORIENTED_EDGE ( 'NONE', *, *, #158, .F. ) ;
#609 =( LENGTH_UNIT ( ) NAMED_UNIT ( * ) SI_UNIT ( .MILLI., .METRE. ) );
#610 = EDGE_CURVE ( 'NONE', #25, #390, #599, .T. ) ;
#611 = ORIENTED_EDGE ( 'NONE', *, *, #610, .F. ) ;
#612 = CARTESIAN_POINT ( 'NONE',  ( -37.99999999999999289, -35.00000000000000000, 0.1300000000000000044 ) ) ;
#613 = AXIS2_PLACEMENT_3D ( 'NONE', #124, #467, #28 ) ;
#614 = ORIENTED_EDGE ( 'NONE', *, *, #518, .F. ) ;
#615 = CARTESIAN_POINT ( 'NONE',  ( 0.7500000000000074385, -30.50000000000000355, 0.1300000000000000044 ) ) ;
#616 = VECTOR ( 'NONE', #128, 1000.000000000000000 ) ;
#617 = EDGE_CURVE ( 'NONE', #556, #212, #266, .T. ) ;
#618 = FACE_OUTER_BOUND ( 'NONE', #191, .T. ) ;
#619 = EDGE_LOOP ( 'NONE', ( #621, #14, #259, #542, #193, #413, #353, #150, #222, #244, #646, #251 ) ) ;
#620 = CARTESIAN_POINT ( 'NONE',  ( 7.500000000000000000, 15.00000000000000178, 0.1300000000000000044 ) ) ;
#621 = ORIENTED_EDGE ( 'NONE', *, *, #617, .T. ) ;
#622 = CARTESIAN_POINT ( 'NONE',  ( 0.7500000000000074385, -30.50000000000000355, -0.0009999999999999972019 ) ) ;
#623 = ORIENTED_EDGE ( 'NONE', *, *, #421, .T. ) ;
#624 = CARTESIAN_POINT ( 'NONE',  ( 17.00000000000000711, -15.00000000000000178, 0.1300000000000000044 ) ) ;
#625 = APPROVAL_PERSON_ORGANIZATION ( #275, #281, #138 ) ;
#626 = VECTOR ( 'NONE', #454, 1000.000000000000000 ) ;
#627 = PERSON_AND_ORGANIZATION ( #387, #343 ) ;
#628 = DIRECTION ( 'NONE',  ( -1.734723475976806848E-16, 1.000000000000000000, 0.000000000000000000 ) ) ;
#629 = VERTEX_POINT ( 'NONE', #466 ) ;
#630 = COORDINATED_UNIVERSAL_TIME_OFFSET ( 8, 0, .AHEAD. ) ;
#631 = DIRECTION ( 'NONE',  ( -0.000000000000000000, -0.000000000000000000, 1.000000000000000000 ) ) ;
#632 = EDGE_CURVE ( 'NONE', #48, #590, #419, .T. ) ;
#633 = DATE_TIME_ROLE ( 'classification_date' ) ;
#634 = DIRECTION ( 'NONE',  ( -1.000000000000000000, -0.000000000000000000, -0.000000000000000000 ) ) ;
#635 = PRODUCT_DEFINITION ( 'UNKNOWN', '', #30, #361 ) ;
#636 = VECTOR ( 'NONE', #11, 1000.000000000000000 ) ;
#637 = VECTOR ( 'NONE', #447, 1000.000000000000000 ) ;
#638 = APPROVAL_STATUS ( 'not_yet_approved' ) ;
#639 = DIRECTION ( 'NONE',  ( 1.000000000000000000, -0.000000000000000000, 0.000000000000000000 ) ) ;
#640 = VERTEX_POINT ( 'NONE', #260 ) ;
#641 = LINE ( 'NONE', #573, #616 ) ;
#642 = ORIENTED_EDGE ( 'NONE', *, *, #168, .T. ) ;
#643 = ADVANCED_FACE ( 'NONE', ( #317 ), #566, .F. ) ;
#644 = ORIENTED_EDGE ( 'NONE', *, *, #541, .F. ) ;
#645 = CARTESIAN_POINT ( 'NONE',  ( -7.500000000000000000, -35.00000000000000000, 0.000000000000000000 ) ) ;
#646 = ORIENTED_EDGE ( 'NONE', *, *, #272, .T. ) ;
#647 = CIRCLE ( 'NONE', #195, 0.7500000000000004441 ) ;
#648 = ORIENTED_EDGE ( 'NONE', *, *, #365, .F. ) ;
#649 = DIRECTION ( 'NONE',  ( -0.000000000000000000, -0.000000000000000000, 1.000000000000000000 ) ) ;
ENDSEC;
END-ISO-10303-21;
