ISO-10303-21;
HEADER;
FILE_DESCRIPTION (( 'STEP AP203' ),
    '1' );
FILE_NAME ('eq733.step',
    '2026-06-05T03:32:58',
    ( '' ),
    ( '' ),
    'SwSTEP 2.0',
    'SolidWorks 2024',
    '' );
FILE_SCHEMA (( 'CONFIG_CONTROL_DESIGN' ));
ENDSEC;

DATA;
#1 = ORIENTED_EDGE ( 'NONE', *, *, #4, .T. ) ;
#2 = CARTESIAN_POINT ( 'NONE',  ( 0.000000000000000000, 0.000000000000000000, 0.4749999999999999223 ) ) ;
#3 = CC_DESIGN_DATE_AND_TIME_ASSIGNMENT ( #632, #432, ( #470 ) ) ;
#4 = EDGE_CURVE ( 'NONE', #507, #366, #393, .T. ) ;
#5 = ORIENTED_EDGE ( 'NONE', *, *, #444, .T. ) ;
#6 = DIRECTION ( 'NONE',  ( 1.000000000000000000, 0.000000000000000000, 0.000000000000000000 ) ) ;
#7 = DIRECTION ( 'NONE',  ( -0.08682659386424103343, 0.08682659386424095016, 0.9924325091389682996 ) ) ;
#8 = ORIENTED_EDGE ( 'NONE', *, *, #506, .T. ) ;
#9 = CARTESIAN_POINT ( 'NONE',  ( 0.000000000000000000, 0.000000000000000000, 0.4749999999999999223 ) ) ;
#10 = VECTOR ( 'NONE', #515, 1000.000000000000000 ) ;
#11 = AXIS2_PLACEMENT_3D ( 'NONE', #262, #549, #809 ) ;
#12 = ORIENTED_EDGE ( 'NONE', *, *, #578, .T. ) ;
#13 = PLANE ( 'NONE',  #73 ) ;
#14 = LINE ( 'NONE', #640, #72 ) ;
#15 = EDGE_CURVE ( 'NONE', #210, #581, #132, .T. ) ;
#16 = ORIENTED_EDGE ( 'NONE', *, *, #448, .F. ) ;
#17 = CARTESIAN_POINT ( 'NONE',  ( 0.7250000000000109690, 1.500000000000000000, -0.7250000000000031974 ) ) ;
#18 = LINE ( 'NONE', #365, #382 ) ;
#19 = EDGE_CURVE ( 'NONE', #823, #784, #798, .T. ) ;
#20 = EDGE_LOOP ( 'NONE', ( #256, #239, #614, #350 ) ) ;
#21 = APPROVAL_DATE_TIME ( #353, #531 ) ;
#22 = CARTESIAN_POINT ( 'NONE',  ( -2.050000000000000266, -1.500000000000000000, 0.5999999999999999778 ) ) ;
#23 = DIRECTION ( 'NONE',  ( 0.000000000000000000, -0.000000000000000000, 1.000000000000000000 ) ) ;
#24 = AXIS2_PLACEMENT_3D ( 'NONE', #666, #737, #868 ) ;
#25 = VECTOR ( 'NONE', #593, 1000.000000000000000 ) ;
#26 = EDGE_LOOP ( 'NONE', ( #341, #637, #610, #739 ) ) ;
#27 = CARTESIAN_POINT ( 'NONE',  ( -2.050000000000000266, 1.500000000000000000, 0.5999999999999999778 ) ) ;
#28 = DIRECTION ( 'NONE',  ( 1.000000000000000000, 8.673617379884033894E-15, 0.000000000000000000 ) ) ;
#29 = CC_DESIGN_PERSON_AND_ORGANIZATION_ASSIGNMENT ( #815, #698, ( #368 ) ) ;
#30 = ORIENTED_EDGE ( 'NONE', *, *, #761, .T. ) ;
#31 = ADVANCED_FACE ( 'NONE', ( #857 ), #609, .T. ) ;
#32 = DIRECTION ( 'NONE',  ( 1.000000000000000000, 0.000000000000000000, 0.000000000000000000 ) ) ;
#33 = LINE ( 'NONE', #235, #52 ) ;
#34 = VERTEX_POINT ( 'NONE', #67 ) ;
#35 = CARTESIAN_POINT ( 'NONE',  ( 1.070000000000000062, -16.60000000000000142, 0.4749999999999999223 ) ) ;
#36 = DIRECTION ( 'NONE',  ( 1.000000000000000000, -0.000000000000000000, -0.000000000000000000 ) ) ;
#37 = VECTOR ( 'NONE', #322, 1000.000000000000000 ) ;
#38 = ORIENTED_EDGE ( 'NONE', *, *, #691, .T. ) ;
#39 = CC_DESIGN_APPROVAL ( #531, ( #470 ) ) ;
#40 = PRODUCT_RELATED_PRODUCT_CATEGORY ( 'detail', '', ( #294 ) ) ;
#41 = PLANE ( 'NONE',  #100 ) ;
#42 = LINE ( 'NONE', #318, #812 ) ;
#43 = EDGE_CURVE ( 'NONE', #44, #174, #861, .T. ) ;
#44 = VERTEX_POINT ( 'NONE', #255 ) ;
#45 = CARTESIAN_POINT ( 'NONE',  ( 1.450000000000006395, -1.394203811574925567, 0.000000000000000000 ) ) ;
#46 = LINE ( 'NONE', #321, #509 ) ;
#47 = EDGE_CURVE ( 'NONE', #784, #697, #399, .T. ) ;
#48 = EDGE_LOOP ( 'NONE', ( #644, #445, #557, #121 ) ) ;
#49 = PLANE ( 'NONE',  #525 ) ;
#50 = DIRECTION ( 'NONE',  ( -0.000000000000000000, 0.000000000000000000, 1.000000000000000000 ) ) ;
#51 = LINE ( 'NONE', #654, #37 ) ;
#52 = VECTOR ( 'NONE', #241, 1000.000000000000000 ) ;
#53 = ORIENTED_EDGE ( 'NONE', *, *, #335, .T. ) ;
#54 = CARTESIAN_POINT ( 'NONE',  ( 1.070000000000000284, -1.399999999999999911, 0.7249999999999999778 ) ) ;
#55 = VECTOR ( 'NONE', #219, 1000.000000000000000 ) ;
#56 = DIRECTION ( 'NONE',  ( 0.000000000000000000, 0.000000000000000000, 1.000000000000000000 ) ) ;
#57 = ORIENTED_EDGE ( 'NONE', *, *, #710, .T. ) ;
#58 = EDGE_LOOP ( 'NONE', ( #799, #866, #601, #493 ) ) ;
#59 = APPROVAL_ROLE ( '' ) ;
#60 = ADVANCED_FACE ( 'NONE', ( #192 ), #530, .T. ) ;
#61 = DIRECTION ( 'NONE',  ( 1.497910896197078235E-16, -1.000000000000000000, 0.000000000000000000 ) ) ;
#62 = EDGE_LOOP ( 'NONE', ( #624, #1, #328, #101 ) ) ;
#63 = VERTEX_POINT ( 'NONE', #605 ) ;
#64 = DATE_AND_TIME ( #134, #510 ) ;
#65 = CARTESIAN_POINT ( 'NONE',  ( -2.049999999999999822, 1.500000000000000000, 0.5999999999999999778 ) ) ;
#66 = EDGE_CURVE ( 'NONE', #513, #483, #200, .T. ) ;
#67 = CARTESIAN_POINT ( 'NONE',  ( -0.2000000000000002054, -1.399999999999998801, 0.7249999999999999778 ) ) ;
#68 = ORIENTED_EDGE ( 'NONE', *, *, #154, .T. ) ;
#69 = VECTOR ( 'NONE', #107, 1000.000000000000000 ) ;
#70 = CC_DESIGN_PERSON_AND_ORGANIZATION_ASSIGNMENT ( #568, #499, ( #368 ) ) ;
#71 = CARTESIAN_POINT ( 'NONE',  ( -2.001881235060745112, -1.451881235060745956, 1.150000000000000355 ) ) ;
#72 = VECTOR ( 'NONE', #571, 1000.000000000000000 ) ;
#73 = AXIS2_PLACEMENT_3D ( 'NONE', #17, #833, #504 ) ;
#74 = EDGE_CURVE ( 'NONE', #790, #260, #197, .T. ) ;
#75 = ORIENTED_EDGE ( 'NONE', *, *, #43, .T. ) ;
#76 = APPROVAL_DATE_TIME ( #405, #770 ) ;
#77 = PLANE ( 'NONE',  #414 ) ;
#78 = EDGE_CURVE ( 'NONE', #34, #742, #466, .T. ) ;
#79 = MANIFOLD_SOLID_BREP ( '填料-伸長2[3]', #715 ) ;
#80 = ORIENTED_EDGE ( 'NONE', *, *, #517, .F. ) ;
#81 = CARTESIAN_POINT ( 'NONE',  ( 0.4848408699383472964, -1.224020216267949879, -0.9651591300616696456 ) ) ;
#82 = VERTEX_POINT ( 'NONE', #728 ) ;
#83 = CARTESIAN_POINT ( 'NONE',  ( 0.1999999999999998446, -1.399999999999999023, 0.4749999999999999223 ) ) ;
#84 = VECTOR ( 'NONE', #460, 1000.000000000000000 ) ;
#85 = FACE_OUTER_BOUND ( 'NONE', #309, .T. ) ;
#86 = AXIS2_PLACEMENT_3D ( 'NONE', #2, #800, #731 ) ;
#87 = VERTEX_POINT ( 'NONE', #789 ) ;
#88 = SECURITY_CLASSIFICATION_LEVEL ( 'unclassified' ) ;
#89 = CARTESIAN_POINT ( 'NONE',  ( 1.070000000000000284, -1.399999999999999911, 0.4749999999999999223 ) ) ;
#90 = EDGE_CURVE ( 'NONE', #738, #677, #51, .T. ) ;
#91 = CARTESIAN_POINT ( 'NONE',  ( -1.469999999999998197, -16.60000000000000142, 0.4749999999999999223 ) ) ;
#92 = EDGE_LOOP ( 'NONE', ( #75, #218, #729, #567 ) ) ;
#93 = CALENDAR_DATE ( 2026, 5, 6 ) ;
#94 = DIRECTION ( 'NONE',  ( 0.000000000000000000, 0.000000000000000000, 1.000000000000000000 ) ) ;
#95 = CARTESIAN_POINT ( 'NONE',  ( -0.7250000000000105249, 1.500000000000000000, -0.7250000000000030864 ) ) ;
#96 = ORIENTED_EDGE ( 'NONE', *, *, #722, .T. ) ;
#97 = DIRECTION ( 'NONE',  ( 0.000000000000000000, -0.1736481776669234200, -0.9848077530122093526 ) ) ;
#98 = DIRECTION ( 'NONE',  ( 1.000000000000000000, -0.000000000000000000, -0.000000000000000000 ) ) ;
#99 = AXIS2_PLACEMENT_3D ( 'NONE', #275, #681, #804 ) ;
#100 = AXIS2_PLACEMENT_3D ( 'NONE', #375, #655, #782 ) ;
#101 = ORIENTED_EDGE ( 'NONE', *, *, #716, .F. ) ;
#102 = CARTESIAN_POINT ( 'NONE',  ( 0.000000000000000000, 0.7900000000000000355, 0.5100000000000000089 ) ) ;
#103 = LINE ( 'NONE', #302, #622 ) ;
#104 = EDGE_CURVE ( 'NONE', #289, #112, #266, .T. ) ;
#105 = VERTEX_POINT ( 'NONE', #734 ) ;
#106 = DIRECTION ( 'NONE',  ( 0.000000000000000000, 0.000000000000000000, 1.000000000000000000 ) ) ;
#107 = DIRECTION ( 'NONE',  ( 0.000000000000000000, 0.000000000000000000, 1.000000000000000000 ) ) ;
#108 = EDGE_LOOP ( 'NONE', ( #431, #657, #595, #5 ) ) ;
#109 = CARTESIAN_POINT ( 'NONE',  ( -0.1999999999999979294, -16.60000000000000142, 0.7249999999999999778 ) ) ;
#110 = DIRECTION ( 'NONE',  ( 1.000000000000000000, 0.000000000000000000, 0.000000000000000000 ) ) ;
#111 = VECTOR ( 'NONE', #403, 1000.000000000000000 ) ;
#112 = VERTEX_POINT ( 'NONE', #476 ) ;
#113 = LOCAL_TIME ( 11, 32, 58.00000000000000000, #329 ) ;
#114 = CARTESIAN_POINT ( 'NONE',  ( 1.469999999999999973, -1.399999999999999911, 0.7249999999999999778 ) ) ;
#115 = CARTESIAN_POINT ( 'NONE',  ( 1.450000000000005507, 1.394203811574925345, -1.626303258728256651E-16 ) ) ;
#116 = ADVANCED_FACE ( 'NONE', ( #138 ), #305, .T. ) ;
#117 = APPLICATION_CONTEXT ( 'configuration controlled 3d designs of mechanical parts and assemblies' ) ;
#118 = ORIENTED_EDGE ( 'NONE', *, *, #126, .F. ) ;
#119 = CARTESIAN_POINT ( 'NONE',  ( -0.1500000000000000222, 0.7900000000000000355, 0.5100000000000000089 ) ) ;
#120 = CARTESIAN_POINT ( 'NONE',  ( 2.049999999999999822, -1.500000000000000000, 0.5999999999999999778 ) ) ;
#121 = ORIENTED_EDGE ( 'NONE', *, *, #374, .T. ) ;
#122 = ORIENTED_EDGE ( 'NONE', *, *, #550, .F. ) ;
#123 = DIRECTION ( 'NONE',  ( 0.7016738431598599224, 0.1237240302064793324, 0.7016738431598675829 ) ) ;
#124 = FACE_OUTER_BOUND ( 'NONE', #545, .T. ) ;
#125 = CARTESIAN_POINT ( 'NONE',  ( -0.7452826172369676483, 1.269943123219551051, -0.7047173827630457410 ) ) ;
#126 = EDGE_CURVE ( 'NONE', #742, #784, #356, .T. ) ;
#127 = VECTOR ( 'NONE', #276, 1000.000000000000000 ) ;
#128 = ORIENTED_EDGE ( 'NONE', *, *, #822, .F. ) ;
#129 = DATE_TIME_ROLE ( 'creation_date' ) ;
#130 = VECTOR ( 'NONE', #106, 1000.000000000000000 ) ;
#131 = DIRECTION ( 'NONE',  ( -0.08715574274765151841, 0.000000000000000000, -0.9961946980917461003 ) ) ;
#132 = LINE ( 'NONE', #125, #701 ) ;
#133 = EDGE_LOOP ( 'NONE', ( #760, #410, #562, #818 ) ) ;
#134 = CALENDAR_DATE ( 2026, 5, 6 ) ;
#135 = EDGE_CURVE ( 'NONE', #755, #207, #230, .T. ) ;
#136 = DIRECTION ( 'NONE',  ( 0.9961946980917461003, 0.000000000000000000, -0.08715574274765151841 ) ) ;
#137 = CLOSED_SHELL ( 'NONE', ( #472, #265, #865, #142, #297, #31 ) ) ;
#138 = FACE_OUTER_BOUND ( 'NONE', #647, .T. ) ;
#139 = EDGE_LOOP ( 'NONE', ( #709, #267, #122, #667 ) ) ;
#140 = FACE_OUTER_BOUND ( 'NONE', #58, .T. ) ;
#141 = FACE_OUTER_BOUND ( 'NONE', #776, .T. ) ;
#142 = ADVANCED_FACE ( 'NONE', ( #308 ), #692, .T. ) ;
#143 = ORIENTED_EDGE ( 'NONE', *, *, #90, .T. ) ;
#144 = VECTOR ( 'NONE', #206, 1000.000000000000000 ) ;
#145 = PLANE ( 'NONE',  #426 ) ;
#146 = CIRCLE ( 'NONE', #231, 0.1500000000000000222 ) ;
#147 = EDGE_CURVE ( 'NONE', #751, #112, #14, .T. ) ;
#148 = ORIENTED_EDGE ( 'NONE', *, *, #565, .T. ) ;
#149 = MECHANICAL_CONTEXT ( 'NONE', #117, 'mechanical' ) ;
#150 = CARTESIAN_POINT ( 'NONE',  ( -1.470000000000000195, -1.399999999999999911, 0.4749999999999999223 ) ) ;
#151 = EDGE_LOOP ( 'NONE', ( #163, #503, #347, #148 ) ) ;
#152 = DIRECTION ( 'NONE',  ( 0.000000000000000000, 0.000000000000000000, 1.000000000000000000 ) ) ;
#153 = CARTESIAN_POINT ( 'NONE',  ( 1.070000000000000284, -1.399999999999999911, 0.7249999999999999778 ) ) ;
#154 = EDGE_CURVE ( 'NONE', #581, #847, #825, .T. ) ;
#155 = ORIENTED_EDGE ( 'NONE', *, *, #172, .F. ) ;
#156 = DIRECTION ( 'NONE',  ( 0.000000000000000000, 0.000000000000000000, 1.000000000000000000 ) ) ;
#157 = PLANE ( 'NONE',  #675 ) ;
#158 = CC_DESIGN_SECURITY_CLASSIFICATION ( #470, ( #368 ) ) ;
#159 = ORIENTED_EDGE ( 'NONE', *, *, #104, .T. ) ;
#160 = EDGE_CURVE ( 'NONE', #683, #513, #225, .T. ) ;
#161 = PLANE ( 'NONE',  #187 ) ;
#162 = CARTESIAN_POINT ( 'NONE',  ( 1.070000000000000062, -16.60000000000000142, 0.4749999999999999223 ) ) ;
#163 = ORIENTED_EDGE ( 'NONE', *, *, #387, .T. ) ;
#164 = PERSON_AND_ORGANIZATION ( #177, #314 ) ;
#165 = APPROVAL ( #665, 'UNSPECIFIED' ) ;
#166 = CARTESIAN_POINT ( 'NONE',  ( -1.450000000000005951, -1.394203811574925567, 0.000000000000000000 ) ) ;
#167 = CARTESIAN_POINT ( 'NONE',  ( -1.470000000000000195, -1.399999999999999911, 0.4749999999999999223 ) ) ;
#168 = EDGE_LOOP ( 'NONE', ( #226, #193, #713, #473 ) ) ;
#169 = LINE ( 'NONE', #753, #676 ) ;
#170 = CARTESIAN_POINT ( 'NONE',  ( -2.050000000000000266, 1.451881235060745512, 1.150000000000000355 ) ) ;
#171 = AXIS2_PLACEMENT_3D ( 'NONE', #586, #649, #259 ) ;
#172 = EDGE_CURVE ( 'NONE', #683, #680, #771, .T. ) ;
#173 = VECTOR ( 'NONE', #743, 1000.000000000000000 ) ;
#174 = VERTEX_POINT ( 'NONE', #834 ) ;
#175 = DIRECTION ( 'NONE',  ( 1.000000000000000000, 8.673617379884033894E-15, 0.000000000000000000 ) ) ;
#176 = LINE ( 'NONE', #594, #482 ) ;
#177 = PERSON ( 'UNSPECIFIED', 'UNSPECIFIED', 'UNSPECIFIED', ('UNSPECIFIED'), ('UNSPECIFIED'), ('UNSPECIFIED') ) ;
#178 = ORIENTED_EDGE ( 'NONE', *, *, #147, .T. ) ;
#179 = EDGE_CURVE ( 'NONE', #112, #174, #103, .T. ) ;
#180 = CARTESIAN_POINT ( 'NONE',  ( -1.469999999999998197, -16.60000000000000142, 0.4749999999999999223 ) ) ;
#181 = LINE ( 'NONE', #661, #745 ) ;
#182 = ORIENTED_EDGE ( 'NONE', *, *, #381, .T. ) ;
#183 = ADVANCED_FACE ( 'NONE', ( #820 ), #369, .T. ) ;
#184 = DIRECTION ( 'NONE',  ( 0.000000000000000000, -0.9848077530122093526, -0.1736481776669233923 ) ) ;
#185 = DIRECTION ( 'NONE',  ( 1.000000000000000000, 0.000000000000000000, 0.000000000000000000 ) ) ;
#186 = AXIS2_PLACEMENT_3D ( 'NONE', #331, #871, #671 ) ;
#187 = AXIS2_PLACEMENT_3D ( 'NONE', #89, #367, #690 ) ;
#188 = ORIENTED_EDGE ( 'NONE', *, *, #722, .F. ) ;
#189 = VECTOR ( 'NONE', #123, 1000.000000000000114 ) ;
#190 = LINE ( 'NONE', #652, #274 ) ;
#191 = DIRECTION ( 'NONE',  ( 1.000000000000000000, 0.000000000000000000, 0.000000000000000000 ) ) ;
#192 = FACE_OUTER_BOUND ( 'NONE', #62, .T. ) ;
#193 = ORIENTED_EDGE ( 'NONE', *, *, #264, .F. ) ;
#194 = FACE_OUTER_BOUND ( 'NONE', #26, .T. ) ;
#195 = CARTESIAN_POINT ( 'NONE',  ( -1.469999999999998197, -16.60000000000000142, 0.4749999999999999223 ) ) ;
#196 = EDGE_CURVE ( 'NONE', #366, #105, #272, .T. ) ;
#197 = LINE ( 'NONE', #526, #111 ) ;
#198 = ORIENTED_EDGE ( 'NONE', *, *, #74, .T. ) ;
#199 = CARTESIAN_POINT ( 'NONE',  ( -2.049999999999999822, 1.500000000000000000, 0.5999999999999999778 ) ) ;
#200 = LINE ( 'NONE', #220, #732 ) ;
#201 = VECTOR ( 'NONE', #543, 1000.000000000000000 ) ;
#202 = ORIENTED_EDGE ( 'NONE', *, *, #135, .T. ) ;
#203 =( NAMED_UNIT ( * ) PLANE_ANGLE_UNIT ( ) SI_UNIT ( $, .RADIAN. ) );
#204 = AXIS2_PLACEMENT_3D ( 'NONE', #694, #234, #642 ) ;
#205 = CARTESIAN_POINT ( 'NONE',  ( 2.027383427793802539, -1.477383427793803161, 0.8585086032260363931 ) ) ;
#206 = DIRECTION ( 'NONE',  ( 0.000000000000000000, 0.000000000000000000, 1.000000000000000000 ) ) ;
#207 = VERTEX_POINT ( 'NONE', #162 ) ;
#208 = DIRECTION ( 'NONE',  ( -1.000000000000000000, -0.000000000000000000, -0.000000000000000000 ) ) ;
#209 = FACE_OUTER_BOUND ( 'NONE', #306, .T. ) ;
#210 = VERTEX_POINT ( 'NONE', #511 ) ;
#211 = APPROVAL_STATUS ( 'not_yet_approved' ) ;
#212 = DIRECTION ( 'NONE',  ( 0.000000000000000000, 0.000000000000000000, 1.000000000000000000 ) ) ;
#213 = VERTEX_POINT ( 'NONE', #435 ) ;
#214 = LINE ( 'NONE', #867, #383 ) ;
#215 = VECTOR ( 'NONE', #98, 1000.000000000000000 ) ;
#216 = LINE ( 'NONE', #205, #217 ) ;
#217 = VECTOR ( 'NONE', #7, 1000.000000000000000 ) ;
#218 = ORIENTED_EDGE ( 'NONE', *, *, #179, .F. ) ;
#219 = DIRECTION ( 'NONE',  ( 1.000000000000000000, -0.000000000000000000, -0.000000000000000000 ) ) ;
#220 = CARTESIAN_POINT ( 'NONE',  ( -2.050000000000000266, -1.451881235060745512, 1.150000000000000355 ) ) ;
#221 = EDGE_CURVE ( 'NONE', #394, #754, #643, .T. ) ;
#222 = ORIENTED_EDGE ( 'NONE', *, *, #544, .T. ) ;
#223 = SHAPE_DEFINITION_REPRESENTATION ( #497, #411 ) ;
#224 = FACE_OUTER_BOUND ( 'NONE', #357, .T. ) ;
#225 = LINE ( 'NONE', #575, #636 ) ;
#226 = ORIENTED_EDGE ( 'NONE', *, *, #626, .F. ) ;
#227 = CC_DESIGN_PERSON_AND_ORGANIZATION_ASSIGNMENT ( #616, #546, ( #294 ) ) ;
#228 = DIRECTION ( 'NONE',  ( 1.000000000000000000, 0.000000000000000000, 0.000000000000000000 ) ) ;
#229 = CLOSED_SHELL ( 'NONE', ( #603, #669, #183, #780, #461, #635, #740, #650, #735, #658 ) ) ;
#230 = LINE ( 'NONE', #496, #313 ) ;
#231 = AXIS2_PLACEMENT_3D ( 'NONE', #102, #94, #228 ) ;
#232 = ORIENTED_EDGE ( 'NONE', *, *, #534, .F. ) ;
#233 = ADVANCED_FACE ( 'NONE', ( #831 ), #837, .T. ) ;
#234 = DIRECTION ( 'NONE',  ( 0.9961946980917461003, -0.000000000000000000, 0.08715574274765151841 ) ) ;
#235 = CARTESIAN_POINT ( 'NONE',  ( -0.2000000000000002054, -1.399999999999998801, 0.4749999999999999223 ) ) ;
#236 = ORIENTED_EDGE ( 'NONE', *, *, #323, .F. ) ;
#237 = PLANE ( 'NONE',  #204 ) ;
#238 = DIRECTION ( 'NONE',  ( -0.7071067811865439090, 0.000000000000000000, 0.7071067811865512365 ) ) ;
#239 = ORIENTED_EDGE ( 'NONE', *, *, #417, .F. ) ;
#240 = CARTESIAN_POINT ( 'NONE',  ( 0.000000000000000000, 0.000000000000000000, 1.149999999999999911 ) ) ;
#241 = DIRECTION ( 'NONE',  ( 0.000000000000000000, 0.000000000000000000, 1.000000000000000000 ) ) ;
#242 = AXIS2_PLACEMENT_3D ( 'NONE', #627, #291, #757 ) ;
#243 = VECTOR ( 'NONE', #836, 1000.000000000000000 ) ;
#244 = ORIENTED_EDGE ( 'NONE', *, *, #387, .F. ) ;
#245 = CARTESIAN_POINT ( 'NONE',  ( -1.069999999999998508, -16.60000000000000142, 0.7249999999999999778 ) ) ;
#246 = LINE ( 'NONE', #386, #10 ) ;
#247 = EDGE_LOOP ( 'NONE', ( #418, #449, #672, #572 ) ) ;
#248 = DIRECTION ( 'NONE',  ( 0.000000000000000000, -0.08715574274765144902, 0.9961946980917461003 ) ) ;
#249 = CARTESIAN_POINT ( 'NONE',  ( -2.050000000000000266, -1.500000000000000000, 0.5999999999999999778 ) ) ;
#250 = ORIENTED_EDGE ( 'NONE', *, *, #15, .F. ) ;
#251 = FACE_OUTER_BOUND ( 'NONE', #576, .T. ) ;
#252 = CARTESIAN_POINT ( 'NONE',  ( 1.469999999999999973, -16.60000000000000142, 0.4749999999999999223 ) ) ;
#253 = AXIS2_PLACEMENT_3D ( 'NONE', #792, #597, #523 ) ;
#254 = APPROVAL_PERSON_ORGANIZATION ( #660, #770, #678 ) ;
#255 = CARTESIAN_POINT ( 'NONE',  ( -1.470000000000000195, -1.399999999999999911, 0.4749999999999999223 ) ) ;
#256 = ORIENTED_EDGE ( 'NONE', *, *, #349, .F. ) ;
#257 = CARTESIAN_POINT ( 'NONE',  ( 1.469999999999999973, -1.399999999999999911, 0.4749999999999999223 ) ) ;
#258 = EDGE_CURVE ( 'NONE', #63, #34, #33, .T. ) ;
#259 = DIRECTION ( 'NONE',  ( 1.000000000000000000, 0.000000000000000000, 0.000000000000000000 ) ) ;
#260 = VERTEX_POINT ( 'NONE', #153 ) ;
#261 = ORIENTED_EDGE ( 'NONE', *, *, #591, .T. ) ;
#262 = CARTESIAN_POINT ( 'NONE',  ( 0.000000000000000000, 0.000000000000000000, 0.7249999999999999778 ) ) ;
#263 = PLANE ( 'NONE',  #253 ) ;
#264 = EDGE_CURVE ( 'NONE', #210, #592, #423, .T. ) ;
#265 = ADVANCED_FACE ( 'NONE', ( #85 ), #157, .T. ) ;
#266 = LINE ( 'NONE', #535, #144 ) ;
#267 = ORIENTED_EDGE ( 'NONE', *, *, #811, .F. ) ;
#268 = PLANE ( 'NONE',  #11 ) ;
#269 = CARTESIAN_POINT ( 'NONE',  ( 1.469999999999999973, -16.60000000000000142, 0.7249999999999999778 ) ) ;
#270 = EDGE_CURVE ( 'NONE', #87, #751, #18, .T. ) ;
#271 = DIRECTION ( 'NONE',  ( -1.000000000000000000, 0.000000000000000000, 0.000000000000000000 ) ) ;
#272 = CIRCLE ( 'NONE', #839, 0.1500000000000000222 ) ;
#273 = ORIENTED_EDGE ( 'NONE', *, *, #312, .T. ) ;
#274 = VECTOR ( 'NONE', #395, 1000.000000000000000 ) ;
#275 = CARTESIAN_POINT ( 'NONE',  ( -0.2000000000000002054, -1.399999999999998801, 0.4749999999999999223 ) ) ;
#276 = DIRECTION ( 'NONE',  ( 0.000000000000000000, 0.000000000000000000, 1.000000000000000000 ) ) ;
#277 = ADVANCED_FACE ( 'NONE', ( #860 ), #263, .T. ) ;
#278 = ORIENTED_EDGE ( 'NONE', *, *, #19, .F. ) ;
#279 = CARTESIAN_POINT ( 'NONE',  ( 2.049999999999999378, 1.500000000000000000, 0.5999999999999999778 ) ) ;
#280 = DIRECTION ( 'NONE',  ( 0.08682659386424103343, -0.08682659386424095016, 0.9924325091389682996 ) ) ;
#281 = EDGE_LOOP ( 'NONE', ( #844, #352, #68, #781 ) ) ;
#282 = APPLICATION_PROTOCOL_DEFINITION ( 'international standard', 'config_control_design', 1994, #316 ) ;
#283 = DIRECTION ( 'NONE',  ( -0.000000000000000000, -0.000000000000000000, -1.000000000000000000 ) ) ;
#284 = ORIENTED_EDGE ( 'NONE', *, *, #19, .T. ) ;
#285 = AXIS2_PLACEMENT_3D ( 'NONE', #65, #136, #131 ) ;
#286 = LINE ( 'NONE', #422, #55 ) ;
#287 = CC_DESIGN_APPROVAL ( #770, ( #584 ) ) ;
#288 = EDGE_CURVE ( 'NONE', #210, #394, #778, .T. ) ;
#289 = VERTEX_POINT ( 'NONE', #391 ) ;
#290 = PLANE ( 'NONE',  #827 ) ;
#291 = DIRECTION ( 'NONE',  ( 1.000000000000000000, 0.000000000000000000, -0.000000000000000000 ) ) ;
#292 = EDGE_LOOP ( 'NONE', ( #641, #651, #188, #808 ) ) ;
#293 = FACE_OUTER_BOUND ( 'NONE', #247, .T. ) ;
#294 = PRODUCT ( 'eq733', 'eq733', '', ( #149 ) ) ;
#295 = DIRECTION ( 'NONE',  ( 0.000000000000000000, 0.000000000000000000, 1.000000000000000000 ) ) ;
#296 = CC_DESIGN_PERSON_AND_ORGANIZATION_ASSIGNMENT ( #602, #859, ( #584 ) ) ;
#297 = ADVANCED_FACE ( 'NONE', ( #124 ), #712, .F. ) ;
#298 = EDGE_LOOP ( 'NONE', ( #615, #198, #486, #400 ) ) ;
#299 = DIRECTION ( 'NONE',  ( 0.000000000000000000, 0.9961946980917461003, -0.08715574274765144902 ) ) ;
#300 = VECTOR ( 'NONE', #372, 1000.000000000000000 ) ;
#301 = AXIS2_PLACEMENT_3D ( 'NONE', #495, #491, #699 ) ;
#302 = CARTESIAN_POINT ( 'NONE',  ( -1.470000000000000195, -1.399999999999999911, 0.7249999999999999778 ) ) ;
#303 = ORIENTED_EDGE ( 'NONE', *, *, #270, .F. ) ;
#304 = CARTESIAN_POINT ( 'NONE',  ( 0.000000000000000000, 0.7900000000000000355, 0.4099999999999999756 ) ) ;
#305 = PLANE ( 'NONE',  #242 ) ;
#306 = EDGE_LOOP ( 'NONE', ( #527, #30, #702, #232 ) ) ;
#307 = DIRECTION ( 'NONE',  ( -0.000000000000000000, -0.000000000000000000, -1.000000000000000000 ) ) ;
#308 = FACE_OUTER_BOUND ( 'NONE', #92, .T. ) ;
#309 = EDGE_LOOP ( 'NONE', ( #814, #303, #244, #143 ) ) ;
#310 = FACE_OUTER_BOUND ( 'NONE', #498, .T. ) ;
#311 = LINE ( 'NONE', #656, #84 ) ;
#312 = EDGE_CURVE ( 'NONE', #174, #87, #311, .T. ) ;
#313 = VECTOR ( 'NONE', #564, 1000.000000000000000 ) ;
#314 = ORGANIZATION ( 'UNSPECIFIED', 'UNSPECIFIED', '' ) ;
#315 = ORIENTED_EDGE ( 'NONE', *, *, #544, .F. ) ;
#316 = APPLICATION_CONTEXT ( 'configuration controlled 3d designs of mechanical parts and assemblies' ) ;
#317 = LINE ( 'NONE', #589, #687 ) ;
#318 = CARTESIAN_POINT ( 'NONE',  ( -0.2000000000000002054, -1.399999999999998801, 0.7249999999999999778 ) ) ;
#319 = ORIENTED_EDGE ( 'NONE', *, *, #78, .F. ) ;
#320 = LINE ( 'NONE', #854, #25 ) ;
#321 = CARTESIAN_POINT ( 'NONE',  ( 2.049999999999999822, 1.500000000000000000, 0.5999999999999999778 ) ) ;
#322 = DIRECTION ( 'NONE',  ( 1.000000000000000000, 0.000000000000000000, 0.000000000000000000 ) ) ;
#323 = EDGE_CURVE ( 'NONE', #581, #362, #788, .T. ) ;
#324 = CARTESIAN_POINT ( 'NONE',  ( 0.1999999999999998446, -1.399999999999999023, 0.7249999999999999778 ) ) ;
#325 = FACE_OUTER_BOUND ( 'NONE', #805, .T. ) ;
#326 = AXIS2_PLACEMENT_3D ( 'NONE', #653, #50, #191 ) ;
#327 = VECTOR ( 'NONE', #378, 1000.000000000000000 ) ;
#328 = ORIENTED_EDGE ( 'NONE', *, *, #196, .T. ) ;
#329 = COORDINATED_UNIVERSAL_TIME_OFFSET ( 8, 0, .AHEAD. ) ;
#330 = CARTESIAN_POINT ( 'NONE',  ( 1.469999999999999973, -1.399999999999999911, 0.4749999999999999223 ) ) ;
#331 = CARTESIAN_POINT ( 'NONE',  ( 0.000000000000000000, 0.000000000000000000, 0.7249999999999999778 ) ) ;
#332 = EDGE_LOOP ( 'NONE', ( #178, #772, #273, #747 ) ) ;
#333 = COORDINATED_UNIVERSAL_TIME_OFFSET ( 8, 0, .AHEAD. ) ;
#334 = PLANE ( 'NONE',  #86 ) ;
#335 = EDGE_CURVE ( 'NONE', #677, #289, #181, .T. ) ;
#336 = DIRECTION ( 'NONE',  ( 0.000000000000000000, 0.000000000000000000, 1.000000000000000000 ) ) ;
#337 = ORIENTED_EDGE ( 'NONE', *, *, #434, .F. ) ;
#338 = APPROVAL_DATE_TIME ( #64, #165 ) ;
#339 = PLANE ( 'NONE',  #24 ) ;
#340 = EDGE_CURVE ( 'NONE', #697, #34, #42, .T. ) ;
#341 = ORIENTED_EDGE ( 'NONE', *, *, #534, .T. ) ;
#342 = VECTOR ( 'NONE', #471, 1000.000000000000000 ) ;
#343 = VERTEX_POINT ( 'NONE', #120 ) ;
#344 = FACE_OUTER_BOUND ( 'NONE', #151, .T. ) ;
#345 = AXIS2_PLACEMENT_3D ( 'NONE', #769, #500, #97 ) ;
#346 = FACE_OUTER_BOUND ( 'NONE', #139, .T. ) ;
#347 = ORIENTED_EDGE ( 'NONE', *, *, #43, .F. ) ;
#348 = DIRECTION ( 'NONE',  ( 0.000000000000000000, 1.000000000000000000, 0.000000000000000000 ) ) ;
#349 = EDGE_CURVE ( 'NONE', #463, #370, #246, .T. ) ;
#350 = ORIENTED_EDGE ( 'NONE', *, *, #828, .F. ) ;
#351 = PLANE ( 'NONE',  #285 ) ;
#352 = ORIENTED_EDGE ( 'NONE', *, *, #15, .T. ) ;
#353 = DATE_AND_TIME ( #93, #429 ) ;
#354 = VECTOR ( 'NONE', #212, 1000.000000000000000 ) ;
#355 = LINE ( 'NONE', #437, #759 ) ;
#356 = LINE ( 'NONE', #766, #612 ) ;
#357 = EDGE_LOOP ( 'NONE', ( #261, #420, #16, #202 ) ) ;
#358 = CALENDAR_DATE ( 2026, 5, 6 ) ;
#359 = CARTESIAN_POINT ( 'NONE',  ( -0.4848408699383468523, -1.224020216267949879, -0.9651591300616694236 ) ) ;
#360 = DIRECTION ( 'NONE',  ( 0.000000000000000000, -1.000000000000000000, 0.000000000000000000 ) ) ;
#361 = ADVANCED_FACE ( 'NONE', ( #325 ), #604, .T. ) ;
#362 = VERTEX_POINT ( 'NONE', #249 ) ;
#363 = APPROVAL_ROLE ( '' ) ;
#364 = FACE_OUTER_BOUND ( 'NONE', #724, .T. ) ;
#365 = CARTESIAN_POINT ( 'NONE',  ( -1.469999999999998197, -16.60000000000000142, 0.7249999999999999778 ) ) ;
#366 = VERTEX_POINT ( 'NONE', #590 ) ;
#367 = DIRECTION ( 'NONE',  ( -1.000000000000000000, 1.426581805901979697E-17, 0.000000000000000000 ) ) ;
#368 = PRODUCT_DEFINITION_FORMATION_WITH_SPECIFIED_SOURCE ( 'ANY', '', #294, .NOT_KNOWN. ) ;
#369 = PLANE ( 'NONE',  #598 ) ;
#370 = VERTEX_POINT ( 'NONE', #330 ) ;
#371 = FACE_OUTER_BOUND ( 'NONE', #168, .T. ) ;
#372 = DIRECTION ( 'NONE',  ( 1.000000000000000000, -0.000000000000000000, -0.000000000000000000 ) ) ;
#373 = VERTEX_POINT ( 'NONE', #856 ) ;
#374 = EDGE_CURVE ( 'NONE', #105, #366, #583, .T. ) ;
#375 = CARTESIAN_POINT ( 'NONE',  ( 0.1999999999999998446, -1.399999999999999023, 0.4749999999999999223 ) ) ;
#376 = LINE ( 'NONE', #195, #455 ) ;
#377 = ORIENTED_EDGE ( 'NONE', *, *, #160, .T. ) ;
#378 = DIRECTION ( 'NONE',  ( -1.000000000000000000, -0.000000000000000000, -0.000000000000000000 ) ) ;
#379 = MANIFOLD_SOLID_BREP ( '除料-伸長2', #229 ) ;
#380 = LINE ( 'NONE', #783, #662 ) ;
#381 = EDGE_CURVE ( 'NONE', #680, #483, #519, .T. ) ;
#382 = VECTOR ( 'NONE', #843, 1000.000000000000000 ) ;
#383 = VECTOR ( 'NONE', #484, 1000.000000000000000 ) ;
#384 = ORIENTED_EDGE ( 'NONE', *, *, #761, .F. ) ;
#385 = LINE ( 'NONE', #257, #130 ) ;
#386 = CARTESIAN_POINT ( 'NONE',  ( 1.469999999999999973, -1.399999999999999911, 0.4749999999999999223 ) ) ;
#387 = EDGE_CURVE ( 'NONE', #738, #87, #376, .T. ) ;
#388 = MANIFOLD_SOLID_BREP ( '填料-伸長2[2]', #489 ) ;
#389 = CARTESIAN_POINT ( 'NONE',  ( -0.2000000000000002054, -1.399999999999998801, 0.7249999999999999778 ) ) ;
#390 = DIRECTION ( 'NONE',  ( 0.000000000000000000, -1.000000000000000000, 0.000000000000000000 ) ) ;
#391 = CARTESIAN_POINT ( 'NONE',  ( -1.070000000000000062, -1.399999999999999911, 0.4749999999999999223 ) ) ;
#392 = EDGE_CURVE ( 'NONE', #719, #452, #176, .T. ) ;
#393 = LINE ( 'NONE', #409, #539 ) ;
#394 = VERTEX_POINT ( 'NONE', #115 ) ;
#395 = DIRECTION ( 'NONE',  ( 0.000000000000000000, 0.000000000000000000, 1.000000000000000000 ) ) ;
#396 = CARTESIAN_POINT ( 'NONE',  ( -2.050000000000000266, 1.394203811574925345, 0.000000000000000000 ) ) ;
#397 = AXIS2_PLACEMENT_3D ( 'NONE', #723, #794, #271 ) ;
#398 = VECTOR ( 'NONE', #559, 1000.000000000000000 ) ;
#399 = LINE ( 'NONE', #556, #494 ) ;
#400 = ORIENTED_EDGE ( 'NONE', *, *, #392, .T. ) ;
#401 = PERSON_AND_ORGANIZATION ( #177, #314 ) ;
#402 = DIRECTION ( 'NONE',  ( -1.000000000000000000, 5.421010862427521184E-16, -0.000000000000000000 ) ) ;
#403 = DIRECTION ( 'NONE',  ( -1.000000000000000000, -0.000000000000000000, -0.000000000000000000 ) ) ;
#404 = ORIENTED_EDGE ( 'NONE', *, *, #848, .T. ) ;
#405 = DATE_AND_TIME ( #479, #113 ) ;
#406 = EDGE_CURVE ( 'NONE', #82, #742, #447, .T. ) ;
#407 = CARTESIAN_POINT ( 'NONE',  ( 1.070000000000000284, -1.399999999999999911, 0.4749999999999999223 ) ) ;
#408 = CLOSED_SHELL ( 'NONE', ( #60, #481, #361, #608 ) ) ;
#409 = CARTESIAN_POINT ( 'NONE',  ( 0.1500000000000000222, 0.7900000000000000355, 0.5100000000000000089 ) ) ;
#410 = ORIENTED_EDGE ( 'NONE', *, *, #848, .F. ) ;
#411 = ADVANCED_BREP_SHAPE_REPRESENTATION ( 'eq733', ( #379, #663, #388, #79, #670, #870 ), #638 ) ;
#412 = DIRECTION ( 'NONE',  ( 0.000000000000000000, 0.000000000000000000, 1.000000000000000000 ) ) ;
#413 = VECTOR ( 'NONE', #402, 1000.000000000000000 ) ;
#414 = AXIS2_PLACEMENT_3D ( 'NONE', #407, #348, #485 ) ;
#415 =( LENGTH_UNIT ( ) NAMED_UNIT ( * ) SI_UNIT ( .MILLI., .METRE. ) );
#416 = DIRECTION ( 'NONE',  ( -0.000000000000000000, 0.000000000000000000, 1.000000000000000000 ) ) ;
#417 = EDGE_CURVE ( 'NONE', #207, #463, #380, .T. ) ;
#418 = ORIENTED_EDGE ( 'NONE', *, *, #434, .T. ) ;
#419 = FACE_OUTER_BOUND ( 'NONE', #108, .T. ) ;
#420 = ORIENTED_EDGE ( 'NONE', *, *, #853, .F. ) ;
#421 = COORDINATED_UNIVERSAL_TIME_OFFSET ( 8, 0, .AHEAD. ) ;
#422 = CARTESIAN_POINT ( 'NONE',  ( -2.050000000000000266, -1.394203811574925567, 0.000000000000000000 ) ) ;
#423 = LINE ( 'NONE', #685, #758 ) ;
#424 = EDGE_LOOP ( 'NONE', ( #458, #832, #278, #38 ) ) ;
#425 = COORDINATED_UNIVERSAL_TIME_OFFSET ( 8, 0, .AHEAD. ) ;
#426 = AXIS2_PLACEMENT_3D ( 'NONE', #9, #416, #810 ) ;
#427 = EDGE_CURVE ( 'NONE', #847, #680, #46, .T. ) ;
#428 = PLANE ( 'NONE',  #703 ) ;
#429 = LOCAL_TIME ( 11, 32, 58.00000000000000000, #425 ) ;
#430 = DIRECTION ( 'NONE',  ( -1.000000000000000000, -0.000000000000000000, -0.000000000000000000 ) ) ;
#431 = ORIENTED_EDGE ( 'NONE', *, *, #258, .T. ) ;
#432 = DATE_TIME_ROLE ( 'classification_date' ) ;
#433 = DIRECTION ( 'NONE',  ( 0.000000000000000000, 0.000000000000000000, 1.000000000000000000 ) ) ;
#434 = EDGE_CURVE ( 'NONE', #463, #452, #850, .T. ) ;
#435 = CARTESIAN_POINT ( 'NONE',  ( -0.1500000000000000222, 0.7900000000000000355, 0.5100000000000000089 ) ) ;
#436 = ORIENTED_EDGE ( 'NONE', *, *, #221, .F. ) ;
#437 = CARTESIAN_POINT ( 'NONE',  ( 1.469999999999999973, -1.399999999999999911, 0.7249999999999999778 ) ) ;
#438 = DIRECTION ( 'NONE',  ( 1.000000000000000000, 8.673617379884033894E-15, 0.000000000000000000 ) ) ;
#439 = ORIENTED_EDGE ( 'NONE', *, *, #406, .T. ) ;
#440 = CARTESIAN_POINT ( 'NONE',  ( -2.001881235060745112, 1.451881235060745512, 1.150000000000000355 ) ) ;
#441 = VECTOR ( 'NONE', #505, 1000.000000000000000 ) ;
#442 = VECTOR ( 'NONE', #175, 1000.000000000000000 ) ;
#443 = CARTESIAN_POINT ( 'NONE',  ( -0.1999999999999979294, -16.60000000000000142, 0.4749999999999999223 ) ) ;
#444 = EDGE_CURVE ( 'NONE', #373, #63, #611, .T. ) ;
#445 = ORIENTED_EDGE ( 'NONE', *, *, #506, .F. ) ;
#446 = DIRECTION ( 'NONE',  ( 0.000000000000000000, 0.9961946980917461003, 0.08715574274765144902 ) ) ;
#447 = LINE ( 'NONE', #708, #69 ) ;
#448 = EDGE_CURVE ( 'NONE', #755, #260, #668, .T. ) ;
#449 = ORIENTED_EDGE ( 'NONE', *, *, #392, .F. ) ;
#450 = CARTESIAN_POINT ( 'NONE',  ( -1.470000000000000195, -1.399999999999999911, 0.4749999999999999223 ) ) ;
#451 = DIRECTION ( 'NONE',  ( -0.000000000000000000, -1.000000000000000000, -0.000000000000000000 ) ) ;
#452 = VERTEX_POINT ( 'NONE', #269 ) ;
#453 = LINE ( 'NONE', #707, #243 ) ;
#454 = DIRECTION ( 'NONE',  ( -0.08682659386424103343, -0.08682659386424095016, 0.9924325091389682996 ) ) ;
#455 = VECTOR ( 'NONE', #465, 1000.000000000000000 ) ;
#456 = AXIS2_PLACEMENT_3D ( 'NONE', #726, #56, #775 ) ;
#457 = AXIS2_PLACEMENT_3D ( 'NONE', #774, #184, #714 ) ;
#458 = ORIENTED_EDGE ( 'NONE', *, *, #682, .T. ) ;
#459 = LINE ( 'NONE', #514, #442 ) ;
#460 = DIRECTION ( 'NONE',  ( 1.283923625311781696E-16, -1.000000000000000000, 0.000000000000000000 ) ) ;
#461 = ADVANCED_FACE ( 'NONE', ( #209 ), #351, .F. ) ;
#462 = DIRECTION ( 'NONE',  ( -0.000000000000000000, -0.000000000000000000, -1.000000000000000000 ) ) ;
#463 = VERTEX_POINT ( 'NONE', #621 ) ;
#464 = CARTESIAN_POINT ( 'NONE',  ( -0.2000000000000002054, -1.399999999999998801, 0.4749999999999999223 ) ) ;
#465 = DIRECTION ( 'NONE',  ( 0.000000000000000000, 0.000000000000000000, 1.000000000000000000 ) ) ;
#466 = LINE ( 'NONE', #389, #342 ) ;
#467 = ORIENTED_EDGE ( 'NONE', *, *, #427, .T. ) ;
#468 = FACE_OUTER_BOUND ( 'NONE', #292, .T. ) ;
#469 = VECTOR ( 'NONE', #36, 1000.000000000000000 ) ;
#470 = SECURITY_CLASSIFICATION ( '', '', #88 ) ;
#471 = DIRECTION ( 'NONE',  ( 1.497910896197078235E-16, -1.000000000000000000, 0.000000000000000000 ) ) ;
#472 = ADVANCED_FACE ( 'NONE', ( #141 ), #339, .T. ) ;
#473 = ORIENTED_EDGE ( 'NONE', *, *, #221, .T. ) ;
#474 = CARTESIAN_POINT ( 'NONE',  ( -1.470000000000000195, -1.399999999999999911, 0.4749999999999999223 ) ) ;
#475 = CARTESIAN_POINT ( 'NONE',  ( 2.001881235060744668, -1.451881235060745956, 1.150000000000000355 ) ) ;
#476 = CARTESIAN_POINT ( 'NONE',  ( -1.070000000000000062, -1.399999999999999911, 0.7249999999999999778 ) ) ;
#477 = ORIENTED_EDGE ( 'NONE', *, *, #66, .T. ) ;
#478 = CARTESIAN_POINT ( 'NONE',  ( 0.000000000000000000, 0.7900000000000000355, 0.5100000000000000089 ) ) ;
#479 = CALENDAR_DATE ( 2026, 5, 6 ) ;
#480 = PLANE ( 'NONE',  #99 ) ;
#481 = ADVANCED_FACE ( 'NONE', ( #864 ), #617, .T. ) ;
#482 = VECTOR ( 'NONE', #110, 1000.000000000000000 ) ;
#483 = VERTEX_POINT ( 'NONE', #475 ) ;
#484 = DIRECTION ( 'NONE',  ( 1.000000000000000000, -0.000000000000000000, -0.000000000000000000 ) ) ;
#485 = DIRECTION ( 'NONE',  ( 0.000000000000000000, -0.000000000000000000, 1.000000000000000000 ) ) ;
#486 = ORIENTED_EDGE ( 'NONE', *, *, #853, .T. ) ;
#487 = CARTESIAN_POINT ( 'NONE',  ( 2.001881235060745112, 1.451881235060745512, 1.149999999999999911 ) ) ;
#488 = DIRECTION ( 'NONE',  ( 1.000000000000000000, -0.000000000000000000, -0.000000000000000000 ) ) ;
#489 = CLOSED_SHELL ( 'NONE', ( #727, #233, #750, #501, #521, #838 ) ) ;
#490 = ORIENTED_EDGE ( 'NONE', *, *, #349, .T. ) ;
#491 = DIRECTION ( 'NONE',  ( -0.000000000000000000, 0.000000000000000000, 1.000000000000000000 ) ) ;
#492 = CARTESIAN_POINT ( 'NONE',  ( 1.450000000000006395, 1.500000000000000000, 0.000000000000000000 ) ) ;
#493 = ORIENTED_EDGE ( 'NONE', *, *, #126, .T. ) ;
#494 = VECTOR ( 'NONE', #817, 1000.000000000000000 ) ;
#495 = CARTESIAN_POINT ( 'NONE',  ( 0.000000000000000000, 0.000000000000000000, 0.000000000000000000 ) ) ;
#496 = CARTESIAN_POINT ( 'NONE',  ( 1.070000000000000284, -1.399999999999999911, 0.4749999999999999223 ) ) ;
#497 = PRODUCT_DEFINITION_SHAPE ( 'NONE', 'NONE',  #584 ) ;
#498 = EDGE_LOOP ( 'NONE', ( #477, #631, #155, #377 ) ) ;
#499 = PERSON_AND_ORGANIZATION_ROLE ( 'creator' ) ;
#500 = DIRECTION ( 'NONE',  ( 0.000000000000000000, -0.9848077530122093526, 0.1736481776669234200 ) ) ;
#501 = ADVANCED_FACE ( 'NONE', ( #419 ), #480, .T. ) ;
#502 = DIRECTION ( 'NONE',  ( 1.000000000000000000, 0.000000000000000000, 0.000000000000000000 ) ) ;
#503 = ORIENTED_EDGE ( 'NONE', *, *, #312, .F. ) ;
#504 = DIRECTION ( 'NONE',  ( 0.7071067811865436870, 0.000000000000000000, 0.7071067811865513475 ) ) ;
#505 = DIRECTION ( 'NONE',  ( -0.000000000000000000, -1.000000000000000000, -0.000000000000000000 ) ) ;
#506 = EDGE_CURVE ( 'NONE', #213, #507, #686, .T. ) ;
#507 = VERTEX_POINT ( 'NONE', #674 ) ;
#508 = LINE ( 'NONE', #845, #189 ) ;
#509 = VECTOR ( 'NONE', #454, 1000.000000000000000 ) ;
#510 = LOCAL_TIME ( 11, 32, 58.00000000000000000, #333 ) ;
#511 = CARTESIAN_POINT ( 'NONE',  ( -1.450000000000006395, 1.394203811574925345, 2.168404344971008868E-16 ) ) ;
#512 = ADVANCED_FACE ( 'NONE', ( #744 ), #145, .F. ) ;
#513 = VERTEX_POINT ( 'NONE', #71 ) ;
#514 = CARTESIAN_POINT ( 'NONE',  ( -0.1999999999999979294, -16.60000000000000142, 0.4749999999999999223 ) ) ;
#515 = DIRECTION ( 'NONE',  ( -0.000000000000000000, 1.000000000000000000, -0.000000000000000000 ) ) ;
#516 = ORIENTED_EDGE ( 'NONE', *, *, #406, .F. ) ;
#517 = EDGE_CURVE ( 'NONE', #754, #343, #538, .T. ) ;
#518 = DIRECTION ( 'NONE',  ( 0.000000000000000000, -0.000000000000000000, -1.000000000000000000 ) ) ;
#519 = LINE ( 'NONE', #529, #869 ) ;
#520 = EDGE_LOOP ( 'NONE', ( #404, #222, #664, #384 ) ) ;
#521 = ADVANCED_FACE ( 'NONE', ( #346 ), #334, .F. ) ;
#522 = DIRECTION ( 'NONE',  ( 1.497910896197078235E-16, -1.000000000000000000, 0.000000000000000000 ) ) ;
#523 = DIRECTION ( 'NONE',  ( 1.000000000000000000, 0.000000000000000000, 0.000000000000000000 ) ) ;
#524 = AXIS2_PLACEMENT_3D ( 'NONE', #167, #700, #23 ) ;
#525 = AXIS2_PLACEMENT_3D ( 'NONE', #528, #446, #248 ) ;
#526 = CARTESIAN_POINT ( 'NONE',  ( 1.070000000000000284, -1.399999999999999911, 0.7249999999999999778 ) ) ;
#527 = ORIENTED_EDGE ( 'NONE', *, *, #323, .T. ) ;
#528 = CARTESIAN_POINT ( 'NONE',  ( -2.050000000000000266, 1.500000000000000000, 0.5999999999999999778 ) ) ;
#529 = CARTESIAN_POINT ( 'NONE',  ( 2.001881235060745112, 1.500000000000000000, 1.149999999999999911 ) ) ;
#530 = CYLINDRICAL_SURFACE ( 'NONE', #397, 0.1500000000000000222 ) ;
#531 = APPROVAL ( #752, 'UNSPECIFIED' ) ;
#532 = COORDINATED_UNIVERSAL_TIME_OFFSET ( 8, 0, .AHEAD. ) ;
#533 = DIRECTION ( 'NONE',  ( 0.7016738431598599224, -0.1237240302064793046, 0.7016738431598674719 ) ) ;
#534 = EDGE_CURVE ( 'NONE', #581, #683, #797, .T. ) ;
#535 = CARTESIAN_POINT ( 'NONE',  ( -1.070000000000000062, -1.399999999999999911, 0.4749999999999999223 ) ) ;
#536 = ORIENTED_EDGE ( 'NONE', *, *, #787, .T. ) ;
#537 = DIRECTION ( 'NONE',  ( 1.283923625311781696E-16, -1.000000000000000000, 0.000000000000000000 ) ) ;
#538 = LINE ( 'NONE', #81, #613 ) ;
#539 = VECTOR ( 'NONE', #462, 1000.000000000000000 ) ;
#540 = VECTOR ( 'NONE', #280, 1000.000000000000000 ) ;
#541 = CARTESIAN_POINT ( 'NONE',  ( 0.2000000000000021205, -16.59999999999999787, 0.4749999999999999223 ) ) ;
#542 = LINE ( 'NONE', #54, #173 ) ;
#543 = DIRECTION ( 'NONE',  ( 0.000000000000000000, 0.000000000000000000, 1.000000000000000000 ) ) ;
#544 = EDGE_CURVE ( 'NONE', #343, #483, #216, .T. ) ;
#545 = EDGE_LOOP ( 'NONE', ( #693, #554, #829, #128 ) ) ;
#546 = PERSON_AND_ORGANIZATION_ROLE ( 'design_owner' ) ;
#547 = CARTESIAN_POINT ( 'NONE',  ( -0.2000000000000002054, -1.399999999999998801, 0.4749999999999999223 ) ) ;
#548 = ORIENTED_EDGE ( 'NONE', *, *, #587, .F. ) ;
#549 = DIRECTION ( 'NONE',  ( -0.000000000000000000, 0.000000000000000000, 1.000000000000000000 ) ) ;
#550 = EDGE_CURVE ( 'NONE', #63, #82, #679, .T. ) ;
#551 = CARTESIAN_POINT ( 'NONE',  ( 1.070000000000000284, -1.399999999999999911, 0.4749999999999999223 ) ) ;
#552 = VECTOR ( 'NONE', #646, 1000.000000000000000 ) ;
#553 = AXIS2_PLACEMENT_3D ( 'NONE', #240, #596, #32 ) ;
#554 = ORIENTED_EDGE ( 'NONE', *, *, #90, .F. ) ;
#555 = LINE ( 'NONE', #816, #717 ) ;
#556 = CARTESIAN_POINT ( 'NONE',  ( 0.1999999999999998446, -1.399999999999999023, 0.7249999999999999778 ) ) ;
#557 = ORIENTED_EDGE ( 'NONE', *, *, #716, .T. ) ;
#558 = PERSON_AND_ORGANIZATION ( #177, #314 ) ;
#559 = DIRECTION ( 'NONE',  ( -1.497910896197078728E-16, 1.000000000000000000, -0.000000000000000000 ) ) ;
#560 = CARTESIAN_POINT ( 'NONE',  ( -2.050000000000000266, 1.500000000000000000, 0.5999999999999999778 ) ) ;
#561 = ADVANCED_FACE ( 'NONE', ( #468 ), #77, .T. ) ;
#562 = ORIENTED_EDGE ( 'NONE', *, *, #578, .F. ) ;
#563 = PLANE ( 'NONE',  #570 ) ;
#564 = DIRECTION ( 'NONE',  ( -1.426581805901979697E-17, -1.000000000000000000, 0.000000000000000000 ) ) ;
#565 = EDGE_CURVE ( 'NONE', #44, #738, #749, .T. ) ;
#566 = VECTOR ( 'NONE', #336, 1000.000000000000000 ) ;
#567 = ORIENTED_EDGE ( 'NONE', *, *, #822, .T. ) ;
#568 = PERSON_AND_ORGANIZATION ( #177, #314 ) ;
#569 = FACE_OUTER_BOUND ( 'NONE', #281, .T. ) ;
#570 = AXIS2_PLACEMENT_3D ( 'NONE', #35, #390, #518 ) ;
#571 = DIRECTION ( 'NONE',  ( -9.986072641313858186E-17, 1.000000000000000000, -0.000000000000000000 ) ) ;
#572 = ORIENTED_EDGE ( 'NONE', *, *, #417, .T. ) ;
#573 = ADVANCED_FACE ( 'NONE', ( #224 ), #161, .T. ) ;
#574 = DIRECTION ( 'NONE',  ( 1.000000000000000000, 0.000000000000000000, -0.000000000000000000 ) ) ;
#575 = CARTESIAN_POINT ( 'NONE',  ( -2.001881235060745112, 1.500000000000000000, 1.149999999999999911 ) ) ;
#576 = EDGE_LOOP ( 'NONE', ( #439, #319, #688, #835 ) ) ;
#577 = FACE_OUTER_BOUND ( 'NONE', #424, .T. ) ;
#578 = EDGE_CURVE ( 'NONE', #592, #362, #639, .T. ) ;
#579 = DIRECTION ( 'NONE',  ( -0.7071067811865512365, 0.000000000000000000, -0.7071067811865439090 ) ) ;
#580 = EDGE_CURVE ( 'NONE', #507, #213, #146, .T. ) ;
#581 = VERTEX_POINT ( 'NONE', #27 ) ;
#582 = CARTESIAN_POINT ( 'NONE',  ( 0.2000000000000021205, -16.59999999999999787, 0.7249999999999999778 ) ) ;
#583 = CIRCLE ( 'NONE', #171, 0.1500000000000000222 ) ;
#584 = PRODUCT_DEFINITION ( 'UNKNOWN', '', #368, #779 ) ;
#585 = LOCAL_TIME ( 11, 32, 58.00000000000000000, #421 ) ;
#586 = CARTESIAN_POINT ( 'NONE',  ( 0.000000000000000000, 0.7900000000000000355, 0.4099999999999999756 ) ) ;
#587 = EDGE_CURVE ( 'NONE', #452, #790, #355, .T. ) ;
#588 = ORIENTED_EDGE ( 'NONE', *, *, #374, .F. ) ;
#589 = CARTESIAN_POINT ( 'NONE',  ( 1.070000000000000284, -1.399999999999999911, 0.4749999999999999223 ) ) ;
#590 = CARTESIAN_POINT ( 'NONE',  ( 0.1500000000000000222, 0.7900000000000000355, 0.4099999999999999756 ) ) ;
#591 = EDGE_CURVE ( 'NONE', #207, #719, #555, .T. ) ;
#592 = VERTEX_POINT ( 'NONE', #166 ) ;
#593 = DIRECTION ( 'NONE',  ( -0.000000000000000000, -1.000000000000000000, -0.000000000000000000 ) ) ;
#594 = CARTESIAN_POINT ( 'NONE',  ( 1.070000000000000062, -16.60000000000000142, 0.7249999999999999778 ) ) ;
#595 = ORIENTED_EDGE ( 'NONE', *, *, #682, .F. ) ;
#596 = DIRECTION ( 'NONE',  ( -0.000000000000000000, 0.000000000000000000, 1.000000000000000000 ) ) ;
#597 = DIRECTION ( 'NONE',  ( -0.000000000000000000, 0.000000000000000000, 1.000000000000000000 ) ) ;
#598 = AXIS2_PLACEMENT_3D ( 'NONE', #95, #579, #238 ) ;
#599 = VECTOR ( 'NONE', #61, 1000.000000000000000 ) ;
#600 = DIRECTION ( 'NONE',  ( -0.7016738431598600334, 0.1237240302064793046, 0.7016738431598675829 ) ) ;
#601 = ORIENTED_EDGE ( 'NONE', *, *, #78, .T. ) ;
#602 = PERSON_AND_ORGANIZATION ( #177, #314 ) ;
#603 = ADVANCED_FACE ( 'NONE', ( #371 ), #633, .F. ) ;
#604 = PLANE ( 'NONE',  #456 ) ;
#605 = CARTESIAN_POINT ( 'NONE',  ( -0.2000000000000002054, -1.399999999999998801, 0.4749999999999999223 ) ) ;
#606 = EDGE_LOOP ( 'NONE', ( #851, #12, #236, #250 ) ) ;
#607 = DIRECTION ( 'NONE',  ( 1.000000000000000000, 0.000000000000000000, 0.000000000000000000 ) ) ;
#608 = ADVANCED_FACE ( 'NONE', ( #364 ), #290, .F. ) ;
#609 = PLANE ( 'NONE',  #186 ) ;
#610 = ORIENTED_EDGE ( 'NONE', *, *, #427, .F. ) ;
#611 = LINE ( 'NONE', #547, #413 ) ;
#612 = VECTOR ( 'NONE', #438, 1000.000000000000000 ) ;
#613 = VECTOR ( 'NONE', #533, 1000.000000000000114 ) ;
#614 = ORIENTED_EDGE ( 'NONE', *, *, #135, .F. ) ;
#615 = ORIENTED_EDGE ( 'NONE', *, *, #587, .T. ) ;
#616 = PERSON_AND_ORGANIZATION ( #177, #314 ) ;
#617 = CYLINDRICAL_SURFACE ( 'NONE', #852, 0.1500000000000000222 ) ;
#618 = APPLICATION_PROTOCOL_DEFINITION ( 'international standard', 'config_control_design', 1994, #117 ) ;
#619 = DIRECTION ( 'NONE',  ( -1.000000000000000000, 0.000000000000000000, 0.000000000000000000 ) ) ;
#620 = ORIENTED_EDGE ( 'NONE', *, *, #196, .F. ) ;
#621 = CARTESIAN_POINT ( 'NONE',  ( 1.469999999999999973, -16.60000000000000142, 0.4749999999999999223 ) ) ;
#622 = VECTOR ( 'NONE', #430, 1000.000000000000000 ) ;
#623 = VECTOR ( 'NONE', #704, 1000.000000000000000 ) ;
#624 = ORIENTED_EDGE ( 'NONE', *, *, #580, .F. ) ;
#625 = FACE_OUTER_BOUND ( 'NONE', #628, .T. ) ;
#626 = EDGE_CURVE ( 'NONE', #592, #754, #286, .T. ) ;
#627 = CARTESIAN_POINT ( 'NONE',  ( 1.469999999999999973, -1.399999999999999911, 0.4749999999999999223 ) ) ;
#628 = EDGE_LOOP ( 'NONE', ( #315, #764, #467, #182 ) ) ;
#629 = DIRECTION ( 'NONE',  ( -0.000000000000000000, 1.000000000000000000, -0.000000000000000000 ) ) ;
#630 = DIRECTION ( 'NONE',  ( 0.000000000000000000, -0.000000000000000000, -1.000000000000000000 ) ) ;
#631 = ORIENTED_EDGE ( 'NONE', *, *, #381, .F. ) ;
#632 = DATE_AND_TIME ( #358, #585 ) ;
#633 = PLANE ( 'NONE',  #301 ) ;
#634 = DIRECTION ( 'NONE',  ( -0.000000000000000000, -1.000000000000000000, -0.000000000000000000 ) ) ;
#635 = ADVANCED_FACE ( 'NONE', ( #625 ), #237, .T. ) ;
#636 = VECTOR ( 'NONE', #634, 1000.000000000000000 ) ;
#637 = ORIENTED_EDGE ( 'NONE', *, *, #172, .T. ) ;
#638 =( GEOMETRIC_REPRESENTATION_CONTEXT ( 3 ) GLOBAL_UNCERTAINTY_ASSIGNED_CONTEXT ( ( #821 ) ) GLOBAL_UNIT_ASSIGNED_CONTEXT ( ( #415, #203, #806 ) ) REPRESENTATION_CONTEXT ( 'NONE', 'WORKASPACE' ) );
#639 = LINE ( 'NONE', #359, #623 ) ;
#640 = CARTESIAN_POINT ( 'NONE',  ( -1.070000000000000062, -1.399999999999999911, 0.7249999999999999778 ) ) ;
#641 = ORIENTED_EDGE ( 'NONE', *, *, #448, .T. ) ;
#642 = DIRECTION ( 'NONE',  ( 0.08715574274765151841, 0.000000000000000000, -0.9961946980917461003 ) ) ;
#643 = LINE ( 'NONE', #492, #441 ) ;
#644 = ORIENTED_EDGE ( 'NONE', *, *, #4, .F. ) ;
#645 = PLANE ( 'NONE',  #553 ) ;
#646 = DIRECTION ( 'NONE',  ( -0.000000000000000000, -1.000000000000000000, -0.000000000000000000 ) ) ;
#647 = EDGE_LOOP ( 'NONE', ( #96, #548, #337, #490 ) ) ;
#648 = CARTESIAN_POINT ( 'NONE',  ( 0.2000000000000021205, -16.59999999999999787, 0.4749999999999999223 ) ) ;
#649 = DIRECTION ( 'NONE',  ( 0.000000000000000000, 0.000000000000000000, 1.000000000000000000 ) ) ;
#650 = ADVANCED_FACE ( 'NONE', ( #824 ), #428, .F. ) ;
#651 = ORIENTED_EDGE ( 'NONE', *, *, #74, .F. ) ;
#652 = CARTESIAN_POINT ( 'NONE',  ( -1.069999999999998508, -16.60000000000000142, 0.4749999999999999223 ) ) ;
#653 = CARTESIAN_POINT ( 'NONE',  ( 0.000000000000000000, 0.000000000000000000, 0.4749999999999999223 ) ) ;
#654 = CARTESIAN_POINT ( 'NONE',  ( -1.469999999999998197, -16.60000000000000142, 0.4749999999999999223 ) ) ;
#655 = DIRECTION ( 'NONE',  ( 1.000000000000000000, 1.497910896197078728E-16, -0.000000000000000000 ) ) ;
#656 = CARTESIAN_POINT ( 'NONE',  ( -1.470000000000000195, -1.399999999999999911, 0.7249999999999999778 ) ) ;
#657 = ORIENTED_EDGE ( 'NONE', *, *, #340, .F. ) ;
#658 = ADVANCED_FACE ( 'NONE', ( #569 ), #830, .F. ) ;
#659 = ORIENTED_EDGE ( 'NONE', *, *, #793, .F. ) ;
#660 = PERSON_AND_ORGANIZATION ( #177, #314 ) ;
#661 = CARTESIAN_POINT ( 'NONE',  ( -1.070000000000000062, -1.399999999999999911, 0.4749999999999999223 ) ) ;
#662 = VECTOR ( 'NONE', #185, 1000.000000000000000 ) ;
#663 = MANIFOLD_SOLID_BREP ( '填料-伸長2[1]', #137 ) ;
#664 = ORIENTED_EDGE ( 'NONE', *, *, #66, .F. ) ;
#665 = APPROVAL_STATUS ( 'not_yet_approved' ) ;
#666 = CARTESIAN_POINT ( 'NONE',  ( -1.070000000000000062, -1.399999999999999911, 0.4749999999999999223 ) ) ;
#667 = ORIENTED_EDGE ( 'NONE', *, *, #444, .F. ) ;
#668 = LINE ( 'NONE', #551, #201 ) ;
#669 = ADVANCED_FACE ( 'NONE', ( #765 ), #13, .F. ) ;
#670 = MANIFOLD_SOLID_BREP ( '填料-伸長3', #408 ) ;
#671 = DIRECTION ( 'NONE',  ( 1.000000000000000000, 0.000000000000000000, 0.000000000000000000 ) ) ;
#672 = ORIENTED_EDGE ( 'NONE', *, *, #591, .F. ) ;
#673 = CARTESIAN_POINT ( 'NONE',  ( 0.000000000000000000, 0.000000000000000000, 0.000000000000000000 ) ) ;
#674 = CARTESIAN_POINT ( 'NONE',  ( 0.1500000000000000222, 0.7900000000000000355, 0.5100000000000000089 ) ) ;
#675 = AXIS2_PLACEMENT_3D ( 'NONE', #91, #360, #630 ) ;
#676 = VECTOR ( 'NONE', #156, 1000.000000000000000 ) ;
#677 = VERTEX_POINT ( 'NONE', #819 ) ;
#678 = APPROVAL_ROLE ( '' ) ;
#679 = LINE ( 'NONE', #807, #599 ) ;
#680 = VERTEX_POINT ( 'NONE', #487 ) ;
#681 = DIRECTION ( 'NONE',  ( 5.421010862427521184E-16, 1.000000000000000000, -0.000000000000000000 ) ) ;
#682 = EDGE_CURVE ( 'NONE', #373, #697, #169, .T. ) ;
#683 = VERTEX_POINT ( 'NONE', #440 ) ;
#684 = LINE ( 'NONE', #83, #398 ) ;
#685 = CARTESIAN_POINT ( 'NONE',  ( -1.450000000000006395, 1.500000000000000000, 1.084202172485504434E-16 ) ) ;
#686 = CIRCLE ( 'NONE', #801, 0.1500000000000000222 ) ;
#687 = VECTOR ( 'NONE', #208, 1000.000000000000000 ) ;
#688 = ORIENTED_EDGE ( 'NONE', *, *, #258, .F. ) ;
#689 = PERSON_AND_ORGANIZATION_ROLE ( 'classification_officer' ) ;
#690 = DIRECTION ( 'NONE',  ( -1.426581805901979697E-17, -1.000000000000000000, 0.000000000000000000 ) ) ;
#691 = EDGE_CURVE ( 'NONE', #823, #373, #684, .T. ) ;
#692 = PLANE ( 'NONE',  #524 ) ;
#693 = ORIENTED_EDGE ( 'NONE', *, *, #335, .F. ) ;
#694 = CARTESIAN_POINT ( 'NONE',  ( 2.049999999999999822, 1.500000000000000000, 0.5999999999999999778 ) ) ;
#695 = DIRECTION ( 'NONE',  ( -0.000000000000000000, -1.000000000000000000, -0.000000000000000000 ) ) ;
#696 = ADVANCED_FACE ( 'NONE', ( #293 ), #563, .T. ) ;
#697 = VERTEX_POINT ( 'NONE', #324 ) ;
#698 = PERSON_AND_ORGANIZATION_ROLE ( 'design_supplier' ) ;
#699 = DIRECTION ( 'NONE',  ( 1.000000000000000000, 0.000000000000000000, 0.000000000000000000 ) ) ;
#700 = DIRECTION ( 'NONE',  ( 0.000000000000000000, 1.000000000000000000, 0.000000000000000000 ) ) ;
#701 = VECTOR ( 'NONE', #600, 999.9999999999998863 ) ;
#702 = ORIENTED_EDGE ( 'NONE', *, *, #160, .F. ) ;
#703 = AXIS2_PLACEMENT_3D ( 'NONE', #22, #299, #756 ) ;
#704 = DIRECTION ( 'NONE',  ( -0.7016738431598601444, -0.1237240302064793046, 0.7016738431598674719 ) ) ;
#705 = DIRECTION ( 'NONE',  ( 8.673617379884033894E-15, -1.000000000000000000, 0.000000000000000000 ) ) ;
#706 = ORIENTED_EDGE ( 'NONE', *, *, #811, .T. ) ;
#707 = CARTESIAN_POINT ( 'NONE',  ( -2.027383427793802539, -1.477383427793803161, 0.8585086032260363931 ) ) ;
#708 = CARTESIAN_POINT ( 'NONE',  ( -0.1999999999999979294, -16.60000000000000142, 0.4749999999999999223 ) ) ;
#709 = ORIENTED_EDGE ( 'NONE', *, *, #691, .F. ) ;
#710 = EDGE_CURVE ( 'NONE', #847, #343, #320, .T. ) ;
#711 = DIRECTION ( 'NONE',  ( -1.000000000000000000, -1.497910896197078235E-16, 0.000000000000000000 ) ) ;
#712 = PLANE ( 'NONE',  #326 ) ;
#713 = ORIENTED_EDGE ( 'NONE', *, *, #288, .T. ) ;
#714 = DIRECTION ( 'NONE',  ( 0.000000000000000000, 0.1736481776669233645, -0.9848077530122092416 ) ) ;
#715 = CLOSED_SHELL ( 'NONE', ( #116, #696, #573, #561, #512, #277 ) ) ;
#716 = EDGE_CURVE ( 'NONE', #213, #105, #720, .T. ) ;
#717 = VECTOR ( 'NONE', #152, 1000.000000000000000 ) ;
#718 = DIRECTION ( 'NONE',  ( -1.000000000000000000, 5.421010862427521184E-16, -0.000000000000000000 ) ) ;
#719 = VERTEX_POINT ( 'NONE', #791 ) ;
#720 = LINE ( 'NONE', #119, #786 ) ;
#721 = DIRECTION ( 'NONE',  ( -9.986072641313858186E-17, 1.000000000000000000, -0.000000000000000000 ) ) ;
#722 = EDGE_CURVE ( 'NONE', #370, #790, #385, .T. ) ;
#723 = CARTESIAN_POINT ( 'NONE',  ( 0.000000000000000000, 0.7900000000000000355, 0.5100000000000000089 ) ) ;
#724 = EDGE_LOOP ( 'NONE', ( #588, #620 ) ) ;
#725 = PLANE ( 'NONE',  #855 ) ;
#726 = CARTESIAN_POINT ( 'NONE',  ( 0.000000000000000000, 0.7900000000000000355, 0.5100000000000000089 ) ) ;
#727 = ADVANCED_FACE ( 'NONE', ( #577 ), #41, .T. ) ;
#728 = CARTESIAN_POINT ( 'NONE',  ( -0.1999999999999979294, -16.60000000000000142, 0.4749999999999999223 ) ) ;
#729 = ORIENTED_EDGE ( 'NONE', *, *, #104, .F. ) ;
#730 = DATE_AND_TIME ( #736, #746 ) ;
#731 = DIRECTION ( 'NONE',  ( 1.000000000000000000, 0.000000000000000000, 0.000000000000000000 ) ) ;
#732 = VECTOR ( 'NONE', #488, 1000.000000000000000 ) ;
#733 = AXIS2_PLACEMENT_3D ( 'NONE', #474, #796, #537 ) ;
#734 = CARTESIAN_POINT ( 'NONE',  ( -0.1500000000000000222, 0.7900000000000000355, 0.4099999999999999756 ) ) ;
#735 = ADVANCED_FACE ( 'NONE', ( #849 ), #842, .T. ) ;
#736 = CALENDAR_DATE ( 2026, 5, 6 ) ;
#737 = DIRECTION ( 'NONE',  ( 1.000000000000000000, 9.986072641313858186E-17, -0.000000000000000000 ) ) ;
#738 = VERTEX_POINT ( 'NONE', #180 ) ;
#739 = ORIENTED_EDGE ( 'NONE', *, *, #154, .F. ) ;
#740 = ADVANCED_FACE ( 'NONE', ( #194 ), #49, .T. ) ;
#741 = CARTESIAN_POINT ( 'NONE',  ( 0.000000000000000000, 0.7900000000000000355, 0.5100000000000000089 ) ) ;
#742 = VERTEX_POINT ( 'NONE', #109 ) ;
#743 = DIRECTION ( 'NONE',  ( -1.426581805901979697E-17, -1.000000000000000000, 0.000000000000000000 ) ) ;
#744 = FACE_OUTER_BOUND ( 'NONE', #20, .T. ) ;
#745 = VECTOR ( 'NONE', #721, 1000.000000000000000 ) ;
#746 = LOCAL_TIME ( 11, 32, 58.00000000000000000, #532 ) ;
#747 = ORIENTED_EDGE ( 'NONE', *, *, #270, .T. ) ;
#748 = DIRECTION ( 'NONE',  ( 0.000000000000000000, 0.000000000000000000, 1.000000000000000000 ) ) ;
#749 = LINE ( 'NONE', #150, #813 ) ;
#750 = ADVANCED_FACE ( 'NONE', ( #251 ), #725, .T. ) ;
#751 = VERTEX_POINT ( 'NONE', #245 ) ;
#752 = APPROVAL_STATUS ( 'not_yet_approved' ) ;
#753 = CARTESIAN_POINT ( 'NONE',  ( 0.1999999999999998446, -1.399999999999999023, 0.4749999999999999223 ) ) ;
#754 = VERTEX_POINT ( 'NONE', #45 ) ;
#755 = VERTEX_POINT ( 'NONE', #785 ) ;
#756 = DIRECTION ( 'NONE',  ( 0.000000000000000000, 0.08715574274765144902, 0.9961946980917461003 ) ) ;
#757 = DIRECTION ( 'NONE',  ( -0.000000000000000000, 0.000000000000000000, -1.000000000000000000 ) ) ;
#758 = VECTOR ( 'NONE', #695, 1000.000000000000000 ) ;
#759 = VECTOR ( 'NONE', #629, 1000.000000000000000 ) ;
#760 = ORIENTED_EDGE ( 'NONE', *, *, #517, .T. ) ;
#761 = EDGE_CURVE ( 'NONE', #362, #513, #453, .T. ) ;
#762 = DIRECTION ( 'NONE',  ( 1.283923625311781696E-16, -1.000000000000000000, 0.000000000000000000 ) ) ;
#763 = CARTESIAN_POINT ( 'NONE',  ( 0.000000000000000000, 0.7900000000000000355, 0.4099999999999999756 ) ) ;
#764 = ORIENTED_EDGE ( 'NONE', *, *, #710, .F. ) ;
#765 = FACE_OUTER_BOUND ( 'NONE', #862, .T. ) ;
#766 = CARTESIAN_POINT ( 'NONE',  ( -0.1999999999999979294, -16.60000000000000142, 0.7249999999999999778 ) ) ;
#767 = CC_DESIGN_DATE_AND_TIME_ASSIGNMENT ( #730, #129, ( #584 ) ) ;
#768 = ORIENTED_EDGE ( 'NONE', *, *, #580, .T. ) ;
#769 = CARTESIAN_POINT ( 'NONE',  ( -2.050000000000000266, 1.500000000000000000, 0.5999999999999999778 ) ) ;
#770 = APPROVAL ( #211, 'UNSPECIFIED' ) ;
#771 = LINE ( 'NONE', #170, #300 ) ;
#772 = ORIENTED_EDGE ( 'NONE', *, *, #179, .T. ) ;
#773 = APPROVAL_PERSON_ORGANIZATION ( #401, #165, #59 ) ;
#774 = CARTESIAN_POINT ( 'NONE',  ( -2.050000000000000266, -1.352163422591738495, -0.2384228937300155726 ) ) ;
#775 = DIRECTION ( 'NONE',  ( 1.000000000000000000, 0.000000000000000000, -0.000000000000000000 ) ) ;
#776 = EDGE_LOOP ( 'NONE', ( #159, #795, #659, #53 ) ) ;
#777 = LINE ( 'NONE', #450, #327 ) ;
#778 = LINE ( 'NONE', #396, #469 ) ;
#779 = DESIGN_CONTEXT ( 'detailed design', #316, 'design' ) ;
#780 = ADVANCED_FACE ( 'NONE', ( #310 ), #645, .T. ) ;
#781 = ORIENTED_EDGE ( 'NONE', *, *, #787, .F. ) ;
#782 = DIRECTION ( 'NONE',  ( -1.497910896197078728E-16, 1.000000000000000000, 0.000000000000000000 ) ) ;
#783 = CARTESIAN_POINT ( 'NONE',  ( 1.070000000000000062, -16.60000000000000142, 0.4749999999999999223 ) ) ;
#784 = VERTEX_POINT ( 'NONE', #582 ) ;
#785 = CARTESIAN_POINT ( 'NONE',  ( 1.070000000000000284, -1.399999999999999911, 0.4749999999999999223 ) ) ;
#786 = VECTOR ( 'NONE', #307, 1000.000000000000000 ) ;
#787 = EDGE_CURVE ( 'NONE', #394, #847, #508, .T. ) ;
#788 = LINE ( 'NONE', #846, #552 ) ;
#789 = CARTESIAN_POINT ( 'NONE',  ( -1.469999999999998197, -16.60000000000000142, 0.7249999999999999778 ) ) ;
#790 = VERTEX_POINT ( 'NONE', #114 ) ;
#791 = CARTESIAN_POINT ( 'NONE',  ( 1.070000000000000062, -16.60000000000000142, 0.7249999999999999778 ) ) ;
#792 = CARTESIAN_POINT ( 'NONE',  ( 0.000000000000000000, 0.000000000000000000, 0.7249999999999999778 ) ) ;
#793 = EDGE_CURVE ( 'NONE', #677, #751, #190, .T. ) ;
#794 = DIRECTION ( 'NONE',  ( -0.000000000000000000, -0.000000000000000000, -1.000000000000000000 ) ) ;
#795 = ORIENTED_EDGE ( 'NONE', *, *, #147, .F. ) ;
#796 = DIRECTION ( 'NONE',  ( -1.000000000000000000, -1.283923625311781696E-16, 0.000000000000000000 ) ) ;
#797 = LINE ( 'NONE', #199, #540 ) ;
#798 = LINE ( 'NONE', #541, #566 ) ;
#799 = ORIENTED_EDGE ( 'NONE', *, *, #47, .T. ) ;
#800 = DIRECTION ( 'NONE',  ( -0.000000000000000000, 0.000000000000000000, 1.000000000000000000 ) ) ;
#801 = AXIS2_PLACEMENT_3D ( 'NONE', #741, #412, #607 ) ;
#802 = APPROVAL_PERSON_ORGANIZATION ( #164, #531, #363 ) ;
#803 = CARTESIAN_POINT ( 'NONE',  ( -1.470000000000000195, -1.399999999999999911, 0.4749999999999999223 ) ) ;
#804 = DIRECTION ( 'NONE',  ( -1.000000000000000000, 5.421010862427521184E-16, 0.000000000000000000 ) ) ;
#805 = EDGE_LOOP ( 'NONE', ( #8, #768 ) ) ;
#806 =( NAMED_UNIT ( * ) SI_UNIT ( $, .STERADIAN. ) SOLID_ANGLE_UNIT ( ) );
#807 = CARTESIAN_POINT ( 'NONE',  ( -0.2000000000000002054, -1.399999999999998801, 0.4749999999999999223 ) ) ;
#808 = ORIENTED_EDGE ( 'NONE', *, *, #828, .T. ) ;
#809 = DIRECTION ( 'NONE',  ( 1.000000000000000000, 0.000000000000000000, 0.000000000000000000 ) ) ;
#810 = DIRECTION ( 'NONE',  ( 1.000000000000000000, 0.000000000000000000, 0.000000000000000000 ) ) ;
#811 = EDGE_CURVE ( 'NONE', #82, #823, #459, .T. ) ;
#812 = VECTOR ( 'NONE', #718, 1000.000000000000000 ) ;
#813 = VECTOR ( 'NONE', #762, 1000.000000000000000 ) ;
#814 = ORIENTED_EDGE ( 'NONE', *, *, #793, .T. ) ;
#815 = PERSON_AND_ORGANIZATION ( #177, #314 ) ;
#816 = CARTESIAN_POINT ( 'NONE',  ( 1.070000000000000062, -16.60000000000000142, 0.4749999999999999223 ) ) ;
#817 = DIRECTION ( 'NONE',  ( -1.497910896197078728E-16, 1.000000000000000000, -0.000000000000000000 ) ) ;
#818 = ORIENTED_EDGE ( 'NONE', *, *, #626, .T. ) ;
#819 = CARTESIAN_POINT ( 'NONE',  ( -1.069999999999998508, -16.60000000000000142, 0.4749999999999999223 ) ) ;
#820 = FACE_OUTER_BOUND ( 'NONE', #606, .T. ) ;
#821 = UNCERTAINTY_MEASURE_WITH_UNIT (LENGTH_MEASURE( 1.000000000000000082E-05 ), #415, 'distance_accuracy_value', 'NONE');
#822 = EDGE_CURVE ( 'NONE', #289, #44, #777, .T. ) ;
#823 = VERTEX_POINT ( 'NONE', #648 ) ;
#824 = FACE_OUTER_BOUND ( 'NONE', #520, .T. ) ;
#825 = LINE ( 'NONE', #560, #215 ) ;
#826 = AXIS2_PLACEMENT_3D ( 'NONE', #443, #705, #28 ) ;
#827 = AXIS2_PLACEMENT_3D ( 'NONE', #304, #433, #574 ) ;
#828 = EDGE_CURVE ( 'NONE', #370, #755, #317, .T. ) ;
#829 = ORIENTED_EDGE ( 'NONE', *, *, #565, .F. ) ;
#830 = PLANE ( 'NONE',  #345 ) ;
#831 = FACE_OUTER_BOUND ( 'NONE', #840, .T. ) ;
#832 = ORIENTED_EDGE ( 'NONE', *, *, #47, .F. ) ;
#833 = DIRECTION ( 'NONE',  ( -0.7071067811865513475, 0.000000000000000000, 0.7071067811865436870 ) ) ;
#834 = CARTESIAN_POINT ( 'NONE',  ( -1.470000000000000195, -1.399999999999999911, 0.7249999999999999778 ) ) ;
#835 = ORIENTED_EDGE ( 'NONE', *, *, #550, .T. ) ;
#836 = DIRECTION ( 'NONE',  ( 0.08682659386424103343, 0.08682659386424095016, 0.9924325091389682996 ) ) ;
#837 = PLANE ( 'NONE',  #826 ) ;
#838 = ADVANCED_FACE ( 'NONE', ( #140 ), #268, .T. ) ;
#839 = AXIS2_PLACEMENT_3D ( 'NONE', #763, #295, #502 ) ;
#840 = EDGE_LOOP ( 'NONE', ( #284, #118, #516, #706 ) ) ;
#841 = CC_DESIGN_APPROVAL ( #165, ( #368 ) ) ;
#842 = PLANE ( 'NONE',  #457 ) ;
#843 = DIRECTION ( 'NONE',  ( 1.000000000000000000, 0.000000000000000000, 0.000000000000000000 ) ) ;
#844 = ORIENTED_EDGE ( 'NONE', *, *, #288, .F. ) ;
#845 = CARTESIAN_POINT ( 'NONE',  ( 0.7452826172369680924, 1.269943123219551051, -0.7047173827630458520 ) ) ;
#846 = CARTESIAN_POINT ( 'NONE',  ( -2.049999999999999822, 1.500000000000000000, 0.5999999999999999778 ) ) ;
#847 = VERTEX_POINT ( 'NONE', #279 ) ;
#848 = EDGE_CURVE ( 'NONE', #362, #343, #214, .T. ) ;
#849 = FACE_OUTER_BOUND ( 'NONE', #133, .T. ) ;
#850 = LINE ( 'NONE', #252, #354 ) ;
#851 = ORIENTED_EDGE ( 'NONE', *, *, #264, .T. ) ;
#852 = AXIS2_PLACEMENT_3D ( 'NONE', #478, #283, #619 ) ;
#853 = EDGE_CURVE ( 'NONE', #260, #719, #542, .T. ) ;
#854 = CARTESIAN_POINT ( 'NONE',  ( 2.049999999999999822, 1.500000000000000000, 0.5999999999999999778 ) ) ;
#855 = AXIS2_PLACEMENT_3D ( 'NONE', #464, #711, #522 ) ;
#856 = CARTESIAN_POINT ( 'NONE',  ( 0.1999999999999998446, -1.399999999999999023, 0.4749999999999999223 ) ) ;
#857 = FACE_OUTER_BOUND ( 'NONE', #332, .T. ) ;
#858 = CC_DESIGN_PERSON_AND_ORGANIZATION_ASSIGNMENT ( #558, #689, ( #470 ) ) ;
#859 = PERSON_AND_ORGANIZATION_ROLE ( 'creator' ) ;
#860 = FACE_OUTER_BOUND ( 'NONE', #298, .T. ) ;
#861 = LINE ( 'NONE', #803, #127 ) ;
#862 = EDGE_LOOP ( 'NONE', ( #80, #436, #536, #57 ) ) ;
#863 = PLANE ( 'NONE',  #733 ) ;
#864 = FACE_OUTER_BOUND ( 'NONE', #48, .T. ) ;
#865 = ADVANCED_FACE ( 'NONE', ( #344 ), #863, .T. ) ;
#866 = ORIENTED_EDGE ( 'NONE', *, *, #340, .T. ) ;
#867 = CARTESIAN_POINT ( 'NONE',  ( -2.050000000000000266, -1.500000000000000000, 0.5999999999999999778 ) ) ;
#868 = DIRECTION ( 'NONE',  ( -9.986072641313858186E-17, 1.000000000000000000, 0.000000000000000000 ) ) ;
#869 = VECTOR ( 'NONE', #451, 1000.000000000000000 ) ;
#870 = AXIS2_PLACEMENT_3D ( 'NONE', #673, #748, #6 ) ;
#871 = DIRECTION ( 'NONE',  ( -0.000000000000000000, 0.000000000000000000, 1.000000000000000000 ) ) ;
ENDSEC;
END-ISO-10303-21;
