ISO-10303-21;
HEADER;
FILE_DESCRIPTION (( 'STEP AP203' ),
    '1' );
FILE_NAME ('microfluidic_20260510.step',
    '2026-06-05T03:32:56',
    ( '' ),
    ( '' ),
    'SwSTEP 2.0',
    'SolidWorks 2024',
    '' );
FILE_SCHEMA (( 'CONFIG_CONTROL_DESIGN' ));
ENDSEC;

DATA;
#1 = VERTEX_POINT ( 'NONE', #10 ) ;
#2 = EDGE_CURVE ( 'NONE', #74, #311, #237, .T. ) ;
#3 = CARTESIAN_POINT ( 'NONE',  ( -2.000000000000003553, 36.00000000000007105, 0.5000000000000000000 ) ) ;
#4 = ORIENTED_EDGE ( 'NONE', *, *, #192, .F. ) ;
#5 = APPROVAL_PERSON_ORGANIZATION ( #306, #458, #98 ) ;
#6 = AXIS2_PLACEMENT_3D ( 'NONE', #360, #119, #80 ) ;
#7 = CARTESIAN_POINT ( 'NONE',  ( -2.499999999999998668, 37.50000000000007105, 0.5000000000000000000 ) ) ;
#8 = DATE_AND_TIME ( #175, #441 ) ;
#9 = ADVANCED_FACE ( 'NONE', ( #361 ), #436, .T. ) ;
#10 = CARTESIAN_POINT ( 'NONE',  ( 5.000000000000009770, -37.49999999999992895, 0.5000000000000000000 ) ) ;
#11 = CC_DESIGN_PERSON_AND_ORGANIZATION_ASSIGNMENT ( #506, #26, ( #282 ) ) ;
#12 = CARTESIAN_POINT ( 'NONE',  ( 2.000000000000004441, -36.00000000000007105, 0.000000000000000000 ) ) ;
#13 = MECHANICAL_CONTEXT ( 'NONE', #454, 'mechanical' ) ;
#14 = VECTOR ( 'NONE', #353, 1000.000000000000000 ) ;
#15 = FACE_OUTER_BOUND ( 'NONE', #508, .T. ) ;
#16 = DIRECTION ( 'NONE',  ( 0.000000000000000000, 0.000000000000000000, 1.000000000000000000 ) ) ;
#17 = EDGE_CURVE ( 'NONE', #513, #194, #238, .T. ) ;
#18 = ORIENTED_EDGE ( 'NONE', *, *, #186, .T. ) ;
#19 = APPROVAL_ROLE ( '' ) ;
#20 = PLANE ( 'NONE',  #375 ) ;
#21 = ORIENTED_EDGE ( 'NONE', *, *, #229, .T. ) ;
#22 = PERSON_AND_ORGANIZATION_ROLE ( 'classification_officer' ) ;
#23 = AXIS2_PLACEMENT_3D ( 'NONE', #243, #281, #442 ) ;
#24 = AXIS2_PLACEMENT_3D ( 'NONE', #357, #307, #385 ) ;
#25 = DIRECTION ( 'NONE',  ( 0.000000000000000000, -0.000000000000000000, -1.000000000000000000 ) ) ;
#26 = PERSON_AND_ORGANIZATION_ROLE ( 'design_supplier' ) ;
#27 = LINE ( 'NONE', #340, #433 ) ;
#28 = ORIENTED_EDGE ( 'NONE', *, *, #443, .F. ) ;
#29 = PERSON_AND_ORGANIZATION ( #127, #313 ) ;
#30 = CC_DESIGN_DATE_AND_TIME_ASSIGNMENT ( #303, #254, ( #432 ) ) ;
#31 = DIRECTION ( 'NONE',  ( -0.000000000000000000, -0.000000000000000000, -1.000000000000000000 ) ) ;
#32 = ORIENTED_EDGE ( 'NONE', *, *, #148, .T. ) ;
#33 = CARTESIAN_POINT ( 'NONE',  ( 2.499999999999999112, 40.00000000000007105, 0.000000000000000000 ) ) ;
#34 = VECTOR ( 'NONE', #50, 1000.000000000000000 ) ;
#35 = ORIENTED_EDGE ( 'NONE', *, *, #443, .T. ) ;
#36 = CARTESIAN_POINT ( 'NONE',  ( 2.499999999999999556, 37.50000000000007105, 0.000000000000000000 ) ) ;
#37 = ORIENTED_EDGE ( 'NONE', *, *, #2, .F. ) ;
#38 = CC_DESIGN_PERSON_AND_ORGANIZATION_ASSIGNMENT ( #363, #325, ( #343 ) ) ;
#39 = DIRECTION ( 'NONE',  ( 1.000000000000000000, 0.000000000000000000, 0.000000000000000000 ) ) ;
#40 = ORIENTED_EDGE ( 'NONE', *, *, #427, .F. ) ;
#41 = CC_DESIGN_PERSON_AND_ORGANIZATION_ASSIGNMENT ( #29, #498, ( #282 ) ) ;
#42 = DIRECTION ( 'NONE',  ( -0.000000000000000000, -0.000000000000000000, -1.000000000000000000 ) ) ;
#43 = CLOSED_SHELL ( 'NONE', ( #220, #350, #9, #483, #389, #435, #53, #200, #421, #493, #382, #46, #83, #169 ) ) ;
#44 = ORIENTED_EDGE ( 'NONE', *, *, #165, .T. ) ;
#45 = AXIS2_PLACEMENT_3D ( 'NONE', #314, #185, #321 ) ;
#46 = ADVANCED_FACE ( 'NONE', ( #55 ), #90, .T. ) ;
#47 = ORIENTED_EDGE ( 'NONE', *, *, #502, .T. ) ;
#48 = CC_DESIGN_PERSON_AND_ORGANIZATION_ASSIGNMENT ( #184, #22, ( #432 ) ) ;
#49 = ORIENTED_EDGE ( 'NONE', *, *, #148, .F. ) ;
#50 = DIRECTION ( 'NONE',  ( 0.000000000000000000, 1.000000000000000000, 0.000000000000000000 ) ) ;
#51 = AXIS2_PLACEMENT_3D ( 'NONE', #149, #380, #39 ) ;
#52 = ORIENTED_EDGE ( 'NONE', *, *, #309, .T. ) ;
#53 = ADVANCED_FACE ( 'NONE', ( #396 ), #56, .T. ) ;
#54 =( NAMED_UNIT ( * ) SI_UNIT ( $, .STERADIAN. ) SOLID_ANGLE_UNIT ( ) );
#55 = FACE_OUTER_BOUND ( 'NONE', #406, .T. ) ;
#56 = CYLINDRICAL_SURFACE ( 'NONE', #23, 2.500000000000000888 ) ;
#57 = DIRECTION ( 'NONE',  ( 1.000000000000000000, 0.000000000000000000, 0.000000000000000000 ) ) ;
#58 = DIRECTION ( 'NONE',  ( 0.000000000000000000, -0.000000000000000000, -1.000000000000000000 ) ) ;
#59 = LINE ( 'NONE', #142, #355 ) ;
#60 = DIRECTION ( 'NONE',  ( -2.409338161078893757E-16, 1.000000000000000000, 0.000000000000000000 ) ) ;
#61 = EDGE_LOOP ( 'NONE', ( #152, #67, #112, #287 ) ) ;
#62 = AXIS2_PLACEMENT_3D ( 'NONE', #370, #244, #87 ) ;
#63 = DIRECTION ( 'NONE',  ( -0.000000000000000000, -0.000000000000000000, -1.000000000000000000 ) ) ;
#64 = ORIENTED_EDGE ( 'NONE', *, *, #124, .T. ) ;
#65 = CALENDAR_DATE ( 2026, 5, 6 ) ;
#66 = DIRECTION ( 'NONE',  ( 0.000000000000000000, 0.000000000000000000, 1.000000000000000000 ) ) ;
#67 = ORIENTED_EDGE ( 'NONE', *, *, #17, .T. ) ;
#68 = LINE ( 'NONE', #470, #105 ) ;
#69 = ORIENTED_EDGE ( 'NONE', *, *, #257, .T. ) ;
#70 = DIRECTION ( 'NONE',  ( -1.000000000000000000, 0.000000000000000000, 0.000000000000000000 ) ) ;
#71 = EDGE_CURVE ( 'NONE', #231, #335, #163, .T. ) ;
#72 = ORIENTED_EDGE ( 'NONE', *, *, #316, .F. ) ;
#73 = CARTESIAN_POINT ( 'NONE',  ( -2.499999999999999112, 40.00000000000007105, 0.000000000000000000 ) ) ;
#74 = VERTEX_POINT ( 'NONE', #12 ) ;
#75 = LINE ( 'NONE', #390, #326 ) ;
#76 = ORIENTED_EDGE ( 'NONE', *, *, #71, .T. ) ;
#77 = EDGE_CURVE ( 'NONE', #305, #141, #88, .T. ) ;
#78 = ORIENTED_EDGE ( 'NONE', *, *, #273, .F. ) ;
#79 = VECTOR ( 'NONE', #106, 1000.000000000000000 ) ;
#80 = DIRECTION ( 'NONE',  ( -1.000000000000000000, 0.000000000000000000, 0.000000000000000000 ) ) ;
#81 = LINE ( 'NONE', #236, #34 ) ;
#82 = CARTESIAN_POINT ( 'NONE',  ( 2.000000000000004441, -36.00000000000007105, 0.5000000000000000000 ) ) ;
#83 = ADVANCED_FACE ( 'NONE', ( #366 ), #170, .F. ) ;
#84 = CARTESIAN_POINT ( 'NONE',  ( 4.999999999999999112, 37.50000000000007105, 0.000000000000000000 ) ) ;
#85 = AXIS2_PLACEMENT_3D ( 'NONE', #487, #481, #320 ) ;
#86 = APPROVAL_PERSON_ORGANIZATION ( #485, #268, #19 ) ;
#87 = DIRECTION ( 'NONE',  ( 1.000000000000000000, 0.000000000000000000, 0.000000000000000000 ) ) ;
#88 = LINE ( 'NONE', #84, #93 ) ;
#89 = CARTESIAN_POINT ( 'NONE',  ( -1.999999999999986233, -36.00000000000007105, 0.5000000000000000000 ) ) ;
#90 = PLANE ( 'NONE',  #291 ) ;
#91 = DIRECTION ( 'NONE',  ( -1.000000000000000000, 0.000000000000000000, 0.000000000000000000 ) ) ;
#92 = LINE ( 'NONE', #297, #209 ) ;
#93 = VECTOR ( 'NONE', #403, 1000.000000000000000 ) ;
#94 = PERSON_AND_ORGANIZATION_ROLE ( 'creator' ) ;
#95 = VECTOR ( 'NONE', #412, 1000.000000000000000 ) ;
#96 = DIRECTION ( 'NONE',  ( -0.000000000000000000, -0.000000000000000000, -1.000000000000000000 ) ) ;
#97 = VERTEX_POINT ( 'NONE', #444 ) ;
#98 = APPROVAL_ROLE ( '' ) ;
#99 = FACE_OUTER_BOUND ( 'NONE', #262, .T. ) ;
#100 = EDGE_CURVE ( 'NONE', #479, #231, #153, .T. ) ;
#101 = ORIENTED_EDGE ( 'NONE', *, *, #2, .T. ) ;
#102 = APPLICATION_CONTEXT ( 'configuration controlled 3d designs of mechanical parts and assemblies' ) ;
#103 = LINE ( 'NONE', #339, #120 ) ;
#104 = PERSON_AND_ORGANIZATION ( #127, #313 ) ;
#105 = VECTOR ( 'NONE', #42, 1000.000000000000000 ) ;
#106 = DIRECTION ( 'NONE',  ( -1.000000000000000000, 0.000000000000000000, 0.000000000000000000 ) ) ;
#107 = ORIENTED_EDGE ( 'NONE', *, *, #186, .F. ) ;
#108 = PLANE ( 'NONE',  #398 ) ;
#109 = ORIENTED_EDGE ( 'NONE', *, *, #405, .F. ) ;
#110 = EDGE_CURVE ( 'NONE', #218, #115, #276, .T. ) ;
#111 = DIRECTION ( 'NONE',  ( -1.000000000000000000, 0.000000000000000000, 0.000000000000000000 ) ) ;
#112 = ORIENTED_EDGE ( 'NONE', *, *, #192, .T. ) ;
#113 = LINE ( 'NONE', #267, #14 ) ;
#114 = AXIS2_PLACEMENT_3D ( 'NONE', #310, #116, #264 ) ;
#115 = VERTEX_POINT ( 'NONE', #475 ) ;
#116 = DIRECTION ( 'NONE',  ( -0.000000000000000000, -0.000000000000000000, -1.000000000000000000 ) ) ;
#117 = ORIENTED_EDGE ( 'NONE', *, *, #249, .T. ) ;
#118 = EDGE_LOOP ( 'NONE', ( #256, #72, #431, #272 ) ) ;
#119 = DIRECTION ( 'NONE',  ( -0.000000000000000000, -0.000000000000000000, -1.000000000000000000 ) ) ;
#120 = VECTOR ( 'NONE', #300, 1000.000000000000000 ) ;
#121 = CC_DESIGN_APPROVAL ( #458, ( #432 ) ) ;
#122 = DIRECTION ( 'NONE',  ( 0.000000000000000000, 0.000000000000000000, 1.000000000000000000 ) ) ;
#123 = PLANE ( 'NONE',  #24 ) ;
#124 = EDGE_CURVE ( 'NONE', #460, #97, #197, .T. ) ;
#125 = CARTESIAN_POINT ( 'NONE',  ( 8.673617379884035472E-16, -36.00000000000007105, 0.5000000000000000000 ) ) ;
#126 = CARTESIAN_POINT ( 'NONE',  ( -2.499999999999989342, -39.99999999999992895, 0.5000000000000000000 ) ) ;
#127 = PERSON ( 'UNSPECIFIED', 'UNSPECIFIED', 'UNSPECIFIED', ('UNSPECIFIED'), ('UNSPECIFIED'), ('UNSPECIFIED') ) ;
#128 = DIRECTION ( 'NONE',  ( -1.000000000000000000, 0.000000000000000000, 0.000000000000000000 ) ) ;
#129 = AXIS2_PLACEMENT_3D ( 'NONE', #7, #394, #329 ) ;
#130 = AXIS2_PLACEMENT_3D ( 'NONE', #488, #365, #203 ) ;
#131 = APPROVAL_STATUS ( 'not_yet_approved' ) ;
#132 = CARTESIAN_POINT ( 'NONE',  ( 2.000000000000004441, -36.00000000000007105, 0.5000000000000000000 ) ) ;
#133 = EDGE_CURVE ( 'NONE', #513, #479, #81, .T. ) ;
#134 = CARTESIAN_POINT ( 'NONE',  ( 2.000000000000004885, 36.00000000000007105, 0.5000000000000000000 ) ) ;
#135 = CARTESIAN_POINT ( 'NONE',  ( -2.499999999999989342, -39.99999999999992895, 0.000000000000000000 ) ) ;
#136 =( LENGTH_UNIT ( ) NAMED_UNIT ( * ) SI_UNIT ( .MILLI., .METRE. ) );
#137 = CARTESIAN_POINT ( 'NONE',  ( -2.499999999999998668, 37.50000000000007105, 0.000000000000000000 ) ) ;
#138 = CARTESIAN_POINT ( 'NONE',  ( 2.500000000000009326, -39.99999999999992895, 0.000000000000000000 ) ) ;
#139 = VECTOR ( 'NONE', #496, 1000.000000000000000 ) ;
#140 = CARTESIAN_POINT ( 'NONE',  ( 2.500000000000009326, -39.99999999999992895, 0.5000000000000000000 ) ) ;
#141 = VERTEX_POINT ( 'NONE', #202 ) ;
#142 = CARTESIAN_POINT ( 'NONE',  ( 5.000000000000009770, -37.49999999999992895, 0.5000000000000000000 ) ) ;
#143 = DIRECTION ( 'NONE',  ( -1.000000000000000000, 0.000000000000000000, 0.000000000000000000 ) ) ;
#144 = SHAPE_DEFINITION_REPRESENTATION ( #251, #402 ) ;
#145 = CIRCLE ( 'NONE', #274, 2.500000000000001332 ) ;
#146 = CARTESIAN_POINT ( 'NONE',  ( 2.000000000000004885, 36.00000000000007105, 0.000000000000000000 ) ) ;
#147 = ORIENTED_EDGE ( 'NONE', *, *, #298, .F. ) ;
#148 = EDGE_CURVE ( 'NONE', #204, #218, #440, .T. ) ;
#149 = CARTESIAN_POINT ( 'NONE',  ( 8.673617379884035472E-16, 36.00000000000007105, 0.000000000000000000 ) ) ;
#150 = VERTEX_POINT ( 'NONE', #332 ) ;
#151 = DIRECTION ( 'NONE',  ( -0.000000000000000000, -0.000000000000000000, -1.000000000000000000 ) ) ;
#152 = ORIENTED_EDGE ( 'NONE', *, *, #133, .F. ) ;
#153 = CIRCLE ( 'NONE', #162, 2.000000000000003997 ) ;
#154 = EDGE_CURVE ( 'NONE', #1, #413, #145, .T. ) ;
#155 = FACE_OUTER_BOUND ( 'NONE', #253, .T. ) ;
#156 = AXIS2_PLACEMENT_3D ( 'NONE', #492, #211, #168 ) ;
#157 = CC_DESIGN_APPROVAL ( #268, ( #452 ) ) ;
#158 = ORIENTED_EDGE ( 'NONE', *, *, #511, .F. ) ;
#159 = CARTESIAN_POINT ( 'NONE',  ( 2.500000000000009326, -39.99999999999992895, 0.5000000000000000000 ) ) ;
#160 = ORIENTED_EDGE ( 'NONE', *, *, #100, .T. ) ;
#161 = DIRECTION ( 'NONE',  ( -0.000000000000000000, -0.000000000000000000, -1.000000000000000000 ) ) ;
#162 = AXIS2_PLACEMENT_3D ( 'NONE', #278, #122, #434 ) ;
#163 = LINE ( 'NONE', #3, #215 ) ;
#164 = VECTOR ( 'NONE', #422, 1000.000000000000000 ) ;
#165 = EDGE_CURVE ( 'NONE', #500, #228, #410, .T. ) ;
#166 = ORIENTED_EDGE ( 'NONE', *, *, #477, .T. ) ;
#167 = CARTESIAN_POINT ( 'NONE',  ( 2.000000000000004441, -36.00000000000007105, 0.000000000000000000 ) ) ;
#168 = DIRECTION ( 'NONE',  ( -1.000000000000000000, 0.000000000000000000, 0.000000000000000000 ) ) ;
#169 = ADVANCED_FACE ( 'NONE', ( #99 ), #20, .F. ) ;
#170 = CYLINDRICAL_SURFACE ( 'NONE', #85, 2.000000000000003997 ) ;
#171 = CIRCLE ( 'NONE', #224, 2.500000000000001332 ) ;
#172 = CARTESIAN_POINT ( 'NONE',  ( 2.500000000000009326, -39.99999999999992895, 0.000000000000000000 ) ) ;
#173 = APPLICATION_PROTOCOL_DEFINITION ( 'international standard', 'config_control_design', 1994, #102 ) ;
#174 = CARTESIAN_POINT ( 'NONE',  ( 2.500000000000009326, -39.99999999999992895, 0.5000000000000000000 ) ) ;
#175 = CALENDAR_DATE ( 2026, 5, 6 ) ;
#176 = CYLINDRICAL_SURFACE ( 'NONE', #187, 2.500000000000001332 ) ;
#177 = ORIENTED_EDGE ( 'NONE', *, *, #316, .T. ) ;
#178 = APPROVAL_DATE_TIME ( #296, #458 ) ;
#179 = CC_DESIGN_PERSON_AND_ORGANIZATION_ASSIGNMENT ( #482, #94, ( #452 ) ) ;
#180 = CIRCLE ( 'NONE', #62, 2.500000000000001332 ) ;
#181 = CARTESIAN_POINT ( 'NONE',  ( -2.499999999999989786, -37.49999999999992895, 0.000000000000000000 ) ) ;
#182 = EDGE_LOOP ( 'NONE', ( #354, #497, #35, #386 ) ) ;
#183 = LINE ( 'NONE', #250, #95 ) ;
#184 = PERSON_AND_ORGANIZATION ( #127, #313 ) ;
#185 = DIRECTION ( 'NONE',  ( -0.000000000000000000, 0.000000000000000000, -1.000000000000000000 ) ) ;
#186 = EDGE_CURVE ( 'NONE', #308, #115, #292, .T. ) ;
#187 = AXIS2_PLACEMENT_3D ( 'NONE', #489, #96, #499 ) ;
#188 = CARTESIAN_POINT ( 'NONE',  ( 2.500000000000008882, -37.49999999999992895, 0.000000000000000000 ) ) ;
#189 = EDGE_LOOP ( 'NONE', ( #430, #474, #299, #418 ) ) ;
#190 = LINE ( 'NONE', #227, #486 ) ;
#191 = ORIENTED_EDGE ( 'NONE', *, *, #205, .T. ) ;
#192 = EDGE_CURVE ( 'NONE', #194, #231, #491, .T. ) ;
#193 = CYLINDRICAL_SURFACE ( 'NONE', #450, 1.999999999999995337 ) ;
#194 = VERTEX_POINT ( 'NONE', #369 ) ;
#195 = MANIFOLD_SOLID_BREP ( '¶ñ®Æ-¦ùªø1', #43 ) ;
#196 = FACE_OUTER_BOUND ( 'NONE', #182, .T. ) ;
#197 = CIRCLE ( 'NONE', #6, 2.500000000000000888 ) ;
#198 = ORIENTED_EDGE ( 'NONE', *, *, #235, .T. ) ;
#199 = ORIENTED_EDGE ( 'NONE', *, *, #154, .T. ) ;
#200 = ADVANCED_FACE ( 'NONE', ( #374 ), #252, .T. ) ;
#201 = CARTESIAN_POINT ( 'NONE',  ( -4.999999999999999112, 37.50000000000007105, 0.5000000000000000000 ) ) ;
#202 = CARTESIAN_POINT ( 'NONE',  ( 5.000000000000009770, -37.49999999999992895, 0.000000000000000000 ) ) ;
#203 = DIRECTION ( 'NONE',  ( 1.000000000000000000, 0.000000000000000000, 0.000000000000000000 ) ) ;
#204 = VERTEX_POINT ( 'NONE', #214 ) ;
#205 = EDGE_CURVE ( 'NONE', #150, #228, #319, .T. ) ;
#206 = DIRECTION ( 'NONE',  ( 0.000000000000000000, 0.000000000000000000, 1.000000000000000000 ) ) ;
#207 =( NAMED_UNIT ( * ) PLANE_ANGLE_UNIT ( ) SI_UNIT ( $, .RADIAN. ) );
#208 = EDGE_LOOP ( 'NONE', ( #447, #383, #345, #69 ) ) ;
#209 = VECTOR ( 'NONE', #210, 1000.000000000000000 ) ;
#210 = DIRECTION ( 'NONE',  ( 1.156482317317871478E-16, -1.000000000000000000, 0.000000000000000000 ) ) ;
#211 = DIRECTION ( 'NONE',  ( -0.000000000000000000, 0.000000000000000000, -1.000000000000000000 ) ) ;
#212 = CARTESIAN_POINT ( 'NONE',  ( 2.499999999999999112, 40.00000000000007105, 0.000000000000000000 ) ) ;
#213 = EDGE_CURVE ( 'NONE', #513, #74, #103, .T. ) ;
#214 = CARTESIAN_POINT ( 'NONE',  ( -2.499999999999999112, 40.00000000000007105, 0.5000000000000000000 ) ) ;
#215 = VECTOR ( 'NONE', #161, 1000.000000000000000 ) ;
#216 = AXIS2_PLACEMENT_3D ( 'NONE', #453, #63, #377 ) ;
#217 = LINE ( 'NONE', #212, #384 ) ;
#218 = VERTEX_POINT ( 'NONE', #245 ) ;
#219 = CALENDAR_DATE ( 2026, 5, 6 ) ;
#220 = ADVANCED_FACE ( 'NONE', ( #15 ), #176, .T. ) ;
#221 = DIRECTION ( 'NONE',  ( 1.000000000000000000, 1.156482317317871725E-16, -0.000000000000000000 ) ) ;
#222 = CARTESIAN_POINT ( 'NONE',  ( 2.499999999999999112, 40.00000000000007105, 0.5000000000000000000 ) ) ;
#223 = ORIENTED_EDGE ( 'NONE', *, *, #330, .F. ) ;
#224 = AXIS2_PLACEMENT_3D ( 'NONE', #188, #348, #407 ) ;
#225 = DIRECTION ( 'NONE',  ( -0.000000000000000000, -0.000000000000000000, -1.000000000000000000 ) ) ;
#226 = EDGE_LOOP ( 'NONE', ( #341, #44, #364, #40, #107, #391, #352, #358 ) ) ;
#227 = CARTESIAN_POINT ( 'NONE',  ( -4.999999999999990230, -37.49999999999992895, 0.5000000000000000000 ) ) ;
#228 = VERTEX_POINT ( 'NONE', #135 ) ;
#229 = EDGE_CURVE ( 'NONE', #218, #269, #92, .T. ) ;
#230 = CARTESIAN_POINT ( 'NONE',  ( 8.673617379884035472E-16, -36.00000000000007105, 0.5000000000000000000 ) ) ;
#231 = VERTEX_POINT ( 'NONE', #290 ) ;
#232 = VECTOR ( 'NONE', #484, 1000.000000000000000 ) ;
#233 = VECTOR ( 'NONE', #91, 1000.000000000000000 ) ;
#234 = ORIENTED_EDGE ( 'NONE', *, *, #110, .F. ) ;
#235 = EDGE_CURVE ( 'NONE', #204, #308, #183, .T. ) ;
#236 = CARTESIAN_POINT ( 'NONE',  ( 2.000000000000004441, -36.00000000000007105, 0.5000000000000000000 ) ) ;
#237 = LINE ( 'NONE', #167, #232 ) ;
#238 = CIRCLE ( 'NONE', #408, 1.999999999999995337 ) ;
#239 = ORIENTED_EDGE ( 'NONE', *, *, #464, .F. ) ;
#240 = EDGE_CURVE ( 'NONE', #1, #141, #59, .T. ) ;
#241 = DIRECTION ( 'NONE',  ( -1.000000000000000000, 0.000000000000000000, 0.000000000000000000 ) ) ;
#242 = PLANE ( 'NONE',  #280 ) ;
#243 = CARTESIAN_POINT ( 'NONE',  ( -2.499999999999989786, -37.49999999999992895, 0.5000000000000000000 ) ) ;
#244 = DIRECTION ( 'NONE',  ( 0.000000000000000000, 0.000000000000000000, 1.000000000000000000 ) ) ;
#245 = CARTESIAN_POINT ( 'NONE',  ( -4.999999999999999112, 37.50000000000007105, 0.5000000000000000000 ) ) ;
#246 = ORIENTED_EDGE ( 'NONE', *, *, #395, .T. ) ;
#247 = CC_DESIGN_SECURITY_CLASSIFICATION ( #432, ( #282 ) ) ;
#248 = COORDINATED_UNIVERSAL_TIME_OFFSET ( 8, 0, .AHEAD. ) ;
#249 = EDGE_CURVE ( 'NONE', #372, #308, #217, .T. ) ;
#250 = CARTESIAN_POINT ( 'NONE',  ( -2.499999999999999112, 40.00000000000007105, 0.5000000000000000000 ) ) ;
#251 = PRODUCT_DEFINITION_SHAPE ( 'NONE', 'NONE',  #452 ) ;
#252 = PLANE ( 'NONE',  #346 ) ;
#253 = EDGE_LOOP ( 'NONE', ( #463, #28, #317, #423, #32, #21, #47, #78 ) ) ;
#254 = DATE_TIME_ROLE ( 'classification_date' ) ;
#255 = DIRECTION ( 'NONE',  ( -1.000000000000000000, 0.000000000000000000, 0.000000000000000000 ) ) ;
#256 = ORIENTED_EDGE ( 'NONE', *, *, #427, .T. ) ;
#257 = EDGE_CURVE ( 'NONE', #469, #228, #371, .T. ) ;
#258 = VECTOR ( 'NONE', #414, 1000.000000000000000 ) ;
#259 = CARTESIAN_POINT ( 'NONE',  ( -1.999999999999986233, -36.00000000000007105, 0.5000000000000000000 ) ) ;
#260 = COORDINATED_UNIVERSAL_TIME_OFFSET ( 8, 0, .AHEAD. ) ;
#261 = LINE ( 'NONE', #503, #164 ) ;
#262 = EDGE_LOOP ( 'NONE', ( #471, #505, #4, #166 ) ) ;
#263 = APPROVAL_STATUS ( 'not_yet_approved' ) ;
#264 = DIRECTION ( 'NONE',  ( -1.000000000000000000, 0.000000000000000000, 0.000000000000000000 ) ) ;
#265 = EDGE_LOOP ( 'NONE', ( #18, #234, #49, #198 ) ) ;
#266 = CIRCLE ( 'NONE', #216, 1.999999999999995337 ) ;
#267 = CARTESIAN_POINT ( 'NONE',  ( -1.999999999999986233, -36.00000000000007105, 0.000000000000000000 ) ) ;
#268 = APPROVAL ( #131, 'UNSPECIFIED' ) ;
#269 = VERTEX_POINT ( 'NONE', #334 ) ;
#270 = PLANE ( 'NONE',  #45 ) ;
#271 = ORIENTED_EDGE ( 'NONE', *, *, #362, .F. ) ;
#272 = ORIENTED_EDGE ( 'NONE', *, *, #110, .T. ) ;
#273 = EDGE_CURVE ( 'NONE', #413, #469, #461, .T. ) ;
#274 = AXIS2_PLACEMENT_3D ( 'NONE', #286, #446, #143 ) ;
#275 = DIRECTION ( 'NONE',  ( -0.000000000000000000, -0.000000000000000000, -1.000000000000000000 ) ) ;
#276 = LINE ( 'NONE', #201, #449 ) ;
#277 = FACE_OUTER_BOUND ( 'NONE', #118, .T. ) ;
#278 = CARTESIAN_POINT ( 'NONE',  ( 8.673617379884035472E-16, 36.00000000000007105, 0.5000000000000000000 ) ) ;
#279 = DATE_AND_TIME ( #333, #516 ) ;
#280 = AXIS2_PLACEMENT_3D ( 'NONE', #331, #397, #58 ) ;
#281 = DIRECTION ( 'NONE',  ( -0.000000000000000000, -0.000000000000000000, -1.000000000000000000 ) ) ;
#282 = PRODUCT_DEFINITION_FORMATION_WITH_SPECIFIED_SOURCE ( 'ANY', '', #343, .NOT_KNOWN. ) ;
#283 = DATE_TIME_ROLE ( 'creation_date' ) ;
#284 = CARTESIAN_POINT ( 'NONE',  ( 2.499999999999999556, 37.50000000000007105, 0.5000000000000000000 ) ) ;
#285 = FACE_BOUND ( 'NONE', #510, .T. ) ;
#286 = CARTESIAN_POINT ( 'NONE',  ( 2.500000000000008882, -37.49999999999992895, 0.5000000000000000000 ) ) ;
#287 = ORIENTED_EDGE ( 'NONE', *, *, #100, .F. ) ;
#288 = COORDINATED_UNIVERSAL_TIME_OFFSET ( 8, 0, .AHEAD. ) ;
#289 = EDGE_CURVE ( 'NONE', #74, #425, #266, .T. ) ;
#290 = CARTESIAN_POINT ( 'NONE',  ( -2.000000000000004441, 36.00000000000007816, 0.5000000000000000000 ) ) ;
#291 = AXIS2_PLACEMENT_3D ( 'NONE', #132, #241, #206 ) ;
#292 = CIRCLE ( 'NONE', #336, 2.500000000000001332 ) ;
#293 = FACE_OUTER_BOUND ( 'NONE', #473, .T. ) ;
#294 = DIRECTION ( 'NONE',  ( 1.000000000000000000, 0.000000000000000000, 0.000000000000000000 ) ) ;
#295 = EDGE_LOOP ( 'NONE', ( #271, #322, #64, #466 ) ) ;
#296 = DATE_AND_TIME ( #219, #515 ) ;
#297 = CARTESIAN_POINT ( 'NONE',  ( -4.999999999999999112, 37.50000000000007105, 0.5000000000000000000 ) ) ;
#298 = EDGE_CURVE ( 'NONE', #479, #311, #27, .T. ) ;
#299 = ORIENTED_EDGE ( 'NONE', *, *, #17, .F. ) ;
#300 = DIRECTION ( 'NONE',  ( -0.000000000000000000, -0.000000000000000000, -1.000000000000000000 ) ) ;
#301 = APPROVAL_PERSON_ORGANIZATION ( #104, #323, #337 ) ;
#302 = ORIENTED_EDGE ( 'NONE', *, *, #133, .T. ) ;
#303 = DATE_AND_TIME ( #419, #494 ) ;
#304 = CARTESIAN_POINT ( 'NONE',  ( 5.000000000000000888, 37.50000000000007105, 0.000000000000000000 ) ) ;
#305 = VERTEX_POINT ( 'NONE', #304 ) ;
#306 = PERSON_AND_ORGANIZATION ( #127, #313 ) ;
#307 = DIRECTION ( 'NONE',  ( 1.000000000000000000, 1.387778780781445676E-16, -0.000000000000000000 ) ) ;
#308 = VERTEX_POINT ( 'NONE', #73 ) ;
#309 = EDGE_CURVE ( 'NONE', #460, #372, #507, .T. ) ;
#310 = CARTESIAN_POINT ( 'NONE',  ( -2.499999999999998668, 37.50000000000007105, 0.5000000000000000000 ) ) ;
#311 = VERTEX_POINT ( 'NONE', #146 ) ;
#312 = VECTOR ( 'NONE', #60, 1000.000000000000000 ) ;
#313 = ORGANIZATION ( 'UNSPECIFIED', 'UNSPECIFIED', '' ) ;
#314 = CARTESIAN_POINT ( 'NONE',  ( 2.500000000000008882, -37.49999999999992895, 0.5000000000000000000 ) ) ;
#315 = ORIENTED_EDGE ( 'NONE', *, *, #298, .T. ) ;
#316 = EDGE_CURVE ( 'NONE', #269, #150, #190, .T. ) ;
#317 = ORIENTED_EDGE ( 'NONE', *, *, #124, .F. ) ;
#318 = DIRECTION ( 'NONE',  ( -0.000000000000000000, -0.000000000000000000, -1.000000000000000000 ) ) ;
#319 = CIRCLE ( 'NONE', #495, 2.500000000000001332 ) ;
#320 = DIRECTION ( 'NONE',  ( -1.000000000000000000, 0.000000000000000000, 0.000000000000000000 ) ) ;
#321 = DIRECTION ( 'NONE',  ( -1.000000000000000000, 0.000000000000000000, 0.000000000000000000 ) ) ;
#322 = ORIENTED_EDGE ( 'NONE', *, *, #309, .F. ) ;
#323 = APPROVAL ( #263, 'UNSPECIFIED' ) ;
#324 = ORIENTED_EDGE ( 'NONE', *, *, #257, .F. ) ;
#325 = PERSON_AND_ORGANIZATION_ROLE ( 'design_owner' ) ;
#326 = VECTOR ( 'NONE', #480, 1000.000000000000000 ) ;
#327 = DIRECTION ( 'NONE',  ( -1.000000000000000000, 0.000000000000000000, 0.000000000000000000 ) ) ;
#328 = APPLICATION_PROTOCOL_DEFINITION ( 'international standard', 'config_control_design', 1994, #454 ) ;
#329 = DIRECTION ( 'NONE',  ( 1.000000000000000000, 0.000000000000000000, 0.000000000000000000 ) ) ;
#330 = EDGE_CURVE ( 'NONE', #311, #335, #478, .T. ) ;
#331 = CARTESIAN_POINT ( 'NONE',  ( 2.499999999999999112, 40.00000000000007105, 0.5000000000000000000 ) ) ;
#332 = CARTESIAN_POINT ( 'NONE',  ( -4.999999999999990230, -37.49999999999992895, 0.000000000000000000 ) ) ;
#333 = CALENDAR_DATE ( 2026, 5, 6 ) ;
#334 = CARTESIAN_POINT ( 'NONE',  ( -4.999999999999990230, -37.49999999999992895, 0.5000000000000000000 ) ) ;
#335 = VERTEX_POINT ( 'NONE', #351 ) ;
#336 = AXIS2_PLACEMENT_3D ( 'NONE', #137, #66, #57 ) ;
#337 = APPROVAL_ROLE ( '' ) ;
#338 = EDGE_CURVE ( 'NONE', #97, #305, #468, .T. ) ;
#339 = CARTESIAN_POINT ( 'NONE',  ( 2.000000000000004441, -36.00000000000007105, 0.5000000000000000000 ) ) ;
#340 = CARTESIAN_POINT ( 'NONE',  ( 2.000000000000004885, 36.00000000000007105, 0.5000000000000000000 ) ) ;
#341 = ORIENTED_EDGE ( 'NONE', *, *, #464, .T. ) ;
#342 = COORDINATED_UNIVERSAL_TIME_OFFSET ( 8, 0, .AHEAD. ) ;
#343 = PRODUCT ( 'microfluidic_20260510', 'microfluidic_20260510', '', ( #13 ) ) ;
#344 = DIRECTION ( 'NONE',  ( -1.156482317317871725E-16, 1.000000000000000000, 0.000000000000000000 ) ) ;
#345 = ORIENTED_EDGE ( 'NONE', *, *, #273, .T. ) ;
#346 = AXIS2_PLACEMENT_3D ( 'NONE', #174, #420, #25 ) ;
#347 = APPROVAL_DATE_TIME ( #373, #323 ) ;
#348 = DIRECTION ( 'NONE',  ( -0.000000000000000000, -0.000000000000000000, -1.000000000000000000 ) ) ;
#349 = ORIENTED_EDGE ( 'NONE', *, *, #289, .F. ) ;
#350 = ADVANCED_FACE ( 'NONE', ( #196 ), #123, .T. ) ;
#351 = CARTESIAN_POINT ( 'NONE',  ( -2.000000000000003553, 36.00000000000007105, 0.000000000000000000 ) ) ;
#352 = ORIENTED_EDGE ( 'NONE', *, *, #362, .T. ) ;
#353 = DIRECTION ( 'NONE',  ( -2.409338161078893757E-16, 1.000000000000000000, 0.000000000000000000 ) ) ;
#354 = ORIENTED_EDGE ( 'NONE', *, *, #77, .F. ) ;
#355 = VECTOR ( 'NONE', #459, 1000.000000000000000 ) ;
#356 =( GEOMETRIC_REPRESENTATION_CONTEXT ( 3 ) GLOBAL_UNCERTAINTY_ASSIGNED_CONTEXT ( ( #401 ) ) GLOBAL_UNIT_ASSIGNED_CONTEXT ( ( #136, #207, #54 ) ) REPRESENTATION_CONTEXT ( 'NONE', 'WORKASPACE' ) );
#357 = CARTESIAN_POINT ( 'NONE',  ( 4.999999999999999112, 37.50000000000007105, 0.5000000000000000000 ) ) ;
#358 = ORIENTED_EDGE ( 'NONE', *, *, #77, .T. ) ;
#359 = ORIENTED_EDGE ( 'NONE', *, *, #330, .T. ) ;
#360 = CARTESIAN_POINT ( 'NONE',  ( 2.499999999999999556, 37.50000000000007105, 0.5000000000000000000 ) ) ;
#361 = FACE_OUTER_BOUND ( 'NONE', #295, .T. ) ;
#362 = EDGE_CURVE ( 'NONE', #372, #305, #514, .T. ) ;
#363 = PERSON_AND_ORGANIZATION ( #127, #313 ) ;
#364 = ORIENTED_EDGE ( 'NONE', *, *, #205, .F. ) ;
#365 = DIRECTION ( 'NONE',  ( 0.000000000000000000, 0.000000000000000000, 1.000000000000000000 ) ) ;
#366 = FACE_OUTER_BOUND ( 'NONE', #378, .T. ) ;
#367 = LOCAL_TIME ( 11, 32, 56.00000000000000000, #379 ) ;
#368 = CARTESIAN_POINT ( 'NONE',  ( -1.999999999999986233, -36.00000000000007105, 0.5000000000000000000 ) ) ;
#369 = CARTESIAN_POINT ( 'NONE',  ( -1.999999999999986233, -36.00000000000007105, 0.5000000000000000000 ) ) ;
#370 = CARTESIAN_POINT ( 'NONE',  ( -2.499999999999989786, -37.49999999999992895, 0.5000000000000000000 ) ) ;
#371 = LINE ( 'NONE', #416, #139 ) ;
#372 = VERTEX_POINT ( 'NONE', #33 ) ;
#373 = DATE_AND_TIME ( #65, #367 ) ;
#374 = FACE_OUTER_BOUND ( 'NONE', #208, .T. ) ;
#375 = AXIS2_PLACEMENT_3D ( 'NONE', #259, #501, #451 ) ;
#376 = APPROVAL_STATUS ( 'not_yet_approved' ) ;
#377 = DIRECTION ( 'NONE',  ( -1.000000000000000000, 0.000000000000000000, 0.000000000000000000 ) ) ;
#378 = EDGE_LOOP ( 'NONE', ( #223, #147, #160, #76 ) ) ;
#379 = COORDINATED_UNIVERSAL_TIME_OFFSET ( 8, 0, .AHEAD. ) ;
#380 = DIRECTION ( 'NONE',  ( 0.000000000000000000, 0.000000000000000000, 1.000000000000000000 ) ) ;
#381 = DIRECTION ( 'NONE',  ( -0.000000000000000000, -0.000000000000000000, -1.000000000000000000 ) ) ;
#382 = ADVANCED_FACE ( 'NONE', ( #509 ), #193, .F. ) ;
#383 = ORIENTED_EDGE ( 'NONE', *, *, #395, .F. ) ;
#384 = VECTOR ( 'NONE', #255, 1000.000000000000000 ) ;
#385 = DIRECTION ( 'NONE',  ( -1.387778780781445676E-16, 1.000000000000000000, 0.000000000000000000 ) ) ;
#386 = ORIENTED_EDGE ( 'NONE', *, *, #240, .T. ) ;
#387 = CARTESIAN_POINT ( 'NONE',  ( 5.000000000000000888, 37.50000000000007105, 0.5000000000000000000 ) ) ;
#388 = ORIENTED_EDGE ( 'NONE', *, *, #502, .F. ) ;
#389 = ADVANCED_FACE ( 'NONE', ( #465 ), #517, .T. ) ;
#390 = CARTESIAN_POINT ( 'NONE',  ( -4.999999999999999112, 37.50000000000007105, 0.000000000000000000 ) ) ;
#391 = ORIENTED_EDGE ( 'NONE', *, *, #249, .F. ) ;
#392 = CC_DESIGN_APPROVAL ( #323, ( #282 ) ) ;
#393 = EDGE_LOOP ( 'NONE', ( #191, #324, #388, #177 ) ) ;
#394 = DIRECTION ( 'NONE',  ( 0.000000000000000000, 0.000000000000000000, 1.000000000000000000 ) ) ;
#395 = EDGE_CURVE ( 'NONE', #413, #500, #68, .T. ) ;
#396 = FACE_OUTER_BOUND ( 'NONE', #393, .T. ) ;
#397 = DIRECTION ( 'NONE',  ( 0.000000000000000000, -1.000000000000000000, 0.000000000000000000 ) ) ;
#398 = AXIS2_PLACEMENT_3D ( 'NONE', #437, #221, #344 ) ;
#399 = ORIENTED_EDGE ( 'NONE', *, *, #240, .F. ) ;
#400 = CARTESIAN_POINT ( 'NONE',  ( 2.499999999999999112, 40.00000000000007105, 0.5000000000000000000 ) ) ;
#401 = UNCERTAINTY_MEASURE_WITH_UNIT (LENGTH_MEASURE( 1.000000000000000082E-05 ), #136, 'distance_accuracy_value', 'NONE');
#402 = ADVANCED_BREP_SHAPE_REPRESENTATION ( 'microfluidic_20260510', ( #195, #130 ), #356 ) ;
#403 = DIRECTION ( 'NONE',  ( 1.387778780781445676E-16, -1.000000000000000000, 0.000000000000000000 ) ) ;
#404 = PLANE ( 'NONE',  #156 ) ;
#405 = EDGE_CURVE ( 'NONE', #425, #335, #113, .T. ) ;
#406 = EDGE_LOOP ( 'NONE', ( #37, #428, #302, #315 ) ) ;
#407 = DIRECTION ( 'NONE',  ( -1.000000000000000000, 0.000000000000000000, 0.000000000000000000 ) ) ;
#408 = AXIS2_PLACEMENT_3D ( 'NONE', #125, #438, #327 ) ;
#409 = VECTOR ( 'NONE', #381, 1000.000000000000000 ) ;
#410 = LINE ( 'NONE', #172, #258 ) ;
#411 = DIRECTION ( 'NONE',  ( -0.000000000000000000, -0.000000000000000000, -1.000000000000000000 ) ) ;
#412 = DIRECTION ( 'NONE',  ( -0.000000000000000000, -0.000000000000000000, -1.000000000000000000 ) ) ;
#413 = VERTEX_POINT ( 'NONE', #159 ) ;
#414 = DIRECTION ( 'NONE',  ( -1.000000000000000000, 0.000000000000000000, 0.000000000000000000 ) ) ;
#415 = CC_DESIGN_DATE_AND_TIME_ASSIGNMENT ( #279, #283, ( #452 ) ) ;
#416 = CARTESIAN_POINT ( 'NONE',  ( -2.499999999999989342, -39.99999999999992895, 0.5000000000000000000 ) ) ;
#417 = VECTOR ( 'NONE', #426, 1000.000000000000000 ) ;
#418 = ORIENTED_EDGE ( 'NONE', *, *, #213, .T. ) ;
#419 = CALENDAR_DATE ( 2026, 5, 6 ) ;
#420 = DIRECTION ( 'NONE',  ( 0.000000000000000000, -1.000000000000000000, 0.000000000000000000 ) ) ;
#421 = ADVANCED_FACE ( 'NONE', ( #424, #155 ), #270, .F. ) ;
#422 = DIRECTION ( 'NONE',  ( 1.387778780781445676E-16, -1.000000000000000000, 0.000000000000000000 ) ) ;
#423 = ORIENTED_EDGE ( 'NONE', *, *, #511, .T. ) ;
#424 = FACE_BOUND ( 'NONE', #61, .T. ) ;
#425 = VERTEX_POINT ( 'NONE', #429 ) ;
#426 = DIRECTION ( 'NONE',  ( -0.000000000000000000, -0.000000000000000000, -1.000000000000000000 ) ) ;
#427 = EDGE_CURVE ( 'NONE', #115, #150, #75, .T. ) ;
#428 = ORIENTED_EDGE ( 'NONE', *, *, #213, .F. ) ;
#429 = CARTESIAN_POINT ( 'NONE',  ( -1.999999999999987121, -36.00000000000007105, 0.000000000000000000 ) ) ;
#430 = ORIENTED_EDGE ( 'NONE', *, *, #289, .T. ) ;
#431 = ORIENTED_EDGE ( 'NONE', *, *, #229, .F. ) ;
#432 = SECURITY_CLASSIFICATION ( '', '', #456 ) ;
#433 = VECTOR ( 'NONE', #225, 1000.000000000000000 ) ;
#434 = DIRECTION ( 'NONE',  ( 1.000000000000000000, 0.000000000000000000, 0.000000000000000000 ) ) ;
#435 = ADVANCED_FACE ( 'NONE', ( #277 ), #108, .F. ) ;
#436 = CYLINDRICAL_SURFACE ( 'NONE', #476, 2.500000000000000888 ) ;
#437 = CARTESIAN_POINT ( 'NONE',  ( -4.999999999999999112, 37.50000000000007105, 0.5000000000000000000 ) ) ;
#438 = DIRECTION ( 'NONE',  ( -0.000000000000000000, -0.000000000000000000, -1.000000000000000000 ) ) ;
#439 = LINE ( 'NONE', #89, #462 ) ;
#440 = CIRCLE ( 'NONE', #129, 2.500000000000001332 ) ;
#441 = LOCAL_TIME ( 11, 32, 56.00000000000000000, #288 ) ;
#442 = DIRECTION ( 'NONE',  ( -1.000000000000000000, 0.000000000000000000, 0.000000000000000000 ) ) ;
#443 = EDGE_CURVE ( 'NONE', #97, #1, #261, .T. ) ;
#444 = CARTESIAN_POINT ( 'NONE',  ( 5.000000000000000888, 37.50000000000007105, 0.5000000000000000000 ) ) ;
#445 = LINE ( 'NONE', #400, #233 ) ;
#446 = DIRECTION ( 'NONE',  ( -0.000000000000000000, -0.000000000000000000, -1.000000000000000000 ) ) ;
#447 = ORIENTED_EDGE ( 'NONE', *, *, #165, .F. ) ;
#448 = APPROVAL_DATE_TIME ( #8, #268 ) ;
#449 = VECTOR ( 'NONE', #318, 1000.000000000000000 ) ;
#450 = AXIS2_PLACEMENT_3D ( 'NONE', #230, #151, #70 ) ;
#451 = DIRECTION ( 'NONE',  ( 2.409338161078894250E-16, -1.000000000000000000, 0.000000000000000000 ) ) ;
#452 = PRODUCT_DEFINITION ( 'UNKNOWN', '', #282, #457 ) ;
#453 = CARTESIAN_POINT ( 'NONE',  ( 8.673617379884035472E-16, -36.00000000000007105, 0.000000000000000000 ) ) ;
#454 = APPLICATION_CONTEXT ( 'configuration controlled 3d designs of mechanical parts and assemblies' ) ;
#455 = ORIENTED_EDGE ( 'NONE', *, *, #235, .F. ) ;
#456 = SECURITY_CLASSIFICATION_LEVEL ( 'unclassified' ) ;
#457 = DESIGN_CONTEXT ( 'detailed design', #102, 'design' ) ;
#458 = APPROVAL ( #376, 'UNSPECIFIED' ) ;
#459 = DIRECTION ( 'NONE',  ( -0.000000000000000000, -0.000000000000000000, -1.000000000000000000 ) ) ;
#460 = VERTEX_POINT ( 'NONE', #222 ) ;
#461 = LINE ( 'NONE', #140, #79 ) ;
#462 = VECTOR ( 'NONE', #411, 1000.000000000000000 ) ;
#463 = ORIENTED_EDGE ( 'NONE', *, *, #154, .F. ) ;
#464 = EDGE_CURVE ( 'NONE', #141, #500, #171, .T. ) ;
#465 = FACE_OUTER_BOUND ( 'NONE', #265, .T. ) ;
#466 = ORIENTED_EDGE ( 'NONE', *, *, #338, .T. ) ;
#467 = PRODUCT_RELATED_PRODUCT_CATEGORY ( 'detail', '', ( #343 ) ) ;
#468 = LINE ( 'NONE', #387, #417 ) ;
#469 = VERTEX_POINT ( 'NONE', #126 ) ;
#470 = CARTESIAN_POINT ( 'NONE',  ( 2.500000000000009326, -39.99999999999992895, 0.5000000000000000000 ) ) ;
#471 = ORIENTED_EDGE ( 'NONE', *, *, #405, .T. ) ;
#472 = DIRECTION ( 'NONE',  ( -0.000000000000000000, -0.000000000000000000, -1.000000000000000000 ) ) ;
#473 = EDGE_LOOP ( 'NONE', ( #117, #455, #158, #52 ) ) ;
#474 = ORIENTED_EDGE ( 'NONE', *, *, #477, .F. ) ;
#475 = CARTESIAN_POINT ( 'NONE',  ( -4.999999999999999112, 37.50000000000007105, 0.000000000000000000 ) ) ;
#476 = AXIS2_PLACEMENT_3D ( 'NONE', #284, #275, #128 ) ;
#477 = EDGE_CURVE ( 'NONE', #194, #425, #439, .T. ) ;
#478 = CIRCLE ( 'NONE', #51, 2.000000000000003997 ) ;
#479 = VERTEX_POINT ( 'NONE', #134 ) ;
#480 = DIRECTION ( 'NONE',  ( 1.156482317317871478E-16, -1.000000000000000000, 0.000000000000000000 ) ) ;
#481 = DIRECTION ( 'NONE',  ( -0.000000000000000000, -0.000000000000000000, -1.000000000000000000 ) ) ;
#482 = PERSON_AND_ORGANIZATION ( #127, #313 ) ;
#483 = ADVANCED_FACE ( 'NONE', ( #293 ), #242, .F. ) ;
#484 = DIRECTION ( 'NONE',  ( 0.000000000000000000, 1.000000000000000000, 0.000000000000000000 ) ) ;
#485 = PERSON_AND_ORGANIZATION ( #127, #313 ) ;
#486 = VECTOR ( 'NONE', #472, 1000.000000000000000 ) ;
#487 = CARTESIAN_POINT ( 'NONE',  ( 8.673617379884035472E-16, 36.00000000000007105, 0.5000000000000000000 ) ) ;
#488 = CARTESIAN_POINT ( 'NONE',  ( 0.000000000000000000, 0.000000000000000000, 0.000000000000000000 ) ) ;
#489 = CARTESIAN_POINT ( 'NONE',  ( 2.500000000000008882, -37.49999999999992895, 0.5000000000000000000 ) ) ;
#490 = FACE_OUTER_BOUND ( 'NONE', #226, .T. ) ;
#491 = LINE ( 'NONE', #368, #312 ) ;
#492 = CARTESIAN_POINT ( 'NONE',  ( 2.500000000000008882, -37.49999999999992895, 0.000000000000000000 ) ) ;
#493 = ADVANCED_FACE ( 'NONE', ( #285, #490 ), #404, .T. ) ;
#494 = LOCAL_TIME ( 11, 32, 56.00000000000000000, #342 ) ;
#495 = AXIS2_PLACEMENT_3D ( 'NONE', #181, #16, #294 ) ;
#496 = DIRECTION ( 'NONE',  ( -0.000000000000000000, -0.000000000000000000, -1.000000000000000000 ) ) ;
#497 = ORIENTED_EDGE ( 'NONE', *, *, #338, .F. ) ;
#498 = PERSON_AND_ORGANIZATION_ROLE ( 'creator' ) ;
#499 = DIRECTION ( 'NONE',  ( -1.000000000000000000, 0.000000000000000000, 0.000000000000000000 ) ) ;
#500 = VERTEX_POINT ( 'NONE', #138 ) ;
#501 = DIRECTION ( 'NONE',  ( -1.000000000000000000, -2.409338161078894250E-16, 0.000000000000000000 ) ) ;
#502 = EDGE_CURVE ( 'NONE', #269, #469, #180, .T. ) ;
#503 = CARTESIAN_POINT ( 'NONE',  ( 4.999999999999999112, 37.50000000000007105, 0.5000000000000000000 ) ) ;
#504 = AXIS2_PLACEMENT_3D ( 'NONE', #36, #31, #111 ) ;
#505 = ORIENTED_EDGE ( 'NONE', *, *, #71, .F. ) ;
#506 = PERSON_AND_ORGANIZATION ( #127, #313 ) ;
#507 = LINE ( 'NONE', #512, #409 ) ;
#508 = EDGE_LOOP ( 'NONE', ( #239, #399, #199, #246 ) ) ;
#509 = FACE_OUTER_BOUND ( 'NONE', #189, .T. ) ;
#510 = EDGE_LOOP ( 'NONE', ( #349, #101, #359, #109 ) ) ;
#511 = EDGE_CURVE ( 'NONE', #460, #204, #445, .T. ) ;
#512 = CARTESIAN_POINT ( 'NONE',  ( 2.499999999999999112, 40.00000000000007105, 0.5000000000000000000 ) ) ;
#513 = VERTEX_POINT ( 'NONE', #82 ) ;
#514 = CIRCLE ( 'NONE', #504, 2.500000000000000888 ) ;
#515 = LOCAL_TIME ( 11, 32, 56.00000000000000000, #260 ) ;
#516 = LOCAL_TIME ( 11, 32, 56.00000000000000000, #248 ) ;
#517 = CYLINDRICAL_SURFACE ( 'NONE', #114, 2.500000000000001332 ) ;
ENDSEC;
END-ISO-10303-21;
