ISO-10303-21;
HEADER;
FILE_DESCRIPTION (( 'STEP AP203' ),
    '1' );
FILE_NAME ('Plastic bushing.step',
    '2026-06-05T03:32:58',
    ( '' ),
    ( '' ),
    'SwSTEP 2.0',
    'SolidWorks 2024',
    '' );
FILE_SCHEMA (( 'CONFIG_CONTROL_DESIGN' ));
ENDSEC;

DATA;
#1 = DIRECTION ( 'NONE',  ( -0.000000000000000000, 1.000000000000000000, -0.000000000000000000 ) ) ;
#2 = CARTESIAN_POINT ( 'NONE',  ( -2.499999999999997780, 2.600000000000000089, 0.000000000000000000 ) ) ;
#3 = ADVANCED_FACE ( 'NONE', ( #92 ), #125, .F. ) ;
#4 = DIRECTION ( 'NONE',  ( -0.000000000000000000, 1.000000000000000000, -0.000000000000000000 ) ) ;
#5 = ORIENTED_EDGE ( 'NONE', *, *, #188, .F. ) ;
#6 = LOCAL_TIME ( 11, 32, 58.00000000000000000, #295 ) ;
#7 = AXIS2_PLACEMENT_3D ( 'NONE', #209, #211, #323 ) ;
#8 = LINE ( 'NONE', #236, #143 ) ;
#9 = VERTEX_POINT ( 'NONE', #187 ) ;
#10 = PERSON_AND_ORGANIZATION_ROLE ( 'design_owner' ) ;
#11 = EDGE_CURVE ( 'NONE', #90, #97, #155, .T. ) ;
#12 = DIRECTION ( 'NONE',  ( 0.000000000000000000, 0.000000000000000000, 1.000000000000000000 ) ) ;
#13 = ORIENTED_EDGE ( 'NONE', *, *, #386, .F. ) ;
#14 = DIRECTION ( 'NONE',  ( 0.000000000000000000, 0.000000000000000000, 1.000000000000000000 ) ) ;
#15 = FACE_OUTER_BOUND ( 'NONE', #133, .T. ) ;
#16 = ORIENTED_EDGE ( 'NONE', *, *, #135, .T. ) ;
#17 = CC_DESIGN_APPROVAL ( #399, ( #185 ) ) ;
#18 = CARTESIAN_POINT ( 'NONE',  ( 0.000000000000000000, 2.099999999999999645, 0.000000000000000000 ) ) ;
#19 = CIRCLE ( 'NONE', #7, 2.999999999999998668 ) ;
#20 = AXIS2_PLACEMENT_3D ( 'NONE', #78, #208, #46 ) ;
#21 = PLANE ( 'NONE',  #341 ) ;
#22 = PERSON_AND_ORGANIZATION ( #182, #139 ) ;
#23 = VECTOR ( 'NONE', #384, 1000.000000000000000 ) ;
#24 = APPROVAL ( #197, 'UNSPECIFIED' ) ;
#25 = CALENDAR_DATE ( 2026, 5, 6 ) ;
#26 = CIRCLE ( 'NONE', #297, 7.000000000000000000 ) ;
#27 = LINE ( 'NONE', #93, #167 ) ;
#28 = SECURITY_CLASSIFICATION_LEVEL ( 'unclassified' ) ;
#29 = EDGE_CURVE ( 'NONE', #39, #161, #52, .T. ) ;
#30 = CARTESIAN_POINT ( 'NONE',  ( 0.000000000000000000, 2.600000000000000089, 0.000000000000000000 ) ) ;
#31 = DIRECTION ( 'NONE',  ( -0.000000000000000000, 1.000000000000000000, 0.000000000000000000 ) ) ;
#32 = VERTEX_POINT ( 'NONE', #344 ) ;
#33 = CARTESIAN_POINT ( 'NONE',  ( 0.000000000000000000, 3.545454545454545414, 0.000000000000000000 ) ) ;
#34 = VECTOR ( 'NONE', #119, 1000.000000000000000 ) ;
#35 = PRODUCT_RELATED_PRODUCT_CATEGORY ( 'detail', '', ( #180 ) ) ;
#36 = CARTESIAN_POINT ( 'NONE',  ( 0.000000000000000000, 3.545454545454545414, 0.000000000000000000 ) ) ;
#37 = CARTESIAN_POINT ( 'NONE',  ( -7.000000000000000888, 2.099999999999999645, 0.000000000000000000 ) ) ;
#38 = ORIENTED_EDGE ( 'NONE', *, *, #309, .F. ) ;
#39 = VERTEX_POINT ( 'NONE', #66 ) ;
#40 = FACE_OUTER_BOUND ( 'NONE', #94, .T. ) ;
#41 = EDGE_LOOP ( 'NONE', ( #45, #225 ) ) ;
#42 = DATE_TIME_ROLE ( 'creation_date' ) ;
#43 = AXIS2_PLACEMENT_3D ( 'NONE', #200, #358, #292 ) ;
#44 = CARTESIAN_POINT ( 'NONE',  ( 0.000000000000000000, -2.600000000000000089, 2.499999999999997780 ) ) ;
#45 = ORIENTED_EDGE ( 'NONE', *, *, #29, .T. ) ;
#46 = DIRECTION ( 'NONE',  ( 1.000000000000000000, 0.000000000000000000, 0.000000000000000000 ) ) ;
#47 = ADVANCED_FACE ( 'NONE', ( #198 ), #299, .T. ) ;
#48 = DIRECTION ( 'NONE',  ( -0.000000000000000000, 1.000000000000000000, -0.000000000000000000 ) ) ;
#49 = ORIENTED_EDGE ( 'NONE', *, *, #135, .F. ) ;
#50 = DIRECTION ( 'NONE',  ( -0.000000000000000000, 1.000000000000000000, -0.000000000000000000 ) ) ;
#51 = CARTESIAN_POINT ( 'NONE',  ( 3.061616997868380676E-16, -2.600000000000000089, -2.499999999999997780 ) ) ;
#52 = CIRCLE ( 'NONE', #391, 7.000000000000000000 ) ;
#53 = CLOSED_SHELL ( 'NONE', ( #3, #327, #142, #235, #178, #377, #47, #99, #194, #118, #151, #69 ) ) ;
#54 = CARTESIAN_POINT ( 'NONE',  ( 3.673940397442058389E-16, -2.100000000000000089, -2.999999999999998668 ) ) ;
#55 = COORDINATED_UNIVERSAL_TIME_OFFSET ( 8, 0, .AHEAD. ) ;
#56 = EDGE_CURVE ( 'NONE', #338, #9, #308, .T. ) ;
#57 = AXIS2_PLACEMENT_3D ( 'NONE', #251, #1, #91 ) ;
#58 = FACE_OUTER_BOUND ( 'NONE', #244, .T. ) ;
#59 = EDGE_LOOP ( 'NONE', ( #126, #221, #62, #281 ) ) ;
#60 = DIRECTION ( 'NONE',  ( -0.000000000000000000, 1.000000000000000000, -0.000000000000000000 ) ) ;
#61 = PRODUCT_DEFINITION ( 'UNKNOWN', '', #185, #193 ) ;
#62 = ORIENTED_EDGE ( 'NONE', *, *, #334, .T. ) ;
#63 = LOCAL_TIME ( 11, 32, 58.00000000000000000, #284 ) ;
#64 = DIRECTION ( 'NONE',  ( -0.000000000000000000, 1.000000000000000000, -0.000000000000000000 ) ) ;
#65 = DATE_AND_TIME ( #346, #389 ) ;
#66 = CARTESIAN_POINT ( 'NONE',  ( 0.000000000000000000, 2.600000000000000089, 7.000000000000000000 ) ) ;
#67 = PERSON_AND_ORGANIZATION ( #182, #139 ) ;
#68 = CYLINDRICAL_SURFACE ( 'NONE', #43, 6.999999999999999112 ) ;
#69 = ADVANCED_FACE ( 'NONE', ( #409, #273 ), #401, .T. ) ;
#70 = ORIENTED_EDGE ( 'NONE', *, *, #319, .F. ) ;
#71 = APPROVAL_STATUS ( 'not_yet_approved' ) ;
#72 = AXIS2_PLACEMENT_3D ( 'NONE', #394, #48, #289 ) ;
#73 = DIRECTION ( 'NONE',  ( -0.000000000000000000, 1.000000000000000000, -0.000000000000000000 ) ) ;
#74 = ORIENTED_EDGE ( 'NONE', *, *, #268, .F. ) ;
#75 = CARTESIAN_POINT ( 'NONE',  ( 0.000000000000000000, 3.545454545454545414, 7.000000000000000888 ) ) ;
#76 = CARTESIAN_POINT ( 'NONE',  ( 3.061616997868380676E-16, 3.545454545454545414, -2.499999999999997780 ) ) ;
#77 = ORIENTED_EDGE ( 'NONE', *, *, #29, .F. ) ;
#78 = CARTESIAN_POINT ( 'NONE',  ( 0.000000000000000000, 0.000000000000000000, 0.000000000000000000 ) ) ;
#79 = CARTESIAN_POINT ( 'NONE',  ( 0.000000000000000000, -2.100000000000000089, 0.000000000000000000 ) ) ;
#80 = DIRECTION ( 'NONE',  ( -0.000000000000000000, 1.000000000000000000, -0.000000000000000000 ) ) ;
#81 = AXIS2_PLACEMENT_3D ( 'NONE', #274, #64, #405 ) ;
#82 = EDGE_CURVE ( 'NONE', #169, #97, #124, .T. ) ;
#83 = CIRCLE ( 'NONE', #361, 7.000000000000000888 ) ;
#84 = DIRECTION ( 'NONE',  ( 0.000000000000000000, -1.000000000000000000, 0.000000000000000000 ) ) ;
#85 = DIRECTION ( 'NONE',  ( -0.000000000000000000, 1.000000000000000000, -0.000000000000000000 ) ) ;
#86 = DATE_AND_TIME ( #364, #164 ) ;
#87 = CC_DESIGN_SECURITY_CLASSIFICATION ( #146, ( #185 ) ) ;
#88 = CIRCLE ( 'NONE', #313, 2.499999999999997780 ) ;
#89 = DIRECTION ( 'NONE',  ( 0.000000000000000000, 0.000000000000000000, 1.000000000000000000 ) ) ;
#90 = VERTEX_POINT ( 'NONE', #216 ) ;
#91 = DIRECTION ( 'NONE',  ( 0.000000000000000000, 0.000000000000000000, 1.000000000000000000 ) ) ;
#92 = FACE_OUTER_BOUND ( 'NONE', #392, .T. ) ;
#93 = CARTESIAN_POINT ( 'NONE',  ( 0.000000000000000000, 3.545454545454545414, 6.999999999999999112 ) ) ;
#94 = EDGE_LOOP ( 'NONE', ( #275, #258, #77, #387 ) ) ;
#95 = AXIS2_PLACEMENT_3D ( 'NONE', #326, #325, #328 ) ;
#96 = CARTESIAN_POINT ( 'NONE',  ( 0.000000000000000000, 2.600000000000000089, 0.000000000000000000 ) ) ;
#97 = VERTEX_POINT ( 'NONE', #333 ) ;
#98 = DATE_AND_TIME ( #259, #363 ) ;
#99 = ADVANCED_FACE ( 'NONE', ( #58, #336 ), #132, .T. ) ;
#100 = CARTESIAN_POINT ( 'NONE',  ( 0.000000000000000000, -2.600000000000000089, 0.000000000000000000 ) ) ;
#101 = EDGE_LOOP ( 'NONE', ( #345, #196, #301, #307 ) ) ;
#102 = CALENDAR_DATE ( 2026, 5, 6 ) ;
#103 = DIRECTION ( 'NONE',  ( 0.000000000000000000, 0.000000000000000000, 1.000000000000000000 ) ) ;
#104 = EDGE_LOOP ( 'NONE', ( #74, #375, #352, #38 ) ) ;
#105 = PERSON_AND_ORGANIZATION ( #182, #139 ) ;
#106 = CARTESIAN_POINT ( 'NONE',  ( 3.673940397442058882E-16, 2.099999999999999645, -2.999999999999999112 ) ) ;
#107 = ORIENTED_EDGE ( 'NONE', *, *, #330, .T. ) ;
#108 = CC_DESIGN_DATE_AND_TIME_ASSIGNMENT ( #186, #366, ( #146 ) ) ;
#109 = FACE_OUTER_BOUND ( 'NONE', #59, .T. ) ;
#110 = CARTESIAN_POINT ( 'NONE',  ( 0.000000000000000000, 3.545454545454545414, 0.000000000000000000 ) ) ;
#111 = VECTOR ( 'NONE', #374, 1000.000000000000000 ) ;
#112 = AXIS2_PLACEMENT_3D ( 'NONE', #129, #257, #382 ) ;
#113 =( GEOMETRIC_REPRESENTATION_CONTEXT ( 3 ) GLOBAL_UNCERTAINTY_ASSIGNED_CONTEXT ( ( #360 ) ) GLOBAL_UNIT_ASSIGNED_CONTEXT ( ( #253, #203, #376 ) ) REPRESENTATION_CONTEXT ( 'NONE', 'WORKASPACE' ) );
#114 = CC_DESIGN_PERSON_AND_ORGANIZATION_ASSIGNMENT ( #170, #288, ( #185 ) ) ;
#115 = FACE_OUTER_BOUND ( 'NONE', #101, .T. ) ;
#116 = DIRECTION ( 'NONE',  ( 0.000000000000000000, 0.000000000000000000, 1.000000000000000000 ) ) ;
#117 = FACE_BOUND ( 'NONE', #306, .T. ) ;
#118 = ADVANCED_FACE ( 'NONE', ( #286, #168 ), #21, .T. ) ;
#119 = DIRECTION ( 'NONE',  ( -0.000000000000000000, 1.000000000000000000, -0.000000000000000000 ) ) ;
#120 = AXIS2_PLACEMENT_3D ( 'NONE', #36, #252, #371 ) ;
#121 = CARTESIAN_POINT ( 'NONE',  ( 0.000000000000000000, -2.600000000000000089, 0.000000000000000000 ) ) ;
#122 = VERTEX_POINT ( 'NONE', #106 ) ;
#123 = LINE ( 'NONE', #367, #111 ) ;
#124 = LINE ( 'NONE', #368, #266 ) ;
#125 = CYLINDRICAL_SURFACE ( 'NONE', #81, 2.499999999999997780 ) ;
#126 = ORIENTED_EDGE ( 'NONE', *, *, #82, .F. ) ;
#127 = PERSON_AND_ORGANIZATION ( #182, #139 ) ;
#128 = VECTOR ( 'NONE', #220, 1000.000000000000000 ) ;
#129 = CARTESIAN_POINT ( 'NONE',  ( 0.000000000000000000, 3.545454545454545414, 0.000000000000000000 ) ) ;
#130 = ORIENTED_EDGE ( 'NONE', *, *, #218, .T. ) ;
#131 = APPLICATION_PROTOCOL_DEFINITION ( 'international standard', 'config_control_design', 1994, #291 ) ;
#132 = PLANE ( 'NONE',  #351 ) ;
#133 = EDGE_LOOP ( 'NONE', ( #5, #152, #356, #383 ) ) ;
#134 = DIRECTION ( 'NONE',  ( 0.000000000000000000, -1.000000000000000000, 0.000000000000000000 ) ) ;
#135 = EDGE_CURVE ( 'NONE', #338, #380, #265, .T. ) ;
#136 = EDGE_LOOP ( 'NONE', ( #16, #107, #219, #201 ) ) ;
#137 = APPROVAL_PERSON_ORGANIZATION ( #230, #399, #166 ) ;
#138 = CIRCLE ( 'NONE', #179, 2.999999999999999112 ) ;
#139 = ORGANIZATION ( 'UNSPECIFIED', 'UNSPECIFIED', '' ) ;
#140 = DIRECTION ( 'NONE',  ( -0.000000000000000000, 1.000000000000000000, -0.000000000000000000 ) ) ;
#141 = CARTESIAN_POINT ( 'NONE',  ( 8.572527594031473190E-16, 2.600000000000000089, -7.000000000000000000 ) ) ;
#142 = ADVANCED_FACE ( 'NONE', ( #269 ), #282, .T. ) ;
#143 = VECTOR ( 'NONE', #205, 1000.000000000000000 ) ;
#144 = APPROVAL_STATUS ( 'not_yet_approved' ) ;
#145 = EDGE_CURVE ( 'NONE', #310, #264, #213, .T. ) ;
#146 = SECURITY_CLASSIFICATION ( '', '', #28 ) ;
#147 = AXIS2_PLACEMENT_3D ( 'NONE', #277, #337, #335 ) ;
#148 = DIRECTION ( 'NONE',  ( -0.000000000000000000, 1.000000000000000000, -0.000000000000000000 ) ) ;
#149 = CARTESIAN_POINT ( 'NONE',  ( 0.000000000000000000, 3.545454545454545414, 2.999999999999999112 ) ) ;
#150 = APPROVAL_ROLE ( '' ) ;
#151 = ADVANCED_FACE ( 'NONE', ( #15 ), #355, .F. ) ;
#152 = ORIENTED_EDGE ( 'NONE', *, *, #238, .F. ) ;
#153 = ORIENTED_EDGE ( 'NONE', *, *, #271, .T. ) ;
#154 = APPROVAL_PERSON_ORGANIZATION ( #22, #160, #150 ) ;
#155 = CIRCLE ( 'NONE', #378, 6.999999999999999112 ) ;
#156 = DIRECTION ( 'NONE',  ( 0.000000000000000000, 0.000000000000000000, 1.000000000000000000 ) ) ;
#157 = ORIENTED_EDGE ( 'NONE', *, *, #172, .F. ) ;
#158 = COORDINATED_UNIVERSAL_TIME_OFFSET ( 8, 0, .AHEAD. ) ;
#159 = EDGE_LOOP ( 'NONE', ( #13, #317 ) ) ;
#160 = APPROVAL ( #144, 'UNSPECIFIED' ) ;
#161 = VERTEX_POINT ( 'NONE', #141 ) ;
#162 = CARTESIAN_POINT ( 'NONE',  ( 0.000000000000000000, 2.099999999999999645, 0.000000000000000000 ) ) ;
#163 = CYLINDRICAL_SURFACE ( 'NONE', #112, 7.000000000000000888 ) ;
#164 = LOCAL_TIME ( 11, 32, 58.00000000000000000, #55 ) ;
#165 = ORIENTED_EDGE ( 'NONE', *, *, #212, .F. ) ;
#166 = APPROVAL_ROLE ( '' ) ;
#167 = VECTOR ( 'NONE', #365, 1000.000000000000000 ) ;
#168 = FACE_OUTER_BOUND ( 'NONE', #278, .T. ) ;
#169 = VERTEX_POINT ( 'NONE', #393 ) ;
#170 = PERSON_AND_ORGANIZATION ( #182, #139 ) ;
#171 = MANIFOLD_SOLID_BREP ( '±ÛÂà1', #53 ) ;
#172 = EDGE_CURVE ( 'NONE', #255, #264, #8, .T. ) ;
#173 = DIRECTION ( 'NONE',  ( 0.000000000000000000, 0.000000000000000000, 1.000000000000000000 ) ) ;
#174 = EDGE_LOOP ( 'NONE', ( #49, #342 ) ) ;
#175 = LINE ( 'NONE', #76, #370 ) ;
#176 = CC_DESIGN_APPROVAL ( #24, ( #61 ) ) ;
#177 = DIRECTION ( 'NONE',  ( -0.000000000000000000, 1.000000000000000000, -0.000000000000000000 ) ) ;
#178 = ADVANCED_FACE ( 'NONE', ( #385 ), #312, .T. ) ;
#179 = AXIS2_PLACEMENT_3D ( 'NONE', #18, #140, #173 ) ;
#180 = PRODUCT ( 'Plastic bushing', 'Plastic bushing', '', ( #256 ) ) ;
#181 = CC_DESIGN_PERSON_AND_ORGANIZATION_ASSIGNMENT ( #402, #241, ( #146 ) ) ;
#182 = PERSON ( 'UNSPECIFIED', 'UNSPECIFIED', 'UNSPECIFIED', ('UNSPECIFIED'), ('UNSPECIFIED'), ('UNSPECIFIED') ) ;
#183 = SHAPE_DEFINITION_REPRESENTATION ( #329, #340 ) ;
#184 = CARTESIAN_POINT ( 'NONE',  ( 0.000000000000000000, 2.600000000000000089, 0.000000000000000000 ) ) ;
#185 = PRODUCT_DEFINITION_FORMATION_WITH_SPECIFIED_SOURCE ( 'ANY', '', #180, .NOT_KNOWN. ) ;
#186 = DATE_AND_TIME ( #25, #6 ) ;
#187 = CARTESIAN_POINT ( 'NONE',  ( 0.000000000000000000, 2.099999999999999645, 2.999999999999999112 ) ) ;
#188 = EDGE_CURVE ( 'NONE', #229, #310, #175, .T. ) ;
#189 = EDGE_LOOP ( 'NONE', ( #165, #283 ) ) ;
#190 = DIRECTION ( 'NONE',  ( -0.000000000000000000, 1.000000000000000000, -0.000000000000000000 ) ) ;
#191 = CARTESIAN_POINT ( 'NONE',  ( 0.000000000000000000, -2.100000000000000089, 0.000000000000000000 ) ) ;
#192 = AXIS2_PLACEMENT_3D ( 'NONE', #162, #279, #318 ) ;
#193 = DESIGN_CONTEXT ( 'detailed design', #291, 'design' ) ;
#194 = ADVANCED_FACE ( 'NONE', ( #109 ), #68, .T. ) ;
#195 = ORIENTED_EDGE ( 'NONE', *, *, #260, .T. ) ;
#196 = ORIENTED_EDGE ( 'NONE', *, *, #82, .T. ) ;
#197 = APPROVAL_STATUS ( 'not_yet_approved' ) ;
#198 = FACE_OUTER_BOUND ( 'NONE', #233, .T. ) ;
#199 = ORIENTED_EDGE ( 'NONE', *, *, #296, .F. ) ;
#200 = CARTESIAN_POINT ( 'NONE',  ( 0.000000000000000000, 3.545454545454545414, 0.000000000000000000 ) ) ;
#201 = ORIENTED_EDGE ( 'NONE', *, *, #56, .F. ) ;
#202 = EDGE_CURVE ( 'NONE', #9, #122, #138, .T. ) ;
#203 =( NAMED_UNIT ( * ) PLANE_ANGLE_UNIT ( ) SI_UNIT ( $, .RADIAN. ) );
#204 = CIRCLE ( 'NONE', #270, 7.000000000000000000 ) ;
#205 = DIRECTION ( 'NONE',  ( -0.000000000000000000, 1.000000000000000000, -0.000000000000000000 ) ) ;
#206 = EDGE_LOOP ( 'NONE', ( #314, #195 ) ) ;
#207 = CARTESIAN_POINT ( 'NONE',  ( 0.000000000000000000, 3.545454545454545414, 0.000000000000000000 ) ) ;
#208 = DIRECTION ( 'NONE',  ( 0.000000000000000000, 0.000000000000000000, 1.000000000000000000 ) ) ;
#209 = CARTESIAN_POINT ( 'NONE',  ( 0.000000000000000000, -2.100000000000000089, 0.000000000000000000 ) ) ;
#210 = AXIS2_PLACEMENT_3D ( 'NONE', #207, #261, #350 ) ;
#211 = DIRECTION ( 'NONE',  ( -0.000000000000000000, 1.000000000000000000, -0.000000000000000000 ) ) ;
#212 = EDGE_CURVE ( 'NONE', #280, #32, #83, .T. ) ;
#213 = CIRCLE ( 'NONE', #72, 2.499999999999997780 ) ;
#214 = APPROVAL_DATE_TIME ( #86, #160 ) ;
#215 = DIRECTION ( 'NONE',  ( 0.000000000000000000, -0.000000000000000000, -1.000000000000000000 ) ) ;
#216 = CARTESIAN_POINT ( 'NONE',  ( 0.000000000000000000, -2.100000000000000089, 6.999999999999999112 ) ) ;
#217 = AXIS2_PLACEMENT_3D ( 'NONE', #240, #407, #89 ) ;
#218 = EDGE_CURVE ( 'NONE', #380, #338, #19, .T. ) ;
#219 = ORIENTED_EDGE ( 'NONE', *, *, #202, .F. ) ;
#220 = DIRECTION ( 'NONE',  ( -0.000000000000000000, 1.000000000000000000, -0.000000000000000000 ) ) ;
#221 = ORIENTED_EDGE ( 'NONE', *, *, #296, .T. ) ;
#222 = ORIENTED_EDGE ( 'NONE', *, *, #11, .T. ) ;
#223 = APPROVAL_DATE_TIME ( #98, #24 ) ;
#224 = DIRECTION ( 'NONE',  ( -0.000000000000000000, 1.000000000000000000, -0.000000000000000000 ) ) ;
#225 = ORIENTED_EDGE ( 'NONE', *, *, #309, .T. ) ;
#226 = DIRECTION ( 'NONE',  ( -0.000000000000000000, 1.000000000000000000, -0.000000000000000000 ) ) ;
#227 = ORIENTED_EDGE ( 'NONE', *, *, #319, .T. ) ;
#228 = CARTESIAN_POINT ( 'NONE',  ( -2.999999999999998668, -2.100000000000000089, 0.000000000000000000 ) ) ;
#229 = VERTEX_POINT ( 'NONE', #51 ) ;
#230 = PERSON_AND_ORGANIZATION ( #182, #139 ) ;
#231 = CIRCLE ( 'NONE', #147, 7.000000000000000000 ) ;
#232 = DIRECTION ( 'NONE',  ( 0.000000000000000000, 0.000000000000000000, 1.000000000000000000 ) ) ;
#233 = EDGE_LOOP ( 'NONE', ( #246, #130, #254, #70 ) ) ;
#234 = DIRECTION ( 'NONE',  ( 0.000000000000000000, 0.000000000000000000, 1.000000000000000000 ) ) ;
#235 = ADVANCED_FACE ( 'NONE', ( #40 ), #163, .T. ) ;
#236 = CARTESIAN_POINT ( 'NONE',  ( 0.000000000000000000, 3.545454545454545414, 2.499999999999997780 ) ) ;
#237 = CIRCLE ( 'NONE', #57, 2.999999999999999112 ) ;
#238 = EDGE_CURVE ( 'NONE', #255, #229, #272, .T. ) ;
#239 = APPROVAL_PERSON_ORGANIZATION ( #127, #24, #381 ) ;
#240 = CARTESIAN_POINT ( 'NONE',  ( 0.000000000000000000, -2.100000000000000089, 0.000000000000000000 ) ) ;
#241 = PERSON_AND_ORGANIZATION_ROLE ( 'classification_officer' ) ;
#242 = CARTESIAN_POINT ( 'NONE',  ( 0.000000000000000000, 2.099999999999999645, 7.000000000000000888 ) ) ;
#243 = CC_DESIGN_PERSON_AND_ORGANIZATION_ASSIGNMENT ( #322, #10, ( #180 ) ) ;
#244 = EDGE_LOOP ( 'NONE', ( #222, #153 ) ) ;
#245 = FACE_OUTER_BOUND ( 'NONE', #189, .T. ) ;
#246 = ORIENTED_EDGE ( 'NONE', *, *, #330, .F. ) ;
#247 = CIRCLE ( 'NONE', #192, 7.000000000000000888 ) ;
#248 = DIRECTION ( 'NONE',  ( 0.000000000000000000, 0.000000000000000000, 1.000000000000000000 ) ) ;
#249 = CC_DESIGN_PERSON_AND_ORGANIZATION_ASSIGNMENT ( #105, #354, ( #185 ) ) ;
#250 = APPLICATION_CONTEXT ( 'configuration controlled 3d designs of mechanical parts and assemblies' ) ;
#251 = CARTESIAN_POINT ( 'NONE',  ( 0.000000000000000000, 2.099999999999999645, 0.000000000000000000 ) ) ;
#252 = DIRECTION ( 'NONE',  ( -0.000000000000000000, 1.000000000000000000, -0.000000000000000000 ) ) ;
#253 =( LENGTH_UNIT ( ) NAMED_UNIT ( * ) SI_UNIT ( .MILLI., .METRE. ) );
#254 = ORIENTED_EDGE ( 'NONE', *, *, #56, .T. ) ;
#255 = VERTEX_POINT ( 'NONE', #44 ) ;
#256 = MECHANICAL_CONTEXT ( 'NONE', #250, 'mechanical' ) ;
#257 = DIRECTION ( 'NONE',  ( -0.000000000000000000, 1.000000000000000000, -0.000000000000000000 ) ) ;
#258 = ORIENTED_EDGE ( 'NONE', *, *, #268, .T. ) ;
#259 = CALENDAR_DATE ( 2026, 5, 6 ) ;
#260 = EDGE_CURVE ( 'NONE', #229, #255, #408, .T. ) ;
#261 = DIRECTION ( 'NONE',  ( -0.000000000000000000, 1.000000000000000000, -0.000000000000000000 ) ) ;
#262 = VERTEX_POINT ( 'NONE', #395 ) ;
#263 = CARTESIAN_POINT ( 'NONE',  ( -7.000000000000000000, -2.600000000000000089, 0.000000000000000000 ) ) ;
#264 = VERTEX_POINT ( 'NONE', #398 ) ;
#265 = CIRCLE ( 'NONE', #303, 2.999999999999998668 ) ;
#266 = VECTOR ( 'NONE', #85, 1000.000000000000000 ) ;
#267 = CARTESIAN_POINT ( 'NONE',  ( 0.000000000000000000, 2.099999999999999645, 0.000000000000000000 ) ) ;
#268 = EDGE_CURVE ( 'NONE', #32, #161, #362, .T. ) ;
#269 = FACE_OUTER_BOUND ( 'NONE', #136, .T. ) ;
#270 = AXIS2_PLACEMENT_3D ( 'NONE', #30, #60, #372 ) ;
#271 = EDGE_CURVE ( 'NONE', #97, #90, #324, .T. ) ;
#272 = CIRCLE ( 'NONE', #400, 2.499999999999997780 ) ;
#273 = FACE_BOUND ( 'NONE', #159, .T. ) ;
#274 = CARTESIAN_POINT ( 'NONE',  ( 0.000000000000000000, 3.545454545454545414, 0.000000000000000000 ) ) ;
#275 = ORIENTED_EDGE ( 'NONE', *, *, #212, .T. ) ;
#276 = AXIS2_PLACEMENT_3D ( 'NONE', #110, #177, #12 ) ;
#277 = CARTESIAN_POINT ( 'NONE',  ( 0.000000000000000000, -2.600000000000000089, 0.000000000000000000 ) ) ;
#278 = EDGE_LOOP ( 'NONE', ( #321, #199 ) ) ;
#279 = DIRECTION ( 'NONE',  ( -0.000000000000000000, 1.000000000000000000, -0.000000000000000000 ) ) ;
#280 = VERTEX_POINT ( 'NONE', #242 ) ;
#281 = ORIENTED_EDGE ( 'NONE', *, *, #271, .F. ) ;
#282 = CYLINDRICAL_SURFACE ( 'NONE', #210, 2.999999999999999112 ) ;
#283 = ORIENTED_EDGE ( 'NONE', *, *, #404, .F. ) ;
#284 = COORDINATED_UNIVERSAL_TIME_OFFSET ( 8, 0, .AHEAD. ) ;
#285 = EDGE_CURVE ( 'NONE', #262, #169, #231, .T. ) ;
#286 = FACE_BOUND ( 'NONE', #206, .T. ) ;
#287 = ORIENTED_EDGE ( 'NONE', *, *, #188, .T. ) ;
#288 = PERSON_AND_ORGANIZATION_ROLE ( 'creator' ) ;
#289 = DIRECTION ( 'NONE',  ( 0.000000000000000000, 0.000000000000000000, 1.000000000000000000 ) ) ;
#290 = LINE ( 'NONE', #75, #23 ) ;
#291 = APPLICATION_CONTEXT ( 'configuration controlled 3d designs of mechanical parts and assemblies' ) ;
#292 = DIRECTION ( 'NONE',  ( 0.000000000000000000, 0.000000000000000000, 1.000000000000000000 ) ) ;
#293 = AXIS2_PLACEMENT_3D ( 'NONE', #2, #31, #116 ) ;
#294 = DIRECTION ( 'NONE',  ( 0.000000000000000000, -0.000000000000000000, -1.000000000000000000 ) ) ;
#295 = COORDINATED_UNIVERSAL_TIME_OFFSET ( 8, 0, .AHEAD. ) ;
#296 = EDGE_CURVE ( 'NONE', #169, #262, #26, .T. ) ;
#297 = AXIS2_PLACEMENT_3D ( 'NONE', #121, #190, #298 ) ;
#298 = DIRECTION ( 'NONE',  ( 0.000000000000000000, 0.000000000000000000, 1.000000000000000000 ) ) ;
#299 = CYLINDRICAL_SURFACE ( 'NONE', #120, 2.999999999999999112 ) ;
#300 = CC_DESIGN_PERSON_AND_ORGANIZATION_ASSIGNMENT ( #67, #343, ( #61 ) ) ;
#301 = ORIENTED_EDGE ( 'NONE', *, *, #11, .F. ) ;
#302 = CYLINDRICAL_SURFACE ( 'NONE', #332, 6.999999999999999112 ) ;
#303 = AXIS2_PLACEMENT_3D ( 'NONE', #79, #316, #103 ) ;
#304 = ORIENTED_EDGE ( 'NONE', *, *, #145, .T. ) ;
#305 = PLANE ( 'NONE',  #397 ) ;
#306 = EDGE_LOOP ( 'NONE', ( #348, #227 ) ) ;
#307 = ORIENTED_EDGE ( 'NONE', *, *, #334, .F. ) ;
#308 = LINE ( 'NONE', #149, #34 ) ;
#309 = EDGE_CURVE ( 'NONE', #161, #39, #204, .T. ) ;
#310 = VERTEX_POINT ( 'NONE', #331 ) ;
#311 = COORDINATED_UNIVERSAL_TIME_OFFSET ( 8, 0, .AHEAD. ) ;
#312 = CYLINDRICAL_SURFACE ( 'NONE', #359, 7.000000000000000888 ) ;
#313 = AXIS2_PLACEMENT_3D ( 'NONE', #184, #148, #14 ) ;
#314 = ORIENTED_EDGE ( 'NONE', *, *, #238, .T. ) ;
#315 = APPROVAL_DATE_TIME ( #349, #399 ) ;
#316 = DIRECTION ( 'NONE',  ( -0.000000000000000000, 1.000000000000000000, -0.000000000000000000 ) ) ;
#317 = ORIENTED_EDGE ( 'NONE', *, *, #145, .F. ) ;
#318 = DIRECTION ( 'NONE',  ( 0.000000000000000000, 0.000000000000000000, 1.000000000000000000 ) ) ;
#319 = EDGE_CURVE ( 'NONE', #122, #9, #237, .T. ) ;
#320 = CARTESIAN_POINT ( 'NONE',  ( 0.000000000000000000, 3.545454545454545414, 0.000000000000000000 ) ) ;
#321 = ORIENTED_EDGE ( 'NONE', *, *, #285, .F. ) ;
#322 = PERSON_AND_ORGANIZATION ( #182, #139 ) ;
#323 = DIRECTION ( 'NONE',  ( 0.000000000000000000, 0.000000000000000000, 1.000000000000000000 ) ) ;
#324 = CIRCLE ( 'NONE', #217, 6.999999999999999112 ) ;
#325 = DIRECTION ( 'NONE',  ( -0.000000000000000000, 1.000000000000000000, -0.000000000000000000 ) ) ;
#326 = CARTESIAN_POINT ( 'NONE',  ( 0.000000000000000000, -2.600000000000000089, 0.000000000000000000 ) ) ;
#327 = ADVANCED_FACE ( 'NONE', ( #115 ), #302, .T. ) ;
#328 = DIRECTION ( 'NONE',  ( 0.000000000000000000, 0.000000000000000000, 1.000000000000000000 ) ) ;
#329 = PRODUCT_DEFINITION_SHAPE ( 'NONE', 'NONE',  #61 ) ;
#330 = EDGE_CURVE ( 'NONE', #380, #122, #123, .T. ) ;
#331 = CARTESIAN_POINT ( 'NONE',  ( 3.061616997868380676E-16, 2.600000000000000089, -2.499999999999997780 ) ) ;
#332 = AXIS2_PLACEMENT_3D ( 'NONE', #33, #369, #156 ) ;
#333 = CARTESIAN_POINT ( 'NONE',  ( 8.572527594031472204E-16, -2.100000000000000089, -6.999999999999999112 ) ) ;
#334 = EDGE_CURVE ( 'NONE', #262, #90, #27, .T. ) ;
#335 = DIRECTION ( 'NONE',  ( 0.000000000000000000, 0.000000000000000000, 1.000000000000000000 ) ) ;
#336 = FACE_BOUND ( 'NONE', #174, .T. ) ;
#337 = DIRECTION ( 'NONE',  ( -0.000000000000000000, 1.000000000000000000, -0.000000000000000000 ) ) ;
#338 = VERTEX_POINT ( 'NONE', #403 ) ;
#339 = CARTESIAN_POINT ( 'NONE',  ( 8.572527594031474176E-16, 3.545454545454545414, -7.000000000000000888 ) ) ;
#340 = ADVANCED_BREP_SHAPE_REPRESENTATION ( 'Plastic bushing', ( #171, #20 ), #113 ) ;
#341 = AXIS2_PLACEMENT_3D ( 'NONE', #263, #134, #294 ) ;
#342 = ORIENTED_EDGE ( 'NONE', *, *, #218, .F. ) ;
#343 = PERSON_AND_ORGANIZATION_ROLE ( 'creator' ) ;
#344 = CARTESIAN_POINT ( 'NONE',  ( 8.572527594031474176E-16, 2.099999999999999645, -7.000000000000000888 ) ) ;
#345 = ORIENTED_EDGE ( 'NONE', *, *, #285, .T. ) ;
#346 = CALENDAR_DATE ( 2026, 5, 6 ) ;
#347 = DIRECTION ( 'NONE',  ( 0.000000000000000000, 0.000000000000000000, 1.000000000000000000 ) ) ;
#348 = ORIENTED_EDGE ( 'NONE', *, *, #202, .T. ) ;
#349 = DATE_AND_TIME ( #102, #63 ) ;
#350 = DIRECTION ( 'NONE',  ( 0.000000000000000000, 0.000000000000000000, 1.000000000000000000 ) ) ;
#351 = AXIS2_PLACEMENT_3D ( 'NONE', #228, #390, #232 ) ;
#352 = ORIENTED_EDGE ( 'NONE', *, *, #396, .T. ) ;
#353 = CC_DESIGN_DATE_AND_TIME_ASSIGNMENT ( #65, #42, ( #61 ) ) ;
#354 = PERSON_AND_ORGANIZATION_ROLE ( 'design_supplier' ) ;
#355 = CYLINDRICAL_SURFACE ( 'NONE', #276, 2.499999999999997780 ) ;
#356 = ORIENTED_EDGE ( 'NONE', *, *, #172, .T. ) ;
#357 = DIRECTION ( 'NONE',  ( 0.000000000000000000, 0.000000000000000000, 1.000000000000000000 ) ) ;
#358 = DIRECTION ( 'NONE',  ( -0.000000000000000000, 1.000000000000000000, -0.000000000000000000 ) ) ;
#359 = AXIS2_PLACEMENT_3D ( 'NONE', #320, #73, #234 ) ;
#360 = UNCERTAINTY_MEASURE_WITH_UNIT (LENGTH_MEASURE( 1.000000000000000082E-05 ), #253, 'distance_accuracy_value', 'NONE');
#361 = AXIS2_PLACEMENT_3D ( 'NONE', #267, #80, #357 ) ;
#362 = LINE ( 'NONE', #339, #128 ) ;
#363 = LOCAL_TIME ( 11, 32, 58.00000000000000000, #158 ) ;
#364 = CALENDAR_DATE ( 2026, 5, 6 ) ;
#365 = DIRECTION ( 'NONE',  ( -0.000000000000000000, 1.000000000000000000, -0.000000000000000000 ) ) ;
#366 = DATE_TIME_ROLE ( 'classification_date' ) ;
#367 = CARTESIAN_POINT ( 'NONE',  ( 3.673940397442058882E-16, 3.545454545454545414, -2.999999999999999112 ) ) ;
#368 = CARTESIAN_POINT ( 'NONE',  ( 8.572527594031472204E-16, 3.545454545454545414, -6.999999999999999112 ) ) ;
#369 = DIRECTION ( 'NONE',  ( -0.000000000000000000, 1.000000000000000000, -0.000000000000000000 ) ) ;
#370 = VECTOR ( 'NONE', #50, 1000.000000000000000 ) ;
#371 = DIRECTION ( 'NONE',  ( 0.000000000000000000, 0.000000000000000000, 1.000000000000000000 ) ) ;
#372 = DIRECTION ( 'NONE',  ( 0.000000000000000000, 0.000000000000000000, 1.000000000000000000 ) ) ;
#373 = ORIENTED_EDGE ( 'NONE', *, *, #260, .F. ) ;
#374 = DIRECTION ( 'NONE',  ( -0.000000000000000000, 1.000000000000000000, -0.000000000000000000 ) ) ;
#375 = ORIENTED_EDGE ( 'NONE', *, *, #404, .T. ) ;
#376 =( NAMED_UNIT ( * ) SI_UNIT ( $, .STERADIAN. ) SOLID_ANGLE_UNIT ( ) );
#377 = ADVANCED_FACE ( 'NONE', ( #117, #245 ), #305, .T. ) ;
#378 = AXIS2_PLACEMENT_3D ( 'NONE', #191, #4, #379 ) ;
#379 = DIRECTION ( 'NONE',  ( 0.000000000000000000, 0.000000000000000000, 1.000000000000000000 ) ) ;
#380 = VERTEX_POINT ( 'NONE', #54 ) ;
#381 = APPROVAL_ROLE ( '' ) ;
#382 = DIRECTION ( 'NONE',  ( 0.000000000000000000, 0.000000000000000000, 1.000000000000000000 ) ) ;
#383 = ORIENTED_EDGE ( 'NONE', *, *, #386, .T. ) ;
#384 = DIRECTION ( 'NONE',  ( -0.000000000000000000, 1.000000000000000000, -0.000000000000000000 ) ) ;
#385 = FACE_OUTER_BOUND ( 'NONE', #104, .T. ) ;
#386 = EDGE_CURVE ( 'NONE', #264, #310, #88, .T. ) ;
#387 = ORIENTED_EDGE ( 'NONE', *, *, #396, .F. ) ;
#388 = APPLICATION_PROTOCOL_DEFINITION ( 'international standard', 'config_control_design', 1994, #250 ) ;
#389 = LOCAL_TIME ( 11, 32, 58.00000000000000000, #311 ) ;
#390 = DIRECTION ( 'NONE',  ( -0.000000000000000000, 1.000000000000000000, 0.000000000000000000 ) ) ;
#391 = AXIS2_PLACEMENT_3D ( 'NONE', #96, #224, #248 ) ;
#392 = EDGE_LOOP ( 'NONE', ( #373, #287, #304, #157 ) ) ;
#393 = CARTESIAN_POINT ( 'NONE',  ( 8.572527594031474176E-16, -2.600000000000000089, -7.000000000000000888 ) ) ;
#394 = CARTESIAN_POINT ( 'NONE',  ( 0.000000000000000000, 2.600000000000000089, 0.000000000000000000 ) ) ;
#395 = CARTESIAN_POINT ( 'NONE',  ( 0.000000000000000000, -2.600000000000000089, 7.000000000000000000 ) ) ;
#396 = EDGE_CURVE ( 'NONE', #280, #39, #290, .T. ) ;
#397 = AXIS2_PLACEMENT_3D ( 'NONE', #37, #84, #215 ) ;
#398 = CARTESIAN_POINT ( 'NONE',  ( 0.000000000000000000, 2.600000000000000089, 2.499999999999997780 ) ) ;
#399 = APPROVAL ( #71, 'UNSPECIFIED' ) ;
#400 = AXIS2_PLACEMENT_3D ( 'NONE', #100, #226, #347 ) ;
#401 = PLANE ( 'NONE',  #293 ) ;
#402 = PERSON_AND_ORGANIZATION ( #182, #139 ) ;
#403 = CARTESIAN_POINT ( 'NONE',  ( 0.000000000000000000, -2.100000000000000089, 2.999999999999998668 ) ) ;
#404 = EDGE_CURVE ( 'NONE', #32, #280, #247, .T. ) ;
#405 = DIRECTION ( 'NONE',  ( 0.000000000000000000, 0.000000000000000000, 1.000000000000000000 ) ) ;
#406 = CC_DESIGN_APPROVAL ( #160, ( #146 ) ) ;
#407 = DIRECTION ( 'NONE',  ( -0.000000000000000000, 1.000000000000000000, -0.000000000000000000 ) ) ;
#408 = CIRCLE ( 'NONE', #95, 2.499999999999997780 ) ;
#409 = FACE_OUTER_BOUND ( 'NONE', #41, .T. ) ;
ENDSEC;
END-ISO-10303-21;
