ISO-10303-21;
HEADER;
FILE_DESCRIPTION (( 'STEP AP203' ),
    '1' );
FILE_NAME ('Separator_lever.step',
    '2026-06-05T03:32:59',
    ( '' ),
    ( '' ),
    'SwSTEP 2.0',
    'SolidWorks 2024',
    '' );
FILE_SCHEMA (( 'CONFIG_CONTROL_DESIGN' ));
ENDSEC;

DATA;
#1 = CARTESIAN_POINT ( 'NONE',  ( 0.000000000000000000, 0.000000000000000000, -28.99999999999999645 ) ) ;
#2 = VERTEX_POINT ( 'NONE', #295 ) ;
#3 = DIRECTION ( 'NONE',  ( 1.000000000000000000, 0.000000000000000000, 0.000000000000000000 ) ) ;
#4 = EDGE_CURVE ( 'NONE', #155, #443, #294, .T. ) ;
#5 = CARTESIAN_POINT ( 'NONE',  ( 0.000000000000000000, 0.000000000000000000, 130.3677417442229967 ) ) ;
#6 = ORIENTED_EDGE ( 'NONE', *, *, #156, .F. ) ;
#7 = CARTESIAN_POINT ( 'NONE',  ( -4.772727272727273373, 5.844905177748732213E-16, 129.7330035604153124 ) ) ;
#8 = ORIENTED_EDGE ( 'NONE', *, *, #168, .F. ) ;
#9 = DIRECTION ( 'NONE',  ( -1.000000000000000000, 0.000000000000000000, 0.000000000000000000 ) ) ;
#10 =( GEOMETRIC_REPRESENTATION_CONTEXT ( 3 ) GLOBAL_UNCERTAINTY_ASSIGNED_CONTEXT ( ( #247 ) ) GLOBAL_UNIT_ASSIGNED_CONTEXT ( ( #399, #62, #13 ) ) REPRESENTATION_CONTEXT ( 'NONE', 'WORKASPACE' ) );
#11 = CIRCLE ( 'NONE', #340, 2.500000000000000000 ) ;
#12 = DIRECTION ( 'NONE',  ( -0.000000000000000000, -0.000000000000000000, -1.000000000000000000 ) ) ;
#13 =( NAMED_UNIT ( * ) SI_UNIT ( $, .STERADIAN. ) SOLID_ANGLE_UNIT ( ) );
#14 = DIRECTION ( 'NONE',  ( -1.000000000000000000, 0.000000000000000000, 0.000000000000000000 ) ) ;
#15 = ADVANCED_FACE ( 'NONE', ( #564 ), #134, .F. ) ;
#16 = FACE_OUTER_BOUND ( 'NONE', #495, .T. ) ;
#17 = APPROVAL_ROLE ( '' ) ;
#18 = ORIENTED_EDGE ( 'NONE', *, *, #369, .T. ) ;
#19 = DIRECTION ( 'NONE',  ( 0.000000000000000000, 0.000000000000000000, 1.000000000000000000 ) ) ;
#20 = CC_DESIGN_PERSON_AND_ORGANIZATION_ASSIGNMENT ( #516, #380, ( #406 ) ) ;
#21 = DIRECTION ( 'NONE',  ( -1.000000000000000000, 0.000000000000000000, 0.000000000000000000 ) ) ;
#22 = DATE_AND_TIME ( #29, #452 ) ;
#23 = CARTESIAN_POINT ( 'NONE',  ( 4.000000000000000000, 0.000000000000000000, 159.0000000000000000 ) ) ;
#24 = TOROIDAL_SURFACE ( 'NONE', #274, 4.000000000000000000, 1.000000000000000000 ) ;
#25 = LINE ( 'NONE', #206, #243 ) ;
#26 = AXIS2_PLACEMENT_3D ( 'NONE', #42, #221, #251 ) ;
#27 = AXIS2_PLACEMENT_3D ( 'NONE', #5, #361, #541 ) ;
#28 = EDGE_LOOP ( 'NONE', ( #186, #508, #181, #393 ) ) ;
#29 = CALENDAR_DATE ( 2026, 5, 6 ) ;
#30 = EDGE_CURVE ( 'NONE', #447, #275, #466, .T. ) ;
#31 = DATE_TIME_ROLE ( 'creation_date' ) ;
#32 = CARTESIAN_POINT ( 'NONE',  ( 0.000000000000000000, 0.000000000000000000, 129.7330035604153124 ) ) ;
#33 = APPLICATION_CONTEXT ( 'configuration controlled 3d designs of mechanical parts and assemblies' ) ;
#34 = CIRCLE ( 'NONE', #442, 4.772727272727275150 ) ;
#35 = EDGE_CURVE ( 'NONE', #363, #443, #409, .T. ) ;
#36 = CARTESIAN_POINT ( 'NONE',  ( 0.000000000000000000, 0.000000000000000000, 130.3677417442229967 ) ) ;
#37 = CC_DESIGN_DATE_AND_TIME_ASSIGNMENT ( #22, #31, ( #48 ) ) ;
#38 = DIRECTION ( 'NONE',  ( 1.000000000000000000, 0.000000000000000000, 0.000000000000000000 ) ) ;
#39 = CARTESIAN_POINT ( 'NONE',  ( -4.000000000000000000, 4.898587196589412829E-16, -0.3677417442229952704 ) ) ;
#40 = PRODUCT_DEFINITION_FORMATION_WITH_SPECIFIED_SOURCE ( 'ANY', '', #514, .NOT_KNOWN. ) ;
#41 = AXIS2_PLACEMENT_3D ( 'NONE', #61, #460, #417 ) ;
#42 = CARTESIAN_POINT ( 'NONE',  ( -4.000000000000000000, 0.000000000000000000, 130.3677417442229967 ) ) ;
#43 = DIRECTION ( 'NONE',  ( -0.000000000000000000, -0.000000000000000000, 1.000000000000000000 ) ) ;
#44 = EDGE_CURVE ( 'NONE', #321, #46, #277, .T. ) ;
#45 = CARTESIAN_POINT ( 'NONE',  ( 0.000000000000000000, 0.000000000000000000, 159.0000000000000000 ) ) ;
#46 = VERTEX_POINT ( 'NONE', #415 ) ;
#47 = DATE_AND_TIME ( #437, #118 ) ;
#48 = PRODUCT_DEFINITION ( 'UNKNOWN', '', #40, #301 ) ;
#49 = ORIENTED_EDGE ( 'NONE', *, *, #450, .T. ) ;
#50 = CARTESIAN_POINT ( 'NONE',  ( 4.000000000000000000, 4.898587196589412829E-16, -28.99999999999999645 ) ) ;
#51 = AXIS2_PLACEMENT_3D ( 'NONE', #583, #101, #92 ) ;
#52 = FACE_OUTER_BOUND ( 'NONE', #351, .T. ) ;
#53 = AXIS2_PLACEMENT_3D ( 'NONE', #368, #456, #108 ) ;
#54 = EDGE_CURVE ( 'NONE', #46, #447, #25, .T. ) ;
#55 = EDGE_LOOP ( 'NONE', ( #107, #578, #424, #290 ) ) ;
#56 = APPLICATION_PROTOCOL_DEFINITION ( 'international standard', 'config_control_design', 1994, #33 ) ;
#57 = DIRECTION ( 'NONE',  ( -1.000000000000000000, 0.000000000000000000, 0.000000000000000000 ) ) ;
#58 = ORIENTED_EDGE ( 'NONE', *, *, #279, .F. ) ;
#59 = CARTESIAN_POINT ( 'NONE',  ( 0.000000000000000000, 0.000000000000000000, 159.0000000000000000 ) ) ;
#60 = ORIENTED_EDGE ( 'NONE', *, *, #84, .T. ) ;
#61 = CARTESIAN_POINT ( 'NONE',  ( 4.000000000000000000, 4.898587196589412829E-16, 130.3677417442229967 ) ) ;
#62 =( NAMED_UNIT ( * ) PLANE_ANGLE_UNIT ( ) SI_UNIT ( $, .RADIAN. ) );
#63 = CARTESIAN_POINT ( 'NONE',  ( 0.000000000000000000, 0.000000000000000000, -28.99999999999999645 ) ) ;
#64 = AXIS2_PLACEMENT_3D ( 'NONE', #335, #463, #74 ) ;
#65 = DIRECTION ( 'NONE',  ( 0.000000000000000000, -1.000000000000000000, 0.000000000000000000 ) ) ;
#66 = DIRECTION ( 'NONE',  ( -0.000000000000000000, -0.000000000000000000, 1.000000000000000000 ) ) ;
#67 = ADVANCED_FACE ( 'NONE', ( #16 ), #104, .T. ) ;
#68 = VERTEX_POINT ( 'NONE', #407 ) ;
#69 = EDGE_LOOP ( 'NONE', ( #502, #545, #436, #222 ) ) ;
#70 = CARTESIAN_POINT ( 'NONE',  ( 2.500000000000000000, 3.061616997868383141E-16, 6.614378277661481675 ) ) ;
#71 = ORIENTED_EDGE ( 'NONE', *, *, #90, .T. ) ;
#72 = DIRECTION ( 'NONE',  ( -1.000000000000000000, 1.224646799147353454E-16, 0.000000000000000000 ) ) ;
#73 = AXIS2_PLACEMENT_3D ( 'NONE', #319, #534, #226 ) ;
#74 = DIRECTION ( 'NONE',  ( 1.000000000000000000, 0.000000000000000000, -0.000000000000000000 ) ) ;
#75 = AXIS2_PLACEMENT_3D ( 'NONE', #458, #19, #497 ) ;
#76 = AXIS2_PLACEMENT_3D ( 'NONE', #123, #216, #429 ) ;
#77 = DIRECTION ( 'NONE',  ( 0.000000000000000000, 0.000000000000000000, -1.000000000000000000 ) ) ;
#78 = AXIS2_PLACEMENT_3D ( 'NONE', #298, #12, #553 ) ;
#79 = CARTESIAN_POINT ( 'NONE',  ( 0.000000000000000000, 0.000000000000000000, -30.00000000000000000 ) ) ;
#80 = CARTESIAN_POINT ( 'NONE',  ( 5.000000000000000000, 0.000000000000000000, -30.00000000000000000 ) ) ;
#81 = DIRECTION ( 'NONE',  ( -1.000000000000000000, 0.000000000000000000, 0.000000000000000000 ) ) ;
#82 = CARTESIAN_POINT ( 'NONE',  ( -4.000000000000000000, 0.000000000000000000, -28.99999999999999645 ) ) ;
#83 = AXIS2_PLACEMENT_3D ( 'NONE', #440, #396, #285 ) ;
#84 = EDGE_CURVE ( 'NONE', #560, #275, #34, .T. ) ;
#85 = AXIS2_PLACEMENT_3D ( 'NONE', #63, #242, #14 ) ;
#86 = ORIENTED_EDGE ( 'NONE', *, *, #357, .T. ) ;
#87 = COORDINATED_UNIVERSAL_TIME_OFFSET ( 8, 0, .AHEAD. ) ;
#88 = ORIENTED_EDGE ( 'NONE', *, *, #30, .T. ) ;
#89 = DIRECTION ( 'NONE',  ( 0.000000000000000000, 0.000000000000000000, -1.000000000000000000 ) ) ;
#90 = EDGE_CURVE ( 'NONE', #2, #365, #455, .T. ) ;
#91 = EDGE_LOOP ( 'NONE', ( #8, #379, #6, #562 ) ) ;
#92 = DIRECTION ( 'NONE',  ( 1.000000000000000000, 0.000000000000000000, 0.000000000000000000 ) ) ;
#93 = AXIS2_PLACEMENT_3D ( 'NONE', #79, #577, #38 ) ;
#94 = CIRCLE ( 'NONE', #559, 5.000000000000000000 ) ;
#95 = AXIS2_PLACEMENT_3D ( 'NONE', #341, #572, #165 ) ;
#96 = APPROVAL ( #448, 'UNSPECIFIED' ) ;
#97 = VERTEX_POINT ( 'NONE', #150 ) ;
#98 = DIRECTION ( 'NONE',  ( 1.000000000000000000, 0.000000000000000000, 0.000000000000000000 ) ) ;
#99 = FACE_OUTER_BOUND ( 'NONE', #55, .T. ) ;
#100 = ORIENTED_EDGE ( 'NONE', *, *, #44, .F. ) ;
#101 = DIRECTION ( 'NONE',  ( 0.000000000000000000, 0.000000000000000000, -1.000000000000000000 ) ) ;
#102 = EDGE_LOOP ( 'NONE', ( #370, #197, #238, #536 ) ) ;
#103 = CARTESIAN_POINT ( 'NONE',  ( 0.000000000000000000, 0.000000000000000000, 123.3856217223385272 ) ) ;
#104 = PLANE ( 'NONE',  #64 ) ;
#105 = APPROVAL_ROLE ( '' ) ;
#106 = ADVANCED_FACE ( 'NONE', ( #469 ), #166, .T. ) ;
#107 = ORIENTED_EDGE ( 'NONE', *, *, #306, .T. ) ;
#108 = DIRECTION ( 'NONE',  ( 1.000000000000000000, 0.000000000000000000, 0.000000000000000000 ) ) ;
#109 = AXIS2_PLACEMENT_3D ( 'NONE', #59, #551, #537 ) ;
#110 = DIRECTION ( 'NONE',  ( -0.000000000000000000, -0.000000000000000000, -1.000000000000000000 ) ) ;
#111 = EDGE_LOOP ( 'NONE', ( #401, #511, #550, #404 ) ) ;
#112 = ADVANCED_FACE ( 'NONE', ( #565 ), #390, .T. ) ;
#113 = CARTESIAN_POINT ( 'NONE',  ( 4.772727272727273373, 0.000000000000000000, 129.7330035604153124 ) ) ;
#114 = ORIENTED_EDGE ( 'NONE', *, *, #342, .T. ) ;
#115 = CALENDAR_DATE ( 2026, 5, 6 ) ;
#116 = VERTEX_POINT ( 'NONE', #535 ) ;
#117 = ORIENTED_EDGE ( 'NONE', *, *, #201, .F. ) ;
#118 = LOCAL_TIME ( 11, 32, 59.00000000000000000, #87 ) ;
#119 = DIRECTION ( 'NONE',  ( 0.000000000000000000, 0.000000000000000000, -1.000000000000000000 ) ) ;
#120 = APPROVAL_STATUS ( 'not_yet_approved' ) ;
#121 = AXIS2_PLACEMENT_3D ( 'NONE', #45, #485, #137 ) ;
#122 = EDGE_CURVE ( 'NONE', #46, #321, #376, .T. ) ;
#123 = CARTESIAN_POINT ( 'NONE',  ( 0.000000000000000000, 0.000000000000000000, 160.0000000000000000 ) ) ;
#124 = PRODUCT_RELATED_PRODUCT_CATEGORY ( 'detail', '', ( #514 ) ) ;
#125 = AXIS2_PLACEMENT_3D ( 'NONE', #39, #522, #72 ) ;
#126 = CARTESIAN_POINT ( 'NONE',  ( -12.50000000000000000, 1.530808498934191521E-15, 123.3856217223385272 ) ) ;
#127 = AXIS2_PLACEMENT_3D ( 'NONE', #297, #410, #403 ) ;
#128 = CIRCLE ( 'NONE', #260, 2.500000000000000000 ) ;
#129 = DIRECTION ( 'NONE',  ( 1.224646799147353207E-16, 1.000000000000000000, -0.000000000000000000 ) ) ;
#130 = ADVANCED_FACE ( 'NONE', ( #353 ), #568, .T. ) ;
#131 = CYLINDRICAL_SURFACE ( 'NONE', #305, 2.500000000000000000 ) ;
#132 = ORIENTED_EDGE ( 'NONE', *, *, #322, .T. ) ;
#133 = DIRECTION ( 'NONE',  ( -0.000000000000000000, -0.000000000000000000, 1.000000000000000000 ) ) ;
#134 = TOROIDAL_SURFACE ( 'NONE', #293, 12.50000000000000000, 10.00000000000000000 ) ;
#135 = ORIENTED_EDGE ( 'NONE', *, *, #438, .T. ) ;
#136 = FACE_OUTER_BOUND ( 'NONE', #250, .T. ) ;
#137 = DIRECTION ( 'NONE',  ( 1.000000000000000000, 0.000000000000000000, 0.000000000000000000 ) ) ;
#138 = ORIENTED_EDGE ( 'NONE', *, *, #122, .F. ) ;
#139 = CARTESIAN_POINT ( 'NONE',  ( -5.000000000000000000, 0.000000000000000000, 130.3677417442229967 ) ) ;
#140 = ORIENTED_EDGE ( 'NONE', *, *, #262, .F. ) ;
#141 = CARTESIAN_POINT ( 'NONE',  ( 0.000000000000000000, 0.000000000000000000, 0.2669964395846839977 ) ) ;
#142 = TOROIDAL_SURFACE ( 'NONE', #433, 4.000000000000000000, 1.000000000000000000 ) ;
#143 = ORIENTED_EDGE ( 'NONE', *, *, #470, .F. ) ;
#144 = ORIENTED_EDGE ( 'NONE', *, *, #378, .T. ) ;
#145 = DIRECTION ( 'NONE',  ( -1.000000000000000000, 0.000000000000000000, -0.000000000000000000 ) ) ;
#146 = ADVANCED_FACE ( 'NONE', ( #492 ), #174, .T. ) ;
#147 = DIRECTION ( 'NONE',  ( -1.000000000000000000, 0.000000000000000000, 0.000000000000000000 ) ) ;
#148 = CARTESIAN_POINT ( 'NONE',  ( 0.000000000000000000, 0.000000000000000000, 0.000000000000000000 ) ) ;
#149 = PLANE ( 'NONE',  #333 ) ;
#150 = CARTESIAN_POINT ( 'NONE',  ( -4.000000000000000000, 5.510910596163088569E-16, 160.0000000000000000 ) ) ;
#151 = ORIENTED_EDGE ( 'NONE', *, *, #291, .F. ) ;
#152 = FACE_OUTER_BOUND ( 'NONE', #91, .T. ) ;
#153 = CIRCLE ( 'NONE', #473, 5.000000000000000000 ) ;
#154 = TOROIDAL_SURFACE ( 'NONE', #204, 12.50000000000000000, 10.00000000000000000 ) ;
#155 = VERTEX_POINT ( 'NONE', #320 ) ;
#156 = EDGE_CURVE ( 'NONE', #314, #183, #364, .T. ) ;
#157 = FACE_OUTER_BOUND ( 'NONE', #323, .T. ) ;
#158 = ORIENTED_EDGE ( 'NONE', *, *, #156, .T. ) ;
#159 = ORIENTED_EDGE ( 'NONE', *, *, #4, .T. ) ;
#160 = PERSON_AND_ORGANIZATION_ROLE ( 'design_supplier' ) ;
#161 = LOCAL_TIME ( 11, 32, 59.00000000000000000, #426 ) ;
#162 = CARTESIAN_POINT ( 'NONE',  ( -5.000000000000000000, 6.123233995736766282E-16, -30.00000000000000000 ) ) ;
#163 = FACE_OUTER_BOUND ( 'NONE', #28, .T. ) ;
#164 = AXIS2_PLACEMENT_3D ( 'NONE', #434, #43, #569 ) ;
#165 = DIRECTION ( 'NONE',  ( 1.000000000000000000, 0.000000000000000000, 0.000000000000000000 ) ) ;
#166 = TOROIDAL_SURFACE ( 'NONE', #213, 4.000000000000000000, 1.000000000000000000 ) ;
#167 = AXIS2_PLACEMENT_3D ( 'NONE', #141, #421, #388 ) ;
#168 = EDGE_CURVE ( 'NONE', #68, #329, #94, .T. ) ;
#169 = DIRECTION ( 'NONE',  ( -0.000000000000000000, -0.000000000000000000, -1.000000000000000000 ) ) ;
#170 = APPLICATION_CONTEXT ( 'configuration controlled 3d designs of mechanical parts and assemblies' ) ;
#171 = CARTESIAN_POINT ( 'NONE',  ( 0.000000000000000000, 0.000000000000000000, 123.3856217223385272 ) ) ;
#172 = ORIENTED_EDGE ( 'NONE', *, *, #262, .T. ) ;
#173 = DIRECTION ( 'NONE',  ( -0.000000000000000000, -0.000000000000000000, -1.000000000000000000 ) ) ;
#174 = CYLINDRICAL_SURFACE ( 'NONE', #316, 5.000000000000000000 ) ;
#175 = ADVANCED_FACE ( 'NONE', ( #52 ), #142, .T. ) ;
#176 = ORIENTED_EDGE ( 'NONE', *, *, #322, .F. ) ;
#177 = CARTESIAN_POINT ( 'NONE',  ( 0.000000000000000000, 0.000000000000000000, 123.3856217223385272 ) ) ;
#178 = AXIS2_PLACEMENT_3D ( 'NONE', #171, #528, #479 ) ;
#179 = AXIS2_PLACEMENT_3D ( 'NONE', #240, #453, #119 ) ;
#180 = CARTESIAN_POINT ( 'NONE',  ( 0.000000000000000000, 0.000000000000000000, -0.3677417442229952704 ) ) ;
#181 = ORIENTED_EDGE ( 'NONE', *, *, #543, .T. ) ;
#182 = DIRECTION ( 'NONE',  ( 0.000000000000000000, 0.000000000000000000, -1.000000000000000000 ) ) ;
#183 = VERTEX_POINT ( 'NONE', #347 ) ;
#184 = MECHANICAL_CONTEXT ( 'NONE', #170, 'mechanical' ) ;
#185 = CARTESIAN_POINT ( 'NONE',  ( -4.000000000000000000, 0.000000000000000000, -30.00000000000000000 ) ) ;
#186 = ORIENTED_EDGE ( 'NONE', *, *, #168, .T. ) ;
#187 = FACE_OUTER_BOUND ( 'NONE', #225, .T. ) ;
#188 = CC_DESIGN_APPROVAL ( #227, ( #40 ) ) ;
#189 = DIRECTION ( 'NONE',  ( 0.000000000000000000, 0.000000000000000000, -1.000000000000000000 ) ) ;
#190 = AXIS2_PLACEMENT_3D ( 'NONE', #501, #66, #239 ) ;
#191 = EDGE_CURVE ( 'NONE', #280, #334, #400, .T. ) ;
#192 = DIRECTION ( 'NONE',  ( -0.000000000000000000, -0.000000000000000000, -1.000000000000000000 ) ) ;
#193 = APPLICATION_PROTOCOL_DEFINITION ( 'international standard', 'config_control_design', 1994, #170 ) ;
#194 = DIRECTION ( 'NONE',  ( -1.000000000000000000, -1.224646799147353207E-16, 0.000000000000000000 ) ) ;
#195 = ORIENTED_EDGE ( 'NONE', *, *, #378, .F. ) ;
#196 = DATE_AND_TIME ( #563, #241 ) ;
#197 = ORIENTED_EDGE ( 'NONE', *, *, #122, .T. ) ;
#198 = DIRECTION ( 'NONE',  ( 1.000000000000000000, 0.000000000000000000, 0.000000000000000000 ) ) ;
#199 = ORIENTED_EDGE ( 'NONE', *, *, #385, .T. ) ;
#200 = PERSON_AND_ORGANIZATION ( #467, #542 ) ;
#201 = EDGE_CURVE ( 'NONE', #321, #97, #355, .T. ) ;
#202 = ORIENTED_EDGE ( 'NONE', *, *, #571, .F. ) ;
#203 = DIRECTION ( 'NONE',  ( 0.000000000000000000, -1.000000000000000000, 0.000000000000000000 ) ) ;
#204 = AXIS2_PLACEMENT_3D ( 'NONE', #416, #328, #9 ) ;
#205 = VECTOR ( 'NONE', #133, 1000.000000000000000 ) ;
#206 = CARTESIAN_POINT ( 'NONE',  ( 5.000000000000000000, 6.123233995736766282E-16, 160.0000000000000000 ) ) ;
#207 = DATE_TIME_ROLE ( 'classification_date' ) ;
#208 = VERTEX_POINT ( 'NONE', #139 ) ;
#209 = COORDINATED_UNIVERSAL_TIME_OFFSET ( 8, 0, .AHEAD. ) ;
#210 = PERSON_AND_ORGANIZATION_ROLE ( 'creator' ) ;
#211 = APPROVAL_PERSON_ORGANIZATION ( #382, #574, #105 ) ;
#212 = EDGE_CURVE ( 'NONE', #208, #560, #507, .T. ) ;
#213 = AXIS2_PLACEMENT_3D ( 'NONE', #468, #471, #570 ) ;
#214 = CARTESIAN_POINT ( 'NONE',  ( 5.000000000000000000, 6.123233995736766282E-16, 130.3677417442229967 ) ) ;
#215 = DIRECTION ( 'NONE',  ( -1.000000000000000000, 0.000000000000000000, 0.000000000000000000 ) ) ;
#216 = DIRECTION ( 'NONE',  ( 0.000000000000000000, 0.000000000000000000, 1.000000000000000000 ) ) ;
#217 = EDGE_CURVE ( 'NONE', #155, #280, #128, .T. ) ;
#218 = CIRCLE ( 'NONE', #289, 4.772727272727275150 ) ;
#219 = FACE_OUTER_BOUND ( 'NONE', #302, .T. ) ;
#220 = AXIS2_PLACEMENT_3D ( 'NONE', #287, #65, #412 ) ;
#221 = DIRECTION ( 'NONE',  ( 0.000000000000000000, -1.000000000000000000, 0.000000000000000000 ) ) ;
#222 = ORIENTED_EDGE ( 'NONE', *, *, #4, .F. ) ;
#223 = DIRECTION ( 'NONE',  ( 1.000000000000000000, 0.000000000000000000, 0.000000000000000000 ) ) ;
#224 = EDGE_CURVE ( 'NONE', #329, #68, #586, .T. ) ;
#225 = EDGE_LOOP ( 'NONE', ( #533, #144, #176, #374 ) ) ;
#226 = DIRECTION ( 'NONE',  ( -1.000000000000000000, 0.000000000000000000, 0.000000000000000000 ) ) ;
#227 = APPROVAL ( #120, 'UNSPECIFIED' ) ;
#228 = TOROIDAL_SURFACE ( 'NONE', #178, 12.50000000000000000, 10.00000000000000000 ) ;
#229 = ORIENTED_EDGE ( 'NONE', *, *, #35, .T. ) ;
#230 = DIRECTION ( 'NONE',  ( -1.000000000000000000, -1.224646799147353454E-16, 0.000000000000000000 ) ) ;
#231 = CIRCLE ( 'NONE', #125, 1.000000000000000000 ) ;
#232 = AXIS2_PLACEMENT_3D ( 'NONE', #451, #292, #194 ) ;
#233 = ORIENTED_EDGE ( 'NONE', *, *, #191, .F. ) ;
#234 = PERSON_AND_ORGANIZATION ( #467, #542 ) ;
#235 = FACE_OUTER_BOUND ( 'NONE', #337, .T. ) ;
#236 = ORIENTED_EDGE ( 'NONE', *, *, #543, .F. ) ;
#237 = ADVANCED_FACE ( 'NONE', ( #235 ), #149, .T. ) ;
#238 = ORIENTED_EDGE ( 'NONE', *, *, #419, .T. ) ;
#239 = DIRECTION ( 'NONE',  ( -1.000000000000000000, 0.000000000000000000, 0.000000000000000000 ) ) ;
#240 = CARTESIAN_POINT ( 'NONE',  ( -12.50000000000000000, 0.000000000000000000, 6.614378277661475458 ) ) ;
#241 = LOCAL_TIME ( 11, 32, 59.00000000000000000, #372 ) ;
#242 = DIRECTION ( 'NONE',  ( 0.000000000000000000, 0.000000000000000000, -1.000000000000000000 ) ) ;
#243 = VECTOR ( 'NONE', #377, 1000.000000000000000 ) ;
#244 = ORIENTED_EDGE ( 'NONE', *, *, #470, .T. ) ;
#245 = PERSON_AND_ORGANIZATION ( #467, #542 ) ;
#246 = FACE_OUTER_BOUND ( 'NONE', #367, .T. ) ;
#247 = UNCERTAINTY_MEASURE_WITH_UNIT (LENGTH_MEASURE( 1.000000000000000082E-05 ), #399, 'distance_accuracy_value', 'NONE');
#248 = ORIENTED_EDGE ( 'NONE', *, *, #581, .F. ) ;
#249 = DATE_AND_TIME ( #503, #505 ) ;
#250 = EDGE_LOOP ( 'NONE', ( #439, #558, #18, #482 ) ) ;
#251 = DIRECTION ( 'NONE',  ( 0.000000000000000000, 0.000000000000000000, -1.000000000000000000 ) ) ;
#252 = ORIENTED_EDGE ( 'NONE', *, *, #581, .T. ) ;
#253 = APPROVAL_DATE_TIME ( #47, #96 ) ;
#254 = CIRCLE ( 'NONE', #389, 1.000000000000000000 ) ;
#255 = CARTESIAN_POINT ( 'NONE',  ( 0.000000000000000000, 0.000000000000000000, 6.614378277661481675 ) ) ;
#256 = CIRCLE ( 'NONE', #167, 4.772727272727273373 ) ;
#257 = CARTESIAN_POINT ( 'NONE',  ( 0.000000000000000000, 0.000000000000000000, 129.7330035604153124 ) ) ;
#258 = APPROVAL_STATUS ( 'not_yet_approved' ) ;
#259 = ADVANCED_FACE ( 'NONE', ( #99 ), #154, .F. ) ;
#260 = AXIS2_PLACEMENT_3D ( 'NONE', #103, #552, #198 ) ;
#261 = DIRECTION ( 'NONE',  ( -0.000000000000000000, -0.000000000000000000, 1.000000000000000000 ) ) ;
#262 = EDGE_CURVE ( 'NONE', #46, #398, #575, .T. ) ;
#263 = CARTESIAN_POINT ( 'NONE',  ( 4.000000000000000000, 0.000000000000000000, 160.0000000000000000 ) ) ;
#264 = LINE ( 'NONE', #394, #480 ) ;
#265 = DIRECTION ( 'NONE',  ( -1.000000000000000000, 1.224646799147353454E-16, 0.000000000000000000 ) ) ;
#266 = VECTOR ( 'NONE', #475, 1000.000000000000000 ) ;
#267 = LINE ( 'NONE', #80, #205 ) ;
#268 = CIRCLE ( 'NONE', #53, 4.772727272727273373 ) ;
#269 = ORIENTED_EDGE ( 'NONE', *, *, #306, .F. ) ;
#270 = ADVANCED_FACE ( 'NONE', ( #157 ), #283, .T. ) ;
#271 = ORIENTED_EDGE ( 'NONE', *, *, #44, .T. ) ;
#272 = CYLINDRICAL_SURFACE ( 'NONE', #83, 5.000000000000000000 ) ;
#273 = CARTESIAN_POINT ( 'NONE',  ( 0.000000000000000000, 0.000000000000000000, -28.99999999999999645 ) ) ;
#274 = AXIS2_PLACEMENT_3D ( 'NONE', #519, #315, #223 ) ;
#275 = VERTEX_POINT ( 'NONE', #113 ) ;
#276 = DIRECTION ( 'NONE',  ( 0.000000000000000000, 0.000000000000000000, 1.000000000000000000 ) ) ;
#277 = CIRCLE ( 'NONE', #78, 5.000000000000000000 ) ;
#278 = CIRCLE ( 'NONE', #164, 2.500000000000000000 ) ;
#279 = EDGE_CURVE ( 'NONE', #365, #334, #518, .T. ) ;
#280 = VERTEX_POINT ( 'NONE', #504 ) ;
#281 = DIRECTION ( 'NONE',  ( 0.000000000000000000, 0.000000000000000000, 1.000000000000000000 ) ) ;
#282 = ORIENTED_EDGE ( 'NONE', *, *, #419, .F. ) ;
#283 = CYLINDRICAL_SURFACE ( 'NONE', #420, 5.000000000000000000 ) ;
#284 = EDGE_LOOP ( 'NONE', ( #58, #114, #229, #529 ) ) ;
#285 = DIRECTION ( 'NONE',  ( 1.000000000000000000, 0.000000000000000000, 0.000000000000000000 ) ) ;
#286 = DIRECTION ( 'NONE',  ( -0.000000000000000000, -0.000000000000000000, -1.000000000000000000 ) ) ;
#287 = CARTESIAN_POINT ( 'NONE',  ( 4.000000000000000000, 0.000000000000000000, -0.3677417442229952704 ) ) ;
#288 = COORDINATED_UNIVERSAL_TIME_OFFSET ( 8, 0, .AHEAD. ) ;
#289 = AXIS2_PLACEMENT_3D ( 'NONE', #32, #310, #526 ) ;
#290 = ORIENTED_EDGE ( 'NONE', *, *, #35, .F. ) ;
#291 = EDGE_CURVE ( 'NONE', #183, #314, #307, .T. ) ;
#292 = DIRECTION ( 'NONE',  ( -1.224646799147353207E-16, 1.000000000000000000, 0.000000000000000000 ) ) ;
#293 = AXIS2_PLACEMENT_3D ( 'NONE', #457, #515, #21 ) ;
#294 = LINE ( 'NONE', #331, #481 ) ;
#295 = CARTESIAN_POINT ( 'NONE',  ( 5.000000000000000000, 0.000000000000000000, -0.3677417442229969913 ) ) ;
#296 = SECURITY_CLASSIFICATION_LEVEL ( 'unclassified' ) ;
#297 = CARTESIAN_POINT ( 'NONE',  ( 0.000000000000000000, 0.000000000000000000, -30.00000000000000000 ) ) ;
#298 = CARTESIAN_POINT ( 'NONE',  ( 0.000000000000000000, 0.000000000000000000, 159.0000000000000000 ) ) ;
#299 = CC_DESIGN_APPROVAL ( #96, ( #48 ) ) ;
#300 = AXIS2_PLACEMENT_3D ( 'NONE', #180, #580, #478 ) ;
#301 = DESIGN_CONTEXT ( 'detailed design', #33, 'design' ) ;
#302 = EDGE_LOOP ( 'NONE', ( #143, #359, #71, #269 ) ) ;
#303 = ADVANCED_FACE ( 'NONE', ( #152 ), #325, .T. ) ;
#304 = DIRECTION ( 'NONE',  ( 0.000000000000000000, -1.000000000000000000, 0.000000000000000000 ) ) ;
#305 = AXIS2_PLACEMENT_3D ( 'NONE', #312, #487, #500 ) ;
#306 = EDGE_CURVE ( 'NONE', #363, #365, #268, .T. ) ;
#307 = CIRCLE ( 'NONE', #127, 4.000000000000000000 ) ;
#308 = DIRECTION ( 'NONE',  ( -1.000000000000000000, 1.224646799147353454E-16, 0.000000000000000000 ) ) ;
#309 = CC_DESIGN_PERSON_AND_ORGANIZATION_ASSIGNMENT ( #200, #160, ( #40 ) ) ;
#310 = DIRECTION ( 'NONE',  ( -0.000000000000000000, -0.000000000000000000, -1.000000000000000000 ) ) ;
#311 = DIRECTION ( 'NONE',  ( -1.000000000000000000, 0.000000000000000000, 0.000000000000000000 ) ) ;
#312 = CARTESIAN_POINT ( 'NONE',  ( 0.000000000000000000, 0.000000000000000000, 130.0000000000000000 ) ) ;
#313 = CC_DESIGN_SECURITY_CLASSIFICATION ( #406, ( #40 ) ) ;
#314 = VERTEX_POINT ( 'NONE', #185 ) ;
#315 = DIRECTION ( 'NONE',  ( -0.000000000000000000, -0.000000000000000000, 1.000000000000000000 ) ) ;
#316 = AXIS2_PLACEMENT_3D ( 'NONE', #532, #446, #585 ) ;
#317 = ADVANCED_FACE ( 'NONE', ( #246 ), #523, .T. ) ;
#318 = EDGE_LOOP ( 'NONE', ( #233, #132, #159, #199 ) ) ;
#319 = CARTESIAN_POINT ( 'NONE',  ( 0.000000000000000000, 0.000000000000000000, 130.0000000000000000 ) ) ;
#320 = CARTESIAN_POINT ( 'NONE',  ( -2.500000000000000000, 0.000000000000000000, 123.3856217223385272 ) ) ;
#321 = VERTEX_POINT ( 'NONE', #414 ) ;
#322 = EDGE_CURVE ( 'NONE', #280, #155, #11, .T. ) ;
#323 = EDGE_LOOP ( 'NONE', ( #271, #582, #49, #282 ) ) ;
#324 = CYLINDRICAL_SURFACE ( 'NONE', #73, 2.500000000000000000 ) ;
#325 = TOROIDAL_SURFACE ( 'NONE', #85, 4.000000000000000000, 1.000000000000000000 ) ;
#326 = CARTESIAN_POINT ( 'NONE',  ( 0.000000000000000000, 0.000000000000000000, 160.0000000000000000 ) ) ;
#327 = EDGE_LOOP ( 'NONE', ( #356, #88, #486, #506 ) ) ;
#328 = DIRECTION ( 'NONE',  ( 0.000000000000000000, 0.000000000000000000, -1.000000000000000000 ) ) ;
#329 = VERTEX_POINT ( 'NONE', #510 ) ;
#330 = PERSON_AND_ORGANIZATION ( #467, #542 ) ;
#331 = CARTESIAN_POINT ( 'NONE',  ( -2.500000000000000000, 0.000000000000000000, 130.0000000000000000 ) ) ;
#332 = DIRECTION ( 'NONE',  ( 1.000000000000000000, 0.000000000000000000, 0.000000000000000000 ) ) ;
#333 = AXIS2_PLACEMENT_3D ( 'NONE', #366, #548, #145 ) ;
#334 = VERTEX_POINT ( 'NONE', #70 ) ;
#335 = CARTESIAN_POINT ( 'NONE',  ( 0.000000000000000000, 0.000000000000000000, 160.0000000000000000 ) ) ;
#336 = EDGE_CURVE ( 'NONE', #208, #447, #496, .T. ) ;
#337 = EDGE_LOOP ( 'NONE', ( #158, #449 ) ) ;
#338 = PERSON_AND_ORGANIZATION ( #467, #542 ) ;
#339 = AXIS2_PLACEMENT_3D ( 'NONE', #472, #304, #77 ) ;
#340 = AXIS2_PLACEMENT_3D ( 'NONE', #555, #462, #332 ) ;
#341 = CARTESIAN_POINT ( 'NONE',  ( 0.000000000000000000, 0.000000000000000000, -0.3677417442229969913 ) ) ;
#342 = EDGE_CURVE ( 'NONE', #365, #363, #256, .T. ) ;
#343 = CYLINDRICAL_SURFACE ( 'NONE', #93, 5.000000000000000000 ) ;
#344 = AXIS2_PLACEMENT_3D ( 'NONE', #23, #203, #189 ) ;
#345 = AXIS2_PLACEMENT_3D ( 'NONE', #82, #386, #579 ) ;
#346 = CARTESIAN_POINT ( 'NONE',  ( -2.500000000000000000, 0.000000000000000000, 6.614378277661481675 ) ) ;
#347 = CARTESIAN_POINT ( 'NONE',  ( 4.000000000000000000, 5.510910596163088569E-16, -30.00000000000000000 ) ) ;
#348 = FACE_OUTER_BOUND ( 'NONE', #547, .T. ) ;
#349 = CARTESIAN_POINT ( 'NONE',  ( 0.000000000000000000, 0.000000000000000000, 130.3677417442229967 ) ) ;
#350 = EDGE_CURVE ( 'NONE', #2, #116, #445, .T. ) ;
#351 = EDGE_LOOP ( 'NONE', ( #202, #587, #86, #151 ) ) ;
#352 = DIRECTION ( 'NONE',  ( -1.000000000000000000, 0.000000000000000000, 0.000000000000000000 ) ) ;
#353 = FACE_OUTER_BOUND ( 'NONE', #395, .T. ) ;
#354 = ORIENTED_EDGE ( 'NONE', *, *, #411, .F. ) ;
#355 = CIRCLE ( 'NONE', #427, 1.000000000000000000 ) ;
#356 = ORIENTED_EDGE ( 'NONE', *, *, #450, .F. ) ;
#357 = EDGE_CURVE ( 'NONE', #329, #314, #423, .T. ) ;
#358 = DIRECTION ( 'NONE',  ( -0.000000000000000000, -0.000000000000000000, -1.000000000000000000 ) ) ;
#359 = ORIENTED_EDGE ( 'NONE', *, *, #350, .F. ) ;
#360 = DIRECTION ( 'NONE',  ( 1.000000000000000000, 0.000000000000000000, 0.000000000000000000 ) ) ;
#361 = DIRECTION ( 'NONE',  ( 0.000000000000000000, 0.000000000000000000, 1.000000000000000000 ) ) ;
#362 = AXIS2_PLACEMENT_3D ( 'NONE', #177, #540, #98 ) ;
#363 = VERTEX_POINT ( 'NONE', #387 ) ;
#364 = CIRCLE ( 'NONE', #494, 4.000000000000000000 ) ;
#365 = VERTEX_POINT ( 'NONE', #428 ) ;
#366 = CARTESIAN_POINT ( 'NONE',  ( 0.000000000000000000, 0.000000000000000000, -30.00000000000000000 ) ) ;
#367 = EDGE_LOOP ( 'NONE', ( #117, #138, #172, #248 ) ) ;
#368 = CARTESIAN_POINT ( 'NONE',  ( 0.000000000000000000, 0.000000000000000000, 0.2669964395846839977 ) ) ;
#369 = EDGE_CURVE ( 'NONE', #68, #2, #267, .T. ) ;
#370 = ORIENTED_EDGE ( 'NONE', *, *, #54, .F. ) ;
#371 = ORIENTED_EDGE ( 'NONE', *, *, #90, .F. ) ;
#372 = COORDINATED_UNIVERSAL_TIME_OFFSET ( 8, 0, .AHEAD. ) ;
#373 = CC_DESIGN_PERSON_AND_ORGANIZATION_ASSIGNMENT ( #491, #444, ( #514 ) ) ;
#374 = ORIENTED_EDGE ( 'NONE', *, *, #438, .F. ) ;
#375 = CLOSED_SHELL ( 'NONE', ( #106, #130, #524, #303, #509, #259, #476, #270, #554, #498, #146, #67, #566, #237, #15, #484, #175, #317, #392, #112 ) ) ;
#376 = CIRCLE ( 'NONE', #121, 5.000000000000000000 ) ;
#377 = DIRECTION ( 'NONE',  ( -0.000000000000000000, -0.000000000000000000, -1.000000000000000000 ) ) ;
#378 = EDGE_CURVE ( 'NONE', #560, #155, #576, .T. ) ;
#379 = ORIENTED_EDGE ( 'NONE', *, *, #571, .T. ) ;
#380 = PERSON_AND_ORGANIZATION_ROLE ( 'classification_officer' ) ;
#381 = CC_DESIGN_PERSON_AND_ORGANIZATION_ASSIGNMENT ( #330, #413, ( #48 ) ) ;
#382 = PERSON_AND_ORGANIZATION ( #467, #542 ) ;
#383 = TOROIDAL_SURFACE ( 'NONE', #362, 12.50000000000000000, 10.00000000000000000 ) ;
#384 = VECTOR ( 'NONE', #358, 1000.000000000000000 ) ;
#385 = EDGE_CURVE ( 'NONE', #443, #334, #278, .T. ) ;
#386 = DIRECTION ( 'NONE',  ( -0.000000000000000000, -1.000000000000000000, -0.000000000000000000 ) ) ;
#387 = CARTESIAN_POINT ( 'NONE',  ( -4.772727272727273373, 0.000000000000000000, 0.2669964395846839977 ) ) ;
#388 = DIRECTION ( 'NONE',  ( 1.000000000000000000, 0.000000000000000000, 0.000000000000000000 ) ) ;
#389 = AXIS2_PLACEMENT_3D ( 'NONE', #50, #483, #230 ) ;
#390 = TOROIDAL_SURFACE ( 'NONE', #544, 4.000000000000000000, 1.000000000000000000 ) ;
#391 = DIRECTION ( 'NONE',  ( 0.000000000000000000, 0.000000000000000000, 1.000000000000000000 ) ) ;
#392 = ADVANCED_FACE ( 'NONE', ( #219 ), #24, .T. ) ;
#393 = ORIENTED_EDGE ( 'NONE', *, *, #369, .F. ) ;
#394 = CARTESIAN_POINT ( 'NONE',  ( -5.000000000000000000, 0.000000000000000000, 160.0000000000000000 ) ) ;
#395 = EDGE_LOOP ( 'NONE', ( #236, #244, #513, #371 ) ) ;
#396 = DIRECTION ( 'NONE',  ( -0.000000000000000000, -0.000000000000000000, 1.000000000000000000 ) ) ;
#397 = CIRCLE ( 'NONE', #339, 9.999999999999994671 ) ;
#398 = VERTEX_POINT ( 'NONE', #263 ) ;
#399 =( LENGTH_UNIT ( ) NAMED_UNIT ( * ) SI_UNIT ( .MILLI., .METRE. ) );
#400 = LINE ( 'NONE', #527, #384 ) ;
#401 = ORIENTED_EDGE ( 'NONE', *, *, #30, .F. ) ;
#402 = FACE_OUTER_BOUND ( 'NONE', #499, .T. ) ;
#403 = DIRECTION ( 'NONE',  ( -1.000000000000000000, 0.000000000000000000, 0.000000000000000000 ) ) ;
#404 = ORIENTED_EDGE ( 'NONE', *, *, #431, .F. ) ;
#405 = APPROVAL_ROLE ( '' ) ;
#406 = SECURITY_CLASSIFICATION ( '', '', #296 ) ;
#407 = CARTESIAN_POINT ( 'NONE',  ( 5.000000000000000000, 0.000000000000000000, -28.99999999999999645 ) ) ;
#408 = CARTESIAN_POINT ( 'NONE',  ( 0.000000000000000000, 0.000000000000000000, 160.0000000000000000 ) ) ;
#409 = CIRCLE ( 'NONE', #179, 10.00000000000000000 ) ;
#410 = DIRECTION ( 'NONE',  ( 0.000000000000000000, 0.000000000000000000, -1.000000000000000000 ) ) ;
#411 = EDGE_CURVE ( 'NONE', #398, #97, #584, .T. ) ;
#412 = DIRECTION ( 'NONE',  ( 0.000000000000000000, 0.000000000000000000, -1.000000000000000000 ) ) ;
#413 = PERSON_AND_ORGANIZATION_ROLE ( 'creator' ) ;
#414 = CARTESIAN_POINT ( 'NONE',  ( -5.000000000000000000, 0.000000000000000000, 159.0000000000000000 ) ) ;
#415 = CARTESIAN_POINT ( 'NONE',  ( 5.000000000000000000, 6.123233995736766282E-16, 159.0000000000000000 ) ) ;
#416 = CARTESIAN_POINT ( 'NONE',  ( 0.000000000000000000, 0.000000000000000000, 6.614378277661475458 ) ) ;
#417 = DIRECTION ( 'NONE',  ( -1.000000000000000000, -1.224646799147353454E-16, 0.000000000000000000 ) ) ;
#418 = AXIS2_PLACEMENT_3D ( 'NONE', #148, #276, #360 ) ;
#419 = EDGE_CURVE ( 'NONE', #321, #208, #264, .T. ) ;
#420 = AXIS2_PLACEMENT_3D ( 'NONE', #326, #286, #561 ) ;
#421 = DIRECTION ( 'NONE',  ( -0.000000000000000000, -0.000000000000000000, 1.000000000000000000 ) ) ;
#422 = MANIFOLD_SOLID_BREP ( '¶ê¨¤4', #375 ) ;
#423 = CIRCLE ( 'NONE', #345, 1.000000000000000888 ) ;
#424 = ORIENTED_EDGE ( 'NONE', *, *, #385, .F. ) ;
#425 = APPROVAL_DATE_TIME ( #249, #227 ) ;
#426 = COORDINATED_UNIVERSAL_TIME_OFFSET ( 8, 0, .AHEAD. ) ;
#427 = AXIS2_PLACEMENT_3D ( 'NONE', #538, #129, #265 ) ;
#428 = CARTESIAN_POINT ( 'NONE',  ( 4.772727272727273373, 5.844905177748732213E-16, 0.2669964395846839977 ) ) ;
#429 = DIRECTION ( 'NONE',  ( 1.000000000000000000, 0.000000000000000000, 0.000000000000000000 ) ) ;
#430 = DIRECTION ( 'NONE',  ( 1.224646799147353207E-16, 1.000000000000000000, -0.000000000000000000 ) ) ;
#431 = EDGE_CURVE ( 'NONE', #275, #560, #218, .T. ) ;
#432 = CIRCLE ( 'NONE', #573, 4.000000000000000000 ) ;
#433 = AXIS2_PLACEMENT_3D ( 'NONE', #1, #182, #81 ) ;
#434 = CARTESIAN_POINT ( 'NONE',  ( 0.000000000000000000, 0.000000000000000000, 6.614378277661481675 ) ) ;
#435 = DIRECTION ( 'NONE',  ( -1.000000000000000000, 0.000000000000000000, 0.000000000000000000 ) ) ;
#436 = ORIENTED_EDGE ( 'NONE', *, *, #474, .T. ) ;
#437 = CALENDAR_DATE ( 2026, 5, 6 ) ;
#438 = EDGE_CURVE ( 'NONE', #275, #280, #397, .T. ) ;
#439 = ORIENTED_EDGE ( 'NONE', *, *, #459, .F. ) ;
#440 = CARTESIAN_POINT ( 'NONE',  ( 0.000000000000000000, 0.000000000000000000, -30.00000000000000000 ) ) ;
#441 = DIRECTION ( 'NONE',  ( -0.000000000000000000, -0.000000000000000000, 1.000000000000000000 ) ) ;
#442 = AXIS2_PLACEMENT_3D ( 'NONE', #257, #192, #147 ) ;
#443 = VERTEX_POINT ( 'NONE', #346 ) ;
#444 = PERSON_AND_ORGANIZATION_ROLE ( 'design_owner' ) ;
#445 = CIRCLE ( 'NONE', #95, 5.000000000000000000 ) ;
#446 = DIRECTION ( 'NONE',  ( -0.000000000000000000, -0.000000000000000000, -1.000000000000000000 ) ) ;
#447 = VERTEX_POINT ( 'NONE', #214 ) ;
#448 = APPROVAL_STATUS ( 'not_yet_approved' ) ;
#449 = ORIENTED_EDGE ( 'NONE', *, *, #291, .T. ) ;
#450 = EDGE_CURVE ( 'NONE', #447, #208, #153, .T. ) ;
#451 = CARTESIAN_POINT ( 'NONE',  ( 12.50000000000000000, 1.530808498934191521E-15, 6.614378277661475458 ) ) ;
#452 = LOCAL_TIME ( 11, 32, 59.00000000000000000, #209 ) ;
#453 = DIRECTION ( 'NONE',  ( -0.000000000000000000, -1.000000000000000000, -0.000000000000000000 ) ) ;
#454 = SHAPE_DEFINITION_REPRESENTATION ( #521, #549 ) ;
#455 = CIRCLE ( 'NONE', #220, 1.000000000000000000 ) ;
#456 = DIRECTION ( 'NONE',  ( -0.000000000000000000, -0.000000000000000000, 1.000000000000000000 ) ) ;
#457 = CARTESIAN_POINT ( 'NONE',  ( 0.000000000000000000, 0.000000000000000000, 6.614378277661475458 ) ) ;
#458 = CARTESIAN_POINT ( 'NONE',  ( 0.000000000000000000, 0.000000000000000000, 159.0000000000000000 ) ) ;
#459 = EDGE_CURVE ( 'NONE', #329, #116, #530, .T. ) ;
#460 = DIRECTION ( 'NONE',  ( -1.224646799147353207E-16, 1.000000000000000000, 0.000000000000000000 ) ) ;
#461 = ORIENTED_EDGE ( 'NONE', *, *, #201, .T. ) ;
#462 = DIRECTION ( 'NONE',  ( -0.000000000000000000, -0.000000000000000000, -1.000000000000000000 ) ) ;
#463 = DIRECTION ( 'NONE',  ( 0.000000000000000000, 0.000000000000000000, 1.000000000000000000 ) ) ;
#464 = APPROVAL_DATE_TIME ( #196, #574 ) ;
#465 = CIRCLE ( 'NONE', #51, 5.000000000000000000 ) ;
#466 = CIRCLE ( 'NONE', #41, 1.000000000000000000 ) ;
#467 = PERSON ( 'UNSPECIFIED', 'UNSPECIFIED', 'UNSPECIFIED', ('UNSPECIFIED'), ('UNSPECIFIED'), ('UNSPECIFIED') ) ;
#468 = CARTESIAN_POINT ( 'NONE',  ( 0.000000000000000000, 0.000000000000000000, 130.3677417442229967 ) ) ;
#469 = FACE_OUTER_BOUND ( 'NONE', #327, .T. ) ;
#470 = EDGE_CURVE ( 'NONE', #116, #363, #231, .T. ) ;
#471 = DIRECTION ( 'NONE',  ( -0.000000000000000000, -0.000000000000000000, -1.000000000000000000 ) ) ;
#472 = CARTESIAN_POINT ( 'NONE',  ( 12.50000000000000000, 0.000000000000000000, 123.3856217223385272 ) ) ;
#473 = AXIS2_PLACEMENT_3D ( 'NONE', #36, #391, #352 ) ;
#474 = EDGE_CURVE ( 'NONE', #334, #443, #557, .T. ) ;
#475 = DIRECTION ( 'NONE',  ( -0.000000000000000000, -0.000000000000000000, 1.000000000000000000 ) ) ;
#476 = ADVANCED_FACE ( 'NONE', ( #163 ), #343, .T. ) ;
#477 = FACE_OUTER_BOUND ( 'NONE', #318, .T. ) ;
#478 = DIRECTION ( 'NONE',  ( 1.000000000000000000, 0.000000000000000000, 0.000000000000000000 ) ) ;
#479 = DIRECTION ( 'NONE',  ( 1.000000000000000000, 0.000000000000000000, 0.000000000000000000 ) ) ;
#480 = VECTOR ( 'NONE', #173, 1000.000000000000000 ) ;
#481 = VECTOR ( 'NONE', #110, 1000.000000000000000 ) ;
#482 = ORIENTED_EDGE ( 'NONE', *, *, #350, .T. ) ;
#483 = DIRECTION ( 'NONE',  ( -1.224646799147353207E-16, 1.000000000000000000, 0.000000000000000000 ) ) ;
#484 = ADVANCED_FACE ( 'NONE', ( #348 ), #228, .F. ) ;
#485 = DIRECTION ( 'NONE',  ( -0.000000000000000000, -0.000000000000000000, -1.000000000000000000 ) ) ;
#486 = ORIENTED_EDGE ( 'NONE', *, *, #84, .F. ) ;
#487 = DIRECTION ( 'NONE',  ( -0.000000000000000000, -0.000000000000000000, -1.000000000000000000 ) ) ;
#488 = CC_DESIGN_DATE_AND_TIME_ASSIGNMENT ( #512, #207, ( #406 ) ) ;
#489 = CARTESIAN_POINT ( 'NONE',  ( 0.000000000000000000, 0.000000000000000000, -30.00000000000000000 ) ) ;
#490 = ORIENTED_EDGE ( 'NONE', *, *, #217, .F. ) ;
#491 = PERSON_AND_ORGANIZATION ( #467, #542 ) ;
#492 = FACE_OUTER_BOUND ( 'NONE', #102, .T. ) ;
#493 = APPROVAL_PERSON_ORGANIZATION ( #234, #96, #405 ) ;
#494 = AXIS2_PLACEMENT_3D ( 'NONE', #489, #89, #57 ) ;
#495 = EDGE_LOOP ( 'NONE', ( #539, #252 ) ) ;
#496 = CIRCLE ( 'NONE', #27, 5.000000000000000000 ) ;
#497 = DIRECTION ( 'NONE',  ( 1.000000000000000000, 0.000000000000000000, 0.000000000000000000 ) ) ;
#498 = ADVANCED_FACE ( 'NONE', ( #477 ), #131, .T. ) ;
#499 = EDGE_LOOP ( 'NONE', ( #100, #461, #354, #140 ) ) ;
#500 = DIRECTION ( 'NONE',  ( -1.000000000000000000, 0.000000000000000000, 0.000000000000000000 ) ) ;
#501 = CARTESIAN_POINT ( 'NONE',  ( 0.000000000000000000, 0.000000000000000000, -28.99999999999999645 ) ) ;
#502 = ORIENTED_EDGE ( 'NONE', *, *, #217, .T. ) ;
#503 = CALENDAR_DATE ( 2026, 5, 6 ) ;
#504 = CARTESIAN_POINT ( 'NONE',  ( 2.500000000000000000, 3.061616997868383141E-16, 123.3856217223385272 ) ) ;
#505 = LOCAL_TIME ( 11, 32, 59.00000000000000000, #288 ) ;
#506 = ORIENTED_EDGE ( 'NONE', *, *, #212, .F. ) ;
#507 = CIRCLE ( 'NONE', #26, 1.000000000000000888 ) ;
#508 = ORIENTED_EDGE ( 'NONE', *, *, #459, .T. ) ;
#509 = ADVANCED_FACE ( 'NONE', ( #187 ), #383, .F. ) ;
#510 = CARTESIAN_POINT ( 'NONE',  ( -5.000000000000000000, 6.123233995736766282E-16, -28.99999999999999645 ) ) ;
#511 = ORIENTED_EDGE ( 'NONE', *, *, #336, .F. ) ;
#512 = DATE_AND_TIME ( #115, #161 ) ;
#513 = ORIENTED_EDGE ( 'NONE', *, *, #342, .F. ) ;
#514 = PRODUCT ( 'Separator_lever', 'Separator_lever', '', ( #184 ) ) ;
#515 = DIRECTION ( 'NONE',  ( 0.000000000000000000, 0.000000000000000000, -1.000000000000000000 ) ) ;
#516 = PERSON_AND_ORGANIZATION ( #467, #542 ) ;
#517 = AXIS2_PLACEMENT_3D ( 'NONE', #255, #261, #215 ) ;
#518 = CIRCLE ( 'NONE', #232, 10.00000000000000000 ) ;
#519 = CARTESIAN_POINT ( 'NONE',  ( 0.000000000000000000, 0.000000000000000000, -0.3677417442229952704 ) ) ;
#520 = CC_DESIGN_PERSON_AND_ORGANIZATION_ASSIGNMENT ( #245, #210, ( #40 ) ) ;
#521 = PRODUCT_DEFINITION_SHAPE ( 'NONE', 'NONE',  #48 ) ;
#522 = DIRECTION ( 'NONE',  ( 1.224646799147353207E-16, 1.000000000000000000, 0.000000000000000000 ) ) ;
#523 = TOROIDAL_SURFACE ( 'NONE', #75, 4.000000000000000000, 1.000000000000000000 ) ;
#524 = ADVANCED_FACE ( 'NONE', ( #402 ), #556, .T. ) ;
#525 = AXIS2_PLACEMENT_3D ( 'NONE', #126, #430, #308 ) ;
#526 = DIRECTION ( 'NONE',  ( -1.000000000000000000, 0.000000000000000000, 0.000000000000000000 ) ) ;
#527 = CARTESIAN_POINT ( 'NONE',  ( 2.500000000000000000, 3.061616997868383141E-16, 130.0000000000000000 ) ) ;
#528 = DIRECTION ( 'NONE',  ( 0.000000000000000000, 0.000000000000000000, 1.000000000000000000 ) ) ;
#529 = ORIENTED_EDGE ( 'NONE', *, *, #474, .F. ) ;
#530 = LINE ( 'NONE', #162, #266 ) ;
#531 = APPROVAL_PERSON_ORGANIZATION ( #338, #227, #17 ) ;
#532 = CARTESIAN_POINT ( 'NONE',  ( 0.000000000000000000, 0.000000000000000000, 160.0000000000000000 ) ) ;
#533 = ORIENTED_EDGE ( 'NONE', *, *, #431, .T. ) ;
#534 = DIRECTION ( 'NONE',  ( -0.000000000000000000, -0.000000000000000000, -1.000000000000000000 ) ) ;
#535 = CARTESIAN_POINT ( 'NONE',  ( -5.000000000000000000, 6.123233995736766282E-16, -0.3677417442229969913 ) ) ;
#536 = ORIENTED_EDGE ( 'NONE', *, *, #336, .T. ) ;
#537 = DIRECTION ( 'NONE',  ( 1.000000000000000000, 0.000000000000000000, 0.000000000000000000 ) ) ;
#538 = CARTESIAN_POINT ( 'NONE',  ( -4.000000000000000000, 4.898587196589412829E-16, 159.0000000000000000 ) ) ;
#539 = ORIENTED_EDGE ( 'NONE', *, *, #411, .T. ) ;
#540 = DIRECTION ( 'NONE',  ( 0.000000000000000000, 0.000000000000000000, 1.000000000000000000 ) ) ;
#541 = DIRECTION ( 'NONE',  ( -1.000000000000000000, 0.000000000000000000, 0.000000000000000000 ) ) ;
#542 = ORGANIZATION ( 'UNSPECIFIED', 'UNSPECIFIED', '' ) ;
#543 = EDGE_CURVE ( 'NONE', #116, #2, #465, .T. ) ;
#544 = AXIS2_PLACEMENT_3D ( 'NONE', #349, #169, #435 ) ;
#545 = ORIENTED_EDGE ( 'NONE', *, *, #191, .T. ) ;
#546 = FACE_OUTER_BOUND ( 'NONE', #69, .T. ) ;
#547 = EDGE_LOOP ( 'NONE', ( #195, #60, #135, #490 ) ) ;
#548 = DIRECTION ( 'NONE',  ( 0.000000000000000000, 0.000000000000000000, -1.000000000000000000 ) ) ;
#549 = ADVANCED_BREP_SHAPE_REPRESENTATION ( 'Separator_lever', ( #422, #418 ), #10 ) ;
#550 = ORIENTED_EDGE ( 'NONE', *, *, #212, .T. ) ;
#551 = DIRECTION ( 'NONE',  ( 0.000000000000000000, 0.000000000000000000, 1.000000000000000000 ) ) ;
#552 = DIRECTION ( 'NONE',  ( -0.000000000000000000, -0.000000000000000000, -1.000000000000000000 ) ) ;
#553 = DIRECTION ( 'NONE',  ( 1.000000000000000000, 0.000000000000000000, 0.000000000000000000 ) ) ;
#554 = ADVANCED_FACE ( 'NONE', ( #546 ), #324, .T. ) ;
#555 = CARTESIAN_POINT ( 'NONE',  ( 0.000000000000000000, 0.000000000000000000, 123.3856217223385272 ) ) ;
#556 = TOROIDAL_SURFACE ( 'NONE', #109, 4.000000000000000000, 1.000000000000000000 ) ;
#557 = CIRCLE ( 'NONE', #517, 2.500000000000000000 ) ;
#558 = ORIENTED_EDGE ( 'NONE', *, *, #224, .T. ) ;
#559 = AXIS2_PLACEMENT_3D ( 'NONE', #273, #441, #311 ) ;
#560 = VERTEX_POINT ( 'NONE', #7 ) ;
#561 = DIRECTION ( 'NONE',  ( -1.000000000000000000, 0.000000000000000000, 0.000000000000000000 ) ) ;
#562 = ORIENTED_EDGE ( 'NONE', *, *, #357, .F. ) ;
#563 = CALENDAR_DATE ( 2026, 5, 6 ) ;
#564 = FACE_OUTER_BOUND ( 'NONE', #284, .T. ) ;
#565 = FACE_OUTER_BOUND ( 'NONE', #111, .T. ) ;
#566 = ADVANCED_FACE ( 'NONE', ( #136 ), #272, .T. ) ;
#567 = CC_DESIGN_APPROVAL ( #574, ( #406 ) ) ;
#568 = TOROIDAL_SURFACE ( 'NONE', #300, 4.000000000000000000, 1.000000000000000000 ) ;
#569 = DIRECTION ( 'NONE',  ( -1.000000000000000000, 0.000000000000000000, 0.000000000000000000 ) ) ;
#570 = DIRECTION ( 'NONE',  ( -1.000000000000000000, 0.000000000000000000, 0.000000000000000000 ) ) ;
#571 = EDGE_CURVE ( 'NONE', #68, #183, #254, .T. ) ;
#572 = DIRECTION ( 'NONE',  ( 0.000000000000000000, 0.000000000000000000, -1.000000000000000000 ) ) ;
#573 = AXIS2_PLACEMENT_3D ( 'NONE', #408, #281, #3 ) ;
#574 = APPROVAL ( #258, 'UNSPECIFIED' ) ;
#575 = CIRCLE ( 'NONE', #344, 1.000000000000000888 ) ;
#576 = CIRCLE ( 'NONE', #525, 9.999999999999998224 ) ;
#577 = DIRECTION ( 'NONE',  ( -0.000000000000000000, -0.000000000000000000, 1.000000000000000000 ) ) ;
#578 = ORIENTED_EDGE ( 'NONE', *, *, #279, .T. ) ;
#579 = DIRECTION ( 'NONE',  ( 0.000000000000000000, 0.000000000000000000, -1.000000000000000000 ) ) ;
#580 = DIRECTION ( 'NONE',  ( -0.000000000000000000, -0.000000000000000000, 1.000000000000000000 ) ) ;
#581 = EDGE_CURVE ( 'NONE', #97, #398, #432, .T. ) ;
#582 = ORIENTED_EDGE ( 'NONE', *, *, #54, .T. ) ;
#583 = CARTESIAN_POINT ( 'NONE',  ( 0.000000000000000000, 0.000000000000000000, -0.3677417442229969913 ) ) ;
#584 = CIRCLE ( 'NONE', #76, 4.000000000000000000 ) ;
#585 = DIRECTION ( 'NONE',  ( -1.000000000000000000, 0.000000000000000000, 0.000000000000000000 ) ) ;
#586 = CIRCLE ( 'NONE', #190, 5.000000000000000000 ) ;
#587 = ORIENTED_EDGE ( 'NONE', *, *, #224, .F. ) ;
ENDSEC;
END-ISO-10303-21;
