ISO-10303-21;
HEADER;
FILE_DESCRIPTION (( 'STEP AP203' ),
    '1' );
FILE_NAME ('Separator_train.step',
    '2026-06-05T03:33:00',
    ( '' ),
    ( '' ),
    'SwSTEP 2.0',
    'SolidWorks 2024',
    '' );
FILE_SCHEMA (( 'CONFIG_CONTROL_DESIGN' ));
ENDSEC;

DATA;
#1 = ORIENTED_EDGE ( 'NONE', *, *, #320, .F. ) ;
#2 = CALENDAR_DATE ( 2026, 5, 6 ) ;
#3 = ORIENTED_EDGE ( 'NONE', *, *, #5, .F. ) ;
#4 = DIRECTION ( 'NONE',  ( -0.000000000000000000, -0.000000000000000000, -1.000000000000000000 ) ) ;
#5 = EDGE_CURVE ( 'NONE', #223, #336, #521, .T. ) ;
#6 = DIRECTION ( 'NONE',  ( 0.000000000000000000, -1.000000000000000000, 0.000000000000000000 ) ) ;
#7 = PERSON_AND_ORGANIZATION ( #451, #362 ) ;
#8 = VERTEX_POINT ( 'NONE', #681 ) ;
#9 = LINE ( 'NONE', #585, #557 ) ;
#10 = DIRECTION ( 'NONE',  ( 0.000000000000000000, -0.000000000000000000, 1.000000000000000000 ) ) ;
#11 = VECTOR ( 'NONE', #689, 1000.000000000000000 ) ;
#12 = EDGE_LOOP ( 'NONE', ( #421, #524 ) ) ;
#13 = DIRECTION ( 'NONE',  ( 1.000000000000000000, 0.000000000000000000, 0.000000000000000000 ) ) ;
#14 = PLANE ( 'NONE',  #674 ) ;
#15 = EDGE_CURVE ( 'NONE', #267, #154, #100, .T. ) ;
#16 = EDGE_LOOP ( 'NONE', ( #147, #123, #310, #74, #628, #668, #686, #333 ) ) ;
#17 = CARTESIAN_POINT ( 'NONE',  ( 22.49999999999999645, 3.799999999999998046, 34.89999999999999147 ) ) ;
#18 = DIRECTION ( 'NONE',  ( 2.168404344971008868E-16, -1.000000000000000000, 0.000000000000000000 ) ) ;
#19 = ORIENTED_EDGE ( 'NONE', *, *, #682, .T. ) ;
#20 = FACE_OUTER_BOUND ( 'NONE', #390, .T. ) ;
#21 = DIRECTION ( 'NONE',  ( -0.000000000000000000, -0.000000000000000000, -1.000000000000000000 ) ) ;
#22 = AXIS2_PLACEMENT_3D ( 'NONE', #356, #244, #301 ) ;
#23 = EDGE_LOOP ( 'NONE', ( #595, #323 ) ) ;
#24 = CARTESIAN_POINT ( 'NONE',  ( 22.49999999999999645, 7.999999999999998224, 38.89999999999998437 ) ) ;
#25 = VECTOR ( 'NONE', #71, 1000.000000000000000 ) ;
#26 = PRODUCT_DEFINITION_SHAPE ( 'NONE', 'NONE',  #423 ) ;
#27 = ORIENTED_EDGE ( 'NONE', *, *, #364, .F. ) ;
#28 = DIRECTION ( 'NONE',  ( -0.000000000000000000, 0.000000000000000000, 1.000000000000000000 ) ) ;
#29 = EDGE_CURVE ( 'NONE', #267, #432, #202, .T. ) ;
#30 = LINE ( 'NONE', #17, #25 ) ;
#31 = LINE ( 'NONE', #90, #192 ) ;
#32 = CARTESIAN_POINT ( 'NONE',  ( 22.49999999999999645, 7.999999999999998224, 34.89999999999999147 ) ) ;
#33 = CIRCLE ( 'NONE', #687, 1.999999999999998224 ) ;
#34 = EDGE_CURVE ( 'NONE', #604, #648, #213, .T. ) ;
#35 = APPLICATION_PROTOCOL_DEFINITION ( 'international standard', 'config_control_design', 1994, #276 ) ;
#36 = CARTESIAN_POINT ( 'NONE',  ( 30.00000000000000355, 7.999999999999998224, 0.000000000000000000 ) ) ;
#37 = DATE_AND_TIME ( #134, #133 ) ;
#38 = EDGE_CURVE ( 'NONE', #98, #642, #622, .T. ) ;
#39 = DIRECTION ( 'NONE',  ( 0.000000000000000000, -0.000000000000000000, -1.000000000000000000 ) ) ;
#40 = CARTESIAN_POINT ( 'NONE',  ( 22.49999999999999289, 3.799999999999998046, 16.89999999999999147 ) ) ;
#41 = VECTOR ( 'NONE', #54, 1000.000000000000000 ) ;
#42 = CIRCLE ( 'NONE', #235, 1.999999999999994893 ) ;
#43 = ORIENTED_EDGE ( 'NONE', *, *, #105, .F. ) ;
#44 = CARTESIAN_POINT ( 'NONE',  ( 22.49999999999999645, 3.799999999999998046, 38.89999999999998437 ) ) ;
#45 = EDGE_CURVE ( 'NONE', #46, #286, #360, .T. ) ;
#46 = VERTEX_POINT ( 'NONE', #357 ) ;
#47 = ORIENTED_EDGE ( 'NONE', *, *, #442, .T. ) ;
#48 = CARTESIAN_POINT ( 'NONE',  ( -22.50000000000000000, 3.799999999999998046, 18.89999999999999503 ) ) ;
#49 = EDGE_CURVE ( 'NONE', #496, #604, #89, .T. ) ;
#50 = PERSON_AND_ORGANIZATION_ROLE ( 'classification_officer' ) ;
#51 = EDGE_LOOP ( 'NONE', ( #3, #257, #519, #440 ) ) ;
#52 = CARTESIAN_POINT ( 'NONE',  ( 22.49999999999999289, 3.799999999999998046, 18.89999999999999147 ) ) ;
#53 = AXIS2_PLACEMENT_3D ( 'NONE', #164, #107, #322 ) ;
#54 = DIRECTION ( 'NONE',  ( -0.000000000000000000, -0.000000000000000000, -1.000000000000000000 ) ) ;
#55 = EDGE_CURVE ( 'NONE', #163, #214, #169, .T. ) ;
#56 = EDGE_LOOP ( 'NONE', ( #209, #584, #515, #550 ) ) ;
#57 = DIRECTION ( 'NONE',  ( 0.000000000000000000, 0.000000000000000000, 1.000000000000000000 ) ) ;
#58 = DIRECTION ( 'NONE',  ( 0.000000000000000000, 1.000000000000000000, -0.000000000000000000 ) ) ;
#59 = ORIENTED_EDGE ( 'NONE', *, *, #651, .T. ) ;
#60 = CARTESIAN_POINT ( 'NONE',  ( -21.00000000000000355, -8.000000000000001776, 53.79999999999999716 ) ) ;
#61 = EDGE_CURVE ( 'NONE', #321, #218, #482, .T. ) ;
#62 = ORIENTED_EDGE ( 'NONE', *, *, #403, .F. ) ;
#63 = CYLINDRICAL_SURFACE ( 'NONE', #138, 1.999999999999994893 ) ;
#64 = FACE_OUTER_BOUND ( 'NONE', #236, .T. ) ;
#65 = AXIS2_PLACEMENT_3D ( 'NONE', #498, #114, #124 ) ;
#66 = VERTEX_POINT ( 'NONE', #165 ) ;
#67 = CARTESIAN_POINT ( 'NONE',  ( -22.50000000000000000, 3.799999999999998046, 14.90000000000000036 ) ) ;
#68 = CARTESIAN_POINT ( 'NONE',  ( 22.49999999999999645, 7.999999999999998224, 36.89999999999999147 ) ) ;
#69 = EDGE_CURVE ( 'NONE', #572, #195, #582, .T. ) ;
#70 = EDGE_LOOP ( 'NONE', ( #170, #411, #425, #393 ) ) ;
#71 = DIRECTION ( 'NONE',  ( -0.000000000000000000, 1.000000000000000000, -0.000000000000000000 ) ) ;
#72 = ORIENTED_EDGE ( 'NONE', *, *, #5, .T. ) ;
#73 = CARTESIAN_POINT ( 'NONE',  ( 21.00000000000000000, -8.000000000000001776, 53.79999999999999716 ) ) ;
#74 = ORIENTED_EDGE ( 'NONE', *, *, #675, .F. ) ;
#75 = CARTESIAN_POINT ( 'NONE',  ( -30.00000000000000355, -6.505213034913027393E-15, 0.000000000000000000 ) ) ;
#76 = DIRECTION ( 'NONE',  ( 0.000000000000000000, 0.000000000000000000, -1.000000000000000000 ) ) ;
#77 = AXIS2_PLACEMENT_3D ( 'NONE', #197, #252, #187 ) ;
#78 = ORIENTED_EDGE ( 'NONE', *, *, #442, .F. ) ;
#79 = DIRECTION ( 'NONE',  ( 0.000000000000000000, 1.000000000000000000, -0.000000000000000000 ) ) ;
#80 = VECTOR ( 'NONE', #660, 1000.000000000000000 ) ;
#81 = PLANE ( 'NONE',  #404 ) ;
#82 = CC_DESIGN_PERSON_AND_ORGANIZATION_ASSIGNMENT ( #551, #450, ( #423 ) ) ;
#83 = FACE_OUTER_BOUND ( 'NONE', #549, .T. ) ;
#84 = VECTOR ( 'NONE', #355, 1000.000000000000000 ) ;
#85 = DIRECTION ( 'NONE',  ( 0.000000000000000000, 0.000000000000000000, 1.000000000000000000 ) ) ;
#86 = DIRECTION ( 'NONE',  ( -1.137523590804464512E-15, 1.000000000000000000, 0.000000000000000000 ) ) ;
#87 = DIRECTION ( 'NONE',  ( -1.000000000000000000, 0.000000000000000000, 0.000000000000000000 ) ) ;
#88 = CARTESIAN_POINT ( 'NONE',  ( -30.00000000000000355, 7.999999999999998224, 53.79999999999999716 ) ) ;
#89 = LINE ( 'NONE', #305, #614 ) ;
#90 = CARTESIAN_POINT ( 'NONE',  ( 0.000000000000000000, -8.000000000000001776, 0.000000000000000000 ) ) ;
#91 = CARTESIAN_POINT ( 'NONE',  ( -30.00000000000000355, -8.000000000000001776, 0.000000000000000000 ) ) ;
#92 = ADVANCED_FACE ( 'NONE', ( #652 ), #14, .F. ) ;
#93 = AXIS2_PLACEMENT_3D ( 'NONE', #624, #363, #76 ) ;
#94 = AXIS2_PLACEMENT_3D ( 'NONE', #237, #132, #441 ) ;
#95 = ORIENTED_EDGE ( 'NONE', *, *, #45, .T. ) ;
#96 = DIRECTION ( 'NONE',  ( -0.000000000000000000, 1.000000000000000000, -0.000000000000000000 ) ) ;
#97 = PERSON_AND_ORGANIZATION_ROLE ( 'creator' ) ;
#98 = VERTEX_POINT ( 'NONE', #486 ) ;
#99 = LINE ( 'NONE', #262, #594 ) ;
#100 = LINE ( 'NONE', #470, #289 ) ;
#101 = EDGE_CURVE ( 'NONE', #476, #238, #664, .T. ) ;
#102 = EDGE_LOOP ( 'NONE', ( #683, #78, #261, #229 ) ) ;
#103 = CARTESIAN_POINT ( 'NONE',  ( -30.00000000000000355, 7.999999999999998224, 0.000000000000000000 ) ) ;
#104 = CIRCLE ( 'NONE', #234, 1.999999999999998224 ) ;
#105 = EDGE_CURVE ( 'NONE', #267, #533, #474, .T. ) ;
#106 = EDGE_LOOP ( 'NONE', ( #127, #62, #342, #428 ) ) ;
#107 = DIRECTION ( 'NONE',  ( 1.000000000000000000, -2.168404344971009115E-16, 0.000000000000000000 ) ) ;
#108 = DIRECTION ( 'NONE',  ( 0.000000000000000000, 0.000000000000000000, 1.000000000000000000 ) ) ;
#109 = PERSON_AND_ORGANIZATION ( #451, #362 ) ;
#110 = VERTEX_POINT ( 'NONE', #540 ) ;
#111 = CARTESIAN_POINT ( 'NONE',  ( 22.49999999999999289, 7.999999999999998224, 14.89999999999999325 ) ) ;
#112 = DIRECTION ( 'NONE',  ( 0.000000000000000000, 1.000000000000000000, 0.000000000000000000 ) ) ;
#113 = ORIENTED_EDGE ( 'NONE', *, *, #335, .F. ) ;
#114 = DIRECTION ( 'NONE',  ( 0.000000000000000000, 1.000000000000000000, 0.000000000000000000 ) ) ;
#115 = ADVANCED_FACE ( 'NONE', ( #389 ), #116, .T. ) ;
#116 = PLANE ( 'NONE',  #173 ) ;
#117 = VECTOR ( 'NONE', #455, 1000.000000000000000 ) ;
#118 = VECTOR ( 'NONE', #491, 1000.000000000000000 ) ;
#119 = ORIENTED_EDGE ( 'NONE', *, *, #331, .T. ) ;
#120 = CARTESIAN_POINT ( 'NONE',  ( -30.00000000000000355, -8.000000000000001776, 53.79999999999999716 ) ) ;
#121 = ADVANCED_FACE ( 'NONE', ( #228 ), #593, .F. ) ;
#122 = DIRECTION ( 'NONE',  ( 0.000000000000000000, -0.000000000000000000, -1.000000000000000000 ) ) ;
#123 = ORIENTED_EDGE ( 'NONE', *, *, #34, .F. ) ;
#124 = DIRECTION ( 'NONE',  ( 0.000000000000000000, -0.000000000000000000, 1.000000000000000000 ) ) ;
#125 = CARTESIAN_POINT ( 'NONE',  ( 21.00000000000000000, -8.000000000000001776, 53.79999999999999716 ) ) ;
#126 = DESIGN_CONTEXT ( 'detailed design', #276, 'design' ) ;
#127 = ORIENTED_EDGE ( 'NONE', *, *, #508, .F. ) ;
#128 = CARTESIAN_POINT ( 'NONE',  ( 22.49999999999999289, 7.999999999999998224, 16.89999999999999147 ) ) ;
#129 = AXIS2_PLACEMENT_3D ( 'NONE', #285, #328, #161 ) ;
#130 = EDGE_CURVE ( 'NONE', #526, #553, #547, .T. ) ;
#131 = VERTEX_POINT ( 'NONE', #324 ) ;
#132 = DIRECTION ( 'NONE',  ( 0.000000000000000000, 1.000000000000000000, 0.000000000000000000 ) ) ;
#133 = LOCAL_TIME ( 11, 33, 0.000000000000000000, #300 ) ;
#134 = CALENDAR_DATE ( 2026, 5, 6 ) ;
#135 = EDGE_CURVE ( 'NONE', #553, #526, #104, .T. ) ;
#136 = CARTESIAN_POINT ( 'NONE',  ( 22.49999999999999289, 3.799999999999998046, 16.89999999999999147 ) ) ;
#137 = APPROVAL_ROLE ( '' ) ;
#138 = AXIS2_PLACEMENT_3D ( 'NONE', #370, #156, #57 ) ;
#139 = AXIS2_PLACEMENT_3D ( 'NONE', #601, #655, #546 ) ;
#140 = CARTESIAN_POINT ( 'NONE',  ( -22.50000000000000000, 3.799999999999998046, 16.89999999999999858 ) ) ;
#141 = CARTESIAN_POINT ( 'NONE',  ( -21.00000000000000355, -1.900000000000002354, 53.79999999999999716 ) ) ;
#142 = DIRECTION ( 'NONE',  ( -0.000000000000000000, 1.000000000000000000, -0.000000000000000000 ) ) ;
#143 = ORIENTED_EDGE ( 'NONE', *, *, #431, .F. ) ;
#144 = EDGE_CURVE ( 'NONE', #574, #110, #493, .T. ) ;
#145 = APPLICATION_PROTOCOL_DEFINITION ( 'international standard', 'config_control_design', 1994, #248 ) ;
#146 = DIRECTION ( 'NONE',  ( 0.000000000000000000, 1.000000000000000000, -0.000000000000000000 ) ) ;
#147 = ORIENTED_EDGE ( 'NONE', *, *, #587, .T. ) ;
#148 = CYLINDRICAL_SURFACE ( 'NONE', #341, 1.999999999999998224 ) ;
#149 = AXIS2_PLACEMENT_3D ( 'NONE', #136, #408, #85 ) ;
#150 = AXIS2_PLACEMENT_3D ( 'NONE', #663, #79, #497 ) ;
#151 = CARTESIAN_POINT ( 'NONE',  ( -21.00000000000000355, 0.000000000000000000, 53.79999999999999716 ) ) ;
#152 = ORIENTED_EDGE ( 'NONE', *, *, #682, .F. ) ;
#153 = LINE ( 'NONE', #52, #438 ) ;
#154 = VERTEX_POINT ( 'NONE', #386 ) ;
#155 = ORIENTED_EDGE ( 'NONE', *, *, #130, .T. ) ;
#156 = DIRECTION ( 'NONE',  ( -0.000000000000000000, 1.000000000000000000, -0.000000000000000000 ) ) ;
#157 = DIRECTION ( 'NONE',  ( 1.000000000000000000, 4.130293990420969390E-16, 0.000000000000000000 ) ) ;
#158 = ORIENTED_EDGE ( 'NONE', *, *, #638, .F. ) ;
#159 = LINE ( 'NONE', #646, #290 ) ;
#160 = VECTOR ( 'NONE', #273, 1000.000000000000000 ) ;
#161 = DIRECTION ( 'NONE',  ( 0.000000000000000000, 0.000000000000000000, 1.000000000000000000 ) ) ;
#162 = APPROVAL_PERSON_ORGANIZATION ( #559, #445, #184 ) ;
#163 = VERTEX_POINT ( 'NONE', #125 ) ;
#164 = CARTESIAN_POINT ( 'NONE',  ( 30.00000000000000355, -6.505213034913027393E-15, 53.79999999999999716 ) ) ;
#165 = CARTESIAN_POINT ( 'NONE',  ( -22.50000000000000355, 3.799999999999998046, 34.90000000000001990 ) ) ;
#166 = ADVANCED_FACE ( 'NONE', ( #64 ), #338, .T. ) ;
#167 = ORIENTED_EDGE ( 'NONE', *, *, #371, .T. ) ;
#168 = DIRECTION ( 'NONE',  ( 0.000000000000000000, -0.000000000000000000, 1.000000000000000000 ) ) ;
#169 = LINE ( 'NONE', #73, #160 ) ;
#170 = ORIENTED_EDGE ( 'NONE', *, *, #400, .F. ) ;
#171 = DIRECTION ( 'NONE',  ( 0.000000000000000000, 1.000000000000000000, 0.000000000000000000 ) ) ;
#172 = CARTESIAN_POINT ( 'NONE',  ( -30.00000000000000355, -6.505213034913027393E-15, 53.79999999999999716 ) ) ;
#173 = AXIS2_PLACEMENT_3D ( 'NONE', #376, #112, #10 ) ;
#174 = CIRCLE ( 'NONE', #375, 1.999999999999998224 ) ;
#175 = ORIENTED_EDGE ( 'NONE', *, *, #403, .T. ) ;
#176 = FACE_OUTER_BOUND ( 'NONE', #102, .T. ) ;
#177 = ADVANCED_FACE ( 'NONE', ( #544 ), #332, .F. ) ;
#178 = DIRECTION ( 'NONE',  ( 0.000000000000000000, 1.000000000000000000, 0.000000000000000000 ) ) ;
#179 = ORIENTED_EDGE ( 'NONE', *, *, #61, .T. ) ;
#180 = LINE ( 'NONE', #391, #385 ) ;
#181 = ORIENTED_EDGE ( 'NONE', *, *, #566, .F. ) ;
#182 = CARTESIAN_POINT ( 'NONE',  ( 20.99999999999999645, -1.899999999999985034, 0.000000000000000000 ) ) ;
#183 = VECTOR ( 'NONE', #314, 1000.000000000000000 ) ;
#184 = APPROVAL_ROLE ( '' ) ;
#185 = AXIS2_PLACEMENT_3D ( 'NONE', #352, #503, #458 ) ;
#186 = CALENDAR_DATE ( 2026, 5, 6 ) ;
#187 = DIRECTION ( 'NONE',  ( 0.000000000000000000, -0.000000000000000000, 1.000000000000000000 ) ) ;
#188 = DATE_TIME_ROLE ( 'creation_date' ) ;
#189 = DIRECTION ( 'NONE',  ( 0.000000000000000000, 1.000000000000000000, -0.000000000000000000 ) ) ;
#190 = CYLINDRICAL_SURFACE ( 'NONE', #501, 1.999999999999994893 ) ;
#191 = VECTOR ( 'NONE', #21, 1000.000000000000000 ) ;
#192 = VECTOR ( 'NONE', #297, 1000.000000000000000 ) ;
#193 = PLANE ( 'NONE',  #535 ) ;
#194 = EDGE_CURVE ( 'NONE', #163, #8, #216, .T. ) ;
#195 = VERTEX_POINT ( 'NONE', #32 ) ;
#196 =( NAMED_UNIT ( * ) PLANE_ANGLE_UNIT ( ) SI_UNIT ( $, .RADIAN. ) );
#197 = CARTESIAN_POINT ( 'NONE',  ( 22.49999999999999645, 3.799999999999998046, 36.89999999999999147 ) ) ;
#198 = CC_DESIGN_DATE_AND_TIME_ASSIGNMENT ( #475, #260, ( #307 ) ) ;
#199 = SHAPE_DEFINITION_REPRESENTATION ( #26, #633 ) ;
#200 = VERTEX_POINT ( 'NONE', #91 ) ;
#201 = DIRECTION ( 'NONE',  ( 0.000000000000000000, 1.000000000000000000, -0.000000000000000000 ) ) ;
#202 = LINE ( 'NONE', #413, #41 ) ;
#203 = ADVANCED_FACE ( 'NONE', ( #670 ), #459, .F. ) ;
#204 = ORIENTED_EDGE ( 'NONE', *, *, #508, .T. ) ;
#205 = DIRECTION ( 'NONE',  ( 1.000000000000000000, 0.000000000000000000, 0.000000000000000000 ) ) ;
#206 = CIRCLE ( 'NONE', #480, 1.999999999999998224 ) ;
#207 = AXIS2_PLACEMENT_3D ( 'NONE', #463, #201, #412 ) ;
#208 = CC_DESIGN_APPROVAL ( #346, ( #415 ) ) ;
#209 = ORIENTED_EDGE ( 'NONE', *, *, #587, .F. ) ;
#210 = ORIENTED_EDGE ( 'NONE', *, *, #61, .F. ) ;
#211 = DIRECTION ( 'NONE',  ( -0.000000000000000000, 1.000000000000000000, -0.000000000000000000 ) ) ;
#212 = APPROVAL ( #325, 'UNSPECIFIED' ) ;
#213 = LINE ( 'NONE', #625, #350 ) ;
#214 = VERTEX_POINT ( 'NONE', #452 ) ;
#215 = CARTESIAN_POINT ( 'NONE',  ( 20.99999999999999645, -1.899999999999985034, 53.79999999999999716 ) ) ;
#216 = LINE ( 'NONE', #424, #374 ) ;
#217 = APPROVAL_ROLE ( '' ) ;
#218 = VERTEX_POINT ( 'NONE', #678 ) ;
#219 = FACE_OUTER_BOUND ( 'NONE', #70, .T. ) ;
#220 = CARTESIAN_POINT ( 'NONE',  ( -22.50000000000000000, 7.999999999999998224, 16.89999999999999858 ) ) ;
#221 = LOCAL_TIME ( 11, 33, 0.000000000000000000, #612 ) ;
#222 = EDGE_CURVE ( 'NONE', #462, #46, #353, .T. ) ;
#223 = VERTEX_POINT ( 'NONE', #563 ) ;
#224 = CARTESIAN_POINT ( 'NONE',  ( 0.000000000000000000, 7.999999999999998224, 53.79999999999999716 ) ) ;
#225 = DIRECTION ( 'NONE',  ( 0.000000000000000000, 1.000000000000000000, 0.000000000000000000 ) ) ;
#226 = ORIENTED_EDGE ( 'NONE', *, *, #15, .F. ) ;
#227 = PLANE ( 'NONE',  #396 ) ;
#228 = FACE_OUTER_BOUND ( 'NONE', #579, .T. ) ;
#229 = ORIENTED_EDGE ( 'NONE', *, *, #552, .T. ) ;
#230 = PLANE ( 'NONE',  #139 ) ;
#231 = ADVANCED_FACE ( 'NONE', ( #308 ), #555, .T. ) ;
#232 = EDGE_LOOP ( 'NONE', ( #367, #113 ) ) ;
#233 = DIRECTION ( 'NONE',  ( -2.168404344971009115E-16, 1.000000000000000000, 0.000000000000000000 ) ) ;
#234 = AXIS2_PLACEMENT_3D ( 'NONE', #586, #656, #647 ) ;
#235 = AXIS2_PLACEMENT_3D ( 'NONE', #416, #275, #632 ) ;
#236 = EDGE_LOOP ( 'NONE', ( #679, #623, #661, #226, #635, #265, #545, #630 ) ) ;
#237 = CARTESIAN_POINT ( 'NONE',  ( 22.49999999999999645, 7.999999999999998224, 36.89999999999999147 ) ) ;
#238 = VERTEX_POINT ( 'NONE', #44 ) ;
#239 = LINE ( 'NONE', #381, #80 ) ;
#240 = DIRECTION ( 'NONE',  ( 0.000000000000000000, 1.000000000000000000, -0.000000000000000000 ) ) ;
#241 = EDGE_CURVE ( 'NONE', #462, #66, #639, .T. ) ;
#242 = CLOSED_SHELL ( 'NONE', ( #294, #247, #671, #256, #299, #517, #354, #460, #92, #561, #662, #558, #166, #541, #312, #115, #177, #203, #397, #231, #492, #121 ) ) ;
#243 = CARTESIAN_POINT ( 'NONE',  ( -22.50000000000000355, 3.799999999999998046, 36.90000000000001279 ) ) ;
#244 = DIRECTION ( 'NONE',  ( -0.000000000000000000, 1.000000000000000000, -0.000000000000000000 ) ) ;
#245 = DATE_AND_TIME ( #505, #221 ) ;
#246 = LINE ( 'NONE', #348, #117 ) ;
#247 = ADVANCED_FACE ( 'NONE', ( #504 ), #610, .F. ) ;
#248 = APPLICATION_CONTEXT ( 'configuration controlled 3d designs of mechanical parts and assemblies' ) ;
#249 = CARTESIAN_POINT ( 'NONE',  ( -22.50000000000000355, 3.799999999999998046, 36.90000000000001279 ) ) ;
#250 = AXIS2_PLACEMENT_3D ( 'NONE', #68, #178, #439 ) ;
#251 =( GEOMETRIC_REPRESENTATION_CONTEXT ( 3 ) GLOBAL_UNCERTAINTY_ASSIGNED_CONTEXT ( ( #608 ) ) GLOBAL_UNIT_ASSIGNED_CONTEXT ( ( #453, #196, #407 ) ) REPRESENTATION_CONTEXT ( 'NONE', 'WORKASPACE' ) );
#252 = DIRECTION ( 'NONE',  ( 0.000000000000000000, 1.000000000000000000, 0.000000000000000000 ) ) ;
#253 = DIRECTION ( 'NONE',  ( 0.000000000000000000, 1.000000000000000000, -0.000000000000000000 ) ) ;
#254 = EDGE_LOOP ( 'NONE', ( #1, #72, #688, #143 ) ) ;
#255 = CYLINDRICAL_SURFACE ( 'NONE', #653, 1.999999999999998224 ) ;
#256 = ADVANCED_FACE ( 'NONE', ( #506 ), #148, .F. ) ;
#257 = ORIENTED_EDGE ( 'NONE', *, *, #331, .F. ) ;
#258 = CARTESIAN_POINT ( 'NONE',  ( 0.000000000000000000, -8.000000000000001776, 53.79999999999999716 ) ) ;
#259 = PRODUCT_RELATED_PRODUCT_CATEGORY ( 'detail', '', ( #650 ) ) ;
#260 = DATE_TIME_ROLE ( 'classification_date' ) ;
#261 = ORIENTED_EDGE ( 'NONE', *, *, #344, .F. ) ;
#262 = CARTESIAN_POINT ( 'NONE',  ( -22.50000000000000000, 3.799999999999998046, 14.90000000000000036 ) ) ;
#263 = AXIS2_PLACEMENT_3D ( 'NONE', #278, #644, #430 ) ;
#264 = MANIFOLD_SOLID_BREP ( '°£®Æ-¦ùªø1', #242 ) ;
#265 = ORIENTED_EDGE ( 'NONE', *, *, #344, .T. ) ;
#266 = PERSON_AND_ORGANIZATION ( #451, #362 ) ;
#267 = VERTEX_POINT ( 'NONE', #88 ) ;
#268 = LINE ( 'NONE', #575, #437 ) ;
#269 = DIRECTION ( 'NONE',  ( -0.000000000000000000, 1.000000000000000000, -0.000000000000000000 ) ) ;
#270 = EDGE_LOOP ( 'NONE', ( #527, #155 ) ) ;
#271 = CARTESIAN_POINT ( 'NONE',  ( -22.50000000000000000, 7.999999999999998224, 16.89999999999999858 ) ) ;
#272 = EDGE_CURVE ( 'NONE', #642, #8, #246, .T. ) ;
#273 = DIRECTION ( 'NONE',  ( -0.000000000000000000, -0.000000000000000000, -1.000000000000000000 ) ) ;
#274 = ORIENTED_EDGE ( 'NONE', *, *, #69, .F. ) ;
#275 = DIRECTION ( 'NONE',  ( 0.000000000000000000, 1.000000000000000000, 0.000000000000000000 ) ) ;
#276 = APPLICATION_CONTEXT ( 'configuration controlled 3d designs of mechanical parts and assemblies' ) ;
#277 = VECTOR ( 'NONE', #205, 1000.000000000000000 ) ;
#278 = CARTESIAN_POINT ( 'NONE',  ( 0.000000000000000000, 0.000000000000000000, 53.79999999999999716 ) ) ;
#279 = CIRCLE ( 'NONE', #494, 1.999999999999994893 ) ;
#280 = EDGE_LOOP ( 'NONE', ( #372, #339 ) ) ;
#281 = CARTESIAN_POINT ( 'NONE',  ( -22.50000000000000000, 7.999999999999998224, 18.89999999999999503 ) ) ;
#282 = CARTESIAN_POINT ( 'NONE',  ( -22.50000000000000000, 3.799999999999998046, 16.89999999999999858 ) ) ;
#283 = ORIENTED_EDGE ( 'NONE', *, *, #552, .F. ) ;
#284 = CARTESIAN_POINT ( 'NONE',  ( -22.50000000000000000, 3.799999999999998046, 18.89999999999999503 ) ) ;
#285 = CARTESIAN_POINT ( 'NONE',  ( 22.49999999999999645, 3.799999999999998046, 36.89999999999999147 ) ) ;
#286 = VERTEX_POINT ( 'NONE', #456 ) ;
#287 = DIRECTION ( 'NONE',  ( 1.000000000000000000, 0.000000000000000000, 0.000000000000000000 ) ) ;
#288 = FACE_OUTER_BOUND ( 'NONE', #56, .T. ) ;
#289 = VECTOR ( 'NONE', #315, 1000.000000000000000 ) ;
#290 = VECTOR ( 'NONE', #211, 1000.000000000000000 ) ;
#291 = EDGE_LOOP ( 'NONE', ( #484, #569, #591, #414 ) ) ;
#292 = DIRECTION ( 'NONE',  ( 0.000000000000000000, 0.000000000000000000, -1.000000000000000000 ) ) ;
#293 = LINE ( 'NONE', #120, #523 ) ;
#294 = ADVANCED_FACE ( 'NONE', ( #507 ), #402, .F. ) ;
#295 = PLANE ( 'NONE',  #481 ) ;
#296 = VECTOR ( 'NONE', #409, 1000.000000000000000 ) ;
#297 = DIRECTION ( 'NONE',  ( 1.000000000000000000, 0.000000000000000000, 0.000000000000000000 ) ) ;
#298 = DIRECTION ( 'NONE',  ( 1.137523590804464512E-15, -1.000000000000000000, 0.000000000000000000 ) ) ;
#299 = ADVANCED_FACE ( 'NONE', ( #288 ), #193, .T. ) ;
#300 = COORDINATED_UNIVERSAL_TIME_OFFSET ( 8, 0, .AHEAD. ) ;
#301 = DIRECTION ( 'NONE',  ( 0.000000000000000000, 0.000000000000000000, 1.000000000000000000 ) ) ;
#302 = DIRECTION ( 'NONE',  ( -0.000000000000000000, -0.000000000000000000, -1.000000000000000000 ) ) ;
#303 = CC_DESIGN_PERSON_AND_ORGANIZATION_ASSIGNMENT ( #7, #518, ( #415 ) ) ;
#304 = DIRECTION ( 'NONE',  ( 0.000000000000000000, -1.000000000000000000, 0.000000000000000000 ) ) ;
#305 = CARTESIAN_POINT ( 'NONE',  ( -21.00000000000000355, 0.000000000000000000, 0.000000000000000000 ) ) ;
#306 = AXIS2_PLACEMENT_3D ( 'NONE', #282, #225, #489 ) ;
#307 = SECURITY_CLASSIFICATION ( '', '', #573 ) ;
#308 = FACE_OUTER_BOUND ( 'NONE', #513, .T. ) ;
#309 = COORDINATED_UNIVERSAL_TIME_OFFSET ( 8, 0, .AHEAD. ) ;
#310 = ORIENTED_EDGE ( 'NONE', *, *, #49, .F. ) ;
#311 = CARTESIAN_POINT ( 'NONE',  ( 22.49999999999999645, 3.799999999999998046, 34.89999999999999147 ) ) ;
#312 = ADVANCED_FACE ( 'NONE', ( #621 ), #255, .F. ) ;
#313 = VERTEX_POINT ( 'NONE', #36 ) ;
#314 = DIRECTION ( 'NONE',  ( 1.000000000000000000, 0.000000000000000000, 0.000000000000000000 ) ) ;
#315 = DIRECTION ( 'NONE',  ( 1.000000000000000000, 0.000000000000000000, 0.000000000000000000 ) ) ;
#316 = EDGE_LOOP ( 'NONE', ( #181, #631, #365, #634 ) ) ;
#317 = LINE ( 'NONE', #580, #277 ) ;
#318 = VECTOR ( 'NONE', #495, 1000.000000000000000 ) ;
#319 = AXIS2_PLACEMENT_3D ( 'NONE', #649, #433, #658 ) ;
#320 = EDGE_CURVE ( 'NONE', #223, #131, #206, .T. ) ;
#321 = VERTEX_POINT ( 'NONE', #512 ) ;
#322 = DIRECTION ( 'NONE',  ( 2.168404344971009115E-16, 1.000000000000000000, 0.000000000000000000 ) ) ;
#323 = ORIENTED_EDGE ( 'NONE', *, *, #566, .T. ) ;
#324 = CARTESIAN_POINT ( 'NONE',  ( 22.49999999999999289, 3.799999999999998046, 18.89999999999999147 ) ) ;
#325 = APPROVAL_STATUS ( 'not_yet_approved' ) ;
#326 = EDGE_LOOP ( 'NONE', ( #382, #204, #472, #465 ) ) ;
#327 = FACE_BOUND ( 'NONE', #329, .T. ) ;
#328 = DIRECTION ( 'NONE',  ( 0.000000000000000000, 1.000000000000000000, 0.000000000000000000 ) ) ;
#329 = EDGE_LOOP ( 'NONE', ( #274, #602 ) ) ;
#330 = CARTESIAN_POINT ( 'NONE',  ( -21.00000000000000355, -1.900000000000002354, 53.79999999999999716 ) ) ;
#331 = EDGE_CURVE ( 'NONE', #131, #223, #500, .T. ) ;
#332 = CYLINDRICAL_SURFACE ( 'NONE', #597, 1.999999999999994893 ) ;
#333 = ORIENTED_EDGE ( 'NONE', *, *, #371, .F. ) ;
#334 = DIRECTION ( 'NONE',  ( -0.000000000000000000, -0.000000000000000000, -1.000000000000000000 ) ) ;
#335 = EDGE_CURVE ( 'NONE', #286, #46, #395, .T. ) ;
#336 = VERTEX_POINT ( 'NONE', #111 ) ;
#337 = CARTESIAN_POINT ( 'NONE',  ( -22.50000000000000355, 3.799999999999998046, 36.90000000000001279 ) ) ;
#338 = PLANE ( 'NONE',  #263 ) ;
#339 = ORIENTED_EDGE ( 'NONE', *, *, #616, .F. ) ;
#340 = CARTESIAN_POINT ( 'NONE',  ( -21.00000000000000355, -1.900000000000002354, 0.000000000000000000 ) ) ;
#341 = AXIS2_PLACEMENT_3D ( 'NONE', #140, #667, #673 ) ;
#342 = ORIENTED_EDGE ( 'NONE', *, *, #410, .T. ) ;
#343 = CARTESIAN_POINT ( 'NONE',  ( -30.00000000000000355, -8.000000000000001776, 53.79999999999999716 ) ) ;
#344 = EDGE_CURVE ( 'NONE', #533, #98, #466, .T. ) ;
#345 = APPROVAL_DATE_TIME ( #37, #445 ) ;
#346 = APPROVAL ( #401, 'UNSPECIFIED' ) ;
#347 = APPROVAL_STATUS ( 'not_yet_approved' ) ;
#348 = CARTESIAN_POINT ( 'NONE',  ( 7.847558581799815463E-16, -1.899999999999993694, 53.79999999999999716 ) ) ;
#349 = EDGE_CURVE ( 'NONE', #526, #110, #99, .T. ) ;
#350 = VECTOR ( 'NONE', #157, 1000.000000000000000 ) ;
#351 = LOCAL_TIME ( 11, 33, 0.000000000000000000, #309 ) ;
#352 = CARTESIAN_POINT ( 'NONE',  ( 0.000000000000000000, 0.000000000000000000, 0.000000000000000000 ) ) ;
#353 = LINE ( 'NONE', #680, #318 ) ;
#354 = ADVANCED_FACE ( 'NONE', ( #378 ), #426, .T. ) ;
#355 = DIRECTION ( 'NONE',  ( -2.168404344971008868E-16, -1.000000000000000000, 0.000000000000000000 ) ) ;
#356 = CARTESIAN_POINT ( 'NONE',  ( 22.49999999999999645, 3.799999999999998046, 36.89999999999999147 ) ) ;
#357 = CARTESIAN_POINT ( 'NONE',  ( -22.50000000000000355, 7.999999999999998224, 38.90000000000001279 ) ) ;
#358 = CARTESIAN_POINT ( 'NONE',  ( 22.49999999999999289, 7.999999999999998224, 18.89999999999999147 ) ) ;
#359 = DIRECTION ( 'NONE',  ( 0.000000000000000000, 0.000000000000000000, -1.000000000000000000 ) ) ;
#360 = CIRCLE ( 'NONE', #556, 1.999999999999994893 ) ;
#361 = EDGE_LOOP ( 'NONE', ( #158, #380, #59, #179 ) ) ;
#362 = ORGANIZATION ( 'UNSPECIFIED', 'UNSPECIFIED', '' ) ;
#363 = DIRECTION ( 'NONE',  ( 0.000000000000000000, 1.000000000000000000, -0.000000000000000000 ) ) ;
#364 = EDGE_CURVE ( 'NONE', #163, #321, #530, .T. ) ;
#365 = ORIENTED_EDGE ( 'NONE', *, *, #335, .T. ) ;
#366 = DIRECTION ( 'NONE',  ( -0.000000000000000000, -0.000000000000000000, -1.000000000000000000 ) ) ;
#367 = ORIENTED_EDGE ( 'NONE', *, *, #45, .F. ) ;
#368 = COORDINATED_UNIVERSAL_TIME_OFFSET ( 8, 0, .AHEAD. ) ;
#369 = ORIENTED_EDGE ( 'NONE', *, *, #144, .T. ) ;
#370 = CARTESIAN_POINT ( 'NONE',  ( 22.49999999999999645, 3.799999999999998046, 36.89999999999999147 ) ) ;
#371 = EDGE_CURVE ( 'NONE', #214, #218, #317, .T. ) ;
#372 = ORIENTED_EDGE ( 'NONE', *, *, #531, .F. ) ;
#373 = DIRECTION ( 'NONE',  ( -0.000000000000000000, 1.000000000000000000, -0.000000000000000000 ) ) ;
#374 = VECTOR ( 'NONE', #86, 1000.000000000000000 ) ;
#375 = AXIS2_PLACEMENT_3D ( 'NONE', #128, #605, #596 ) ;
#376 = CARTESIAN_POINT ( 'NONE',  ( -22.50000000000000000, 3.799999999999998046, 16.89999999999999858 ) ) ;
#377 = ORIENTED_EDGE ( 'NONE', *, *, #449, .F. ) ;
#378 = FACE_OUTER_BOUND ( 'NONE', #361, .T. ) ;
#379 = CARTESIAN_POINT ( 'NONE',  ( 30.00000000000000000, -8.000000000000001776, 53.79999999999999716 ) ) ;
#380 = ORIENTED_EDGE ( 'NONE', *, *, #392, .F. ) ;
#381 = CARTESIAN_POINT ( 'NONE',  ( 30.00000000000000355, -6.505213034913027393E-15, 0.000000000000000000 ) ) ;
#382 = ORIENTED_EDGE ( 'NONE', *, *, #101, .F. ) ;
#383 = FACE_OUTER_BOUND ( 'NONE', #468, .T. ) ;
#384 = VECTOR ( 'NONE', #366, 1000.000000000000000 ) ;
#385 = VECTOR ( 'NONE', #446, 1000.000000000000000 ) ;
#386 = CARTESIAN_POINT ( 'NONE',  ( 30.00000000000000355, 7.999999999999998224, 53.79999999999999716 ) ) ;
#387 = ORIENTED_EDGE ( 'NONE', *, *, #55, .T. ) ;
#388 = PLANE ( 'NONE',  #65 ) ;
#389 = FACE_OUTER_BOUND ( 'NONE', #270, .T. ) ;
#390 = EDGE_LOOP ( 'NONE', ( #617, #377, #564, #19 ) ) ;
#391 = CARTESIAN_POINT ( 'NONE',  ( 20.99999999999999289, 2.388799540689374904E-14, 0.000000000000000000 ) ) ;
#392 = EDGE_CURVE ( 'NONE', #154, #313, #418, .T. ) ;
#393 = ORIENTED_EDGE ( 'NONE', *, *, #392, .T. ) ;
#394 = CARTESIAN_POINT ( 'NONE',  ( 30.00000000000000355, -6.505213034913027393E-15, 53.79999999999999716 ) ) ;
#395 = CIRCLE ( 'NONE', #93, 1.999999999999994893 ) ;
#396 = AXIS2_PLACEMENT_3D ( 'NONE', #603, #171, #548 ) ;
#397 = ADVANCED_FACE ( 'NONE', ( #520 ), #63, .F. ) ;
#398 = DATE_AND_TIME ( #186, #510 ) ;
#399 = CARTESIAN_POINT ( 'NONE',  ( -22.50000000000000355, 3.799999999999998046, 36.90000000000001279 ) ) ;
#400 = EDGE_CURVE ( 'NONE', #432, #313, #268, .T. ) ;
#401 = APPROVAL_STATUS ( 'not_yet_approved' ) ;
#402 = CYLINDRICAL_SURFACE ( 'NONE', #149, 1.999999999999998224 ) ;
#403 = EDGE_CURVE ( 'NONE', #238, #476, #42, .T. ) ;
#404 = AXIS2_PLACEMENT_3D ( 'NONE', #435, #28, #287 ) ;
#405 = CARTESIAN_POINT ( 'NONE',  ( 20.99999999999999289, 2.388799540689374904E-14, 53.79999999999999716 ) ) ;
#406 = ORIENTED_EDGE ( 'NONE', *, *, #49, .T. ) ;
#407 =( NAMED_UNIT ( * ) SI_UNIT ( $, .STERADIAN. ) SOLID_ANGLE_UNIT ( ) );
#408 = DIRECTION ( 'NONE',  ( -0.000000000000000000, 1.000000000000000000, -0.000000000000000000 ) ) ;
#409 = DIRECTION ( 'NONE',  ( -0.000000000000000000, 1.000000000000000000, -0.000000000000000000 ) ) ;
#410 = EDGE_CURVE ( 'NONE', #238, #572, #159, .T. ) ;
#411 = ORIENTED_EDGE ( 'NONE', *, *, #29, .F. ) ;
#412 = DIRECTION ( 'NONE',  ( 0.000000000000000000, 0.000000000000000000, -1.000000000000000000 ) ) ;
#413 = CARTESIAN_POINT ( 'NONE',  ( -30.00000000000000355, 7.999999999999998224, 53.79999999999999716 ) ) ;
#414 = ORIENTED_EDGE ( 'NONE', *, *, #483, .F. ) ;
#415 = PRODUCT_DEFINITION_FORMATION_WITH_SPECIFIED_SOURCE ( 'ANY', '', #650, .NOT_KNOWN. ) ;
#416 = CARTESIAN_POINT ( 'NONE',  ( 22.49999999999999645, 3.799999999999998046, 36.89999999999999147 ) ) ;
#417 = EDGE_LOOP ( 'NONE', ( #443, #283, #43, #600 ) ) ;
#418 = LINE ( 'NONE', #525, #384 ) ;
#419 = EDGE_CURVE ( 'NONE', #110, #574, #33, .T. ) ;
#420 = CARTESIAN_POINT ( 'NONE',  ( -22.50000000000000355, 7.999999999999998224, 36.90000000000001279 ) ) ;
#421 = ORIENTED_EDGE ( 'NONE', *, *, #144, .F. ) ;
#422 = DIRECTION ( 'NONE',  ( -0.000000000000000000, 1.000000000000000000, -0.000000000000000000 ) ) ;
#423 = PRODUCT_DEFINITION ( 'UNKNOWN', '', #415, #126 ) ;
#424 = CARTESIAN_POINT ( 'NONE',  ( 20.99999999999999289, 2.388799540689374904E-14, 53.79999999999999716 ) ) ;
#425 = ORIENTED_EDGE ( 'NONE', *, *, #15, .T. ) ;
#426 = PLANE ( 'NONE',  #53 ) ;
#427 = DIRECTION ( 'NONE',  ( 0.000000000000000000, 1.000000000000000000, 0.000000000000000000 ) ) ;
#428 = ORIENTED_EDGE ( 'NONE', *, *, #69, .T. ) ;
#429 = DIRECTION ( 'NONE',  ( 0.000000000000000000, 1.000000000000000000, 0.000000000000000000 ) ) ;
#430 = DIRECTION ( 'NONE',  ( 1.000000000000000000, 0.000000000000000000, 0.000000000000000000 ) ) ;
#431 = EDGE_CURVE ( 'NONE', #131, #659, #153, .T. ) ;
#432 = VERTEX_POINT ( 'NONE', #103 ) ;
#433 = DIRECTION ( 'NONE',  ( -0.000000000000000000, 1.000000000000000000, -0.000000000000000000 ) ) ;
#434 = ORIENTED_EDGE ( 'NONE', *, *, #454, .F. ) ;
#435 = CARTESIAN_POINT ( 'NONE',  ( 0.000000000000000000, 0.000000000000000000, 0.000000000000000000 ) ) ;
#436 = CC_DESIGN_PERSON_AND_ORGANIZATION_ASSIGNMENT ( #471, #97, ( #415 ) ) ;
#437 = VECTOR ( 'NONE', #13, 1000.000000000000000 ) ;
#438 = VECTOR ( 'NONE', #373, 1000.000000000000000 ) ;
#439 = DIRECTION ( 'NONE',  ( 0.000000000000000000, 0.000000000000000000, 1.000000000000000000 ) ) ;
#440 = ORIENTED_EDGE ( 'NONE', *, *, #531, .T. ) ;
#441 = DIRECTION ( 'NONE',  ( 0.000000000000000000, 0.000000000000000000, 1.000000000000000000 ) ) ;
#442 = EDGE_CURVE ( 'NONE', #98, #496, #469, .T. ) ;
#443 = ORIENTED_EDGE ( 'NONE', *, *, #571, .T. ) ;
#444 = FACE_OUTER_BOUND ( 'NONE', #51, .T. ) ;
#445 = APPROVAL ( #347, 'UNSPECIFIED' ) ;
#446 = DIRECTION ( 'NONE',  ( -1.137523590804464512E-15, 1.000000000000000000, 0.000000000000000000 ) ) ;
#447 = AXIS2_PLACEMENT_3D ( 'NONE', #243, #304, #39 ) ;
#448 = CC_DESIGN_APPROVAL ( #212, ( #307 ) ) ;
#449 = EDGE_CURVE ( 'NONE', #8, #648, #589, .T. ) ;
#450 = PERSON_AND_ORGANIZATION_ROLE ( 'creator' ) ;
#451 = PERSON ( 'UNSPECIFIED', 'UNSPECIFIED', 'UNSPECIFIED', ('UNSPECIFIED'), ('UNSPECIFIED'), ('UNSPECIFIED') ) ;
#452 = CARTESIAN_POINT ( 'NONE',  ( 21.00000000000000000, -8.000000000000001776, 0.000000000000000000 ) ) ;
#453 =( LENGTH_UNIT ( ) NAMED_UNIT ( * ) SI_UNIT ( .MILLI., .METRE. ) );
#454 = EDGE_CURVE ( 'NONE', #66, #286, #9, .T. ) ;
#455 = DIRECTION ( 'NONE',  ( 1.000000000000000000, 4.130293990420969390E-16, 0.000000000000000000 ) ) ;
#456 = CARTESIAN_POINT ( 'NONE',  ( -22.50000000000000355, 7.999999999999998224, 34.90000000000001990 ) ) ;
#457 = VECTOR ( 'NONE', #18, 1000.000000000000000 ) ;
#458 = DIRECTION ( 'NONE',  ( 1.000000000000000000, 0.000000000000000000, 0.000000000000000000 ) ) ;
#459 = PLANE ( 'NONE',  #447 ) ;
#460 = ADVANCED_FACE ( 'NONE', ( #636, #327, #479, #477, #219 ), #643, .T. ) ;
#461 = PERSON_AND_ORGANIZATION_ROLE ( 'design_owner' ) ;
#462 = VERTEX_POINT ( 'NONE', #570 ) ;
#463 = CARTESIAN_POINT ( 'NONE',  ( 22.49999999999999289, 3.799999999999998046, 16.89999999999999147 ) ) ;
#464 = CC_DESIGN_DATE_AND_TIME_ASSIGNMENT ( #398, #188, ( #423 ) ) ;
#465 = ORIENTED_EDGE ( 'NONE', *, *, #410, .F. ) ;
#466 = LINE ( 'NONE', #258, #183 ) ;
#467 = VECTOR ( 'NONE', #302, 1000.000000000000000 ) ;
#468 = EDGE_LOOP ( 'NONE', ( #167, #210, #27, #387 ) ) ;
#469 = LINE ( 'NONE', #60, #11 ) ;
#470 = CARTESIAN_POINT ( 'NONE',  ( 0.000000000000000000, 7.999999999999998224, 53.79999999999999716 ) ) ;
#471 = PERSON_AND_ORGANIZATION ( #451, #362 ) ;
#472 = ORIENTED_EDGE ( 'NONE', *, *, #576, .T. ) ;
#473 = DIRECTION ( 'NONE',  ( 0.000000000000000000, 1.000000000000000000, 0.000000000000000000 ) ) ;
#474 = LINE ( 'NONE', #172, #457 ) ;
#475 = DATE_AND_TIME ( #578, #665 ) ;
#476 = VERTEX_POINT ( 'NONE', #311 ) ;
#477 = FACE_BOUND ( 'NONE', #12, .T. ) ;
#478 = ORIENTED_EDGE ( 'NONE', *, *, #483, .T. ) ;
#479 = FACE_BOUND ( 'NONE', #232, .T. ) ;
#480 = AXIS2_PLACEMENT_3D ( 'NONE', #40, #189, #560 ) ;
#481 = AXIS2_PLACEMENT_3D ( 'NONE', #562, #87, #618 ) ;
#482 = LINE ( 'NONE', #379, #191 ) ;
#483 = EDGE_CURVE ( 'NONE', #553, #574, #516, .T. ) ;
#484 = ORIENTED_EDGE ( 'NONE', *, *, #130, .F. ) ;
#485 = DIRECTION ( 'NONE',  ( -0.000000000000000000, 1.000000000000000000, -0.000000000000000000 ) ) ;
#486 = CARTESIAN_POINT ( 'NONE',  ( -21.00000000000000355, -8.000000000000001776, 53.79999999999999716 ) ) ;
#487 = ORIENTED_EDGE ( 'NONE', *, *, #101, .T. ) ;
#488 = CYLINDRICAL_SURFACE ( 'NONE', #319, 1.999999999999998224 ) ;
#489 = DIRECTION ( 'NONE',  ( 0.000000000000000000, 0.000000000000000000, 1.000000000000000000 ) ) ;
#490 = ORIENTED_EDGE ( 'NONE', *, *, #349, .F. ) ;
#491 = DIRECTION ( 'NONE',  ( 2.168404344971008868E-16, -1.000000000000000000, 0.000000000000000000 ) ) ;
#492 = ADVANCED_FACE ( 'NONE', ( #444 ), #488, .F. ) ;
#493 = CIRCLE ( 'NONE', #522, 1.999999999999998224 ) ;
#494 = AXIS2_PLACEMENT_3D ( 'NONE', #337, #240, #292 ) ;
#495 = DIRECTION ( 'NONE',  ( -0.000000000000000000, 1.000000000000000000, -0.000000000000000000 ) ) ;
#496 = VERTEX_POINT ( 'NONE', #592 ) ;
#497 = DIRECTION ( 'NONE',  ( 0.000000000000000000, 0.000000000000000000, -1.000000000000000000 ) ) ;
#498 = CARTESIAN_POINT ( 'NONE',  ( 0.000000000000000000, -8.000000000000001776, 53.79999999999999716 ) ) ;
#499 = FACE_OUTER_BOUND ( 'NONE', #316, .T. ) ;
#500 = CIRCLE ( 'NONE', #207, 1.999999999999998224 ) ;
#501 = AXIS2_PLACEMENT_3D ( 'NONE', #249, #677, #565 ) ;
#502 = CC_DESIGN_PERSON_AND_ORGANIZATION_ASSIGNMENT ( #266, #50, ( #307 ) ) ;
#503 = DIRECTION ( 'NONE',  ( 0.000000000000000000, 0.000000000000000000, 1.000000000000000000 ) ) ;
#504 = FACE_OUTER_BOUND ( 'NONE', #326, .T. ) ;
#505 = CALENDAR_DATE ( 2026, 5, 6 ) ;
#506 = FACE_OUTER_BOUND ( 'NONE', #291, .T. ) ;
#507 = FACE_OUTER_BOUND ( 'NONE', #254, .T. ) ;
#508 = EDGE_CURVE ( 'NONE', #476, #195, #30, .T. ) ;
#509 = VECTOR ( 'NONE', #581, 1000.000000000000000 ) ;
#510 = LOCAL_TIME ( 11, 33, 0.000000000000000000, #666 ) ;
#511 = MECHANICAL_CONTEXT ( 'NONE', #248, 'mechanical' ) ;
#512 = CARTESIAN_POINT ( 'NONE',  ( 30.00000000000000000, -8.000000000000001776, 53.79999999999999716 ) ) ;
#513 = EDGE_LOOP ( 'NONE', ( #175, #487 ) ) ;
#514 = DATE_AND_TIME ( #2, #351 ) ;
#515 = ORIENTED_EDGE ( 'NONE', *, *, #194, .T. ) ;
#516 = LINE ( 'NONE', #48, #641 ) ;
#517 = ADVANCED_FACE ( 'NONE', ( #383 ), #227, .F. ) ;
#518 = PERSON_AND_ORGANIZATION_ROLE ( 'design_supplier' ) ;
#519 = ORIENTED_EDGE ( 'NONE', *, *, #431, .T. ) ;
#520 = FACE_OUTER_BOUND ( 'NONE', #106, .T. ) ;
#521 = LINE ( 'NONE', #577, #296 ) ;
#522 = AXIS2_PLACEMENT_3D ( 'NONE', #220, #427, #537 ) ;
#523 = VECTOR ( 'NONE', #334, 1000.000000000000000 ) ;
#524 = ORIENTED_EDGE ( 'NONE', *, *, #419, .F. ) ;
#525 = CARTESIAN_POINT ( 'NONE',  ( 30.00000000000000355, 7.999999999999998224, 53.79999999999999716 ) ) ;
#526 = VERTEX_POINT ( 'NONE', #67 ) ;
#527 = ORIENTED_EDGE ( 'NONE', *, *, #135, .T. ) ;
#528 = CARTESIAN_POINT ( 'NONE',  ( 0.000000000000000000, -8.000000000000001776, 53.79999999999999716 ) ) ;
#529 = EDGE_LOOP ( 'NONE', ( #434, #588, #542, #95 ) ) ;
#530 = LINE ( 'NONE', #528, #685 ) ;
#531 = EDGE_CURVE ( 'NONE', #659, #336, #174, .T. ) ;
#532 = CARTESIAN_POINT ( 'NONE',  ( 22.49999999999999289, 3.799999999999998046, 16.89999999999999147 ) ) ;
#533 = VERTEX_POINT ( 'NONE', #343 ) ;
#534 = LINE ( 'NONE', #394, #84 ) ;
#535 = AXIS2_PLACEMENT_3D ( 'NONE', #405, #613, #298 ) ;
#536 = CIRCLE ( 'NONE', #94, 1.999999999999994893 ) ;
#537 = DIRECTION ( 'NONE',  ( 0.000000000000000000, 0.000000000000000000, 1.000000000000000000 ) ) ;
#538 = ORIENTED_EDGE ( 'NONE', *, *, #38, .F. ) ;
#539 = FACE_OUTER_BOUND ( 'NONE', #16, .T. ) ;
#540 = CARTESIAN_POINT ( 'NONE',  ( -22.50000000000000000, 7.999999999999998224, 14.90000000000000036 ) ) ;
#541 = ADVANCED_FACE ( 'NONE', ( #539 ), #81, .F. ) ;
#542 = ORIENTED_EDGE ( 'NONE', *, *, #222, .T. ) ;
#543 = LINE ( 'NONE', #75, #118 ) ;
#544 = FACE_OUTER_BOUND ( 'NONE', #529, .T. ) ;
#545 = ORIENTED_EDGE ( 'NONE', *, *, #38, .T. ) ;
#546 = DIRECTION ( 'NONE',  ( -1.000000000000000000, -4.130293990420970376E-16, 0.000000000000000000 ) ) ;
#547 = CIRCLE ( 'NONE', #306, 1.999999999999998224 ) ;
#548 = DIRECTION ( 'NONE',  ( 0.000000000000000000, -0.000000000000000000, 1.000000000000000000 ) ) ;
#549 = EDGE_LOOP ( 'NONE', ( #406, #152, #538, #47 ) ) ;
#550 = ORIENTED_EDGE ( 'NONE', *, *, #449, .T. ) ;
#551 = PERSON_AND_ORGANIZATION ( #451, #362 ) ;
#552 = EDGE_CURVE ( 'NONE', #533, #200, #293, .T. ) ;
#553 = VERTEX_POINT ( 'NONE', #284 ) ;
#554 = LINE ( 'NONE', #141, #467 ) ;
#555 = PLANE ( 'NONE',  #77 ) ;
#556 = AXIS2_PLACEMENT_3D ( 'NONE', #420, #58, #620 ) ;
#557 = VECTOR ( 'NONE', #422, 1000.000000000000000 ) ;
#558 = ADVANCED_FACE ( 'NONE', ( #20 ), #230, .F. ) ;
#559 = PERSON_AND_ORGANIZATION ( #451, #362 ) ;
#560 = DIRECTION ( 'NONE',  ( 0.000000000000000000, 0.000000000000000000, -1.000000000000000000 ) ) ;
#561 = ADVANCED_FACE ( 'NONE', ( #176 ), #388, .F. ) ;
#562 = CARTESIAN_POINT ( 'NONE',  ( -21.00000000000000355, 0.000000000000000000, 53.79999999999999716 ) ) ;
#563 = CARTESIAN_POINT ( 'NONE',  ( 22.49999999999999289, 3.799999999999998046, 14.89999999999999325 ) ) ;
#564 = ORIENTED_EDGE ( 'NONE', *, *, #272, .F. ) ;
#565 = DIRECTION ( 'NONE',  ( 0.000000000000000000, 0.000000000000000000, 1.000000000000000000 ) ) ;
#566 = EDGE_CURVE ( 'NONE', #66, #462, #279, .T. ) ;
#567 = DIRECTION ( 'NONE',  ( 0.000000000000000000, 0.000000000000000000, 1.000000000000000000 ) ) ;
#568 = APPROVAL_PERSON_ORGANIZATION ( #609, #346, #137 ) ;
#569 = ORIENTED_EDGE ( 'NONE', *, *, #349, .T. ) ;
#570 = CARTESIAN_POINT ( 'NONE',  ( -22.50000000000000355, 3.799999999999998046, 38.90000000000001279 ) ) ;
#571 = EDGE_CURVE ( 'NONE', #432, #200, #543, .T. ) ;
#572 = VERTEX_POINT ( 'NONE', #24 ) ;
#573 = SECURITY_CLASSIFICATION_LEVEL ( 'unclassified' ) ;
#574 = VERTEX_POINT ( 'NONE', #281 ) ;
#575 = CARTESIAN_POINT ( 'NONE',  ( -0.000000000000000000, 7.999999999999998224, 0.000000000000000000 ) ) ;
#576 = EDGE_CURVE ( 'NONE', #195, #572, #536, .T. ) ;
#577 = CARTESIAN_POINT ( 'NONE',  ( 22.49999999999999289, 3.799999999999998046, 14.89999999999999325 ) ) ;
#578 = CALENDAR_DATE ( 2026, 5, 6 ) ;
#579 = EDGE_LOOP ( 'NONE', ( #119, #657 ) ) ;
#580 = CARTESIAN_POINT ( 'NONE',  ( 0.000000000000000000, -8.000000000000001776, 0.000000000000000000 ) ) ;
#581 = DIRECTION ( 'NONE',  ( 0.000000000000000000, 1.000000000000000000, -0.000000000000000000 ) ) ;
#582 = CIRCLE ( 'NONE', #250, 1.999999999999994893 ) ;
#583 = CIRCLE ( 'NONE', #150, 1.999999999999998224 ) ;
#584 = ORIENTED_EDGE ( 'NONE', *, *, #55, .F. ) ;
#585 = CARTESIAN_POINT ( 'NONE',  ( -22.50000000000000355, 3.799999999999998046, 34.90000000000001990 ) ) ;
#586 = CARTESIAN_POINT ( 'NONE',  ( -22.50000000000000000, 3.799999999999998046, 16.89999999999999858 ) ) ;
#587 = EDGE_CURVE ( 'NONE', #214, #648, #180, .T. ) ;
#588 = ORIENTED_EDGE ( 'NONE', *, *, #241, .F. ) ;
#589 = LINE ( 'NONE', #215, #615 ) ;
#590 = CARTESIAN_POINT ( 'NONE',  ( -30.00000000000000355, -6.505213034913027393E-15, 53.79999999999999716 ) ) ;
#591 = ORIENTED_EDGE ( 'NONE', *, *, #419, .T. ) ;
#592 = CARTESIAN_POINT ( 'NONE',  ( -21.00000000000000355, -8.000000000000001776, 0.000000000000000000 ) ) ;
#593 = PLANE ( 'NONE',  #606 ) ;
#594 = VECTOR ( 'NONE', #96, 1000.000000000000000 ) ;
#595 = ORIENTED_EDGE ( 'NONE', *, *, #241, .T. ) ;
#596 = DIRECTION ( 'NONE',  ( 0.000000000000000000, 0.000000000000000000, -1.000000000000000000 ) ) ;
#597 = AXIS2_PLACEMENT_3D ( 'NONE', #599, #269, #108 ) ;
#598 = APPROVAL_PERSON_ORGANIZATION ( #109, #212, #217 ) ;
#599 = CARTESIAN_POINT ( 'NONE',  ( -22.50000000000000355, 3.799999999999998046, 36.90000000000001279 ) ) ;
#600 = ORIENTED_EDGE ( 'NONE', *, *, #29, .T. ) ;
#601 = CARTESIAN_POINT ( 'NONE',  ( 7.847558581799815463E-16, -1.899999999999993694, 53.79999999999999716 ) ) ;
#602 = ORIENTED_EDGE ( 'NONE', *, *, #576, .F. ) ;
#603 = CARTESIAN_POINT ( 'NONE',  ( 0.000000000000000000, -8.000000000000001776, 53.79999999999999716 ) ) ;
#604 = VERTEX_POINT ( 'NONE', #340 ) ;
#605 = DIRECTION ( 'NONE',  ( 0.000000000000000000, 1.000000000000000000, -0.000000000000000000 ) ) ;
#606 = AXIS2_PLACEMENT_3D ( 'NONE', #532, #6, #122 ) ;
#607 = CC_DESIGN_APPROVAL ( #445, ( #423 ) ) ;
#608 = UNCERTAINTY_MEASURE_WITH_UNIT (LENGTH_MEASURE( 1.000000000000000082E-05 ), #453, 'distance_accuracy_value', 'NONE');
#609 = PERSON_AND_ORGANIZATION ( #451, #362 ) ;
#610 = CYLINDRICAL_SURFACE ( 'NONE', #22, 1.999999999999994893 ) ;
#611 = CC_DESIGN_PERSON_AND_ORGANIZATION_ASSIGNMENT ( #669, #461, ( #650 ) ) ;
#612 = COORDINATED_UNIVERSAL_TIME_OFFSET ( 8, 0, .AHEAD. ) ;
#613 = DIRECTION ( 'NONE',  ( -1.000000000000000000, -1.137523590804464512E-15, 0.000000000000000000 ) ) ;
#614 = VECTOR ( 'NONE', #253, 1000.000000000000000 ) ;
#615 = VECTOR ( 'NONE', #4, 1000.000000000000000 ) ;
#616 = EDGE_CURVE ( 'NONE', #336, #659, #583, .T. ) ;
#617 = ORIENTED_EDGE ( 'NONE', *, *, #34, .T. ) ;
#618 = DIRECTION ( 'NONE',  ( 0.000000000000000000, 0.000000000000000000, 1.000000000000000000 ) ) ;
#619 = CARTESIAN_POINT ( 'NONE',  ( -22.50000000000000000, 3.799999999999998046, 16.89999999999999858 ) ) ;
#620 = DIRECTION ( 'NONE',  ( 0.000000000000000000, 0.000000000000000000, -1.000000000000000000 ) ) ;
#621 = FACE_OUTER_BOUND ( 'NONE', #654, .T. ) ;
#622 = LINE ( 'NONE', #151, #509 ) ;
#623 = ORIENTED_EDGE ( 'NONE', *, *, #364, .T. ) ;
#624 = CARTESIAN_POINT ( 'NONE',  ( -22.50000000000000355, 7.999999999999998224, 36.90000000000001279 ) ) ;
#625 = CARTESIAN_POINT ( 'NONE',  ( 7.847558581799815463E-16, -1.899999999999993694, 0.000000000000000000 ) ) ;
#626 = AXIS2_PLACEMENT_3D ( 'NONE', #399, #146, #359 ) ;
#627 = CC_DESIGN_SECURITY_CLASSIFICATION ( #307, ( #415 ) ) ;
#628 = ORIENTED_EDGE ( 'NONE', *, *, #571, .F. ) ;
#629 = DIRECTION ( 'NONE',  ( 0.000000000000000000, 0.000000000000000000, 1.000000000000000000 ) ) ;
#630 = ORIENTED_EDGE ( 'NONE', *, *, #272, .T. ) ;
#631 = ORIENTED_EDGE ( 'NONE', *, *, #454, .T. ) ;
#632 = DIRECTION ( 'NONE',  ( 0.000000000000000000, 0.000000000000000000, 1.000000000000000000 ) ) ;
#633 = ADVANCED_BREP_SHAPE_REPRESENTATION ( 'Separator_train', ( #264, #185 ), #251 ) ;
#634 = ORIENTED_EDGE ( 'NONE', *, *, #222, .F. ) ;
#635 = ORIENTED_EDGE ( 'NONE', *, *, #105, .T. ) ;
#636 = FACE_BOUND ( 'NONE', #280, .T. ) ;
#637 = DIRECTION ( 'NONE',  ( 1.000000000000000000, 2.168404344971009115E-16, -0.000000000000000000 ) ) ;
#638 = EDGE_CURVE ( 'NONE', #313, #218, #239, .T. ) ;
#639 = CIRCLE ( 'NONE', #626, 1.999999999999994893 ) ;
#640 = APPROVAL_DATE_TIME ( #514, #212 ) ;
#641 = VECTOR ( 'NONE', #485, 1000.000000000000000 ) ;
#642 = VERTEX_POINT ( 'NONE', #330 ) ;
#643 = PLANE ( 'NONE',  #676 ) ;
#644 = DIRECTION ( 'NONE',  ( -0.000000000000000000, 0.000000000000000000, 1.000000000000000000 ) ) ;
#645 = ORIENTED_EDGE ( 'NONE', *, *, #135, .F. ) ;
#646 = CARTESIAN_POINT ( 'NONE',  ( 22.49999999999999645, 3.799999999999998046, 38.89999999999998437 ) ) ;
#647 = DIRECTION ( 'NONE',  ( 0.000000000000000000, 0.000000000000000000, 1.000000000000000000 ) ) ;
#648 = VERTEX_POINT ( 'NONE', #182 ) ;
#649 = CARTESIAN_POINT ( 'NONE',  ( 22.49999999999999289, 3.799999999999998046, 16.89999999999999147 ) ) ;
#650 = PRODUCT ( 'Separator_train', 'Separator_train', '', ( #511 ) ) ;
#651 = EDGE_CURVE ( 'NONE', #154, #321, #534, .T. ) ;
#652 = FACE_OUTER_BOUND ( 'NONE', #417, .T. ) ;
#653 = AXIS2_PLACEMENT_3D ( 'NONE', #619, #142, #567 ) ;
#654 = EDGE_LOOP ( 'NONE', ( #490, #645, #478, #369 ) ) ;
#655 = DIRECTION ( 'NONE',  ( -4.130293990420970376E-16, 1.000000000000000000, 0.000000000000000000 ) ) ;
#656 = DIRECTION ( 'NONE',  ( 0.000000000000000000, 1.000000000000000000, 0.000000000000000000 ) ) ;
#657 = ORIENTED_EDGE ( 'NONE', *, *, #320, .T. ) ;
#658 = DIRECTION ( 'NONE',  ( 0.000000000000000000, 0.000000000000000000, 1.000000000000000000 ) ) ;
#659 = VERTEX_POINT ( 'NONE', #358 ) ;
#660 = DIRECTION ( 'NONE',  ( -2.168404344971008868E-16, -1.000000000000000000, 0.000000000000000000 ) ) ;
#661 = ORIENTED_EDGE ( 'NONE', *, *, #651, .F. ) ;
#662 = ADVANCED_FACE ( 'NONE', ( #83 ), #295, .F. ) ;
#663 = CARTESIAN_POINT ( 'NONE',  ( 22.49999999999999289, 7.999999999999998224, 16.89999999999999147 ) ) ;
#664 = CIRCLE ( 'NONE', #129, 1.999999999999994893 ) ;
#665 = LOCAL_TIME ( 11, 33, 0.000000000000000000, #368 ) ;
#666 = COORDINATED_UNIVERSAL_TIME_OFFSET ( 8, 0, .AHEAD. ) ;
#667 = DIRECTION ( 'NONE',  ( -0.000000000000000000, 1.000000000000000000, -0.000000000000000000 ) ) ;
#668 = ORIENTED_EDGE ( 'NONE', *, *, #400, .T. ) ;
#669 = PERSON_AND_ORGANIZATION ( #451, #362 ) ;
#670 = FACE_OUTER_BOUND ( 'NONE', #23, .T. ) ;
#671 = ADVANCED_FACE ( 'NONE', ( #499 ), #190, .F. ) ;
#672 = APPROVAL_DATE_TIME ( #245, #346 ) ;
#673 = DIRECTION ( 'NONE',  ( 0.000000000000000000, 0.000000000000000000, 1.000000000000000000 ) ) ;
#674 = AXIS2_PLACEMENT_3D ( 'NONE', #590, #637, #233 ) ;
#675 = EDGE_CURVE ( 'NONE', #200, #496, #31, .T. ) ;
#676 = AXIS2_PLACEMENT_3D ( 'NONE', #224, #429, #168 ) ;
#677 = DIRECTION ( 'NONE',  ( -0.000000000000000000, 1.000000000000000000, -0.000000000000000000 ) ) ;
#678 = CARTESIAN_POINT ( 'NONE',  ( 30.00000000000000000, -8.000000000000001776, 0.000000000000000000 ) ) ;
#679 = ORIENTED_EDGE ( 'NONE', *, *, #194, .F. ) ;
#680 = CARTESIAN_POINT ( 'NONE',  ( -22.50000000000000355, 3.799999999999998046, 38.90000000000001279 ) ) ;
#681 = CARTESIAN_POINT ( 'NONE',  ( 20.99999999999999645, -1.899999999999985034, 53.79999999999999716 ) ) ;
#682 = EDGE_CURVE ( 'NONE', #642, #604, #554, .T. ) ;
#683 = ORIENTED_EDGE ( 'NONE', *, *, #675, .T. ) ;
#684 = DIRECTION ( 'NONE',  ( 1.000000000000000000, 0.000000000000000000, 0.000000000000000000 ) ) ;
#685 = VECTOR ( 'NONE', #684, 1000.000000000000000 ) ;
#686 = ORIENTED_EDGE ( 'NONE', *, *, #638, .T. ) ;
#687 = AXIS2_PLACEMENT_3D ( 'NONE', #271, #473, #629 ) ;
#688 = ORIENTED_EDGE ( 'NONE', *, *, #616, .T. ) ;
#689 = DIRECTION ( 'NONE',  ( -0.000000000000000000, -0.000000000000000000, -1.000000000000000000 ) ) ;
ENDSEC;
END-ISO-10303-21;
