ISO-10303-21;
HEADER;
FILE_DESCRIPTION (( 'STEP AP203' ),
    '1' );
FILE_NAME ('upperholder_lid_right.step',
    '2026-06-05T03:32:54',
    ( '' ),
    ( '' ),
    'SwSTEP 2.0',
    'SolidWorks 2024',
    '' );
FILE_SCHEMA (( 'CONFIG_CONTROL_DESIGN' ));
ENDSEC;

DATA;
#1 = CARTESIAN_POINT ( 'NONE',  ( -32.10000000000000853, -14.89999999999995595, -0.5000000000000000000 ) ) ;
#2 = CYLINDRICAL_SURFACE ( 'NONE', #431, 2.000000000000001776 ) ;
#3 = LINE ( 'NONE', #544, #939 ) ;
#4 = EDGE_CURVE ( 'NONE', #663, #772, #906, .T. ) ;
#5 = ORIENTED_EDGE ( 'NONE', *, *, #354, .F. ) ;
#6 = CARTESIAN_POINT ( 'NONE',  ( -30.10000000000001563, 11.90000000000001101, -2.622988929570755801 ) ) ;
#7 = DIRECTION ( 'NONE',  ( 0.000000000000000000, 0.000000000000000000, -1.000000000000000000 ) ) ;
#8 = CC_DESIGN_PERSON_AND_ORGANIZATION_ASSIGNMENT ( #93, #481, ( #374 ) ) ;
#9 = DIRECTION ( 'NONE',  ( -0.000000000000000000, -1.000000000000000000, -0.000000000000000000 ) ) ;
#10 = ORIENTED_EDGE ( 'NONE', *, *, #487, .T. ) ;
#11 = CARTESIAN_POINT ( 'NONE',  ( -29.90000000000000568, -21.89999999999997016, -4.319013456085050565E-30 ) ) ;
#12 = DIRECTION ( 'NONE',  ( -1.000000000000000000, 0.000000000000000000, 0.000000000000000000 ) ) ;
#13 = CIRCLE ( 'NONE', #140, 2.999999999999995559 ) ;
#14 = VECTOR ( 'NONE', #122, 1000.000000000000000 ) ;
#15 =( GEOMETRIC_REPRESENTATION_CONTEXT ( 3 ) GLOBAL_UNCERTAINTY_ASSIGNED_CONTEXT ( ( #480 ) ) GLOBAL_UNIT_ASSIGNED_CONTEXT ( ( #628, #685, #157 ) ) REPRESENTATION_CONTEXT ( 'NONE', 'WORKASPACE' ) );
#16 = ORIENTED_EDGE ( 'NONE', *, *, #516, .F. ) ;
#17 = CARTESIAN_POINT ( 'NONE',  ( -30.10000000000001563, -11.90000000000000924, -2.622988929570854388 ) ) ;
#18 = FACE_BOUND ( 'NONE', #715, .T. ) ;
#19 = FACE_OUTER_BOUND ( 'NONE', #787, .T. ) ;
#20 = ADVANCED_FACE ( 'NONE', ( #479 ), #581, .T. ) ;
#21 = COORDINATED_UNIVERSAL_TIME_OFFSET ( 8, 0, .AHEAD. ) ;
#22 = ORIENTED_EDGE ( 'NONE', *, *, #456, .T. ) ;
#23 = CARTESIAN_POINT ( 'NONE',  ( -30.10000000000004761, -11.78339807785740589, -2.068246649875475907 ) ) ;
#24 = VECTOR ( 'NONE', #919, 1000.000000000000000 ) ;
#25 = CARTESIAN_POINT ( 'NONE',  ( -29.10000000000001208, -21.89999999999995595, -0.5000000000000000000 ) ) ;
#26 = CARTESIAN_POINT ( 'NONE',  ( -30.09999999999994102, 11.78319419951265168, -2.068246649875438159 ) ) ;
#27 = EDGE_CURVE ( 'NONE', #669, #591, #171, .T. ) ;
#28 = APPROVAL_STATUS ( 'not_yet_approved' ) ;
#29 = ORIENTED_EDGE ( 'NONE', *, *, #570, .T. ) ;
#30 = PLANE ( 'NONE',  #411 ) ;
#31 = FACE_BOUND ( 'NONE', #717, .T. ) ;
#32 = VECTOR ( 'NONE', #986, 1000.000000000000000 ) ;
#33 = CARTESIAN_POINT ( 'NONE',  ( -29.10000000000001208, -17.89999999999995595, 0.000000000000000000 ) ) ;
#34 = AXIS2_PLACEMENT_3D ( 'NONE', #505, #98, #400 ) ;
#35 = VECTOR ( 'NONE', #650, 1000.000000000000000 ) ;
#36 = ORIENTED_EDGE ( 'NONE', *, *, #902, .F. ) ;
#37 = DIRECTION ( 'NONE',  ( -1.000000000000000000, 0.000000000000000000, 0.000000000000000000 ) ) ;
#38 = CARTESIAN_POINT ( 'NONE',  ( -30.15053182235865847, 11.45094164534228653, -2.161786907697325510 ) ) ;
#39 = APPROVAL ( #949, 'UNSPECIFIED' ) ;
#40 = ORIENTED_EDGE ( 'NONE', *, *, #683, .F. ) ;
#41 = ADVANCED_FACE ( 'NONE', ( #342, #656, #19 ), #180, .F. ) ;
#42 = CARTESIAN_POINT ( 'NONE',  ( -29.10000000000001208, 19.40000000000000924, 0.000000000000000000 ) ) ;
#43 = CARTESIAN_POINT ( 'NONE',  ( -30.13860806752582633, 11.50498747765940344, -2.554790145920893707 ) ) ;
#44 = ORIENTED_EDGE ( 'NONE', *, *, #834, .F. ) ;
#45 = FACE_OUTER_BOUND ( 'NONE', #566, .T. ) ;
#46 = CARTESIAN_POINT ( 'NONE',  ( -29.89999999999988489, 21.90000000000001990, -4.319013456085050565E-30 ) ) ;
#47 = VECTOR ( 'NONE', #228, 1000.000000000000000 ) ;
#48 = CIRCLE ( 'NONE', #648, 1.600000000000004086 ) ;
#49 = EDGE_LOOP ( 'NONE', ( #747, #303, #858, #312, #853, #204, #240, #123 ) ) ;
#50 = CARTESIAN_POINT ( 'NONE',  ( -30.10000000000001563, 11.90000000000000924, 0.000000000000000000 ) ) ;
#51 = DIRECTION ( 'NONE',  ( 0.000000000000000000, 0.000000000000000000, 1.000000000000000000 ) ) ;
#52 = EDGE_CURVE ( 'NONE', #168, #421, #645, .T. ) ;
#53 = EDGE_LOOP ( 'NONE', ( #514, #951, #416, #405 ) ) ;
#54 = LINE ( 'NONE', #822, #775 ) ;
#55 = DIRECTION ( 'NONE',  ( -0.000000000000000000, -0.000000000000000000, 1.000000000000000000 ) ) ;
#56 = AXIS2_PLACEMENT_3D ( 'NONE', #859, #393, #785 ) ;
#57 = EDGE_CURVE ( 'NONE', #863, #508, #418, .T. ) ;
#58 = ORIENTED_EDGE ( 'NONE', *, *, #4, .F. ) ;
#59 = DIRECTION ( 'NONE',  ( -0.000000000000000000, -1.000000000000000000, -0.000000000000000000 ) ) ;
#60 = CARTESIAN_POINT ( 'NONE',  ( -32.10000000000000853, 16.40000000000001279, 0.000000000000000000 ) ) ;
#61 = ORIENTED_EDGE ( 'NONE', *, *, #689, .T. ) ;
#62 = AXIS2_PLACEMENT_3D ( 'NONE', #295, #365, #203 ) ;
#63 = ORIENTED_EDGE ( 'NONE', *, *, #647, .F. ) ;
#64 = DIRECTION ( 'NONE',  ( 1.000000000000000000, 1.040834085586058855E-14, 0.000000000000000000 ) ) ;
#65 = DIRECTION ( 'NONE',  ( -2.775557561562890957E-15, -1.000000000000000000, 0.000000000000000000 ) ) ;
#66 = EDGE_LOOP ( 'NONE', ( #841, #691, #16, #367 ) ) ;
#67 = FACE_OUTER_BOUND ( 'NONE', #973, .T. ) ;
#68 = EDGE_CURVE ( 'NONE', #453, #280, #517, .T. ) ;
#69 = CARTESIAN_POINT ( 'NONE',  ( -30.17302531879929006, -12.43744595964211008, -2.234714805804808524 ) ) ;
#70 = APPROVAL_PERSON_ORGANIZATION ( #114, #234, #889 ) ;
#71 = AXIS2_PLACEMENT_3D ( 'NONE', #315, #84, #929 ) ;
#72 = ORIENTED_EDGE ( 'NONE', *, *, #103, .F. ) ;
#73 = FACE_OUTER_BOUND ( 'NONE', #680, .T. ) ;
#74 = DIRECTION ( 'NONE',  ( 0.000000000000000000, 0.000000000000000000, -1.000000000000000000 ) ) ;
#75 = EDGE_CURVE ( 'NONE', #508, #863, #97, .T. ) ;
#76 = DIRECTION ( 'NONE',  ( 0.000000000000000000, 0.000000000000000000, 1.000000000000000000 ) ) ;
#77 = ORIENTED_EDGE ( 'NONE', *, *, #184, .T. ) ;
#78 = AXIS2_PLACEMENT_3D ( 'NONE', #677, #664, #210 ) ;
#79 = CARTESIAN_POINT ( 'NONE',  ( -30.10000000000001563, -11.90000000000000924, -2.068246649881329002 ) ) ;
#80 = VECTOR ( 'NONE', #489, 1000.000000000000000 ) ;
#81 = CIRCLE ( 'NONE', #213, 1.599999999999997202 ) ;
#82 = CARTESIAN_POINT ( 'NONE',  ( -29.10000000000001208, 19.40000000000000924, -0.5000000000000000000 ) ) ;
#83 = EDGE_CURVE ( 'NONE', #94, #663, #794, .T. ) ;
#84 = DIRECTION ( 'NONE',  ( -0.000000000000000000, -0.000000000000000000, 1.000000000000000000 ) ) ;
#85 = CARTESIAN_POINT ( 'NONE',  ( -34.90000000000000568, 21.89999999999996660, -12.50000000000000000 ) ) ;
#86 = CC_DESIGN_PERSON_AND_ORGANIZATION_ASSIGNMENT ( #506, #335, ( #877 ) ) ;
#87 = CARTESIAN_POINT ( 'NONE',  ( -30.18411143389776896, -12.47390869327563756, -2.287576600518455905 ) ) ;
#88 = CARTESIAN_POINT ( 'NONE',  ( -34.90000000000000568, -14.89999999999995417, -0.5000000000000000000 ) ) ;
#89 = EDGE_CURVE ( 'NONE', #892, #111, #891, .T. ) ;
#90 = ORIENTED_EDGE ( 'NONE', *, *, #516, .T. ) ;
#91 = DIRECTION ( 'NONE',  ( -1.000000000000000000, -4.163336342344339393E-15, 0.000000000000000000 ) ) ;
#92 = CARTESIAN_POINT ( 'NONE',  ( -29.89999999999988489, 21.90000000000001990, -2.796549266394474653 ) ) ;
#93 = PERSON_AND_ORGANIZATION ( #350, #322 ) ;
#94 = VERTEX_POINT ( 'NONE', #432 ) ;
#95 = CARTESIAN_POINT ( 'NONE',  ( -34.90000000000000568, 16.40000000000001279, -0.5000000000000000000 ) ) ;
#96 = CARTESIAN_POINT ( 'NONE',  ( -32.10000000000000853, -17.89999999999995595, -0.5000000000000000000 ) ) ;
#97 = CIRCLE ( 'NONE', #212, 2.000000000000001776 ) ;
#98 = DIRECTION ( 'NONE',  ( 0.000000000000000000, 0.000000000000000000, 1.000000000000000000 ) ) ;
#99 = CALENDAR_DATE ( 2026, 5, 6 ) ;
#100 = ORIENTED_EDGE ( 'NONE', *, *, #662, .F. ) ;
#101 = CARTESIAN_POINT ( 'NONE',  ( -34.90000000000000568, 21.89999999999996660, -10.00000000000000000 ) ) ;
#102 = DIRECTION ( 'NONE',  ( 0.000000000000000000, 0.000000000000000000, -1.000000000000000000 ) ) ;
#103 = EDGE_CURVE ( 'NONE', #193, #168, #905, .T. ) ;
#104 = DIRECTION ( 'NONE',  ( -0.000000000000000000, 1.000000000000000000, -0.000000000000000000 ) ) ;
#105 = APPROVAL_ROLE ( '' ) ;
#106 = EDGE_LOOP ( 'NONE', ( #274, #653 ) ) ;
#107 = CYLINDRICAL_SURFACE ( 'NONE', #408, 2.999999999999999112 ) ;
#108 = CARTESIAN_POINT ( 'NONE',  ( -30.18401397007929887, 12.47358307238289932, -2.374472210084177970 ) ) ;
#109 = CARTESIAN_POINT ( 'NONE',  ( -30.11022637957837489, 11.66940563363966277, -2.610284204382327111 ) ) ;
#110 = APPROVAL_ROLE ( '' ) ;
#111 = VERTEX_POINT ( 'NONE', #982 ) ;
#112 = FACE_BOUND ( 'NONE', #574, .T. ) ;
#113 = ORIENTED_EDGE ( 'NONE', *, *, #783, .T. ) ;
#114 = PERSON_AND_ORGANIZATION ( #350, #322 ) ;
#115 = EDGE_CURVE ( 'NONE', #423, #954, #745, .T. ) ;
#116 = ORIENTED_EDGE ( 'NONE', *, *, #915, .T. ) ;
#117 = CARTESIAN_POINT ( 'NONE',  ( -29.10000000000001208, 21.90000000000000924, -0.5000000000000000000 ) ) ;
#118 = ORIENTED_EDGE ( 'NONE', *, *, #323, .F. ) ;
#119 = EDGE_CURVE ( 'NONE', #933, #706, #125, .T. ) ;
#120 = ORIENTED_EDGE ( 'NONE', *, *, #296, .F. ) ;
#121 = DIRECTION ( 'NONE',  ( -1.000000000000000000, 6.195440985631461234E-16, 0.000000000000000000 ) ) ;
#122 = DIRECTION ( 'NONE',  ( 1.000000000000000000, -2.775557561562890957E-15, -0.000000000000000000 ) ) ;
#123 = ORIENTED_EDGE ( 'NONE', *, *, #119, .F. ) ;
#124 = DIRECTION ( 'NONE',  ( 0.000000000000000000, 0.000000000000000000, -1.000000000000000000 ) ) ;
#125 = LINE ( 'NONE', #900, #275 ) ;
#126 = ORIENTED_EDGE ( 'NONE', *, *, #456, .F. ) ;
#127 = LINE ( 'NONE', #281, #301 ) ;
#128 = CARTESIAN_POINT ( 'NONE',  ( -32.10000000000000853, -17.89999999999995595, -10.00000000000000000 ) ) ;
#129 = ADVANCED_FACE ( 'NONE', ( #358 ), #525, .F. ) ;
#130 = VERTEX_POINT ( 'NONE', #978 ) ;
#131 = CYLINDRICAL_SURFACE ( 'NONE', #627, 0.5000000000000004441 ) ;
#132 = CARTESIAN_POINT ( 'NONE',  ( -32.10000000000001563, -11.90000000000000924, 0.000000000000000000 ) ) ;
#133 = VECTOR ( 'NONE', #167, 1000.000000000000000 ) ;
#134 = EDGE_LOOP ( 'NONE', ( #402, #885, #346, #10, #146 ) ) ;
#135 = ORIENTED_EDGE ( 'NONE', *, *, #970, .T. ) ;
#136 = LINE ( 'NONE', #42, #196 ) ;
#137 = PLANE ( 'NONE',  #340 ) ;
#138 = ORIENTED_EDGE ( 'NONE', *, *, #89, .T. ) ;
#139 = EDGE_CURVE ( 'NONE', #421, #615, #282, .T. ) ;
#140 = AXIS2_PLACEMENT_3D ( 'NONE', #712, #397, #477 ) ;
#141 = CLOSED_SHELL ( 'NONE', ( #199, #507, #129, #937, #696, #873, #258, #20, #41, #625, #173, #592, #897, #162, #376, #433, #406, #336, #729, #746, #575, #847, #297, #543, #437 ) ) ;
#142 = PLANE ( 'NONE',  #866 ) ;
#143 = LOCAL_TIME ( 11, 32, 54.00000000000000000, #271 ) ;
#144 = FACE_OUTER_BOUND ( 'NONE', #396, .T. ) ;
#145 = FACE_OUTER_BOUND ( 'NONE', #152, .T. ) ;
#146 = ORIENTED_EDGE ( 'NONE', *, *, #148, .T. ) ;
#147 = CARTESIAN_POINT ( 'NONE',  ( -29.10000000000001208, -21.89999999999995595, 0.000000000000000000 ) ) ;
#148 = EDGE_CURVE ( 'NONE', #871, #453, #589, .T. ) ;
#149 = CARTESIAN_POINT ( 'NONE',  ( -29.10000000000001208, 19.40000000000000924, -0.5000000000000000000 ) ) ;
#150 = DIRECTION ( 'NONE',  ( -1.000000000000000000, 0.000000000000000000, 0.000000000000000000 ) ) ;
#151 = AXIS2_PLACEMENT_3D ( 'NONE', #622, #76, #150 ) ;
#152 = EDGE_LOOP ( 'NONE', ( #40, #511, #979, #635 ) ) ;
#153 = VERTEX_POINT ( 'NONE', #819 ) ;
#154 = DIRECTION ( 'NONE',  ( 1.000000000000000000, 0.000000000000000000, 0.000000000000000000 ) ) ;
#155 = CARTESIAN_POINT ( 'NONE',  ( -29.90000000000000568, -21.89999999999997016, -2.796549266394474653 ) ) ;
#156 = EDGE_CURVE ( 'NONE', #750, #111, #914, .T. ) ;
#157 =( NAMED_UNIT ( * ) SI_UNIT ( $, .STERADIAN. ) SOLID_ANGLE_UNIT ( ) );
#158 = VECTOR ( 'NONE', #524, 1000.000000000000000 ) ;
#159 = PLANE ( 'NONE',  #836 ) ;
#160 = CARTESIAN_POINT ( 'NONE',  ( -30.11022637957837844, -12.13059436636044452, -2.610284204382425255 ) ) ;
#161 = CC_DESIGN_APPROVAL ( #39, ( #877 ) ) ;
#162 = ADVANCED_FACE ( 'NONE', ( #211 ), #518, .F. ) ;
#163 = FACE_OUTER_BOUND ( 'NONE', #53, .T. ) ;
#164 = VERTEX_POINT ( 'NONE', #60 ) ;
#165 = CARTESIAN_POINT ( 'NONE',  ( -30.10000000000001563, 11.90000000000000924, -2.068246649881428034 ) ) ;
#166 = DIRECTION ( 'NONE',  ( -1.000000000000000000, 0.000000000000000000, 0.000000000000000000 ) ) ;
#167 = DIRECTION ( 'NONE',  ( -0.000000000000000000, -0.000000000000000000, 1.000000000000000000 ) ) ;
#168 = VERTEX_POINT ( 'NONE', #436 ) ;
#169 = DIRECTION ( 'NONE',  ( -1.000000000000000000, 0.000000000000000000, 0.000000000000000000 ) ) ;
#170 = DIRECTION ( 'NONE',  ( -0.000000000000000000, -0.000000000000000000, 1.000000000000000000 ) ) ;
#171 = LINE ( 'NONE', #33, #486 ) ;
#172 = PERSON_AND_ORGANIZATION_ROLE ( 'creator' ) ;
#173 = ADVANCED_FACE ( 'NONE', ( #285 ), #137, .F. ) ;
#174 = ORIENTED_EDGE ( 'NONE', *, *, #660, .T. ) ;
#175 = DIRECTION ( 'NONE',  ( -1.000000000000000000, 0.000000000000000000, 0.000000000000000000 ) ) ;
#176 = VECTOR ( 'NONE', #388, 1000.000000000000000 ) ;
#177 = CARTESIAN_POINT ( 'NONE',  ( -30.50000000000001066, 19.40000000000000924, -10.00000000000000000 ) ) ;
#178 = VECTOR ( 'NONE', #539, 1000.000000000000000 ) ;
#179 = VECTOR ( 'NONE', #786, 1000.000000000000000 ) ;
#180 = PLANE ( 'NONE',  #851 ) ;
#181 = CALENDAR_DATE ( 2026, 5, 6 ) ;
#182 = ORIENTED_EDGE ( 'NONE', *, *, #220, .F. ) ;
#183 = CARTESIAN_POINT ( 'NONE',  ( -30.18115122566254271, -11.33585931760739385, -2.286765240408765276 ) ) ;
#184 = EDGE_CURVE ( 'NONE', #111, #892, #529, .T. ) ;
#185 = CARTESIAN_POINT ( 'NONE',  ( -30.16719117581347476, 12.41456197028182373, -2.215704069191759551 ) ) ;
#186 = VERTEX_POINT ( 'NONE', #675 ) ;
#187 = EDGE_LOOP ( 'NONE', ( #623, #567 ) ) ;
#188 = CARTESIAN_POINT ( 'NONE',  ( -30.13883085068516010, -11.50396937571720102, -2.554297097922991977 ) ) ;
#189 = VECTOR ( 'NONE', #9, 1000.000000000000000 ) ;
#190 = CARTESIAN_POINT ( 'NONE',  ( -30.11039916273416495, 12.13181634472911519, -2.081242915126354287 ) ) ;
#191 = CARTESIAN_POINT ( 'NONE',  ( -30.13888393730004722, 11.50365980740165739, -2.137041844155717296 ) ) ;
#192 = APPROVAL_DATE_TIME ( #862, #39 ) ;
#193 = VERTEX_POINT ( 'NONE', #596 ) ;
#194 = CC_DESIGN_PERSON_AND_ORGANIZATION_ASSIGNMENT ( #420, #414, ( #737 ) ) ;
#195 = CARTESIAN_POINT ( 'NONE',  ( -29.32267413853773874, 21.90000000000001990, -2.000000000000000444 ) ) ;
#196 = VECTOR ( 'NONE', #347, 1000.000000000000000 ) ;
#197 = DIRECTION ( 'NONE',  ( 1.000000000000000000, 0.000000000000000000, 0.000000000000000000 ) ) ;
#198 = AXIS2_PLACEMENT_3D ( 'NONE', #528, #310, #238 ) ;
#199 = ADVANCED_FACE ( 'NONE', ( #975 ), #353, .F. ) ;
#200 = DATE_TIME_ROLE ( 'creation_date' ) ;
#201 = EDGE_LOOP ( 'NONE', ( #29, #537, #995, #533 ) ) ;
#202 = LINE ( 'NONE', #509, #317 ) ;
#203 = DIRECTION ( 'NONE',  ( 1.000000000000000000, 0.000000000000000000, 0.000000000000000000 ) ) ;
#204 = ORIENTED_EDGE ( 'NONE', *, *, #887, .F. ) ;
#205 = EDGE_CURVE ( 'NONE', #669, #940, #599, .T. ) ;
#206 = CARTESIAN_POINT ( 'NONE',  ( -29.10000000000001208, 19.40000000000000924, -0.5000000000000000000 ) ) ;
#207 = DIRECTION ( 'NONE',  ( -2.775557561562890957E-15, -1.000000000000000000, 0.000000000000000000 ) ) ;
#208 = VERTEX_POINT ( 'NONE', #446 ) ;
#209 = EDGE_CURVE ( 'NONE', #461, #263, #678, .T. ) ;
#210 = DIRECTION ( 'NONE',  ( -1.000000000000000000, 0.000000000000000000, 0.000000000000000000 ) ) ;
#211 = FACE_OUTER_BOUND ( 'NONE', #554, .T. ) ;
#212 = AXIS2_PLACEMENT_3D ( 'NONE', #328, #639, #262 ) ;
#213 = AXIS2_PLACEMENT_3D ( 'NONE', #319, #257, #175 ) ;
#214 = ORIENTED_EDGE ( 'NONE', *, *, #75, .T. ) ;
#215 = FACE_OUTER_BOUND ( 'NONE', #861, .T. ) ;
#216 = DIRECTION ( 'NONE',  ( 1.000000000000000000, 0.000000000000000000, 0.000000000000000000 ) ) ;
#217 = EDGE_LOOP ( 'NONE', ( #495, #135, #484, #810, #58, #723 ) ) ;
#218 = LINE ( 'NONE', #427, #158 ) ;
#219 = CARTESIAN_POINT ( 'NONE',  ( -32.10000000000000853, -17.89999999999995595, -10.00000000000000000 ) ) ;
#220 = EDGE_CURVE ( 'NONE', #736, #356, #821, .T. ) ;
#221 = VERTEX_POINT ( 'NONE', #768 ) ;
#222 = LINE ( 'NONE', #682, #578 ) ;
#223 = LINE ( 'NONE', #549, #503 ) ;
#224 = CYLINDRICAL_SURFACE ( 'NONE', #425, 1.600000000000000755 ) ;
#225 = ORIENTED_EDGE ( 'NONE', *, *, #354, .T. ) ;
#226 = VECTOR ( 'NONE', #752, 1000.000000000000000 ) ;
#227 = ORIENTED_EDGE ( 'NONE', *, *, #582, .F. ) ;
#228 = DIRECTION ( 'NONE',  ( 0.000000000000000000, 0.000000000000000000, 1.000000000000000000 ) ) ;
#229 = CYLINDRICAL_SURFACE ( 'NONE', #466, 2.999999999999999112 ) ;
#230 = CARTESIAN_POINT ( 'NONE',  ( -32.10000000000000853, -14.89999999999995595, -0.5000000000000000000 ) ) ;
#231 = EDGE_LOOP ( 'NONE', ( #984, #925, #277, #298, #878 ) ) ;
#232 = CARTESIAN_POINT ( 'NONE',  ( -34.90000000000000568, 21.89999999999996660, -12.50000000000000000 ) ) ;
#233 = CARTESIAN_POINT ( 'NONE',  ( -24.90000000000001279, 21.90000000000000924, 0.000000000000000000 ) ) ;
#234 = APPROVAL ( #576, 'UNSPECIFIED' ) ;
#235 = LINE ( 'NONE', #697, #721 ) ;
#236 = ORIENTED_EDGE ( 'NONE', *, *, #985, .F. ) ;
#237 = LINE ( 'NONE', #541, #243 ) ;
#238 = DIRECTION ( 'NONE',  ( -1.000000000000000000, 0.000000000000000000, 0.000000000000000000 ) ) ;
#239 = CARTESIAN_POINT ( 'NONE',  ( -34.90000000000000568, 16.40000000000001279, 0.000000000000000000 ) ) ;
#240 = ORIENTED_EDGE ( 'NONE', *, *, #902, .T. ) ;
#241 = CARTESIAN_POINT ( 'NONE',  ( -32.10000000000000853, -14.89999999999995595, 0.000000000000000000 ) ) ;
#242 = VECTOR ( 'NONE', #585, 1000.000000000000000 ) ;
#243 = VECTOR ( 'NONE', #991, 1000.000000000000000 ) ;
#244 = LINE ( 'NONE', #918, #384 ) ;
#245 = VECTOR ( 'NONE', #390, 1000.000000000000000 ) ;
#246 = EDGE_LOOP ( 'NONE', ( #227, #898, #72, #362, #957, #182, #63, #61, #287 ) ) ;
#247 = CARTESIAN_POINT ( 'NONE',  ( -30.11063027882433474, -11.66653295126281265, -2.609606806004828972 ) ) ;
#248 = CARTESIAN_POINT ( 'NONE',  ( -30.10000000000001563, 11.90000000000001101, -2.622988929570755801 ) ) ;
#249 = ORIENTED_EDGE ( 'NONE', *, *, #532, .T. ) ;
#250 = EDGE_CURVE ( 'NONE', #193, #738, #244, .T. ) ;
#251 = DIRECTION ( 'NONE',  ( 0.000000000000000000, 0.000000000000000000, 1.000000000000000000 ) ) ;
#252 = ORIENTED_EDGE ( 'NONE', *, *, #619, .F. ) ;
#253 = CARTESIAN_POINT ( 'NONE',  ( -30.18130713854104030, -11.33532696857169420, -2.403311218190214316 ) ) ;
#254 = CARTESIAN_POINT ( 'NONE',  ( -32.10000000000001563, 11.90000000000000924, -12.50000000000000000 ) ) ;
#255 = ORIENTED_EDGE ( 'NONE', *, *, #980, .F. ) ;
#256 = ORIENTED_EDGE ( 'NONE', *, *, #980, .T. ) ;
#257 = DIRECTION ( 'NONE',  ( 0.000000000000000000, 0.000000000000000000, -1.000000000000000000 ) ) ;
#258 = ADVANCED_FACE ( 'NONE', ( #463 ), #708, .T. ) ;
#259 = CARTESIAN_POINT ( 'NONE',  ( -32.10000000000001563, 11.90000000000000924, -10.00000000000000000 ) ) ;
#260 = VECTOR ( 'NONE', #51, 1000.000000000000000 ) ;
#261 = AXIS2_PLACEMENT_3D ( 'NONE', #713, #792, #553 ) ;
#262 = DIRECTION ( 'NONE',  ( 1.000000000000000000, 0.000000000000000000, 0.000000000000000000 ) ) ;
#263 = VERTEX_POINT ( 'NONE', #92 ) ;
#264 = CARTESIAN_POINT ( 'NONE',  ( -30.18396342034633761, -11.32658581007742349, -2.315900332089124269 ) ) ;
#265 = EDGE_CURVE ( 'NONE', #501, #409, #938, .T. ) ;
#266 = LINE ( 'NONE', #177, #695 ) ;
#267 = ORIENTED_EDGE ( 'NONE', *, *, #910, .T. ) ;
#268 = ORIENTED_EDGE ( 'NONE', *, *, #209, .T. ) ;
#269 = CARTESIAN_POINT ( 'NONE',  ( -32.10000000000000853, 16.40000000000001279, -0.5000000000000000000 ) ) ;
#270 = CARTESIAN_POINT ( 'NONE',  ( -32.10000000000001563, 11.90000000000000924, 0.000000000000000000 ) ) ;
#271 = COORDINATED_UNIVERSAL_TIME_OFFSET ( 8, 0, .AHEAD. ) ;
#272 = ORIENTED_EDGE ( 'NONE', *, *, #654, .T. ) ;
#273 = DIRECTION ( 'NONE',  ( -8.673617379884033007E-17, 2.407412430484043941E-31, 1.000000000000000000 ) ) ;
#274 = ORIENTED_EDGE ( 'NONE', *, *, #308, .T. ) ;
#275 = VECTOR ( 'NONE', #671, 1000.000000000000000 ) ;
#276 = VECTOR ( 'NONE', #946, 1000.000000000000000 ) ;
#277 = ORIENTED_EDGE ( 'NONE', *, *, #887, .T. ) ;
#278 = PLANE ( 'NONE',  #465 ) ;
#279 = DIRECTION ( 'NONE',  ( 1.000000000000000000, 0.000000000000000000, 0.000000000000000000 ) ) ;
#280 = VERTEX_POINT ( 'NONE', #149 ) ;
#281 = CARTESIAN_POINT ( 'NONE',  ( -29.10000000000001208, -21.89999999999995595, -0.5000000000000000000 ) ) ;
#282 = LINE ( 'NONE', #290, #242 ) ;
#283 = ORIENTED_EDGE ( 'NONE', *, *, #817, .F. ) ;
#284 = CARTESIAN_POINT ( 'NONE',  ( -34.90000000000000568, 16.40000000000001279, -0.5000000000000000000 ) ) ;
#285 = FACE_OUTER_BOUND ( 'NONE', #66, .T. ) ;
#286 = AXIS2_PLACEMENT_3D ( 'NONE', #219, #55, #216 ) ;
#287 = ORIENTED_EDGE ( 'NONE', *, *, #205, .F. ) ;
#288 = CARTESIAN_POINT ( 'NONE',  ( -29.10000000000001208, -17.89999999999995595, 0.000000000000000000 ) ) ;
#289 = EDGE_CURVE ( 'NONE', #443, #383, #223, .T. ) ;
#290 = CARTESIAN_POINT ( 'NONE',  ( -29.10000000000001208, -17.89999999999995595, -0.5000000000000000000 ) ) ;
#291 = PRODUCT_DEFINITION_SHAPE ( 'NONE', 'NONE',  #877 ) ;
#292 = VERTEX_POINT ( 'NONE', #451 ) ;
#293 = ORIENTED_EDGE ( 'NONE', *, *, #793, .F. ) ;
#294 = CARTESIAN_POINT ( 'NONE',  ( -29.89999999999988489, 21.90000000000001990, -4.319013456085050565E-30 ) ) ;
#295 = CARTESIAN_POINT ( 'NONE',  ( -32.10000000000001563, 11.90000000000000924, -10.00000000000000000 ) ) ;
#296 = EDGE_CURVE ( 'NONE', #448, #523, #665, .T. ) ;
#297 = ADVANCED_FACE ( 'NONE', ( #144 ), #389, .F. ) ;
#298 = ORIENTED_EDGE ( 'NONE', *, *, #52, .T. ) ;
#299 = FACE_OUTER_BOUND ( 'NONE', #49, .T. ) ;
#300 = CARTESIAN_POINT ( 'NONE',  ( -32.10000000000001563, 11.90000000000000924, -12.50000000000000000 ) ) ;
#301 = VECTOR ( 'NONE', #435, 1000.000000000000000 ) ;
#302 = EDGE_CURVE ( 'NONE', #778, #186, #789, .T. ) ;
#303 = ORIENTED_EDGE ( 'NONE', *, *, #487, .F. ) ;
#304 = LINE ( 'NONE', #604, #611 ) ;
#305 = CARTESIAN_POINT ( 'NONE',  ( -30.13860806752585120, -12.29501252234076958, -2.554790145920973199 ) ) ;
#306 = DIRECTION ( 'NONE',  ( -0.000000000000000000, -0.000000000000000000, 1.000000000000000000 ) ) ;
#307 = ORIENTED_EDGE ( 'NONE', *, *, #824, .T. ) ;
#308 = EDGE_CURVE ( 'NONE', #962, #750, #726, .T. ) ;
#309 = LINE ( 'NONE', #773, #464 ) ;
#310 = DIRECTION ( 'NONE',  ( 0.000000000000000000, 0.000000000000000000, 1.000000000000000000 ) ) ;
#311 = LINE ( 'NONE', #459, #24 ) ;
#312 = ORIENTED_EDGE ( 'NONE', *, *, #250, .F. ) ;
#313 = DIRECTION ( 'NONE',  ( -1.000000000000000000, 2.802606738331622090E-15, -8.673617379884034239E-17 ) ) ;
#314 = CARTESIAN_POINT ( 'NONE',  ( -30.15053182235870111, -12.34905835465791668, -2.161786907697255344 ) ) ;
#315 = CARTESIAN_POINT ( 'NONE',  ( -32.10000000000000853, 19.40000000000000924, -10.00000000000000000 ) ) ;
#316 = AXIS2_PLACEMENT_3D ( 'NONE', #1, #378, #846 ) ;
#317 = VECTOR ( 'NONE', #121, 1000.000000000000000 ) ;
#318 = ORIENTED_EDGE ( 'NONE', *, *, #856, .F. ) ;
#319 = CARTESIAN_POINT ( 'NONE',  ( -32.10000000000000853, -17.89999999999995595, -12.50000000000000000 ) ) ;
#320 = AXIS2_PLACEMENT_3D ( 'NONE', #621, #931, #605 ) ;
#321 = CARTESIAN_POINT ( 'NONE',  ( -30.10000000000001563, 12.01646559012402804, -2.622988929570744698 ) ) ;
#322 = ORGANIZATION ( 'UNSPECIFIED', 'UNSPECIFIED', '' ) ;
#323 = EDGE_CURVE ( 'NONE', #523, #448, #48, .T. ) ;
#324 = COORDINATED_UNIVERSAL_TIME_OFFSET ( 8, 0, .AHEAD. ) ;
#325 = EDGE_LOOP ( 'NONE', ( #572, #800, #636, #903 ) ) ;
#326 = LINE ( 'NONE', #11, #35 ) ;
#327 = CARTESIAN_POINT ( 'NONE',  ( -30.18396342034626656, 12.47341418992237649, -2.315900332089134928 ) ) ;
#328 = CARTESIAN_POINT ( 'NONE',  ( -32.10000000000001563, 11.90000000000000924, 0.000000000000000000 ) ) ;
#329 = COORDINATED_UNIVERSAL_TIME_OFFSET ( 8, 0, .AHEAD. ) ;
#330 = ORIENTED_EDGE ( 'NONE', *, *, #985, .T. ) ;
#331 = CARTESIAN_POINT ( 'NONE',  ( -30.17282584697291625, -11.36498811887927474, -2.453749198959731093 ) ) ;
#332 = DIRECTION ( 'NONE',  ( 1.000000000000000000, 0.000000000000000000, 0.000000000000000000 ) ) ;
#333 = CARTESIAN_POINT ( 'NONE',  ( -30.17276524328459786, 11.36344650742320717, -2.457662771100770360 ) ) ;
#334 = EDGE_CURVE ( 'NONE', #94, #802, #908, .T. ) ;
#335 = PERSON_AND_ORGANIZATION_ROLE ( 'creator' ) ;
#336 = ADVANCED_FACE ( 'NONE', ( #474 ), #229, .F. ) ;
#337 = EDGE_LOOP ( 'NONE', ( #686, #557, #460, #44, #649, #77 ) ) ;
#338 = CARTESIAN_POINT ( 'NONE',  ( -30.50000000000001066, -17.89999999999995595, -0.5000000000000004441 ) ) ;
#339 = CARTESIAN_POINT ( 'NONE',  ( -32.10000000000001563, -11.90000000000000924, -10.00000000000000000 ) ) ;
#340 = AXIS2_PLACEMENT_3D ( 'NONE', #46, #815, #749 ) ;
#341 = APPROVAL ( #28, 'UNSPECIFIED' ) ;
#342 = FACE_BOUND ( 'NONE', #608, .T. ) ;
#343 = ORIENTED_EDGE ( 'NONE', *, *, #380, .F. ) ;
#344 = CARTESIAN_POINT ( 'NONE',  ( -34.10000000000002274, -11.90000000000000924, -12.50000000000000000 ) ) ;
#345 = DIRECTION ( 'NONE',  ( -2.775557561562890957E-15, -1.000000000000000000, 0.000000000000000000 ) ) ;
#346 = ORIENTED_EDGE ( 'NONE', *, *, #115, .T. ) ;
#347 = DIRECTION ( 'NONE',  ( 0.000000000000000000, 1.000000000000000000, 0.000000000000000000 ) ) ;
#348 = CARTESIAN_POINT ( 'NONE',  ( -30.18386413943807156, 11.32691750174414302, -2.405751586902187267 ) ) ;
#349 = VERTEX_POINT ( 'NONE', #844 ) ;
#350 = PERSON ( 'UNSPECIFIED', 'UNSPECIFIED', 'UNSPECIFIED', ('UNSPECIFIED'), ('UNSPECIFIED'), ('UNSPECIFIED') ) ;
#351 = VECTOR ( 'NONE', #692, 1000.000000000000000 ) ;
#352 = DIRECTION ( 'NONE',  ( -0.000000000000000000, -0.000000000000000000, 1.000000000000000000 ) ) ;
#353 = CYLINDRICAL_SURFACE ( 'NONE', #62, 2.000000000000001776 ) ;
#354 = EDGE_CURVE ( 'NONE', #940, #383, #928, .T. ) ;
#355 = AXIS2_PLACEMENT_3D ( 'NONE', #762, #74, #379 ) ;
#356 = VERTEX_POINT ( 'NONE', #155 ) ;
#357 = DIRECTION ( 'NONE',  ( -0.000000000000000000, -0.000000000000000000, 1.000000000000000000 ) ) ;
#358 = FACE_OUTER_BOUND ( 'NONE', #201, .T. ) ;
#359 = ORIENTED_EDGE ( 'NONE', *, *, #842, .F. ) ;
#360 = FACE_BOUND ( 'NONE', #187, .T. ) ;
#361 = DIRECTION ( 'NONE',  ( 0.000000000000000000, 0.000000000000000000, 1.000000000000000000 ) ) ;
#362 = ORIENTED_EDGE ( 'NONE', *, *, #956, .F. ) ;
#363 = EDGE_CURVE ( 'NONE', #280, #698, #774, .T. ) ;
#364 = LINE ( 'NONE', #981, #728 ) ;
#365 = DIRECTION ( 'NONE',  ( -0.000000000000000000, -0.000000000000000000, 1.000000000000000000 ) ) ;
#366 = AXIS2_PLACEMENT_3D ( 'NONE', #370, #207, #513 ) ;
#367 = ORIENTED_EDGE ( 'NONE', *, *, #668, .F. ) ;
#368 = VECTOR ( 'NONE', #607, 1000.000000000000000 ) ;
#369 = CARTESIAN_POINT ( 'NONE',  ( -32.10000000000000853, -17.89999999999995595, 0.000000000000000000 ) ) ;
#370 = CARTESIAN_POINT ( 'NONE',  ( -29.68398888142120029, -21.89999999999997016, -2.345617789726087477 ) ) ;
#371 = CARTESIAN_POINT ( 'NONE',  ( -33.70000000000001705, -17.89999999999995595, -0.5000000000000004441 ) ) ;
#372 = ORIENTED_EDGE ( 'NONE', *, *, #27, .F. ) ;
#373 = CARTESIAN_POINT ( 'NONE',  ( -29.10000000000001208, -17.89999999999995595, -0.5000000000000000000 ) ) ;
#374 = PRODUCT_DEFINITION_FORMATION_WITH_SPECIFIED_SOURCE ( 'ANY', '', #989, .NOT_KNOWN. ) ;
#375 = DIRECTION ( 'NONE',  ( -1.000000000000000000, 0.000000000000000000, 0.000000000000000000 ) ) ;
#376 = ADVANCED_FACE ( 'NONE', ( #700 ), #2, .F. ) ;
#377 = ORIENTED_EDGE ( 'NONE', *, *, #115, .F. ) ;
#378 = DIRECTION ( 'NONE',  ( 6.195440985631462220E-16, 1.000000000000000000, 0.000000000000000000 ) ) ;
#379 = DIRECTION ( 'NONE',  ( -1.000000000000000000, 0.000000000000000000, 0.000000000000000000 ) ) ;
#380 = EDGE_CURVE ( 'NONE', #802, #94, #868, .T. ) ;
#381 = CARTESIAN_POINT ( 'NONE',  ( -34.90000000000000568, 21.89999999999996660, -0.5000000000000000000 ) ) ;
#382 = B_SPLINE_CURVE_WITH_KNOTS ( 'NONE', 3,
 ( #563, #23, #941, #879, #864, #637, #958, #183, #264, #779, #253, #331, #473, #410, #188, #247, #707, #17 ),
 .UNSPECIFIED., .F., .F.,
 ( 4, 2, 2, 2, 2, 2, 2, 2, 4 ),
 ( 0.001380203588023916437, 0.001724652216940552457, 0.001896876531398869383, 0.001982988688628027196, 0.002069100845857184574, 0.002155213003086342387, 0.002241325160315500199, 0.002413549474773813222, 0.002757998103690434931 ),
 .UNSPECIFIED. ) ;
#383 = VERTEX_POINT ( 'NONE', #399 ) ;
#384 = VECTOR ( 'NONE', #688, 1000.000000000000000 ) ;
#385 = CARTESIAN_POINT ( 'NONE',  ( -32.10000000000000853, -17.89999999999995595, -0.5000000000000004441 ) ) ;
#386 = DIRECTION ( 'NONE',  ( -0.000000000000000000, -0.000000000000000000, 1.000000000000000000 ) ) ;
#387 = CARTESIAN_POINT ( 'NONE',  ( -30.50000000000001066, -17.89999999999995595, -10.00000000000000000 ) ) ;
#388 = DIRECTION ( 'NONE',  ( -1.000000000000000000, 6.195440985631461234E-16, 0.000000000000000000 ) ) ;
#389 = PLANE ( 'NONE',  #955 ) ;
#390 = DIRECTION ( 'NONE',  ( 2.775557561562890562E-15, 1.000000000000000000, 0.000000000000000000 ) ) ;
#391 = EDGE_CURVE ( 'NONE', #453, #164, #651, .T. ) ;
#392 = ORIENTED_EDGE ( 'NONE', *, *, #950, .F. ) ;
#393 = DIRECTION ( 'NONE',  ( 0.000000000000000000, 0.000000000000000000, -1.000000000000000000 ) ) ;
#394 = CARTESIAN_POINT ( 'NONE',  ( -30.11051286457715648, -12.13278311060256875, -2.081400001665785204 ) ) ;
#395 = CALENDAR_DATE ( 2026, 5, 6 ) ;
#396 = EDGE_LOOP ( 'NONE', ( #845, #945, #812, #249 ) ) ;
#397 = DIRECTION ( 'NONE',  ( 0.000000000000000000, 0.000000000000000000, 1.000000000000000000 ) ) ;
#398 = VECTOR ( 'NONE', #428, 1000.000000000000000 ) ;
#399 = CARTESIAN_POINT ( 'NONE',  ( -24.90000000000001279, 21.90000000000000924, 0.000000000000000000 ) ) ;
#400 = DIRECTION ( 'NONE',  ( -1.000000000000000000, 0.000000000000000000, 0.000000000000000000 ) ) ;
#401 = PERSON_AND_ORGANIZATION ( #350, #322 ) ;
#402 = ORIENTED_EDGE ( 'NONE', *, *, #68, .T. ) ;
#403 = DIRECTION ( 'NONE',  ( -4.163336342344339393E-15, 1.000000000000000000, 0.000000000000000000 ) ) ;
#404 = DIRECTION ( 'NONE',  ( -0.000000000000000000, -0.000000000000000000, 1.000000000000000000 ) ) ;
#405 = ORIENTED_EDGE ( 'NONE', *, *, #426, .F. ) ;
#406 = ADVANCED_FACE ( 'NONE', ( #959, #31 ), #559, .F. ) ;
#407 = DATE_AND_TIME ( #561, #994 ) ;
#408 = AXIS2_PLACEMENT_3D ( 'NONE', #558, #498, #724 ) ;
#409 = VERTEX_POINT ( 'NONE', #344 ) ;
#410 = CARTESIAN_POINT ( 'NONE',  ( -30.15043464914689508, -11.45134256649546955, -2.529719105988270655 ) ) ;
#411 = AXIS2_PLACEMENT_3D ( 'NONE', #101, #403, #91 ) ;
#412 = CYLINDRICAL_SURFACE ( 'NONE', #870, 2.000000000000001776 ) ;
#413 = CARTESIAN_POINT ( 'NONE',  ( -30.18411143389769791, 11.32609130672459585, -2.287576600518478109 ) ) ;
#414 = PERSON_AND_ORGANIZATION_ROLE ( 'classification_officer' ) ;
#415 = APPLICATION_CONTEXT ( 'configuration controlled 3d designs of mechanical parts and assemblies' ) ;
#416 = ORIENTED_EDGE ( 'NONE', *, *, #296, .T. ) ;
#417 = CARTESIAN_POINT ( 'NONE',  ( -30.11063027882434184, 12.13346704873712056, -2.609606806004735269 ) ) ;
#418 = CIRCLE ( 'NONE', #972, 2.000000000000001776 ) ;
#419 = CARTESIAN_POINT ( 'NONE',  ( -30.10000000000001563, 11.90000000000001101, -2.622988929570755801 ) ) ;
#420 = PERSON_AND_ORGANIZATION ( #350, #322 ) ;
#421 = VERTEX_POINT ( 'NONE', #25 ) ;
#422 = DIRECTION ( 'NONE',  ( -1.000000000000000000, 0.000000000000000000, 0.000000000000000000 ) ) ;
#423 = VERTEX_POINT ( 'NONE', #117 ) ;
#424 = ORIENTED_EDGE ( 'NONE', *, *, #606, .T. ) ;
#425 = AXIS2_PLACEMENT_3D ( 'NONE', #452, #618, #701 ) ;
#426 = EDGE_CURVE ( 'NONE', #778, #523, #266, .T. ) ;
#427 = CARTESIAN_POINT ( 'NONE',  ( -34.10000000000002274, -11.90000000000000924, -10.00000000000000000 ) ) ;
#428 = DIRECTION ( 'NONE',  ( -1.000000000000000000, -7.178166107490241748E-15, -0.000000000000000000 ) ) ;
#429 = ORIENTED_EDGE ( 'NONE', *, *, #769, .F. ) ;
#430 = CARTESIAN_POINT ( 'NONE',  ( -29.89999999999988489, 21.90000000000001990, -12.50000000000000000 ) ) ;
#431 = AXIS2_PLACEMENT_3D ( 'NONE', #339, #170, #332 ) ;
#432 = CARTESIAN_POINT ( 'NONE',  ( -30.10000000000001563, 11.90000000000000924, -12.50000000000000000 ) ) ;
#433 = ADVANCED_FACE ( 'NONE', ( #963 ), #412, .F. ) ;
#434 = EDGE_LOOP ( 'NONE', ( #113, #90, #826, #741 ) ) ;
#435 = DIRECTION ( 'NONE',  ( -0.000000000000000000, -0.000000000000000000, 1.000000000000000000 ) ) ;
#436 = CARTESIAN_POINT ( 'NONE',  ( -34.90000000000000568, -21.89999999999995595, -0.5000000000000000000 ) ) ;
#437 = ADVANCED_FACE ( 'NONE', ( #18, #112, #569, #502, #811 ), #953, .T. ) ;
#438 = ORIENTED_EDGE ( 'NONE', *, *, #302, .F. ) ;
#439 = CARTESIAN_POINT ( 'NONE',  ( -29.68398888142107950, 21.90000000000001990, -2.345617789726087477 ) ) ;
#440 = DIRECTION ( 'NONE',  ( -0.000000000000000000, -0.000000000000000000, 1.000000000000000000 ) ) ;
#441 = EDGE_CURVE ( 'NONE', #772, #663, #926, .T. ) ;
#442 = ORIENTED_EDGE ( 'NONE', *, *, #441, .F. ) ;
#443 = VERTEX_POINT ( 'NONE', #731 ) ;
#444 = FACE_OUTER_BOUND ( 'NONE', #784, .T. ) ;
#445 = ADVANCED_BREP_SHAPE_REPRESENTATION ( 'upperholder_lid_right', ( #633, #893 ), #15 ) ;
#446 = CARTESIAN_POINT ( 'NONE',  ( -32.10000000000000853, -14.89999999999995595, -0.5000000000000000000 ) ) ;
#447 = VECTOR ( 'NONE', #992, 1000.000000000000000 ) ;
#448 = VERTEX_POINT ( 'NONE', #655 ) ;
#449 = APPROVAL_PERSON_ORGANIZATION ( #401, #39, #110 ) ;
#450 = LINE ( 'NONE', #616, #890 ) ;
#451 = CARTESIAN_POINT ( 'NONE',  ( -29.10000000000001208, 21.90000000000000924, 0.000000000000000000 ) ) ;
#452 = CARTESIAN_POINT ( 'NONE',  ( -32.10000000000000853, 19.40000000000000924, -10.00000000000000000 ) ) ;
#453 = VERTEX_POINT ( 'NONE', #269 ) ;
#454 = ORIENTED_EDGE ( 'NONE', *, *, #714, .T. ) ;
#455 = CARTESIAN_POINT ( 'NONE',  ( -34.90000000000000568, 21.89999999999996660, -10.00000000000000000 ) ) ;
#456 = EDGE_CURVE ( 'NONE', #830, #976, #1005, .T. ) ;
#457 = CARTESIAN_POINT ( 'NONE',  ( -32.10000000000000853, 16.40000000000001279, -0.5000000000000000000 ) ) ;
#458 = CIRCLE ( 'NONE', #151, 3.000000000000002665 ) ;
#459 = CARTESIAN_POINT ( 'NONE',  ( -29.10000000000001208, 21.90000000000000924, -0.5000000000000000000 ) ) ;
#460 = ORIENTED_EDGE ( 'NONE', *, *, #494, .T. ) ;
#461 = VERTEX_POINT ( 'NONE', #195 ) ;
#462 = CARTESIAN_POINT ( 'NONE',  ( -34.90000000000000568, 21.89999999999996660, -10.00000000000000000 ) ) ;
#463 = FACE_OUTER_BOUND ( 'NONE', #816, .T. ) ;
#464 = VECTOR ( 'NONE', #854, 1000.000000000000000 ) ;
#465 = AXIS2_PLACEMENT_3D ( 'NONE', #206, #814, #124 ) ;
#466 = AXIS2_PLACEMENT_3D ( 'NONE', #781, #535, #617 ) ;
#467 = EDGE_LOOP ( 'NONE', ( #267, #359, #1000, #307, #268, #547, #990, #272, #377 ) ) ;
#468 = LINE ( 'NONE', #85, #1004 ) ;
#469 = DIRECTION ( 'NONE',  ( 0.000000000000000000, 0.000000000000000000, -1.000000000000000000 ) ) ;
#470 = EDGE_CURVE ( 'NONE', #263, #356, #634, .T. ) ;
#471 = CYLINDRICAL_SURFACE ( 'NONE', #71, 1.600000000000000755 ) ;
#472 = ORIENTED_EDGE ( 'NONE', *, *, #824, .F. ) ;
#473 = CARTESIAN_POINT ( 'NONE',  ( -30.16737470923177966, -11.38474848572827192, -2.474863210159161220 ) ) ;
#474 = FACE_OUTER_BOUND ( 'NONE', #790, .T. ) ;
#475 = CARTESIAN_POINT ( 'NONE',  ( -24.90000000000000568, -21.89999999999998437, 0.000000000000000000 ) ) ;
#476 = ORIENTED_EDGE ( 'NONE', *, *, #119, .T. ) ;
#477 = DIRECTION ( 'NONE',  ( -1.000000000000000000, 0.000000000000000000, 0.000000000000000000 ) ) ;
#478 = CARTESIAN_POINT ( 'NONE',  ( -29.89999999999988489, 21.90000000000001990, -2.796549266394474653 ) ) ;
#479 = FACE_OUTER_BOUND ( 'NONE', #246, .T. ) ;
#480 = UNCERTAINTY_MEASURE_WITH_UNIT (LENGTH_MEASURE( 1.000000000000000082E-05 ), #628, 'distance_accuracy_value', 'NONE');
#481 = PERSON_AND_ORGANIZATION_ROLE ( 'design_supplier' ) ;
#482 = CIRCLE ( 'NONE', #807, 3.000000000000002665 ) ;
#483 = AXIS2_PLACEMENT_3D ( 'NONE', #659, #273, #895 ) ;
#484 = ORIENTED_EDGE ( 'NONE', *, *, #57, .T. ) ;
#485 = CARTESIAN_POINT ( 'NONE',  ( -34.10000000000002274, 11.90000000000000924, 0.000000000000000000 ) ) ;
#486 = VECTOR ( 'NONE', #104, 1000.000000000000000 ) ;
#487 = EDGE_CURVE ( 'NONE', #954, #871, #743, .T. ) ;
#488 = DIRECTION ( 'NONE',  ( -0.000000000000000000, -0.000000000000000000, 1.000000000000000000 ) ) ;
#489 = DIRECTION ( 'NONE',  ( 1.000000000000000000, -0.000000000000000000, -0.000000000000000000 ) ) ;
#490 = DATE_AND_TIME ( #395, #496 ) ;
#491 = EDGE_LOOP ( 'NONE', ( #600, #571 ) ) ;
#492 = LINE ( 'NONE', #952, #276 ) ;
#493 = CARTESIAN_POINT ( 'NONE',  ( -30.18115122566247521, 12.46414068239241146, -2.286765240408790145 ) ) ;
#494 = EDGE_CURVE ( 'NONE', #501, #962, #364, .T. ) ;
#495 = ORIENTED_EDGE ( 'NONE', *, *, #334, .T. ) ;
#496 = LOCAL_TIME ( 11, 32, 54.00000000000000000, #324 ) ;
#497 = ORIENTED_EDGE ( 'NONE', *, *, #184, .F. ) ;
#498 = DIRECTION ( 'NONE',  ( -0.000000000000000000, -0.000000000000000000, 1.000000000000000000 ) ) ;
#499 = CARTESIAN_POINT ( 'NONE',  ( -30.15043464914686311, 12.34865743350437484, -2.529719105988202710 ) ) ;
#500 = CARTESIAN_POINT ( 'NONE',  ( -30.15009855958247087, 11.45277764976922086, -2.530545282793117856 ) ) ;
#501 = VERTEX_POINT ( 'NONE', #904 ) ;
#502 = FACE_BOUND ( 'NONE', #491, .T. ) ;
#503 = VECTOR ( 'NONE', #850, 1000.000000000000000 ) ;
#504 = CIRCLE ( 'NONE', #630, 2.000000000000001776 ) ;
#505 = CARTESIAN_POINT ( 'NONE',  ( -32.10000000000000853, 19.40000000000000924, -0.5000000000000000000 ) ) ;
#506 = PERSON_AND_ORGANIZATION ( #350, #322 ) ;
#507 = ADVANCED_FACE ( 'NONE', ( #739 ), #584, .F. ) ;
#508 = VERTEX_POINT ( 'NONE', #50 ) ;
#509 = CARTESIAN_POINT ( 'NONE',  ( -32.10000000000000853, -14.89999999999995595, 0.000000000000000000 ) ) ;
#510 = CARTESIAN_POINT ( 'NONE',  ( -24.90000000000000568, -21.89999999999998437, 0.000000000000000000 ) ) ;
#511 = ORIENTED_EDGE ( 'NONE', *, *, #856, .T. ) ;
#512 = DIRECTION ( 'NONE',  ( -2.772389116857911234E-15, -1.000000000000000000, 0.000000000000000000 ) ) ;
#513 = DIRECTION ( 'NONE',  ( 1.000000000000000000, 0.000000000000000000, 0.000000000000000000 ) ) ;
#514 = ORIENTED_EDGE ( 'NONE', *, *, #302, .T. ) ;
#515 = FACE_OUTER_BOUND ( 'NONE', #134, .T. ) ;
#516 = EDGE_CURVE ( 'NONE', #526, #349, #54, .T. ) ;
#517 = CIRCLE ( 'NONE', #34, 2.999999999999995559 ) ;
#518 = CYLINDRICAL_SURFACE ( 'NONE', #286, 1.600000000000000755 ) ;
#519 = ORIENTED_EDGE ( 'NONE', *, *, #308, .F. ) ;
#520 = LINE ( 'NONE', #748, #32 ) ;
#521 = DIRECTION ( 'NONE',  ( -1.000000000000000000, 0.000000000000000000, 0.000000000000000000 ) ) ;
#522 = ORIENTED_EDGE ( 'NONE', *, *, #689, .F. ) ;
#523 = VERTEX_POINT ( 'NONE', #818 ) ;
#524 = DIRECTION ( 'NONE',  ( -0.000000000000000000, -0.000000000000000000, 1.000000000000000000 ) ) ;
#525 = CYLINDRICAL_SURFACE ( 'NONE', #612, 1.600000000000000755 ) ;
#526 = VERTEX_POINT ( 'NONE', #430 ) ;
#527 = DIRECTION ( 'NONE',  ( -0.000000000000000000, -0.000000000000000000, 1.000000000000000000 ) ) ;
#528 = CARTESIAN_POINT ( 'NONE',  ( -32.10000000000000853, 19.40000000000000924, -0.5000000000000004441 ) ) ;
#529 = CIRCLE ( 'NONE', #809, 2.000000000000001776 ) ;
#530 = CARTESIAN_POINT ( 'NONE',  ( -34.90000000000000568, -14.89999999999995417, -0.5000000000000000000 ) ) ;
#531 = ORIENTED_EDGE ( 'NONE', *, *, #494, .F. ) ;
#532 = EDGE_CURVE ( 'NONE', #871, #933, #899, .T. ) ;
#533 = ORIENTED_EDGE ( 'NONE', *, *, #915, .F. ) ;
#534 = LINE ( 'NONE', #917, #176 ) ;
#535 = DIRECTION ( 'NONE',  ( -0.000000000000000000, -0.000000000000000000, 1.000000000000000000 ) ) ;
#536 = CARTESIAN_POINT ( 'NONE',  ( 0.000000000000000000, 0.000000000000000000, 0.000000000000000000 ) ) ;
#537 = ORIENTED_EDGE ( 'NONE', *, *, #769, .T. ) ;
#538 = PLANE ( 'NONE',  #316 ) ;
#539 = DIRECTION ( 'NONE',  ( -1.584222352490235040E-16, 1.000000000000000000, -0.000000000000000000 ) ) ;
#540 = CARTESIAN_POINT ( 'NONE',  ( -29.32267413853773874, 21.90000000000001990, -2.000000000000000444 ) ) ;
#541 = CARTESIAN_POINT ( 'NONE',  ( -33.70000000000001705, -17.89999999999995595, -10.00000000000000000 ) ) ;
#542 = DIRECTION ( 'NONE',  ( 0.000000000000000000, -1.000000000000000000, -0.000000000000000000 ) ) ;
#543 = ADVANCED_FACE ( 'NONE', ( #444 ), #278, .F. ) ;
#544 = CARTESIAN_POINT ( 'NONE',  ( -34.10000000000002274, 11.90000000000000924, -10.00000000000000000 ) ) ;
#545 = AXIS2_PLACEMENT_3D ( 'NONE', #132, #825, #758 ) ;
#546 = VECTOR ( 'NONE', #306, 1000.000000000000000 ) ;
#547 = ORIENTED_EDGE ( 'NONE', *, *, #668, .T. ) ;
#548 = DIRECTION ( 'NONE',  ( -1.000000000000000000, 0.000000000000000000, 0.000000000000000000 ) ) ;
#549 = CARTESIAN_POINT ( 'NONE',  ( -24.90000000000001279, 21.90000000000000924, -10.00000000000000000 ) ) ;
#550 = LINE ( 'NONE', #932, #368 ) ;
#551 = ORIENTED_EDGE ( 'NONE', *, *, #666, .F. ) ;
#552 = CARTESIAN_POINT ( 'NONE',  ( -34.10000000000002274, 11.90000000000000924, -12.50000000000000000 ) ) ;
#553 = DIRECTION ( 'NONE',  ( -1.000000000000000000, 0.000000000000000000, -0.000000000000000000 ) ) ;
#554 = EDGE_LOOP ( 'NONE', ( #429, #765, #116, #22 ) ) ;
#555 = VECTOR ( 'NONE', #770, 1000.000000000000000 ) ;
#556 = PERSON_AND_ORGANIZATION ( #350, #322 ) ;
#557 = ORIENTED_EDGE ( 'NONE', *, *, #801, .T. ) ;
#558 = CARTESIAN_POINT ( 'NONE',  ( -32.10000000000000853, 19.40000000000000924, -0.5000000000000000000 ) ) ;
#559 = PLANE ( 'NONE',  #744 ) ;
#560 = DIRECTION ( 'NONE',  ( -0.000000000000000000, 0.000000000000000000, -1.000000000000000000 ) ) ;
#561 = CALENDAR_DATE ( 2026, 5, 6 ) ;
#562 = ORIENTED_EDGE ( 'NONE', *, *, #334, .F. ) ;
#563 = CARTESIAN_POINT ( 'NONE',  ( -30.10000000000001563, -11.90000000000000924, -2.068246649881329002 ) ) ;
#564 = VECTOR ( 'NONE', #404, 1000.000000000000000 ) ;
#565 = CARTESIAN_POINT ( 'NONE',  ( -30.10000000000001563, 11.90000000000000924, -2.068246649881428034 ) ) ;
#566 = EDGE_LOOP ( 'NONE', ( #256, #472, #330, #764 ) ) ;
#567 = ORIENTED_EDGE ( 'NONE', *, *, #441, .T. ) ;
#568 = DIRECTION ( 'NONE',  ( -1.000000000000000000, 2.802606738331622090E-15, -8.673617379884034239E-17 ) ) ;
#569 = FACE_OUTER_BOUND ( 'NONE', #434, .T. ) ;
#570 = EDGE_CURVE ( 'NONE', #221, #153, #922, .T. ) ;
#571 = ORIENTED_EDGE ( 'NONE', *, *, #801, .F. ) ;
#572 = ORIENTED_EDGE ( 'NONE', *, *, #817, .T. ) ;
#573 = CARTESIAN_POINT ( 'NONE',  ( -32.10000000000000853, -17.89999999999995595, -0.5000000000000004441 ) ) ;
#574 = EDGE_LOOP ( 'NONE', ( #562, #343 ) ) ;
#575 = ADVANCED_FACE ( 'NONE', ( #515, #670 ), #909, .F. ) ;
#576 = APPROVAL_STATUS ( 'not_yet_approved' ) ;
#577 = EDGE_LOOP ( 'NONE', ( #882, #967, #586, #442, #174, #214 ) ) ;
#578 = VECTOR ( 'NONE', #934, 1000.000000000000000 ) ;
#579 = CARTESIAN_POINT ( 'NONE',  ( -32.10000000000001563, -11.90000000000000924, -10.00000000000000000 ) ) ;
#580 = AXIS2_PLACEMENT_3D ( 'NONE', #924, #7, #12 ) ;
#581 = PLANE ( 'NONE',  #694 ) ;
#582 = EDGE_CURVE ( 'NONE', #421, #669, #127, .T. ) ;
#583 = ORIENTED_EDGE ( 'NONE', *, *, #89, .F. ) ;
#584 = CYLINDRICAL_SURFACE ( 'NONE', #971, 2.000000000000001776 ) ;
#585 = DIRECTION ( 'NONE',  ( -0.000000000000000000, 1.000000000000000000, -0.000000000000000000 ) ) ;
#586 = ORIENTED_EDGE ( 'NONE', *, *, #83, .T. ) ;
#587 = EDGE_CURVE ( 'NONE', #280, #423, #520, .T. ) ;
#588 = CARTESIAN_POINT ( 'NONE',  ( -34.90000000000000568, 16.40000000000001279, -0.5000000000000000000 ) ) ;
#589 = LINE ( 'NONE', #896, #226 ) ;
#590 = CC_DESIGN_DATE_AND_TIME_ASSIGNMENT ( #876, #641, ( #737 ) ) ;
#591 = VERTEX_POINT ( 'NONE', #288 ) ;
#592 = ADVANCED_FACE ( 'NONE', ( #360, #674, #215 ), #131, .F. ) ;
#593 = VECTOR ( 'NONE', #59, 1000.000000000000000 ) ;
#594 = CARTESIAN_POINT ( 'NONE',  ( -32.10000000000000853, 19.40000000000000924, -0.5000000000000000000 ) ) ;
#595 = VECTOR ( 'NONE', #679, 1000.000000000000000 ) ;
#596 = CARTESIAN_POINT ( 'NONE',  ( -34.90000000000000568, -21.89999999999995595, -12.50000000000000000 ) ) ;
#597 = ORIENTED_EDGE ( 'NONE', *, *, #582, .T. ) ;
#598 = DIRECTION ( 'NONE',  ( -2.775557561562890562E-15, -1.000000000000000000, -0.000000000000000000 ) ) ;
#599 = LINE ( 'NONE', #510, #14 ) ;
#600 = ORIENTED_EDGE ( 'NONE', *, *, #265, .F. ) ;
#601 = PRODUCT_RELATED_PRODUCT_CATEGORY ( 'detail', '', ( #989 ) ) ;
#602 = CC_DESIGN_APPROVAL ( #234, ( #374 ) ) ;
#603 = ORIENTED_EDGE ( 'NONE', *, *, #570, .F. ) ;
#604 = CARTESIAN_POINT ( 'NONE',  ( -32.10000000000000853, 16.40000000000001279, 0.000000000000000000 ) ) ;
#605 = DIRECTION ( 'NONE',  ( -1.584222352490235040E-16, 1.000000000000000000, 0.000000000000000000 ) ) ;
#606 = EDGE_CURVE ( 'NONE', #409, #892, #218, .T. ) ;
#607 = DIRECTION ( 'NONE',  ( -2.775557561562890562E-15, -1.000000000000000000, -0.000000000000000000 ) ) ;
#608 = EDGE_LOOP ( 'NONE', ( #888, #1002 ) ) ;
#609 = DIRECTION ( 'NONE',  ( 0.000000000000000000, 0.000000000000000000, 1.000000000000000000 ) ) ;
#610 = DIRECTION ( 'NONE',  ( 0.000000000000000000, 0.000000000000000000, -1.000000000000000000 ) ) ;
#611 = VECTOR ( 'NONE', #702, 1000.000000000000000 ) ;
#612 = AXIS2_PLACEMENT_3D ( 'NONE', #128, #440, #987 ) ;
#613 = AXIS2_PLACEMENT_3D ( 'NONE', #573, #886, #860 ) ;
#614 = APPLICATION_PROTOCOL_DEFINITION ( 'international standard', 'config_control_design', 1994, #646 ) ;
#615 = VERTEX_POINT ( 'NONE', #832 ) ;
#616 = CARTESIAN_POINT ( 'NONE',  ( -6.120361522186498987E-14, -21.90000000000005542, -1.999999999999997780 ) ) ;
#617 = DIRECTION ( 'NONE',  ( 1.000000000000000000, 0.000000000000000000, 0.000000000000000000 ) ) ;
#618 = DIRECTION ( 'NONE',  ( -0.000000000000000000, -0.000000000000000000, 1.000000000000000000 ) ) ;
#619 = EDGE_CURVE ( 'NONE', #698, #292, #136, .T. ) ;
#620 = CARTESIAN_POINT ( 'NONE',  ( -34.90000000000000568, -14.89999999999995417, 0.000000000000000000 ) ) ;
#621 = CARTESIAN_POINT ( 'NONE',  ( -24.90000000000001279, 21.90000000000000924, -10.00000000000000000 ) ) ;
#622 = CARTESIAN_POINT ( 'NONE',  ( -32.10000000000000853, -17.89999999999995595, -0.5000000000000000000 ) ) ;
#623 = ORIENTED_EDGE ( 'NONE', *, *, #4, .T. ) ;
#624 = CARTESIAN_POINT ( 'NONE',  ( -29.10000000000001208, 19.40000000000000924, 0.000000000000000000 ) ) ;
#625 = ADVANCED_FACE ( 'NONE', ( #45 ), #974, .F. ) ;
#626 = CARTESIAN_POINT ( 'NONE',  ( -30.10000000000001918, -12.01666923009401522, -2.622988929570844174 ) ) ;
#627 = AXIS2_PLACEMENT_3D ( 'NONE', #439, #598, #968 ) ;
#628 =( LENGTH_UNIT ( ) NAMED_UNIT ( * ) SI_UNIT ( .MILLI., .METRE. ) );
#629 = AXIS2_PLACEMENT_3D ( 'NONE', #667, #65, #279 ) ;
#630 = AXIS2_PLACEMENT_3D ( 'NONE', #718, #632, #169 ) ;
#631 = ORIENTED_EDGE ( 'NONE', *, *, #998, .T. ) ;
#632 = DIRECTION ( 'NONE',  ( 0.000000000000000000, 0.000000000000000000, -1.000000000000000000 ) ) ;
#633 = MANIFOLD_SOLID_BREP ( '¶ñ®Æ-¦ùªø2', #141 ) ;
#634 = LINE ( 'NONE', #478, #179 ) ;
#635 = ORIENTED_EDGE ( 'NONE', *, *, #323, .T. ) ;
#636 = ORIENTED_EDGE ( 'NONE', *, *, #68, .F. ) ;
#637 = CARTESIAN_POINT ( 'NONE',  ( -30.16719117581353515, -11.38543802971800112, -2.215704069191709369 ) ) ;
#638 = CARTESIAN_POINT ( 'NONE',  ( -30.16737470923172637, 12.41525151427154583, -2.474863210159111038 ) ) ;
#639 = DIRECTION ( 'NONE',  ( 0.000000000000000000, 0.000000000000000000, 1.000000000000000000 ) ) ;
#640 = EDGE_CURVE ( 'NONE', #734, #706, #202, .T. ) ;
#641 = DATE_TIME_ROLE ( 'classification_date' ) ;
#642 = EDGE_LOOP ( 'NONE', ( #676, #424, #138, #755, #519, #531 ) ) ;
#643 = LINE ( 'NONE', #872, #710 ) ;
#644 = DIRECTION ( 'NONE',  ( -0.000000000000000000, -0.000000000000000000, 1.000000000000000000 ) ) ;
#645 = LINE ( 'NONE', #720, #80 ) ;
#646 = APPLICATION_CONTEXT ( 'configuration controlled 3d designs of mechanical parts and assemblies' ) ;
#647 = EDGE_CURVE ( 'NONE', #130, #736, #450, .T. ) ;
#648 = AXIS2_PLACEMENT_3D ( 'NONE', #848, #935, #375 ) ;
#649 = ORIENTED_EDGE ( 'NONE', *, *, #156, .T. ) ;
#650 = DIRECTION ( 'NONE',  ( 5.473822126268815905E-46, 1.972152263052529514E-31, -1.000000000000000000 ) ) ;
#651 = LINE ( 'NONE', #865, #564 ) ;
#652 = CARTESIAN_POINT ( 'NONE',  ( 0.000000000000000000, 0.000000000000000000, 0.000000000000000000 ) ) ;
#653 = ORIENTED_EDGE ( 'NONE', *, *, #834, .T. ) ;
#654 = EDGE_CURVE ( 'NONE', #738, #954, #927, .T. ) ;
#655 = CARTESIAN_POINT ( 'NONE',  ( -33.70000000000001705, 19.40000000000000924, -0.5000000000000004441 ) ) ;
#656 = FACE_BOUND ( 'NONE', #771, .T. ) ;
#657 = MECHANICAL_CONTEXT ( 'NONE', #646, 'mechanical' ) ;
#658 = ORIENTED_EDGE ( 'NONE', *, *, #714, .F. ) ;
#659 = CARTESIAN_POINT ( 'NONE',  ( 6.036580597458960082E-14, 21.89999999999993818, -1.999999999999997780 ) ) ;
#660 = EDGE_CURVE ( 'NONE', #772, #508, #222, .T. ) ;
#661 = CARTESIAN_POINT ( 'NONE',  ( -30.11051286457714582, 11.66721688939754564, -2.081400001665880684 ) ) ;
#662 = EDGE_CURVE ( 'NONE', #933, #164, #304, .T. ) ;
#663 = VERTEX_POINT ( 'NONE', #6 ) ;
#664 = DIRECTION ( 'NONE',  ( 0.000000000000000000, 0.000000000000000000, -1.000000000000000000 ) ) ;
#665 = CIRCLE ( 'NONE', #198, 1.600000000000004086 ) ;
#666 = EDGE_CURVE ( 'NONE', #208, #916, #534, .T. ) ;
#667 = CARTESIAN_POINT ( 'NONE',  ( -29.68398888142107950, 21.90000000000001990, -2.345617789726087477 ) ) ;
#668 = EDGE_CURVE ( 'NONE', #263, #526, #776, .T. ) ;
#669 = VERTEX_POINT ( 'NONE', #147 ) ;
#670 = FACE_BOUND ( 'NONE', #796, .T. ) ;
#671 = DIRECTION ( 'NONE',  ( 0.000000000000000000, -1.000000000000000000, 0.000000000000000000 ) ) ;
#672 = EDGE_CURVE ( 'NONE', #615, #591, #996, .T. ) ;
#673 = ORIENTED_EDGE ( 'NONE', *, *, #220, .T. ) ;
#674 = FACE_BOUND ( 'NONE', #106, .T. ) ;
#675 = CARTESIAN_POINT ( 'NONE',  ( -33.70000000000000995, 19.40000000000000924, -12.50000000000000000 ) ) ;
#676 = ORIENTED_EDGE ( 'NONE', *, *, #265, .T. ) ;
#677 = CARTESIAN_POINT ( 'NONE',  ( -32.10000000000000853, -17.89999999999995595, -12.50000000000000000 ) ) ;
#678 = CIRCLE ( 'NONE', #629, 0.5000000000000004441 ) ;
#679 = DIRECTION ( 'NONE',  ( -0.000000000000000000, -0.000000000000000000, 1.000000000000000000 ) ) ;
#680 = EDGE_LOOP ( 'NONE', ( #943, #36, #551, #631 ) ) ;
#681 = ORIENTED_EDGE ( 'NONE', *, *, #27, .T. ) ;
#682 = CARTESIAN_POINT ( 'NONE',  ( -30.10000000000001563, 11.90000000000000924, -10.00000000000000000 ) ) ;
#683 = EDGE_CURVE ( 'NONE', #186, #448, #699, .T. ) ;
#684 = CARTESIAN_POINT ( 'NONE',  ( -34.90000000000000568, 21.89999999999996660, -0.5000000000000000000 ) ) ;
#685 =( NAMED_UNIT ( * ) PLANE_ANGLE_UNIT ( ) SI_UNIT ( $, .RADIAN. ) );
#686 = ORIENTED_EDGE ( 'NONE', *, *, #606, .F. ) ;
#687 = DIRECTION ( 'NONE',  ( 0.000000000000000000, 0.000000000000000000, -1.000000000000000000 ) ) ;
#688 = DIRECTION ( 'NONE',  ( 0.000000000000000000, 1.000000000000000000, 0.000000000000000000 ) ) ;
#689 = EDGE_CURVE ( 'NONE', #130, #940, #309, .T. ) ;
#690 = ORIENTED_EDGE ( 'NONE', *, *, #754, .F. ) ;
#691 = ORIENTED_EDGE ( 'NONE', *, *, #829, .T. ) ;
#692 = DIRECTION ( 'NONE',  ( 5.473822126268815905E-46, 1.972152263052529514E-31, -1.000000000000000000 ) ) ;
#693 = CARTESIAN_POINT ( 'NONE',  ( -30.10000000000001563, -11.90000000000000924, -2.622988929570854388 ) ) ;
#694 = AXIS2_PLACEMENT_3D ( 'NONE', #867, #345, #805 ) ;
#695 = VECTOR ( 'NONE', #644, 1000.000000000000000 ) ;
#696 = ADVANCED_FACE ( 'NONE', ( #299 ), #142, .T. ) ;
#697 = CARTESIAN_POINT ( 'NONE',  ( -29.90000000000000568, -21.89999999999997016, -12.50000000000000000 ) ) ;
#698 = VERTEX_POINT ( 'NONE', #624 ) ;
#699 = LINE ( 'NONE', #767, #1001 ) ;
#700 = FACE_OUTER_BOUND ( 'NONE', #337, .T. ) ;
#701 = DIRECTION ( 'NONE',  ( 1.000000000000000000, 0.000000000000000000, 0.000000000000000000 ) ) ;
#702 = DIRECTION ( 'NONE',  ( 1.000000000000000000, -0.000000000000000000, -0.000000000000000000 ) ) ;
#703 = APPROVAL_PERSON_ORGANIZATION ( #795, #341, #105 ) ;
#704 = CARTESIAN_POINT ( 'NONE',  ( -30.10000000000001563, -11.90000000000000924, -2.068246649881329002 ) ) ;
#705 = CARTESIAN_POINT ( 'NONE',  ( -34.10000000000002274, -11.90000000000000924, 0.000000000000000000 ) ) ;
#706 = VERTEX_POINT ( 'NONE', #620 ) ;
#707 = CARTESIAN_POINT ( 'NONE',  ( -30.10000000000000853, -11.78353440987594070, -2.622988929570843286 ) ) ;
#708 = PLANE ( 'NONE',  #320 ) ;
#709 = PERSON_AND_ORGANIZATION_ROLE ( 'design_owner' ) ;
#710 = VECTOR ( 'NONE', #568, 1000.000000000000000 ) ;
#711 = ORIENTED_EDGE ( 'NONE', *, *, #587, .F. ) ;
#712 = CARTESIAN_POINT ( 'NONE',  ( -32.10000000000000853, 19.40000000000000924, 0.000000000000000000 ) ) ;
#713 = CARTESIAN_POINT ( 'NONE',  ( 0.000000000000000000, 0.000000000000000000, -12.50000000000000000 ) ) ;
#714 = EDGE_CURVE ( 'NONE', #591, #734, #482, .T. ) ;
#715 = EDGE_LOOP ( 'NONE', ( #603, #293 ) ) ;
#716 = APPROVAL_DATE_TIME ( #490, #234 ) ;
#717 = EDGE_LOOP ( 'NONE', ( #126, #690 ) ) ;
#718 = CARTESIAN_POINT ( 'NONE',  ( -32.10000000000001563, -11.90000000000000924, -12.50000000000000000 ) ) ;
#719 = DIRECTION ( 'NONE',  ( -0.000000000000000000, 0.000000000000000000, -1.000000000000000000 ) ) ;
#720 = CARTESIAN_POINT ( 'NONE',  ( -29.10000000000001208, -21.89999999999995595, -0.5000000000000000000 ) ) ;
#721 = VECTOR ( 'NONE', #782, 1000.000000000000000 ) ;
#722 = APPROVAL_DATE_TIME ( #407, #341 ) ;
#723 = ORIENTED_EDGE ( 'NONE', *, *, #83, .F. ) ;
#724 = DIRECTION ( 'NONE',  ( 1.000000000000000000, 0.000000000000000000, 0.000000000000000000 ) ) ;
#725 = CARTESIAN_POINT ( 'NONE',  ( -30.17282584697285230, 12.43501188112053768, -2.453749198959688904 ) ) ;
#726 = B_SPLINE_CURVE_WITH_KNOTS ( 'NONE', 3,
 ( #693, #626, #160, #305, #855, #1006, #997, #87, #69, #314, #777, #394, #839, #704 ),
 .UNSPECIFIED., .F., .F.,
 ( 4, 2, 2, 2, 2, 2, 4 ),
 ( 1.734723475976807094E-18, 0.0003450508970059799766, 0.0005175763455089690433, 0.0006901017940119582184, 0.0008626272425149471767, 0.001035152691017936352, 0.001380203588023916437 ),
 .UNSPECIFIED. ) ;
#727 = CARTESIAN_POINT ( 'NONE',  ( -30.17302531879923322, 11.36255404035810912, -2.234714805804851157 ) ) ;
#728 = VECTOR ( 'NONE', #357, 1000.000000000000000 ) ;
#729 = ADVANCED_FACE ( 'NONE', ( #67 ), #159, .F. ) ;
#730 = ORIENTED_EDGE ( 'NONE', *, *, #672, .F. ) ;
#731 = CARTESIAN_POINT ( 'NONE',  ( -24.89999999999988489, 21.90000000000000568, -2.000000000000000000 ) ) ;
#732 = CARTESIAN_POINT ( 'NONE',  ( -30.10000000000001208, 11.78333076990604589, -2.622988929570746031 ) ) ;
#733 = COORDINATED_UNIVERSAL_TIME_OFFSET ( 8, 0, .AHEAD. ) ;
#734 = VERTEX_POINT ( 'NONE', #241 ) ;
#735 = CARTESIAN_POINT ( 'NONE',  ( -30.10000000000003695, 12.01660192214257528, -2.068246649875576271 ) ) ;
#736 = VERTEX_POINT ( 'NONE', #923 ) ;
#737 = SECURITY_CLASSIFICATION ( '', '', #788 ) ;
#738 = VERTEX_POINT ( 'NONE', #232 ) ;
#739 = FACE_OUTER_BOUND ( 'NONE', #642, .T. ) ;
#740 = CARTESIAN_POINT ( 'NONE',  ( -30.10000000000001563, -11.90000000000000924, -10.00000000000000000 ) ) ;
#741 = ORIENTED_EDGE ( 'NONE', *, *, #250, .T. ) ;
#742 = VECTOR ( 'NONE', #386, 1000.000000000000000 ) ;
#743 = LINE ( 'NONE', #588, #593 ) ;
#744 = AXIS2_PLACEMENT_3D ( 'NONE', #96, #719, #37 ) ;
#745 = LINE ( 'NONE', #684, #398 ) ;
#746 = ADVANCED_FACE ( 'NONE', ( #73 ), #538, .F. ) ;
#747 = ORIENTED_EDGE ( 'NONE', *, *, #532, .F. ) ;
#748 = CARTESIAN_POINT ( 'NONE',  ( -29.10000000000001208, 19.40000000000000924, -0.5000000000000000000 ) ) ;
#749 = DIRECTION ( 'NONE',  ( -2.775557561562890562E-15, -1.000000000000000000, 0.000000000000000000 ) ) ;
#750 = VERTEX_POINT ( 'NONE', #79 ) ;
#751 = DIRECTION ( 'NONE',  ( -0.000000000000000000, -0.000000000000000000, 1.000000000000000000 ) ) ;
#752 = DIRECTION ( 'NONE',  ( 1.000000000000000000, -0.000000000000000000, -0.000000000000000000 ) ) ;
#753 = ORIENTED_EDGE ( 'NONE', *, *, #998, .F. ) ;
#754 = EDGE_CURVE ( 'NONE', #976, #830, #837, .T. ) ;
#755 = ORIENTED_EDGE ( 'NONE', *, *, #156, .F. ) ;
#756 = DIRECTION ( 'NONE',  ( -1.000000000000000000, 0.000000000000000000, 0.000000000000000000 ) ) ;
#757 = AXIS2_PLACEMENT_3D ( 'NONE', #300, #610, #166 ) ;
#758 = DIRECTION ( 'NONE',  ( -1.000000000000000000, 0.000000000000000000, 0.000000000000000000 ) ) ;
#759 = AXIS2_PLACEMENT_3D ( 'NONE', #385, #930, #756 ) ;
#760 = ORIENTED_EDGE ( 'NONE', *, *, #619, .T. ) ;
#761 = DIRECTION ( 'NONE',  ( -1.000000000000000000, 0.000000000000000000, 0.000000000000000000 ) ) ;
#762 = CARTESIAN_POINT ( 'NONE',  ( -32.10000000000000853, 19.40000000000000924, -12.50000000000000000 ) ) ;
#763 = DIRECTION ( 'NONE',  ( -0.000000000000000000, -0.000000000000000000, 1.000000000000000000 ) ) ;
#764 = ORIENTED_EDGE ( 'NONE', *, *, #647, .T. ) ;
#765 = ORIENTED_EDGE ( 'NONE', *, *, #793, .T. ) ;
#766 = CC_DESIGN_SECURITY_CLASSIFICATION ( #737, ( #374 ) ) ;
#767 = CARTESIAN_POINT ( 'NONE',  ( -33.70000000000001705, 19.40000000000000924, -10.00000000000000000 ) ) ;
#768 = CARTESIAN_POINT ( 'NONE',  ( -30.50000000000001421, -17.89999999999995595, -12.50000000000000000 ) ) ;
#769 = EDGE_CURVE ( 'NONE', #153, #976, #237, .T. ) ;
#770 = DIRECTION ( 'NONE',  ( -0.000000000000000000, -0.000000000000000000, 1.000000000000000000 ) ) ;
#771 = EDGE_LOOP ( 'NONE', ( #497, #583 ) ) ;
#772 = VERTEX_POINT ( 'NONE', #165 ) ;
#773 = CARTESIAN_POINT ( 'NONE',  ( -24.90000000000000568, -21.89999999999998437, -10.00000000000000000 ) ) ;
#774 = LINE ( 'NONE', #82, #742 ) ;
#775 = VECTOR ( 'NONE', #512, 1000.000000000000000 ) ;
#776 = LINE ( 'NONE', #294, #351 ) ;
#777 = CARTESIAN_POINT ( 'NONE',  ( -30.13888393730007564, -12.29634019259852273, -2.137041844155640025 ) ) ;
#778 = VERTEX_POINT ( 'NONE', #849 ) ;
#779 = CARTESIAN_POINT ( 'NONE',  ( -30.18401397007935572, -11.32641692761689889, -2.374472210084188184 ) ) ;
#780 = CC_DESIGN_APPROVAL ( #341, ( #737 ) ) ;
#781 = CARTESIAN_POINT ( 'NONE',  ( -32.10000000000000853, -17.89999999999995595, -0.5000000000000000000 ) ) ;
#782 = DIRECTION ( 'NONE',  ( -1.000000000000000000, 2.775557561562890957E-15, 0.000000000000000000 ) ) ;
#783 = EDGE_CURVE ( 'NONE', #738, #526, #468, .T. ) ;
#784 = EDGE_LOOP ( 'NONE', ( #760, #948, #711, #813 ) ) ;
#785 = DIRECTION ( 'NONE',  ( -1.000000000000000000, 0.000000000000000000, 0.000000000000000000 ) ) ;
#786 = DIRECTION ( 'NONE',  ( -2.775557561562890562E-15, -1.000000000000000000, -0.000000000000000000 ) ) ;
#787 = EDGE_LOOP ( 'NONE', ( #283, #100, #476, #835, #658, #372, #1008, #225, #875, #252 ) ) ;
#788 = SECURITY_CLASSIFICATION_LEVEL ( 'unclassified' ) ;
#789 = CIRCLE ( 'NONE', #355, 1.599999999999997202 ) ;
#790 = EDGE_LOOP ( 'NONE', ( #454, #753, #392, #831 ) ) ;
#791 = FACE_OUTER_BOUND ( 'NONE', #467, .T. ) ;
#792 = DIRECTION ( 'NONE',  ( 0.000000000000000000, 0.000000000000000000, -1.000000000000000000 ) ) ;
#793 = EDGE_CURVE ( 'NONE', #153, #221, #81, .T. ) ;
#794 = LINE ( 'NONE', #828, #595 ) ;
#795 = PERSON_AND_ORGANIZATION ( #350, #322 ) ;
#796 = EDGE_LOOP ( 'NONE', ( #118, #120 ) ) ;
#797 = FACE_OUTER_BOUND ( 'NONE', #325, .T. ) ;
#798 = CARTESIAN_POINT ( 'NONE',  ( -30.17272334949129586, 12.43464010391172359, -2.237115997976503845 ) ) ;
#799 = LOCAL_TIME ( 11, 32, 54.00000000000000000, #21 ) ;
#800 = ORIENTED_EDGE ( 'NONE', *, *, #363, .F. ) ;
#801 = EDGE_CURVE ( 'NONE', #409, #501, #504, .T. ) ;
#802 = VERTEX_POINT ( 'NONE', #552 ) ;
#803 = LINE ( 'NONE', #857, #189 ) ;
#804 = CARTESIAN_POINT ( 'NONE',  ( -30.13883085068513878, 12.29603062428266647, -2.554297097922913373 ) ) ;
#805 = DIRECTION ( 'NONE',  ( 1.000000000000000000, -2.775557561562890957E-15, 0.000000000000000000 ) ) ;
#806 = DIRECTION ( 'NONE',  ( 1.000000000000000000, 0.000000000000000000, 0.000000000000000000 ) ) ;
#807 = AXIS2_PLACEMENT_3D ( 'NONE', #369, #609, #548 ) ;
#808 = VECTOR ( 'NONE', #751, 1000.000000000000000 ) ;
#809 = AXIS2_PLACEMENT_3D ( 'NONE', #911, #361, #521 ) ;
#810 = ORIENTED_EDGE ( 'NONE', *, *, #660, .F. ) ;
#811 = FACE_BOUND ( 'NONE', #820, .T. ) ;
#812 = ORIENTED_EDGE ( 'NONE', *, *, #148, .F. ) ;
#813 = ORIENTED_EDGE ( 'NONE', *, *, #363, .T. ) ;
#814 = DIRECTION ( 'NONE',  ( 1.000000000000000000, -0.000000000000000000, 0.000000000000000000 ) ) ;
#815 = DIRECTION ( 'NONE',  ( -1.000000000000000000, 2.775557561562890562E-15, 0.000000000000000000 ) ) ;
#816 = EDGE_LOOP ( 'NONE', ( #236, #988, #5, #522 ) ) ;
#817 = EDGE_CURVE ( 'NONE', #164, #698, #13, .T. ) ;
#818 = CARTESIAN_POINT ( 'NONE',  ( -30.50000000000001066, 19.40000000000000924, -0.5000000000000004441 ) ) ;
#819 = CARTESIAN_POINT ( 'NONE',  ( -33.70000000000000995, -17.89999999999995595, -12.50000000000000000 ) ) ;
#820 = EDGE_LOOP ( 'NONE', ( #438, #318 ) ) ;
#821 = CIRCLE ( 'NONE', #366, 0.5000000000000004441 ) ;
#822 = CARTESIAN_POINT ( 'NONE',  ( -29.89999999999988489, 21.90000000000001990, -12.50000000000000000 ) ) ;
#823 = AXIS2_PLACEMENT_3D ( 'NONE', #254, #102, #422 ) ;
#824 = EDGE_CURVE ( 'NONE', #443, #461, #643, .T. ) ;
#825 = DIRECTION ( 'NONE',  ( 0.000000000000000000, 0.000000000000000000, 1.000000000000000000 ) ) ;
#826 = ORIENTED_EDGE ( 'NONE', *, *, #956, .T. ) ;
#827 = DIRECTION ( 'NONE',  ( 1.000000000000000000, 0.000000000000000000, 0.000000000000000000 ) ) ;
#828 = CARTESIAN_POINT ( 'NONE',  ( -30.10000000000001563, 11.90000000000000924, -10.00000000000000000 ) ) ;
#829 = EDGE_CURVE ( 'NONE', #356, #349, #326, .T. ) ;
#830 = VERTEX_POINT ( 'NONE', #338 ) ;
#831 = ORIENTED_EDGE ( 'NONE', *, *, #672, .T. ) ;
#832 = CARTESIAN_POINT ( 'NONE',  ( -29.10000000000001208, -17.89999999999995595, -0.5000000000000000000 ) ) ;
#833 = CARTESIAN_POINT ( 'NONE',  ( -34.90000000000000568, -21.89999999999995595, -10.00000000000000000 ) ) ;
#834 = EDGE_CURVE ( 'NONE', #750, #962, #382, .T. ) ;
#835 = ORIENTED_EDGE ( 'NONE', *, *, #640, .F. ) ;
#836 = AXIS2_PLACEMENT_3D ( 'NONE', #373, #154, #687 ) ;
#837 = CIRCLE ( 'NONE', #759, 1.600000000000004086 ) ;
#838 = DIRECTION ( 'NONE',  ( -0.000000000000000000, -0.000000000000000000, 1.000000000000000000 ) ) ;
#839 = CARTESIAN_POINT ( 'NONE',  ( -30.09999999999995168, -12.01680580048741298, -2.068246649875340459 ) ) ;
#840 = LINE ( 'NONE', #387, #555 ) ;
#841 = ORIENTED_EDGE ( 'NONE', *, *, #470, .T. ) ;
#842 = EDGE_CURVE ( 'NONE', #383, #292, #492, .T. ) ;
#843 = CARTESIAN_POINT ( 'NONE',  ( -29.10000000000001208, -17.89999999999995595, -0.5000000000000000000 ) ) ;
#844 = CARTESIAN_POINT ( 'NONE',  ( -29.90000000000000568, -21.89999999999997016, -12.50000000000000000 ) ) ;
#845 = ORIENTED_EDGE ( 'NONE', *, *, #662, .T. ) ;
#846 = DIRECTION ( 'NONE',  ( -1.000000000000000000, 6.195440985631462220E-16, 0.000000000000000000 ) ) ;
#847 = ADVANCED_FACE ( 'NONE', ( #797 ), #107, .F. ) ;
#848 = CARTESIAN_POINT ( 'NONE',  ( -32.10000000000000853, 19.40000000000000924, -0.5000000000000004441 ) ) ;
#849 = CARTESIAN_POINT ( 'NONE',  ( -30.50000000000001421, 19.40000000000000924, -12.50000000000000000 ) ) ;
#850 = DIRECTION ( 'NONE',  ( 0.000000000000000000, 0.000000000000000000, 1.000000000000000000 ) ) ;
#851 = AXIS2_PLACEMENT_3D ( 'NONE', #652, #560, #960 ) ;
#852 = LINE ( 'NONE', #230, #546 ) ;
#853 = ORIENTED_EDGE ( 'NONE', *, *, #103, .T. ) ;
#854 = DIRECTION ( 'NONE',  ( 0.000000000000000000, 0.000000000000000000, 1.000000000000000000 ) ) ;
#855 = CARTESIAN_POINT ( 'NONE',  ( -30.15009855958252061, -12.34722235023097170, -2.530545282793190687 ) ) ;
#856 = EDGE_CURVE ( 'NONE', #186, #778, #964, .T. ) ;
#857 = CARTESIAN_POINT ( 'NONE',  ( -34.90000000000000568, -21.89999999999995595, -0.5000000000000000000 ) ) ;
#858 = ORIENTED_EDGE ( 'NONE', *, *, #654, .F. ) ;
#859 = CARTESIAN_POINT ( 'NONE',  ( -32.10000000000000853, 19.40000000000000924, -12.50000000000000000 ) ) ;
#860 = DIRECTION ( 'NONE',  ( -1.000000000000000000, 0.000000000000000000, 0.000000000000000000 ) ) ;
#861 = EDGE_LOOP ( 'NONE', ( #907, #255, #673, #920 ) ) ;
#862 = DATE_AND_TIME ( #99, #143 ) ;
#863 = VERTEX_POINT ( 'NONE', #485 ) ;
#864 = CARTESIAN_POINT ( 'NONE',  ( -30.15028512115953063, -11.45199578162413090, -2.161183668256188461 ) ) ;
#865 = CARTESIAN_POINT ( 'NONE',  ( -32.10000000000000853, 16.40000000000001279, -0.5000000000000000000 ) ) ;
#866 = AXIS2_PLACEMENT_3D ( 'NONE', #462, #761, #1003 ) ;
#867 = CARTESIAN_POINT ( 'NONE',  ( -24.90000000000000568, -21.89999999999998437, -10.00000000000000000 ) ) ;
#868 = CIRCLE ( 'NONE', #823, 2.000000000000001776 ) ;
#869 = CALENDAR_DATE ( 2026, 5, 6 ) ;
#870 = AXIS2_PLACEMENT_3D ( 'NONE', #259, #488, #947 ) ;
#871 = VERTEX_POINT ( 'NONE', #95 ) ;
#872 = CARTESIAN_POINT ( 'NONE',  ( 6.036580597458960082E-14, 21.89999999999993818, -1.999999999999997780 ) ) ;
#873 = ADVANCED_FACE ( 'NONE', ( #791 ), #30, .T. ) ;
#874 = CARTESIAN_POINT ( 'NONE',  ( -30.13869573066850549, 12.29540882695652115, -2.136640202818353540 ) ) ;
#875 = ORIENTED_EDGE ( 'NONE', *, *, #842, .T. ) ;
#876 = DATE_AND_TIME ( #181, #880 ) ;
#877 = PRODUCT_DEFINITION ( 'UNKNOWN', '', #374, #901 ) ;
#878 = ORIENTED_EDGE ( 'NONE', *, *, #139, .T. ) ;
#879 = CARTESIAN_POINT ( 'NONE',  ( -30.13869573066853746, -11.50459117304334278, -2.136640202818276268 ) ) ;
#880 = LOCAL_TIME ( 11, 32, 54.00000000000000000, #329 ) ;
#881 = CARTESIAN_POINT ( 'NONE',  ( -30.18130713854098346, 12.46467303142810579, -2.403311218190192111 ) ) ;
#882 = ORIENTED_EDGE ( 'NONE', *, *, #970, .F. ) ;
#883 = APPLICATION_PROTOCOL_DEFINITION ( 'international standard', 'config_control_design', 1994, #415 ) ;
#884 = CC_DESIGN_PERSON_AND_ORGANIZATION_ASSIGNMENT ( #966, #709, ( #989 ) ) ;
#885 = ORIENTED_EDGE ( 'NONE', *, *, #587, .T. ) ;
#886 = DIRECTION ( 'NONE',  ( 0.000000000000000000, 0.000000000000000000, 1.000000000000000000 ) ) ;
#887 = EDGE_CURVE ( 'NONE', #916, #168, #803, .T. ) ;
#888 = ORIENTED_EDGE ( 'NONE', *, *, #75, .F. ) ;
#889 = APPROVAL_ROLE ( '' ) ;
#890 = VECTOR ( 'NONE', #313, 1000.000000000000000 ) ;
#891 = CIRCLE ( 'NONE', #545, 2.000000000000001776 ) ;
#892 = VERTEX_POINT ( 'NONE', #705 ) ;
#893 = AXIS2_PLACEMENT_3D ( 'NONE', #536, #251, #806 ) ;
#894 = CC_DESIGN_DATE_AND_TIME_ASSIGNMENT ( #944, #200, ( #877 ) ) ;
#895 = DIRECTION ( 'NONE',  ( 1.000000000000000000, 0.000000000000000000, 8.673617379884033007E-17 ) ) ;
#896 = CARTESIAN_POINT ( 'NONE',  ( -32.10000000000000853, 16.40000000000001279, -0.5000000000000000000 ) ) ;
#897 = ADVANCED_FACE ( 'NONE', ( #145 ), #224, .F. ) ;
#898 = ORIENTED_EDGE ( 'NONE', *, *, #52, .F. ) ;
#899 = LINE ( 'NONE', #284, #808 ) ;
#900 = CARTESIAN_POINT ( 'NONE',  ( -34.90000000000000568, 21.89999999999996660, 0.000000000000000000 ) ) ;
#901 = DESIGN_CONTEXT ( 'detailed design', #415, 'design' ) ;
#902 = EDGE_CURVE ( 'NONE', #916, #706, #993, .T. ) ;
#903 = ORIENTED_EDGE ( 'NONE', *, *, #391, .T. ) ;
#904 = CARTESIAN_POINT ( 'NONE',  ( -30.10000000000001563, -11.90000000000000924, -12.50000000000000000 ) ) ;
#905 = LINE ( 'NONE', #833, #260 ) ;
#906 = B_SPLINE_CURVE_WITH_KNOTS ( 'NONE', 3,
 ( #419, #732, #109, #43, #500, #333, #348, #413, #727, #38, #191, #661, #26, #969 ),
 .UNSPECIFIED., .F., .F.,
 ( 4, 2, 2, 2, 2, 2, 4 ),
 ( 3.496446946337351263E-18, 0.0003450508970058477581, 0.0005175763455087700922, 0.0006901017940116925889, 0.0008626272425146148688, 0.001035152691017537149, 0.001380203588023384094 ),
 .UNSPECIFIED. ) ;
#907 = ORIENTED_EDGE ( 'NONE', *, *, #209, .F. ) ;
#908 = CIRCLE ( 'NONE', #757, 2.000000000000001776 ) ;
#909 = PLANE ( 'NONE',  #936 ) ;
#910 = EDGE_CURVE ( 'NONE', #423, #292, #311, .T. ) ;
#911 = CARTESIAN_POINT ( 'NONE',  ( -32.10000000000001563, -11.90000000000000924, 0.000000000000000000 ) ) ;
#912 = ORIENTED_EDGE ( 'NONE', *, *, #139, .F. ) ;
#913 = DIRECTION ( 'NONE',  ( -1.000000000000000000, 0.000000000000000000, 0.000000000000000000 ) ) ;
#914 = LINE ( 'NONE', #740, #447 ) ;
#915 = EDGE_CURVE ( 'NONE', #221, #830, #840, .T. ) ;
#916 = VERTEX_POINT ( 'NONE', #88 ) ;
#917 = CARTESIAN_POINT ( 'NONE',  ( -32.10000000000000853, -14.89999999999995595, -0.5000000000000000000 ) ) ;
#918 = CARTESIAN_POINT ( 'NONE',  ( -34.90000000000000568, -21.89999999999995595, -12.50000000000000000 ) ) ;
#919 = DIRECTION ( 'NONE',  ( -0.000000000000000000, -0.000000000000000000, 1.000000000000000000 ) ) ;
#920 = ORIENTED_EDGE ( 'NONE', *, *, #470, .F. ) ;
#921 = VECTOR ( 'NONE', #527, 1000.000000000000000 ) ;
#922 = CIRCLE ( 'NONE', #78, 1.599999999999997202 ) ;
#923 = CARTESIAN_POINT ( 'NONE',  ( -29.32267413853786309, -21.89999999999997016, -2.000000000000000444 ) ) ;
#924 = CARTESIAN_POINT ( 'NONE',  ( -32.10000000000001563, -11.90000000000000924, -12.50000000000000000 ) ) ;
#925 = ORIENTED_EDGE ( 'NONE', *, *, #666, .T. ) ;
#926 = B_SPLINE_CURVE_WITH_KNOTS ( 'NONE', 3,
 ( #565, #735, #190, #874, #942, #185, #798, #493, #327, #108, #881, #725, #638, #499, #804, #417, #321, #248 ),
 .UNSPECIFIED., .F., .F.,
 ( 4, 2, 2, 2, 2, 2, 2, 2, 4 ),
 ( 0.001380203588023384094, 0.001724652216939878517, 0.001896876531398125187, 0.001982988688627247004, 0.002069100845856368387, 0.002155213003085490638, 0.002241325160314612021, 0.002413549474772859992, 0.002757998103689362872 ),
 .UNSPECIFIED. ) ;
#927 = LINE ( 'NONE', #455, #47 ) ;
#928 = LINE ( 'NONE', #233, #178 ) ;
#929 = DIRECTION ( 'NONE',  ( 1.000000000000000000, 0.000000000000000000, 0.000000000000000000 ) ) ;
#930 = DIRECTION ( 'NONE',  ( 0.000000000000000000, 0.000000000000000000, 1.000000000000000000 ) ) ;
#931 = DIRECTION ( 'NONE',  ( 1.000000000000000000, 1.584222352490235040E-16, -0.000000000000000000 ) ) ;
#932 = CARTESIAN_POINT ( 'NONE',  ( -24.89999999999988489, 21.90000000000000568, -2.000000000000000000 ) ) ;
#933 = VERTEX_POINT ( 'NONE', #239 ) ;
#934 = DIRECTION ( 'NONE',  ( -0.000000000000000000, -0.000000000000000000, 1.000000000000000000 ) ) ;
#935 = DIRECTION ( 'NONE',  ( 0.000000000000000000, 0.000000000000000000, 1.000000000000000000 ) ) ;
#936 = AXIS2_PLACEMENT_3D ( 'NONE', #594, #977, #913 ) ;
#937 = ADVANCED_FACE ( 'NONE', ( #163 ), #471, .F. ) ;
#938 = CIRCLE ( 'NONE', #580, 2.000000000000001776 ) ;
#939 = VECTOR ( 'NONE', #763, 1000.000000000000000 ) ;
#940 = VERTEX_POINT ( 'NONE', #475 ) ;
#941 = CARTESIAN_POINT ( 'NONE',  ( -30.11039916273418271, -11.66818365527081625, -2.081242915126259696 ) ) ;
#942 = CARTESIAN_POINT ( 'NONE',  ( -30.15028512115948445, 12.34800421837571349, -2.161183668256257739 ) ) ;
#943 = ORIENTED_EDGE ( 'NONE', *, *, #640, .T. ) ;
#944 = DATE_AND_TIME ( #869, #799 ) ;
#945 = ORIENTED_EDGE ( 'NONE', *, *, #391, .F. ) ;
#946 = DIRECTION ( 'NONE',  ( -1.000000000000000000, -4.163336342344339393E-15, -0.000000000000000000 ) ) ;
#947 = DIRECTION ( 'NONE',  ( 1.000000000000000000, 0.000000000000000000, 0.000000000000000000 ) ) ;
#948 = ORIENTED_EDGE ( 'NONE', *, *, #910, .F. ) ;
#949 = APPROVAL_STATUS ( 'not_yet_approved' ) ;
#950 = EDGE_CURVE ( 'NONE', #615, #208, #458, .T. ) ;
#951 = ORIENTED_EDGE ( 'NONE', *, *, #683, .T. ) ;
#952 = CARTESIAN_POINT ( 'NONE',  ( -34.90000000000000568, 21.89999999999996660, 0.000000000000000000 ) ) ;
#953 = PLANE ( 'NONE',  #261 ) ;
#954 = VERTEX_POINT ( 'NONE', #381 ) ;
#955 = AXIS2_PLACEMENT_3D ( 'NONE', #457, #542, #469 ) ;
#956 = EDGE_CURVE ( 'NONE', #349, #193, #235, .T. ) ;
#957 = ORIENTED_EDGE ( 'NONE', *, *, #829, .F. ) ;
#958 = CARTESIAN_POINT ( 'NONE',  ( -30.17272334949134205, -11.36535989608809061, -2.237115997976460768 ) ) ;
#959 = FACE_OUTER_BOUND ( 'NONE', #231, .T. ) ;
#960 = DIRECTION ( 'NONE',  ( -1.000000000000000000, 0.000000000000000000, 0.000000000000000000 ) ) ;
#961 = SHAPE_DEFINITION_REPRESENTATION ( #291, #445 ) ;
#962 = VERTEX_POINT ( 'NONE', #999 ) ;
#963 = FACE_OUTER_BOUND ( 'NONE', #577, .T. ) ;
#964 = CIRCLE ( 'NONE', #56, 1.599999999999997202 ) ;
#965 = DIRECTION ( 'NONE',  ( 0.000000000000000000, 0.000000000000000000, 1.000000000000000000 ) ) ;
#966 = PERSON_AND_ORGANIZATION ( #350, #322 ) ;
#967 = ORIENTED_EDGE ( 'NONE', *, *, #380, .T. ) ;
#968 = DIRECTION ( 'NONE',  ( 1.000000000000000000, 0.000000000000000000, 0.000000000000000000 ) ) ;
#969 = CARTESIAN_POINT ( 'NONE',  ( -30.10000000000001563, 11.90000000000000924, -2.068246649881428034 ) ) ;
#970 = EDGE_CURVE ( 'NONE', #802, #863, #3, .T. ) ;
#971 = AXIS2_PLACEMENT_3D ( 'NONE', #579, #352, #827 ) ;
#972 = AXIS2_PLACEMENT_3D ( 'NONE', #270, #965, #197 ) ;
#973 = EDGE_LOOP ( 'NONE', ( #681, #730, #912, #597 ) ) ;
#974 = PLANE ( 'NONE',  #483 ) ;
#975 = FACE_OUTER_BOUND ( 'NONE', #217, .T. ) ;
#976 = VERTEX_POINT ( 'NONE', #371 ) ;
#977 = DIRECTION ( 'NONE',  ( -0.000000000000000000, 0.000000000000000000, -1.000000000000000000 ) ) ;
#978 = CARTESIAN_POINT ( 'NONE',  ( -24.90000000000000568, -21.89999999999998437, -2.000000000000000000 ) ) ;
#979 = ORIENTED_EDGE ( 'NONE', *, *, #426, .T. ) ;
#980 = EDGE_CURVE ( 'NONE', #736, #461, #1007, .T. ) ;
#981 = CARTESIAN_POINT ( 'NONE',  ( -30.10000000000001563, -11.90000000000000924, -10.00000000000000000 ) ) ;
#982 = CARTESIAN_POINT ( 'NONE',  ( -30.10000000000001563, -11.90000000000000924, 0.000000000000000000 ) ) ;
#983 = CC_DESIGN_PERSON_AND_ORGANIZATION_ASSIGNMENT ( #556, #172, ( #374 ) ) ;
#984 = ORIENTED_EDGE ( 'NONE', *, *, #950, .T. ) ;
#985 = EDGE_CURVE ( 'NONE', #443, #130, #550, .T. ) ;
#986 = DIRECTION ( 'NONE',  ( 0.000000000000000000, 1.000000000000000000, 0.000000000000000000 ) ) ;
#987 = DIRECTION ( 'NONE',  ( 1.000000000000000000, 0.000000000000000000, 0.000000000000000000 ) ) ;
#988 = ORIENTED_EDGE ( 'NONE', *, *, #289, .T. ) ;
#989 = PRODUCT ( 'upperholder_lid_right', 'upperholder_lid_right', '', ( #657 ) ) ;
#990 = ORIENTED_EDGE ( 'NONE', *, *, #783, .F. ) ;
#991 = DIRECTION ( 'NONE',  ( -0.000000000000000000, -0.000000000000000000, 1.000000000000000000 ) ) ;
#992 = DIRECTION ( 'NONE',  ( -0.000000000000000000, -0.000000000000000000, 1.000000000000000000 ) ) ;
#993 = LINE ( 'NONE', #530, #133 ) ;
#994 = LOCAL_TIME ( 11, 32, 54.00000000000000000, #733 ) ;
#995 = ORIENTED_EDGE ( 'NONE', *, *, #754, .T. ) ;
#996 = LINE ( 'NONE', #843, #921 ) ;
#997 = CARTESIAN_POINT ( 'NONE',  ( -30.18386413943813906, -12.47308249825609394, -2.405751586902212580 ) ) ;
#998 = EDGE_CURVE ( 'NONE', #208, #734, #852, .T. ) ;
#999 = CARTESIAN_POINT ( 'NONE',  ( -30.10000000000001563, -11.90000000000000924, -2.622988929570854388 ) ) ;
#1000 = ORIENTED_EDGE ( 'NONE', *, *, #289, .F. ) ;
#1001 = VECTOR ( 'NONE', #838, 1000.000000000000000 ) ;
#1002 = ORIENTED_EDGE ( 'NONE', *, *, #57, .F. ) ;
#1003 = DIRECTION ( 'NONE',  ( 0.000000000000000000, 0.000000000000000000, 1.000000000000000000 ) ) ;
#1004 = VECTOR ( 'NONE', #64, 1000.000000000000000 ) ;
#1005 = CIRCLE ( 'NONE', #613, 1.600000000000004086 ) ;
#1006 = CARTESIAN_POINT ( 'NONE',  ( -30.17276524328463694, -12.43655349257702447, -2.457662771100814769 ) ) ;
#1007 = LINE ( 'NONE', #540, #245 ) ;
#1008 = ORIENTED_EDGE ( 'NONE', *, *, #205, .T. ) ;
ENDSEC;
END-ISO-10303-21;
