ISO-10303-21;
HEADER;
FILE_DESCRIPTION (( 'STEP AP203' ),
    '1' );
FILE_NAME ('upperholder_lid.step',
    '2026-06-05T03:32:57',
    ( '' ),
    ( '' ),
    'SwSTEP 2.0',
    'SolidWorks 2024',
    '' );
FILE_SCHEMA (( 'CONFIG_CONTROL_DESIGN' ));
ENDSEC;

DATA;
#1 = CARTESIAN_POINT ( 'NONE',  ( -34.90000000000000568, -16.40000000000001990, -0.5000000000000000000 ) ) ;
#2 = DIRECTION ( 'NONE',  ( 5.473822126268815905E-46, 1.972152263052529514E-31, -1.000000000000000000 ) ) ;
#3 = CARTESIAN_POINT ( 'NONE',  ( -24.89999999999988489, 21.90000000000000568, -2.000000000000000444 ) ) ;
#4 = EDGE_CURVE ( 'NONE', #422, #489, #624, .T. ) ;
#5 = ORIENTED_EDGE ( 'NONE', *, *, #55, .F. ) ;
#6 = LINE ( 'NONE', #397, #488 ) ;
#7 = DIRECTION ( 'NONE',  ( -0.000000000000000000, 1.000000000000000000, -0.000000000000000000 ) ) ;
#8 = ORIENTED_EDGE ( 'NONE', *, *, #655, .F. ) ;
#9 = DIRECTION ( 'NONE',  ( -1.000000000000000000, 0.000000000000000000, 0.000000000000000000 ) ) ;
#10 = CARTESIAN_POINT ( 'NONE',  ( -33.70000000000000995, 19.40000000000000924, -12.50000000000000000 ) ) ;
#11 = AXIS2_PLACEMENT_3D ( 'NONE', #245, #323, #384 ) ;
#12 = APPROVAL_PERSON_ORGANIZATION ( #798, #148, #251 ) ;
#13 = AXIS2_PLACEMENT_3D ( 'NONE', #475, #403, #158 ) ;
#14 = CC_DESIGN_DATE_AND_TIME_ASSIGNMENT ( #745, #727, ( #263 ) ) ;
#15 = ORIENTED_EDGE ( 'NONE', *, *, #693, .T. ) ;
#16 = CARTESIAN_POINT ( 'NONE',  ( -33.70000000000000995, -19.40000000000001634, -12.50000000000000000 ) ) ;
#17 = FACE_OUTER_BOUND ( 'NONE', #48, .T. ) ;
#18 = EDGE_LOOP ( 'NONE', ( #852, #765, #639, #740 ) ) ;
#19 = EDGE_CURVE ( 'NONE', #439, #644, #731, .T. ) ;
#20 = APPROVAL_STATUS ( 'not_yet_approved' ) ;
#21 = ORIENTED_EDGE ( 'NONE', *, *, #220, .T. ) ;
#22 = CARTESIAN_POINT ( 'NONE',  ( -30.11051286457714937, -12.13278311060257053, -2.081400001665778543 ) ) ;
#23 = CARTESIAN_POINT ( 'NONE',  ( -29.10000000000000142, -21.89999999999995595, -0.5000000000000000000 ) ) ;
#24 = DIRECTION ( 'NONE',  ( -0.000000000000000000, -0.000000000000000000, 1.000000000000000000 ) ) ;
#25 = ADVANCED_FACE ( 'NONE', ( #36, #109 ), #576, .F. ) ;
#26 = SECURITY_CLASSIFICATION_LEVEL ( 'unclassified' ) ;
#27 = VERTEX_POINT ( 'NONE', #819 ) ;
#28 = CARTESIAN_POINT ( 'NONE',  ( -32.10000000000001563, 16.40000000000004832, -0.5000000000000000000 ) ) ;
#29 = CARTESIAN_POINT ( 'NONE',  ( -32.10000000000000853, 19.40000000000000924, -12.50000000000000000 ) ) ;
#30 = ORIENTED_EDGE ( 'NONE', *, *, #682, .T. ) ;
#31 = VECTOR ( 'NONE', #223, 1000.000000000000000 ) ;
#32 = CIRCLE ( 'NONE', #880, 2.000000000000001776 ) ;
#33 = VECTOR ( 'NONE', #568, 1000.000000000000000 ) ;
#34 = ORIENTED_EDGE ( 'NONE', *, *, #220, .F. ) ;
#35 = CARTESIAN_POINT ( 'NONE',  ( -30.10000000000001563, 11.90000000000000924, -10.00000000000000000 ) ) ;
#36 = FACE_OUTER_BOUND ( 'NONE', #808, .T. ) ;
#37 = PERSON_AND_ORGANIZATION_ROLE ( 'creator' ) ;
#38 = EDGE_LOOP ( 'NONE', ( #650, #833, #464, #752, #8, #972, #156, #136, #989 ) ) ;
#39 = B_SPLINE_CURVE_WITH_KNOTS ( 'NONE', 3,
 ( #215, #376, #455, #905, #758, #674, #208, #44, #218, #834, #282, #53, #522, #829, #450, #130, #973, #199 ),
 .UNSPECIFIED., .F., .F.,
 ( 4, 2, 2, 2, 2, 2, 2, 2, 4 ),
 ( 0.001380203588023947228, 0.001724652216940583249, 0.001896876531398899307, 0.001982988688628057987, 0.002069100845857216667, 0.002155213003086375347, 0.002241325160315534026, 0.002413549474773857458, 0.002757998103690505187 ),
 .UNSPECIFIED. ) ;
#40 = EDGE_CURVE ( 'NONE', #572, #368, #676, .T. ) ;
#41 = CARTESIAN_POINT ( 'NONE',  ( -32.10000000000001563, 11.90000000000000924, 0.000000000000000000 ) ) ;
#42 = FACE_OUTER_BOUND ( 'NONE', #566, .T. ) ;
#43 = ORIENTED_EDGE ( 'NONE', *, *, #855, .T. ) ;
#44 = CARTESIAN_POINT ( 'NONE',  ( -30.18115122566253561, -11.33585931760737431, -2.286765240408764388 ) ) ;
#45 = LINE ( 'NONE', #363, #510 ) ;
#46 = VECTOR ( 'NONE', #567, 1000.000000000000000 ) ;
#47 = ORGANIZATION ( 'UNSPECIFIED', 'UNSPECIFIED', '' ) ;
#48 = EDGE_LOOP ( 'NONE', ( #625, #957, #513, #702 ) ) ;
#49 = CARTESIAN_POINT ( 'NONE',  ( -29.89999999999988489, 21.90000000000001990, -12.50000000000000000 ) ) ;
#50 = FACE_OUTER_BOUND ( 'NONE', #65, .T. ) ;
#51 = EDGE_CURVE ( 'NONE', #773, #697, #587, .T. ) ;
#52 = ORIENTED_EDGE ( 'NONE', *, *, #764, .F. ) ;
#53 = CARTESIAN_POINT ( 'NONE',  ( -30.17282584697291625, -11.36498811887926763, -2.453749198959733313 ) ) ;
#54 = CARTESIAN_POINT ( 'NONE',  ( -32.10000000000000142, -16.40000000000001990, -0.5000000000000000000 ) ) ;
#55 = EDGE_CURVE ( 'NONE', #449, #545, #430, .T. ) ;
#56 = ORIENTED_EDGE ( 'NONE', *, *, #830, .T. ) ;
#57 = PLANE ( 'NONE',  #91 ) ;
#58 = DIRECTION ( 'NONE',  ( 1.000000000000000000, 0.000000000000000000, 0.000000000000000000 ) ) ;
#59 = ORIENTED_EDGE ( 'NONE', *, *, #953, .T. ) ;
#60 = AXIS2_PLACEMENT_3D ( 'NONE', #504, #490, #812 ) ;
#61 = ORIENTED_EDGE ( 'NONE', *, *, #346, .T. ) ;
#62 = CARTESIAN_POINT ( 'NONE',  ( -29.10000000000001918, 21.90000000000000924, -0.5000000000000000000 ) ) ;
#63 = AXIS2_PLACEMENT_3D ( 'NONE', #627, #780, #921 ) ;
#64 = FACE_OUTER_BOUND ( 'NONE', #18, .T. ) ;
#65 = EDGE_LOOP ( 'NONE', ( #995, #769, #663, #657 ) ) ;
#66 = DIRECTION ( 'NONE',  ( -0.000000000000000000, -0.000000000000000000, 1.000000000000000000 ) ) ;
#67 = EDGE_CURVE ( 'NONE', #486, #232, #846, .T. ) ;
#68 = CARTESIAN_POINT ( 'NONE',  ( -29.10000000000001918, 19.40000000000004832, 0.000000000000000000 ) ) ;
#69 = ORIENTED_EDGE ( 'NONE', *, *, #809, .F. ) ;
#70 = FACE_OUTER_BOUND ( 'NONE', #647, .T. ) ;
#71 = CARTESIAN_POINT ( 'NONE',  ( -24.90000000000000568, -21.89999999999998437, 0.000000000000000000 ) ) ;
#72 = ADVANCED_FACE ( 'NONE', ( #495, #114, #42, #414, #511 ), #434, .T. ) ;
#73 = CARTESIAN_POINT ( 'NONE',  ( -24.89999999999988489, 21.90000000000000568, -2.000000000000000444 ) ) ;
#74 = ORIENTED_EDGE ( 'NONE', *, *, #67, .T. ) ;
#75 = VECTOR ( 'NONE', #924, 1000.000000000000000 ) ;
#76 = VERTEX_POINT ( 'NONE', #736 ) ;
#77 = CARTESIAN_POINT ( 'NONE',  ( -32.10000000000000142, -19.40000000000001634, -12.50000000000000000 ) ) ;
#78 = CARTESIAN_POINT ( 'NONE',  ( -34.90000000000000568, 21.89999999999996660, -10.00000000000000000 ) ) ;
#79 = AXIS2_PLACEMENT_3D ( 'NONE', #176, #892, #871 ) ;
#80 = ADVANCED_FACE ( 'NONE', ( #803 ), #278, .F. ) ;
#81 = CARTESIAN_POINT ( 'NONE',  ( -34.90000000000000568, 16.40000000000004832, -0.5000000000000000000 ) ) ;
#82 = CARTESIAN_POINT ( 'NONE',  ( -32.10000000000000853, 19.40000000000000924, -10.00000000000000000 ) ) ;
#83 = CARTESIAN_POINT ( 'NONE',  ( -32.10000000000000142, -16.40000000000001990, -0.5000000000000000000 ) ) ;
#84 = ADVANCED_FACE ( 'NONE', ( #974, #594, #685 ), #205, .F. ) ;
#85 = EDGE_LOOP ( 'NONE', ( #881, #954 ) ) ;
#86 = CARTESIAN_POINT ( 'NONE',  ( -30.17282584697285941, 12.43501188112055011, -2.453749198959689348 ) ) ;
#87 = CYLINDRICAL_SURFACE ( 'NONE', #768, 2.999999999999981792 ) ;
#88 = ORIENTED_EDGE ( 'NONE', *, *, #250, .F. ) ;
#89 = CARTESIAN_POINT ( 'NONE',  ( -30.16737470923174058, 12.41525151427156004, -2.474863210159112814 ) ) ;
#90 = CARTESIAN_POINT ( 'NONE',  ( -30.17276524328459786, 11.36344650742319473, -2.457662771100770360 ) ) ;
#91 = AXIS2_PLACEMENT_3D ( 'NONE', #528, #514, #612 ) ;
#92 = ORIENTED_EDGE ( 'NONE', *, *, #893, .T. ) ;
#93 = CIRCLE ( 'NONE', #706, 2.000000000000001776 ) ;
#94 = PERSON_AND_ORGANIZATION_ROLE ( 'classification_officer' ) ;
#95 = ORIENTED_EDGE ( 'NONE', *, *, #67, .F. ) ;
#96 = CARTESIAN_POINT ( 'NONE',  ( -24.90000000000001279, 21.90000000000000924, -10.00000000000000000 ) ) ;
#97 = CARTESIAN_POINT ( 'NONE',  ( -33.70000000000000995, -19.40000000000001634, -10.00000000000000000 ) ) ;
#98 = EDGE_CURVE ( 'NONE', #486, #422, #822, .T. ) ;
#99 = ORIENTED_EDGE ( 'NONE', *, *, #346, .F. ) ;
#100 = COORDINATED_UNIVERSAL_TIME_OFFSET ( 8, 0, .AHEAD. ) ;
#101 = ORIENTED_EDGE ( 'NONE', *, *, #1002, .F. ) ;
#102 = CARTESIAN_POINT ( 'NONE',  ( -30.18386413943814262, -12.47308249825610815, -2.405751586902211248 ) ) ;
#103 = CARTESIAN_POINT ( 'NONE',  ( -30.10000000000001563, 11.90000000000001101, -2.622988929570759353 ) ) ;
#104 = CARTESIAN_POINT ( 'NONE',  ( 0.000000000000000000, 0.000000000000000000, -12.50000000000000000 ) ) ;
#105 = CALENDAR_DATE ( 2026, 5, 6 ) ;
#106 = PERSON ( 'UNSPECIFIED', 'UNSPECIFIED', 'UNSPECIFIED', ('UNSPECIFIED'), ('UNSPECIFIED'), ('UNSPECIFIED') ) ;
#107 = EDGE_LOOP ( 'NONE', ( #236, #380, #246, #187, #206, #948, #966, #69 ) ) ;
#108 = DIRECTION ( 'NONE',  ( -1.000000000000000000, 0.000000000000000000, 0.000000000000000000 ) ) ;
#109 = FACE_BOUND ( 'NONE', #634, .T. ) ;
#110 = VECTOR ( 'NONE', #701, 1000.000000000000000 ) ;
#111 = CIRCLE ( 'NONE', #293, 2.999999999999981792 ) ;
#112 = EDGE_LOOP ( 'NONE', ( #129, #445, #923, #262, #690 ) ) ;
#113 = CARTESIAN_POINT ( 'NONE',  ( -32.10000000000000142, -19.40000000000001634, -10.00000000000000000 ) ) ;
#114 = FACE_BOUND ( 'NONE', #381, .T. ) ;
#115 = EDGE_CURVE ( 'NONE', #272, #374, #111, .T. ) ;
#116 = ORIENTED_EDGE ( 'NONE', *, *, #128, .T. ) ;
#117 = DIRECTION ( 'NONE',  ( 0.000000000000000000, 0.000000000000000000, 1.000000000000000000 ) ) ;
#118 = LINE ( 'NONE', #751, #942 ) ;
#119 = CC_DESIGN_PERSON_AND_ORGANIZATION_ASSIGNMENT ( #570, #37, ( #509 ) ) ;
#120 = VERTEX_POINT ( 'NONE', #438 ) ;
#121 = LINE ( 'NONE', #750, #240 ) ;
#122 = LINE ( 'NONE', #762, #494 ) ;
#123 = AXIS2_PLACEMENT_3D ( 'NONE', #321, #382, #920 ) ;
#124 = ORIENTED_EDGE ( 'NONE', *, *, #145, .F. ) ;
#125 = VECTOR ( 'NONE', #699, 1000.000000000000000 ) ;
#126 = FACE_BOUND ( 'NONE', #287, .T. ) ;
#127 = DIRECTION ( 'NONE',  ( 0.000000000000000000, 0.000000000000000000, 1.000000000000000000 ) ) ;
#128 = EDGE_CURVE ( 'NONE', #266, #226, #212, .T. ) ;
#129 = ORIENTED_EDGE ( 'NONE', *, *, #582, .T. ) ;
#130 = CARTESIAN_POINT ( 'NONE',  ( -30.11063027882434184, -11.66653295126280732, -2.609606806004832524 ) ) ;
#131 = DIRECTION ( 'NONE',  ( -0.000000000000000000, -0.000000000000000000, 1.000000000000000000 ) ) ;
#132 = ORIENTED_EDGE ( 'NONE', *, *, #588, .T. ) ;
#133 = VERTEX_POINT ( 'NONE', #377 ) ;
#134 = CARTESIAN_POINT ( 'NONE',  ( -34.10000000000002274, 11.90000000000000924, 0.000000000000000000 ) ) ;
#135 = FACE_OUTER_BOUND ( 'NONE', #358, .T. ) ;
#136 = ORIENTED_EDGE ( 'NONE', *, *, #51, .T. ) ;
#137 = VECTOR ( 'NONE', #359, 1000.000000000000000 ) ;
#138 = EDGE_CURVE ( 'NONE', #76, #301, #602, .T. ) ;
#139 = LINE ( 'NONE', #237, #75 ) ;
#140 = AXIS2_PLACEMENT_3D ( 'NONE', #583, #357, #951 ) ;
#141 = DIRECTION ( 'NONE',  ( 1.000000000000000000, -0.000000000000000000, -0.000000000000000000 ) ) ;
#142 = LINE ( 'NONE', #791, #458 ) ;
#143 = ORIENTED_EDGE ( 'NONE', *, *, #477, .F. ) ;
#144 = CARTESIAN_POINT ( 'NONE',  ( -24.90000000000000568, -21.89999999999998437, 0.000000000000000000 ) ) ;
#145 = EDGE_CURVE ( 'NONE', #460, #486, #122, .T. ) ;
#146 = FACE_OUTER_BOUND ( 'NONE', #535, .T. ) ;
#147 = APPLICATION_PROTOCOL_DEFINITION ( 'international standard', 'config_control_design', 1994, #221 ) ;
#148 = APPROVAL ( #873, 'UNSPECIFIED' ) ;
#149 = ORIENTED_EDGE ( 'NONE', *, *, #512, .T. ) ;
#150 = EDGE_LOOP ( 'NONE', ( #691, #355 ) ) ;
#151 = CARTESIAN_POINT ( 'NONE',  ( -29.10000000000000142, -19.40000000000001634, -0.5000000000000000000 ) ) ;
#152 = CARTESIAN_POINT ( 'NONE',  ( -30.10000000000001563, 11.90000000000000924, -12.50000000000000000 ) ) ;
#153 = EDGE_CURVE ( 'NONE', #460, #778, #118, .T. ) ;
#154 = CARTESIAN_POINT ( 'NONE',  ( -34.90000000000000568, 21.89999999999996660, -10.00000000000000000 ) ) ;
#155 = CIRCLE ( 'NONE', #828, 0.5000000000000004441 ) ;
#156 = ORIENTED_EDGE ( 'NONE', *, *, #466, .F. ) ;
#157 = DIRECTION ( 'NONE',  ( 0.000000000000000000, 0.000000000000000000, -1.000000000000000000 ) ) ;
#158 = DIRECTION ( 'NONE',  ( 1.000000000000000000, 0.000000000000000000, 0.000000000000000000 ) ) ;
#159 = VECTOR ( 'NONE', #317, 1000.000000000000000 ) ;
#160 = VECTOR ( 'NONE', #356, 1000.000000000000000 ) ;
#161 = EDGE_CURVE ( 'NONE', #133, #1008, #214, .T. ) ;
#162 = CARTESIAN_POINT ( 'NONE',  ( -32.10000000000000142, -19.40000000000001634, -0.5000000000000004441 ) ) ;
#163 = EDGE_LOOP ( 'NONE', ( #611, #59, #182, #672 ) ) ;
#164 = CARTESIAN_POINT ( 'NONE',  ( -32.10000000000001563, 11.90000000000000924, -12.50000000000000000 ) ) ;
#165 = CC_DESIGN_PERSON_AND_ORGANIZATION_ASSIGNMENT ( #719, #256, ( #263 ) ) ;
#166 = LINE ( 'NONE', #71, #831 ) ;
#167 = CARTESIAN_POINT ( 'NONE',  ( 0.000000000000000000, 0.000000000000000000, 0.000000000000000000 ) ) ;
#168 = ORIENTED_EDGE ( 'NONE', *, *, #739, .T. ) ;
#169 = CARTESIAN_POINT ( 'NONE',  ( -29.90000000000000568, -21.89999999999997016, -12.50000000000000000 ) ) ;
#170 = DIRECTION ( 'NONE',  ( -0.000000000000000000, -0.000000000000000000, 1.000000000000000000 ) ) ;
#171 = EDGE_LOOP ( 'NONE', ( #811, #848, #296, #307 ) ) ;
#172 = PERSON_AND_ORGANIZATION ( #106, #47 ) ;
#173 = ADVANCED_FACE ( 'NONE', ( #681 ), #201, .F. ) ;
#174 = EDGE_LOOP ( 'NONE', ( #733, #34, #468, #30 ) ) ;
#175 = CARTESIAN_POINT ( 'NONE',  ( -30.10000000000001208, -12.01666923009402055, -2.622988929570847727 ) ) ;
#176 = CARTESIAN_POINT ( 'NONE',  ( -29.10000000000001918, 19.40000000000004832, -0.5000000000000000000 ) ) ;
#177 = VECTOR ( 'NONE', #369, 1000.000000000000000 ) ;
#178 = LOCAL_TIME ( 11, 32, 57.00000000000000000, #100 ) ;
#179 = CARTESIAN_POINT ( 'NONE',  ( -32.10000000000000853, -19.40000000000003055, -0.5000000000000000000 ) ) ;
#180 = AXIS2_PLACEMENT_3D ( 'NONE', #179, #670, #193 ) ;
#181 = DATE_AND_TIME ( #737, #178 ) ;
#182 = ORIENTED_EDGE ( 'NONE', *, *, #604, .T. ) ;
#183 = FACE_OUTER_BOUND ( 'NONE', #112, .T. ) ;
#184 = EDGE_CURVE ( 'NONE', #232, #489, #45, .T. ) ;
#185 = CARTESIAN_POINT ( 'NONE',  ( -30.10000000000001563, -11.90000000000000924, 0.000000000000000000 ) ) ;
#186 = ORIENTED_EDGE ( 'NONE', *, *, #138, .T. ) ;
#187 = ORIENTED_EDGE ( 'NONE', *, *, #893, .F. ) ;
#188 = PLANE ( 'NONE',  #60 ) ;
#189 = CARTESIAN_POINT ( 'NONE',  ( -6.137708756946267058E-14, -21.90000000000005542, -2.000000000000000444 ) ) ;
#190 = VERTEX_POINT ( 'NONE', #832 ) ;
#191 = EDGE_LOOP ( 'NONE', ( #614, #431, #589, #886 ) ) ;
#192 = CYLINDRICAL_SURFACE ( 'NONE', #864, 1.600000000000000755 ) ;
#193 = DIRECTION ( 'NONE',  ( -1.000000000000000000, 0.000000000000000000, 0.000000000000000000 ) ) ;
#194 =( GEOMETRIC_REPRESENTATION_CONTEXT ( 3 ) GLOBAL_UNCERTAINTY_ASSIGNED_CONTEXT ( ( #476 ) ) GLOBAL_UNIT_ASSIGNED_CONTEXT ( ( #560, #705, #231 ) ) REPRESENTATION_CONTEXT ( 'NONE', 'WORKASPACE' ) );
#195 = LOCAL_TIME ( 11, 32, 57.00000000000000000, #952 ) ;
#196 = ADVANCED_FACE ( 'NONE', ( #135 ), #994, .F. ) ;
#197 = APPROVAL_ROLE ( '' ) ;
#198 = VERTEX_POINT ( 'NONE', #689 ) ;
#199 = CARTESIAN_POINT ( 'NONE',  ( -30.10000000000001563, -11.90000000000000924, -2.622988929570858385 ) ) ;
#200 = PRODUCT ( 'upperholder_lid', 'upperholder_lid', '', ( #487 ) ) ;
#201 = CYLINDRICAL_SURFACE ( 'NONE', #911, 2.000000000000001776 ) ;
#202 = ORIENTED_EDGE ( 'NONE', *, *, #250, .T. ) ;
#203 = EDGE_CURVE ( 'NONE', #644, #938, #93, .T. ) ;
#204 = DIRECTION ( 'NONE',  ( 5.473822126268815905E-46, 1.972152263052529514E-31, -1.000000000000000000 ) ) ;
#205 = CYLINDRICAL_SURFACE ( 'NONE', #754, 0.5000000000000004441 ) ;
#206 = ORIENTED_EDGE ( 'NONE', *, *, #941, .T. ) ;
#207 = ADVANCED_FACE ( 'NONE', ( #50 ), #981, .F. ) ;
#208 = CARTESIAN_POINT ( 'NONE',  ( -30.17272334949135981, -11.36535989608808350, -2.237115997976458992 ) ) ;
#209 = CARTESIAN_POINT ( 'NONE',  ( -34.90000000000000568, 21.89999999999996660, -12.50000000000000000 ) ) ;
#210 = AXIS2_PLACEMENT_3D ( 'NONE', #77, #770, #228 ) ;
#211 = CC_DESIGN_APPROVAL ( #457, ( #977 ) ) ;
#212 = CIRCLE ( 'NONE', #367, 1.599999999999997202 ) ;
#213 = ORIENTED_EDGE ( 'NONE', *, *, #98, .F. ) ;
#214 = CIRCLE ( 'NONE', #992, 2.000000000000001776 ) ;
#215 = CARTESIAN_POINT ( 'NONE',  ( -30.10000000000001563, -11.90000000000000924, -2.068246649881322341 ) ) ;
#216 = CARTESIAN_POINT ( 'NONE',  ( -32.10000000000000853, 19.40000000000000924, -12.50000000000000000 ) ) ;
#217 = ORIENTED_EDGE ( 'NONE', *, *, #617, .T. ) ;
#218 = CARTESIAN_POINT ( 'NONE',  ( -30.18396342034633761, -11.32658581007741283, -2.315900332089122937 ) ) ;
#219 = DIRECTION ( 'NONE',  ( 0.000000000000000000, 0.000000000000000000, -1.000000000000000000 ) ) ;
#220 = EDGE_CURVE ( 'NONE', #252, #374, #613, .T. ) ;
#221 = APPLICATION_CONTEXT ( 'configuration controlled 3d designs of mechanical parts and assemblies' ) ;
#222 = ORIENTED_EDGE ( 'NONE', *, *, #477, .T. ) ;
#223 = DIRECTION ( 'NONE',  ( -1.000000000000000000, 2.775557561562890957E-15, 0.000000000000000000 ) ) ;
#224 = DIRECTION ( 'NONE',  ( 0.000000000000000000, 1.000000000000000000, 0.000000000000000000 ) ) ;
#225 = DIRECTION ( 'NONE',  ( 1.000000000000000000, 0.000000000000000000, -0.000000000000000000 ) ) ;
#226 = VERTEX_POINT ( 'NONE', #447 ) ;
#227 = AXIS2_PLACEMENT_3D ( 'NONE', #658, #348, #9 ) ;
#228 = DIRECTION ( 'NONE',  ( -1.000000000000000000, 0.000000000000000000, 0.000000000000000000 ) ) ;
#229 = VECTOR ( 'NONE', #755, 1000.000000000000000 ) ;
#230 = CARTESIAN_POINT ( 'NONE',  ( -32.10000000000001563, 19.40000000000001634, -0.5000000000000000000 ) ) ;
#231 =( NAMED_UNIT ( * ) SI_UNIT ( $, .STERADIAN. ) SOLID_ANGLE_UNIT ( ) );
#232 = VERTEX_POINT ( 'NONE', #54 ) ;
#233 = DIRECTION ( 'NONE',  ( 1.000000000000000000, 0.000000000000000000, 0.000000000000000000 ) ) ;
#234 = CARTESIAN_POINT ( 'NONE',  ( -29.10000000000001918, 19.40000000000004832, 0.000000000000000000 ) ) ;
#235 = DIRECTION ( 'NONE',  ( -1.000000000000000000, 0.000000000000000000, 0.000000000000000000 ) ) ;
#236 = ORIENTED_EDGE ( 'NONE', *, *, #636, .F. ) ;
#237 = CARTESIAN_POINT ( 'NONE',  ( -32.10000000000000142, -16.40000000000001990, 0.000000000000000000 ) ) ;
#238 = CARTESIAN_POINT ( 'NONE',  ( -32.10000000000001563, 11.90000000000000924, -12.50000000000000000 ) ) ;
#239 = CARTESIAN_POINT ( 'NONE',  ( -32.10000000000001563, -11.90000000000000924, 0.000000000000000000 ) ) ;
#240 = VECTOR ( 'NONE', #204, 1000.000000000000000 ) ;
#241 = ORIENTED_EDGE ( 'NONE', *, *, #553, .F. ) ;
#242 = CARTESIAN_POINT ( 'NONE',  ( -30.10000000000004405, 12.01660192214258061, -2.068246649875568721 ) ) ;
#243 = CC_DESIGN_SECURITY_CLASSIFICATION ( #977, ( #509 ) ) ;
#244 = LINE ( 'NONE', #234, #159 ) ;
#245 = CARTESIAN_POINT ( 'NONE',  ( -32.10000000000000142, -19.40000000000001634, -12.50000000000000000 ) ) ;
#246 = ORIENTED_EDGE ( 'NONE', *, *, #305, .F. ) ;
#247 = CARTESIAN_POINT ( 'NONE',  ( -30.10000000000001563, -11.90000000000000924, -2.068246649881322341 ) ) ;
#248 = CARTESIAN_POINT ( 'NONE',  ( -30.15009855958248508, 11.45277764976921198, -2.530545282793120965 ) ) ;
#249 = VERTEX_POINT ( 'NONE', #373 ) ;
#250 = EDGE_CURVE ( 'NONE', #1008, #133, #32, .T. ) ;
#251 = APPROVAL_ROLE ( '' ) ;
#252 = VERTEX_POINT ( 'NONE', #767 ) ;
#253 = FACE_OUTER_BOUND ( 'NONE', #915, .T. ) ;
#254 = CARTESIAN_POINT ( 'NONE',  ( -34.10000000000002274, -11.90000000000000924, 0.000000000000000000 ) ) ;
#255 = CARTESIAN_POINT ( 'NONE',  ( -34.10000000000002274, 11.90000000000000924, -10.00000000000000000 ) ) ;
#256 = PERSON_AND_ORGANIZATION_ROLE ( 'creator' ) ;
#257 = ORIENTED_EDGE ( 'NONE', *, *, #184, .F. ) ;
#258 = PLANE ( 'NONE',  #227 ) ;
#259 = ADVANCED_FACE ( 'NONE', ( #64 ), #383, .F. ) ;
#260 = CARTESIAN_POINT ( 'NONE',  ( -30.13860806752582278, 11.50498747765939100, -2.554790145920897260 ) ) ;
#261 = AXIS2_PLACEMENT_3D ( 'NONE', #82, #66, #325 ) ;
#262 = ORIENTED_EDGE ( 'NONE', *, *, #903, .T. ) ;
#263 = PRODUCT_DEFINITION ( 'UNKNOWN', '', #509, #584 ) ;
#264 = VECTOR ( 'NONE', #7, 1000.000000000000000 ) ;
#265 = PERSON_AND_ORGANIZATION ( #106, #47 ) ;
#266 = VERTEX_POINT ( 'NONE', #10 ) ;
#267 = CARTESIAN_POINT ( 'NONE',  ( -30.13888393730007209, -12.29634019259852451, -2.137041844155632919 ) ) ;
#268 = EDGE_CURVE ( 'NONE', #232, #610, #790, .T. ) ;
#269 = CARTESIAN_POINT ( 'NONE',  ( -30.15053182235865137, 11.45094164534227232, -2.161786907697318849 ) ) ;
#270 = ORIENTED_EDGE ( 'NONE', *, *, #392, .T. ) ;
#271 = COORDINATED_UNIVERSAL_TIME_OFFSET ( 8, 0, .AHEAD. ) ;
#272 = VERTEX_POINT ( 'NONE', #775 ) ;
#273 = LINE ( 'NONE', #505, #743 ) ;
#274 = DIRECTION ( 'NONE',  ( -1.000000000000000000, 0.000000000000000000, 0.000000000000000000 ) ) ;
#275 = PERSON_AND_ORGANIZATION_ROLE ( 'design_owner' ) ;
#276 = ORIENTED_EDGE ( 'NONE', *, *, #776, .T. ) ;
#277 = DIRECTION ( 'NONE',  ( 1.000000000000000000, 0.000000000000000000, 0.000000000000000000 ) ) ;
#278 = CYLINDRICAL_SURFACE ( 'NONE', #351, 3.000000000000009770 ) ;
#279 = AXIS2_PLACEMENT_3D ( 'NONE', #687, #601, #285 ) ;
#280 = AXIS2_PLACEMENT_3D ( 'NONE', #360, #894, #796 ) ;
#281 = ORIENTED_EDGE ( 'NONE', *, *, #304, .F. ) ;
#282 = CARTESIAN_POINT ( 'NONE',  ( -30.18130713854104030, -11.33532696857168354, -2.403311218190216536 ) ) ;
#283 = CARTESIAN_POINT ( 'NONE',  ( -32.10000000000000142, -19.40000000000001634, -10.00000000000000000 ) ) ;
#284 = ORIENTED_EDGE ( 'NONE', *, *, #648, .T. ) ;
#285 = DIRECTION ( 'NONE',  ( 1.000000000000000000, 0.000000000000000000, 0.000000000000000000 ) ) ;
#286 = CARTESIAN_POINT ( 'NONE',  ( -29.68398888142108305, 21.90000000000001990, -2.345617789726086144 ) ) ;
#287 = EDGE_LOOP ( 'NONE', ( #978, #541 ) ) ;
#288 = DIRECTION ( 'NONE',  ( -1.000000000000000000, 0.000000000000000000, 0.000000000000000000 ) ) ;
#289 = CARTESIAN_POINT ( 'NONE',  ( -32.10000000000001563, -11.90000000000000924, -12.50000000000000000 ) ) ;
#290 = AXIS2_PLACEMENT_3D ( 'NONE', #162, #937, #235 ) ;
#291 = PRODUCT_RELATED_PRODUCT_CATEGORY ( 'detail', '', ( #200 ) ) ;
#292 = APPROVAL_PERSON_ORGANIZATION ( #649, #457, #354 ) ;
#293 = AXIS2_PLACEMENT_3D ( 'NONE', #529, #914, #826 ) ;
#294 = ORIENTED_EDGE ( 'NONE', *, *, #304, .T. ) ;
#295 = VECTOR ( 'NONE', #170, 1000.000000000000000 ) ;
#296 = ORIENTED_EDGE ( 'NONE', *, *, #912, .T. ) ;
#297 = LINE ( 'NONE', #362, #137 ) ;
#298 = ADVANCED_FACE ( 'NONE', ( #322 ), #632, .F. ) ;
#299 = DIRECTION ( 'NONE',  ( -0.000000000000000000, -0.000000000000000000, 1.000000000000000000 ) ) ;
#300 = VERTEX_POINT ( 'NONE', #152 ) ;
#301 = VERTEX_POINT ( 'NONE', #1007 ) ;
#302 = CARTESIAN_POINT ( 'NONE',  ( -32.10000000000001563, 16.40000000000004832, -0.5000000000000000000 ) ) ;
#303 = DIRECTION ( 'NONE',  ( -0.000000000000000000, -0.000000000000000000, 1.000000000000000000 ) ) ;
#304 = EDGE_CURVE ( 'NONE', #374, #190, #244, .T. ) ;
#305 = EDGE_CURVE ( 'NONE', #76, #249, #559, .T. ) ;
#306 = CARTESIAN_POINT ( 'NONE',  ( -30.10000000000001563, 11.90000000000000924, 0.000000000000000000 ) ) ;
#307 = ORIENTED_EDGE ( 'NONE', *, *, #962, .F. ) ;
#308 = DIRECTION ( 'NONE',  ( -0.000000000000000000, -0.000000000000000000, 1.000000000000000000 ) ) ;
#309 = LINE ( 'NONE', #470, #264 ) ;
#310 = MANIFOLD_SOLID_BREP ( '¶ñ®Æ-¦ùªø2', #721 ) ;
#311 = EDGE_CURVE ( 'NONE', #27, #449, #391, .T. ) ;
#312 = DIRECTION ( 'NONE',  ( -2.775557561562890562E-15, -1.000000000000000000, -0.000000000000000000 ) ) ;
#313 = VERTEX_POINT ( 'NONE', #786 ) ;
#314 = VECTOR ( 'NONE', #620, 1000.000000000000000 ) ;
#315 = DIRECTION ( 'NONE',  ( 0.000000000000000000, 0.000000000000000000, 1.000000000000000000 ) ) ;
#316 = AXIS2_PLACEMENT_3D ( 'NONE', #283, #299, #902 ) ;
#317 = DIRECTION ( 'NONE',  ( 0.000000000000000000, 1.000000000000000000, 0.000000000000000000 ) ) ;
#318 = CARTESIAN_POINT ( 'NONE',  ( 6.019233362699192011E-14, 21.89999999999993818, -2.000000000000000444 ) ) ;
#319 = ORIENTED_EDGE ( 'NONE', *, *, #161, .F. ) ;
#320 = EDGE_CURVE ( 'NONE', #133, #545, #548, .T. ) ;
#321 = CARTESIAN_POINT ( 'NONE',  ( -24.90000000000000568, -21.89999999999998437, -10.00000000000000000 ) ) ;
#322 = FACE_OUTER_BOUND ( 'NONE', #805, .T. ) ;
#323 = DIRECTION ( 'NONE',  ( 0.000000000000000000, 0.000000000000000000, -1.000000000000000000 ) ) ;
#324 = ORIENTED_EDGE ( 'NONE', *, *, #138, .F. ) ;
#325 = DIRECTION ( 'NONE',  ( 1.000000000000000000, 0.000000000000000000, 0.000000000000000000 ) ) ;
#326 = CARTESIAN_POINT ( 'NONE',  ( -29.89999999999988489, 21.90000000000001990, -4.319013456085050565E-30 ) ) ;
#327 = VECTOR ( 'NONE', #698, 1000.000000000000000 ) ;
#328 = ORIENTED_EDGE ( 'NONE', *, *, #311, .F. ) ;
#329 = CARTESIAN_POINT ( 'NONE',  ( -30.15009855958250995, -12.34722235023097703, -2.530545282793192019 ) ) ;
#330 = CARTESIAN_POINT ( 'NONE',  ( -30.11051286457714937, 11.66721688939754031, -2.081400001665875354 ) ) ;
#331 = VECTOR ( 'NONE', #538, 1000.000000000000000 ) ;
#332 = EDGE_CURVE ( 'NONE', #266, #550, #856, .T. ) ;
#333 = DATE_AND_TIME ( #577, #720 ) ;
#334 = VERTEX_POINT ( 'NONE', #462 ) ;
#335 = CYLINDRICAL_SURFACE ( 'NONE', #393, 1.600000000000000755 ) ;
#336 = FACE_OUTER_BOUND ( 'NONE', #163, .T. ) ;
#337 = ORIENTED_EDGE ( 'NONE', *, *, #986, .F. ) ;
#338 = PERSON_AND_ORGANIZATION ( #106, #47 ) ;
#339 = VERTEX_POINT ( 'NONE', #399 ) ;
#340 = CARTESIAN_POINT ( 'NONE',  ( -34.90000000000000568, -21.89999999999995595, -0.5000000000000000000 ) ) ;
#341 = B_SPLINE_CURVE_WITH_KNOTS ( 'NONE', 3,
 ( #498, #175, #870, #964, #329, #806, #102, #716, #640, #562, #267, #22, #944, #247 ),
 .UNSPECIFIED., .F., .F.,
 ( 4, 2, 2, 2, 2, 2, 4 ),
 ( 1.788112030672749005E-18, 0.0003450508970059918486, 0.0005175763455089837884, 0.0006901017940119756741, 0.0008626272425149676681, 0.001035152691017959554, 0.001380203588023947228 ),
 .UNSPECIFIED. ) ;
#342 = LINE ( 'NONE', #97, #295 ) ;
#343 = DIRECTION ( 'NONE',  ( 0.000000000000000000, 0.000000000000000000, 1.000000000000000000 ) ) ;
#344 = EDGE_CURVE ( 'NONE', #300, #439, #862, .T. ) ;
#345 = DATE_AND_TIME ( #804, #195 ) ;
#346 = EDGE_CURVE ( 'NONE', #778, #422, #309, .T. ) ;
#347 = ORIENTED_EDGE ( 'NONE', *, *, #671, .F. ) ;
#348 = DIRECTION ( 'NONE',  ( -0.000000000000000000, 0.000000000000000000, -1.000000000000000000 ) ) ;
#349 = VECTOR ( 'NONE', #484, 1000.000000000000000 ) ;
#350 = DIRECTION ( 'NONE',  ( 0.000000000000000000, 1.000000000000000000, 0.000000000000000000 ) ) ;
#351 = AXIS2_PLACEMENT_3D ( 'NONE', #352, #726, #748 ) ;
#352 = CARTESIAN_POINT ( 'NONE',  ( -32.10000000000000853, -19.40000000000003055, -0.5000000000000000000 ) ) ;
#353 = AXIS2_PLACEMENT_3D ( 'NONE', #29, #950, #108 ) ;
#354 = APPROVAL_ROLE ( '' ) ;
#355 = ORIENTED_EDGE ( 'NONE', *, *, #953, .F. ) ;
#356 = DIRECTION ( 'NONE',  ( -0.000000000000000000, -0.000000000000000000, 1.000000000000000000 ) ) ;
#357 = DIRECTION ( 'NONE',  ( 0.000000000000000000, 0.000000000000000000, 1.000000000000000000 ) ) ;
#358 = EDGE_LOOP ( 'NONE', ( #371, #15, #149, #653, #838, #284 ) ) ;
#359 = DIRECTION ( 'NONE',  ( -0.000000000000000000, -0.000000000000000000, 1.000000000000000000 ) ) ;
#360 = CARTESIAN_POINT ( 'NONE',  ( -32.10000000000001563, -11.90000000000000924, 0.000000000000000000 ) ) ;
#361 = ORIENTED_EDGE ( 'NONE', *, *, #4, .F. ) ;
#362 = CARTESIAN_POINT ( 'NONE',  ( -29.10000000000001918, 21.90000000000000924, -0.5000000000000000000 ) ) ;
#363 = CARTESIAN_POINT ( 'NONE',  ( -32.10000000000000142, -16.40000000000001990, -0.5000000000000000000 ) ) ;
#364 = CIRCLE ( 'NONE', #279, 0.5000000000000004441 ) ;
#365 = EDGE_CURVE ( 'NONE', #550, #120, #817, .T. ) ;
#366 = LOCAL_TIME ( 11, 32, 57.00000000000000000, #271 ) ;
#367 = AXIS2_PLACEMENT_3D ( 'NONE', #216, #988, #835 ) ;
#368 = VERTEX_POINT ( 'NONE', #845 ) ;
#369 = DIRECTION ( 'NONE',  ( -1.584222352490235040E-16, 1.000000000000000000, -0.000000000000000000 ) ) ;
#370 = CARTESIAN_POINT ( 'NONE',  ( -29.10000000000001918, 19.40000000000004832, -0.5000000000000000000 ) ) ;
#371 = ORIENTED_EDGE ( 'NONE', *, *, #19, .F. ) ;
#372 = CARTESIAN_POINT ( 'NONE',  ( -32.10000000000001563, 19.40000000000001634, -0.5000000000000000000 ) ) ;
#373 = CARTESIAN_POINT ( 'NONE',  ( -34.90000000000000568, 21.89999999999996660, -0.5000000000000000000 ) ) ;
#374 = VERTEX_POINT ( 'NONE', #68 ) ;
#375 = EDGE_CURVE ( 'NONE', #778, #697, #166, .T. ) ;
#376 = CARTESIAN_POINT ( 'NONE',  ( -30.10000000000005116, -11.78339807785739701, -2.068246649875469245 ) ) ;
#377 = CARTESIAN_POINT ( 'NONE',  ( -34.10000000000002274, -11.90000000000000924, -12.50000000000000000 ) ) ;
#378 = AXIS2_PLACEMENT_3D ( 'NONE', #239, #478, #787 ) ;
#379 = VECTOR ( 'NONE', #343, 1000.000000000000000 ) ;
#380 = ORIENTED_EDGE ( 'NONE', *, *, #903, .F. ) ;
#381 = EDGE_LOOP ( 'NONE', ( #527, #968 ) ) ;
#382 = DIRECTION ( 'NONE',  ( -2.775557561562890957E-15, -1.000000000000000000, 0.000000000000000000 ) ) ;
#383 = PLANE ( 'NONE',  #608 ) ;
#384 = DIRECTION ( 'NONE',  ( -1.000000000000000000, 0.000000000000000000, 0.000000000000000000 ) ) ;
#385 = ORIENTED_EDGE ( 'NONE', *, *, #512, .F. ) ;
#386 = LINE ( 'NONE', #635, #327 ) ;
#387 = CARTESIAN_POINT ( 'NONE',  ( -30.10000000000001563, 11.90000000000001101, -2.622988929570759353 ) ) ;
#388 = EDGE_CURVE ( 'NONE', #827, #460, #851, .T. ) ;
#389 = VERTEX_POINT ( 'NONE', #387 ) ;
#390 = CARTESIAN_POINT ( 'NONE',  ( -30.15028512115948800, 12.34800421837572415, -2.161183668256253299 ) ) ;
#391 = LINE ( 'NONE', #931, #741 ) ;
#392 = EDGE_CURVE ( 'NONE', #483, #301, #1001, .T. ) ;
#393 = AXIS2_PLACEMENT_3D ( 'NONE', #794, #410, #723 ) ;
#394 = FACE_OUTER_BOUND ( 'NONE', #711, .T. ) ;
#395 = ORIENTED_EDGE ( 'NONE', *, *, #320, .T. ) ;
#396 = AXIS2_PLACEMENT_3D ( 'NONE', #151, #233, #996 ) ;
#397 = CARTESIAN_POINT ( 'NONE',  ( -30.50000000000001066, 19.40000000000000924, -10.00000000000000000 ) ) ;
#398 = VECTOR ( 'NONE', #141, 1000.000000000000000 ) ;
#399 = CARTESIAN_POINT ( 'NONE',  ( -30.50000000000000000, -19.40000000000001634, -12.50000000000000000 ) ) ;
#400 = CARTESIAN_POINT ( 'NONE',  ( -29.68398888142120384, -21.89999999999997016, -2.345617789726086144 ) ) ;
#401 = EDGE_LOOP ( 'NONE', ( #585, #662, #432, #963, #503, #385 ) ) ;
#402 = CARTESIAN_POINT ( 'NONE',  ( -32.10000000000000853, 19.40000000000000924, -0.5000000000000004441 ) ) ;
#403 = DIRECTION ( 'NONE',  ( -0.000000000000000000, -0.000000000000000000, 1.000000000000000000 ) ) ;
#404 = EDGE_CURVE ( 'NONE', #1008, #891, #552, .T. ) ;
#405 = ORIENTED_EDGE ( 'NONE', *, *, #55, .T. ) ;
#406 = LINE ( 'NONE', #28, #959 ) ;
#407 = CARTESIAN_POINT ( 'NONE',  ( -29.10000000000000142, -19.40000000000001634, 0.000000000000000000 ) ) ;
#408 = VECTOR ( 'NONE', #473, 1000.000000000000000 ) ;
#409 = EDGE_LOOP ( 'NONE', ( #347, #872 ) ) ;
#410 = DIRECTION ( 'NONE',  ( -0.000000000000000000, -0.000000000000000000, 1.000000000000000000 ) ) ;
#411 = APPROVAL_PERSON_ORGANIZATION ( #732, #578, #197 ) ;
#412 = LINE ( 'NONE', #35, #609 ) ;
#413 = VECTOR ( 'NONE', #24, 1000.000000000000000 ) ;
#414 = FACE_BOUND ( 'NONE', #599, .T. ) ;
#415 = APPROVAL_STATUS ( 'not_yet_approved' ) ;
#416 = ORIENTED_EDGE ( 'NONE', *, *, #664, .F. ) ;
#417 = CARTESIAN_POINT ( 'NONE',  ( -30.10000000000001208, 12.01646559012403337, -2.622988929570747807 ) ) ;
#418 = CARTESIAN_POINT ( 'NONE',  ( -29.10000000000000142, -19.40000000000001634, -0.5000000000000000000 ) ) ;
#419 = DIRECTION ( 'NONE',  ( 0.000000000000000000, 0.000000000000000000, -1.000000000000000000 ) ) ;
#420 = ADVANCED_FACE ( 'NONE', ( #637 ), #87, .F. ) ;
#421 = APPROVAL_DATE_TIME ( #181, #148 ) ;
#422 = VERTEX_POINT ( 'NONE', #407 ) ;
#423 = CARTESIAN_POINT ( 'NONE',  ( -30.18115122566246811, 12.46414068239242212, -2.286765240408785260 ) ) ;
#424 = CARTESIAN_POINT ( 'NONE',  ( -30.10000000000001563, 11.90000000000000924, -2.068246649881421373 ) ) ;
#425 = DIRECTION ( 'NONE',  ( -1.000000000000000000, 0.000000000000000000, -0.000000000000000000 ) ) ;
#426 = DATE_AND_TIME ( #105, #366 ) ;
#427 = ORIENTED_EDGE ( 'NONE', *, *, #311, .T. ) ;
#428 = VECTOR ( 'NONE', #987, 1000.000000000000000 ) ;
#429 = LINE ( 'NONE', #818, #474 ) ;
#430 = CIRCLE ( 'NONE', #280, 2.000000000000001776 ) ;
#431 = ORIENTED_EDGE ( 'NONE', *, *, #682, .F. ) ;
#432 = ORIENTED_EDGE ( 'NONE', *, *, #203, .T. ) ;
#433 = CARTESIAN_POINT ( 'NONE',  ( -34.90000000000000568, -16.40000000000001990, -0.5000000000000000000 ) ) ;
#434 = PLANE ( 'NONE',  #661 ) ;
#435 = ORIENTED_EDGE ( 'NONE', *, *, #836, .F. ) ;
#436 = ADVANCED_FACE ( 'NONE', ( #146 ), #467, .F. ) ;
#437 = DIRECTION ( 'NONE',  ( 1.000000000000000000, 0.000000000000000000, 0.000000000000000000 ) ) ;
#438 = CARTESIAN_POINT ( 'NONE',  ( -30.50000000000001066, 19.40000000000000924, -0.5000000000000004441 ) ) ;
#439 = VERTEX_POINT ( 'NONE', #563 ) ;
#440 = CARTESIAN_POINT ( 'NONE',  ( -24.90000000000001279, 21.90000000000000924, 0.000000000000000000 ) ) ;
#441 = DIRECTION ( 'NONE',  ( -1.000000000000000000, 0.000000000000000000, 0.000000000000000000 ) ) ;
#442 = AXIS2_PLACEMENT_3D ( 'NONE', #41, #117, #437 ) ;
#443 = EDGE_CURVE ( 'NONE', #252, #715, #273, .T. ) ;
#444 = VECTOR ( 'NONE', #704, 1000.000000000000000 ) ;
#445 = ORIENTED_EDGE ( 'NONE', *, *, #443, .T. ) ;
#446 = CARTESIAN_POINT ( 'NONE',  ( -30.50000000000000355, -19.40000000000001634, -10.00000000000000000 ) ) ;
#447 = CARTESIAN_POINT ( 'NONE',  ( -30.50000000000001421, 19.40000000000000924, -12.50000000000000000 ) ) ;
#448 = EDGE_CURVE ( 'NONE', #389, #313, #452, .T. ) ;
#449 = VERTEX_POINT ( 'NONE', #185 ) ;
#450 = CARTESIAN_POINT ( 'NONE',  ( -30.13883085068516721, -11.50396937571719391, -2.554297097922995086 ) ) ;
#451 = DIRECTION ( 'NONE',  ( -0.000000000000000000, -0.000000000000000000, 1.000000000000000000 ) ) ;
#452 = B_SPLINE_CURVE_WITH_KNOTS ( 'NONE', 3,
 ( #103, #888, #586, #260, #248, #90, #652, #641, #965, #269, #747, #330, #801, #424 ),
 .UNSPECIFIED., .F., .F.,
 ( 4, 2, 2, 2, 2, 2, 4 ),
 ( 3.496446946337351263E-18, 0.0003450508970058576244, 0.0005175763455087824521, 0.0006901017940117074425, 0.0008626272425146323244, 0.001035152691017557315, 0.001380203588023413584 ),
 .UNSPECIFIED. ) ;
#453 = ADVANCED_FACE ( 'NONE', ( #336 ), #192, .F. ) ;
#454 = VERTEX_POINT ( 'NONE', #493 ) ;
#455 = CARTESIAN_POINT ( 'NONE',  ( -30.11039916273418271, -11.66818365527080914, -2.081242915126253479 ) ) ;
#456 = DIRECTION ( 'NONE',  ( 1.000000000000000000, 0.000000000000000000, 0.000000000000000000 ) ) ;
#457 = APPROVAL ( #415, 'UNSPECIFIED' ) ;
#458 = VECTOR ( 'NONE', #482, 1000.000000000000000 ) ;
#459 = AXIS2_PLACEMENT_3D ( 'NONE', #885, #569, #274 ) ;
#460 = VERTEX_POINT ( 'NONE', #23 ) ;
#461 = CARTESIAN_POINT ( 'NONE',  ( -32.10000000000001563, 16.40000000000004832, -0.5000000000000000000 ) ) ;
#462 = CARTESIAN_POINT ( 'NONE',  ( -32.10000000000001563, 16.40000000000004832, -0.5000000000000000000 ) ) ;
#463 = DIRECTION ( 'NONE',  ( 0.000000000000000000, 1.000000000000000000, 0.000000000000000000 ) ) ;
#464 = ORIENTED_EDGE ( 'NONE', *, *, #941, .F. ) ;
#465 = CARTESIAN_POINT ( 'NONE',  ( -30.11039916273416850, 12.13181634472912229, -2.081242915126348070 ) ) ;
#466 = EDGE_CURVE ( 'NONE', #773, #667, #508, .T. ) ;
#467 = PLANE ( 'NONE',  #79 ) ;
#468 = ORIENTED_EDGE ( 'NONE', *, *, #582, .F. ) ;
#469 = DIRECTION ( 'NONE',  ( -1.000000000000000000, 0.000000000000000000, 0.000000000000000000 ) ) ;
#470 = CARTESIAN_POINT ( 'NONE',  ( -29.10000000000000142, -19.40000000000001634, 0.000000000000000000 ) ) ;
#471 = AXIS2_PLACEMENT_3D ( 'NONE', #164, #626, #469 ) ;
#472 = LINE ( 'NONE', #81, #110 ) ;
#473 = DIRECTION ( 'NONE',  ( -0.000000000000000000, -0.000000000000000000, 1.000000000000000000 ) ) ;
#474 = VECTOR ( 'NONE', #795, 1000.000000000000000 ) ;
#475 = CARTESIAN_POINT ( 'NONE',  ( -32.10000000000001563, -11.90000000000000924, -10.00000000000000000 ) ) ;
#476 = UNCERTAINTY_MEASURE_WITH_UNIT (LENGTH_MEASURE( 1.000000000000000082E-05 ), #560, 'distance_accuracy_value', 'NONE');
#477 = EDGE_CURVE ( 'NONE', #985, #596, #660, .T. ) ;
#478 = DIRECTION ( 'NONE',  ( 0.000000000000000000, 0.000000000000000000, 1.000000000000000000 ) ) ;
#479 = ORIENTED_EDGE ( 'NONE', *, *, #4, .T. ) ;
#480 = CARTESIAN_POINT ( 'NONE',  ( -30.13883085068514234, 12.29603062428267179, -2.554297097922915594 ) ) ;
#481 = DIRECTION ( 'NONE',  ( 1.000000000000000000, -2.775557561562890957E-15, -0.000000000000000000 ) ) ;
#482 = DIRECTION ( 'NONE',  ( 0.000000000000000000, 0.000000000000000000, 1.000000000000000000 ) ) ;
#483 = VERTEX_POINT ( 'NONE', #945 ) ;
#484 = DIRECTION ( 'NONE',  ( 2.775557561562890562E-15, 1.000000000000000000, 0.000000000000000000 ) ) ;
#485 = CARTESIAN_POINT ( 'NONE',  ( -34.90000000000000568, 16.40000000000004832, -0.5000000000000000000 ) ) ;
#486 = VERTEX_POINT ( 'NONE', #418 ) ;
#487 = MECHANICAL_CONTEXT ( 'NONE', #221, 'mechanical' ) ;
#488 = VECTOR ( 'NONE', #308, 1000.000000000000000 ) ;
#489 = VERTEX_POINT ( 'NONE', #735 ) ;
#490 = DIRECTION ( 'NONE',  ( 1.000000000000000000, 1.584222352490235040E-16, -0.000000000000000000 ) ) ;
#491 = LOCAL_TIME ( 11, 32, 57.00000000000000000, #643 ) ;
#492 = EDGE_CURVE ( 'NONE', #869, #572, #342, .T. ) ;
#493 = CARTESIAN_POINT ( 'NONE',  ( -24.90000000000001279, 21.90000000000000924, 0.000000000000000000 ) ) ;
#494 = VECTOR ( 'NONE', #906, 1000.000000000000000 ) ;
#495 = FACE_BOUND ( 'NONE', #532, .T. ) ;
#496 = PERSON_AND_ORGANIZATION_ROLE ( 'design_supplier' ) ;
#497 = EDGE_LOOP ( 'NONE', ( #5, #101 ) ) ;
#498 = CARTESIAN_POINT ( 'NONE',  ( -30.10000000000001563, -11.90000000000000924, -2.622988929570858385 ) ) ;
#499 = DIRECTION ( 'NONE',  ( 1.000000000000000000, 0.000000000000000000, 0.000000000000000000 ) ) ;
#500 = EDGE_CURVE ( 'NONE', #226, #266, #784, .T. ) ;
#501 = ORIENTED_EDGE ( 'NONE', *, *, #388, .T. ) ;
#502 = DIRECTION ( 'NONE',  ( 0.000000000000000000, 0.000000000000000000, 1.000000000000000000 ) ) ;
#503 = ORIENTED_EDGE ( 'NONE', *, *, #448, .F. ) ;
#504 = CARTESIAN_POINT ( 'NONE',  ( -24.90000000000001279, 21.90000000000000924, -10.00000000000000000 ) ) ;
#505 = CARTESIAN_POINT ( 'NONE',  ( -29.10000000000001918, 19.40000000000004832, -0.5000000000000000000 ) ) ;
#506 = CARTESIAN_POINT ( 'NONE',  ( -32.10000000000000853, -19.40000000000003055, -0.5000000000000000000 ) ) ;
#507 = VERTEX_POINT ( 'NONE', #485 ) ;
#508 = LINE ( 'NONE', #189, #33 ) ;
#509 = PRODUCT_DEFINITION_FORMATION_WITH_SPECIFIED_SOURCE ( 'ANY', '', #200, .NOT_KNOWN. ) ;
#510 = VECTOR ( 'NONE', #840, 1000.000000000000000 ) ;
#511 = FACE_BOUND ( 'NONE', #150, .T. ) ;
#512 = EDGE_CURVE ( 'NONE', #300, #389, #412, .T. ) ;
#513 = ORIENTED_EDGE ( 'NONE', *, *, #617, .F. ) ;
#514 = DIRECTION ( 'NONE',  ( -0.000000000000000000, 0.000000000000000000, -1.000000000000000000 ) ) ;
#515 = CARTESIAN_POINT ( 'NONE',  ( -29.10000000000000142, -19.40000000000001634, -0.5000000000000000000 ) ) ;
#516 = EDGE_CURVE ( 'NONE', #313, #938, #429, .T. ) ;
#517 = ORIENTED_EDGE ( 'NONE', *, *, #664, .T. ) ;
#518 = LINE ( 'NONE', #440, #177 ) ;
#519 = DIRECTION ( 'NONE',  ( 1.000000000000000000, 0.000000000000000000, 0.000000000000000000 ) ) ;
#520 = B_SPLINE_CURVE_WITH_KNOTS ( 'NONE', 3,
 ( #1000, #242, #465, #774, #390, #703, #729, #423, #651, #789, #573, #86, #89, #949, #480, #875, #417, #800 ),
 .UNSPECIFIED., .F., .F.,
 ( 4, 2, 2, 2, 2, 2, 2, 2, 4 ),
 ( 0.001380203588023413584, 0.001724652216939919717, 0.001896876531398169422, 0.001982988688627294275, 0.002069100845856419128, 0.002155213003085543980, 0.002241325160314668833, 0.002413549474772922442, 0.002757998103689429659 ),
 .UNSPECIFIED. ) ;
#521 = ORIENTED_EDGE ( 'NONE', *, *, #836, .T. ) ;
#522 = CARTESIAN_POINT ( 'NONE',  ( -30.16737470923179387, -11.38474848572826303, -2.474863210159165217 ) ) ;
#523 = VECTOR ( 'NONE', #922, 1000.000000000000000 ) ;
#524 = ADVANCED_FACE ( 'NONE', ( #17 ), #646, .F. ) ;
#525 = CARTESIAN_POINT ( 'NONE',  ( -32.10000000000001563, 11.90000000000000924, -10.00000000000000000 ) ) ;
#526 = VECTOR ( 'NONE', #926, 1000.000000000000000 ) ;
#527 = ORIENTED_EDGE ( 'NONE', *, *, #500, .F. ) ;
#528 = CARTESIAN_POINT ( 'NONE',  ( 0.000000000000000000, 0.000000000000000000, 0.000000000000000000 ) ) ;
#529 = CARTESIAN_POINT ( 'NONE',  ( -32.10000000000001563, 19.40000000000001634, 0.000000000000000000 ) ) ;
#530 = EDGE_CURVE ( 'NONE', #610, #603, #807, .T. ) ;
#531 = ORIENTED_EDGE ( 'NONE', *, *, #305, .T. ) ;
#532 = EDGE_LOOP ( 'NONE', ( #88, #319 ) ) ;
#533 = CYLINDRICAL_SURFACE ( 'NONE', #539, 2.000000000000001776 ) ;
#534 = DIRECTION ( 'NONE',  ( -1.000000000000000000, 0.000000000000000000, 0.000000000000000000 ) ) ;
#535 = EDGE_LOOP ( 'NONE', ( #294, #241, #816, #21 ) ) ;
#536 = PRODUCT_DEFINITION_SHAPE ( 'NONE', 'NONE',  #263 ) ;
#537 = PLANE ( 'NONE',  #781 ) ;
#538 = DIRECTION ( 'NONE',  ( 0.000000000000000000, 0.000000000000000000, 1.000000000000000000 ) ) ;
#539 = AXIS2_PLACEMENT_3D ( 'NONE', #839, #901, #277 ) ;
#540 = FACE_OUTER_BOUND ( 'NONE', #896, .T. ) ;
#541 = ORIENTED_EDGE ( 'NONE', *, *, #203, .F. ) ;
#542 = EDGE_CURVE ( 'NONE', #715, #249, #665, .T. ) ;
#543 = FACE_OUTER_BOUND ( 'NONE', #746, .T. ) ;
#544 = DIRECTION ( 'NONE',  ( 1.000000000000000000, 0.000000000000000000, 0.000000000000000000 ) ) ;
#545 = VERTEX_POINT ( 'NONE', #254 ) ;
#546 = ORIENTED_EDGE ( 'NONE', *, *, #739, .F. ) ;
#547 = CARTESIAN_POINT ( 'NONE',  ( -29.90000000000000568, -21.89999999999997016, -12.50000000000000000 ) ) ;
#548 = LINE ( 'NONE', #936, #575 ) ;
#549 = PLANE ( 'NONE',  #554 ) ;
#550 = VERTEX_POINT ( 'NONE', #876 ) ;
#551 = LINE ( 'NONE', #547, #31 ) ;
#552 = LINE ( 'NONE', #621, #526 ) ;
#553 = EDGE_CURVE ( 'NONE', #715, #190, #297, .T. ) ;
#554 = AXIS2_PLACEMENT_3D ( 'NONE', #318, #998, #225 ) ;
#555 = DIRECTION ( 'NONE',  ( -4.163336342344339393E-15, 1.000000000000000000, 0.000000000000000000 ) ) ;
#556 = AXIS2_PLACEMENT_3D ( 'NONE', #238, #616, #771 ) ;
#557 = EDGE_LOOP ( 'NONE', ( #788, #521, #416, #982 ) ) ;
#558 = DIRECTION ( 'NONE',  ( 0.000000000000000000, -1.000000000000000000, 0.000000000000000000 ) ) ;
#559 = LINE ( 'NONE', #78, #331 ) ;
#560 =( LENGTH_UNIT ( ) NAMED_UNIT ( * ) SI_UNIT ( .MILLI., .METRE. ) );
#561 = ORIENTED_EDGE ( 'NONE', *, *, #918, .T. ) ;
#562 = CARTESIAN_POINT ( 'NONE',  ( -30.15053182235869755, -12.34905835465792201, -2.161786907697250015 ) ) ;
#563 = CARTESIAN_POINT ( 'NONE',  ( -34.10000000000002274, 11.90000000000000924, -12.50000000000000000 ) ) ;
#564 = ORIENTED_EDGE ( 'NONE', *, *, #693, .F. ) ;
#565 = APPROVAL_DATE_TIME ( #333, #578 ) ;
#566 = EDGE_LOOP ( 'NONE', ( #186, #217, #276, #92 ) ) ;
#567 = DIRECTION ( 'NONE',  ( 0.000000000000000000, 0.000000000000000000, 1.000000000000000000 ) ) ;
#568 = DIRECTION ( 'NONE',  ( -1.000000000000000000, 2.802606738331622090E-15, 0.000000000000000000 ) ) ;
#569 = DIRECTION ( 'NONE',  ( 0.000000000000000000, 0.000000000000000000, 1.000000000000000000 ) ) ;
#570 = PERSON_AND_ORGANIZATION ( #106, #47 ) ;
#571 = VECTOR ( 'NONE', #558, 1000.000000000000000 ) ;
#572 = VERTEX_POINT ( 'NONE', #591 ) ;
#573 = CARTESIAN_POINT ( 'NONE',  ( -30.18130713854098701, 12.46467303142811822, -2.403311218190191223 ) ) ;
#574 = DIRECTION ( 'NONE',  ( -2.775557561562890562E-15, -1.000000000000000000, 0.000000000000000000 ) ) ;
#575 = VECTOR ( 'NONE', #717, 1000.000000000000000 ) ;
#576 = PLANE ( 'NONE',  #979 ) ;
#577 = CALENDAR_DATE ( 2026, 5, 6 ) ;
#578 = APPROVAL ( #20, 'UNSPECIFIED' ) ;
#579 = ORIENTED_EDGE ( 'NONE', *, *, #553, .T. ) ;
#580 = CARTESIAN_POINT ( 'NONE',  ( -29.32267413853774229, 21.90000000000001990, -2.000000000000000444 ) ) ;
#581 = DIRECTION ( 'NONE',  ( -0.000000000000000000, -0.000000000000000000, 1.000000000000000000 ) ) ;
#582 = EDGE_CURVE ( 'NONE', #334, #252, #622, .T. ) ;
#583 = CARTESIAN_POINT ( 'NONE',  ( -32.10000000000000853, -19.40000000000003055, 0.000000000000000000 ) ) ;
#584 = DESIGN_CONTEXT ( 'detailed design', #696, 'design' ) ;
#585 = ORIENTED_EDGE ( 'NONE', *, *, #344, .T. ) ;
#586 = CARTESIAN_POINT ( 'NONE',  ( -30.11022637957836778, 11.66940563363965566, -2.610284204382330220 ) ) ;
#587 = LINE ( 'NONE', #889, #379 ) ;
#588 = EDGE_CURVE ( 'NONE', #27, #891, #39, .T. ) ;
#589 = ORIENTED_EDGE ( 'NONE', *, *, #841, .F. ) ;
#590 = CIRCLE ( 'NONE', #290, 1.600000000000004086 ) ;
#591 = CARTESIAN_POINT ( 'NONE',  ( -33.70000000000000995, -19.40000000000001634, -0.5000000000000004441 ) ) ;
#592 = CC_DESIGN_APPROVAL ( #578, ( #509 ) ) ;
#593 = AXIS2_PLACEMENT_3D ( 'NONE', #694, #451, #456 ) ;
#594 = FACE_BOUND ( 'NONE', #943, .T. ) ;
#595 = EDGE_CURVE ( 'NONE', #596, #483, #364, .T. ) ;
#596 = VERTEX_POINT ( 'NONE', #761 ) ;
#597 = FACE_OUTER_BOUND ( 'NONE', #929, .T. ) ;
#598 = CARTESIAN_POINT ( 'NONE',  ( -32.10000000000001563, 11.90000000000000924, 0.000000000000000000 ) ) ;
#599 = EDGE_LOOP ( 'NONE', ( #799, #564 ) ) ;
#600 = ADVANCED_FACE ( 'NONE', ( #126, #825, #684 ), #57, .F. ) ;
#601 = DIRECTION ( 'NONE',  ( -2.775557561562890957E-15, -1.000000000000000000, 0.000000000000000000 ) ) ;
#602 = LINE ( 'NONE', #209, #659 ) ;
#603 = VERTEX_POINT ( 'NONE', #753 ) ;
#604 = EDGE_CURVE ( 'NONE', #339, #368, #991, .T. ) ;
#605 = LINE ( 'NONE', #49, #1006 ) ;
#606 = VECTOR ( 'NONE', #463, 1000.000000000000000 ) ;
#607 = DIRECTION ( 'NONE',  ( 0.000000000000000000, 0.000000000000000000, -1.000000000000000000 ) ) ;
#608 = AXIS2_PLACEMENT_3D ( 'NONE', #898, #224, #867 ) ;
#609 = VECTOR ( 'NONE', #724, 1000.000000000000000 ) ;
#610 = VERTEX_POINT ( 'NONE', #916 ) ;
#611 = ORIENTED_EDGE ( 'NONE', *, *, #492, .F. ) ;
#612 = DIRECTION ( 'NONE',  ( -1.000000000000000000, 0.000000000000000000, 0.000000000000000000 ) ) ;
#613 = LINE ( 'NONE', #370, #927 ) ;
#614 = ORIENTED_EDGE ( 'NONE', *, *, #675, .T. ) ;
#615 = CARTESIAN_POINT ( 'NONE',  ( -34.90000000000000568, 21.89999999999996660, 0.000000000000000000 ) ) ;
#616 = DIRECTION ( 'NONE',  ( 0.000000000000000000, 0.000000000000000000, -1.000000000000000000 ) ) ;
#617 = EDGE_CURVE ( 'NONE', #301, #877, #605, .T. ) ;
#618 = DIRECTION ( 'NONE',  ( -1.000000000000000000, 0.000000000000000000, 0.000000000000000000 ) ) ;
#619 = ORIENTED_EDGE ( 'NONE', *, *, #115, .F. ) ;
#620 = DIRECTION ( 'NONE',  ( 1.000000000000000000, -0.000000000000000000, -0.000000000000000000 ) ) ;
#621 = CARTESIAN_POINT ( 'NONE',  ( -30.10000000000001563, -11.90000000000000924, -10.00000000000000000 ) ) ;
#622 = CIRCLE ( 'NONE', #861, 2.999999999999981792 ) ;
#623 = CARTESIAN_POINT ( 'NONE',  ( -30.10000000000001563, -11.90000000000000924, -2.622988929570858385 ) ) ;
#624 = CIRCLE ( 'NONE', #140, 3.000000000000009770 ) ;
#625 = ORIENTED_EDGE ( 'NONE', *, *, #962, .T. ) ;
#626 = DIRECTION ( 'NONE',  ( 0.000000000000000000, 0.000000000000000000, -1.000000000000000000 ) ) ;
#627 = CARTESIAN_POINT ( 'NONE',  ( -32.10000000000000853, 19.40000000000000924, -0.5000000000000004441 ) ) ;
#628 = CC_DESIGN_PERSON_AND_ORGANIZATION_ASSIGNMENT ( #172, #94, ( #977 ) ) ;
#629 = PLANE ( 'NONE',  #738 ) ;
#630 = ADVANCED_FACE ( 'NONE', ( #597 ), #533, .F. ) ;
#631 = LINE ( 'NONE', #302, #408 ) ;
#632 = CYLINDRICAL_SURFACE ( 'NONE', #13, 2.000000000000001776 ) ;
#633 = CARTESIAN_POINT ( 'NONE',  ( -29.89999999999988489, 21.90000000000001990, -2.796549266394475097 ) ) ;
#634 = EDGE_LOOP ( 'NONE', ( #337, #908 ) ) ;
#635 = CARTESIAN_POINT ( 'NONE',  ( -34.90000000000000568, 21.89999999999996660, 0.000000000000000000 ) ) ;
#636 = EDGE_CURVE ( 'NONE', #507, #642, #897, .T. ) ;
#637 = FACE_OUTER_BOUND ( 'NONE', #174, .T. ) ;
#638 = CC_DESIGN_DATE_AND_TIME_ASSIGNMENT ( #426, #960, ( #977 ) ) ;
#639 = ORIENTED_EDGE ( 'NONE', *, *, #268, .F. ) ;
#640 = CARTESIAN_POINT ( 'NONE',  ( -30.17302531879929717, -12.43744595964212429, -2.234714805804805415 ) ) ;
#641 = CARTESIAN_POINT ( 'NONE',  ( -30.18411143389770857, 11.32609130672458875, -2.287576600518473668 ) ) ;
#642 = VERTEX_POINT ( 'NONE', #680 ) ;
#643 = COORDINATED_UNIVERSAL_TIME_OFFSET ( 8, 0, .AHEAD. ) ;
#644 = VERTEX_POINT ( 'NONE', #134 ) ;
#645 = FACE_BOUND ( 'NONE', #409, .T. ) ;
#646 = PLANE ( 'NONE',  #913 ) ;
#647 = EDGE_LOOP ( 'NONE', ( #61, #213, #124, #904 ) ) ;
#648 = EDGE_CURVE ( 'NONE', #938, #644, #673, .T. ) ;
#649 = PERSON_AND_ORGANIZATION ( #106, #47 ) ;
#650 = ORIENTED_EDGE ( 'NONE', *, *, #153, .F. ) ;
#651 = CARTESIAN_POINT ( 'NONE',  ( -30.18396342034627011, 12.47341418992238538, -2.315900332089130931 ) ) ;
#652 = CARTESIAN_POINT ( 'NONE',  ( -30.18386413943808577, 11.32691750174413592, -2.405751586902185934 ) ) ;
#653 = ORIENTED_EDGE ( 'NONE', *, *, #824, .F. ) ;
#654 = SHAPE_DEFINITION_REPRESENTATION ( #536, #933 ) ;
#655 = EDGE_CURVE ( 'NONE', #198, #877, #121, .T. ) ;
#656 = CIRCLE ( 'NONE', #210, 1.600000000000004086 ) ;
#657 = ORIENTED_EDGE ( 'NONE', *, *, #604, .F. ) ;
#658 = CARTESIAN_POINT ( 'NONE',  ( -32.10000000000001563, 19.40000000000001634, -0.5000000000000000000 ) ) ;
#659 = VECTOR ( 'NONE', #997, 1000.000000000000000 ) ;
#660 = LINE ( 'NONE', #956, #993 ) ;
#661 = AXIS2_PLACEMENT_3D ( 'NONE', #104, #419, #425 ) ;
#662 = ORIENTED_EDGE ( 'NONE', *, *, #19, .T. ) ;
#663 = ORIENTED_EDGE ( 'NONE', *, *, #40, .T. ) ;
#664 = EDGE_CURVE ( 'NONE', #697, #454, #518, .T. ) ;
#665 = LINE ( 'NONE', #884, #797 ) ;
#666 = DIRECTION ( 'NONE',  ( -0.000000000000000000, 0.000000000000000000, -1.000000000000000000 ) ) ;
#667 = VERTEX_POINT ( 'NONE', #983 ) ;
#668 = DIRECTION ( 'NONE',  ( 0.000000000000000000, 0.000000000000000000, 1.000000000000000000 ) ) ;
#669 = ADVANCED_FACE ( 'NONE', ( #866 ), #537, .F. ) ;
#670 = DIRECTION ( 'NONE',  ( 0.000000000000000000, 0.000000000000000000, 1.000000000000000000 ) ) ;
#671 = EDGE_CURVE ( 'NONE', #120, #550, #925, .T. ) ;
#672 = ORIENTED_EDGE ( 'NONE', *, *, #986, .T. ) ;
#673 = CIRCLE ( 'NONE', #442, 2.000000000000001776 ) ;
#674 = CARTESIAN_POINT ( 'NONE',  ( -30.16719117581353515, -11.38543802971798691, -2.215704069191706704 ) ) ;
#675 = EDGE_CURVE ( 'NONE', #642, #272, #692, .T. ) ;
#676 = CIRCLE ( 'NONE', #459, 1.600000000000004086 ) ;
#677 = DIRECTION ( 'NONE',  ( 1.000000000000000000, 0.000000000000000000, 0.000000000000000000 ) ) ;
#678 = ADVANCED_FACE ( 'NONE', ( #70 ), #766, .F. ) ;
#679 = ORIENTED_EDGE ( 'NONE', *, *, #595, .T. ) ;
#680 = CARTESIAN_POINT ( 'NONE',  ( -34.90000000000000568, 16.40000000000004832, 0.000000000000000000 ) ) ;
#681 = FACE_OUTER_BOUND ( 'NONE', #401, .T. ) ;
#682 = EDGE_CURVE ( 'NONE', #334, #272, #631, .T. ) ;
#683 = ORIENTED_EDGE ( 'NONE', *, *, #700, .T. ) ;
#684 = FACE_OUTER_BOUND ( 'NONE', #837, .T. ) ;
#685 = FACE_OUTER_BOUND ( 'NONE', #171, .T. ) ;
#686 = EDGE_LOOP ( 'NONE', ( #479, #257, #95, #865 ) ) ;
#687 = CARTESIAN_POINT ( 'NONE',  ( -29.68398888142108305, 21.90000000000001990, -2.345617789726086144 ) ) ;
#688 = VECTOR ( 'NONE', #312, 1000.000000000000000 ) ;
#689 = CARTESIAN_POINT ( 'NONE',  ( -29.90000000000000568, -21.89999999999997016, -2.796549266394475097 ) ) ;
#690 = ORIENTED_EDGE ( 'NONE', *, *, #841, .T. ) ;
#691 = ORIENTED_EDGE ( 'NONE', *, *, #792, .F. ) ;
#692 = LINE ( 'NONE', #854, #314 ) ;
#693 = EDGE_CURVE ( 'NONE', #439, #300, #878, .T. ) ;
#694 = CARTESIAN_POINT ( 'NONE',  ( -32.10000000000001563, 11.90000000000000924, -10.00000000000000000 ) ) ;
#695 = CARTESIAN_POINT ( 'NONE',  ( -34.90000000000000568, -21.89999999999995595, -12.50000000000000000 ) ) ;
#696 = APPLICATION_CONTEXT ( 'configuration controlled 3d designs of mechanical parts and assemblies' ) ;
#697 = VERTEX_POINT ( 'NONE', #144 ) ;
#698 = DIRECTION ( 'NONE',  ( 0.000000000000000000, -1.000000000000000000, 0.000000000000000000 ) ) ;
#699 = DIRECTION ( 'NONE',  ( -0.000000000000000000, -0.000000000000000000, 1.000000000000000000 ) ) ;
#700 = EDGE_CURVE ( 'NONE', #610, #827, #930, .T. ) ;
#701 = DIRECTION ( 'NONE',  ( -0.000000000000000000, -1.000000000000000000, -0.000000000000000000 ) ) ;
#702 = ORIENTED_EDGE ( 'NONE', *, *, #392, .F. ) ;
#703 = CARTESIAN_POINT ( 'NONE',  ( -30.16719117581347476, 12.41456197028183084, -2.215704069191755554 ) ) ;
#704 = DIRECTION ( 'NONE',  ( -1.000000000000000000, 0.000000000000000000, 0.000000000000000000 ) ) ;
#705 =( NAMED_UNIT ( * ) PLANE_ANGLE_UNIT ( ) SI_UNIT ( $, .RADIAN. ) );
#706 = AXIS2_PLACEMENT_3D ( 'NONE', #598, #127, #677 ) ;
#707 = ORIENTED_EDGE ( 'NONE', *, *, #145, .T. ) ;
#708 = PLANE ( 'NONE',  #123 ) ;
#709 = CARTESIAN_POINT ( 'NONE',  ( -29.10000000000000142, -21.89999999999995595, -0.5000000000000000000 ) ) ;
#710 = LINE ( 'NONE', #3, #688 ) ;
#711 = EDGE_LOOP ( 'NONE', ( #579, #546, #435, #222, #679, #270, #324, #531, #853 ) ) ;
#712 = DIRECTION ( 'NONE',  ( -1.000000000000000000, -4.163336342344339393E-15, -0.000000000000000000 ) ) ;
#713 = CARTESIAN_POINT ( 'NONE',  ( -33.70000000000001705, 19.40000000000000924, -10.00000000000000000 ) ) ;
#714 = DIRECTION ( 'NONE',  ( -1.000000000000000000, -4.163336342344339393E-15, 0.000000000000000000 ) ) ;
#715 = VERTEX_POINT ( 'NONE', #62 ) ;
#716 = CARTESIAN_POINT ( 'NONE',  ( -30.18411143389777251, -12.47390869327564999, -2.287576600518453240 ) ) ;
#717 = DIRECTION ( 'NONE',  ( -0.000000000000000000, -0.000000000000000000, 1.000000000000000000 ) ) ;
#718 = VECTOR ( 'NONE', #910, 1000.000000000000000 ) ;
#719 = PERSON_AND_ORGANIZATION ( #106, #47 ) ;
#720 = LOCAL_TIME ( 11, 32, 57.00000000000000000, #947 ) ;
#721 = CLOSED_SHELL ( 'NONE', ( #173, #298, #802, #207, #899, #975, #868, #756, #600, #990, #524, #84, #453, #883, #630, #196, #849, #420, #669, #436, #25, #80, #678, #259, #72 ) ) ;
#722 = VERTEX_POINT ( 'NONE', #935 ) ;
#723 = DIRECTION ( 'NONE',  ( 1.000000000000000000, 0.000000000000000000, 0.000000000000000000 ) ) ;
#724 = DIRECTION ( 'NONE',  ( -0.000000000000000000, -0.000000000000000000, 1.000000000000000000 ) ) ;
#725 = EDGE_CURVE ( 'NONE', #226, #120, #6, .T. ) ;
#726 = DIRECTION ( 'NONE',  ( -0.000000000000000000, -0.000000000000000000, 1.000000000000000000 ) ) ;
#727 = DATE_TIME_ROLE ( 'creation_date' ) ;
#728 = ORIENTED_EDGE ( 'NONE', *, *, #588, .F. ) ;
#729 = CARTESIAN_POINT ( 'NONE',  ( -30.17272334949128876, 12.43464010391172891, -2.237115997976498960 ) ) ;
#730 = CARTESIAN_POINT ( 'NONE',  ( -29.89999999999988489, 21.90000000000001990, -4.319013456085050565E-30 ) ) ;
#731 = LINE ( 'NONE', #255, #413 ) ;
#732 = PERSON_AND_ORGANIZATION ( #106, #47 ) ;
#733 = ORIENTED_EDGE ( 'NONE', *, *, #115, .T. ) ;
#734 = LINE ( 'NONE', #96, #46 ) ;
#735 = CARTESIAN_POINT ( 'NONE',  ( -32.10000000000000142, -16.40000000000001990, -0.000000000000000000 ) ) ;
#736 = CARTESIAN_POINT ( 'NONE',  ( -34.90000000000000568, 21.89999999999996660, -12.50000000000000000 ) ) ;
#737 = CALENDAR_DATE ( 2026, 5, 6 ) ;
#738 = AXIS2_PLACEMENT_3D ( 'NONE', #928, #555, #714 ) ;
#739 = EDGE_CURVE ( 'NONE', #454, #190, #785, .T. ) ;
#740 = ORIENTED_EDGE ( 'NONE', *, *, #184, .T. ) ;
#741 = VECTOR ( 'NONE', #940, 1000.000000000000000 ) ;
#742 = DIRECTION ( 'NONE',  ( -1.000000000000000000, 2.775557561562890562E-15, 0.000000000000000000 ) ) ;
#743 = VECTOR ( 'NONE', #350, 1000.000000000000000 ) ;
#744 = ORIENTED_EDGE ( 'NONE', *, *, #671, .T. ) ;
#745 = DATE_AND_TIME ( #810, #491 ) ;
#746 = EDGE_LOOP ( 'NONE', ( #999, #749, #760, #934 ) ) ;
#747 = CARTESIAN_POINT ( 'NONE',  ( -30.13888393730004367, 11.50365980740164495, -2.137041844155713299 ) ) ;
#748 = DIRECTION ( 'NONE',  ( 1.000000000000000000, 0.000000000000000000, 0.000000000000000000 ) ) ;
#749 = ORIENTED_EDGE ( 'NONE', *, *, #332, .T. ) ;
#750 = CARTESIAN_POINT ( 'NONE',  ( -29.90000000000000568, -21.89999999999997016, -4.319013456085050565E-30 ) ) ;
#751 = CARTESIAN_POINT ( 'NONE',  ( -29.10000000000000142, -21.89999999999995595, -0.5000000000000000000 ) ) ;
#752 = ORIENTED_EDGE ( 'NONE', *, *, #776, .F. ) ;
#753 = CARTESIAN_POINT ( 'NONE',  ( -34.90000000000000568, -16.40000000000001990, 0.000000000000000000 ) ) ;
#754 = AXIS2_PLACEMENT_3D ( 'NONE', #286, #984, #519 ) ;
#755 = DIRECTION ( 'NONE',  ( -0.000000000000000000, -0.000000000000000000, 1.000000000000000000 ) ) ;
#756 = ADVANCED_FACE ( 'NONE', ( #850 ), #708, .T. ) ;
#757 = ORIENTED_EDGE ( 'NONE', *, *, #725, .T. ) ;
#758 = CARTESIAN_POINT ( 'NONE',  ( -30.15028512115953063, -11.45199578162411669, -2.161183668256184465 ) ) ;
#759 = CARTESIAN_POINT ( 'NONE',  ( -32.10000000000001563, -11.90000000000000924, -12.50000000000000000 ) ) ;
#760 = ORIENTED_EDGE ( 'NONE', *, *, #365, .T. ) ;
#761 = CARTESIAN_POINT ( 'NONE',  ( -29.32267413853774229, 21.90000000000001990, -2.000000000000000444 ) ) ;
#762 = CARTESIAN_POINT ( 'NONE',  ( -29.10000000000000142, -19.40000000000001634, -0.5000000000000000000 ) ) ;
#763 = ORIENTED_EDGE ( 'NONE', *, *, #161, .T. ) ;
#764 = EDGE_CURVE ( 'NONE', #489, #603, #139, .T. ) ;
#765 = ORIENTED_EDGE ( 'NONE', *, *, #530, .F. ) ;
#766 = PLANE ( 'NONE',  #396 ) ;
#767 = CARTESIAN_POINT ( 'NONE',  ( -29.10000000000001918, 19.40000000000004832, -0.5000000000000000000 ) ) ;
#768 = AXIS2_PLACEMENT_3D ( 'NONE', #230, #860, #544 ) ;
#769 = ORIENTED_EDGE ( 'NONE', *, *, #492, .T. ) ;
#770 = DIRECTION ( 'NONE',  ( 0.000000000000000000, 0.000000000000000000, -1.000000000000000000 ) ) ;
#771 = DIRECTION ( 'NONE',  ( -1.000000000000000000, 0.000000000000000000, 0.000000000000000000 ) ) ;
#772 = LINE ( 'NONE', #633, #523 ) ;
#773 = VERTEX_POINT ( 'NONE', #779 ) ;
#774 = CARTESIAN_POINT ( 'NONE',  ( -30.13869573066851260, 12.29540882695653004, -2.136640202818349099 ) ) ;
#775 = CARTESIAN_POINT ( 'NONE',  ( -32.10000000000001563, 16.40000000000004832, 0.000000000000000000 ) ) ;
#776 = EDGE_CURVE ( 'NONE', #877, #722, #551, .T. ) ;
#777 = LINE ( 'NONE', #695, #606 ) ;
#778 = VERTEX_POINT ( 'NONE', #843 ) ;
#779 = CARTESIAN_POINT ( 'NONE',  ( -24.90000000000000568, -21.89999999999998437, -2.000000000000000444 ) ) ;
#780 = DIRECTION ( 'NONE',  ( 0.000000000000000000, 0.000000000000000000, 1.000000000000000000 ) ) ;
#781 = AXIS2_PLACEMENT_3D ( 'NONE', #461, #939, #157 ) ;
#782 = CC_DESIGN_APPROVAL ( #148, ( #263 ) ) ;
#783 = PLANE ( 'NONE',  #909 ) ;
#784 = CIRCLE ( 'NONE', #353, 1.599999999999997202 ) ;
#785 = LINE ( 'NONE', #615, #976 ) ;
#786 = CARTESIAN_POINT ( 'NONE',  ( -30.10000000000001563, 11.90000000000000924, -2.068246649881421373 ) ) ;
#787 = DIRECTION ( 'NONE',  ( -1.000000000000000000, 0.000000000000000000, 0.000000000000000000 ) ) ;
#788 = ORIENTED_EDGE ( 'NONE', *, *, #918, .F. ) ;
#789 = CARTESIAN_POINT ( 'NONE',  ( -30.18401397007930242, 12.47358307238291353, -2.374472210084176194 ) ) ;
#790 = LINE ( 'NONE', #83, #444 ) ;
#791 = CARTESIAN_POINT ( 'NONE',  ( -34.90000000000000568, -21.89999999999995595, -10.00000000000000000 ) ) ;
#792 = EDGE_CURVE ( 'NONE', #339, #869, #656, .T. ) ;
#793 = ORIENTED_EDGE ( 'NONE', *, *, #375, .T. ) ;
#794 = CARTESIAN_POINT ( 'NONE',  ( -32.10000000000000853, 19.40000000000000924, -10.00000000000000000 ) ) ;
#795 = DIRECTION ( 'NONE',  ( -0.000000000000000000, -0.000000000000000000, 1.000000000000000000 ) ) ;
#796 = DIRECTION ( 'NONE',  ( -1.000000000000000000, 0.000000000000000000, 0.000000000000000000 ) ) ;
#797 = VECTOR ( 'NONE', #969, 1000.000000000000000 ) ;
#798 = PERSON_AND_ORGANIZATION ( #106, #47 ) ;
#799 = ORIENTED_EDGE ( 'NONE', *, *, #344, .F. ) ;
#800 = CARTESIAN_POINT ( 'NONE',  ( -30.10000000000001563, 11.90000000000001101, -2.622988929570759353 ) ) ;
#801 = CARTESIAN_POINT ( 'NONE',  ( -30.09999999999995524, 11.78319419951265168, -2.068246649875432830 ) ) ;
#802 = ADVANCED_FACE ( 'NONE', ( #543 ), #859, .F. ) ;
#803 = FACE_OUTER_BOUND ( 'NONE', #686, .T. ) ;
#804 = CALENDAR_DATE ( 2026, 5, 6 ) ;
#805 = EDGE_LOOP ( 'NONE', ( #202, #395, #820, #328, #814, #874 ) ) ;
#806 = CARTESIAN_POINT ( 'NONE',  ( -30.17276524328464049, -12.43655349257703335, -2.457662771100814325 ) ) ;
#807 = LINE ( 'NONE', #433, #160 ) ;
#808 = EDGE_LOOP ( 'NONE', ( #74, #946, #683, #501, #707 ) ) ;
#809 = EDGE_CURVE ( 'NONE', #642, #603, #386, .T. ) ;
#810 = CALENDAR_DATE ( 2026, 5, 6 ) ;
#811 = ORIENTED_EDGE ( 'NONE', *, *, #595, .F. ) ;
#812 = DIRECTION ( 'NONE',  ( -1.584222352490235040E-16, 1.000000000000000000, 0.000000000000000000 ) ) ;
#813 = DIRECTION ( 'NONE',  ( -1.000000000000000000, 2.802606738331622090E-15, 0.000000000000000000 ) ) ;
#814 = ORIENTED_EDGE ( 'NONE', *, *, #855, .F. ) ;
#815 = CIRCLE ( 'NONE', #378, 2.000000000000001776 ) ;
#816 = ORIENTED_EDGE ( 'NONE', *, *, #443, .F. ) ;
#817 = CIRCLE ( 'NONE', #63, 1.600000000000004086 ) ;
#818 = CARTESIAN_POINT ( 'NONE',  ( -30.10000000000001563, 11.90000000000000924, -10.00000000000000000 ) ) ;
#819 = CARTESIAN_POINT ( 'NONE',  ( -30.10000000000001563, -11.90000000000000924, -2.068246649881322341 ) ) ;
#820 = ORIENTED_EDGE ( 'NONE', *, *, #1002, .T. ) ;
#821 = CARTESIAN_POINT ( 'NONE',  ( -34.90000000000000568, 16.40000000000004832, -0.5000000000000000000 ) ) ;
#822 = LINE ( 'NONE', #515, #229 ) ;
#823 = ORIENTED_EDGE ( 'NONE', *, *, #675, .F. ) ;
#824 = EDGE_CURVE ( 'NONE', #313, #389, #520, .T. ) ;
#825 = FACE_BOUND ( 'NONE', #497, .T. ) ;
#826 = DIRECTION ( 'NONE',  ( -1.000000000000000000, 0.000000000000000000, 0.000000000000000000 ) ) ;
#827 = VERTEX_POINT ( 'NONE', #340 ) ;
#828 = AXIS2_PLACEMENT_3D ( 'NONE', #400, #1003, #863 ) ;
#829 = CARTESIAN_POINT ( 'NONE',  ( -30.15043464914689508, -11.45134256649546067, -2.529719105988274652 ) ) ;
#830 = EDGE_CURVE ( 'NONE', #667, #596, #955, .T. ) ;
#831 = VECTOR ( 'NONE', #481, 1000.000000000000000 ) ;
#832 = CARTESIAN_POINT ( 'NONE',  ( -29.10000000000001918, 21.90000000000000924, 0.000000000000000000 ) ) ;
#833 = ORIENTED_EDGE ( 'NONE', *, *, #388, .F. ) ;
#834 = CARTESIAN_POINT ( 'NONE',  ( -30.18401397007936993, -11.32641692761689001, -2.374472210084189072 ) ) ;
#835 = DIRECTION ( 'NONE',  ( -1.000000000000000000, 0.000000000000000000, 0.000000000000000000 ) ) ;
#836 = EDGE_CURVE ( 'NONE', #985, #454, #734, .T. ) ;
#837 = EDGE_LOOP ( 'NONE', ( #619, #823, #900, #52, #361, #99, #793, #517, #168, #281 ) ) ;
#838 = ORIENTED_EDGE ( 'NONE', *, *, #516, .T. ) ;
#839 = CARTESIAN_POINT ( 'NONE',  ( -32.10000000000001563, -11.90000000000000924, -10.00000000000000000 ) ) ;
#840 = DIRECTION ( 'NONE',  ( -0.000000000000000000, -0.000000000000000000, 1.000000000000000000 ) ) ;
#841 = EDGE_CURVE ( 'NONE', #507, #334, #406, .T. ) ;
#842 = ORIENTED_EDGE ( 'NONE', *, *, #466, .T. ) ;
#843 = CARTESIAN_POINT ( 'NONE',  ( -29.10000000000000142, -21.89999999999995595, 0.000000000000000000 ) ) ;
#844 = AXIS2_PLACEMENT_3D ( 'NONE', #402, #315, #1005 ) ;
#845 = CARTESIAN_POINT ( 'NONE',  ( -30.50000000000000355, -19.40000000000001634, -0.5000000000000004441 ) ) ;
#846 = CIRCLE ( 'NONE', #180, 3.000000000000009770 ) ;
#847 = CARTESIAN_POINT ( 'NONE',  ( -30.10000000000001563, -11.90000000000000924, -12.50000000000000000 ) ) ;
#848 = ORIENTED_EDGE ( 'NONE', *, *, #830, .F. ) ;
#849 = ADVANCED_FACE ( 'NONE', ( #183, #645 ), #258, .F. ) ;
#850 = FACE_OUTER_BOUND ( 'NONE', #38, .T. ) ;
#851 = LINE ( 'NONE', #709, #398 ) ;
#852 = ORIENTED_EDGE ( 'NONE', *, *, #764, .T. ) ;
#853 = ORIENTED_EDGE ( 'NONE', *, *, #542, .F. ) ;
#854 = CARTESIAN_POINT ( 'NONE',  ( -32.10000000000001563, 16.40000000000004832, 0.000000000000000000 ) ) ;
#855 = EDGE_CURVE ( 'NONE', #891, #27, #341, .T. ) ;
#856 = LINE ( 'NONE', #713, #125 ) ;
#857 = FACE_OUTER_BOUND ( 'NONE', #107, .T. ) ;
#858 = ORIENTED_EDGE ( 'NONE', *, *, #320, .F. ) ;
#859 = CYLINDRICAL_SURFACE ( 'NONE', #261, 1.600000000000000755 ) ;
#860 = DIRECTION ( 'NONE',  ( -0.000000000000000000, -0.000000000000000000, 1.000000000000000000 ) ) ;
#861 = AXIS2_PLACEMENT_3D ( 'NONE', #372, #668, #288 ) ;
#862 = CIRCLE ( 'NONE', #556, 2.000000000000001776 ) ;
#863 = DIRECTION ( 'NONE',  ( 1.000000000000000000, 0.000000000000000000, 0.000000000000000000 ) ) ;
#864 = AXIS2_PLACEMENT_3D ( 'NONE', #113, #581, #499 ) ;
#865 = ORIENTED_EDGE ( 'NONE', *, *, #98, .T. ) ;
#866 = FACE_OUTER_BOUND ( 'NONE', #191, .T. ) ;
#867 = DIRECTION ( 'NONE',  ( 0.000000000000000000, -0.000000000000000000, 1.000000000000000000 ) ) ;
#868 = ADVANCED_FACE ( 'NONE', ( #887 ), #188, .T. ) ;
#869 = VERTEX_POINT ( 'NONE', #16 ) ;
#870 = CARTESIAN_POINT ( 'NONE',  ( -30.11022637957837489, -12.13059436636044630, -2.610284204382427475 ) ) ;
#871 = DIRECTION ( 'NONE',  ( 0.000000000000000000, 0.000000000000000000, -1.000000000000000000 ) ) ;
#872 = ORIENTED_EDGE ( 'NONE', *, *, #365, .F. ) ;
#873 = APPROVAL_STATUS ( 'not_yet_approved' ) ;
#874 = ORIENTED_EDGE ( 'NONE', *, *, #404, .F. ) ;
#875 = CARTESIAN_POINT ( 'NONE',  ( -30.11063027882433119, 12.13346704873712056, -2.609606806004737489 ) ) ;
#876 = CARTESIAN_POINT ( 'NONE',  ( -33.70000000000001705, 19.40000000000000924, -0.5000000000000004441 ) ) ;
#877 = VERTEX_POINT ( 'NONE', #169 ) ;
#878 = CIRCLE ( 'NONE', #471, 2.000000000000001776 ) ;
#879 = APPLICATION_PROTOCOL_DEFINITION ( 'international standard', 'config_control_design', 1994, #696 ) ;
#880 = AXIS2_PLACEMENT_3D ( 'NONE', #289, #219, #534 ) ;
#881 = ORIENTED_EDGE ( 'NONE', *, *, #448, .T. ) ;
#882 = DIRECTION ( 'NONE',  ( 1.000000000000000000, -0.000000000000000000, -0.000000000000000000 ) ) ;
#883 = ADVANCED_FACE ( 'NONE', ( #253 ), #335, .F. ) ;
#884 = CARTESIAN_POINT ( 'NONE',  ( -29.10000000000001918, 21.90000000000000924, -0.5000000000000000000 ) ) ;
#885 = CARTESIAN_POINT ( 'NONE',  ( -32.10000000000000142, -19.40000000000001634, -0.5000000000000004441 ) ) ;
#886 = ORIENTED_EDGE ( 'NONE', *, *, #636, .T. ) ;
#887 = FACE_OUTER_BOUND ( 'NONE', #557, .T. ) ;
#888 = CARTESIAN_POINT ( 'NONE',  ( -30.10000000000001208, 11.78333076990604233, -2.622988929570750027 ) ) ;
#889 = CARTESIAN_POINT ( 'NONE',  ( -24.90000000000000568, -21.89999999999998437, -10.00000000000000000 ) ) ;
#890 = CC_DESIGN_PERSON_AND_ORGANIZATION_ASSIGNMENT ( #265, #275, ( #200 ) ) ;
#891 = VERTEX_POINT ( 'NONE', #623 ) ;
#892 = DIRECTION ( 'NONE',  ( 1.000000000000000000, -0.000000000000000000, 0.000000000000000000 ) ) ;
#893 = EDGE_CURVE ( 'NONE', #722, #76, #777, .T. ) ;
#894 = DIRECTION ( 'NONE',  ( 0.000000000000000000, 0.000000000000000000, 1.000000000000000000 ) ) ;
#895 = AXIS2_PLACEMENT_3D ( 'NONE', #167, #502, #971 ) ;
#896 = EDGE_LOOP ( 'NONE', ( #56, #143, #561, #842 ) ) ;
#897 = LINE ( 'NONE', #821, #718 ) ;
#898 = CARTESIAN_POINT ( 'NONE',  ( -32.10000000000000142, -16.40000000000001990, -0.5000000000000000000 ) ) ;
#899 = ADVANCED_FACE ( 'NONE', ( #857 ), #783, .T. ) ;
#900 = ORIENTED_EDGE ( 'NONE', *, *, #809, .T. ) ;
#901 = DIRECTION ( 'NONE',  ( -0.000000000000000000, -0.000000000000000000, 1.000000000000000000 ) ) ;
#902 = DIRECTION ( 'NONE',  ( 1.000000000000000000, 0.000000000000000000, 0.000000000000000000 ) ) ;
#903 = EDGE_CURVE ( 'NONE', #249, #507, #472, .T. ) ;
#904 = ORIENTED_EDGE ( 'NONE', *, *, #153, .T. ) ;
#905 = CARTESIAN_POINT ( 'NONE',  ( -30.13869573066853391, -11.50459117304333212, -2.136640202818269163 ) ) ;
#906 = DIRECTION ( 'NONE',  ( -0.000000000000000000, 1.000000000000000000, -0.000000000000000000 ) ) ;
#907 = CC_DESIGN_PERSON_AND_ORGANIZATION_ASSIGNMENT ( #338, #496, ( #509 ) ) ;
#908 = ORIENTED_EDGE ( 'NONE', *, *, #40, .F. ) ;
#909 = AXIS2_PLACEMENT_3D ( 'NONE', #154, #618, #932 ) ;
#910 = DIRECTION ( 'NONE',  ( -0.000000000000000000, -0.000000000000000000, 1.000000000000000000 ) ) ;
#911 = AXIS2_PLACEMENT_3D ( 'NONE', #525, #131, #58 ) ;
#912 = EDGE_CURVE ( 'NONE', #667, #198, #155, .T. ) ;
#913 = AXIS2_PLACEMENT_3D ( 'NONE', #730, #742, #574 ) ;
#914 = DIRECTION ( 'NONE',  ( 0.000000000000000000, 0.000000000000000000, 1.000000000000000000 ) ) ;
#915 = EDGE_LOOP ( 'NONE', ( #1004, #116, #757, #744 ) ) ;
#916 = CARTESIAN_POINT ( 'NONE',  ( -34.90000000000000568, -16.40000000000001990, -0.5000000000000000000 ) ) ;
#917 = DIRECTION ( 'NONE',  ( -0.000000000000000000, -0.000000000000000000, 1.000000000000000000 ) ) ;
#918 = EDGE_CURVE ( 'NONE', #985, #773, #710, .T. ) ;
#919 = ORIENTED_EDGE ( 'NONE', *, *, #404, .T. ) ;
#920 = DIRECTION ( 'NONE',  ( 1.000000000000000000, -2.775557561562890957E-15, 0.000000000000000000 ) ) ;
#921 = DIRECTION ( 'NONE',  ( -1.000000000000000000, 0.000000000000000000, 0.000000000000000000 ) ) ;
#922 = DIRECTION ( 'NONE',  ( -2.775557561562890562E-15, -1.000000000000000000, -0.000000000000000000 ) ) ;
#923 = ORIENTED_EDGE ( 'NONE', *, *, #542, .T. ) ;
#924 = DIRECTION ( 'NONE',  ( -1.000000000000000000, 0.000000000000000000, 0.000000000000000000 ) ) ;
#925 = CIRCLE ( 'NONE', #844, 1.600000000000004086 ) ;
#926 = DIRECTION ( 'NONE',  ( -0.000000000000000000, -0.000000000000000000, 1.000000000000000000 ) ) ;
#927 = VECTOR ( 'NONE', #917, 1000.000000000000000 ) ;
#928 = CARTESIAN_POINT ( 'NONE',  ( -34.90000000000000568, 21.89999999999996660, -10.00000000000000000 ) ) ;
#929 = EDGE_LOOP ( 'NONE', ( #858, #763, #919, #728, #427, #405 ) ) ;
#930 = LINE ( 'NONE', #1, #571 ) ;
#931 = CARTESIAN_POINT ( 'NONE',  ( -30.10000000000001563, -11.90000000000000924, -10.00000000000000000 ) ) ;
#932 = DIRECTION ( 'NONE',  ( 0.000000000000000000, 0.000000000000000000, 1.000000000000000000 ) ) ;
#933 = ADVANCED_BREP_SHAPE_REPRESENTATION ( 'upperholder_lid', ( #310, #895 ), #194 ) ;
#934 = ORIENTED_EDGE ( 'NONE', *, *, #725, .F. ) ;
#935 = CARTESIAN_POINT ( 'NONE',  ( -34.90000000000000568, -21.89999999999995595, -12.50000000000000000 ) ) ;
#936 = CARTESIAN_POINT ( 'NONE',  ( -34.10000000000002274, -11.90000000000000924, -10.00000000000000000 ) ) ;
#937 = DIRECTION ( 'NONE',  ( 0.000000000000000000, 0.000000000000000000, 1.000000000000000000 ) ) ;
#938 = VERTEX_POINT ( 'NONE', #306 ) ;
#939 = DIRECTION ( 'NONE',  ( 0.000000000000000000, -1.000000000000000000, -0.000000000000000000 ) ) ;
#940 = DIRECTION ( 'NONE',  ( -0.000000000000000000, -0.000000000000000000, 1.000000000000000000 ) ) ;
#941 = EDGE_CURVE ( 'NONE', #722, #827, #142, .T. ) ;
#942 = VECTOR ( 'NONE', #303, 1000.000000000000000 ) ;
#943 = EDGE_LOOP ( 'NONE', ( #43, #132 ) ) ;
#944 = CARTESIAN_POINT ( 'NONE',  ( -30.09999999999994102, -12.01680580048741298, -2.068246649875333354 ) ) ;
#945 = CARTESIAN_POINT ( 'NONE',  ( -29.89999999999988489, 21.90000000000001990, -2.796549266394475097 ) ) ;
#946 = ORIENTED_EDGE ( 'NONE', *, *, #268, .T. ) ;
#947 = COORDINATED_UNIVERSAL_TIME_OFFSET ( 8, 0, .AHEAD. ) ;
#948 = ORIENTED_EDGE ( 'NONE', *, *, #700, .F. ) ;
#949 = CARTESIAN_POINT ( 'NONE',  ( -30.15043464914685956, 12.34865743350438905, -2.529719105988203598 ) ) ;
#950 = DIRECTION ( 'NONE',  ( 0.000000000000000000, 0.000000000000000000, -1.000000000000000000 ) ) ;
#951 = DIRECTION ( 'NONE',  ( -1.000000000000000000, 0.000000000000000000, 0.000000000000000000 ) ) ;
#952 = COORDINATED_UNIVERSAL_TIME_OFFSET ( 8, 0, .AHEAD. ) ;
#953 = EDGE_CURVE ( 'NONE', #869, #339, #958, .T. ) ;
#954 = ORIENTED_EDGE ( 'NONE', *, *, #824, .T. ) ;
#955 = LINE ( 'NONE', #580, #349 ) ;
#956 = CARTESIAN_POINT ( 'NONE',  ( 6.019233362699192011E-14, 21.89999999999993818, -2.000000000000000444 ) ) ;
#957 = ORIENTED_EDGE ( 'NONE', *, *, #655, .T. ) ;
#958 = CIRCLE ( 'NONE', #11, 1.600000000000004086 ) ;
#959 = VECTOR ( 'NONE', #882, 1000.000000000000000 ) ;
#960 = DATE_TIME_ROLE ( 'classification_date' ) ;
#961 = VECTOR ( 'NONE', #2, 1000.000000000000000 ) ;
#962 = EDGE_CURVE ( 'NONE', #483, #198, #772, .T. ) ;
#963 = ORIENTED_EDGE ( 'NONE', *, *, #516, .F. ) ;
#964 = CARTESIAN_POINT ( 'NONE',  ( -30.13860806752583699, -12.29501252234077135, -2.554790145920974531 ) ) ;
#965 = CARTESIAN_POINT ( 'NONE',  ( -30.17302531879924388, 11.36255404035810024, -2.234714805804846272 ) ) ;
#966 = ORIENTED_EDGE ( 'NONE', *, *, #530, .T. ) ;
#967 = APPROVAL_DATE_TIME ( #345, #457 ) ;
#968 = ORIENTED_EDGE ( 'NONE', *, *, #128, .F. ) ;
#969 = DIRECTION ( 'NONE',  ( -1.000000000000000000, -7.178166107490249636E-15, 0.000000000000000000 ) ) ;
#970 = DIRECTION ( 'NONE',  ( -1.000000000000000000, 0.000000000000000000, 0.000000000000000000 ) ) ;
#971 = DIRECTION ( 'NONE',  ( 1.000000000000000000, 0.000000000000000000, 0.000000000000000000 ) ) ;
#972 = ORIENTED_EDGE ( 'NONE', *, *, #912, .F. ) ;
#973 = CARTESIAN_POINT ( 'NONE',  ( -30.10000000000001563, -11.78353440987593892, -2.622988929570847727 ) ) ;
#974 = FACE_BOUND ( 'NONE', #85, .T. ) ;
#975 = ADVANCED_FACE ( 'NONE', ( #394 ), #629, .T. ) ;
#976 = VECTOR ( 'NONE', #712, 1000.000000000000000 ) ;
#977 = SECURITY_CLASSIFICATION ( '', '', #26 ) ;
#978 = ORIENTED_EDGE ( 'NONE', *, *, #648, .F. ) ;
#979 = AXIS2_PLACEMENT_3D ( 'NONE', #506, #666, #970 ) ;
#980 = DIRECTION ( 'NONE',  ( -2.772389116857911234E-15, -1.000000000000000000, 0.000000000000000000 ) ) ;
#981 = CYLINDRICAL_SURFACE ( 'NONE', #316, 1.600000000000000755 ) ;
#982 = ORIENTED_EDGE ( 'NONE', *, *, #51, .F. ) ;
#983 = CARTESIAN_POINT ( 'NONE',  ( -29.32267413853786664, -21.89999999999997016, -2.000000000000000444 ) ) ;
#984 = DIRECTION ( 'NONE',  ( -2.775557561562890562E-15, -1.000000000000000000, -0.000000000000000000 ) ) ;
#985 = VERTEX_POINT ( 'NONE', #73 ) ;
#986 = EDGE_CURVE ( 'NONE', #368, #572, #590, .T. ) ;
#987 = DIRECTION ( 'NONE',  ( -0.000000000000000000, -0.000000000000000000, 1.000000000000000000 ) ) ;
#988 = DIRECTION ( 'NONE',  ( 0.000000000000000000, 0.000000000000000000, -1.000000000000000000 ) ) ;
#989 = ORIENTED_EDGE ( 'NONE', *, *, #375, .F. ) ;
#990 = ADVANCED_FACE ( 'NONE', ( #540 ), #549, .F. ) ;
#991 = LINE ( 'NONE', #446, #428 ) ;
#992 = AXIS2_PLACEMENT_3D ( 'NONE', #759, #607, #441 ) ;
#993 = VECTOR ( 'NONE', #813, 1000.000000000000000 ) ;
#994 = CYLINDRICAL_SURFACE ( 'NONE', #593, 2.000000000000001776 ) ;
#995 = ORIENTED_EDGE ( 'NONE', *, *, #792, .T. ) ;
#996 = DIRECTION ( 'NONE',  ( 0.000000000000000000, 0.000000000000000000, -1.000000000000000000 ) ) ;
#997 = DIRECTION ( 'NONE',  ( 1.000000000000000000, 1.040834085586058855E-14, 0.000000000000000000 ) ) ;
#998 = DIRECTION ( 'NONE',  ( 0.000000000000000000, -0.000000000000000000, 1.000000000000000000 ) ) ;
#999 = ORIENTED_EDGE ( 'NONE', *, *, #500, .T. ) ;
#1000 = CARTESIAN_POINT ( 'NONE',  ( -30.10000000000001563, 11.90000000000000924, -2.068246649881421373 ) ) ;
#1001 = LINE ( 'NONE', #326, #961 ) ;
#1002 = EDGE_CURVE ( 'NONE', #545, #449, #815, .T. ) ;
#1003 = DIRECTION ( 'NONE',  ( -2.775557561562890957E-15, -1.000000000000000000, 0.000000000000000000 ) ) ;
#1004 = ORIENTED_EDGE ( 'NONE', *, *, #332, .F. ) ;
#1005 = DIRECTION ( 'NONE',  ( -1.000000000000000000, 0.000000000000000000, 0.000000000000000000 ) ) ;
#1006 = VECTOR ( 'NONE', #980, 1000.000000000000000 ) ;
#1007 = CARTESIAN_POINT ( 'NONE',  ( -29.89999999999988489, 21.90000000000001990, -12.50000000000000000 ) ) ;
#1008 = VERTEX_POINT ( 'NONE', #847 ) ;
ENDSEC;
END-ISO-10303-21;
