ISO-10303-21;
HEADER;
FILE_DESCRIPTION (( 'STEP AP203' ),
    '1' );
FILE_NAME ('upperholder_spacer.step',
    '2026-06-05T03:32:58',
    ( '' ),
    ( '' ),
    'SwSTEP 2.0',
    'SolidWorks 2024',
    '' );
FILE_SCHEMA (( 'CONFIG_CONTROL_DESIGN' ));
ENDSEC;

DATA;
#1 = CARTESIAN_POINT ( 'NONE',  ( 0.000000000000000000, 0.000000000000000000, 0.000000000000000000 ) ) ;
#2 = LINE ( 'NONE', #148, #138 ) ;
#3 = PERSON_AND_ORGANIZATION ( #230, #94 ) ;
#4 = ORIENTED_EDGE ( 'NONE', *, *, #59, .F. ) ;
#5 = PERSON_AND_ORGANIZATION_ROLE ( 'creator' ) ;
#6 = ORIENTED_EDGE ( 'NONE', *, *, #206, .F. ) ;
#7 = PERSON_AND_ORGANIZATION ( #230, #94 ) ;
#8 = ORIENTED_EDGE ( 'NONE', *, *, #59, .T. ) ;
#9 = CALENDAR_DATE ( 2026, 5, 6 ) ;
#10 = SECURITY_CLASSIFICATION_LEVEL ( 'unclassified' ) ;
#11 = MANIFOLD_SOLID_BREP ( '¶ñ®Æ-¦ùªø1', #175 ) ;
#12 = AXIS2_PLACEMENT_3D ( 'NONE', #185, #172, #24 ) ;
#13 = EDGE_CURVE ( 'NONE', #233, #58, #79, .T. ) ;
#14 = ORIENTED_EDGE ( 'NONE', *, *, #96, .T. ) ;
#15 = APPLICATION_PROTOCOL_DEFINITION ( 'international standard', 'config_control_design', 1994, #16 ) ;
#16 = APPLICATION_CONTEXT ( 'configuration controlled 3d designs of mechanical parts and assemblies' ) ;
#17 = ORIENTED_EDGE ( 'NONE', *, *, #121, .T. ) ;
#18 = LOCAL_TIME ( 11, 32, 58.00000000000000000, #136 ) ;
#19 = APPROVAL ( #120, 'UNSPECIFIED' ) ;
#20 = CARTESIAN_POINT ( 'NONE',  ( 1.500000000000002887, -21.90000000000000213, 0.000000000000000000 ) ) ;
#21 = PERSON_AND_ORGANIZATION ( #230, #94 ) ;
#22 = CARTESIAN_POINT ( 'NONE',  ( -1.499999999999996669, -21.90000000000000213, 5.200000000000000178 ) ) ;
#23 = SHAPE_DEFINITION_REPRESENTATION ( #61, #48 ) ;
#24 = DIRECTION ( 'NONE',  ( 0.000000000000000000, -0.000000000000000000, -1.000000000000000000 ) ) ;
#25 = DIRECTION ( 'NONE',  ( 1.287180661398315832E-16, -1.000000000000000000, 0.000000000000000000 ) ) ;
#26 = EDGE_CURVE ( 'NONE', #178, #113, #184, .T. ) ;
#27 = DATE_TIME_ROLE ( 'classification_date' ) ;
#28 = ORIENTED_EDGE ( 'NONE', *, *, #96, .F. ) ;
#29 = APPROVAL_DATE_TIME ( #42, #33 ) ;
#30 = LOCAL_TIME ( 11, 32, 58.00000000000000000, #134 ) ;
#31 = ORIENTED_EDGE ( 'NONE', *, *, #26, .T. ) ;
#32 = EDGE_LOOP ( 'NONE', ( #89, #126, #38, #17 ) ) ;
#33 = APPROVAL ( #207, 'UNSPECIFIED' ) ;
#34 =( NAMED_UNIT ( * ) SI_UNIT ( $, .STERADIAN. ) SOLID_ANGLE_UNIT ( ) );
#35 = APPROVAL_PERSON_ORGANIZATION ( #21, #91, #157 ) ;
#36 = CARTESIAN_POINT ( 'NONE',  ( 1.500000000000002887, -21.90000000000000213, 5.200000000000000178 ) ) ;
#37 = CARTESIAN_POINT ( 'NONE',  ( 0.000000000000000000, 0.000000000000000000, 5.200000000000000178 ) ) ;
#38 = ORIENTED_EDGE ( 'NONE', *, *, #81, .F. ) ;
#39 = ADVANCED_FACE ( 'NONE', ( #95 ), #116, .F. ) ;
#40 = ORIENTED_EDGE ( 'NONE', *, *, #121, .F. ) ;
#41 = APPROVAL_PERSON_ORGANIZATION ( #7, #33, #153 ) ;
#42 = DATE_AND_TIME ( #84, #66 ) ;
#43 = DIRECTION ( 'NONE',  ( -1.000000000000000000, -0.000000000000000000, -0.000000000000000000 ) ) ;
#44 = DATE_AND_TIME ( #9, #30 ) ;
#45 = LINE ( 'NONE', #152, #232 ) ;
#46 = PERSON_AND_ORGANIZATION ( #230, #94 ) ;
#47 = DATE_AND_TIME ( #190, #165 ) ;
#48 = ADVANCED_BREP_SHAPE_REPRESENTATION ( 'upperholder_spacer', ( #11, #108 ), #133 ) ;
#49 = CC_DESIGN_APPROVAL ( #19, ( #114 ) ) ;
#50 = CC_DESIGN_PERSON_AND_ORGANIZATION_ASSIGNMENT ( #115, #119, ( #83 ) ) ;
#51 = VECTOR ( 'NONE', #179, 1000.000000000000000 ) ;
#52 = CARTESIAN_POINT ( 'NONE',  ( 1.499999999999997558, 21.89999999999999503, 0.000000000000000000 ) ) ;
#53 = CARTESIAN_POINT ( 'NONE',  ( 1.499999999999997558, 21.89999999999999503, 0.000000000000000000 ) ) ;
#54 = ORIENTED_EDGE ( 'NONE', *, *, #151, .T. ) ;
#55 = PERSON_AND_ORGANIZATION_ROLE ( 'design_owner' ) ;
#56 = AXIS2_PLACEMENT_3D ( 'NONE', #180, #75, #200 ) ;
#57 = CARTESIAN_POINT ( 'NONE',  ( -1.500000000000002442, 21.89999999999999503, 0.000000000000000000 ) ) ;
#58 = VERTEX_POINT ( 'NONE', #135 ) ;
#59 = EDGE_CURVE ( 'NONE', #125, #141, #77, .T. ) ;
#60 = CARTESIAN_POINT ( 'NONE',  ( 1.499999999999997558, 21.89999999999999503, 5.200000000000000178 ) ) ;
#61 = PRODUCT_DEFINITION_SHAPE ( 'NONE', 'NONE',  #101 ) ;
#62 = DIRECTION ( 'NONE',  ( -1.188166764367676095E-16, 1.000000000000000000, -0.000000000000000000 ) ) ;
#63 = VECTOR ( 'NONE', #92, 1000.000000000000000 ) ;
#64 = EDGE_LOOP ( 'NONE', ( #70, #107, #28, #196 ) ) ;
#65 = ADVANCED_FACE ( 'NONE', ( #201 ), #208, .F. ) ;
#66 = LOCAL_TIME ( 11, 32, 58.00000000000000000, #228 ) ;
#67 = CC_DESIGN_APPROVAL ( #33, ( #83 ) ) ;
#68 = ORIENTED_EDGE ( 'NONE', *, *, #186, .F. ) ;
#69 = DIRECTION ( 'NONE',  ( 1.000000000000000000, 0.000000000000000000, 0.000000000000000000 ) ) ;
#70 = ORIENTED_EDGE ( 'NONE', *, *, #186, .T. ) ;
#71 = CARTESIAN_POINT ( 'NONE',  ( -1.500000000000002442, 21.89999999999999503, 5.200000000000000178 ) ) ;
#72 = AXIS2_PLACEMENT_3D ( 'NONE', #60, #183, #112 ) ;
#73 = LINE ( 'NONE', #53, #212 ) ;
#74 = PLANE ( 'NONE',  #56 ) ;
#75 = DIRECTION ( 'NONE',  ( 0.000000000000000000, 1.000000000000000000, 0.000000000000000000 ) ) ;
#76 = EDGE_LOOP ( 'NONE', ( #202, #98, #82, #219 ) ) ;
#77 = LINE ( 'NONE', #224, #193 ) ;
#78 = APPROVAL_DATE_TIME ( #225, #19 ) ;
#79 = LINE ( 'NONE', #130, #177 ) ;
#80 = COORDINATED_UNIVERSAL_TIME_OFFSET ( 8, 0, .AHEAD. ) ;
#81 = EDGE_CURVE ( 'NONE', #141, #178, #45, .T. ) ;
#82 = ORIENTED_EDGE ( 'NONE', *, *, #26, .F. ) ;
#83 = PRODUCT_DEFINITION_FORMATION_WITH_SPECIFIED_SOURCE ( 'ANY', '', #161, .NOT_KNOWN. ) ;
#84 = CALENDAR_DATE ( 2026, 5, 6 ) ;
#85 = EDGE_CURVE ( 'NONE', #113, #123, #188, .T. ) ;
#86 = EDGE_LOOP ( 'NONE', ( #54, #40, #4, #104 ) ) ;
#87 = FACE_OUTER_BOUND ( 'NONE', #132, .T. ) ;
#88 = CC_DESIGN_PERSON_AND_ORGANIZATION_ASSIGNMENT ( #222, #117, ( #114 ) ) ;
#89 = ORIENTED_EDGE ( 'NONE', *, *, #13, .T. ) ;
#90 = FACE_OUTER_BOUND ( 'NONE', #131, .T. ) ;
#91 = APPROVAL ( #99, 'UNSPECIFIED' ) ;
#92 = DIRECTION ( 'NONE',  ( 1.000000000000000000, 0.000000000000000000, 0.000000000000000000 ) ) ;
#93 = CARTESIAN_POINT ( 'NONE',  ( -1.499999999999996669, -21.90000000000000213, 5.200000000000000178 ) ) ;
#94 = ORGANIZATION ( 'UNSPECIFIED', 'UNSPECIFIED', '' ) ;
#95 = FACE_OUTER_BOUND ( 'NONE', #86, .T. ) ;
#96 = EDGE_CURVE ( 'NONE', #113, #125, #110, .T. ) ;
#97 = COORDINATED_UNIVERSAL_TIME_OFFSET ( 8, 0, .AHEAD. ) ;
#98 = ORIENTED_EDGE ( 'NONE', *, *, #85, .F. ) ;
#99 = APPROVAL_STATUS ( 'not_yet_approved' ) ;
#100 = VECTOR ( 'NONE', #205, 1000.000000000000000 ) ;
#101 = PRODUCT_DEFINITION ( 'UNKNOWN', '', #83, #210 ) ;
#102 = CC_DESIGN_APPROVAL ( #91, ( #101 ) ) ;
#103 = DIRECTION ( 'NONE',  ( 1.000000000000000000, 0.000000000000000000, 0.000000000000000000 ) ) ;
#104 = ORIENTED_EDGE ( 'NONE', *, *, #105, .T. ) ;
#105 = EDGE_CURVE ( 'NONE', #125, #181, #168, .T. ) ;
#106 = DIRECTION ( 'NONE',  ( -0.000000000000000000, 0.000000000000000000, 1.000000000000000000 ) ) ;
#107 = ORIENTED_EDGE ( 'NONE', *, *, #105, .F. ) ;
#108 = AXIS2_PLACEMENT_3D ( 'NONE', #1, #234, #69 ) ;
#109 = FACE_OUTER_BOUND ( 'NONE', #76, .T. ) ;
#110 = LINE ( 'NONE', #22, #63 ) ;
#111 = PLANE ( 'NONE',  #156 ) ;
#112 = DIRECTION ( 'NONE',  ( 1.188166764367676095E-16, -1.000000000000000000, 0.000000000000000000 ) ) ;
#113 = VERTEX_POINT ( 'NONE', #150 ) ;
#114 = SECURITY_CLASSIFICATION ( '', '', #10 ) ;
#115 = PERSON_AND_ORGANIZATION ( #230, #94 ) ;
#116 = PLANE ( 'NONE',  #72 ) ;
#117 = PERSON_AND_ORGANIZATION_ROLE ( 'classification_officer' ) ;
#118 = ORIENTED_EDGE ( 'NONE', *, *, #13, .F. ) ;
#119 = PERSON_AND_ORGANIZATION_ROLE ( 'design_supplier' ) ;
#120 = APPROVAL_STATUS ( 'not_yet_approved' ) ;
#121 = EDGE_CURVE ( 'NONE', #141, #233, #2, .T. ) ;
#122 = APPROVAL_PERSON_ORGANIZATION ( #203, #19, #158 ) ;
#123 = VERTEX_POINT ( 'NONE', #223 ) ;
#124 = PLANE ( 'NONE',  #159 ) ;
#125 = VERTEX_POINT ( 'NONE', #36 ) ;
#126 = ORIENTED_EDGE ( 'NONE', *, *, #160, .F. ) ;
#127 = DIRECTION ( 'NONE',  ( 1.000000000000000000, 0.000000000000000000, 0.000000000000000000 ) ) ;
#128 = ADVANCED_FACE ( 'NONE', ( #87 ), #111, .T. ) ;
#129 = APPLICATION_PROTOCOL_DEFINITION ( 'international standard', 'config_control_design', 1994, #211 ) ;
#130 = CARTESIAN_POINT ( 'NONE',  ( -1.500000000000002442, 21.89999999999999503, 0.000000000000000000 ) ) ;
#131 = EDGE_LOOP ( 'NONE', ( #139, #68, #6, #118 ) ) ;
#132 = EDGE_LOOP ( 'NONE', ( #8, #215, #31, #14 ) ) ;
#133 =( GEOMETRIC_REPRESENTATION_CONTEXT ( 3 ) GLOBAL_UNCERTAINTY_ASSIGNED_CONTEXT ( ( #189 ) ) GLOBAL_UNIT_ASSIGNED_CONTEXT ( ( #195, #163, #34 ) ) REPRESENTATION_CONTEXT ( 'NONE', 'WORKASPACE' ) );
#134 = COORDINATED_UNIVERSAL_TIME_OFFSET ( 8, 0, .AHEAD. ) ;
#135 = CARTESIAN_POINT ( 'NONE',  ( -1.500000000000002442, 21.89999999999999503, 0.000000000000000000 ) ) ;
#136 = COORDINATED_UNIVERSAL_TIME_OFFSET ( 8, 0, .AHEAD. ) ;
#137 = ADVANCED_FACE ( 'NONE', ( #90 ), #124, .F. ) ;
#138 = VECTOR ( 'NONE', #221, 1000.000000000000000 ) ;
#139 = ORIENTED_EDGE ( 'NONE', *, *, #151, .F. ) ;
#140 = CC_DESIGN_DATE_AND_TIME_ASSIGNMENT ( #47, #169, ( #101 ) ) ;
#141 = VERTEX_POINT ( 'NONE', #217 ) ;
#142 = CARTESIAN_POINT ( 'NONE',  ( 0.000000000000000000, 0.000000000000000000, 0.000000000000000000 ) ) ;
#143 = VECTOR ( 'NONE', #218, 1000.000000000000000 ) ;
#144 = LINE ( 'NONE', #167, #236 ) ;
#145 = CC_DESIGN_DATE_AND_TIME_ASSIGNMENT ( #176, #27, ( #114 ) ) ;
#146 = PERSON_AND_ORGANIZATION ( #230, #94 ) ;
#147 = DIRECTION ( 'NONE',  ( -1.188166764367676095E-16, 1.000000000000000000, -0.000000000000000000 ) ) ;
#148 = CARTESIAN_POINT ( 'NONE',  ( 1.499999999999997558, 21.89999999999999503, 5.200000000000000178 ) ) ;
#149 = PERSON_AND_ORGANIZATION_ROLE ( 'creator' ) ;
#150 = CARTESIAN_POINT ( 'NONE',  ( -1.499999999999996669, -21.90000000000000213, 5.200000000000000178 ) ) ;
#151 = EDGE_CURVE ( 'NONE', #181, #233, #73, .T. ) ;
#152 = CARTESIAN_POINT ( 'NONE',  ( -1.500000000000002442, 21.89999999999999503, 5.200000000000000178 ) ) ;
#153 = APPROVAL_ROLE ( '' ) ;
#154 = DIRECTION ( 'NONE',  ( -1.000000000000000000, -0.000000000000000000, -0.000000000000000000 ) ) ;
#155 = CC_DESIGN_SECURITY_CLASSIFICATION ( #114, ( #83 ) ) ;
#156 = AXIS2_PLACEMENT_3D ( 'NONE', #37, #198, #237 ) ;
#157 = APPROVAL_ROLE ( '' ) ;
#158 = APPROVAL_ROLE ( '' ) ;
#159 = AXIS2_PLACEMENT_3D ( 'NONE', #142, #106, #103 ) ;
#160 = EDGE_CURVE ( 'NONE', #178, #58, #197, .T. ) ;
#161 = PRODUCT ( 'upperholder_spacer', 'upperholder_spacer', '', ( #166 ) ) ;
#162 = CARTESIAN_POINT ( 'NONE',  ( -1.500000000000002442, 21.89999999999999503, 5.200000000000000178 ) ) ;
#163 =( NAMED_UNIT ( * ) PLANE_ANGLE_UNIT ( ) SI_UNIT ( $, .RADIAN. ) );
#164 = DIRECTION ( 'NONE',  ( -1.287180661398315832E-16, 1.000000000000000000, 0.000000000000000000 ) ) ;
#165 = LOCAL_TIME ( 11, 32, 58.00000000000000000, #80 ) ;
#166 = MECHANICAL_CONTEXT ( 'NONE', #16, 'mechanical' ) ;
#167 = CARTESIAN_POINT ( 'NONE',  ( -1.499999999999996669, -21.90000000000000213, 0.000000000000000000 ) ) ;
#168 = LINE ( 'NONE', #170, #100 ) ;
#169 = DATE_TIME_ROLE ( 'creation_date' ) ;
#170 = CARTESIAN_POINT ( 'NONE',  ( 1.500000000000002887, -21.90000000000000213, 5.200000000000000178 ) ) ;
#171 = ADVANCED_FACE ( 'NONE', ( #182 ), #74, .F. ) ;
#172 = DIRECTION ( 'NONE',  ( 0.000000000000000000, -1.000000000000000000, 0.000000000000000000 ) ) ;
#173 = CALENDAR_DATE ( 2026, 5, 6 ) ;
#174 = DIRECTION ( 'NONE',  ( -0.000000000000000000, -0.000000000000000000, -1.000000000000000000 ) ) ;
#175 = CLOSED_SHELL ( 'NONE', ( #39, #65, #199, #171, #128, #137 ) ) ;
#176 = DATE_AND_TIME ( #187, #226 ) ;
#177 = VECTOR ( 'NONE', #154, 1000.000000000000000 ) ;
#178 = VERTEX_POINT ( 'NONE', #194 ) ;
#179 = DIRECTION ( 'NONE',  ( 1.287180661398315832E-16, -1.000000000000000000, 0.000000000000000000 ) ) ;
#180 = CARTESIAN_POINT ( 'NONE',  ( -1.499999999999996669, -21.90000000000000213, 5.200000000000000178 ) ) ;
#181 = VERTEX_POINT ( 'NONE', #20 ) ;
#182 = FACE_OUTER_BOUND ( 'NONE', #64, .T. ) ;
#183 = DIRECTION ( 'NONE',  ( -1.000000000000000000, -1.188166764367676095E-16, 0.000000000000000000 ) ) ;
#184 = LINE ( 'NONE', #227, #204 ) ;
#185 = CARTESIAN_POINT ( 'NONE',  ( -1.500000000000002442, 21.89999999999999503, 5.200000000000000178 ) ) ;
#186 = EDGE_CURVE ( 'NONE', #123, #181, #144, .T. ) ;
#187 = CALENDAR_DATE ( 2026, 5, 6 ) ;
#188 = LINE ( 'NONE', #93, #192 ) ;
#189 = UNCERTAINTY_MEASURE_WITH_UNIT (LENGTH_MEASURE( 1.000000000000000082E-05 ), #195, 'distance_accuracy_value', 'NONE');
#190 = CALENDAR_DATE ( 2026, 5, 6 ) ;
#191 = CC_DESIGN_PERSON_AND_ORGANIZATION_ASSIGNMENT ( #46, #149, ( #101 ) ) ;
#192 = VECTOR ( 'NONE', #174, 1000.000000000000000 ) ;
#193 = VECTOR ( 'NONE', #62, 1000.000000000000000 ) ;
#194 = CARTESIAN_POINT ( 'NONE',  ( -1.500000000000002442, 21.89999999999999503, 5.200000000000000178 ) ) ;
#195 =( LENGTH_UNIT ( ) NAMED_UNIT ( * ) SI_UNIT ( .MILLI., .METRE. ) );
#196 = ORIENTED_EDGE ( 'NONE', *, *, #85, .T. ) ;
#197 = LINE ( 'NONE', #71, #143 ) ;
#198 = DIRECTION ( 'NONE',  ( -0.000000000000000000, 0.000000000000000000, 1.000000000000000000 ) ) ;
#199 = ADVANCED_FACE ( 'NONE', ( #109 ), #214, .F. ) ;
#200 = DIRECTION ( 'NONE',  ( 0.000000000000000000, -0.000000000000000000, 1.000000000000000000 ) ) ;
#201 = FACE_OUTER_BOUND ( 'NONE', #32, .T. ) ;
#202 = ORIENTED_EDGE ( 'NONE', *, *, #206, .T. ) ;
#203 = PERSON_AND_ORGANIZATION ( #230, #94 ) ;
#204 = VECTOR ( 'NONE', #25, 1000.000000000000000 ) ;
#205 = DIRECTION ( 'NONE',  ( -0.000000000000000000, -0.000000000000000000, -1.000000000000000000 ) ) ;
#206 = EDGE_CURVE ( 'NONE', #58, #123, #220, .T. ) ;
#207 = APPROVAL_STATUS ( 'not_yet_approved' ) ;
#208 = PLANE ( 'NONE',  #12 ) ;
#209 = APPROVAL_DATE_TIME ( #44, #91 ) ;
#210 = DESIGN_CONTEXT ( 'detailed design', #211, 'design' ) ;
#211 = APPLICATION_CONTEXT ( 'configuration controlled 3d designs of mechanical parts and assemblies' ) ;
#212 = VECTOR ( 'NONE', #147, 1000.000000000000000 ) ;
#213 = PRODUCT_RELATED_PRODUCT_CATEGORY ( 'detail', '', ( #161 ) ) ;
#214 = PLANE ( 'NONE',  #229 ) ;
#215 = ORIENTED_EDGE ( 'NONE', *, *, #81, .T. ) ;
#216 = DIRECTION ( 'NONE',  ( 1.000000000000000000, 1.287180661398315832E-16, -0.000000000000000000 ) ) ;
#217 = CARTESIAN_POINT ( 'NONE',  ( 1.499999999999997558, 21.89999999999999503, 5.200000000000000178 ) ) ;
#218 = DIRECTION ( 'NONE',  ( -0.000000000000000000, -0.000000000000000000, -1.000000000000000000 ) ) ;
#219 = ORIENTED_EDGE ( 'NONE', *, *, #160, .T. ) ;
#220 = LINE ( 'NONE', #57, #51 ) ;
#221 = DIRECTION ( 'NONE',  ( -0.000000000000000000, -0.000000000000000000, -1.000000000000000000 ) ) ;
#222 = PERSON_AND_ORGANIZATION ( #230, #94 ) ;
#223 = CARTESIAN_POINT ( 'NONE',  ( -1.499999999999996669, -21.90000000000000213, 0.000000000000000000 ) ) ;
#224 = CARTESIAN_POINT ( 'NONE',  ( 1.499999999999997558, 21.89999999999999503, 5.200000000000000178 ) ) ;
#225 = DATE_AND_TIME ( #173, #18 ) ;
#226 = LOCAL_TIME ( 11, 32, 58.00000000000000000, #97 ) ;
#227 = CARTESIAN_POINT ( 'NONE',  ( -1.500000000000002442, 21.89999999999999503, 5.200000000000000178 ) ) ;
#228 = COORDINATED_UNIVERSAL_TIME_OFFSET ( 8, 0, .AHEAD. ) ;
#229 = AXIS2_PLACEMENT_3D ( 'NONE', #162, #216, #164 ) ;
#230 = PERSON ( 'UNSPECIFIED', 'UNSPECIFIED', 'UNSPECIFIED', ('UNSPECIFIED'), ('UNSPECIFIED'), ('UNSPECIFIED') ) ;
#231 = CC_DESIGN_PERSON_AND_ORGANIZATION_ASSIGNMENT ( #3, #5, ( #83 ) ) ;
#232 = VECTOR ( 'NONE', #43, 1000.000000000000000 ) ;
#233 = VERTEX_POINT ( 'NONE', #52 ) ;
#234 = DIRECTION ( 'NONE',  ( 0.000000000000000000, 0.000000000000000000, 1.000000000000000000 ) ) ;
#235 = CC_DESIGN_PERSON_AND_ORGANIZATION_ASSIGNMENT ( #146, #55, ( #161 ) ) ;
#236 = VECTOR ( 'NONE', #127, 1000.000000000000000 ) ;
#237 = DIRECTION ( 'NONE',  ( 1.000000000000000000, 0.000000000000000000, 0.000000000000000000 ) ) ;
ENDSEC;
END-ISO-10303-21;
