ISO-10303-21;
HEADER;
FILE_DESCRIPTION (( 'STEP AP203' ),
    '1' );
FILE_NAME ('¹Ô¶ô.step',
    '2026-06-05T03:32:57',
    ( '' ),
    ( '' ),
    'SwSTEP 2.0',
    'SolidWorks 2024',
    '' );
FILE_SCHEMA (( 'CONFIG_CONTROL_DESIGN' ));
ENDSEC;

DATA;
#1 = DIRECTION ( 'NONE',  ( 0.000000000000000000, 0.000000000000000000, -1.000000000000000000 ) ) ;
#2 = CARTESIAN_POINT ( 'NONE',  ( 12.48864249050215136, -12.52303061730652800, 0.5000000000000000000 ) ) ;
#3 = DIRECTION ( 'NONE',  ( 0.000000000000000000, -0.000000000000000000, -1.000000000000000000 ) ) ;
#4 = CARTESIAN_POINT ( 'NONE',  ( 10.66996109432390938, -23.85352077758102496, 0.5000000000000000000 ) ) ;
#5 = EDGE_CURVE ( 'NONE', #655, #756, #568, .T. ) ;
#6 = ADVANCED_FACE ( 'NONE', ( #153 ), #530, .F. ) ;
#7 = ORIENTED_EDGE ( 'NONE', *, *, #808, .F. ) ;
#8 = FACE_OUTER_BOUND ( 'NONE', #295, .T. ) ;
#9 = DIRECTION ( 'NONE',  ( -0.000000000000000000, -0.000000000000000000, 1.000000000000000000 ) ) ;
#10 = DIRECTION ( 'NONE',  ( 0.000000000000000000, 0.000000000000000000, -1.000000000000000000 ) ) ;
#11 = CARTESIAN_POINT ( 'NONE',  ( 17.50000000000000000, 3.673940397442054445E-16, 0.5000000000000000000 ) ) ;
#12 = CARTESIAN_POINT ( 'NONE',  ( 15.14119263584339237, -18.90052156232992431, 0.5000000000000000000 ) ) ;
#13 = CARTESIAN_POINT ( 'NONE',  ( 30.60000000000000497, 17.89999999999999503, 0.5000000000000000000 ) ) ;
#14 = VECTOR ( 'NONE', #1182, 1000.000000000000000 ) ;
#15 = AXIS2_PLACEMENT_3D ( 'NONE', #175, #814, #819 ) ;
#16 = CIRCLE ( 'NONE', #789, 3.099999999999998757 ) ;
#17 = DIRECTION ( 'NONE',  ( -0.000000000000000000, -0.000000000000000000, 1.000000000000000000 ) ) ;
#18 = ORIENTED_EDGE ( 'NONE', *, *, #601, .F. ) ;
#19 = DIRECTION ( 'NONE',  ( -1.000000000000000000, 0.000000000000000000, 0.000000000000000000 ) ) ;
#20 = PERSON_AND_ORGANIZATION ( #1042, #358 ) ;
#21 = LINE ( 'NONE', #117, #897 ) ;
#22 = VERTEX_POINT ( 'NONE', #140 ) ;
#23 = EDGE_CURVE ( 'NONE', #981, #785, #1187, .T. ) ;
#24 = CARTESIAN_POINT ( 'NONE',  ( 16.24119263584340445, 18.90052156232993141, 0.5000000000000000000 ) ) ;
#25 = ORIENTED_EDGE ( 'NONE', *, *, #525, .T. ) ;
#26 = CYLINDRICAL_SURFACE ( 'NONE', #405, 2.999999999999999112 ) ;
#27 = PERSON_AND_ORGANIZATION_ROLE ( 'creator' ) ;
#28 = CARTESIAN_POINT ( 'NONE',  ( 10.66996109432390938, 23.85352077758102496, 0.5000000000000000000 ) ) ;
#29 = ORIENTED_EDGE ( 'NONE', *, *, #808, .T. ) ;
#30 = EDGE_CURVE ( 'NONE', #47, #1015, #790, .T. ) ;
#31 = DIRECTION ( 'NONE',  ( 0.000000000000000000, 0.000000000000000000, -1.000000000000000000 ) ) ;
#32 = ORIENTED_EDGE ( 'NONE', *, *, #176, .F. ) ;
#33 = DIRECTION ( 'NONE',  ( 0.000000000000000000, 0.000000000000000000, -1.000000000000000000 ) ) ;
#34 = APPLICATION_PROTOCOL_DEFINITION ( 'international standard', 'config_control_design', 1994, #749 ) ;
#35 = DIRECTION ( 'NONE',  ( 1.000000000000000000, 0.000000000000000000, 0.000000000000000000 ) ) ;
#36 = LOCAL_TIME ( 11, 32, 57.00000000000000000, #1165 ) ;
#37 = ORIENTED_EDGE ( 'NONE', *, *, #696, .T. ) ;
#38 = AXIS2_PLACEMENT_3D ( 'NONE', #408, #490, #475 ) ;
#39 = CIRCLE ( 'NONE', #705, 2.999999999999999112 ) ;
#40 = DIRECTION ( 'NONE',  ( -0.000000000000000000, -0.000000000000000000, -1.000000000000000000 ) ) ;
#41 = AXIS2_PLACEMENT_3D ( 'NONE', #1136, #33, #1125 ) ;
#42 = CIRCLE ( 'NONE', #185, 3.099999999999998757 ) ;
#43 = ORIENTED_EDGE ( 'NONE', *, *, #226, .F. ) ;
#44 = CARTESIAN_POINT ( 'NONE',  ( 13.58864249050215278, -12.52303061730652800, 0.000000000000000000 ) ) ;
#45 = EDGE_LOOP ( 'NONE', ( #882, #1091, #878, #322 ) ) ;
#46 = DIRECTION ( 'NONE',  ( 0.000000000000000000, 0.000000000000000000, 1.000000000000000000 ) ) ;
#47 = VERTEX_POINT ( 'NONE', #923 ) ;
#48 = EDGE_CURVE ( 'NONE', #518, #665, #320, .T. ) ;
#49 = CARTESIAN_POINT ( 'NONE',  ( 24.80000000000000426, -21.90000000000000213, 0.5000000000000004441 ) ) ;
#50 = ORIENTED_EDGE ( 'NONE', *, *, #5, .T. ) ;
#51 = ORIENTED_EDGE ( 'NONE', *, *, #967, .T. ) ;
#52 = CYLINDRICAL_SURFACE ( 'NONE', #204, 1.100000000000000311 ) ;
#53 = VERTEX_POINT ( 'NONE', #739 ) ;
#54 = LOCAL_TIME ( 11, 32, 57.00000000000000000, #126 ) ;
#55 = AXIS2_PLACEMENT_3D ( 'NONE', #373, #858, #486 ) ;
#56 = ORIENTED_EDGE ( 'NONE', *, *, #423, .T. ) ;
#57 = AXIS2_PLACEMENT_3D ( 'NONE', #1004, #909, #732 ) ;
#58 = CARTESIAN_POINT ( 'NONE',  ( 16.24119263584339379, -18.90052156232992431, 0.5000000000000000000 ) ) ;
#59 = VERTEX_POINT ( 'NONE', #1191 ) ;
#60 = EDGE_CURVE ( 'NONE', #232, #282, #363, .T. ) ;
#61 = SHAPE_DEFINITION_REPRESENTATION ( #343, #829 ) ;
#62 = VERTEX_POINT ( 'NONE', #263 ) ;
#63 = FACE_OUTER_BOUND ( 'NONE', #1052, .T. ) ;
#64 = ORIENTED_EDGE ( 'NONE', *, *, #597, .T. ) ;
#65 = ADVANCED_FACE ( 'NONE', ( #901 ), #729, .F. ) ;
#66 = CALENDAR_DATE ( 2026, 5, 6 ) ;
#67 = EDGE_LOOP ( 'NONE', ( #416, #1161, #167, #155 ) ) ;
#68 = CARTESIAN_POINT ( 'NONE',  ( 11.75166017604695057, 9.773131987064546777, 0.000000000000000000 ) ) ;
#69 = EDGE_LOOP ( 'NONE', ( #695, #1063 ) ) ;
#70 = ORIENTED_EDGE ( 'NONE', *, *, #784, .F. ) ;
#71 = VECTOR ( 'NONE', #356, 1000.000000000000000 ) ;
#72 = DIRECTION ( 'NONE',  ( -0.000000000000000000, -0.000000000000000000, 1.000000000000000000 ) ) ;
#73 = VECTOR ( 'NONE', #843, 1000.000000000000000 ) ;
#74 = DIRECTION ( 'NONE',  ( 1.000000000000000000, 0.000000000000000000, 0.000000000000000000 ) ) ;
#75 = ORIENTED_EDGE ( 'NONE', *, *, #95, .T. ) ;
#76 = ORIENTED_EDGE ( 'NONE', *, *, #1170, .T. ) ;
#77 = APPROVAL ( #150, 'UNSPECIFIED' ) ;
#78 = CARTESIAN_POINT ( 'NONE',  ( 29.90000000000001279, -21.90000000000000213, -9.500000000000000000 ) ) ;
#79 = EDGE_CURVE ( 'NONE', #342, #835, #473, .T. ) ;
#80 = CARTESIAN_POINT ( 'NONE',  ( 16.24119263584340445, 18.90052156232993141, 0.000000000000000000 ) ) ;
#81 = CARTESIAN_POINT ( 'NONE',  ( 16.24119263584339379, -18.90052156232992431, 0.5000000000000000000 ) ) ;
#82 = CARTESIAN_POINT ( 'NONE',  ( 11.76996109432391080, -23.85352077758102496, 0.000000000000000000 ) ) ;
#83 = ORIENTED_EDGE ( 'NONE', *, *, #147, .F. ) ;
#84 = CARTESIAN_POINT ( 'NONE',  ( 9.569961094323909734, -23.85352077758102496, 0.5000000000000000000 ) ) ;
#85 = CARTESIAN_POINT ( 'NONE',  ( 23.50000000000000000, 0.000000000000000000, 0.5000000000000000000 ) ) ;
#86 = ADVANCED_FACE ( 'NONE', ( #649 ), #905, .T. ) ;
#87 = FACE_OUTER_BOUND ( 'NONE', #67, .T. ) ;
#88 = ORIENTED_EDGE ( 'NONE', *, *, #1089, .F. ) ;
#89 = CC_DESIGN_APPROVAL ( #77, ( #1104 ) ) ;
#90 = AXIS2_PLACEMENT_3D ( 'NONE', #567, #17, #953 ) ;
#91 = CARTESIAN_POINT ( 'NONE',  ( 10.66996109432390938, 23.85352077758102496, 0.5000000000000000000 ) ) ;
#92 = CARTESIAN_POINT ( 'NONE',  ( 24.50000000000000000, 16.90000000000000568, 0.000000000000000000 ) ) ;
#93 = CARTESIAN_POINT ( 'NONE',  ( 34.90000000000000568, 5.528936010190920308E-15, 0.5000000000000000000 ) ) ;
#94 = AXIS2_PLACEMENT_3D ( 'NONE', #831, #97, #899 ) ;
#95 = EDGE_CURVE ( 'NONE', #327, #22, #1087, .T. ) ;
#96 = FACE_BOUND ( 'NONE', #692, .T. ) ;
#97 = DIRECTION ( 'NONE',  ( 5.801750755775273780E-17, -1.000000000000000000, 0.000000000000000000 ) ) ;
#98 = DIRECTION ( 'NONE',  ( -0.000000000000000000, 0.000000000000000000, 1.000000000000000000 ) ) ;
#99 = DIRECTION ( 'NONE',  ( 0.000000000000000000, -1.000000000000000000, 0.000000000000000000 ) ) ;
#100 = FACE_BOUND ( 'NONE', #1023, .T. ) ;
#101 = ADVANCED_FACE ( 'NONE', ( #554 ), #369, .F. ) ;
#102 = ORIENTED_EDGE ( 'NONE', *, *, #1005, .F. ) ;
#103 = CYLINDRICAL_SURFACE ( 'NONE', #914, 2.599999999999998312 ) ;
#104 = DIRECTION ( 'NONE',  ( -0.000000000000000000, -0.000000000000000000, -1.000000000000000000 ) ) ;
#105 = DIRECTION ( 'NONE',  ( 1.000000000000000000, 0.000000000000000000, 0.000000000000000000 ) ) ;
#106 = ORIENTED_EDGE ( 'NONE', *, *, #23, .T. ) ;
#107 = LINE ( 'NONE', #1117, #1172 ) ;
#108 = CARTESIAN_POINT ( 'NONE',  ( 27.90000000000000213, 21.90000000000000213, -8.900000000000000355 ) ) ;
#109 = CARTESIAN_POINT ( 'NONE',  ( 29.90000000000001279, -26.89999999999999858, -9.500000000000000000 ) ) ;
#110 = AXIS2_PLACEMENT_3D ( 'NONE', #853, #1142, #761 ) ;
#111 = ORIENTED_EDGE ( 'NONE', *, *, #1075, .F. ) ;
#112 = VECTOR ( 'NONE', #442, 1000.000000000000000 ) ;
#113 = CARTESIAN_POINT ( 'NONE',  ( 27.90000000000000213, 21.90000000000000213, 0.5000000000000004441 ) ) ;
#114 = VERTEX_POINT ( 'NONE', #13 ) ;
#115 = DIRECTION ( 'NONE',  ( -0.000000000000000000, -0.000000000000000000, -1.000000000000000000 ) ) ;
#116 = EDGE_CURVE ( 'NONE', #1135, #470, #593, .T. ) ;
#117 = CARTESIAN_POINT ( 'NONE',  ( 9.569961094323909734, -23.85352077758102496, 0.5000000000000000000 ) ) ;
#118 = ADVANCED_FACE ( 'NONE', ( #828 ), #994, .F. ) ;
#119 = ORIENTED_EDGE ( 'NONE', *, *, #1106, .T. ) ;
#120 = DIRECTION ( 'NONE',  ( -1.000000000000000000, 0.000000000000000000, 0.000000000000000000 ) ) ;
#121 = DIRECTION ( 'NONE',  ( 1.000000000000000000, 0.000000000000000000, 0.000000000000000000 ) ) ;
#122 = CARTESIAN_POINT ( 'NONE',  ( 33.60000000000000853, -19.39999999999999858, 0.5000000000000000000 ) ) ;
#123 = ORIENTED_EDGE ( 'NONE', *, *, #847, .F. ) ;
#124 = DIRECTION ( 'NONE',  ( 0.000000000000000000, 0.000000000000000000, 1.000000000000000000 ) ) ;
#125 = ORIENTED_EDGE ( 'NONE', *, *, #906, .T. ) ;
#126 = COORDINATED_UNIVERSAL_TIME_OFFSET ( 8, 0, .AHEAD. ) ;
#127 = FACE_OUTER_BOUND ( 'NONE', #1061, .T. ) ;
#128 = ORIENTED_EDGE ( 'NONE', *, *, #355, .T. ) ;
#129 = CIRCLE ( 'NONE', #820, 1.100000000000000311 ) ;
#130 = PRODUCT_RELATED_PRODUCT_CATEGORY ( 'detail', '', ( #659 ) ) ;
#131 = AXIS2_PLACEMENT_3D ( 'NONE', #81, #448, #1183 ) ;
#132 = CARTESIAN_POINT ( 'NONE',  ( 14.68864249050215243, -12.52303061730652800, 0.000000000000000000 ) ) ;
#133 = VECTOR ( 'NONE', #209, 1000.000000000000000 ) ;
#134 = ORIENTED_EDGE ( 'NONE', *, *, #199, .T. ) ;
#135 = CARTESIAN_POINT ( 'NONE',  ( 15.14119263584340302, 18.90052156232993141, 0.5000000000000000000 ) ) ;
#136 = ORIENTED_EDGE ( 'NONE', *, *, #252, .F. ) ;
#137 = EDGE_CURVE ( 'NONE', #612, #1120, #734, .T. ) ;
#138 = EDGE_LOOP ( 'NONE', ( #824, #315 ) ) ;
#139 = CARTESIAN_POINT ( 'NONE',  ( 31.00000000000000000, 21.90000000000000213, -8.900000000000000355 ) ) ;
#140 = CARTESIAN_POINT ( 'NONE',  ( 33.60000000000000853, -19.39999999999999858, 0.000000000000000000 ) ) ;
#141 = ORIENTED_EDGE ( 'NONE', *, *, #677, .T. ) ;
#142 = FACE_BOUND ( 'NONE', #711, .T. ) ;
#143 = VERTEX_POINT ( 'NONE', #85 ) ;
#144 =( GEOMETRIC_REPRESENTATION_CONTEXT ( 3 ) GLOBAL_UNCERTAINTY_ASSIGNED_CONTEXT ( ( #1121 ) ) GLOBAL_UNIT_ASSIGNED_CONTEXT ( ( #928, #393, #832 ) ) REPRESENTATION_CONTEXT ( 'NONE', 'WORKASPACE' ) );
#145 = ORIENTED_EDGE ( 'NONE', *, *, #1162, .F. ) ;
#146 = FACE_BOUND ( 'NONE', #244, .T. ) ;
#147 = EDGE_CURVE ( 'NONE', #785, #981, #550, .T. ) ;
#148 = ORIENTED_EDGE ( 'NONE', *, *, #398, .F. ) ;
#149 = ADVANCED_FACE ( 'NONE', ( #453 ), #641, .F. ) ;
#150 = APPROVAL_STATUS ( 'not_yet_approved' ) ;
#151 = VERTEX_POINT ( 'NONE', #717 ) ;
#152 = FACE_BOUND ( 'NONE', #775, .T. ) ;
#153 = FACE_OUTER_BOUND ( 'NONE', #952, .T. ) ;
#154 = PERSON_AND_ORGANIZATION ( #1042, #358 ) ;
#155 = ORIENTED_EDGE ( 'NONE', *, *, #210, .T. ) ;
#156 = FACE_BOUND ( 'NONE', #1043, .T. ) ;
#157 = CARTESIAN_POINT ( 'NONE',  ( 33.60000000000000853, 17.89999999999999503, 0.5000000000000000000 ) ) ;
#158 = CARTESIAN_POINT ( 'NONE',  ( 10.66996109432390938, -23.85352077758102496, 0.000000000000000000 ) ) ;
#159 = APPROVAL ( #811, 'UNSPECIFIED' ) ;
#160 = ORIENTED_EDGE ( 'NONE', *, *, #186, .T. ) ;
#161 = AXIS2_PLACEMENT_3D ( 'NONE', #174, #461, #545 ) ;
#162 = EDGE_CURVE ( 'NONE', #984, #143, #560, .T. ) ;
#163 = VECTOR ( 'NONE', #230, 1000.000000000000000 ) ;
#164 = DIRECTION ( 'NONE',  ( -1.000000000000000000, 0.000000000000000000, 0.000000000000000000 ) ) ;
#165 = CARTESIAN_POINT ( 'NONE',  ( 19.30000000000000426, 16.90000000000000568, 0.000000000000000000 ) ) ;
#166 = CYLINDRICAL_SURFACE ( 'NONE', #502, 2.599999999999998312 ) ;
#167 = ORIENTED_EDGE ( 'NONE', *, *, #1147, .T. ) ;
#168 = DIRECTION ( 'NONE',  ( -1.000000000000000000, 0.000000000000000000, 0.000000000000000000 ) ) ;
#169 = ADVANCED_FACE ( 'NONE', ( #1079 ), #255, .F. ) ;
#170 = CARTESIAN_POINT ( 'NONE',  ( 32.10000000000000853, 17.89999999999999503, -9.500000000000000000 ) ) ;
#171 = FACE_BOUND ( 'NONE', #557, .T. ) ;
#172 = ORIENTED_EDGE ( 'NONE', *, *, #582, .T. ) ;
#173 = DIRECTION ( 'NONE',  ( -1.000000000000000000, 0.000000000000000000, 0.000000000000000000 ) ) ;
#174 = CARTESIAN_POINT ( 'NONE',  ( 32.10000000000000853, 17.89999999999999503, 0.5000000000000000000 ) ) ;
#175 = CARTESIAN_POINT ( 'NONE',  ( 10.66996109432390938, -23.85352077758102496, 0.5000000000000000000 ) ) ;
#176 = EDGE_CURVE ( 'NONE', #856, #1039, #354, .T. ) ;
#177 = LINE ( 'NONE', #1109, #407 ) ;
#178 = SECURITY_CLASSIFICATION ( '', '', #799 ) ;
#179 = CIRCLE ( 'NONE', #422, 2.999999999999999112 ) ;
#180 = LINE ( 'NONE', #1083, #517 ) ;
#181 = CIRCLE ( 'NONE', #334, 1.500000000000001332 ) ;
#182 = ADVANCED_FACE ( 'NONE', ( #1127 ), #487, .F. ) ;
#183 = DIRECTION ( 'NONE',  ( -0.000000000000000000, -0.000000000000000000, -1.000000000000000000 ) ) ;
#184 = AXIS2_PLACEMENT_3D ( 'NONE', #191, #281, #742 ) ;
#185 = AXIS2_PLACEMENT_3D ( 'NONE', #556, #834, #549 ) ;
#186 = EDGE_CURVE ( 'NONE', #188, #939, #181, .T. ) ;
#187 = DIRECTION ( 'NONE',  ( 0.000000000000000000, 0.000000000000000000, 1.000000000000000000 ) ) ;
#188 = VERTEX_POINT ( 'NONE', #122 ) ;
#189 = LINE ( 'NONE', #807, #976 ) ;
#190 = DIRECTION ( 'NONE',  ( 1.000000000000000000, 0.000000000000000000, 0.000000000000000000 ) ) ;
#191 = CARTESIAN_POINT ( 'NONE',  ( 0.000000000000000000, 0.000000000000000000, 0.5000000000000000000 ) ) ;
#192 = ORIENTED_EDGE ( 'NONE', *, *, #1048, .T. ) ;
#193 = CARTESIAN_POINT ( 'NONE',  ( 11.76996109432391080, 23.85352077758102496, 0.5000000000000000000 ) ) ;
#194 = COORDINATED_UNIVERSAL_TIME_OFFSET ( 8, 0, .AHEAD. ) ;
#195 = DIRECTION ( 'NONE',  ( -0.000000000000000000, -0.000000000000000000, -1.000000000000000000 ) ) ;
#196 = EDGE_LOOP ( 'NONE', ( #997, #686, #1071, #720 ) ) ;
#197 = DIRECTION ( 'NONE',  ( -1.000000000000000000, 0.000000000000000000, 0.000000000000000000 ) ) ;
#198 = APPROVAL ( #284, 'UNSPECIFIED' ) ;
#199 = EDGE_CURVE ( 'NONE', #470, #257, #498, .T. ) ;
#200 = ORIENTED_EDGE ( 'NONE', *, *, #238, .T. ) ;
#201 = CARTESIAN_POINT ( 'NONE',  ( 20.50000000000000000, 0.000000000000000000, -9.500000000000000000 ) ) ;
#202 = DIRECTION ( 'NONE',  ( 1.000000000000000000, 0.000000000000000000, 0.000000000000000000 ) ) ;
#203 = VECTOR ( 'NONE', #1024, 1000.000000000000000 ) ;
#204 = AXIS2_PLACEMENT_3D ( 'NONE', #1062, #603, #606 ) ;
#205 = ORIENTED_EDGE ( 'NONE', *, *, #684, .T. ) ;
#206 = CIRCLE ( 'NONE', #881, 1.100000000000000311 ) ;
#207 = CARTESIAN_POINT ( 'NONE',  ( 34.90000000000000568, 21.89999999999999503, 0.000000000000000000 ) ) ;
#208 = EDGE_LOOP ( 'NONE', ( #817, #588, #248, #1116 ) ) ;
#209 = DIRECTION ( 'NONE',  ( 1.000000000000000000, 0.000000000000000000, 0.000000000000000000 ) ) ;
#210 = EDGE_CURVE ( 'NONE', #1110, #934, #995, .T. ) ;
#211 = DIRECTION ( 'NONE',  ( -0.000000000000000000, -0.000000000000000000, 1.000000000000000000 ) ) ;
#212 = DIRECTION ( 'NONE',  ( 1.000000000000000000, 0.000000000000000000, 0.000000000000000000 ) ) ;
#213 = ORIENTED_EDGE ( 'NONE', *, *, #60, .F. ) ;
#214 = DIRECTION ( 'NONE',  ( 0.000000000000000000, 0.000000000000000000, -1.000000000000000000 ) ) ;
#215 = FACE_OUTER_BOUND ( 'NONE', #870, .T. ) ;
#216 = CARTESIAN_POINT ( 'NONE',  ( 14.68864249050215243, -12.52303061730652800, 0.5000000000000000000 ) ) ;
#217 = ADVANCED_FACE ( 'NONE', ( #403 ), #292, .F. ) ;
#218 = ORIENTED_EDGE ( 'NONE', *, *, #1060, .T. ) ;
#219 = CARTESIAN_POINT ( 'NONE',  ( 29.90000000000000568, 21.89999999999999503, -9.500000000000000000 ) ) ;
#220 = ORIENTED_EDGE ( 'NONE', *, *, #355, .F. ) ;
#221 = CARTESIAN_POINT ( 'NONE',  ( 16.24119263584340445, 18.90052156232993141, 0.5000000000000000000 ) ) ;
#222 = CC_DESIGN_SECURITY_CLASSIFICATION ( #178, ( #1104 ) ) ;
#223 = ORIENTED_EDGE ( 'NONE', *, *, #640, .F. ) ;
#224 = AXIS2_PLACEMENT_3D ( 'NONE', #390, #227, #751 ) ;
#225 = AXIS2_PLACEMENT_3D ( 'NONE', #1017, #99, #3 ) ;
#226 = EDGE_CURVE ( 'NONE', #673, #143, #39, .T. ) ;
#227 = DIRECTION ( 'NONE',  ( 0.000000000000000000, 0.000000000000000000, -1.000000000000000000 ) ) ;
#228 = AXIS2_PLACEMENT_3D ( 'NONE', #91, #1101, #539 ) ;
#229 = ORIENTED_EDGE ( 'NONE', *, *, #449, .T. ) ;
#230 = DIRECTION ( 'NONE',  ( -0.000000000000000000, -0.000000000000000000, 1.000000000000000000 ) ) ;
#231 = ORIENTED_EDGE ( 'NONE', *, *, #701, .T. ) ;
#232 = VERTEX_POINT ( 'NONE', #937 ) ;
#233 = EDGE_CURVE ( 'NONE', #317, #908, #950, .T. ) ;
#234 = CARTESIAN_POINT ( 'NONE',  ( 30.60000000000000497, 17.89999999999999503, -9.500000000000000000 ) ) ;
#235 = ORIENTED_EDGE ( 'NONE', *, *, #718, .T. ) ;
#236 = DATE_AND_TIME ( #712, #54 ) ;
#237 = EDGE_LOOP ( 'NONE', ( #713, #231 ) ) ;
#238 = EDGE_CURVE ( 'NONE', #62, #984, #499, .T. ) ;
#239 = FACE_BOUND ( 'NONE', #570, .T. ) ;
#240 = ORIENTED_EDGE ( 'NONE', *, *, #1035, .T. ) ;
#241 = CIRCLE ( 'NONE', #624, 1.100000000000000311 ) ;
#242 = COORDINATED_UNIVERSAL_TIME_OFFSET ( 8, 0, .AHEAD. ) ;
#243 = AXIS2_PLACEMENT_3D ( 'NONE', #345, #737, #1077 ) ;
#244 = EDGE_LOOP ( 'NONE', ( #128, #477 ) ) ;
#245 = AXIS2_PLACEMENT_3D ( 'NONE', #622, #818, #173 ) ;
#246 = LINE ( 'NONE', #1072, #823 ) ;
#247 = ORIENTED_EDGE ( 'NONE', *, *, #776, .T. ) ;
#248 = ORIENTED_EDGE ( 'NONE', *, *, #1089, .T. ) ;
#249 = FACE_BOUND ( 'NONE', #389, .T. ) ;
#250 = CARTESIAN_POINT ( 'NONE',  ( 32.10000000000000853, 17.89999999999999503, 0.000000000000000000 ) ) ;
#251 = ORIENTED_EDGE ( 'NONE', *, *, #699, .F. ) ;
#252 = EDGE_CURVE ( 'NONE', #22, #327, #804, .T. ) ;
#253 = ORIENTED_EDGE ( 'NONE', *, *, #925, .T. ) ;
#254 = CARTESIAN_POINT ( 'NONE',  ( 16.24119263584340445, 18.90052156232993141, 0.5000000000000000000 ) ) ;
#255 = CYLINDRICAL_SURFACE ( 'NONE', #131, 1.100000000000000311 ) ;
#256 = DIRECTION ( 'NONE',  ( -1.000000000000000000, 0.000000000000000000, 0.000000000000000000 ) ) ;
#257 = VERTEX_POINT ( 'NONE', #394 ) ;
#258 = AXIS2_PLACEMENT_3D ( 'NONE', #940, #31, #197 ) ;
#259 = AXIS2_PLACEMENT_3D ( 'NONE', #221, #959, #388 ) ;
#260 = CARTESIAN_POINT ( 'NONE',  ( 29.90000000000000924, 26.89999999999999858, 0.000000000000000000 ) ) ;
#261 = CIRCLE ( 'NONE', #772, 1.100000000000000311 ) ;
#262 = CARTESIAN_POINT ( 'NONE',  ( 33.60000000000000853, 17.89999999999999503, 0.000000000000000000 ) ) ;
#263 = CARTESIAN_POINT ( 'NONE',  ( 17.50000000000000000, 3.673940397442054445E-16, 0.000000000000000000 ) ) ;
#264 = DIRECTION ( 'NONE',  ( -1.000000000000000000, 0.000000000000000000, 0.000000000000000000 ) ) ;
#265 = ORIENTED_EDGE ( 'NONE', *, *, #436, .F. ) ;
#266 = CARTESIAN_POINT ( 'NONE',  ( 9.551660176046949502, 9.773131987064546777, 0.5000000000000000000 ) ) ;
#267 = CARTESIAN_POINT ( 'NONE',  ( 29.90000000000001279, -21.90000000000000213, 0.000000000000000000 ) ) ;
#268 = CARTESIAN_POINT ( 'NONE',  ( 32.10000000000000853, -19.39999999999999858, -9.500000000000000000 ) ) ;
#269 = FACE_BOUND ( 'NONE', #138, .T. ) ;
#270 = CC_DESIGN_PERSON_AND_ORGANIZATION_ASSIGNMENT ( #989, #1160, ( #1104 ) ) ;
#271 = DIRECTION ( 'NONE',  ( -0.000000000000000000, 0.000000000000000000, 1.000000000000000000 ) ) ;
#272 = DIRECTION ( 'NONE',  ( 0.000000000000000000, -0.000000000000000000, -1.000000000000000000 ) ) ;
#273 = DIRECTION ( 'NONE',  ( -0.000000000000000000, 0.000000000000000000, 1.000000000000000000 ) ) ;
#274 = FACE_BOUND ( 'NONE', #683, .T. ) ;
#275 = AXIS2_PLACEMENT_3D ( 'NONE', #250, #98, #710 ) ;
#276 = CYLINDRICAL_SURFACE ( 'NONE', #321, 1.100000000000000311 ) ;
#277 = AXIS2_PLACEMENT_3D ( 'NONE', #637, #374, #919 ) ;
#278 = MECHANICAL_CONTEXT ( 'NONE', #749, 'mechanical' ) ;
#279 = DIRECTION ( 'NONE',  ( 0.000000000000000000, 0.000000000000000000, -1.000000000000000000 ) ) ;
#280 = VECTOR ( 'NONE', #793, 1000.000000000000000 ) ;
#281 = DIRECTION ( 'NONE',  ( -0.000000000000000000, 0.000000000000000000, 1.000000000000000000 ) ) ;
#282 = VERTEX_POINT ( 'NONE', #299 ) ;
#283 = DIRECTION ( 'NONE',  ( -1.000000000000000000, 0.000000000000000000, 0.000000000000000000 ) ) ;
#284 = APPROVAL_STATUS ( 'not_yet_approved' ) ;
#285 = LINE ( 'NONE', #216, #319 ) ;
#286 = EDGE_CURVE ( 'NONE', #365, #438, #743, .T. ) ;
#287 = VERTEX_POINT ( 'NONE', #135 ) ;
#288 = EDGE_CURVE ( 'NONE', #518, #655, #21, .T. ) ;
#289 = LINE ( 'NONE', #758, #1129 ) ;
#290 = DIRECTION ( 'NONE',  ( -0.000000000000000000, 0.000000000000000000, 1.000000000000000000 ) ) ;
#291 = DATE_AND_TIME ( #574, #547 ) ;
#292 = CYLINDRICAL_SURFACE ( 'NONE', #766, 1.100000000000000311 ) ;
#293 = ORIENTED_EDGE ( 'NONE', *, *, #1018, .F. ) ;
#294 = LINE ( 'NONE', #589, #664 ) ;
#295 = EDGE_LOOP ( 'NONE', ( #524, #18, #803, #435 ) ) ;
#296 = CARTESIAN_POINT ( 'NONE',  ( 16.24119263584339379, -18.90052156232992431, 0.000000000000000000 ) ) ;
#297 = EDGE_CURVE ( 'NONE', #1049, #934, #285, .T. ) ;
#298 = PERSON_AND_ORGANIZATION ( #1042, #358 ) ;
#299 = CARTESIAN_POINT ( 'NONE',  ( 7.599999999999996980, -26.90000000000000213, 0.5000000000000000000 ) ) ;
#300 = APPROVAL_PERSON_ORGANIZATION ( #1112, #198, #770 ) ;
#301 = VECTOR ( 'NONE', #493, 1000.000000000000000 ) ;
#302 = EDGE_LOOP ( 'NONE', ( #457, #903, #399, #812 ) ) ;
#303 = VECTOR ( 'NONE', #962, 1000.000000000000000 ) ;
#304 = CARTESIAN_POINT ( 'NONE',  ( 34.90000000000001279, -21.90000000000000213, 0.5000000000000000000 ) ) ;
#305 = FACE_OUTER_BOUND ( 'NONE', #429, .T. ) ;
#306 = ADVANCED_FACE ( 'NONE', ( #587 ), #592, .F. ) ;
#307 = DATE_TIME_ROLE ( 'creation_date' ) ;
#308 = CARTESIAN_POINT ( 'NONE',  ( 20.50000000000000000, 0.000000000000000000, 0.5000000000000000000 ) ) ;
#309 = ORIENTED_EDGE ( 'NONE', *, *, #1035, .F. ) ;
#310 = CARTESIAN_POINT ( 'NONE',  ( 11.76996109432391080, 23.85352077758102496, 0.000000000000000000 ) ) ;
#311 = ORIENTED_EDGE ( 'NONE', *, *, #699, .T. ) ;
#312 = DIRECTION ( 'NONE',  ( 1.167309106621417993E-16, -1.000000000000000000, 0.000000000000000000 ) ) ;
#313 = ORIENTED_EDGE ( 'NONE', *, *, #540, .T. ) ;
#314 = CARTESIAN_POINT ( 'NONE',  ( 16.24119263584339379, -18.90052156232992431, 0.000000000000000000 ) ) ;
#315 = ORIENTED_EDGE ( 'NONE', *, *, #782, .F. ) ;
#316 = DIRECTION ( 'NONE',  ( 1.000000000000000000, 5.801750755775273780E-17, 0.000000000000000000 ) ) ;
#317 = VERTEX_POINT ( 'NONE', #944 ) ;
#318 = VECTOR ( 'NONE', #40, 1000.000000000000000 ) ;
#319 = VECTOR ( 'NONE', #654, 1000.000000000000000 ) ;
#320 = CIRCLE ( 'NONE', #15, 1.100000000000000311 ) ;
#321 = AXIS2_PLACEMENT_3D ( 'NONE', #372, #904, #168 ) ;
#322 = ORIENTED_EDGE ( 'NONE', *, *, #347, .F. ) ;
#323 = DIRECTION ( 'NONE',  ( 1.000000000000000000, 0.000000000000000000, 0.000000000000000000 ) ) ;
#324 = EDGE_LOOP ( 'NONE', ( #678, #172, #600, #1145 ) ) ;
#325 = MANIFOLD_SOLID_BREP ( '°£®Æ-¦ùªø39', #418 ) ;
#326 = EDGE_CURVE ( 'NONE', #934, #1110, #382, .T. ) ;
#327 = VERTEX_POINT ( 'NONE', #1047 ) ;
#328 = FACE_BOUND ( 'NONE', #875, .T. ) ;
#329 = ORIENTED_EDGE ( 'NONE', *, *, #23, .F. ) ;
#330 = EDGE_LOOP ( 'NONE', ( #76, #854, #609, #32 ) ) ;
#331 = LINE ( 'NONE', #139, #163 ) ;
#332 = DIRECTION ( 'NONE',  ( -1.000000000000000000, 0.000000000000000000, 0.000000000000000000 ) ) ;
#333 = AXIS2_PLACEMENT_3D ( 'NONE', #314, #413, #120 ) ;
#334 = AXIS2_PLACEMENT_3D ( 'NONE', #859, #1138, #35 ) ;
#335 = DATE_AND_TIME ( #1175, #1082 ) ;
#336 = AXIS2_PLACEMENT_3D ( 'NONE', #924, #445, #1002 ) ;
#337 = ORIENTED_EDGE ( 'NONE', *, *, #573, .F. ) ;
#338 = ADVANCED_FACE ( 'NONE', ( #127 ), #411, .F. ) ;
#339 = DIRECTION ( 'NONE',  ( 0.000000000000000000, -0.000000000000000000, -1.000000000000000000 ) ) ;
#340 = EDGE_CURVE ( 'NONE', #620, #543, #929, .T. ) ;
#341 = CARTESIAN_POINT ( 'NONE',  ( 14.68864249050215243, -12.52303061730652800, 0.5000000000000000000 ) ) ;
#342 = VERTEX_POINT ( 'NONE', #781 ) ;
#343 = PRODUCT_DEFINITION_SHAPE ( 'NONE', 'NONE',  #433 ) ;
#344 = ORIENTED_EDGE ( 'NONE', *, *, #975, .T. ) ;
#345 = CARTESIAN_POINT ( 'NONE',  ( 27.90000000000000213, 21.90000000000000213, 0.000000000000000000 ) ) ;
#346 = EDGE_LOOP ( 'NONE', ( #890, #220, #218, #247 ) ) ;
#347 = EDGE_CURVE ( 'NONE', #866, #704, #331, .T. ) ;
#348 = ADVANCED_FACE ( 'NONE', ( #697 ), #52, .F. ) ;
#349 = DIRECTION ( 'NONE',  ( 1.000000000000000000, 0.000000000000000000, 0.000000000000000000 ) ) ;
#350 = APPROVAL_DATE_TIME ( #236, #159 ) ;
#351 = EDGE_LOOP ( 'NONE', ( #780, #978 ) ) ;
#352 = CARTESIAN_POINT ( 'NONE',  ( 27.90000000000000213, 21.90000000000000213, 0.5000000000000004441 ) ) ;
#353 = DIRECTION ( 'NONE',  ( 0.000000000000000000, 0.000000000000000000, -1.000000000000000000 ) ) ;
#354 = LINE ( 'NONE', #846, #913 ) ;
#355 = EDGE_CURVE ( 'NONE', #59, #342, #841, .T. ) ;
#356 = DIRECTION ( 'NONE',  ( -0.000000000000000000, -0.000000000000000000, 1.000000000000000000 ) ) ;
#357 = VERTEX_POINT ( 'NONE', #419 ) ;
#358 = ORGANIZATION ( 'UNSPECIFIED', 'UNSPECIFIED', '' ) ;
#359 = CIRCLE ( 'NONE', #1192, 5.000000000000000888 ) ;
#360 = DIRECTION ( 'NONE',  ( 1.000000000000000000, 0.000000000000000000, 0.000000000000000000 ) ) ;
#361 = CIRCLE ( 'NONE', #1033, 5.000000000000000888 ) ;
#362 = CARTESIAN_POINT ( 'NONE',  ( 13.58864249050215278, -12.52303061730652800, 0.5000000000000000000 ) ) ;
#363 = LINE ( 'NONE', #1094, #610 ) ;
#364 = CARTESIAN_POINT ( 'NONE',  ( 21.90000000000000213, 16.90000000000000568, 0.000000000000000000 ) ) ;
#365 = VERTEX_POINT ( 'NONE', #49 ) ;
#366 = ADVANCED_FACE ( 'NONE', ( #519 ), #979, .F. ) ;
#367 = DIRECTION ( 'NONE',  ( -0.000000000000000000, -0.000000000000000000, -1.000000000000000000 ) ) ;
#368 = DIRECTION ( 'NONE',  ( -0.000000000000000000, -0.000000000000000000, -1.000000000000000000 ) ) ;
#369 = CYLINDRICAL_SURFACE ( 'NONE', #458, 1.500000000000001332 ) ;
#370 = CYLINDRICAL_SURFACE ( 'NONE', #336, 1.100000000000000311 ) ;
#371 = ORIENTED_EDGE ( 'NONE', *, *, #489, .T. ) ;
#372 = CARTESIAN_POINT ( 'NONE',  ( 10.66996109432390938, -23.85352077758102496, 0.5000000000000000000 ) ) ;
#373 = CARTESIAN_POINT ( 'NONE',  ( 0.000000000000000000, 0.000000000000000000, 0.000000000000000000 ) ) ;
#374 = DIRECTION ( 'NONE',  ( -1.000000000000000000, -1.167309106621417993E-16, 0.000000000000000000 ) ) ;
#375 = FACE_BOUND ( 'NONE', #590, .T. ) ;
#376 = AXIS2_PLACEMENT_3D ( 'NONE', #896, #1178, #1055 ) ;
#377 = LOCAL_TIME ( 11, 32, 57.00000000000000000, #387 ) ;
#378 = CIRCLE ( 'NONE', #741, 1.100000000000000311 ) ;
#379 = ORIENTED_EDGE ( 'NONE', *, *, #326, .T. ) ;
#380 = DIRECTION ( 'NONE',  ( 1.000000000000000000, 0.000000000000000000, 0.000000000000000000 ) ) ;
#381 = EDGE_CURVE ( 'NONE', #1186, #47, #359, .T. ) ;
#382 = CIRCLE ( 'NONE', #110, 1.100000000000000311 ) ;
#383 = DIRECTION ( 'NONE',  ( -1.000000000000000000, 0.000000000000000000, 0.000000000000000000 ) ) ;
#384 = ADVANCED_FACE ( 'NONE', ( #886, #152, #249, #968, #156, #973, #146, #328, #528, #709, #239, #142, #63 ), #693, .F. ) ;
#385 = DIRECTION ( 'NONE',  ( 0.000000000000000000, 0.000000000000000000, 1.000000000000000000 ) ) ;
#386 = CARTESIAN_POINT ( 'NONE',  ( 29.90000000000001279, -21.90000000000000213, 0.5000000000000000000 ) ) ;
#387 = COORDINATED_UNIVERSAL_TIME_OFFSET ( 8, 0, .AHEAD. ) ;
#388 = DIRECTION ( 'NONE',  ( -1.000000000000000000, 0.000000000000000000, 0.000000000000000000 ) ) ;
#389 = EDGE_LOOP ( 'NONE', ( #265, #293 ) ) ;
#390 = CARTESIAN_POINT ( 'NONE',  ( 10.66996109432390938, -23.85352077758102496, 0.000000000000000000 ) ) ;
#391 = ORIENTED_EDGE ( 'NONE', *, *, #582, .F. ) ;
#392 = CARTESIAN_POINT ( 'NONE',  ( 30.60000000000000497, 17.89999999999999503, 0.000000000000000000 ) ) ;
#393 =( NAMED_UNIT ( * ) PLANE_ANGLE_UNIT ( ) SI_UNIT ( $, .RADIAN. ) );
#394 = CARTESIAN_POINT ( 'NONE',  ( 9.551660176046949502, 9.773131987064546777, 0.000000000000000000 ) ) ;
#395 = ORIENTED_EDGE ( 'NONE', *, *, #844, .T. ) ;
#396 = ADVANCED_FACE ( 'NONE', ( #1163 ), #1153, .F. ) ;
#397 = DIRECTION ( 'NONE',  ( -0.000000000000000000, 0.000000000000000000, 1.000000000000000000 ) ) ;
#398 = EDGE_CURVE ( 'NONE', #488, #856, #821, .T. ) ;
#399 = ORIENTED_EDGE ( 'NONE', *, *, #226, .T. ) ;
#400 = LINE ( 'NONE', #193, #73 ) ;
#401 = VECTOR ( 'NONE', #918, 1000.000000000000000 ) ;
#402 = DIRECTION ( 'NONE',  ( 1.000000000000000000, 0.000000000000000000, 0.000000000000000000 ) ) ;
#403 = FACE_OUTER_BOUND ( 'NONE', #324, .T. ) ;
#404 = AXIS2_PLACEMENT_3D ( 'NONE', #44, #1041, #681 ) ;
#405 = AXIS2_PLACEMENT_3D ( 'NONE', #201, #857, #380 ) ;
#406 = VERTEX_POINT ( 'NONE', #68 ) ;
#407 = VECTOR ( 'NONE', #561, 1000.000000000000000 ) ;
#408 = CARTESIAN_POINT ( 'NONE',  ( 27.90000000000000213, -21.90000000000000213, 0.5000000000000004441 ) ) ;
#409 = CC_DESIGN_PERSON_AND_ORGANIZATION_ASSIGNMENT ( #154, #426, ( #178 ) ) ;
#410 = EDGE_LOOP ( 'NONE', ( #848, #1195 ) ) ;
#411 = CYLINDRICAL_SURFACE ( 'NONE', #259, 1.100000000000000311 ) ;
#412 = EDGE_LOOP ( 'NONE', ( #313, #1114 ) ) ;
#413 = DIRECTION ( 'NONE',  ( 0.000000000000000000, 0.000000000000000000, -1.000000000000000000 ) ) ;
#414 = ORIENTED_EDGE ( 'NONE', *, *, #998, .T. ) ;
#415 = DIRECTION ( 'NONE',  ( -1.000000000000000000, 0.000000000000000000, 0.000000000000000000 ) ) ;
#416 = ORIENTED_EDGE ( 'NONE', *, *, #297, .F. ) ;
#417 = ORIENTED_EDGE ( 'NONE', *, *, #861, .F. ) ;
#418 = CLOSED_SHELL ( 'NONE', ( #217, #615, #306, #348, #366, #515, #642, #788, #864, #182, #65, #101, #757, #118, #509, #384, #938, #521, #454, #396, #6, #682, #738, #1166, #86, #791, #731, #169, #764, #494, #338, #149 ) ) ;
#419 = CARTESIAN_POINT ( 'NONE',  ( 17.34119263584339521, -18.90052156232992431, 0.000000000000000000 ) ) ;
#420 = EDGE_CURVE ( 'NONE', #629, #114, #880, .T. ) ;
#421 = DIRECTION ( 'NONE',  ( 1.000000000000000000, 0.000000000000000000, 0.000000000000000000 ) ) ;
#422 = AXIS2_PLACEMENT_3D ( 'NONE', #496, #965, #1158 ) ;
#423 = EDGE_CURVE ( 'NONE', #908, #620, #246, .T. ) ;
#424 = AXIS2_PLACEMENT_3D ( 'NONE', #1146, #889, #613 ) ;
#425 = AXIS2_PLACEMENT_3D ( 'NONE', #1177, #992, #164 ) ;
#426 = PERSON_AND_ORGANIZATION_ROLE ( 'classification_officer' ) ;
#427 = EDGE_LOOP ( 'NONE', ( #921, #727, #1128, #25 ) ) ;
#428 = DIRECTION ( 'NONE',  ( 1.000000000000000000, 6.938893903907227392E-16, 0.000000000000000000 ) ) ;
#429 = EDGE_LOOP ( 'NONE', ( #417, #329, #1081, #1139 ) ) ;
#430 = ORIENTED_EDGE ( 'NONE', *, *, #1184, .T. ) ;
#431 = CARTESIAN_POINT ( 'NONE',  ( 29.90000000000000568, 21.89999999999999503, 0.5000000000000000000 ) ) ;
#432 = ORIENTED_EDGE ( 'NONE', *, *, #286, .T. ) ;
#433 = PRODUCT_DEFINITION ( 'UNKNOWN', '', #1104, #474 ) ;
#434 = PERSON_AND_ORGANIZATION_ROLE ( 'design_supplier' ) ;
#435 = ORIENTED_EDGE ( 'NONE', *, *, #436, .T. ) ;
#436 = EDGE_CURVE ( 'NONE', #1174, #888, #261, .T. ) ;
#437 = LINE ( 'NONE', #801, #303 ) ;
#438 = VERTEX_POINT ( 'NONE', #523 ) ;
#439 = CIRCLE ( 'NONE', #224, 1.100000000000000311 ) ;
#440 = AXIS2_PLACEMENT_3D ( 'NONE', #580, #290, #558 ) ;
#441 = ORIENTED_EDGE ( 'NONE', *, *, #176, .T. ) ;
#442 = DIRECTION ( 'NONE',  ( -0.000000000000000000, -0.000000000000000000, 1.000000000000000000 ) ) ;
#443 = LINE ( 'NONE', #92, #14 ) ;
#444 = ORIENTED_EDGE ( 'NONE', *, *, #233, .T. ) ;
#445 = DIRECTION ( 'NONE',  ( -0.000000000000000000, -0.000000000000000000, -1.000000000000000000 ) ) ;
#446 = EDGE_LOOP ( 'NONE', ( #1141, #75 ) ) ;
#447 = DIRECTION ( 'NONE',  ( -0.000000000000000000, -0.000000000000000000, 1.000000000000000000 ) ) ;
#448 = DIRECTION ( 'NONE',  ( -0.000000000000000000, -0.000000000000000000, -1.000000000000000000 ) ) ;
#449 = EDGE_CURVE ( 'NONE', #908, #282, #437, .T. ) ;
#450 = FACE_BOUND ( 'NONE', #759, .T. ) ;
#451 = EDGE_LOOP ( 'NONE', ( #964, #966, #1037, #566 ) ) ;
#452 = PLANE ( 'NONE',  #576 ) ;
#453 = FACE_OUTER_BOUND ( 'NONE', #671, .T. ) ;
#454 = ADVANCED_FACE ( 'NONE', ( #599 ), #1171, .T. ) ;
#455 = AXIS2_PLACEMENT_3D ( 'NONE', #219, #596, #774 ) ;
#456 = DIRECTION ( 'NONE',  ( 1.000000000000000000, 0.000000000000000000, 0.000000000000000000 ) ) ;
#457 = ORIENTED_EDGE ( 'NONE', *, *, #238, .F. ) ;
#458 = AXIS2_PLACEMENT_3D ( 'NONE', #170, #911, #723 ) ;
#459 = CARTESIAN_POINT ( 'NONE',  ( 29.90000000000001279, -26.89999999999999858, 0.5000000000000000000 ) ) ;
#460 = CIRCLE ( 'NONE', #41, 1.100000000000000311 ) ;
#461 = DIRECTION ( 'NONE',  ( 0.000000000000000000, 0.000000000000000000, 1.000000000000000000 ) ) ;
#462 = CARTESIAN_POINT ( 'NONE',  ( 10.65166017604694915, 9.773131987064546777, 0.5000000000000000000 ) ) ;
#463 = DIRECTION ( 'NONE',  ( 0.000000000000000000, 0.000000000000000000, 1.000000000000000000 ) ) ;
#464 = CYLINDRICAL_SURFACE ( 'NONE', #1088, 1.100000000000000311 ) ;
#465 = DIRECTION ( 'NONE',  ( -0.000000000000000000, -0.000000000000000000, 1.000000000000000000 ) ) ;
#466 = CARTESIAN_POINT ( 'NONE',  ( 17.34119263584340231, 18.90052156232993141, 0.5000000000000000000 ) ) ;
#467 = FACE_BOUND ( 'NONE', #351, .T. ) ;
#468 = CC_DESIGN_DATE_AND_TIME_ASSIGNMENT ( #291, #307, ( #433 ) ) ;
#469 = EDGE_CURVE ( 'NONE', #1143, #1120, #500, .T. ) ;
#470 = VERTEX_POINT ( 'NONE', #266 ) ;
#471 = CARTESIAN_POINT ( 'NONE',  ( 10.65166017604694915, 9.773131987064546777, 0.000000000000000000 ) ) ;
#472 = CARTESIAN_POINT ( 'NONE',  ( 9.569961094323909734, 23.85352077758102496, 0.000000000000000000 ) ) ;
#473 = LINE ( 'NONE', #165, #1169 ) ;
#474 = DESIGN_CONTEXT ( 'detailed design', #826, 'design' ) ;
#475 = DIRECTION ( 'NONE',  ( 1.000000000000000000, 0.000000000000000000, 0.000000000000000000 ) ) ;
#476 = CIRCLE ( 'NONE', #643, 1.100000000000000311 ) ;
#477 = ORIENTED_EDGE ( 'NONE', *, *, #946, .T. ) ;
#478 = CARTESIAN_POINT ( 'NONE',  ( 10.65166017604694915, 9.773131987064546777, 0.000000000000000000 ) ) ;
#479 = AXIS2_PLACEMENT_3D ( 'NONE', #1011, #183, #833 ) ;
#480 = DIRECTION ( 'NONE',  ( -0.000000000000000000, -0.000000000000000000, -1.000000000000000000 ) ) ;
#481 = DIRECTION ( 'NONE',  ( -1.000000000000000000, 0.000000000000000000, 0.000000000000000000 ) ) ;
#482 = ORIENTED_EDGE ( 'NONE', *, *, #1060, .F. ) ;
#483 = DIRECTION ( 'NONE',  ( 1.000000000000000000, 0.000000000000000000, 0.000000000000000000 ) ) ;
#484 = ORIENTED_EDGE ( 'NONE', *, *, #1075, .T. ) ;
#485 = DIRECTION ( 'NONE',  ( -1.000000000000000000, 0.000000000000000000, 0.000000000000000000 ) ) ;
#486 = DIRECTION ( 'NONE',  ( 1.000000000000000000, 0.000000000000000000, 0.000000000000000000 ) ) ;
#487 = CYLINDRICAL_SURFACE ( 'NONE', #865, 2.999999999999999112 ) ;
#488 = VERTEX_POINT ( 'NONE', #260 ) ;
#489 = EDGE_CURVE ( 'NONE', #317, #232, #813, .T. ) ;
#490 = DIRECTION ( 'NONE',  ( -0.000000000000000000, 0.000000000000000000, 1.000000000000000000 ) ) ;
#491 = EDGE_LOOP ( 'NONE', ( #1025, #508 ) ) ;
#492 = DIRECTION ( 'NONE',  ( 0.000000000000000000, 0.000000000000000000, -1.000000000000000000 ) ) ;
#493 = DIRECTION ( 'NONE',  ( -0.000000000000000000, -0.000000000000000000, -1.000000000000000000 ) ) ;
#494 = ADVANCED_FACE ( 'NONE', ( #8 ), #534, .F. ) ;
#495 = EDGE_LOOP ( 'NONE', ( #783, #537, #379, #579 ) ) ;
#496 = CARTESIAN_POINT ( 'NONE',  ( 20.50000000000000000, 0.000000000000000000, 0.5000000000000000000 ) ) ;
#497 = CIRCLE ( 'NONE', #703, 1.100000000000000311 ) ;
#498 = LINE ( 'NONE', #565, #301 ) ;
#499 = CIRCLE ( 'NONE', #787, 2.999999999999999112 ) ;
#500 = CIRCLE ( 'NONE', #245, 1.100000000000000311 ) ;
#501 = ORIENTED_EDGE ( 'NONE', *, *, #946, .F. ) ;
#502 = AXIS2_PLACEMENT_3D ( 'NONE', #364, #915, #1019 ) ;
#503 = DIRECTION ( 'NONE',  ( 1.000000000000000000, 0.000000000000000000, 0.000000000000000000 ) ) ;
#504 = ORIENTED_EDGE ( 'NONE', *, *, #398, .T. ) ;
#505 = CARTESIAN_POINT ( 'NONE',  ( 10.65166017604694915, 9.773131987064546777, 0.5000000000000000000 ) ) ;
#506 = ORIENTED_EDGE ( 'NONE', *, *, #861, .T. ) ;
#507 = CC_DESIGN_PERSON_AND_ORGANIZATION_ASSIGNMENT ( #852, #27, ( #433 ) ) ;
#508 = ORIENTED_EDGE ( 'NONE', *, *, #326, .F. ) ;
#509 = ADVANCED_FACE ( 'NONE', ( #544 ), #714, .T. ) ;
#510 = DIRECTION ( 'NONE',  ( -0.000000000000000000, -0.000000000000000000, 1.000000000000000000 ) ) ;
#511 = CARTESIAN_POINT ( 'NONE',  ( 27.90000000000000213, -21.90000000000000213, 0.000000000000000000 ) ) ;
#512 = ORIENTED_EDGE ( 'NONE', *, *, #608, .T. ) ;
#513 = CARTESIAN_POINT ( 'NONE',  ( 0.000000000000000000, 0.000000000000000000, 0.000000000000000000 ) ) ;
#514 = ORIENTED_EDGE ( 'NONE', *, *, #79, .T. ) ;
#515 = ADVANCED_FACE ( 'NONE', ( #999 ), #276, .F. ) ;
#516 = AXIS2_PLACEMENT_3D ( 'NONE', #575, #868, #212 ) ;
#517 = VECTOR ( 'NONE', #631, 1000.000000000000000 ) ;
#518 = VERTEX_POINT ( 'NONE', #84 ) ;
#519 = FACE_OUTER_BOUND ( 'NONE', #598, .T. ) ;
#520 = EDGE_LOOP ( 'NONE', ( #395, #778, #522, #148 ) ) ;
#521 = ADVANCED_FACE ( 'NONE', ( #648 ), #452, .F. ) ;
#522 = ORIENTED_EDGE ( 'NONE', *, *, #1170, .F. ) ;
#523 = CARTESIAN_POINT ( 'NONE',  ( 31.00000000000000000, -21.90000000000000213, 0.5000000000000004441 ) ) ;
#524 = ORIENTED_EDGE ( 'NONE', *, *, #716, .F. ) ;
#525 = EDGE_CURVE ( 'NONE', #704, #892, #16, .T. ) ;
#526 = DATE_TIME_ROLE ( 'classification_date' ) ;
#527 = EDGE_LOOP ( 'NONE', ( #577, #29 ) ) ;
#528 = FACE_BOUND ( 'NONE', #446, .T. ) ;
#529 = CARTESIAN_POINT ( 'NONE',  ( 11.76996109432391080, 23.85352077758102496, 0.5000000000000000000 ) ) ;
#530 = CYLINDRICAL_SURFACE ( 'NONE', #376, 1.500000000000001332 ) ;
#531 = AXIS2_PLACEMENT_3D ( 'NONE', #662, #385, #105 ) ;
#532 = AXIS2_PLACEMENT_3D ( 'NONE', #1098, #273, #190 ) ;
#533 = EDGE_LOOP ( 'NONE', ( #708, #123, #192, #311 ) ) ;
#534 = CYLINDRICAL_SURFACE ( 'NONE', #228, 1.100000000000000311 ) ;
#535 = CARTESIAN_POINT ( 'NONE',  ( 23.50000000000000000, 0.000000000000000000, -9.500000000000000000 ) ) ;
#536 = FACE_BOUND ( 'NONE', #661, .T. ) ;
#537 = ORIENTED_EDGE ( 'NONE', *, *, #297, .T. ) ;
#538 = EDGE_CURVE ( 'NONE', #794, #1174, #1009, .T. ) ;
#539 = DIRECTION ( 'NONE',  ( -1.000000000000000000, 0.000000000000000000, 0.000000000000000000 ) ) ;
#540 = EDGE_CURVE ( 'NONE', #1046, #1049, #611, .T. ) ;
#541 = DIRECTION ( 'NONE',  ( -1.000000000000000000, 0.000000000000000000, 0.000000000000000000 ) ) ;
#542 = FACE_OUTER_BOUND ( 'NONE', #583, .T. ) ;
#543 = VERTEX_POINT ( 'NONE', #459 ) ;
#544 = FACE_OUTER_BOUND ( 'NONE', #1076, .T. ) ;
#545 = DIRECTION ( 'NONE',  ( 1.000000000000000000, 0.000000000000000000, 0.000000000000000000 ) ) ;
#546 = DIRECTION ( 'NONE',  ( -0.000000000000000000, -0.000000000000000000, 1.000000000000000000 ) ) ;
#547 = LOCAL_TIME ( 11, 32, 57.00000000000000000, #194 ) ;
#548 = AXIS2_PLACEMENT_3D ( 'NONE', #1115, #46, #503 ) ;
#549 = DIRECTION ( 'NONE',  ( 1.000000000000000000, 0.000000000000000000, 0.000000000000000000 ) ) ;
#550 = CIRCLE ( 'NONE', #532, 3.099999999999998757 ) ;
#551 = CIRCLE ( 'NONE', #726, 1.500000000000001332 ) ;
#552 = CARTESIAN_POINT ( 'NONE',  ( 17.34119263584340231, 18.90052156232993141, 0.5000000000000000000 ) ) ;
#553 = AXIS2_PLACEMENT_3D ( 'NONE', #633, #187, #1008 ) ;
#554 = FACE_OUTER_BOUND ( 'NONE', #941, .T. ) ;
#555 = EDGE_CURVE ( 'NONE', #1074, #1154, #189, .T. ) ;
#556 = CARTESIAN_POINT ( 'NONE',  ( 27.90000000000000213, 21.90000000000000213, 0.000000000000000000 ) ) ;
#557 = EDGE_LOOP ( 'NONE', ( #1124, #621 ) ) ;
#558 = DIRECTION ( 'NONE',  ( 1.000000000000000000, 0.000000000000000000, 0.000000000000000000 ) ) ;
#559 = LINE ( 'NONE', #668, #591 ) ;
#560 = LINE ( 'NONE', #535, #1107 ) ;
#561 = DIRECTION ( 'NONE',  ( -0.000000000000000000, -0.000000000000000000, 1.000000000000000000 ) ) ;
#562 = ORIENTED_EDGE ( 'NONE', *, *, #784, .T. ) ;
#563 = CARTESIAN_POINT ( 'NONE',  ( 21.90000000000000213, 16.90000000000000568, 0.000000000000000000 ) ) ;
#564 = LINE ( 'NONE', #845, #1130 ) ;
#565 = CARTESIAN_POINT ( 'NONE',  ( 9.551660176046949502, 9.773131987064546777, 0.5000000000000000000 ) ) ;
#566 = ORIENTED_EDGE ( 'NONE', *, *, #538, .F. ) ;
#567 = CARTESIAN_POINT ( 'NONE',  ( 27.90000000000000213, -21.90000000000000213, -8.900000000000000355 ) ) ;
#568 = CIRCLE ( 'NONE', #1028, 1.100000000000000311 ) ;
#569 = APPROVAL_PERSON_ORGANIZATION ( #298, #77, #616 ) ;
#570 = EDGE_LOOP ( 'NONE', ( #106, #745 ) ) ;
#571 = LINE ( 'NONE', #942, #133 ) ;
#572 = VECTOR ( 'NONE', #104, 1000.000000000000000 ) ;
#573 = EDGE_CURVE ( 'NONE', #629, #1074, #551, .T. ) ;
#574 = CALENDAR_DATE ( 2026, 5, 6 ) ;
#575 = CARTESIAN_POINT ( 'NONE',  ( 27.90000000000000213, -21.90000000000000213, 0.5000000000000004441 ) ) ;
#576 = AXIS2_PLACEMENT_3D ( 'NONE', #1188, #1181, #1016 ) ;
#577 = ORIENTED_EDGE ( 'NONE', *, *, #48, .T. ) ;
#578 = CARTESIAN_POINT ( 'NONE',  ( 24.80000000000000426, 21.90000000000000213, -8.900000000000000355 ) ) ;
#579 = ORIENTED_EDGE ( 'NONE', *, *, #1147, .F. ) ;
#580 = CARTESIAN_POINT ( 'NONE',  ( 20.50000000000000000, 0.000000000000000000, 0.000000000000000000 ) ) ;
#581 = DIRECTION ( 'NONE',  ( -0.000000000000000000, 0.000000000000000000, 1.000000000000000000 ) ) ;
#582 = EDGE_CURVE ( 'NONE', #1135, #406, #180, .T. ) ;
#583 = EDGE_LOOP ( 'NONE', ( #874, #1100, #617, #930, #798, #634 ) ) ;
#584 = DIRECTION ( 'NONE',  ( -1.000000000000000000, 0.000000000000000000, 0.000000000000000000 ) ) ;
#585 = ORIENTED_EDGE ( 'NONE', *, *, #640, .T. ) ;
#586 = CARTESIAN_POINT ( 'NONE',  ( 11.76996109432391080, -23.85352077758102496, 0.5000000000000000000 ) ) ;
#587 = FACE_OUTER_BOUND ( 'NONE', #451, .T. ) ;
#588 = ORIENTED_EDGE ( 'NONE', *, *, #137, .T. ) ;
#589 = CARTESIAN_POINT ( 'NONE',  ( 1.560670953303548708E-15, -26.90000000000000213, 0.5000000000000000000 ) ) ;
#590 = EDGE_LOOP ( 'NONE', ( #800, #595 ) ) ;
#591 = VECTOR ( 'NONE', #480, 1000.000000000000000 ) ;
#592 = CYLINDRICAL_SURFACE ( 'NONE', #1132, 1.100000000000000311 ) ;
#593 = CIRCLE ( 'NONE', #625, 1.100000000000000311 ) ;
#594 = AXIS2_PLACEMENT_3D ( 'NONE', #78, #447, #1092 ) ;
#595 = ORIENTED_EDGE ( 'NONE', *, *, #286, .F. ) ;
#596 = DIRECTION ( 'NONE',  ( -0.000000000000000000, -0.000000000000000000, 1.000000000000000000 ) ) ;
#597 = EDGE_CURVE ( 'NONE', #612, #287, #769, .T. ) ;
#598 = EDGE_LOOP ( 'NONE', ( #806, #430, #860, #647 ) ) ;
#599 = FACE_OUTER_BOUND ( 'NONE', #694, .T. ) ;
#600 = ORIENTED_EDGE ( 'NONE', *, *, #691, .T. ) ;
#601 = EDGE_CURVE ( 'NONE', #794, #1159, #933, .T. ) ;
#602 = EDGE_LOOP ( 'NONE', ( #444, #229, #213, #898 ) ) ;
#603 = DIRECTION ( 'NONE',  ( -0.000000000000000000, -0.000000000000000000, -1.000000000000000000 ) ) ;
#604 = ORIENTED_EDGE ( 'NONE', *, *, #1056, .T. ) ;
#605 = ORIENTED_EDGE ( 'NONE', *, *, #233, .F. ) ;
#606 = DIRECTION ( 'NONE',  ( -1.000000000000000000, 0.000000000000000000, 0.000000000000000000 ) ) ;
#607 = AXIS2_PLACEMENT_3D ( 'NONE', #113, #397, #1131 ) ;
#608 = EDGE_CURVE ( 'NONE', #866, #850, #689, .T. ) ;
#609 = ORIENTED_EDGE ( 'NONE', *, *, #1106, .F. ) ;
#610 = VECTOR ( 'NONE', #837, 1000.000000000000000 ) ;
#611 = CIRCLE ( 'NONE', #57, 1.100000000000000311 ) ;
#612 = VERTEX_POINT ( 'NONE', #552 ) ;
#613 = DIRECTION ( 'NONE',  ( 1.000000000000000000, 0.000000000000000000, 0.000000000000000000 ) ) ;
#614 = ORIENTED_EDGE ( 'NONE', *, *, #601, .T. ) ;
#615 = ADVANCED_FACE ( 'NONE', ( #917 ), #464, .F. ) ;
#616 = APPROVAL_ROLE ( '' ) ;
#617 = ORIENTED_EDGE ( 'NONE', *, *, #982, .T. ) ;
#618 = CARTESIAN_POINT ( 'NONE',  ( 29.90000000000000568, 21.89999999999999503, 0.000000000000000000 ) ) ;
#619 = CARTESIAN_POINT ( 'NONE',  ( 24.50000000000000000, 16.90000000000000568, 0.5000000000000000000 ) ) ;
#620 = VERTEX_POINT ( 'NONE', #674 ) ;
#621 = ORIENTED_EDGE ( 'NONE', *, *, #967, .F. ) ;
#622 = CARTESIAN_POINT ( 'NONE',  ( 16.24119263584340445, 18.90052156232993141, 0.000000000000000000 ) ) ;
#623 = DIRECTION ( 'NONE',  ( -0.000000000000000000, 0.000000000000000000, 1.000000000000000000 ) ) ;
#624 = AXIS2_PLACEMENT_3D ( 'NONE', #24, #947, #839 ) ;
#625 = AXIS2_PLACEMENT_3D ( 'NONE', #462, #279, #541 ) ;
#626 = CARTESIAN_POINT ( 'NONE',  ( 19.30000000000000426, 16.90000000000000568, 0.5000000000000000000 ) ) ;
#627 = PERSON_AND_ORGANIZATION ( #1042, #358 ) ;
#628 = VECTOR ( 'NONE', #1040, 1000.000000000000000 ) ;
#629 = VERTEX_POINT ( 'NONE', #392 ) ;
#630 = EDGE_CURVE ( 'NONE', #317, #488, #571, .T. ) ;
#631 = DIRECTION ( 'NONE',  ( -0.000000000000000000, -0.000000000000000000, -1.000000000000000000 ) ) ;
#632 = CARTESIAN_POINT ( 'NONE',  ( 32.10000000000000853, -19.39999999999999858, 0.000000000000000000 ) ) ;
#633 = CARTESIAN_POINT ( 'NONE',  ( 21.90000000000000213, 16.90000000000000568, 0.5000000000000000000 ) ) ;
#634 = ORIENTED_EDGE ( 'NONE', *, *, #381, .F. ) ;
#635 = CARTESIAN_POINT ( 'NONE',  ( 9.569961094323909734, 23.85352077758102496, 0.5000000000000000000 ) ) ;
#636 = CARTESIAN_POINT ( 'NONE',  ( 34.90000000000001279, -21.90000000000000213, -9.500000000000000000 ) ) ;
#637 = CARTESIAN_POINT ( 'NONE',  ( 7.599999999999995204, 8.871549210322769842E-16, -9.500000000000000000 ) ) ;
#638 = DIRECTION ( 'NONE',  ( -0.000000000000000000, -0.000000000000000000, 1.000000000000000000 ) ) ;
#639 = DIRECTION ( 'NONE',  ( 1.000000000000000000, 0.000000000000000000, 0.000000000000000000 ) ) ;
#640 = EDGE_CURVE ( 'NONE', #984, #62, #805, .T. ) ;
#641 = CYLINDRICAL_SURFACE ( 'NONE', #479, 1.100000000000000311 ) ;
#642 = ADVANCED_FACE ( 'NONE', ( #922 ), #103, .F. ) ;
#643 = AXIS2_PLACEMENT_3D ( 'NONE', #362, #715, #1010 ) ;
#644 = CYLINDRICAL_SURFACE ( 'NONE', #1193, 3.099999999999998757 ) ;
#645 = AXIS2_PLACEMENT_3D ( 'NONE', #632, #623, #1001 ) ;
#646 = AXIS2_PLACEMENT_3D ( 'NONE', #618, #339, #428 ) ;
#647 = ORIENTED_EDGE ( 'NONE', *, *, #1048, .F. ) ;
#648 = FACE_OUTER_BOUND ( 'NONE', #330, .T. ) ;
#649 = FACE_OUTER_BOUND ( 'NONE', #602, .T. ) ;
#650 = FACE_OUTER_BOUND ( 'NONE', #346, .T. ) ;
#651 = ORIENTED_EDGE ( 'NONE', *, *, #423, .F. ) ;
#652 = DIRECTION ( 'NONE',  ( 0.000000000000000000, 0.000000000000000000, -1.000000000000000000 ) ) ;
#653 = APPROVAL_DATE_TIME ( #1137, #198 ) ;
#654 = DIRECTION ( 'NONE',  ( -0.000000000000000000, -0.000000000000000000, -1.000000000000000000 ) ) ;
#655 = VERTEX_POINT ( 'NONE', #927 ) ;
#656 = CARTESIAN_POINT ( 'NONE',  ( 23.50000000000000000, 0.000000000000000000, 0.000000000000000000 ) ) ;
#657 = ORIENTED_EDGE ( 'NONE', *, *, #906, .F. ) ;
#658 = CYLINDRICAL_SURFACE ( 'NONE', #670, 1.100000000000000311 ) ;
#659 = PRODUCT ( '\X2\588a584a\X0\', '\X2\588a584a\X0\', '', ( #278 ) ) ;
#660 = CARTESIAN_POINT ( 'NONE',  ( 20.50000000000000000, 0.000000000000000000, 0.000000000000000000 ) ) ;
#661 = EDGE_LOOP ( 'NONE', ( #690, #102 ) ) ;
#662 = CARTESIAN_POINT ( 'NONE',  ( 32.10000000000000853, 17.89999999999999503, 0.5000000000000000000 ) ) ;
#663 = CC_DESIGN_DATE_AND_TIME_ASSIGNMENT ( #335, #526, ( #178 ) ) ;
#664 = VECTOR ( 'NONE', #779, 1000.000000000000000 ) ;
#665 = VERTEX_POINT ( 'NONE', #586 ) ;
#666 = DIRECTION ( 'NONE',  ( 1.000000000000000000, 0.000000000000000000, 0.000000000000000000 ) ) ;
#667 = AXIS2_PLACEMENT_3D ( 'NONE', #513, #786, #797 ) ;
#668 = CARTESIAN_POINT ( 'NONE',  ( 17.34119263584339521, -18.90052156232992431, 0.5000000000000000000 ) ) ;
#669 = DIRECTION ( 'NONE',  ( 0.000000000000000000, 0.000000000000000000, 1.000000000000000000 ) ) ;
#670 = AXIS2_PLACEMENT_3D ( 'NONE', #1026, #115, #851 ) ;
#671 = EDGE_LOOP ( 'NONE', ( #391, #809, #134, #37 ) ) ;
#672 = CYLINDRICAL_SURFACE ( 'NONE', #455, 5.000000000000000888 ) ;
#673 = VERTEX_POINT ( 'NONE', #11 ) ;
#674 = CARTESIAN_POINT ( 'NONE',  ( 29.90000000000001279, -26.89999999999999858, 0.000000000000000000 ) ) ;
#675 = CYLINDRICAL_SURFACE ( 'NONE', #838, 3.099999999999998757 ) ;
#676 = DIRECTION ( 'NONE',  ( -0.000000000000000000, -0.000000000000000000, -1.000000000000000000 ) ) ;
#677 = EDGE_CURVE ( 'NONE', #287, #1143, #768, .T. ) ;
#678 = ORIENTED_EDGE ( 'NONE', *, *, #116, .F. ) ;
#679 = CARTESIAN_POINT ( 'NONE',  ( 24.80000000000000426, 21.90000000000000213, 0.5000000000000004441 ) ) ;
#680 = ORIENTED_EDGE ( 'NONE', *, *, #137, .F. ) ;
#681 = DIRECTION ( 'NONE',  ( -1.000000000000000000, 0.000000000000000000, 0.000000000000000000 ) ) ;
#682 = ADVANCED_FACE ( 'NONE', ( #948 ), #26, .F. ) ;
#683 = EDGE_LOOP ( 'NONE', ( #614, #414 ) ) ;
#684 = EDGE_CURVE ( 'NONE', #232, #1186, #107, .T. ) ;
#685 = FACE_OUTER_BOUND ( 'NONE', #1156, .T. ) ;
#686 = ORIENTED_EDGE ( 'NONE', *, *, #1134, .F. ) ;
#687 = VECTOR ( 'NONE', #963, 1000.000000000000000 ) ;
#688 = CARTESIAN_POINT ( 'NONE',  ( 10.66996109432390938, 23.85352077758102496, 0.000000000000000000 ) ) ;
#689 = CIRCLE ( 'NONE', #243, 3.099999999999998757 ) ;
#690 = ORIENTED_EDGE ( 'NONE', *, *, #525, .F. ) ;
#691 = EDGE_CURVE ( 'NONE', #406, #257, #1108, .T. ) ;
#692 = EDGE_LOOP ( 'NONE', ( #125, #64 ) ) ;
#693 = PLANE ( 'NONE',  #667 ) ;
#694 = EDGE_LOOP ( 'NONE', ( #119, #235, #842, #698 ) ) ;
#695 = ORIENTED_EDGE ( 'NONE', *, *, #696, .F. ) ;
#696 = EDGE_CURVE ( 'NONE', #257, #406, #206, .T. ) ;
#697 = FACE_OUTER_BOUND ( 'NONE', #495, .T. ) ;
#698 = ORIENTED_EDGE ( 'NONE', *, *, #1056, .F. ) ;
#699 = EDGE_CURVE ( 'NONE', #151, #357, #867, .T. ) ;
#700 = ORIENTED_EDGE ( 'NONE', *, *, #449, .F. ) ;
#701 = EDGE_CURVE ( 'NONE', #53, #1176, #460, .T. ) ;
#702 = CARTESIAN_POINT ( 'NONE',  ( 32.10000000000000853, 17.89999999999999503, -9.500000000000000000 ) ) ;
#703 = AXIS2_PLACEMENT_3D ( 'NONE', #1144, #214, #584 ) ;
#704 = VERTEX_POINT ( 'NONE', #1034 ) ;
#705 = AXIS2_PLACEMENT_3D ( 'NONE', #308, #669, #873 ) ;
#706 = AXIS2_PLACEMENT_3D ( 'NONE', #894, #1, #1096 ) ;
#707 = CIRCLE ( 'NONE', #553, 2.599999999999998312 ) ;
#708 = ORIENTED_EDGE ( 'NONE', *, *, #1184, .F. ) ;
#709 = FACE_BOUND ( 'NONE', #736, .T. ) ;
#710 = DIRECTION ( 'NONE',  ( 1.000000000000000000, 0.000000000000000000, 0.000000000000000000 ) ) ;
#711 = EDGE_LOOP ( 'NONE', ( #512, #773 ) ) ;
#712 = CALENDAR_DATE ( 2026, 5, 6 ) ;
#713 = ORIENTED_EDGE ( 'NONE', *, *, #847, .T. ) ;
#714 = PLANE ( 'NONE',  #94 ) ;
#715 = DIRECTION ( 'NONE',  ( 0.000000000000000000, 0.000000000000000000, -1.000000000000000000 ) ) ;
#716 = EDGE_CURVE ( 'NONE', #1159, #888, #400, .T. ) ;
#717 = CARTESIAN_POINT ( 'NONE',  ( 15.14119263584339237, -18.90052156232992431, 0.000000000000000000 ) ) ;
#718 = EDGE_CURVE ( 'NONE', #1015, #543, #361, .T. ) ;
#719 = CARTESIAN_POINT ( 'NONE',  ( 10.65166017604694915, 9.773131987064546777, 0.5000000000000000000 ) ) ;
#720 = ORIENTED_EDGE ( 'NONE', *, *, #1123, .T. ) ;
#721 = DIRECTION ( 'NONE',  ( -0.000000000000000000, 0.000000000000000000, 1.000000000000000000 ) ) ;
#722 = LINE ( 'NONE', #636, #931 ) ;
#723 = DIRECTION ( 'NONE',  ( 1.000000000000000000, 0.000000000000000000, 0.000000000000000000 ) ) ;
#724 = CC_DESIGN_APPROVAL ( #159, ( #178 ) ) ;
#725 = CARTESIAN_POINT ( 'NONE',  ( 16.24119263584339379, -18.90052156232992431, 0.5000000000000000000 ) ) ;
#726 = AXIS2_PLACEMENT_3D ( 'NONE', #825, #721, #639 ) ;
#727 = ORIENTED_EDGE ( 'NONE', *, *, #608, .F. ) ;
#728 = CARTESIAN_POINT ( 'NONE',  ( 7.599999999999994316, 26.89999999999999858, -9.500000000000000000 ) ) ;
#729 = CYLINDRICAL_SURFACE ( 'NONE', #1150, 1.500000000000001332 ) ;
#730 = CARTESIAN_POINT ( 'NONE',  ( 9.569961094323909734, 23.85352077758102496, 0.5000000000000000000 ) ) ;
#731 = ADVANCED_FACE ( 'NONE', ( #215 ), #658, .F. ) ;
#732 = DIRECTION ( 'NONE',  ( -1.000000000000000000, 0.000000000000000000, 0.000000000000000000 ) ) ;
#733 = CARTESIAN_POINT ( 'NONE',  ( 12.48864249050215136, -12.52303061730652800, 0.5000000000000000000 ) ) ;
#734 = LINE ( 'NONE', #466, #572 ) ;
#735 = DIRECTION ( 'NONE',  ( -1.000000000000000000, 0.000000000000000000, 0.000000000000000000 ) ) ;
#736 = EDGE_LOOP ( 'NONE', ( #585, #200 ) ) ;
#737 = DIRECTION ( 'NONE',  ( -0.000000000000000000, 0.000000000000000000, 1.000000000000000000 ) ) ;
#738 = ADVANCED_FACE ( 'NONE', ( #305 ), #644, .F. ) ;
#739 = CARTESIAN_POINT ( 'NONE',  ( 17.34119263584339521, -18.90052156232992431, 0.5000000000000000000 ) ) ;
#740 = APPROVAL_PERSON_ORGANIZATION ( #627, #159, #891 ) ;
#741 = AXIS2_PLACEMENT_3D ( 'NONE', #725, #1090, #264 ) ;
#742 = DIRECTION ( 'NONE',  ( 1.000000000000000000, 0.000000000000000000, 0.000000000000000000 ) ) ;
#743 = CIRCLE ( 'NONE', #516, 3.099999999999998757 ) ;
#744 = AXIS2_PLACEMENT_3D ( 'NONE', #702, #1066, #323 ) ;
#745 = ORIENTED_EDGE ( 'NONE', *, *, #147, .T. ) ;
#746 = CARTESIAN_POINT ( 'NONE',  ( 15.14119263584340302, 18.90052156232993141, 0.5000000000000000000 ) ) ;
#747 = PERSON_AND_ORGANIZATION_ROLE ( 'design_owner' ) ;
#748 = CARTESIAN_POINT ( 'NONE',  ( 7.599999999999995204, 8.871549210322769842E-16, 0.000000000000000000 ) ) ;
#749 = APPLICATION_CONTEXT ( 'configuration controlled 3d designs of mechanical parts and assemblies' ) ;
#750 = EDGE_LOOP ( 'NONE', ( #1059, #223, #1180, #240 ) ) ;
#751 = DIRECTION ( 'NONE',  ( -1.000000000000000000, 0.000000000000000000, 0.000000000000000000 ) ) ;
#752 = ORIENTED_EDGE ( 'NONE', *, *, #782, .T. ) ;
#753 = DIRECTION ( 'NONE',  ( 1.000000000000000000, 0.000000000000000000, 0.000000000000000000 ) ) ;
#754 = CALENDAR_DATE ( 2026, 5, 6 ) ;
#755 = DIRECTION ( 'NONE',  ( -0.000000000000000000, -0.000000000000000000, 1.000000000000000000 ) ) ;
#756 = VERTEX_POINT ( 'NONE', #82 ) ;
#757 = ADVANCED_FACE ( 'NONE', ( #100, #96, #274, #822, #810, #907, #269, #536, #375, #450, #467, #171, #542 ), #1194, .T. ) ;
#758 = CARTESIAN_POINT ( 'NONE',  ( 24.80000000000000426, -21.90000000000000213, -8.900000000000000355 ) ) ;
#759 = EDGE_LOOP ( 'NONE', ( #309, #43 ) ) ;
#760 = DIRECTION ( 'NONE',  ( 0.000000000000000000, 0.000000000000000000, -1.000000000000000000 ) ) ;
#761 = DIRECTION ( 'NONE',  ( -1.000000000000000000, 0.000000000000000000, 0.000000000000000000 ) ) ;
#762 = ORIENTED_EDGE ( 'NONE', *, *, #469, .F. ) ;
#763 = CARTESIAN_POINT ( 'NONE',  ( 31.00000000000000000, 21.90000000000000213, 0.000000000000000000 ) ) ;
#764 = ADVANCED_FACE ( 'NONE', ( #87 ), #370, .F. ) ;
#765 = CIRCLE ( 'NONE', #333, 1.100000000000000311 ) ;
#766 = AXIS2_PLACEMENT_3D ( 'NONE', #505, #1022, #383 ) ;
#767 = ORIENTED_EDGE ( 'NONE', *, *, #116, .T. ) ;
#768 = LINE ( 'NONE', #746, #628 ) ;
#769 = CIRCLE ( 'NONE', #706, 1.100000000000000311 ) ;
#770 = APPROVAL_ROLE ( '' ) ;
#771 = DIRECTION ( 'NONE',  ( -0.000000000000000000, 0.000000000000000000, 1.000000000000000000 ) ) ;
#772 = AXIS2_PLACEMENT_3D ( 'NONE', #688, #1157, #1054 ) ;
#773 = ORIENTED_EDGE ( 'NONE', *, *, #795, .T. ) ;
#774 = DIRECTION ( 'NONE',  ( 1.000000000000000000, 0.000000000000000000, 0.000000000000000000 ) ) ;
#775 = EDGE_LOOP ( 'NONE', ( #762, #88 ) ) ;
#776 = EDGE_CURVE ( 'NONE', #1151, #835, #1133, .T. ) ;
#777 = CARTESIAN_POINT ( 'NONE',  ( 20.50000000000000000, 0.000000000000000000, -9.500000000000000000 ) ) ;
#778 = ORIENTED_EDGE ( 'NONE', *, *, #381, .T. ) ;
#779 = DIRECTION ( 'NONE',  ( 1.000000000000000000, 5.801750755775273780E-17, 0.000000000000000000 ) ) ;
#780 = ORIENTED_EDGE ( 'NONE', *, *, #186, .F. ) ;
#781 = CARTESIAN_POINT ( 'NONE',  ( 19.30000000000000426, 16.90000000000000568, 0.000000000000000000 ) ) ;
#782 = EDGE_CURVE ( 'NONE', #835, #1151, #707, .T. ) ;
#783 = ORIENTED_EDGE ( 'NONE', *, *, #1068, .F. ) ;
#784 = EDGE_CURVE ( 'NONE', #22, #188, #177, .T. ) ;
#785 = VERTEX_POINT ( 'NONE', #830 ) ;
#786 = DIRECTION ( 'NONE',  ( -0.000000000000000000, 0.000000000000000000, 1.000000000000000000 ) ) ;
#787 = AXIS2_PLACEMENT_3D ( 'NONE', #660, #771, #1113 ) ;
#788 = ADVANCED_FACE ( 'NONE', ( #1095 ), #1185, .F. ) ;
#789 = AXIS2_PLACEMENT_3D ( 'NONE', #352, #271, #360 ) ;
#790 = LINE ( 'NONE', #93, #840 ) ;
#791 = ADVANCED_FACE ( 'NONE', ( #650 ), #166, .F. ) ;
#792 = ORIENTED_EDGE ( 'NONE', *, *, #48, .F. ) ;
#793 = DIRECTION ( 'NONE',  ( -0.000000000000000000, -0.000000000000000000, 1.000000000000000000 ) ) ;
#794 = VERTEX_POINT ( 'NONE', #730 ) ;
#795 = EDGE_CURVE ( 'NONE', #850, #866, #42, .T. ) ;
#796 = ORIENTED_EDGE ( 'NONE', *, *, #469, .T. ) ;
#797 = DIRECTION ( 'NONE',  ( 1.000000000000000000, 0.000000000000000000, 0.000000000000000000 ) ) ;
#798 = ORIENTED_EDGE ( 'NONE', *, *, #30, .F. ) ;
#799 = SECURITY_CLASSIFICATION_LEVEL ( 'unclassified' ) ;
#800 = ORIENTED_EDGE ( 'NONE', *, *, #980, .F. ) ;
#801 = CARTESIAN_POINT ( 'NONE',  ( 7.599999999999996980, -26.90000000000000213, -9.500000000000000000 ) ) ;
#802 = CIRCLE ( 'NONE', #275, 1.500000000000001332 ) ;
#803 = ORIENTED_EDGE ( 'NONE', *, *, #538, .T. ) ;
#804 = CIRCLE ( 'NONE', #956, 1.500000000000001332 ) ;
#805 = CIRCLE ( 'NONE', #440, 2.999999999999999112 ) ;
#806 = ORIENTED_EDGE ( 'NONE', *, *, #701, .F. ) ;
#807 = CARTESIAN_POINT ( 'NONE',  ( 33.60000000000000853, 17.89999999999999503, -9.500000000000000000 ) ) ;
#808 = EDGE_CURVE ( 'NONE', #665, #518, #869, .T. ) ;
#809 = ORIENTED_EDGE ( 'NONE', *, *, #815, .F. ) ;
#810 = FACE_BOUND ( 'NONE', #237, .T. ) ;
#811 = APPROVAL_STATUS ( 'not_yet_approved' ) ;
#812 = ORIENTED_EDGE ( 'NONE', *, *, #162, .F. ) ;
#813 = LINE ( 'NONE', #728, #112 ) ;
#814 = DIRECTION ( 'NONE',  ( 0.000000000000000000, 0.000000000000000000, -1.000000000000000000 ) ) ;
#815 = EDGE_CURVE ( 'NONE', #470, #1135, #1173, .T. ) ;
#816 = CARTESIAN_POINT ( 'NONE',  ( 29.90000000000000924, 26.89999999999999858, -9.500000000000000000 ) ) ;
#817 = ORIENTED_EDGE ( 'NONE', *, *, #597, .F. ) ;
#818 = DIRECTION ( 'NONE',  ( 0.000000000000000000, 0.000000000000000000, -1.000000000000000000 ) ) ;
#819 = DIRECTION ( 'NONE',  ( -1.000000000000000000, 0.000000000000000000, 0.000000000000000000 ) ) ;
#820 = AXIS2_PLACEMENT_3D ( 'NONE', #80, #353, #1093 ) ;
#821 = CIRCLE ( 'NONE', #646, 5.000000000000000888 ) ;
#822 = FACE_BOUND ( 'NONE', #412, .T. ) ;
#823 = VECTOR ( 'NONE', #316, 1000.000000000000000 ) ;
#824 = ORIENTED_EDGE ( 'NONE', *, *, #776, .F. ) ;
#825 = CARTESIAN_POINT ( 'NONE',  ( 32.10000000000000853, 17.89999999999999503, 0.000000000000000000 ) ) ;
#826 = APPLICATION_CONTEXT ( 'configuration controlled 3d designs of mechanical parts and assemblies' ) ;
#827 = CARTESIAN_POINT ( 'NONE',  ( 15.14119263584340302, 18.90052156232993141, 0.000000000000000000 ) ) ;
#828 = FACE_OUTER_BOUND ( 'NONE', #957, .T. ) ;
#829 = ADVANCED_BREP_SHAPE_REPRESENTATION ( '\X2\588a584a\X0\', ( #325, #55 ), #144 ) ;
#830 = CARTESIAN_POINT ( 'NONE',  ( 24.80000000000000426, -21.90000000000000213, 0.000000000000000000 ) ) ;
#831 = CARTESIAN_POINT ( 'NONE',  ( 1.560670953303548708E-15, -26.90000000000000213, -9.500000000000000000 ) ) ;
#832 =( NAMED_UNIT ( * ) SI_UNIT ( $, .STERADIAN. ) SOLID_ANGLE_UNIT ( ) );
#833 = DIRECTION ( 'NONE',  ( -1.000000000000000000, 0.000000000000000000, 0.000000000000000000 ) ) ;
#834 = DIRECTION ( 'NONE',  ( -0.000000000000000000, 0.000000000000000000, 1.000000000000000000 ) ) ;
#835 = VERTEX_POINT ( 'NONE', #626 ) ;
#836 = DIRECTION ( 'NONE',  ( -0.000000000000000000, -0.000000000000000000, 1.000000000000000000 ) ) ;
#837 = DIRECTION ( 'NONE',  ( 1.167309106621417993E-16, -1.000000000000000000, 0.000000000000000000 ) ) ;
#838 = AXIS2_PLACEMENT_3D ( 'NONE', #108, #211, #402 ) ;
#839 = DIRECTION ( 'NONE',  ( -1.000000000000000000, 0.000000000000000000, 0.000000000000000000 ) ) ;
#840 = VECTOR ( 'NONE', #1007, 1000.000000000000000 ) ;
#841 = CIRCLE ( 'NONE', #424, 2.599999999999998312 ) ;
#842 = ORIENTED_EDGE ( 'NONE', *, *, #340, .F. ) ;
#843 = DIRECTION ( 'NONE',  ( -0.000000000000000000, -0.000000000000000000, -1.000000000000000000 ) ) ;
#844 = EDGE_CURVE ( 'NONE', #488, #1186, #996, .T. ) ;
#845 = CARTESIAN_POINT ( 'NONE',  ( 34.90000000000000568, 21.89999999999999503, -9.500000000000000000 ) ) ;
#846 = CARTESIAN_POINT ( 'NONE',  ( 34.90000000000000568, 5.528936010190920308E-15, 0.000000000000000000 ) ) ;
#847 = EDGE_CURVE ( 'NONE', #1176, #53, #378, .T. ) ;
#848 = ORIENTED_EDGE ( 'NONE', *, *, #5, .F. ) ;
#849 = DIRECTION ( 'NONE',  ( -0.000000000000000000, -0.000000000000000000, 1.000000000000000000 ) ) ;
#850 = VERTEX_POINT ( 'NONE', #932 ) ;
#851 = DIRECTION ( 'NONE',  ( -1.000000000000000000, 0.000000000000000000, 0.000000000000000000 ) ) ;
#852 = PERSON_AND_ORGANIZATION ( #1042, #358 ) ;
#853 = CARTESIAN_POINT ( 'NONE',  ( 13.58864249050215278, -12.52303061730652800, 0.000000000000000000 ) ) ;
#854 = ORIENTED_EDGE ( 'NONE', *, *, #30, .T. ) ;
#855 = LINE ( 'NONE', #578, #203 ) ;
#856 = VERTEX_POINT ( 'NONE', #207 ) ;
#857 = DIRECTION ( 'NONE',  ( -0.000000000000000000, -0.000000000000000000, 1.000000000000000000 ) ) ;
#858 = DIRECTION ( 'NONE',  ( 0.000000000000000000, 0.000000000000000000, 1.000000000000000000 ) ) ;
#859 = CARTESIAN_POINT ( 'NONE',  ( 32.10000000000000853, -19.39999999999999858, 0.5000000000000000000 ) ) ;
#860 = ORIENTED_EDGE ( 'NONE', *, *, #883, .T. ) ;
#861 = EDGE_CURVE ( 'NONE', #785, #365, #289, .T. ) ;
#862 = CARTESIAN_POINT ( 'NONE',  ( 32.10000000000000853, -19.39999999999999858, 0.5000000000000000000 ) ) ;
#863 = CIRCLE ( 'NONE', #38, 3.099999999999998757 ) ;
#864 = ADVANCED_FACE ( 'NONE', ( #685 ), #1031, .F. ) ;
#865 = AXIS2_PLACEMENT_3D ( 'NONE', #777, #755, #1119 ) ;
#866 = VERTEX_POINT ( 'NONE', #763 ) ;
#867 = CIRCLE ( 'NONE', #1053, 1.100000000000000311 ) ;
#868 = DIRECTION ( 'NONE',  ( -0.000000000000000000, 0.000000000000000000, 1.000000000000000000 ) ) ;
#869 = CIRCLE ( 'NONE', #1014, 1.100000000000000311 ) ;
#870 = EDGE_LOOP ( 'NONE', ( #926, #792, #887, #50 ) ) ;
#871 = FACE_OUTER_BOUND ( 'NONE', #520, .T. ) ;
#872 = EDGE_LOOP ( 'NONE', ( #7, #971, #253, #1064 ) ) ;
#873 = DIRECTION ( 'NONE',  ( 1.000000000000000000, 0.000000000000000000, 0.000000000000000000 ) ) ;
#874 = ORIENTED_EDGE ( 'NONE', *, *, #684, .F. ) ;
#875 = EDGE_LOOP ( 'NONE', ( #970, #990 ) ) ;
#876 = DIRECTION ( 'NONE',  ( 0.000000000000000000, -0.000000000000000000, -1.000000000000000000 ) ) ;
#877 = DIRECTION ( 'NONE',  ( -0.000000000000000000, 0.000000000000000000, 1.000000000000000000 ) ) ;
#878 = ORIENTED_EDGE ( 'NONE', *, *, #1005, .T. ) ;
#879 = CIRCLE ( 'NONE', #1168, 5.000000000000000888 ) ;
#880 = LINE ( 'NONE', #234, #280 ) ;
#881 = AXIS2_PLACEMENT_3D ( 'NONE', #471, #652, #485 ) ;
#882 = ORIENTED_EDGE ( 'NONE', *, *, #795, .F. ) ;
#883 = EDGE_CURVE ( 'NONE', #357, #151, #765, .T. ) ;
#884 = APPROVAL_DATE_TIME ( #983, #77 ) ;
#885 = ORIENTED_EDGE ( 'NONE', *, *, #844, .F. ) ;
#886 = FACE_BOUND ( 'NONE', #69, .T. ) ;
#887 = ORIENTED_EDGE ( 'NONE', *, *, #288, .T. ) ;
#888 = VERTEX_POINT ( 'NONE', #310 ) ;
#889 = DIRECTION ( 'NONE',  ( 0.000000000000000000, 0.000000000000000000, 1.000000000000000000 ) ) ;
#890 = ORIENTED_EDGE ( 'NONE', *, *, #79, .F. ) ;
#891 = APPROVAL_ROLE ( '' ) ;
#892 = VERTEX_POINT ( 'NONE', #679 ) ;
#893 = EDGE_CURVE ( 'NONE', #665, #756, #1050, .T. ) ;
#894 = CARTESIAN_POINT ( 'NONE',  ( 16.24119263584340445, 18.90052156232993141, 0.5000000000000000000 ) ) ;
#895 = CIRCLE ( 'NONE', #161, 1.500000000000001332 ) ;
#896 = CARTESIAN_POINT ( 'NONE',  ( 32.10000000000000853, -19.39999999999999858, -9.500000000000000000 ) ) ;
#897 = VECTOR ( 'NONE', #676, 1000.000000000000000 ) ;
#898 = ORIENTED_EDGE ( 'NONE', *, *, #489, .F. ) ;
#899 = DIRECTION ( 'NONE',  ( 1.000000000000000000, 5.801750755775273780E-17, 0.000000000000000000 ) ) ;
#900 = CARTESIAN_POINT ( 'NONE',  ( 30.60000000000000497, -19.39999999999999858, -9.500000000000000000 ) ) ;
#901 = FACE_OUTER_BOUND ( 'NONE', #961, .T. ) ;
#902 = DIRECTION ( 'NONE',  ( 0.000000000000000000, 0.000000000000000000, -1.000000000000000000 ) ) ;
#903 = ORIENTED_EDGE ( 'NONE', *, *, #1045, .T. ) ;
#904 = DIRECTION ( 'NONE',  ( -0.000000000000000000, -0.000000000000000000, -1.000000000000000000 ) ) ;
#905 = PLANE ( 'NONE',  #277 ) ;
#906 = EDGE_CURVE ( 'NONE', #287, #612, #241, .T. ) ;
#907 = FACE_BOUND ( 'NONE', #527, .T. ) ;
#908 = VERTEX_POINT ( 'NONE', #1044 ) ;
#909 = DIRECTION ( 'NONE',  ( 0.000000000000000000, 0.000000000000000000, -1.000000000000000000 ) ) ;
#910 = CARTESIAN_POINT ( 'NONE',  ( 11.75166017604695057, 9.773131987064546777, 0.5000000000000000000 ) ) ;
#911 = DIRECTION ( 'NONE',  ( -0.000000000000000000, -0.000000000000000000, 1.000000000000000000 ) ) ;
#912 = CIRCLE ( 'NONE', #531, 1.500000000000001332 ) ;
#913 = VECTOR ( 'NONE', #1036, 1000.000000000000000 ) ;
#914 = AXIS2_PLACEMENT_3D ( 'NONE', #563, #836, #666 ) ;
#915 = DIRECTION ( 'NONE',  ( -0.000000000000000000, -0.000000000000000000, 1.000000000000000000 ) ) ;
#916 = AXIS2_PLACEMENT_3D ( 'NONE', #1179, #1080, #349 ) ;
#917 = FACE_OUTER_BOUND ( 'NONE', #208, .T. ) ;
#918 = DIRECTION ( 'NONE',  ( -0.000000000000000000, -0.000000000000000000, -1.000000000000000000 ) ) ;
#919 = DIRECTION ( 'NONE',  ( 1.167309106621417993E-16, -1.000000000000000000, 0.000000000000000000 ) ) ;
#920 = CARTESIAN_POINT ( 'NONE',  ( 27.90000000000000213, -21.90000000000000213, -8.900000000000000355 ) ) ;
#921 = ORIENTED_EDGE ( 'NONE', *, *, #988, .F. ) ;
#922 = FACE_OUTER_BOUND ( 'NONE', #945, .T. ) ;
#923 = CARTESIAN_POINT ( 'NONE',  ( 34.90000000000000568, 21.89999999999999503, 0.5000000000000000000 ) ) ;
#924 = CARTESIAN_POINT ( 'NONE',  ( 13.58864249050215278, -12.52303061730652800, 0.5000000000000000000 ) ) ;
#925 = EDGE_CURVE ( 'NONE', #756, #655, #439, .T. ) ;
#926 = ORIENTED_EDGE ( 'NONE', *, *, #893, .F. ) ;
#927 = CARTESIAN_POINT ( 'NONE',  ( 9.569961094323909734, -23.85352077758102496, 0.000000000000000000 ) ) ;
#928 =( LENGTH_UNIT ( ) NAMED_UNIT ( * ) SI_UNIT ( .MILLI., .METRE. ) );
#929 = LINE ( 'NONE', #109, #974 ) ;
#930 = ORIENTED_EDGE ( 'NONE', *, *, #718, .F. ) ;
#931 = VECTOR ( 'NONE', #1085, 1000.000000000000000 ) ;
#932 = CARTESIAN_POINT ( 'NONE',  ( 24.80000000000000426, 21.90000000000000213, 0.000000000000000000 ) ) ;
#933 = CIRCLE ( 'NONE', #425, 1.100000000000000311 ) ;
#934 = VERTEX_POINT ( 'NONE', #132 ) ;
#935 = DIRECTION ( 'NONE',  ( 0.000000000000000000, -0.000000000000000000, -1.000000000000000000 ) ) ;
#936 = CARTESIAN_POINT ( 'NONE',  ( 31.00000000000000000, -21.90000000000000213, -8.900000000000000355 ) ) ;
#937 = CARTESIAN_POINT ( 'NONE',  ( 7.599999999999994316, 26.89999999999999858, 0.5000000000000000000 ) ) ;
#938 = ADVANCED_FACE ( 'NONE', ( #871 ), #672, .T. ) ;
#939 = VERTEX_POINT ( 'NONE', #1038 ) ;
#940 = CARTESIAN_POINT ( 'NONE',  ( 10.66996109432390938, 23.85352077758102496, 0.5000000000000000000 ) ) ;
#941 = EDGE_LOOP ( 'NONE', ( #337, #1003, #51, #987 ) ) ;
#942 = CARTESIAN_POINT ( 'NONE',  ( -0.000000000000000000, 26.89999999999999858, 0.000000000000000000 ) ) ;
#943 = CARTESIAN_POINT ( 'NONE',  ( 29.90000000000000924, 26.89999999999999858, 0.5000000000000000000 ) ) ;
#944 = CARTESIAN_POINT ( 'NONE',  ( 7.599999999999995204, 26.89999999999999858, 0.000000000000000000 ) ) ;
#945 = EDGE_LOOP ( 'NONE', ( #501, #514, #752, #482 ) ) ;
#946 = EDGE_CURVE ( 'NONE', #342, #59, #1189, .T. ) ;
#947 = DIRECTION ( 'NONE',  ( 0.000000000000000000, 0.000000000000000000, -1.000000000000000000 ) ) ;
#948 = FACE_OUTER_BOUND ( 'NONE', #750, .T. ) ;
#949 = DIRECTION ( 'NONE',  ( -0.000000000000000000, -0.000000000000000000, 1.000000000000000000 ) ) ;
#950 = LINE ( 'NONE', #748, #1012 ) ;
#951 = CC_DESIGN_PERSON_AND_ORGANIZATION_ASSIGNMENT ( #20, #747, ( #659 ) ) ;
#952 = EDGE_LOOP ( 'NONE', ( #111, #136, #562, #160 ) ) ;
#953 = DIRECTION ( 'NONE',  ( 1.000000000000000000, 0.000000000000000000, 0.000000000000000000 ) ) ;
#954 = CC_DESIGN_APPROVAL ( #198, ( #433 ) ) ;
#955 = VECTOR ( 'NONE', #368, 1000.000000000000000 ) ;
#956 = AXIS2_PLACEMENT_3D ( 'NONE', #1027, #581, #202 ) ;
#957 = EDGE_LOOP ( 'NONE', ( #371, #205, #885, #977 ) ) ;
#958 = VECTOR ( 'NONE', #367, 1000.000000000000000 ) ;
#959 = DIRECTION ( 'NONE',  ( -0.000000000000000000, -0.000000000000000000, -1.000000000000000000 ) ) ;
#960 = ORIENTED_EDGE ( 'NONE', *, *, #95, .F. ) ;
#961 = EDGE_LOOP ( 'NONE', ( #960, #484, #344, #70 ) ) ;
#962 = DIRECTION ( 'NONE',  ( -0.000000000000000000, -0.000000000000000000, 1.000000000000000000 ) ) ;
#963 = DIRECTION ( 'NONE',  ( -0.000000000000000000, -0.000000000000000000, 1.000000000000000000 ) ) ;
#964 = ORIENTED_EDGE ( 'NONE', *, *, #998, .F. ) ;
#965 = DIRECTION ( 'NONE',  ( 0.000000000000000000, 0.000000000000000000, 1.000000000000000000 ) ) ;
#966 = ORIENTED_EDGE ( 'NONE', *, *, #716, .T. ) ;
#967 = EDGE_CURVE ( 'NONE', #114, #1154, #912, .T. ) ;
#968 = FACE_BOUND ( 'NONE', #491, .T. ) ;
#969 = CARTESIAN_POINT ( 'NONE',  ( 34.90000000000001279, -21.90000000000000213, 0.000000000000000000 ) ) ;
#970 = ORIENTED_EDGE ( 'NONE', *, *, #1134, .T. ) ;
#971 = ORIENTED_EDGE ( 'NONE', *, *, #893, .T. ) ;
#972 = AXIS2_PLACEMENT_3D ( 'NONE', #862, #124, #483 ) ;
#973 = FACE_BOUND ( 'NONE', #410, .T. ) ;
#974 = VECTOR ( 'NONE', #510, 1000.000000000000000 ) ;
#975 = EDGE_CURVE ( 'NONE', #939, #188, #993, .T. ) ;
#976 = VECTOR ( 'NONE', #72, 1000.000000000000000 ) ;
#977 = ORIENTED_EDGE ( 'NONE', *, *, #630, .F. ) ;
#978 = ORIENTED_EDGE ( 'NONE', *, *, #975, .F. ) ;
#979 = CYLINDRICAL_SURFACE ( 'NONE', #1032, 1.100000000000000311 ) ;
#980 = EDGE_CURVE ( 'NONE', #438, #365, #863, .T. ) ;
#981 = VERTEX_POINT ( 'NONE', #1122 ) ;
#982 = EDGE_CURVE ( 'NONE', #282, #543, #294, .T. ) ;
#983 = DATE_AND_TIME ( #66, #36 ) ;
#984 = VERTEX_POINT ( 'NONE', #656 ) ;
#985 = DIRECTION ( 'NONE',  ( 1.000000000000000000, 6.938893903907227392E-16, 0.000000000000000000 ) ) ;
#986 = LINE ( 'NONE', #900, #1065 ) ;
#987 = ORIENTED_EDGE ( 'NONE', *, *, #555, .F. ) ;
#988 = EDGE_CURVE ( 'NONE', #850, #892, #855, .T. ) ;
#989 = PERSON_AND_ORGANIZATION ( #1042, #358 ) ;
#990 = ORIENTED_EDGE ( 'NONE', *, *, #573, .T. ) ;
#991 = AXIS2_PLACEMENT_3D ( 'NONE', #511, #877, #421 ) ;
#992 = DIRECTION ( 'NONE',  ( 0.000000000000000000, 0.000000000000000000, -1.000000000000000000 ) ) ;
#993 = CIRCLE ( 'NONE', #972, 1.500000000000001332 ) ;
#994 = PLANE ( 'NONE',  #225 ) ;
#995 = CIRCLE ( 'NONE', #404, 1.100000000000000311 ) ;
#996 = LINE ( 'NONE', #816, #71 ) ;
#997 = ORIENTED_EDGE ( 'NONE', *, *, #420, .F. ) ;
#998 = EDGE_CURVE ( 'NONE', #1159, #794, #1105, .T. ) ;
#999 = FACE_OUTER_BOUND ( 'NONE', #872, .T. ) ;
#1000 = CARTESIAN_POINT ( 'NONE',  ( 17.34119263584340231, 18.90052156232993141, 0.000000000000000000 ) ) ;
#1001 = DIRECTION ( 'NONE',  ( 1.000000000000000000, 0.000000000000000000, 0.000000000000000000 ) ) ;
#1002 = DIRECTION ( 'NONE',  ( -1.000000000000000000, 0.000000000000000000, 0.000000000000000000 ) ) ;
#1003 = ORIENTED_EDGE ( 'NONE', *, *, #420, .T. ) ;
#1004 = CARTESIAN_POINT ( 'NONE',  ( 13.58864249050215278, -12.52303061730652800, 0.5000000000000000000 ) ) ;
#1005 = EDGE_CURVE ( 'NONE', #892, #704, #1030, .T. ) ;
#1006 = CARTESIAN_POINT ( 'NONE',  ( 12.48864249050215136, -12.52303061730652800, 0.000000000000000000 ) ) ;
#1007 = DIRECTION ( 'NONE',  ( 1.584222352490234794E-16, -1.000000000000000000, 0.000000000000000000 ) ) ;
#1008 = DIRECTION ( 'NONE',  ( 1.000000000000000000, 0.000000000000000000, 0.000000000000000000 ) ) ;
#1009 = LINE ( 'NONE', #635, #958 ) ;
#1010 = DIRECTION ( 'NONE',  ( -1.000000000000000000, 0.000000000000000000, 0.000000000000000000 ) ) ;
#1011 = CARTESIAN_POINT ( 'NONE',  ( 10.65166017604694915, 9.773131987064546777, 0.5000000000000000000 ) ) ;
#1012 = VECTOR ( 'NONE', #312, 1000.000000000000000 ) ;
#1013 = DIRECTION ( 'NONE',  ( 1.000000000000000000, 0.000000000000000000, 0.000000000000000000 ) ) ;
#1014 = AXIS2_PLACEMENT_3D ( 'NONE', #4, #10, #735 ) ;
#1015 = VERTEX_POINT ( 'NONE', #304 ) ;
#1016 = DIRECTION ( 'NONE',  ( 1.584222352490234794E-16, -1.000000000000000000, 0.000000000000000000 ) ) ;
#1017 = CARTESIAN_POINT ( 'NONE',  ( 0.000000000000000000, 26.89999999999999858, -9.500000000000000000 ) ) ;
#1018 = EDGE_CURVE ( 'NONE', #888, #1174, #497, .T. ) ;
#1019 = DIRECTION ( 'NONE',  ( 1.000000000000000000, 0.000000000000000000, 0.000000000000000000 ) ) ;
#1020 = DIRECTION ( 'NONE',  ( -1.000000000000000000, 0.000000000000000000, 0.000000000000000000 ) ) ;
#1021 = APPLICATION_PROTOCOL_DEFINITION ( 'international standard', 'config_control_design', 1994, #826 ) ;
#1022 = DIRECTION ( 'NONE',  ( -0.000000000000000000, -0.000000000000000000, -1.000000000000000000 ) ) ;
#1023 = EDGE_LOOP ( 'NONE', ( #1029, #767 ) ) ;
#1024 = DIRECTION ( 'NONE',  ( -0.000000000000000000, -0.000000000000000000, 1.000000000000000000 ) ) ;
#1025 = ORIENTED_EDGE ( 'NONE', *, *, #210, .F. ) ;
#1026 = CARTESIAN_POINT ( 'NONE',  ( 10.66996109432390938, -23.85352077758102496, 0.5000000000000000000 ) ) ;
#1027 = CARTESIAN_POINT ( 'NONE',  ( 32.10000000000000853, -19.39999999999999858, 0.000000000000000000 ) ) ;
#1028 = AXIS2_PLACEMENT_3D ( 'NONE', #158, #1164, #332 ) ;
#1029 = ORIENTED_EDGE ( 'NONE', *, *, #815, .T. ) ;
#1030 = CIRCLE ( 'NONE', #607, 3.099999999999998757 ) ;
#1031 = CYLINDRICAL_SURFACE ( 'NONE', #90, 3.099999999999998757 ) ;
#1032 = AXIS2_PLACEMENT_3D ( 'NONE', #58, #1058, #415 ) ;
#1033 = AXIS2_PLACEMENT_3D ( 'NONE', #386, #935, #753 ) ;
#1034 = CARTESIAN_POINT ( 'NONE',  ( 31.00000000000000000, 21.90000000000000213, 0.5000000000000004441 ) ) ;
#1035 = EDGE_CURVE ( 'NONE', #143, #673, #179, .T. ) ;
#1036 = DIRECTION ( 'NONE',  ( 1.584222352490234794E-16, -1.000000000000000000, 0.000000000000000000 ) ) ;
#1037 = ORIENTED_EDGE ( 'NONE', *, *, #1018, .T. ) ;
#1038 = CARTESIAN_POINT ( 'NONE',  ( 30.60000000000000497, -19.39999999999999858, 0.5000000000000000000 ) ) ;
#1039 = VERTEX_POINT ( 'NONE', #969 ) ;
#1040 = DIRECTION ( 'NONE',  ( -0.000000000000000000, -0.000000000000000000, -1.000000000000000000 ) ) ;
#1041 = DIRECTION ( 'NONE',  ( 0.000000000000000000, 0.000000000000000000, -1.000000000000000000 ) ) ;
#1042 = PERSON ( 'UNSPECIFIED', 'UNSPECIFIED', 'UNSPECIFIED', ('UNSPECIFIED'), ('UNSPECIFIED'), ('UNSPECIFIED') ) ;
#1043 = EDGE_LOOP ( 'NONE', ( #251, #1057 ) ) ;
#1044 = CARTESIAN_POINT ( 'NONE',  ( 7.599999999999996980, -26.90000000000000213, 0.000000000000000000 ) ) ;
#1045 = EDGE_CURVE ( 'NONE', #62, #673, #1148, .T. ) ;
#1046 = VERTEX_POINT ( 'NONE', #733 ) ;
#1047 = CARTESIAN_POINT ( 'NONE',  ( 30.60000000000000497, -19.39999999999999858, 0.000000000000000000 ) ) ;
#1048 = EDGE_CURVE ( 'NONE', #1176, #151, #1190, .T. ) ;
#1049 = VERTEX_POINT ( 'NONE', #341 ) ;
#1050 = LINE ( 'NONE', #1140, #318 ) ;
#1051 = AXIS2_PLACEMENT_3D ( 'NONE', #719, #902, #256 ) ;
#1052 = EDGE_LOOP ( 'NONE', ( #605, #1167, #504, #441, #604, #651 ) ) ;
#1053 = AXIS2_PLACEMENT_3D ( 'NONE', #296, #492, #1020 ) ;
#1054 = DIRECTION ( 'NONE',  ( -1.000000000000000000, 0.000000000000000000, 0.000000000000000000 ) ) ;
#1055 = DIRECTION ( 'NONE',  ( 1.000000000000000000, 0.000000000000000000, 0.000000000000000000 ) ) ;
#1056 = EDGE_CURVE ( 'NONE', #1039, #620, #879, .T. ) ;
#1057 = ORIENTED_EDGE ( 'NONE', *, *, #883, .F. ) ;
#1058 = DIRECTION ( 'NONE',  ( -0.000000000000000000, -0.000000000000000000, -1.000000000000000000 ) ) ;
#1059 = ORIENTED_EDGE ( 'NONE', *, *, #1045, .F. ) ;
#1060 = EDGE_CURVE ( 'NONE', #59, #1151, #443, .T. ) ;
#1061 = EDGE_LOOP ( 'NONE', ( #680, #657, #141, #796 ) ) ;
#1062 = CARTESIAN_POINT ( 'NONE',  ( 13.58864249050215278, -12.52303061730652800, 0.5000000000000000000 ) ) ;
#1063 = ORIENTED_EDGE ( 'NONE', *, *, #691, .F. ) ;
#1064 = ORIENTED_EDGE ( 'NONE', *, *, #288, .F. ) ;
#1065 = VECTOR ( 'NONE', #1078, 1000.000000000000000 ) ;
#1066 = DIRECTION ( 'NONE',  ( -0.000000000000000000, -0.000000000000000000, 1.000000000000000000 ) ) ;
#1067 = AXIS2_PLACEMENT_3D ( 'NONE', #478, #760, #19 ) ;
#1068 = EDGE_CURVE ( 'NONE', #1049, #1046, #476, .T. ) ;
#1069 = CARTESIAN_POINT ( 'NONE',  ( 17.50000000000000000, 3.673940397442056417E-16, -9.500000000000000000 ) ) ;
#1070 = ORIENTED_EDGE ( 'NONE', *, *, #982, .F. ) ;
#1071 = ORIENTED_EDGE ( 'NONE', *, *, #555, .T. ) ;
#1072 = CARTESIAN_POINT ( 'NONE',  ( 1.560670953303548708E-15, -26.90000000000000213, 0.000000000000000000 ) ) ;
#1073 = LINE ( 'NONE', #2, #955 ) ;
#1074 = VERTEX_POINT ( 'NONE', #262 ) ;
#1075 = EDGE_CURVE ( 'NONE', #327, #939, #986, .T. ) ;
#1076 = EDGE_LOOP ( 'NONE', ( #1070, #700, #56, #1149 ) ) ;
#1077 = DIRECTION ( 'NONE',  ( 1.000000000000000000, 0.000000000000000000, 0.000000000000000000 ) ) ;
#1078 = DIRECTION ( 'NONE',  ( -0.000000000000000000, -0.000000000000000000, 1.000000000000000000 ) ) ;
#1079 = FACE_OUTER_BOUND ( 'NONE', #533, .T. ) ;
#1080 = DIRECTION ( 'NONE',  ( -0.000000000000000000, -0.000000000000000000, 1.000000000000000000 ) ) ;
#1081 = ORIENTED_EDGE ( 'NONE', *, *, #1162, .T. ) ;
#1082 = LOCAL_TIME ( 11, 32, 57.00000000000000000, #242 ) ;
#1083 = CARTESIAN_POINT ( 'NONE',  ( 11.75166017604695057, 9.773131987064546777, 0.5000000000000000000 ) ) ;
#1084 = VECTOR ( 'NONE', #949, 1000.000000000000000 ) ;
#1085 = DIRECTION ( 'NONE',  ( -0.000000000000000000, -0.000000000000000000, 1.000000000000000000 ) ) ;
#1086 = DIRECTION ( 'NONE',  ( 1.000000000000000000, 0.000000000000000000, 0.000000000000000000 ) ) ;
#1087 = CIRCLE ( 'NONE', #645, 1.500000000000001332 ) ;
#1088 = AXIS2_PLACEMENT_3D ( 'NONE', #254, #1111, #283 ) ;
#1089 = EDGE_CURVE ( 'NONE', #1120, #1143, #129, .T. ) ;
#1090 = DIRECTION ( 'NONE',  ( 0.000000000000000000, 0.000000000000000000, -1.000000000000000000 ) ) ;
#1091 = ORIENTED_EDGE ( 'NONE', *, *, #988, .T. ) ;
#1092 = DIRECTION ( 'NONE',  ( 1.000000000000000000, 0.000000000000000000, 0.000000000000000000 ) ) ;
#1093 = DIRECTION ( 'NONE',  ( -1.000000000000000000, 0.000000000000000000, 0.000000000000000000 ) ) ;
#1094 = CARTESIAN_POINT ( 'NONE',  ( 7.599999999999995204, 8.871549210322769842E-16, 0.5000000000000000000 ) ) ;
#1095 = FACE_OUTER_BOUND ( 'NONE', #45, .T. ) ;
#1096 = DIRECTION ( 'NONE',  ( -1.000000000000000000, 0.000000000000000000, 0.000000000000000000 ) ) ;
#1097 = CARTESIAN_POINT ( 'NONE',  ( 15.14119263584339237, -18.90052156232992431, 0.5000000000000000000 ) ) ;
#1098 = CARTESIAN_POINT ( 'NONE',  ( 27.90000000000000213, -21.90000000000000213, 0.000000000000000000 ) ) ;
#1099 = CARTESIAN_POINT ( 'NONE',  ( 21.90000000000000213, 16.90000000000000568, 0.5000000000000000000 ) ) ;
#1100 = ORIENTED_EDGE ( 'NONE', *, *, #60, .T. ) ;
#1101 = DIRECTION ( 'NONE',  ( -0.000000000000000000, -0.000000000000000000, -1.000000000000000000 ) ) ;
#1102 = CC_DESIGN_PERSON_AND_ORGANIZATION_ASSIGNMENT ( #1155, #434, ( #1104 ) ) ;
#1103 = DIRECTION ( 'NONE',  ( -0.000000000000000000, -0.000000000000000000, 1.000000000000000000 ) ) ;
#1104 = PRODUCT_DEFINITION_FORMATION_WITH_SPECIFIED_SOURCE ( 'ANY', '', #659, .NOT_KNOWN. ) ;
#1105 = CIRCLE ( 'NONE', #258, 1.100000000000000311 ) ;
#1106 = EDGE_CURVE ( 'NONE', #1039, #1015, #722, .T. ) ;
#1107 = VECTOR ( 'NONE', #9, 1000.000000000000000 ) ;
#1108 = CIRCLE ( 'NONE', #1067, 1.100000000000000311 ) ;
#1109 = CARTESIAN_POINT ( 'NONE',  ( 33.60000000000000853, -19.39999999999999858, -9.500000000000000000 ) ) ;
#1110 = VERTEX_POINT ( 'NONE', #1006 ) ;
#1111 = DIRECTION ( 'NONE',  ( -0.000000000000000000, -0.000000000000000000, -1.000000000000000000 ) ) ;
#1112 = PERSON_AND_ORGANIZATION ( #1042, #358 ) ;
#1113 = DIRECTION ( 'NONE',  ( 1.000000000000000000, 0.000000000000000000, 0.000000000000000000 ) ) ;
#1114 = ORIENTED_EDGE ( 'NONE', *, *, #1068, .T. ) ;
#1115 = CARTESIAN_POINT ( 'NONE',  ( 21.90000000000000213, 16.90000000000000568, 0.000000000000000000 ) ) ;
#1116 = ORIENTED_EDGE ( 'NONE', *, *, #677, .F. ) ;
#1117 = CARTESIAN_POINT ( 'NONE',  ( -0.000000000000000000, 26.89999999999999858, 0.5000000000000000000 ) ) ;
#1118 = LINE ( 'NONE', #936, #1084 ) ;
#1119 = DIRECTION ( 'NONE',  ( 1.000000000000000000, 0.000000000000000000, 0.000000000000000000 ) ) ;
#1120 = VERTEX_POINT ( 'NONE', #1000 ) ;
#1121 = UNCERTAINTY_MEASURE_WITH_UNIT (LENGTH_MEASURE( 1.000000000000000082E-05 ), #928, 'distance_accuracy_value', 'NONE');
#1122 = CARTESIAN_POINT ( 'NONE',  ( 31.00000000000000000, -21.90000000000000213, 0.000000000000000000 ) ) ;
#1123 = EDGE_CURVE ( 'NONE', #1154, #114, #895, .T. ) ;
#1124 = ORIENTED_EDGE ( 'NONE', *, *, #1123, .F. ) ;
#1125 = DIRECTION ( 'NONE',  ( -1.000000000000000000, 0.000000000000000000, 0.000000000000000000 ) ) ;
#1126 = FACE_OUTER_BOUND ( 'NONE', #427, .T. ) ;
#1127 = FACE_OUTER_BOUND ( 'NONE', #302, .T. ) ;
#1128 = ORIENTED_EDGE ( 'NONE', *, *, #347, .T. ) ;
#1129 = VECTOR ( 'NONE', #849, 1000.000000000000000 ) ;
#1130 = VECTOR ( 'NONE', #465, 1000.000000000000000 ) ;
#1131 = DIRECTION ( 'NONE',  ( 1.000000000000000000, 0.000000000000000000, 0.000000000000000000 ) ) ;
#1132 = AXIS2_PLACEMENT_3D ( 'NONE', #28, #195, #481 ) ;
#1133 = CIRCLE ( 'NONE', #1152, 2.599999999999998312 ) ;
#1134 = EDGE_CURVE ( 'NONE', #1074, #629, #802, .T. ) ;
#1135 = VERTEX_POINT ( 'NONE', #910 ) ;
#1136 = CARTESIAN_POINT ( 'NONE',  ( 16.24119263584339379, -18.90052156232992431, 0.5000000000000000000 ) ) ;
#1137 = DATE_AND_TIME ( #754, #377 ) ;
#1138 = DIRECTION ( 'NONE',  ( 0.000000000000000000, 0.000000000000000000, 1.000000000000000000 ) ) ;
#1139 = ORIENTED_EDGE ( 'NONE', *, *, #980, .T. ) ;
#1140 = CARTESIAN_POINT ( 'NONE',  ( 11.76996109432391080, -23.85352077758102496, 0.5000000000000000000 ) ) ;
#1141 = ORIENTED_EDGE ( 'NONE', *, *, #252, .T. ) ;
#1142 = DIRECTION ( 'NONE',  ( 0.000000000000000000, 0.000000000000000000, -1.000000000000000000 ) ) ;
#1143 = VERTEX_POINT ( 'NONE', #827 ) ;
#1144 = CARTESIAN_POINT ( 'NONE',  ( 10.66996109432390938, 23.85352077758102496, 0.000000000000000000 ) ) ;
#1145 = ORIENTED_EDGE ( 'NONE', *, *, #199, .F. ) ;
#1146 = CARTESIAN_POINT ( 'NONE',  ( 21.90000000000000213, 16.90000000000000568, 0.000000000000000000 ) ) ;
#1147 = EDGE_CURVE ( 'NONE', #1046, #1110, #1073, .T. ) ;
#1148 = LINE ( 'NONE', #1069, #687 ) ;
#1149 = ORIENTED_EDGE ( 'NONE', *, *, #340, .T. ) ;
#1150 = AXIS2_PLACEMENT_3D ( 'NONE', #268, #1103, #1086 ) ;
#1151 = VERTEX_POINT ( 'NONE', #619 ) ;
#1152 = AXIS2_PLACEMENT_3D ( 'NONE', #1099, #463, #456 ) ;
#1153 = CYLINDRICAL_SURFACE ( 'NONE', #744, 1.500000000000001332 ) ;
#1154 = VERTEX_POINT ( 'NONE', #157 ) ;
#1155 = PERSON_AND_ORGANIZATION ( #1042, #358 ) ;
#1156 = EDGE_LOOP ( 'NONE', ( #83, #506, #432, #145 ) ) ;
#1157 = DIRECTION ( 'NONE',  ( 0.000000000000000000, 0.000000000000000000, -1.000000000000000000 ) ) ;
#1158 = DIRECTION ( 'NONE',  ( 1.000000000000000000, 0.000000000000000000, 0.000000000000000000 ) ) ;
#1159 = VERTEX_POINT ( 'NONE', #529 ) ;
#1160 = PERSON_AND_ORGANIZATION_ROLE ( 'creator' ) ;
#1161 = ORIENTED_EDGE ( 'NONE', *, *, #540, .F. ) ;
#1162 = EDGE_CURVE ( 'NONE', #981, #438, #1118, .T. ) ;
#1163 = FACE_OUTER_BOUND ( 'NONE', #196, .T. ) ;
#1164 = DIRECTION ( 'NONE',  ( 0.000000000000000000, 0.000000000000000000, -1.000000000000000000 ) ) ;
#1165 = COORDINATED_UNIVERSAL_TIME_OFFSET ( 8, 0, .AHEAD. ) ;
#1166 = ADVANCED_FACE ( 'NONE', ( #1126 ), #675, .F. ) ;
#1167 = ORIENTED_EDGE ( 'NONE', *, *, #630, .T. ) ;
#1168 = AXIS2_PLACEMENT_3D ( 'NONE', #267, #272, #74 ) ;
#1169 = VECTOR ( 'NONE', #546, 1000.000000000000000 ) ;
#1170 = EDGE_CURVE ( 'NONE', #856, #47, #564, .T. ) ;
#1171 = CYLINDRICAL_SURFACE ( 'NONE', #594, 5.000000000000000888 ) ;
#1172 = VECTOR ( 'NONE', #121, 1000.000000000000000 ) ;
#1173 = CIRCLE ( 'NONE', #1051, 1.100000000000000311 ) ;
#1174 = VERTEX_POINT ( 'NONE', #472 ) ;
#1175 = CALENDAR_DATE ( 2026, 5, 6 ) ;
#1176 = VERTEX_POINT ( 'NONE', #12 ) ;
#1177 = CARTESIAN_POINT ( 'NONE',  ( 10.66996109432390938, 23.85352077758102496, 0.5000000000000000000 ) ) ;
#1178 = DIRECTION ( 'NONE',  ( -0.000000000000000000, -0.000000000000000000, 1.000000000000000000 ) ) ;
#1179 = CARTESIAN_POINT ( 'NONE',  ( 27.90000000000000213, 21.90000000000000213, -8.900000000000000355 ) ) ;
#1180 = ORIENTED_EDGE ( 'NONE', *, *, #162, .T. ) ;
#1181 = DIRECTION ( 'NONE',  ( -1.000000000000000000, -1.584222352490234794E-16, 0.000000000000000000 ) ) ;
#1182 = DIRECTION ( 'NONE',  ( -0.000000000000000000, -0.000000000000000000, 1.000000000000000000 ) ) ;
#1183 = DIRECTION ( 'NONE',  ( -1.000000000000000000, 0.000000000000000000, 0.000000000000000000 ) ) ;
#1184 = EDGE_CURVE ( 'NONE', #53, #357, #559, .T. ) ;
#1185 = CYLINDRICAL_SURFACE ( 'NONE', #916, 3.099999999999998757 ) ;
#1186 = VERTEX_POINT ( 'NONE', #943 ) ;
#1187 = CIRCLE ( 'NONE', #991, 3.099999999999998757 ) ;
#1188 = CARTESIAN_POINT ( 'NONE',  ( 34.90000000000000568, 5.528936010190920308E-15, -9.500000000000000000 ) ) ;
#1189 = CIRCLE ( 'NONE', #548, 2.599999999999998312 ) ;
#1190 = LINE ( 'NONE', #1097, #401 ) ;
#1191 = CARTESIAN_POINT ( 'NONE',  ( 24.50000000000000000, 16.90000000000000568, 0.000000000000000000 ) ) ;
#1192 = AXIS2_PLACEMENT_3D ( 'NONE', #431, #876, #985 ) ;
#1193 = AXIS2_PLACEMENT_3D ( 'NONE', #920, #638, #1013 ) ;
#1194 = PLANE ( 'NONE',  #184 ) ;
#1195 = ORIENTED_EDGE ( 'NONE', *, *, #925, .F. ) ;
ENDSEC;
END-ISO-10303-21;
