ISO-10303-21;
HEADER;
FILE_DESCRIPTION (( 'STEP AP203' ),
    '1' );
FILE_NAME ('¹Ô¶ô¥ª.step',
    '2026-06-05T03:32:57',
    ( '' ),
    ( '' ),
    'SwSTEP 2.0',
    'SolidWorks 2024',
    '' );
FILE_SCHEMA (( 'CONFIG_CONTROL_DESIGN' ));
ENDSEC;

DATA;
#1 = DIRECTION ( 'NONE',  ( -0.000000000000000000, 0.000000000000000000, 1.000000000000000000 ) ) ;
#2 = COORDINATED_UNIVERSAL_TIME_OFFSET ( 8, 0, .AHEAD. ) ;
#3 = DIRECTION ( 'NONE',  ( 1.000000000000000000, 0.000000000000000000, 0.000000000000000000 ) ) ;
#4 = LINE ( 'NONE', #496, #166 ) ;
#5 = EDGE_CURVE ( 'NONE', #782, #976, #636, .T. ) ;
#6 = VERTEX_POINT ( 'NONE', #648 ) ;
#7 = DIRECTION ( 'NONE',  ( 1.000000000000000000, 0.000000000000000000, 0.000000000000000000 ) ) ;
#8 = CYLINDRICAL_SURFACE ( 'NONE', #1047, 1.500000000000001332 ) ;
#9 = CARTESIAN_POINT ( 'NONE',  ( -27.70000000000000639, -1.338824946515471301E-13, 0.5000000000000000000 ) ) ;
#10 = VERTEX_POINT ( 'NONE', #409 ) ;
#11 = CARTESIAN_POINT ( 'NONE',  ( -31.00000000000000000, 21.89999999999999503, 0.5000000000000004441 ) ) ;
#12 = LINE ( 'NONE', #124, #528 ) ;
#13 = VECTOR ( 'NONE', #928, 1000.000000000000000 ) ;
#14 = AXIS2_PLACEMENT_3D ( 'NONE', #711, #871, #622 ) ;
#15 = LINE ( 'NONE', #1040, #551 ) ;
#16 = ORIENTED_EDGE ( 'NONE', *, *, #354, .F. ) ;
#17 = DIRECTION ( 'NONE',  ( 0.000000000000000000, 0.000000000000000000, -1.000000000000000000 ) ) ;
#18 = FACE_OUTER_BOUND ( 'NONE', #361, .T. ) ;
#19 = ORIENTED_EDGE ( 'NONE', *, *, #354, .T. ) ;
#20 = ADVANCED_FACE ( 'NONE', ( #567 ), #398, .F. ) ;
#21 = DIRECTION ( 'NONE',  ( 1.000000000000000000, 0.000000000000000000, 0.000000000000000000 ) ) ;
#22 = ORIENTED_EDGE ( 'NONE', *, *, #515, .F. ) ;
#23 = DIRECTION ( 'NONE',  ( 1.000000000000000000, 0.000000000000000000, 0.000000000000000000 ) ) ;
#24 = CYLINDRICAL_SURFACE ( 'NONE', #133, 5.000000000000004441 ) ;
#25 = VERTEX_POINT ( 'NONE', #307 ) ;
#26 = EDGE_CURVE ( 'NONE', #39, #870, #184, .T. ) ;
#27 = FACE_OUTER_BOUND ( 'NONE', #81, .T. ) ;
#28 = ORIENTED_EDGE ( 'NONE', *, *, #904, .T. ) ;
#29 = CARTESIAN_POINT ( 'NONE',  ( 1.560670953303548708E-15, -26.90000000000000213, -9.500000000000000000 ) ) ;
#30 = CARTESIAN_POINT ( 'NONE',  ( -21.90000000000000213, 16.89999999999999858, 0.5000000000000000000 ) ) ;
#31 = AXIS2_PLACEMENT_3D ( 'NONE', #906, #322, #829 ) ;
#32 = ORIENTED_EDGE ( 'NONE', *, *, #1098, .T. ) ;
#33 = AXIS2_PLACEMENT_3D ( 'NONE', #708, #466, #631 ) ;
#34 = VECTOR ( 'NONE', #255, 1000.000000000000000 ) ;
#35 = CARTESIAN_POINT ( 'NONE',  ( -32.10000000000000142, 19.39999999999999147, 0.5000000000000000000 ) ) ;
#36 = AXIS2_PLACEMENT_3D ( 'NONE', #984, #748, #386 ) ;
#37 = VERTEX_POINT ( 'NONE', #817 ) ;
#38 = CARTESIAN_POINT ( 'NONE',  ( -32.09999999999999432, -19.40000000000000568, 0.5000000000000000000 ) ) ;
#39 = VERTEX_POINT ( 'NONE', #644 ) ;
#40 = FACE_OUTER_BOUND ( 'NONE', #965, .T. ) ;
#41 = EDGE_LOOP ( 'NONE', ( #894, #19, #448, #762 ) ) ;
#42 = EDGE_CURVE ( 'NONE', #129, #302, #828, .T. ) ;
#43 = DIRECTION ( 'NONE',  ( 1.000000000000000000, 0.000000000000000000, 0.000000000000000000 ) ) ;
#44 = ORIENTED_EDGE ( 'NONE', *, *, #925, .T. ) ;
#45 = EDGE_LOOP ( 'NONE', ( #740, #604, #813, #791, #627, #104, #703, #1035, #694, #1060 ) ) ;
#46 = CARTESIAN_POINT ( 'NONE',  ( 1.560670953303548708E-15, -26.90000000000000213, 0.5000000000000000000 ) ) ;
#47 = EDGE_LOOP ( 'NONE', ( #288, #384, #326, #805 ) ) ;
#48 = AXIS2_PLACEMENT_3D ( 'NONE', #738, #909, #1081 ) ;
#49 = AXIS2_PLACEMENT_3D ( 'NONE', #772, #436, #167 ) ;
#50 = CIRCLE ( 'NONE', #941, 3.099999999999998757 ) ;
#51 = EDGE_LOOP ( 'NONE', ( #1100, #364 ) ) ;
#52 = LOCAL_TIME ( 11, 32, 57.00000000000000000, #577 ) ;
#53 = CARTESIAN_POINT ( 'NONE',  ( -33.60000000000000142, -19.40000000000000568, 0.5000000000000000000 ) ) ;
#54 = FACE_BOUND ( 'NONE', #1022, .T. ) ;
#55 = ADVANCED_FACE ( 'NONE', ( #914 ), #387, .F. ) ;
#56 = ORIENTED_EDGE ( 'NONE', *, *, #785, .F. ) ;
#57 = CARTESIAN_POINT ( 'NONE',  ( -7.600000000000011191, 0.000000000000000000, 0.5000000000000000000 ) ) ;
#58 = DIRECTION ( 'NONE',  ( 1.000000000000000000, 0.000000000000000000, 0.000000000000000000 ) ) ;
#59 = EDGE_CURVE ( 'NONE', #219, #37, #186, .T. ) ;
#60 = ORIENTED_EDGE ( 'NONE', *, *, #818, .T. ) ;
#61 = CARTESIAN_POINT ( 'NONE',  ( -21.90000000000000213, 16.89999999999999858, 0.000000000000000000 ) ) ;
#62 = FACE_BOUND ( 'NONE', #117, .T. ) ;
#63 = VERTEX_POINT ( 'NONE', #234 ) ;
#64 = VECTOR ( 'NONE', #500, 1000.000000000000000 ) ;
#65 = AXIS2_PLACEMENT_3D ( 'NONE', #674, #80, #593 ) ;
#66 = DIRECTION ( 'NONE',  ( -0.000000000000000000, -0.000000000000000000, 1.000000000000000000 ) ) ;
#67 = VECTOR ( 'NONE', #720, 1000.000000000000000 ) ;
#68 = CARTESIAN_POINT ( 'NONE',  ( 0.000000000000000000, 0.000000000000000000, 0.000000000000000000 ) ) ;
#69 = DIRECTION ( 'NONE',  ( 0.000000000000000000, 0.000000000000000000, -1.000000000000000000 ) ) ;
#70 = ORIENTED_EDGE ( 'NONE', *, *, #554, .F. ) ;
#71 = CARTESIAN_POINT ( 'NONE',  ( -29.89999999999999858, 21.89999999999999503, 0.000000000000000000 ) ) ;
#72 = ADVANCED_FACE ( 'NONE', ( #985 ), #132, .F. ) ;
#73 = PERSON_AND_ORGANIZATION_ROLE ( 'creator' ) ;
#74 = DIRECTION ( 'NONE',  ( 1.000000000000000000, 0.000000000000000000, 0.000000000000000000 ) ) ;
#75 = DIRECTION ( 'NONE',  ( -0.000000000000000000, -0.000000000000000000, 1.000000000000000000 ) ) ;
#76 = ORIENTED_EDGE ( 'NONE', *, *, #1107, .F. ) ;
#77 = CARTESIAN_POINT ( 'NONE',  ( -24.50000000000000000, -19.40000000000000568, 0.5000000000000000000 ) ) ;
#78 = DIRECTION ( 'NONE',  ( 1.000000000000000000, 0.000000000000000000, 0.000000000000000000 ) ) ;
#79 = ADVANCED_FACE ( 'NONE', ( #311, #54, #578, #654, #230, #1072, #573, #218, #62, #402 ), #749, .F. ) ;
#80 = DIRECTION ( 'NONE',  ( -0.000000000000000000, -0.000000000000000000, 1.000000000000000000 ) ) ;
#81 = EDGE_LOOP ( 'NONE', ( #642, #1052, #546, #517 ) ) ;
#82 = DIRECTION ( 'NONE',  ( -0.000000000000000000, -0.000000000000000000, 1.000000000000000000 ) ) ;
#83 = AXIS2_PLACEMENT_3D ( 'NONE', #495, #93, #3 ) ;
#84 = CIRCLE ( 'NONE', #691, 5.000000000000000888 ) ;
#85 = CIRCLE ( 'NONE', #830, 1.100000000000000311 ) ;
#86 = DATE_TIME_ROLE ( 'creation_date' ) ;
#87 = CARTESIAN_POINT ( 'NONE',  ( -24.50000000000000000, -19.40000000000000568, 0.000000000000000000 ) ) ;
#88 = AXIS2_PLACEMENT_3D ( 'NONE', #1108, #1093, #163 ) ;
#89 = EDGE_CURVE ( 'NONE', #483, #302, #660, .T. ) ;
#90 = DIRECTION ( 'NONE',  ( 1.000000000000000000, 0.000000000000000000, 0.000000000000000000 ) ) ;
#91 = DIRECTION ( 'NONE',  ( -0.000000000000000000, -0.000000000000000000, 1.000000000000000000 ) ) ;
#92 = DATE_AND_TIME ( #913, #512 ) ;
#93 = DIRECTION ( 'NONE',  ( -0.000000000000000000, 0.000000000000000000, 1.000000000000000000 ) ) ;
#94 = CARTESIAN_POINT ( 'NONE',  ( -21.90000000000000213, 16.89999999999999858, 0.5000000000000000000 ) ) ;
#95 = EDGE_CURVE ( 'NONE', #752, #438, #206, .T. ) ;
#96 = VERTEX_POINT ( 'NONE', #664 ) ;
#97 = CARTESIAN_POINT ( 'NONE',  ( -30.60000000000000142, 19.39999999999999147, 0.5000000000000000000 ) ) ;
#98 = CARTESIAN_POINT ( 'NONE',  ( -7.600000000000000533, -26.90000000000000213, 0.5000000000000000000 ) ) ;
#99 = DIRECTION ( 'NONE',  ( -1.000000000000000000, 0.000000000000000000, 0.000000000000000000 ) ) ;
#100 = ORIENTED_EDGE ( 'NONE', *, *, #712, .T. ) ;
#101 = CYLINDRICAL_SURFACE ( 'NONE', #390, 1.100000000000000311 ) ;
#102 = DIRECTION ( 'NONE',  ( 1.000000000000000000, 0.000000000000000000, 0.000000000000000000 ) ) ;
#103 = CIRCLE ( 'NONE', #149, 3.000000000000000000 ) ;
#104 = ORIENTED_EDGE ( 'NONE', *, *, #330, .T. ) ;
#105 = AXIS2_PLACEMENT_3D ( 'NONE', #360, #971, #202 ) ;
#106 = ORIENTED_EDGE ( 'NONE', *, *, #286, .F. ) ;
#107 = DIRECTION ( 'NONE',  ( -0.000000000000000000, 0.000000000000000000, 1.000000000000000000 ) ) ;
#108 = APPROVAL_DATE_TIME ( #542, #366 ) ;
#109 = CARTESIAN_POINT ( 'NONE',  ( -20.50000000000000711, 6.099999999999802469, 0.5000000000000000000 ) ) ;
#110 = ORIENTED_EDGE ( 'NONE', *, *, #449, .T. ) ;
#111 = CARTESIAN_POINT ( 'NONE',  ( -21.90000000000000213, 16.89999999999999858, 0.000000000000000000 ) ) ;
#112 = EDGE_LOOP ( 'NONE', ( #943, #607, #862, #145 ) ) ;
#113 = DIRECTION ( 'NONE',  ( -0.000000000000000000, -0.000000000000000000, -1.000000000000000000 ) ) ;
#114 = CARTESIAN_POINT ( 'NONE',  ( -24.80000000000000426, -21.89999999999999503, 0.5000000000000004441 ) ) ;
#115 = ORIENTED_EDGE ( 'NONE', *, *, #1041, .T. ) ;
#116 = CARTESIAN_POINT ( 'NONE',  ( -27.70000000000000639, -1.338824946515471301E-13, 0.5000000000000000000 ) ) ;
#117 = EDGE_LOOP ( 'NONE', ( #304, #451 ) ) ;
#118 = DIRECTION ( 'NONE',  ( -0.000000000000000000, 0.000000000000000000, 1.000000000000000000 ) ) ;
#119 = ORIENTED_EDGE ( 'NONE', *, *, #665, .F. ) ;
#120 = CIRCLE ( 'NONE', #207, 2.599999999999998312 ) ;
#121 = CARTESIAN_POINT ( 'NONE',  ( -20.50000000000000711, -6.099999999999807798, 0.000000000000000000 ) ) ;
#122 = CIRCLE ( 'NONE', #373, 1.100000000000000311 ) ;
#123 = ORIENTED_EDGE ( 'NONE', *, *, #730, .F. ) ;
#124 = CARTESIAN_POINT ( 'NONE',  ( -7.600000000000011191, 19.15975688862394222, -4.500000000000000888 ) ) ;
#125 = VERTEX_POINT ( 'NONE', #581 ) ;
#126 = ADVANCED_FACE ( 'NONE', ( #238 ), #602, .T. ) ;
#127 = ORIENTED_EDGE ( 'NONE', *, *, #155, .T. ) ;
#128 = DIRECTION ( 'NONE',  ( 0.000000000000000000, -1.000000000000000000, 0.000000000000000000 ) ) ;
#129 = VERTEX_POINT ( 'NONE', #934 ) ;
#130 = ORIENTED_EDGE ( 'NONE', *, *, #1058, .F. ) ;
#131 = CARTESIAN_POINT ( 'NONE',  ( -20.50000000000000711, 6.099999999999802469, 0.000000000000000000 ) ) ;
#132 = CYLINDRICAL_SURFACE ( 'NONE', #48, 2.599999999999998312 ) ;
#133 = AXIS2_PLACEMENT_3D ( 'NONE', #543, #796, #881 ) ;
#134 = VERTEX_POINT ( 'NONE', #431 ) ;
#135 = CARTESIAN_POINT ( 'NONE',  ( -19.30000000000000426, 16.89999999999999858, 0.000000000000000000 ) ) ;
#136 = DIRECTION ( 'NONE',  ( 1.000000000000000000, 0.000000000000000000, 0.000000000000000000 ) ) ;
#137 = EDGE_CURVE ( 'NONE', #215, #96, #156, .T. ) ;
#138 = EDGE_LOOP ( 'NONE', ( #479, #930, #198, #196 ) ) ;
#139 = CYLINDRICAL_SURFACE ( 'NONE', #902, 1.100000000000000311 ) ;
#140 = ORIENTED_EDGE ( 'NONE', *, *, #760, .T. ) ;
#141 = VERTEX_POINT ( 'NONE', #254 ) ;
#142 = FACE_OUTER_BOUND ( 'NONE', #383, .T. ) ;
#143 = CALENDAR_DATE ( 2026, 5, 6 ) ;
#144 = CARTESIAN_POINT ( 'NONE',  ( -21.90000000000000213, -19.40000000000000568, 0.000000000000000000 ) ) ;
#145 = ORIENTED_EDGE ( 'NONE', *, *, #574, .T. ) ;
#146 = EDGE_CURVE ( 'NONE', #575, #10, #1083, .T. ) ;
#147 = CIRCLE ( 'NONE', #260, 1.100000000000000311 ) ;
#148 = AXIS2_PLACEMENT_3D ( 'NONE', #1020, #250, #347 ) ;
#149 = AXIS2_PLACEMENT_3D ( 'NONE', #949, #452, #439 ) ;
#150 = CARTESIAN_POINT ( 'NONE',  ( -34.89999999999999858, 21.89999999999999503, 0.5000000000000004441 ) ) ;
#151 = DIRECTION ( 'NONE',  ( -0.000000000000000000, 0.000000000000000000, 1.000000000000000000 ) ) ;
#152 = CARTESIAN_POINT ( 'NONE',  ( -19.40000000000000924, 6.099999999999802469, 0.5000000000000000000 ) ) ;
#153 = ORIENTED_EDGE ( 'NONE', *, *, #739, .F. ) ;
#154 = CARTESIAN_POINT ( 'NONE',  ( -31.00000000000000000, -21.89999999999999503, 0.000000000000000000 ) ) ;
#155 = EDGE_CURVE ( 'NONE', #141, #633, #690, .T. ) ;
#156 = LINE ( 'NONE', #414, #64 ) ;
#157 = DIRECTION ( 'NONE',  ( 0.000000000000000000, -0.000000000000000000, -1.000000000000000000 ) ) ;
#158 = EDGE_LOOP ( 'NONE', ( #468, #557, #793, #1033 ) ) ;
#159 = DIRECTION ( 'NONE',  ( 1.000000000000000000, 0.000000000000000000, 0.000000000000000000 ) ) ;
#160 = APPROVAL_DATE_TIME ( #1002, #713 ) ;
#161 = CARTESIAN_POINT ( 'NONE',  ( -32.09999999999999432, -19.40000000000000568, -9.500000000000000000 ) ) ;
#162 = EDGE_CURVE ( 'NONE', #37, #219, #351, .T. ) ;
#163 = DIRECTION ( 'NONE',  ( 1.000000000000000000, 0.000000000000000000, 0.000000000000000000 ) ) ;
#164 = CARTESIAN_POINT ( 'NONE',  ( -7.600000000000011191, 19.15975688862394222, 0.000000000000000000 ) ) ;
#165 = AXIS2_PLACEMENT_3D ( 'NONE', #30, #1045, #954 ) ;
#166 = VECTOR ( 'NONE', #75, 1000.000000000000000 ) ;
#167 = DIRECTION ( 'NONE',  ( -1.000000000000000000, 0.000000000000000000, 0.000000000000000000 ) ) ;
#168 = CIRCLE ( 'NONE', #1070, 3.099999999999998757 ) ;
#169 = EDGE_CURVE ( 'NONE', #63, #579, #835, .T. ) ;
#170 = FACE_OUTER_BOUND ( 'NONE', #275, .T. ) ;
#171 = ORIENTED_EDGE ( 'NONE', *, *, #986, .F. ) ;
#172 = DIRECTION ( 'NONE',  ( -0.000000000000000000, -0.000000000000000000, 1.000000000000000000 ) ) ;
#173 = SHAPE_DEFINITION_REPRESENTATION ( #294, #687 ) ;
#174 = LINE ( 'NONE', #245, #13 ) ;
#175 = EDGE_CURVE ( 'NONE', #396, #6, #261, .T. ) ;
#176 = CYLINDRICAL_SURFACE ( 'NONE', #242, 1.100000000000000311 ) ;
#177 = ORIENTED_EDGE ( 'NONE', *, *, #415, .T. ) ;
#178 = LINE ( 'NONE', #873, #734 ) ;
#179 = DIRECTION ( 'NONE',  ( 1.000000000000000000, 0.000000000000000000, 0.000000000000000000 ) ) ;
#180 = EDGE_LOOP ( 'NONE', ( #979, #544, #1005, #621 ) ) ;
#181 = EDGE_CURVE ( 'NONE', #396, #25, #372, .T. ) ;
#182 = EDGE_LOOP ( 'NONE', ( #822, #305 ) ) ;
#183 = DIRECTION ( 'NONE',  ( 1.000000000000000000, 0.000000000000000000, 0.000000000000000000 ) ) ;
#184 = CIRCLE ( 'NONE', #31, 1.100000000000000311 ) ;
#185 = DIRECTION ( 'NONE',  ( -0.000000000000000000, -0.000000000000000000, 1.000000000000000000 ) ) ;
#186 = CIRCLE ( 'NONE', #653, 1.500000000000001332 ) ;
#187 = VECTOR ( 'NONE', #488, 1000.000000000000000 ) ;
#188 = AXIS2_PLACEMENT_3D ( 'NONE', #783, #776, #962 ) ;
#189 = EDGE_LOOP ( 'NONE', ( #110, #886 ) ) ;
#190 = CC_DESIGN_SECURITY_CLASSIFICATION ( #262, ( #210 ) ) ;
#191 = ORIENTED_EDGE ( 'NONE', *, *, #268, .T. ) ;
#192 = CARTESIAN_POINT ( 'NONE',  ( -24.50000000000000000, 16.89999999999999858, 0.5000000000000000000 ) ) ;
#193 = ADVANCED_FACE ( 'NONE', ( #592 ), #8, .F. ) ;
#194 = EDGE_CURVE ( 'NONE', #295, #916, #174, .T. ) ;
#195 = FACE_BOUND ( 'NONE', #454, .T. ) ;
#196 = ORIENTED_EDGE ( 'NONE', *, *, #925, .F. ) ;
#197 = DIRECTION ( 'NONE',  ( -1.000000000000000000, 0.000000000000000000, 0.000000000000000000 ) ) ;
#198 = ORIENTED_EDGE ( 'NONE', *, *, #26, .T. ) ;
#199 = DIRECTION ( 'NONE',  ( 0.000000000000000000, -1.000000000000000000, 0.000000000000000000 ) ) ;
#200 = FACE_BOUND ( 'NONE', #571, .T. ) ;
#201 = ORIENTED_EDGE ( 'NONE', *, *, #95, .F. ) ;
#202 = DIRECTION ( 'NONE',  ( 0.000000000000000000, 0.000000000000000000, -1.000000000000000000 ) ) ;
#203 = VERTEX_POINT ( 'NONE', #840 ) ;
#204 = CARTESIAN_POINT ( 'NONE',  ( -26.60000000000000497, -1.338824946515471301E-13, 0.000000000000000000 ) ) ;
#205 = EDGE_LOOP ( 'NONE', ( #298, #240 ) ) ;
#206 = CIRCLE ( 'NONE', #548, 1.500000000000001332 ) ;
#207 = AXIS2_PLACEMENT_3D ( 'NONE', #94, #421, #1029 ) ;
#208 = EDGE_CURVE ( 'NONE', #125, #526, #671, .T. ) ;
#209 = CARTESIAN_POINT ( 'NONE',  ( -26.60000000000000497, -1.338824946515471301E-13, 0.000000000000000000 ) ) ;
#210 = PRODUCT_DEFINITION_FORMATION_WITH_SPECIFIED_SOURCE ( 'ANY', '', #632, .NOT_KNOWN. ) ;
#211 = VERTEX_POINT ( 'NONE', #337 ) ;
#212 = CARTESIAN_POINT ( 'NONE',  ( -7.600000000000011191, -16.34728466653856316, 0.5000000000000004441 ) ) ;
#213 = DIRECTION ( 'NONE',  ( -0.000000000000000000, -0.000000000000000000, 1.000000000000000000 ) ) ;
#214 = PRODUCT_DEFINITION ( 'UNKNOWN', '', #210, #883 ) ;
#215 = VERTEX_POINT ( 'NONE', #677 ) ;
#216 = EDGE_CURVE ( 'NONE', #438, #809, #519, .T. ) ;
#217 = DIRECTION ( 'NONE',  ( 0.000000000000000000, 1.000000000000000000, -0.000000000000000000 ) ) ;
#218 = FACE_BOUND ( 'NONE', #182, .T. ) ;
#219 = VERTEX_POINT ( 'NONE', #427 ) ;
#220 = EDGE_CURVE ( 'NONE', #1038, #952, #510, .T. ) ;
#221 = DIRECTION ( 'NONE',  ( 1.000000000000000000, 0.000000000000000000, 0.000000000000000000 ) ) ;
#222 = CARTESIAN_POINT ( 'NONE',  ( -20.50000000000000711, -6.099999999999807798, 0.5000000000000000000 ) ) ;
#223 = CIRCLE ( 'NONE', #598, 1.500000000000001332 ) ;
#224 = VECTOR ( 'NONE', #285, 1000.000000000000000 ) ;
#225 = VECTOR ( 'NONE', #564, 1000.000000000000000 ) ;
#226 = AXIS2_PLACEMENT_3D ( 'NONE', #977, #613, #197 ) ;
#227 = ORIENTED_EDGE ( 'NONE', *, *, #905, .T. ) ;
#228 = CIRCLE ( 'NONE', #1087, 2.599999999999998312 ) ;
#229 = CYLINDRICAL_SURFACE ( 'NONE', #799, 1.500000000000001332 ) ;
#230 = FACE_BOUND ( 'NONE', #51, .T. ) ;
#231 = ORIENTED_EDGE ( 'NONE', *, *, #400, .F. ) ;
#232 = DIRECTION ( 'NONE',  ( -0.000000000000000000, -0.000000000000000000, 1.000000000000000000 ) ) ;
#233 = PERSON_AND_ORGANIZATION ( #395, #336 ) ;
#234 = CARTESIAN_POINT ( 'NONE',  ( -24.50000000000000000, -19.40000000000000568, 0.000000000000000000 ) ) ;
#235 = EDGE_CURVE ( 'NONE', #782, #802, #505, .T. ) ;
#236 = EDGE_LOOP ( 'NONE', ( #559, #100, #951, #1000 ) ) ;
#237 = CARTESIAN_POINT ( 'NONE',  ( -34.89999999999999858, 21.89999999999999503, 0.000000000000000000 ) ) ;
#238 = FACE_OUTER_BOUND ( 'NONE', #256, .T. ) ;
#239 = CARTESIAN_POINT ( 'NONE',  ( -10.24999999999983480, 17.75352077758108749, 0.5000000000000004441 ) ) ;
#240 = ORIENTED_EDGE ( 'NONE', *, *, #1085, .F. ) ;
#241 = AXIS2_PLACEMENT_3D ( 'NONE', #1097, #151, #78 ) ;
#242 = AXIS2_PLACEMENT_3D ( 'NONE', #501, #666, #410 ) ;
#243 = FACE_OUTER_BOUND ( 'NONE', #47, .T. ) ;
#244 = DATE_TIME_ROLE ( 'classification_date' ) ;
#245 = CARTESIAN_POINT ( 'NONE',  ( -19.30000000000000426, -19.40000000000000568, 0.000000000000000000 ) ) ;
#246 = CARTESIAN_POINT ( 'NONE',  ( -19.40000000000000924, -6.099999999999807798, 0.5000000000000000000 ) ) ;
#247 = ORIENTED_EDGE ( 'NONE', *, *, #1065, .F. ) ;
#248 = CARTESIAN_POINT ( 'NONE',  ( -32.09999999999999432, -19.40000000000000568, 0.5000000000000000000 ) ) ;
#249 = APPLICATION_PROTOCOL_DEFINITION ( 'international standard', 'config_control_design', 1994, #456 ) ;
#250 = DIRECTION ( 'NONE',  ( -0.000000000000000000, 0.000000000000000000, 1.000000000000000000 ) ) ;
#251 = CARTESIAN_POINT ( 'NONE',  ( -21.90000000000000213, -19.40000000000000568, 0.000000000000000000 ) ) ;
#252 = CARTESIAN_POINT ( 'NONE',  ( -27.90000000000000213, -21.89999999999999503, 0.000000000000000000 ) ) ;
#253 = APPROVAL_DATE_TIME ( #92, #493 ) ;
#254 = CARTESIAN_POINT ( 'NONE',  ( -19.40000000000000924, 6.099999999999802469, 0.5000000000000000000 ) ) ;
#255 = DIRECTION ( 'NONE',  ( -0.000000000000000000, -0.000000000000000000, 1.000000000000000000 ) ) ;
#256 = EDGE_LOOP ( 'NONE', ( #497, #849, #967, #16 ) ) ;
#257 = DIRECTION ( 'NONE',  ( -0.000000000000000000, -0.000000000000000000, 1.000000000000000000 ) ) ;
#258 = AXIS2_PLACEMENT_3D ( 'NONE', #1003, #939, #920 ) ;
#259 = AXIS2_PLACEMENT_3D ( 'NONE', #771, #7, #346 ) ;
#260 = AXIS2_PLACEMENT_3D ( 'NONE', #1086, #316, #637 ) ;
#261 = LINE ( 'NONE', #682, #978 ) ;
#262 = SECURITY_CLASSIFICATION ( '', '', #328 ) ;
#263 = DIRECTION ( 'NONE',  ( -1.000000000000000000, 0.000000000000000000, 0.000000000000000000 ) ) ;
#264 = ORIENTED_EDGE ( 'NONE', *, *, #309, .T. ) ;
#265 = CARTESIAN_POINT ( 'NONE',  ( -7.600000000000011191, -16.34728466653856316, -4.500000000000000888 ) ) ;
#266 = LINE ( 'NONE', #808, #957 ) ;
#267 = ORIENTED_EDGE ( 'NONE', *, *, #1098, .F. ) ;
#268 = EDGE_CURVE ( 'NONE', #956, #502, #299, .T. ) ;
#269 = ORIENTED_EDGE ( 'NONE', *, *, #735, .T. ) ;
#270 = PLANE ( 'NONE',  #1027 ) ;
#271 = CALENDAR_DATE ( 2026, 5, 6 ) ;
#272 = DIRECTION ( 'NONE',  ( -0.000000000000000000, 0.000000000000000000, 1.000000000000000000 ) ) ;
#273 = VERTEX_POINT ( 'NONE', #98 ) ;
#274 = CYLINDRICAL_SURFACE ( 'NONE', #405, 5.000000000000000888 ) ;
#275 = EDGE_LOOP ( 'NONE', ( #538, #1109, #315, #729 ) ) ;
#276 = LINE ( 'NONE', #968, #529 ) ;
#277 = EDGE_CURVE ( 'NONE', #1013, #575, #12, .T. ) ;
#278 = CARTESIAN_POINT ( 'NONE',  ( -31.00000000000000000, 21.89999999999999503, -8.900000000000000355 ) ) ;
#279 = CIRCLE ( 'NONE', #714, 3.099999999999998757 ) ;
#280 = CIRCLE ( 'NONE', #959, 1.100000000000000311 ) ;
#281 = AXIS2_PLACEMENT_3D ( 'NONE', #853, #338, #923 ) ;
#282 = ORIENTED_EDGE ( 'NONE', *, *, #286, .T. ) ;
#283 = FACE_OUTER_BOUND ( 'NONE', #837, .T. ) ;
#284 = ORIENTED_EDGE ( 'NONE', *, *, #1058, .T. ) ;
#285 = DIRECTION ( 'NONE',  ( 0.000000000000000000, 1.000000000000000000, -0.000000000000000000 ) ) ;
#286 = EDGE_CURVE ( 'NONE', #211, #809, #333, .T. ) ;
#287 = CYLINDRICAL_SURFACE ( 'NONE', #900, 1.500000000000001332 ) ;
#288 = ORIENTED_EDGE ( 'NONE', *, *, #1079, .F. ) ;
#289 = DIRECTION ( 'NONE',  ( 1.000000000000000000, 0.000000000000000000, 0.000000000000000000 ) ) ;
#290 = ORIENTED_EDGE ( 'NONE', *, *, #317, .T. ) ;
#291 = FACE_OUTER_BOUND ( 'NONE', #766, .T. ) ;
#292 = ORIENTED_EDGE ( 'NONE', *, *, #1085, .T. ) ;
#293 = DIRECTION ( 'NONE',  ( 1.000000000000000000, 0.000000000000000000, 0.000000000000000000 ) ) ;
#294 = PRODUCT_DEFINITION_SHAPE ( 'NONE', 'NONE',  #214 ) ;
#295 = VERTEX_POINT ( 'NONE', #1032 ) ;
#296 = DIRECTION ( 'NONE',  ( -0.000000000000000000, -0.000000000000000000, -1.000000000000000000 ) ) ;
#297 = CC_DESIGN_PERSON_AND_ORGANIZATION_ASSIGNMENT ( #233, #1008, ( #262 ) ) ;
#298 = ORIENTED_EDGE ( 'NONE', *, *, #818, .F. ) ;
#299 = CIRCLE ( 'NONE', #814, 1.100000000000000311 ) ;
#300 = CIRCLE ( 'NONE', #568, 3.099999999999998757 ) ;
#301 = VECTOR ( 'NONE', #936, 1000.000000000000000 ) ;
#302 = VERTEX_POINT ( 'NONE', #114 ) ;
#303 = LINE ( 'NONE', #643, #692 ) ;
#304 = ORIENTED_EDGE ( 'NONE', *, *, #665, .T. ) ;
#305 = ORIENTED_EDGE ( 'NONE', *, *, #220, .T. ) ;
#306 = LINE ( 'NONE', #1071, #225 ) ;
#307 = CARTESIAN_POINT ( 'NONE',  ( -34.89999999999999858, -21.90000000000000213, 0.000000000000000000 ) ) ;
#308 = ORIENTED_EDGE ( 'NONE', *, *, #904, .F. ) ;
#309 = EDGE_CURVE ( 'NONE', #633, #141, #1067, .T. ) ;
#310 = CARTESIAN_POINT ( 'NONE',  ( -24.80000000000000426, -21.89999999999999503, 0.000000000000000000 ) ) ;
#311 = FACE_BOUND ( 'NONE', #609, .T. ) ;
#312 = VECTOR ( 'NONE', #759, 1000.000000000000000 ) ;
#313 = AXIS2_PLACEMENT_3D ( 'NONE', #867, #107, #23 ) ;
#314 = APPROVAL_PERSON_ORGANIZATION ( #1044, #366, #795 ) ;
#315 = ORIENTED_EDGE ( 'NONE', *, *, #277, .F. ) ;
#316 = DIRECTION ( 'NONE',  ( 0.000000000000000000, 0.000000000000000000, -1.000000000000000000 ) ) ;
#317 = EDGE_CURVE ( 'NONE', #747, #889, #582, .T. ) ;
#318 = APPROVAL_STATUS ( 'not_yet_approved' ) ;
#319 = DIRECTION ( 'NONE',  ( 1.000000000000000000, 0.000000000000000000, 0.000000000000000000 ) ) ;
#320 = ORIENTED_EDGE ( 'NONE', *, *, #1079, .T. ) ;
#321 = DIRECTION ( 'NONE',  ( -0.000000000000000000, -0.000000000000000000, -1.000000000000000000 ) ) ;
#322 = DIRECTION ( 'NONE',  ( 0.000000000000000000, 0.000000000000000000, -1.000000000000000000 ) ) ;
#323 = EDGE_CURVE ( 'NONE', #1038, #757, #964, .T. ) ;
#324 = ADVANCED_FACE ( 'NONE', ( #18 ), #696, .F. ) ;
#325 = DIRECTION ( 'NONE',  ( -0.000000000000000000, -0.000000000000000000, -1.000000000000000000 ) ) ;
#326 = ORIENTED_EDGE ( 'NONE', *, *, #986, .T. ) ;
#327 = FACE_OUTER_BOUND ( 'NONE', #158, .T. ) ;
#328 = SECURITY_CLASSIFICATION_LEVEL ( 'unclassified' ) ;
#329 = DIRECTION ( 'NONE',  ( -0.000000000000000000, -0.000000000000000000, 1.000000000000000000 ) ) ;
#330 = EDGE_CURVE ( 'NONE', #1013, #96, #266, .T. ) ;
#331 = CARTESIAN_POINT ( 'NONE',  ( -24.50000000000000000, 16.89999999999999858, 0.000000000000000000 ) ) ;
#332 = ORIENTED_EDGE ( 'NONE', *, *, #841, .T. ) ;
#333 = CIRCLE ( 'NONE', #733, 1.500000000000001332 ) ;
#334 = AXIS2_PLACEMENT_3D ( 'NONE', #239, #348, #1021 ) ;
#335 = CARTESIAN_POINT ( 'NONE',  ( -29.89999999999999858, 21.89999999999999503, 0.5000000000000000000 ) ) ;
#336 = ORGANIZATION ( 'UNSPECIFIED', 'UNSPECIFIED', '' ) ;
#337 = CARTESIAN_POINT ( 'NONE',  ( -33.60000000000000142, 19.39999999999999147, 0.5000000000000000000 ) ) ;
#338 = DIRECTION ( 'NONE',  ( -0.000000000000000000, -0.000000000000000000, 1.000000000000000000 ) ) ;
#339 = ORIENTED_EDGE ( 'NONE', *, *, #388, .F. ) ;
#340 = ADVANCED_FACE ( 'NONE', ( #874, #358, #702, #790, #718, #200, #195, #606, #1037, #363 ), #804, .T. ) ;
#341 = CARTESIAN_POINT ( 'NONE',  ( -27.90000000000000213, 21.89999999999999503, -8.900000000000000355 ) ) ;
#342 = PERSON_AND_ORGANIZATION ( #395, #336 ) ;
#343 = DIRECTION ( 'NONE',  ( 0.000000000000000000, 0.000000000000000000, 1.000000000000000000 ) ) ;
#344 = FACE_OUTER_BOUND ( 'NONE', #112, .T. ) ;
#345 = ORIENTED_EDGE ( 'NONE', *, *, #169, .T. ) ;
#346 = DIRECTION ( 'NONE',  ( 0.000000000000000000, 0.000000000000000000, -1.000000000000000000 ) ) ;
#347 = DIRECTION ( 'NONE',  ( 1.000000000000000000, 0.000000000000000000, 0.000000000000000000 ) ) ;
#348 = DIRECTION ( 'NONE',  ( -0.000000000000000000, 0.000000000000000000, 1.000000000000000000 ) ) ;
#349 = ORIENTED_EDGE ( 'NONE', *, *, #826, .F. ) ;
#350 = LINE ( 'NONE', #265, #1068 ) ;
#351 = CIRCLE ( 'NONE', #83, 1.500000000000001332 ) ;
#352 = VECTOR ( 'NONE', #416, 1000.000000000000000 ) ;
#353 = DIRECTION ( 'NONE',  ( 0.000000000000000000, 0.000000000000000000, -1.000000000000000000 ) ) ;
#354 = EDGE_CURVE ( 'NONE', #744, #273, #523, .T. ) ;
#355 = CARTESIAN_POINT ( 'NONE',  ( -31.00000000000000000, 21.89999999999999503, 0.000000000000000000 ) ) ;
#356 = ORIENTED_EDGE ( 'NONE', *, *, #482, .F. ) ;
#357 = FACE_OUTER_BOUND ( 'NONE', #41, .T. ) ;
#358 = FACE_BOUND ( 'NONE', #970, .T. ) ;
#359 = ORIENTED_EDGE ( 'NONE', *, *, #975, .T. ) ;
#360 = CARTESIAN_POINT ( 'NONE',  ( -7.600000000000011191, 0.000000000000000000, -9.500000000000000000 ) ) ;
#361 = EDGE_LOOP ( 'NONE', ( #1069, #540, #44, #1082 ) ) ;
#362 = DIRECTION ( 'NONE',  ( 1.000000000000000000, 5.801750755775273780E-17, 0.000000000000000000 ) ) ;
#363 = FACE_OUTER_BOUND ( 'NONE', #45, .T. ) ;
#364 = ORIENTED_EDGE ( 'NONE', *, *, #208, .T. ) ;
#365 = ADVANCED_FACE ( 'NONE', ( #291 ), #24, .T. ) ;
#366 = APPROVAL ( #619, 'UNSPECIFIED' ) ;
#367 = CYLINDRICAL_SURFACE ( 'NONE', #226, 1.100000000000000311 ) ;
#368 = ADVANCED_FACE ( 'NONE', ( #1054 ), #287, .F. ) ;
#369 = ORIENTED_EDGE ( 'NONE', *, *, #686, .T. ) ;
#370 = DIRECTION ( 'NONE',  ( 5.801750755775273780E-17, -1.000000000000000000, 0.000000000000000000 ) ) ;
#371 = DIRECTION ( 'NONE',  ( -0.000000000000000000, -0.000000000000000000, -1.000000000000000000 ) ) ;
#372 = CIRCLE ( 'NONE', #423, 5.000000000000004441 ) ;
#373 = AXIS2_PLACEMENT_3D ( 'NONE', #209, #699, #99 ) ;
#374 = ORIENTED_EDGE ( 'NONE', *, *, #89, .T. ) ;
#375 = LINE ( 'NONE', #966, #67 ) ;
#376 = ORIENTED_EDGE ( 'NONE', *, *, #194, .T. ) ;
#377 = DIRECTION ( 'NONE',  ( 0.000000000000000000, 0.000000000000000000, 1.000000000000000000 ) ) ;
#378 = EDGE_LOOP ( 'NONE', ( #462, #1062, #376, #28 ) ) ;
#379 = DIRECTION ( 'NONE',  ( 1.000000000000000000, 0.000000000000000000, 0.000000000000000000 ) ) ;
#380 = VERTEX_POINT ( 'NONE', #969 ) ;
#381 = EDGE_CURVE ( 'NONE', #757, #989, #279, .T. ) ;
#382 = CARTESIAN_POINT ( 'NONE',  ( -25.50000000000000355, -1.337477835036409239E-13, 0.5000000000000000000 ) ) ;
#383 = EDGE_LOOP ( 'NONE', ( #467, #227, #472, #724 ) ) ;
#384 = ORIENTED_EDGE ( 'NONE', *, *, #268, .F. ) ;
#385 = VECTOR ( 'NONE', #66, 1000.000000000000000 ) ;
#386 = DIRECTION ( 'NONE',  ( -0.000000000000000000, 0.000000000000000000, 1.000000000000000000 ) ) ;
#387 = CYLINDRICAL_SURFACE ( 'NONE', #991, 2.599999999999998312 ) ;
#388 = EDGE_CURVE ( 'NONE', #443, #552, #223, .T. ) ;
#389 = VECTOR ( 'NONE', #1016, 1000.000000000000000 ) ;
#390 = AXIS2_PLACEMENT_3D ( 'NONE', #1031, #1036, #794 ) ;
#391 = EDGE_LOOP ( 'NONE', ( #201, #786, #282, #983 ) ) ;
#392 = DIRECTION ( 'NONE',  ( 1.000000000000000000, 0.000000000000000000, 0.000000000000000000 ) ) ;
#393 = VERTEX_POINT ( 'NONE', #1059 ) ;
#394 = EDGE_CURVE ( 'NONE', #623, #203, #280, .T. ) ;
#395 = PERSON ( 'UNSPECIFIED', 'UNSPECIFIED', 'UNSPECIFIED', ('UNSPECIFIED'), ('UNSPECIFIED'), ('UNSPECIFIED') ) ;
#396 = VERTEX_POINT ( 'NONE', #547 ) ;
#397 = CARTESIAN_POINT ( 'NONE',  ( -26.60000000000000497, -1.338824946515471301E-13, 0.5000000000000000000 ) ) ;
#398 = CYLINDRICAL_SURFACE ( 'NONE', #474, 3.099999999999998757 ) ;
#399 = ORIENTED_EDGE ( 'NONE', *, *, #277, .T. ) ;
#400 = EDGE_CURVE ( 'NONE', #411, #716, #888, .T. ) ;
#401 = DIRECTION ( 'NONE',  ( 0.000000000000000000, 0.000000000000000000, 1.000000000000000000 ) ) ;
#402 = FACE_OUTER_BOUND ( 'NONE', #630, .T. ) ;
#403 = AXIS2_PLACEMENT_3D ( 'NONE', #1088, #898, #319 ) ;
#404 = CIRCLE ( 'NONE', #334, 3.000000000000000000 ) ;
#405 = AXIS2_PLACEMENT_3D ( 'NONE', #450, #884, #289 ) ;
#406 = EDGE_LOOP ( 'NONE', ( #191, #332 ) ) ;
#407 = LINE ( 'NONE', #591, #917 ) ;
#408 = DIRECTION ( 'NONE',  ( 0.000000000000000000, 0.000000000000000000, 1.000000000000000000 ) ) ;
#409 = CARTESIAN_POINT ( 'NONE',  ( -7.600000000000011191, 16.34728466653823276, 0.000000000000000000 ) ) ;
#410 = DIRECTION ( 'NONE',  ( -1.000000000000000000, 0.000000000000000000, 0.000000000000000000 ) ) ;
#411 = VERTEX_POINT ( 'NONE', #212 ) ;
#412 = CYLINDRICAL_SURFACE ( 'NONE', #918, 1.100000000000000311 ) ;
#413 = CC_DESIGN_PERSON_AND_ORGANIZATION_ASSIGNMENT ( #342, #73, ( #210 ) ) ;
#414 = CARTESIAN_POINT ( 'NONE',  ( -0.000000000000000000, 26.89999999999999858, 0.5000000000000000000 ) ) ;
#415 = EDGE_CURVE ( 'NONE', #526, #889, #811, .T. ) ;
#416 = DIRECTION ( 'NONE',  ( -0.000000000000000000, -0.000000000000000000, 1.000000000000000000 ) ) ;
#417 = ORIENTED_EDGE ( 'NONE', *, *, #722, .T. ) ;
#418 = LINE ( 'NONE', #1095, #955 ) ;
#419 = DIRECTION ( 'NONE',  ( -0.000000000000000000, 0.000000000000000000, 1.000000000000000000 ) ) ;
#420 = ADVANCED_FACE ( 'NONE', ( #823 ), #139, .F. ) ;
#421 = DIRECTION ( 'NONE',  ( 0.000000000000000000, 0.000000000000000000, 1.000000000000000000 ) ) ;
#422 = ORIENTED_EDGE ( 'NONE', *, *, #890, .F. ) ;
#423 = AXIS2_PLACEMENT_3D ( 'NONE', #670, #856, #945 ) ;
#424 = AXIS2_PLACEMENT_3D ( 'NONE', #251, #1012, #761 ) ;
#425 = CARTESIAN_POINT ( 'NONE',  ( -30.59999999999999432, -19.40000000000000568, -9.500000000000000000 ) ) ;
#426 = APPROVAL_STATUS ( 'not_yet_approved' ) ;
#427 = CARTESIAN_POINT ( 'NONE',  ( -30.59999999999999432, -19.40000000000000568, 0.000000000000000000 ) ) ;
#428 = CC_DESIGN_PERSON_AND_ORGANIZATION_ASSIGNMENT ( #927, #1015, ( #632 ) ) ;
#429 = DIRECTION ( 'NONE',  ( 1.000000000000000000, 0.000000000000000000, 0.000000000000000000 ) ) ;
#430 = FACE_OUTER_BOUND ( 'NONE', #987, .T. ) ;
#431 = CARTESIAN_POINT ( 'NONE',  ( -19.40000000000000924, -6.099999999999807798, 0.000000000000000000 ) ) ;
#432 = CARTESIAN_POINT ( 'NONE',  ( -24.80000000000000426, 21.89999999999999503, 0.000000000000000000 ) ) ;
#433 = EDGE_CURVE ( 'NONE', #706, #698, #647, .T. ) ;
#434 = ORIENTED_EDGE ( 'NONE', *, *, #800, .F. ) ;
#435 = FACE_OUTER_BOUND ( 'NONE', #832, .T. ) ;
#436 = DIRECTION ( 'NONE',  ( 0.000000000000000000, 0.000000000000000000, -1.000000000000000000 ) ) ;
#437 = CARTESIAN_POINT ( 'NONE',  ( -27.90000000000000213, -21.89999999999999503, 0.5000000000000004441 ) ) ;
#438 = VERTEX_POINT ( 'NONE', #988 ) ;
#439 = DIRECTION ( 'NONE',  ( 1.000000000000000000, 0.000000000000000000, 0.000000000000000000 ) ) ;
#440 = AXIS2_PLACEMENT_3D ( 'NONE', #767, #172, #753 ) ;
#441 = DIRECTION ( 'NONE',  ( -1.000000000000000000, 0.000000000000000000, 0.000000000000000000 ) ) ;
#442 = CIRCLE ( 'NONE', #656, 1.500000000000001332 ) ;
#443 = VERTEX_POINT ( 'NONE', #53 ) ;
#444 = CARTESIAN_POINT ( 'NONE',  ( -24.80000000000000426, 21.89999999999999503, 0.5000000000000004441 ) ) ;
#445 = VERTEX_POINT ( 'NONE', #727 ) ;
#446 = FACE_OUTER_BOUND ( 'NONE', #457, .T. ) ;
#447 = DIRECTION ( 'NONE',  ( -1.000000000000000000, 0.000000000000000000, 0.000000000000000000 ) ) ;
#448 = ORIENTED_EDGE ( 'NONE', *, *, #537, .F. ) ;
#449 = EDGE_CURVE ( 'NONE', #438, #752, #816, .T. ) ;
#450 = CARTESIAN_POINT ( 'NONE',  ( -29.89999999999999858, 21.89999999999999503, -9.500000000000000000 ) ) ;
#451 = ORIENTED_EDGE ( 'NONE', *, *, #754, .T. ) ;
#452 = DIRECTION ( 'NONE',  ( -0.000000000000000000, 0.000000000000000000, 1.000000000000000000 ) ) ;
#453 = CARTESIAN_POINT ( 'NONE',  ( -7.600000000000000533, -26.90000000000000213, -9.500000000000000000 ) ) ;
#454 = EDGE_LOOP ( 'NONE', ( #123, #485 ) ) ;
#455 = DIRECTION ( 'NONE',  ( 1.000000000000000000, 0.000000000000000000, 0.000000000000000000 ) ) ;
#456 = APPLICATION_CONTEXT ( 'configuration controlled 3d designs of mechanical parts and assemblies' ) ;
#457 = EDGE_LOOP ( 'NONE', ( #675, #585, #1055, #60 ) ) ;
#458 = DIRECTION ( 'NONE',  ( 1.000000000000000000, 0.000000000000000000, 0.000000000000000000 ) ) ;
#459 = VECTOR ( 'NONE', #1024, 1000.000000000000000 ) ;
#460 = VECTOR ( 'NONE', #1001, 1000.000000000000000 ) ;
#461 = AXIS2_PLACEMENT_3D ( 'NONE', #111, #798, #455 ) ;
#462 = ORIENTED_EDGE ( 'NONE', *, *, #169, .F. ) ;
#463 = DIRECTION ( 'NONE',  ( -1.000000000000000000, 0.000000000000000000, 0.000000000000000000 ) ) ;
#464 = ADVANCED_FACE ( 'NONE', ( #820 ), #229, .F. ) ;
#465 = EDGE_LOOP ( 'NONE', ( #700, #345, #284, #661 ) ) ;
#466 = DIRECTION ( 'NONE',  ( 0.000000000000000000, 0.000000000000000000, -1.000000000000000000 ) ) ;
#467 = ORIENTED_EDGE ( 'NONE', *, *, #785, .T. ) ;
#468 = ORIENTED_EDGE ( 'NONE', *, *, #323, .F. ) ;
#469 = ADVANCED_FACE ( 'NONE', ( #484 ), #572, .F. ) ;
#470 = DIRECTION ( 'NONE',  ( 1.000000000000000000, 5.801750755775273780E-17, 0.000000000000000000 ) ) ;
#471 = EDGE_LOOP ( 'NONE', ( #1094, #119, #374, #534 ) ) ;
#472 = ORIENTED_EDGE ( 'NONE', *, *, #1091, .F. ) ;
#473 = LINE ( 'NONE', #815, #301 ) ;
#474 = AXIS2_PLACEMENT_3D ( 'NONE', #1092, #213, #742 ) ;
#475 = AXIS2_PLACEMENT_3D ( 'NONE', #109, #371, #447 ) ;
#476 = DIRECTION ( 'NONE',  ( -0.000000000000000000, 0.000000000000000000, 1.000000000000000000 ) ) ;
#477 = EDGE_CURVE ( 'NONE', #526, #125, #651, .T. ) ;
#478 = AXIS2_PLACEMENT_3D ( 'NONE', #942, #770, #929 ) ;
#479 = ORIENTED_EDGE ( 'NONE', *, *, #155, .F. ) ;
#480 = CARTESIAN_POINT ( 'NONE',  ( -34.89999999999999858, 21.89999999999999503, -9.500000000000000000 ) ) ;
#481 = DIRECTION ( 'NONE',  ( -1.000000000000000000, 0.000000000000000000, 0.000000000000000000 ) ) ;
#482 = EDGE_CURVE ( 'NONE', #870, #39, #85, .T. ) ;
#483 = VERTEX_POINT ( 'NONE', #310 ) ;
#484 = FACE_OUTER_BOUND ( 'NONE', #521, .T. ) ;
#485 = ORIENTED_EDGE ( 'NONE', *, *, #381, .F. ) ;
#486 = ADVANCED_FACE ( 'NONE', ( #142 ), #1063, .T. ) ;
#487 = ORIENTED_EDGE ( 'NONE', *, *, #1041, .F. ) ;
#488 = DIRECTION ( 'NONE',  ( -0.000000000000000000, -0.000000000000000000, 1.000000000000000000 ) ) ;
#489 = DATE_AND_TIME ( #143, #52 ) ;
#490 = ORIENTED_EDGE ( 'NONE', *, *, #477, .F. ) ;
#491 = AXIS2_PLACEMENT_3D ( 'NONE', #341, #594, #850 ) ;
#492 = EDGE_LOOP ( 'NONE', ( #1057, #961 ) ) ;
#493 = APPROVAL ( #426, 'UNSPECIFIED' ) ;
#494 = CARTESIAN_POINT ( 'NONE',  ( -33.60000000000000142, -19.40000000000000568, -9.500000000000000000 ) ) ;
#495 = CARTESIAN_POINT ( 'NONE',  ( -32.09999999999999432, -19.40000000000000568, 0.000000000000000000 ) ) ;
#496 = CARTESIAN_POINT ( 'NONE',  ( -7.600000000000011191, -19.15975688862333470, -4.500000000000000888 ) ) ;
#497 = ORIENTED_EDGE ( 'NONE', *, *, #774, .T. ) ;
#498 = DIRECTION ( 'NONE',  ( 1.000000000000000000, 0.000000000000000000, 0.000000000000000000 ) ) ;
#499 = EDGE_CURVE ( 'NONE', #10, #716, #306, .T. ) ;
#500 = DIRECTION ( 'NONE',  ( 1.000000000000000000, 0.000000000000000000, 0.000000000000000000 ) ) ;
#501 = CARTESIAN_POINT ( 'NONE',  ( -20.50000000000000711, 6.099999999999802469, 0.5000000000000000000 ) ) ;
#502 = VERTEX_POINT ( 'NONE', #382 ) ;
#503 = CYLINDRICAL_SURFACE ( 'NONE', #491, 3.099999999999998757 ) ;
#504 = PERSON_AND_ORGANIZATION_ROLE ( 'creator' ) ;
#505 = LINE ( 'NONE', #777, #864 ) ;
#506 = CC_DESIGN_PERSON_AND_ORGANIZATION_ASSIGNMENT ( #1019, #851, ( #210 ) ) ;
#507 = CIRCLE ( 'NONE', #885, 1.500000000000001332 ) ;
#508 = CLOSED_SHELL ( 'NONE', ( #420, #876, #1051, #55, #999, #20, #469, #464, #193, #340, #530, #737, #79, #743, #910, #365, #486, #993, #982, #368, #679, #641, #1077, #704, #126, #946, #72, #728, #324, #634 ) ) ;
#509 = CARTESIAN_POINT ( 'NONE',  ( -7.600000000000011191, 26.89999999999999858, -9.500000000000000000 ) ) ;
#510 = CIRCLE ( 'NONE', #148, 3.099999999999998757 ) ;
#511 = CIRCLE ( 'NONE', #313, 3.000000000000000000 ) ;
#512 = LOCAL_TIME ( 11, 32, 57.00000000000000000, #2 ) ;
#513 = CARTESIAN_POINT ( 'NONE',  ( -27.70000000000000639, -1.338824946515471301E-13, 0.000000000000000000 ) ) ;
#514 = CARTESIAN_POINT ( 'NONE',  ( -26.60000000000000497, -1.338824946515471301E-13, 0.5000000000000000000 ) ) ;
#515 = EDGE_CURVE ( 'NONE', #976, #782, #147, .T. ) ;
#516 = LINE ( 'NONE', #597, #780 ) ;
#517 = ORIENTED_EDGE ( 'NONE', *, *, #722, .F. ) ;
#518 = CARTESIAN_POINT ( 'NONE',  ( -10.25000000000008527, -17.75352077758094893, -4.500000000000000888 ) ) ;
#519 = LINE ( 'NONE', #769, #389 ) ;
#520 = CARTESIAN_POINT ( 'NONE',  ( -21.60000000000000853, 6.099999999999802469, 0.000000000000000000 ) ) ;
#521 = EDGE_LOOP ( 'NONE', ( #755, #684, #990, #973 ) ) ;
#522 = LINE ( 'NONE', #695, #224 ) ;
#523 = LINE ( 'NONE', #453, #614 ) ;
#524 = ORIENTED_EDGE ( 'NONE', *, *, #5, .T. ) ;
#525 = AXIS2_PLACEMENT_3D ( 'NONE', #335, #1101, #680 ) ;
#526 = VERTEX_POINT ( 'NONE', #980 ) ;
#527 = CARTESIAN_POINT ( 'NONE',  ( -27.90000000000000213, 21.89999999999999503, 0.5000000000000004441 ) ) ;
#528 = VECTOR ( 'NONE', #723, 1000.000000000000000 ) ;
#529 = VECTOR ( 'NONE', #199, 1000.000000000000000 ) ;
#530 = ADVANCED_FACE ( 'NONE', ( #892 ), #901, .F. ) ;
#531 = CARTESIAN_POINT ( 'NONE',  ( -27.90000000000000213, 21.89999999999999503, 0.5000000000000004441 ) ) ;
#532 = LOCAL_TIME ( 11, 32, 57.00000000000000000, #997 ) ;
#533 = ORIENTED_EDGE ( 'NONE', *, *, #972, .F. ) ;
#534 = ORIENTED_EDGE ( 'NONE', *, *, #1107, .T. ) ;
#535 = CARTESIAN_POINT ( 'NONE',  ( -27.90000000000000213, -21.89999999999999503, 0.000000000000000000 ) ) ;
#536 = CARTESIAN_POINT ( 'NONE',  ( 0.000000000000000000, 0.000000000000000000, 0.5000000000000000000 ) ) ;
#537 = EDGE_CURVE ( 'NONE', #6, #273, #576, .T. ) ;
#538 = ORIENTED_EDGE ( 'NONE', *, *, #499, .F. ) ;
#539 = DIRECTION ( 'NONE',  ( -0.000000000000000000, -0.000000000000000000, -1.000000000000000000 ) ) ;
#540 = ORIENTED_EDGE ( 'NONE', *, *, #309, .F. ) ;
#541 = LINE ( 'NONE', #879, #673 ) ;
#542 = DATE_AND_TIME ( #271, #887 ) ;
#543 = CARTESIAN_POINT ( 'NONE',  ( -29.89999999999999147, -21.90000000000000213, -9.500000000000000000 ) ) ;
#544 = ORIENTED_EDGE ( 'NONE', *, *, #565, .T. ) ;
#545 = DIRECTION ( 'NONE',  ( -0.000000000000000000, -0.000000000000000000, -1.000000000000000000 ) ) ;
#546 = ORIENTED_EDGE ( 'NONE', *, *, #686, .F. ) ;
#547 = CARTESIAN_POINT ( 'NONE',  ( -29.89999999999998792, -26.90000000000000213, 0.000000000000000000 ) ) ;
#548 = AXIS2_PLACEMENT_3D ( 'NONE', #846, #419, #74 ) ;
#549 = VECTOR ( 'NONE', #539, 1000.000000000000000 ) ;
#550 = VECTOR ( 'NONE', #470, 1000.000000000000000 ) ;
#551 = VECTOR ( 'NONE', #545, 1000.000000000000000 ) ;
#552 = VERTEX_POINT ( 'NONE', #732 ) ;
#553 =( LENGTH_UNIT ( ) NAMED_UNIT ( * ) SI_UNIT ( .MILLI., .METRE. ) );
#554 = EDGE_CURVE ( 'NONE', #393, #10, #303, .T. ) ;
#555 = ORIENTED_EDGE ( 'NONE', *, *, #146, .T. ) ;
#556 = DIRECTION ( 'NONE',  ( 0.000000000000000000, 0.000000000000000000, -1.000000000000000000 ) ) ;
#557 = ORIENTED_EDGE ( 'NONE', *, *, #646, .F. ) ;
#558 = EDGE_CURVE ( 'NONE', #273, #640, #473, .T. ) ;
#559 = ORIENTED_EDGE ( 'NONE', *, *, #162, .F. ) ;
#560 = DIRECTION ( 'NONE',  ( 0.000000000000000000, 1.000000000000000000, -0.000000000000000000 ) ) ;
#561 = ORIENTED_EDGE ( 'NONE', *, *, #826, .T. ) ;
#562 = ORIENTED_EDGE ( 'NONE', *, *, #499, .T. ) ;
#563 = CC_DESIGN_PERSON_AND_ORGANIZATION_ASSIGNMENT ( #1096, #504, ( #214 ) ) ;
#564 = DIRECTION ( 'NONE',  ( -0.000000000000000000, -0.000000000000000000, 1.000000000000000000 ) ) ;
#565 = EDGE_CURVE ( 'NONE', #726, #129, #1007, .T. ) ;
#566 = AXIS2_PLACEMENT_3D ( 'NONE', #536, #272, #179 ) ;
#567 = FACE_OUTER_BOUND ( 'NONE', #180, .T. ) ;
#568 = AXIS2_PLACEMENT_3D ( 'NONE', #931, #763, #1090 ) ;
#569 = CIRCLE ( 'NONE', #960, 5.000000000000004441 ) ;
#570 = CC_DESIGN_APPROVAL ( #366, ( #262 ) ) ;
#571 = EDGE_LOOP ( 'NONE', ( #76, #1042 ) ) ;
#572 = CYLINDRICAL_SURFACE ( 'NONE', #937, 3.099999999999998757 ) ;
#573 = FACE_BOUND ( 'NONE', #189, .T. ) ;
#574 = EDGE_CURVE ( 'NONE', #552, #443, #507, .T. ) ;
#575 = VERTEX_POINT ( 'NONE', #164 ) ;
#576 = LINE ( 'NONE', #46, #550 ) ;
#577 = COORDINATED_UNIVERSAL_TIME_OFFSET ( 8, 0, .AHEAD. ) ;
#578 = FACE_BOUND ( 'NONE', #205, .T. ) ;
#579 = VERTEX_POINT ( 'NONE', #77 ) ;
#580 = CARTESIAN_POINT ( 'NONE',  ( -31.00000000000000000, -21.89999999999999503, -8.900000000000000355 ) ) ;
#581 = CARTESIAN_POINT ( 'NONE',  ( -24.50000000000000000, 16.89999999999999858, 0.000000000000000000 ) ) ;
#582 = CIRCLE ( 'NONE', #165, 2.599999999999998312 ) ;
#583 = CARTESIAN_POINT ( 'NONE',  ( -19.30000000000000426, -19.40000000000000568, 0.5000000000000000000 ) ) ;
#584 =( GEOMETRIC_REPRESENTATION_CONTEXT ( 3 ) GLOBAL_UNCERTAINTY_ASSIGNED_CONTEXT ( ( #628 ) ) GLOBAL_UNIT_ASSIGNED_CONTEXT ( ( #553, #608, #705 ) ) REPRESENTATION_CONTEXT ( 'NONE', 'WORKASPACE' ) );
#585 = ORIENTED_EDGE ( 'NONE', *, *, #5, .F. ) ;
#586 = EDGE_CURVE ( 'NONE', #952, #989, #407, .T. ) ;
#587 = PLANE ( 'NONE',  #259 ) ;
#588 = DIRECTION ( 'NONE',  ( -0.000000000000000000, -0.000000000000000000, 1.000000000000000000 ) ) ;
#589 = LINE ( 'NONE', #152, #750 ) ;
#590 = ORIENTED_EDGE ( 'NONE', *, *, #449, .F. ) ;
#591 = CARTESIAN_POINT ( 'NONE',  ( -24.80000000000000426, 21.89999999999999503, -8.900000000000000355 ) ) ;
#592 = FACE_OUTER_BOUND ( 'NONE', #236, .T. ) ;
#593 = DIRECTION ( 'NONE',  ( 1.000000000000000000, 0.000000000000000000, 0.000000000000000000 ) ) ;
#594 = DIRECTION ( 'NONE',  ( -0.000000000000000000, -0.000000000000000000, 1.000000000000000000 ) ) ;
#595 = DIRECTION ( 'NONE',  ( -0.000000000000000000, -0.000000000000000000, -1.000000000000000000 ) ) ;
#596 = EDGE_CURVE ( 'NONE', #698, #215, #1006, .T. ) ;
#597 = CARTESIAN_POINT ( 'NONE',  ( -0.000000000000000000, 26.89999999999999858, 0.000000000000000000 ) ) ;
#598 = AXIS2_PLACEMENT_3D ( 'NONE', #38, #377, #102 ) ;
#599 = CIRCLE ( 'NONE', #188, 1.100000000000000311 ) ;
#600 = ORIENTED_EDGE ( 'NONE', *, *, #515, .T. ) ;
#601 = CARTESIAN_POINT ( 'NONE',  ( -21.60000000000000853, 6.099999999999802469, 0.5000000000000000000 ) ) ;
#602 = PLANE ( 'NONE',  #258 ) ;
#603 = FACE_OUTER_BOUND ( 'NONE', #891, .T. ) ;
#604 = ORIENTED_EDGE ( 'NONE', *, *, #558, .T. ) ;
#605 = DIRECTION ( 'NONE',  ( 1.000000000000000000, 0.000000000000000000, 0.000000000000000000 ) ) ;
#606 = FACE_BOUND ( 'NONE', #645, .T. ) ;
#607 = ORIENTED_EDGE ( 'NONE', *, *, #59, .F. ) ;
#608 =( NAMED_UNIT ( * ) PLANE_ANGLE_UNIT ( ) SI_UNIT ( $, .RADIAN. ) );
#609 = EDGE_LOOP ( 'NONE', ( #1076, #267 ) ) ;
#610 = CYLINDRICAL_SURFACE ( 'NONE', #1084, 3.000000000000000000 ) ;
#611 = DIRECTION ( 'NONE',  ( 1.000000000000000000, 0.000000000000000000, 0.000000000000000000 ) ) ;
#612 = EDGE_LOOP ( 'NONE', ( #657, #882, #290, #788 ) ) ;
#613 = DIRECTION ( 'NONE',  ( -0.000000000000000000, -0.000000000000000000, -1.000000000000000000 ) ) ;
#614 = VECTOR ( 'NONE', #185, 1000.000000000000000 ) ;
#615 = ORIENTED_EDGE ( 'NONE', *, *, #175, .T. ) ;
#616 = DIRECTION ( 'NONE',  ( -0.000000000000000000, -0.000000000000000000, 1.000000000000000000 ) ) ;
#617 = AXIS2_PLACEMENT_3D ( 'NONE', #992, #745, #392 ) ;
#618 = CIRCLE ( 'NONE', #478, 2.599999999999998312 ) ;
#619 = APPROVAL_STATUS ( 'not_yet_approved' ) ;
#620 = DIRECTION ( 'NONE',  ( 0.000000000000000000, 0.000000000000000000, 1.000000000000000000 ) ) ;
#621 = ORIENTED_EDGE ( 'NONE', *, *, #89, .F. ) ;
#622 = DIRECTION ( 'NONE',  ( 1.000000000000000000, 0.000000000000000000, 0.000000000000000000 ) ) ;
#623 = VERTEX_POINT ( 'NONE', #513 ) ;
#624 = CARTESIAN_POINT ( 'NONE',  ( -7.600000000000000533, -26.90000000000000213, 0.000000000000000000 ) ) ;
#625 = CARTESIAN_POINT ( 'NONE',  ( -32.10000000000000142, 19.39999999999999147, -9.500000000000000000 ) ) ;
#626 = EDGE_CURVE ( 'NONE', #396, #744, #418, .T. ) ;
#627 = ORIENTED_EDGE ( 'NONE', *, *, #858, .F. ) ;
#628 = UNCERTAINTY_MEASURE_WITH_UNIT (LENGTH_MEASURE( 1.000000000000000082E-05 ), #553, 'distance_accuracy_value', 'NONE');
#629 = CYLINDRICAL_SURFACE ( 'NONE', #461, 2.599999999999998312 ) ;
#630 = EDGE_LOOP ( 'NONE', ( #924, #1064, #899, #56, #417, #1030, #247, #555, #70, #872 ) ) ;
#631 = DIRECTION ( 'NONE',  ( -1.000000000000000000, 0.000000000000000000, 0.000000000000000000 ) ) ;
#632 = PRODUCT ( '\X2\588a584a5de6\X0\', '\X2\588a584a5de6\X0\', '', ( #834 ) ) ;
#633 = VERTEX_POINT ( 'NONE', #601 ) ;
#634 = ADVANCED_FACE ( 'NONE', ( #243 ), #412, .F. ) ;
#635 = ORIENTED_EDGE ( 'NONE', *, *, #869, .F. ) ;
#636 = CIRCLE ( 'NONE', #1066, 1.100000000000000311 ) ;
#637 = DIRECTION ( 'NONE',  ( -1.000000000000000000, 0.000000000000000000, 0.000000000000000000 ) ) ;
#638 = AXIS2_PLACEMENT_3D ( 'NONE', #764, #343, #1105 ) ;
#639 = CIRCLE ( 'NONE', #903, 3.099999999999998757 ) ;
#640 = VERTEX_POINT ( 'NONE', #1018 ) ;
#641 = ADVANCED_FACE ( 'NONE', ( #844 ), #676, .F. ) ;
#642 = ORIENTED_EDGE ( 'NONE', *, *, #433, .T. ) ;
#643 = CARTESIAN_POINT ( 'NONE',  ( -7.600000000000011191, 0.000000000000000000, 0.000000000000000000 ) ) ;
#644 = CARTESIAN_POINT ( 'NONE',  ( -19.40000000000000924, 6.099999999999802469, 0.000000000000000000 ) ) ;
#645 = EDGE_LOOP ( 'NONE', ( #487, #106 ) ) ;
#646 = EDGE_CURVE ( 'NONE', #952, #1038, #300, .T. ) ;
#647 = LINE ( 'NONE', #480, #187 ) ;
#648 = CARTESIAN_POINT ( 'NONE',  ( -29.89999999999998792, -26.90000000000000213, 0.5000000000000000000 ) ) ;
#649 = ORIENTED_EDGE ( 'NONE', *, *, #181, .F. ) ;
#650 = EDGE_CURVE ( 'NONE', #219, #552, #1014, .T. ) ;
#651 = CIRCLE ( 'NONE', #1102, 2.599999999999998312 ) ;
#652 = CARTESIAN_POINT ( 'NONE',  ( -32.10000000000000142, 19.39999999999999147, -9.500000000000000000 ) ) ;
#653 = AXIS2_PLACEMENT_3D ( 'NONE', #824, #746, #981 ) ;
#654 = FACE_BOUND ( 'NONE', #825, .T. ) ;
#655 = VECTOR ( 'NONE', #91, 1000.000000000000000 ) ;
#656 = AXIS2_PLACEMENT_3D ( 'NONE', #35, #778, #379 ) ;
#657 = ORIENTED_EDGE ( 'NONE', *, *, #208, .F. ) ;
#658 = CARTESIAN_POINT ( 'NONE',  ( 0.000000000000000000, 26.89999999999999858, -9.500000000000000000 ) ) ;
#659 = PERSON_AND_ORGANIZATION ( #395, #336 ) ;
#660 = LINE ( 'NONE', #998, #459 ) ;
#661 = ORIENTED_EDGE ( 'NONE', *, *, #194, .F. ) ;
#662 = LINE ( 'NONE', #668, #655 ) ;
#663 = CALENDAR_DATE ( 2026, 5, 6 ) ;
#664 = CARTESIAN_POINT ( 'NONE',  ( -7.600000000000011191, 26.89999999999999858, 0.5000000000000000000 ) ) ;
#665 = EDGE_CURVE ( 'NONE', #483, #726, #50, .T. ) ;
#666 = DIRECTION ( 'NONE',  ( -0.000000000000000000, -0.000000000000000000, -1.000000000000000000 ) ) ;
#667 = ORIENTED_EDGE ( 'NONE', *, *, #895, .T. ) ;
#668 = CARTESIAN_POINT ( 'NONE',  ( -29.89999999999999503, 26.89999999999999858, -9.500000000000000000 ) ) ;
#669 = COORDINATED_UNIVERSAL_TIME_OFFSET ( 8, 0, .AHEAD. ) ;
#670 = CARTESIAN_POINT ( 'NONE',  ( -29.89999999999999147, -21.90000000000000213, 0.000000000000000000 ) ) ;
#671 = CIRCLE ( 'NONE', #638, 2.599999999999998312 ) ;
#672 = VECTOR ( 'NONE', #912, 1000.000000000000000 ) ;
#673 = VECTOR ( 'NONE', #616, 1000.000000000000000 ) ;
#674 = CARTESIAN_POINT ( 'NONE',  ( -32.09999999999999432, -19.40000000000000568, -9.500000000000000000 ) ) ;
#675 = ORIENTED_EDGE ( 'NONE', *, *, #760, .F. ) ;
#676 = CYLINDRICAL_SURFACE ( 'NONE', #440, 3.099999999999998757 ) ;
#677 = CARTESIAN_POINT ( 'NONE',  ( -29.89999999999999503, 26.89999999999999858, 0.5000000000000000000 ) ) ;
#678 = LINE ( 'NONE', #773, #865 ) ;
#679 = ADVANCED_FACE ( 'NONE', ( #327 ), #503, .F. ) ;
#680 = DIRECTION ( 'NONE',  ( 1.000000000000000000, 0.000000000000000000, 0.000000000000000000 ) ) ;
#681 = DATE_AND_TIME ( #845, #532 ) ;
#682 = CARTESIAN_POINT ( 'NONE',  ( -29.89999999999998792, -26.90000000000000213, -9.500000000000000000 ) ) ;
#683 = LINE ( 'NONE', #116, #549 ) ;
#684 = ORIENTED_EDGE ( 'NONE', *, *, #323, .T. ) ;
#685 = CARTESIAN_POINT ( 'NONE',  ( -34.89999999999999858, -21.90000000000000213, 0.5000000000000000000 ) ) ;
#686 = EDGE_CURVE ( 'NONE', #1089, #215, #662, .T. ) ;
#687 = ADVANCED_BREP_SHAPE_REPRESENTATION ( '\X2\588a584a5de6\X0\', ( #1073, #693 ), #584 ) ;
#688 = DIRECTION ( 'NONE',  ( -1.000000000000000000, 0.000000000000000000, 0.000000000000000000 ) ) ;
#689 = FACE_OUTER_BOUND ( 'NONE', #138, .T. ) ;
#690 = CIRCLE ( 'NONE', #49, 1.100000000000000311 ) ;
#691 = AXIS2_PLACEMENT_3D ( 'NONE', #71, #758, #926 ) ;
#692 = VECTOR ( 'NONE', #217, 1000.000000000000000 ) ;
#693 = AXIS2_PLACEMENT_3D ( 'NONE', #68, #408, #1103 ) ;
#694 = ORIENTED_EDGE ( 'NONE', *, *, #1091, .T. ) ;
#695 = CARTESIAN_POINT ( 'NONE',  ( -7.600000000000011191, 0.000000000000000000, 0.000000000000000000 ) ) ;
#696 = CYLINDRICAL_SURFACE ( 'NONE', #475, 1.100000000000000311 ) ;
#697 = CC_DESIGN_DATE_AND_TIME_ASSIGNMENT ( #681, #86, ( #214 ) ) ;
#698 = VERTEX_POINT ( 'NONE', #150 ) ;
#699 = DIRECTION ( 'NONE',  ( 0.000000000000000000, 0.000000000000000000, -1.000000000000000000 ) ) ;
#700 = ORIENTED_EDGE ( 'NONE', *, *, #975, .F. ) ;
#701 = CARTESIAN_POINT ( 'NONE',  ( -26.60000000000000497, -1.338824946515471301E-13, 0.5000000000000000000 ) ) ;
#702 = FACE_BOUND ( 'NONE', #1046, .T. ) ;
#703 = ORIENTED_EDGE ( 'NONE', *, *, #137, .F. ) ;
#704 = ADVANCED_FACE ( 'NONE', ( #430 ), #587, .T. ) ;
#705 =( NAMED_UNIT ( * ) SI_UNIT ( $, .STERADIAN. ) SOLID_ANGLE_UNIT ( ) );
#706 = VERTEX_POINT ( 'NONE', #237 ) ;
#707 = DIRECTION ( 'NONE',  ( -0.000000000000000000, -0.000000000000000000, 1.000000000000000000 ) ) ;
#708 = CARTESIAN_POINT ( 'NONE',  ( -20.50000000000000711, 6.099999999999802469, 0.5000000000000000000 ) ) ;
#709 = VERTEX_POINT ( 'NONE', #685 ) ;
#710 = APPLICATION_CONTEXT ( 'configuration controlled 3d designs of mechanical parts and assemblies' ) ;
#711 = CARTESIAN_POINT ( 'NONE',  ( -21.90000000000000213, -19.40000000000000568, 0.5000000000000000000 ) ) ;
#712 = EDGE_CURVE ( 'NONE', #37, #443, #1023, .T. ) ;
#713 = APPROVAL ( #318, 'UNSPECIFIED' ) ;
#714 = AXIS2_PLACEMENT_3D ( 'NONE', #531, #118, #458 ) ;
#715 = AXIS2_PLACEMENT_3D ( 'NONE', #535, #1053, #183 ) ;
#716 = VERTEX_POINT ( 'NONE', #833 ) ;
#717 = CARTESIAN_POINT ( 'NONE',  ( -33.60000000000000142, 19.39999999999999147, 0.000000000000000000 ) ) ;
#718 = FACE_BOUND ( 'NONE', #1074, .T. ) ;
#719 = ORIENTED_EDGE ( 'NONE', *, *, #972, .T. ) ;
#720 = DIRECTION ( 'NONE',  ( 0.000000000000000000, 1.000000000000000000, -0.000000000000000000 ) ) ;
#721 = ORIENTED_EDGE ( 'NONE', *, *, #216, .T. ) ;
#722 = EDGE_CURVE ( 'NONE', #706, #1089, #84, .T. ) ;
#723 = DIRECTION ( 'NONE',  ( 0.000000000000000000, 0.000000000000000000, -1.000000000000000000 ) ) ;
#724 = ORIENTED_EDGE ( 'NONE', *, *, #433, .F. ) ;
#725 = CARTESIAN_POINT ( 'NONE',  ( -34.89999999999999858, 0.000000000000000000, 0.5000000000000000000 ) ) ;
#726 = VERTEX_POINT ( 'NONE', #154 ) ;
#727 = CARTESIAN_POINT ( 'NONE',  ( -7.600000000000011191, 26.89999999999999858, 0.000000000000000000 ) ) ;
#728 = ADVANCED_FACE ( 'NONE', ( #446 ), #101, .F. ) ;
#729 = ORIENTED_EDGE ( 'NONE', *, *, #858, .T. ) ;
#730 = EDGE_CURVE ( 'NONE', #989, #757, #639, .T. ) ;
#731 = ORIENTED_EDGE ( 'NONE', *, *, #915, .T. ) ;
#732 = CARTESIAN_POINT ( 'NONE',  ( -30.59999999999999432, -19.40000000000000568, 0.5000000000000000000 ) ) ;
#733 = AXIS2_PLACEMENT_3D ( 'NONE', #868, #620, #611 ) ;
#734 = VECTOR ( 'NONE', #113, 1000.000000000000000 ) ;
#735 = EDGE_CURVE ( 'NONE', #411, #640, #103, .T. ) ;
#736 = LOCAL_TIME ( 11, 32, 57.00000000000000000, #669 ) ;
#737 = ADVANCED_FACE ( 'NONE', ( #357 ), #270, .T. ) ;
#738 = CARTESIAN_POINT ( 'NONE',  ( -21.90000000000000213, -19.40000000000000568, 0.000000000000000000 ) ) ;
#739 = EDGE_CURVE ( 'NONE', #393, #380, #511, .T. ) ;
#740 = ORIENTED_EDGE ( 'NONE', *, *, #537, .T. ) ;
#741 = DIRECTION ( 'NONE',  ( -0.000000000000000000, -0.000000000000000000, 1.000000000000000000 ) ) ;
#742 = DIRECTION ( 'NONE',  ( 1.000000000000000000, 0.000000000000000000, 0.000000000000000000 ) ) ;
#743 = ADVANCED_FACE ( 'NONE', ( #435 ), #610, .F. ) ;
#744 = VERTEX_POINT ( 'NONE', #624 ) ;
#745 = DIRECTION ( 'NONE',  ( -0.000000000000000000, 0.000000000000000000, 1.000000000000000000 ) ) ;
#746 = DIRECTION ( 'NONE',  ( -0.000000000000000000, 0.000000000000000000, 1.000000000000000000 ) ) ;
#747 = VERTEX_POINT ( 'NONE', #192 ) ;
#748 = DIRECTION ( 'NONE',  ( -1.000000000000000000, 0.000000000000000000, -0.000000000000000000 ) ) ;
#749 = PLANE ( 'NONE',  #403 ) ;
#750 = VECTOR ( 'NONE', #325, 1000.000000000000000 ) ;
#751 = CC_DESIGN_APPROVAL ( #713, ( #214 ) ) ;
#752 = VERTEX_POINT ( 'NONE', #717 ) ;
#753 = DIRECTION ( 'NONE',  ( 1.000000000000000000, 0.000000000000000000, 0.000000000000000000 ) ) ;
#754 = EDGE_CURVE ( 'NONE', #726, #483, #921, .T. ) ;
#755 = ORIENTED_EDGE ( 'NONE', *, *, #220, .F. ) ;
#756 = CARTESIAN_POINT ( 'NONE',  ( -29.89999999999999147, -21.90000000000000213, 0.5000000000000000000 ) ) ;
#757 = VERTEX_POINT ( 'NONE', #11 ) ;
#758 = DIRECTION ( 'NONE',  ( 0.000000000000000000, -0.000000000000000000, -1.000000000000000000 ) ) ;
#759 = DIRECTION ( 'NONE',  ( -0.000000000000000000, -0.000000000000000000, 1.000000000000000000 ) ) ;
#760 = EDGE_CURVE ( 'NONE', #976, #134, #178, .T. ) ;
#761 = DIRECTION ( 'NONE',  ( 1.000000000000000000, 0.000000000000000000, 0.000000000000000000 ) ) ;
#762 = ORIENTED_EDGE ( 'NONE', *, *, #175, .F. ) ;
#763 = DIRECTION ( 'NONE',  ( -0.000000000000000000, 0.000000000000000000, 1.000000000000000000 ) ) ;
#764 = CARTESIAN_POINT ( 'NONE',  ( -21.90000000000000213, 16.89999999999999858, 0.000000000000000000 ) ) ;
#765 = LINE ( 'NONE', #331, #34 ) ;
#766 = EDGE_LOOP ( 'NONE', ( #615, #667, #807, #649 ) ) ;
#767 = CARTESIAN_POINT ( 'NONE',  ( -27.90000000000000213, -21.89999999999999503, -8.900000000000000355 ) ) ;
#768 = APPROVAL_ROLE ( '' ) ;
#769 = CARTESIAN_POINT ( 'NONE',  ( -30.60000000000000142, 19.39999999999999147, -9.500000000000000000 ) ) ;
#770 = DIRECTION ( 'NONE',  ( 0.000000000000000000, 0.000000000000000000, 1.000000000000000000 ) ) ;
#771 = CARTESIAN_POINT ( 'NONE',  ( -7.600000000000011191, 0.000000000000000000, -9.500000000000000000 ) ) ;
#772 = CARTESIAN_POINT ( 'NONE',  ( -20.50000000000000711, 6.099999999999802469, 0.5000000000000000000 ) ) ;
#773 = CARTESIAN_POINT ( 'NONE',  ( -21.60000000000000853, 6.099999999999802469, 0.5000000000000000000 ) ) ;
#774 = EDGE_CURVE ( 'NONE', #744, #380, #522, .T. ) ;
#775 = EDGE_LOOP ( 'NONE', ( #810, #320, #32, #171 ) ) ;
#776 = DIRECTION ( 'NONE',  ( 0.000000000000000000, 0.000000000000000000, -1.000000000000000000 ) ) ;
#777 = CARTESIAN_POINT ( 'NONE',  ( -21.60000000000000853, -6.099999999999807798, 0.5000000000000000000 ) ) ;
#778 = DIRECTION ( 'NONE',  ( 0.000000000000000000, 0.000000000000000000, 1.000000000000000000 ) ) ;
#779 = AXIS2_PLACEMENT_3D ( 'NONE', #658, #128, #996 ) ;
#780 = VECTOR ( 'NONE', #90, 1000.000000000000000 ) ;
#781 = CIRCLE ( 'NONE', #1050, 1.100000000000000311 ) ;
#782 = VERTEX_POINT ( 'NONE', #860 ) ;
#783 = CARTESIAN_POINT ( 'NONE',  ( -20.50000000000000711, -6.099999999999807798, 0.000000000000000000 ) ) ;
#784 = DIRECTION ( 'NONE',  ( 0.000000000000000000, 1.000000000000000000, -0.000000000000000000 ) ) ;
#785 = EDGE_CURVE ( 'NONE', #706, #25, #276, .T. ) ;
#786 = ORIENTED_EDGE ( 'NONE', *, *, #800, .T. ) ;
#787 = CARTESIAN_POINT ( 'NONE',  ( -7.600000000000011191, 19.15975688862394222, 0.5000000000000004441 ) ) ;
#788 = ORIENTED_EDGE ( 'NONE', *, *, #415, .F. ) ;
#789 = DIRECTION ( 'NONE',  ( -0.000000000000000000, 0.000000000000000000, 1.000000000000000000 ) ) ;
#790 = FACE_BOUND ( 'NONE', #843, .T. ) ;
#791 = ORIENTED_EDGE ( 'NONE', *, *, #400, .T. ) ;
#792 = FACE_OUTER_BOUND ( 'NONE', #612, .T. ) ;
#793 = ORIENTED_EDGE ( 'NONE', *, *, #586, .T. ) ;
#794 = DIRECTION ( 'NONE',  ( -1.000000000000000000, 0.000000000000000000, 0.000000000000000000 ) ) ;
#795 = APPROVAL_ROLE ( '' ) ;
#796 = DIRECTION ( 'NONE',  ( -0.000000000000000000, -0.000000000000000000, 1.000000000000000000 ) ) ;
#797 = ORIENTED_EDGE ( 'NONE', *, *, #330, .F. ) ;
#798 = DIRECTION ( 'NONE',  ( -0.000000000000000000, -0.000000000000000000, 1.000000000000000000 ) ) ;
#799 = AXIS2_PLACEMENT_3D ( 'NONE', #652, #741, #43 ) ;
#800 = EDGE_CURVE ( 'NONE', #752, #211, #541, .T. ) ;
#801 = CIRCLE ( 'NONE', #424, 2.599999999999998312 ) ;
#802 = VERTEX_POINT ( 'NONE', #855 ) ;
#803 = VECTOR ( 'NONE', #1034, 1000.000000000000000 ) ;
#804 = PLANE ( 'NONE',  #566 ) ;
#805 = ORIENTED_EDGE ( 'NONE', *, *, #394, .T. ) ;
#806 = LINE ( 'NONE', #725, #803 ) ;
#807 = ORIENTED_EDGE ( 'NONE', *, *, #905, .F. ) ;
#808 = CARTESIAN_POINT ( 'NONE',  ( -7.600000000000011191, 0.000000000000000000, 0.5000000000000000000 ) ) ;
#809 = VERTEX_POINT ( 'NONE', #97 ) ;
#810 = ORIENTED_EDGE ( 'NONE', *, *, #841, .F. ) ;
#811 = LINE ( 'NONE', #135, #672 ) ;
#812 = ORIENTED_EDGE ( 'NONE', *, *, #317, .F. ) ;
#813 = ORIENTED_EDGE ( 'NONE', *, *, #735, .F. ) ;
#814 = AXIS2_PLACEMENT_3D ( 'NONE', #514, #852, #688 ) ;
#815 = CARTESIAN_POINT ( 'NONE',  ( -7.600000000000011191, 0.000000000000000000, 0.5000000000000000000 ) ) ;
#816 = CIRCLE ( 'NONE', #617, 1.500000000000001332 ) ;
#817 = CARTESIAN_POINT ( 'NONE',  ( -33.60000000000000142, -19.40000000000000568, 0.000000000000000000 ) ) ;
#818 = EDGE_CURVE ( 'NONE', #802, #134, #599, .T. ) ;
#819 = ORIENTED_EDGE ( 'NONE', *, *, #1065, .T. ) ;
#820 = FACE_OUTER_BOUND ( 'NONE', #391, .T. ) ;
#821 = DIRECTION ( 'NONE',  ( -0.000000000000000000, -0.000000000000000000, 1.000000000000000000 ) ) ;
#822 = ORIENTED_EDGE ( 'NONE', *, *, #646, .T. ) ;
#823 = FACE_OUTER_BOUND ( 'NONE', #775, .T. ) ;
#824 = CARTESIAN_POINT ( 'NONE',  ( -32.09999999999999432, -19.40000000000000568, 0.000000000000000000 ) ) ;
#825 = EDGE_LOOP ( 'NONE', ( #1078, #359 ) ) ;
#826 = EDGE_CURVE ( 'NONE', #411, #393, #350, .T. ) ;
#827 = DIRECTION ( 'NONE',  ( -1.000000000000000000, 0.000000000000000000, 0.000000000000000000 ) ) ;
#828 = CIRCLE ( 'NONE', #1026, 3.099999999999998757 ) ;
#829 = DIRECTION ( 'NONE',  ( -1.000000000000000000, 0.000000000000000000, 0.000000000000000000 ) ) ;
#830 = AXIS2_PLACEMENT_3D ( 'NONE', #131, #556, #908 ) ;
#831 = CC_DESIGN_APPROVAL ( #493, ( #210 ) ) ;
#832 = EDGE_LOOP ( 'NONE', ( #349, #269, #878, #153 ) ) ;
#833 = CARTESIAN_POINT ( 'NONE',  ( -7.600000000000011191, 16.34728466653823276, 0.5000000000000000000 ) ) ;
#834 = MECHANICAL_CONTEXT ( 'NONE', #710, 'mechanical' ) ;
#835 = LINE ( 'NONE', #87, #312 ) ;
#836 = CARTESIAN_POINT ( 'NONE',  ( -19.30000000000000426, 16.89999999999999858, 0.5000000000000000000 ) ) ;
#837 = EDGE_LOOP ( 'NONE', ( #22, #140, #292, #911 ) ) ;
#838 = DIRECTION ( 'NONE',  ( 0.000000000000000000, 0.000000000000000000, 1.000000000000000000 ) ) ;
#839 = CC_DESIGN_DATE_AND_TIME_ASSIGNMENT ( #489, #244, ( #262 ) ) ;
#840 = CARTESIAN_POINT ( 'NONE',  ( -25.50000000000000355, -1.337477835036409239E-13, 0.000000000000000000 ) ) ;
#841 = EDGE_CURVE ( 'NONE', #502, #956, #847, .T. ) ;
#842 = LINE ( 'NONE', #509, #352 ) ;
#843 = EDGE_LOOP ( 'NONE', ( #308, #130 ) ) ;
#844 = FACE_OUTER_BOUND ( 'NONE', #471, .T. ) ;
#845 = CALENDAR_DATE ( 2026, 5, 6 ) ;
#846 = CARTESIAN_POINT ( 'NONE',  ( -32.10000000000000142, 19.39999999999999147, 0.000000000000000000 ) ) ;
#847 = CIRCLE ( 'NONE', #1049, 1.100000000000000311 ) ;
#848 = CARTESIAN_POINT ( 'NONE',  ( -34.89999999999999858, -21.90000000000000213, -9.500000000000000000 ) ) ;
#849 = ORIENTED_EDGE ( 'NONE', *, *, #963, .T. ) ;
#850 = DIRECTION ( 'NONE',  ( 1.000000000000000000, 0.000000000000000000, 0.000000000000000000 ) ) ;
#851 = PERSON_AND_ORGANIZATION_ROLE ( 'design_supplier' ) ;
#852 = DIRECTION ( 'NONE',  ( 0.000000000000000000, 0.000000000000000000, -1.000000000000000000 ) ) ;
#853 = CARTESIAN_POINT ( 'NONE',  ( -21.90000000000000213, 16.89999999999999858, 0.000000000000000000 ) ) ;
#854 = ORIENTED_EDGE ( 'NONE', *, *, #554, .T. ) ;
#855 = CARTESIAN_POINT ( 'NONE',  ( -21.60000000000000853, -6.099999999999807798, 0.000000000000000000 ) ) ;
#856 = DIRECTION ( 'NONE',  ( 0.000000000000000000, -0.000000000000000000, -1.000000000000000000 ) ) ;
#857 = DIRECTION ( 'NONE',  ( -0.000000000000000000, -0.000000000000000000, 1.000000000000000000 ) ) ;
#858 = EDGE_CURVE ( 'NONE', #1013, #716, #404, .T. ) ;
#859 = EDGE_LOOP ( 'NONE', ( #907, #339 ) ) ;
#860 = CARTESIAN_POINT ( 'NONE',  ( -21.60000000000000853, -6.099999999999807798, 0.5000000000000000000 ) ) ;
#861 = DIRECTION ( 'NONE',  ( -0.000000000000000000, -0.000000000000000000, 1.000000000000000000 ) ) ;
#862 = ORIENTED_EDGE ( 'NONE', *, *, #650, .T. ) ;
#863 = CARTESIAN_POINT ( 'NONE',  ( -29.89999999999999503, 26.89999999999999858, 0.000000000000000000 ) ) ;
#864 = VECTOR ( 'NONE', #595, 1000.000000000000000 ) ;
#865 = VECTOR ( 'NONE', #947, 1000.000000000000000 ) ;
#866 = ORIENTED_EDGE ( 'NONE', *, *, #26, .F. ) ;
#867 = CARTESIAN_POINT ( 'NONE',  ( -10.25000000000008527, -17.75352077758094893, 0.000000000000000000 ) ) ;
#868 = CARTESIAN_POINT ( 'NONE',  ( -32.10000000000000142, 19.39999999999999147, 0.5000000000000000000 ) ) ;
#869 = EDGE_CURVE ( 'NONE', #125, #747, #765, .T. ) ;
#870 = VERTEX_POINT ( 'NONE', #520 ) ;
#871 = DIRECTION ( 'NONE',  ( 0.000000000000000000, 0.000000000000000000, 1.000000000000000000 ) ) ;
#872 = ORIENTED_EDGE ( 'NONE', *, *, #739, .T. ) ;
#873 = CARTESIAN_POINT ( 'NONE',  ( -19.40000000000000924, -6.099999999999807798, 0.5000000000000000000 ) ) ;
#874 = FACE_BOUND ( 'NONE', #406, .T. ) ;
#875 = ORIENTED_EDGE ( 'NONE', *, *, #915, .F. ) ;
#876 = ADVANCED_FACE ( 'NONE', ( #689 ), #176, .F. ) ;
#877 = DIRECTION ( 'NONE',  ( 0.000000000000000000, 0.000000000000000000, 1.000000000000000000 ) ) ;
#878 = ORIENTED_EDGE ( 'NONE', *, *, #963, .F. ) ;
#879 = CARTESIAN_POINT ( 'NONE',  ( -33.60000000000000142, 19.39999999999999147, -9.500000000000000000 ) ) ;
#880 = COORDINATED_UNIVERSAL_TIME_OFFSET ( 8, 0, .AHEAD. ) ;
#881 = DIRECTION ( 'NONE',  ( 1.000000000000000000, 0.000000000000000000, 0.000000000000000000 ) ) ;
#882 = ORIENTED_EDGE ( 'NONE', *, *, #869, .T. ) ;
#883 = DESIGN_CONTEXT ( 'detailed design', #456, 'design' ) ;
#884 = DIRECTION ( 'NONE',  ( -0.000000000000000000, -0.000000000000000000, 1.000000000000000000 ) ) ;
#885 = AXIS2_PLACEMENT_3D ( 'NONE', #248, #838, #498 ) ;
#886 = ORIENTED_EDGE ( 'NONE', *, *, #95, .T. ) ;
#887 = LOCAL_TIME ( 11, 32, 57.00000000000000000, #880 ) ;
#888 = LINE ( 'NONE', #57, #1104 ) ;
#889 = VERTEX_POINT ( 'NONE', #836 ) ;
#890 = EDGE_CURVE ( 'NONE', #1089, #445, #516, .T. ) ;
#891 = EDGE_LOOP ( 'NONE', ( #635, #490, #177, #731 ) ) ;
#892 = FACE_OUTER_BOUND ( 'NONE', #995, .T. ) ;
#893 = CARTESIAN_POINT ( 'NONE',  ( -27.90000000000000213, -21.89999999999999503, 0.5000000000000004441 ) ) ;
#894 = ORIENTED_EDGE ( 'NONE', *, *, #626, .T. ) ;
#895 = EDGE_CURVE ( 'NONE', #6, #709, #569, .T. ) ;
#896 = DIRECTION ( 'NONE',  ( -1.000000000000000000, 0.000000000000000000, 0.000000000000000000 ) ) ;
#897 = APPLICATION_PROTOCOL_DEFINITION ( 'international standard', 'config_control_design', 1994, #710 ) ;
#898 = DIRECTION ( 'NONE',  ( -0.000000000000000000, 0.000000000000000000, 1.000000000000000000 ) ) ;
#899 = ORIENTED_EDGE ( 'NONE', *, *, #181, .T. ) ;
#900 = AXIS2_PLACEMENT_3D ( 'NONE', #625, #861, #974 ) ;
#901 = PLANE ( 'NONE',  #779 ) ;
#902 = AXIS2_PLACEMENT_3D ( 'NONE', #397, #296, #896 ) ;
#903 = AXIS2_PLACEMENT_3D ( 'NONE', #527, #789, #605 ) ;
#904 = EDGE_CURVE ( 'NONE', #916, #579, #618, .T. ) ;
#905 = EDGE_CURVE ( 'NONE', #25, #709, #1017, .T. ) ;
#906 = CARTESIAN_POINT ( 'NONE',  ( -20.50000000000000711, 6.099999999999802469, 0.000000000000000000 ) ) ;
#907 = ORIENTED_EDGE ( 'NONE', *, *, #574, .F. ) ;
#908 = DIRECTION ( 'NONE',  ( -1.000000000000000000, 0.000000000000000000, 0.000000000000000000 ) ) ;
#909 = DIRECTION ( 'NONE',  ( -0.000000000000000000, -0.000000000000000000, 1.000000000000000000 ) ) ;
#910 = ADVANCED_FACE ( 'NONE', ( #170 ), #935, .F. ) ;
#911 = ORIENTED_EDGE ( 'NONE', *, *, #235, .F. ) ;
#912 = DIRECTION ( 'NONE',  ( -0.000000000000000000, -0.000000000000000000, 1.000000000000000000 ) ) ;
#913 = CALENDAR_DATE ( 2026, 5, 6 ) ;
#914 = FACE_OUTER_BOUND ( 'NONE', #465, .T. ) ;
#915 = EDGE_CURVE ( 'NONE', #889, #747, #120, .T. ) ;
#916 = VERTEX_POINT ( 'NONE', #583 ) ;
#917 = VECTOR ( 'NONE', #82, 1000.000000000000000 ) ;
#918 = AXIS2_PLACEMENT_3D ( 'NONE', #944, #321, #827 ) ;
#919 = DIRECTION ( 'NONE',  ( 1.000000000000000000, 5.801750755775273780E-17, 0.000000000000000000 ) ) ;
#920 = DIRECTION ( 'NONE',  ( 0.000000000000000000, 0.000000000000000000, -1.000000000000000000 ) ) ;
#921 = CIRCLE ( 'NONE', #715, 3.099999999999998757 ) ;
#922 = CIRCLE ( 'NONE', #14, 2.599999999999998312 ) ;
#923 = DIRECTION ( 'NONE',  ( 1.000000000000000000, 0.000000000000000000, 0.000000000000000000 ) ) ;
#924 = ORIENTED_EDGE ( 'NONE', *, *, #774, .F. ) ;
#925 = EDGE_CURVE ( 'NONE', #633, #870, #678, .T. ) ;
#926 = DIRECTION ( 'NONE',  ( 1.000000000000000000, 0.000000000000000000, 0.000000000000000000 ) ) ;
#927 = PERSON_AND_ORGANIZATION ( #395, #336 ) ;
#928 = DIRECTION ( 'NONE',  ( -0.000000000000000000, -0.000000000000000000, 1.000000000000000000 ) ) ;
#929 = DIRECTION ( 'NONE',  ( 1.000000000000000000, 0.000000000000000000, 0.000000000000000000 ) ) ;
#930 = ORIENTED_EDGE ( 'NONE', *, *, #932, .T. ) ;
#931 = CARTESIAN_POINT ( 'NONE',  ( -27.90000000000000213, 21.89999999999999503, 0.000000000000000000 ) ) ;
#932 = EDGE_CURVE ( 'NONE', #141, #39, #589, .T. ) ;
#933 = APPROVAL_ROLE ( '' ) ;
#934 = CARTESIAN_POINT ( 'NONE',  ( -31.00000000000000000, -21.89999999999999503, 0.5000000000000004441 ) ) ;
#935 = CYLINDRICAL_SURFACE ( 'NONE', #88, 3.000000000000000000 ) ;
#936 = DIRECTION ( 'NONE',  ( 0.000000000000000000, 1.000000000000000000, -0.000000000000000000 ) ) ;
#937 = AXIS2_PLACEMENT_3D ( 'NONE', #1075, #232, #221 ) ;
#938 = PERSON_AND_ORGANIZATION ( #395, #336 ) ;
#939 = DIRECTION ( 'NONE',  ( 1.000000000000000000, 0.000000000000000000, 0.000000000000000000 ) ) ;
#940 = VECTOR ( 'NONE', #950, 1000.000000000000000 ) ;
#941 = AXIS2_PLACEMENT_3D ( 'NONE', #252, #1, #159 ) ;
#942 = CARTESIAN_POINT ( 'NONE',  ( -21.90000000000000213, -19.40000000000000568, 0.5000000000000000000 ) ) ;
#943 = ORIENTED_EDGE ( 'NONE', *, *, #712, .F. ) ;
#944 = CARTESIAN_POINT ( 'NONE',  ( -26.60000000000000497, -1.338824946515471301E-13, 0.5000000000000000000 ) ) ;
#945 = DIRECTION ( 'NONE',  ( 1.000000000000000000, 0.000000000000000000, 0.000000000000000000 ) ) ;
#946 = ADVANCED_FACE ( 'NONE', ( #603 ), #1004, .F. ) ;
#947 = DIRECTION ( 'NONE',  ( -0.000000000000000000, -0.000000000000000000, -1.000000000000000000 ) ) ;
#948 = EDGE_LOOP ( 'NONE', ( #434, #590, #721, #115 ) ) ;
#949 = CARTESIAN_POINT ( 'NONE',  ( -10.25000000000008527, -17.75352077758094893, 0.5000000000000004441 ) ) ;
#950 = DIRECTION ( 'NONE',  ( -0.000000000000000000, -0.000000000000000000, 1.000000000000000000 ) ) ;
#951 = ORIENTED_EDGE ( 'NONE', *, *, #388, .T. ) ;
#952 = VERTEX_POINT ( 'NONE', #432 ) ;
#953 = DIRECTION ( 'NONE',  ( 0.000000000000000000, 0.000000000000000000, -1.000000000000000000 ) ) ;
#954 = DIRECTION ( 'NONE',  ( 1.000000000000000000, 0.000000000000000000, 0.000000000000000000 ) ) ;
#955 = VECTOR ( 'NONE', #919, 1000.000000000000000 ) ;
#956 = VERTEX_POINT ( 'NONE', #9 ) ;
#957 = VECTOR ( 'NONE', #784, 1000.000000000000000 ) ;
#958 = DIRECTION ( 'NONE',  ( 0.000000000000000000, 0.000000000000000000, -1.000000000000000000 ) ) ;
#959 = AXIS2_PLACEMENT_3D ( 'NONE', #204, #353, #441 ) ;
#960 = AXIS2_PLACEMENT_3D ( 'NONE', #756, #157, #429 ) ;
#961 = ORIENTED_EDGE ( 'NONE', *, *, #162, .T. ) ;
#962 = DIRECTION ( 'NONE',  ( -1.000000000000000000, 0.000000000000000000, 0.000000000000000000 ) ) ;
#963 = EDGE_CURVE ( 'NONE', #380, #640, #4, .T. ) ;
#964 = LINE ( 'NONE', #278, #940 ) ;
#965 = EDGE_LOOP ( 'NONE', ( #819, #719, #797, #399 ) ) ;
#966 = CARTESIAN_POINT ( 'NONE',  ( -7.600000000000011191, 0.000000000000000000, 0.000000000000000000 ) ) ;
#967 = ORIENTED_EDGE ( 'NONE', *, *, #558, .F. ) ;
#968 = CARTESIAN_POINT ( 'NONE',  ( -34.89999999999999858, 0.000000000000000000, 0.000000000000000000 ) ) ;
#969 = CARTESIAN_POINT ( 'NONE',  ( -7.600000000000012079, -19.15975688862333470, 0.000000000000000000 ) ) ;
#970 = EDGE_LOOP ( 'NONE', ( #264, #127 ) ) ;
#971 = DIRECTION ( 'NONE',  ( 1.000000000000000000, 0.000000000000000000, 0.000000000000000000 ) ) ;
#972 = EDGE_CURVE ( 'NONE', #445, #96, #842, .T. ) ;
#973 = ORIENTED_EDGE ( 'NONE', *, *, #586, .F. ) ;
#974 = DIRECTION ( 'NONE',  ( 1.000000000000000000, 0.000000000000000000, 0.000000000000000000 ) ) ;
#975 = EDGE_CURVE ( 'NONE', #63, #295, #801, .T. ) ;
#976 = VERTEX_POINT ( 'NONE', #246 ) ;
#977 = CARTESIAN_POINT ( 'NONE',  ( -20.50000000000000711, -6.099999999999807798, 0.5000000000000000000 ) ) ;
#978 = VECTOR ( 'NONE', #329, 1000.000000000000000 ) ;
#979 = ORIENTED_EDGE ( 'NONE', *, *, #754, .F. ) ;
#980 = CARTESIAN_POINT ( 'NONE',  ( -19.30000000000000426, 16.89999999999999858, 0.000000000000000000 ) ) ;
#981 = DIRECTION ( 'NONE',  ( 1.000000000000000000, 0.000000000000000000, 0.000000000000000000 ) ) ;
#982 = ADVANCED_FACE ( 'NONE', ( #344 ), #1099, .F. ) ;
#983 = ORIENTED_EDGE ( 'NONE', *, *, #216, .F. ) ;
#984 = CARTESIAN_POINT ( 'NONE',  ( -34.89999999999999858, 0.000000000000000000, -9.500000000000000000 ) ) ;
#985 = FACE_OUTER_BOUND ( 'NONE', #378, .T. ) ;
#986 = EDGE_CURVE ( 'NONE', #956, #623, #683, .T. ) ;
#987 = EDGE_LOOP ( 'NONE', ( #854, #562, #231, #561 ) ) ;
#988 = CARTESIAN_POINT ( 'NONE',  ( -30.60000000000000142, 19.39999999999999147, 0.000000000000000000 ) ) ;
#989 = VERTEX_POINT ( 'NONE', #444 ) ;
#990 = ORIENTED_EDGE ( 'NONE', *, *, #381, .T. ) ;
#991 = AXIS2_PLACEMENT_3D ( 'NONE', #144, #821, #58 ) ;
#992 = CARTESIAN_POINT ( 'NONE',  ( -32.10000000000000142, 19.39999999999999147, 0.000000000000000000 ) ) ;
#993 = ADVANCED_FACE ( 'NONE', ( #27 ), #274, .T. ) ;
#994 = ORIENTED_EDGE ( 'NONE', *, *, #137, .T. ) ;
#995 = EDGE_LOOP ( 'NONE', ( #533, #422, #369, #994 ) ) ;
#996 = DIRECTION ( 'NONE',  ( 0.000000000000000000, -0.000000000000000000, -1.000000000000000000 ) ) ;
#997 = COORDINATED_UNIVERSAL_TIME_OFFSET ( 8, 0, .AHEAD. ) ;
#998 = CARTESIAN_POINT ( 'NONE',  ( -24.80000000000000426, -21.89999999999999503, -8.900000000000000355 ) ) ;
#999 = ADVANCED_FACE ( 'NONE', ( #792 ), #629, .F. ) ;
#1000 = ORIENTED_EDGE ( 'NONE', *, *, #650, .F. ) ;
#1001 = DIRECTION ( 'NONE',  ( -0.000000000000000000, -0.000000000000000000, 1.000000000000000000 ) ) ;
#1002 = DATE_AND_TIME ( #663, #736 ) ;
#1003 = CARTESIAN_POINT ( 'NONE',  ( -7.600000000000011191, 0.000000000000000000, -9.500000000000000000 ) ) ;
#1004 = CYLINDRICAL_SURFACE ( 'NONE', #281, 2.599999999999998312 ) ;
#1005 = ORIENTED_EDGE ( 'NONE', *, *, #42, .T. ) ;
#1006 = CIRCLE ( 'NONE', #525, 5.000000000000000888 ) ;
#1007 = LINE ( 'NONE', #580, #385 ) ;
#1008 = PERSON_AND_ORGANIZATION_ROLE ( 'classification_officer' ) ;
#1009 = DIRECTION ( 'NONE',  ( 1.000000000000000000, 0.000000000000000000, 0.000000000000000000 ) ) ;
#1010 = VECTOR ( 'NONE', #257, 1000.000000000000000 ) ;
#1011 = APPROVAL_PERSON_ORGANIZATION ( #938, #493, #768 ) ;
#1012 = DIRECTION ( 'NONE',  ( 0.000000000000000000, 0.000000000000000000, 1.000000000000000000 ) ) ;
#1013 = VERTEX_POINT ( 'NONE', #787 ) ;
#1014 = LINE ( 'NONE', #425, #460 ) ;
#1015 = PERSON_AND_ORGANIZATION_ROLE ( 'design_owner' ) ;
#1016 = DIRECTION ( 'NONE',  ( -0.000000000000000000, -0.000000000000000000, 1.000000000000000000 ) ) ;
#1017 = LINE ( 'NONE', #848, #1106 ) ;
#1018 = CARTESIAN_POINT ( 'NONE',  ( -7.600000000000011191, -19.15975688862333470, 0.5000000000000004441 ) ) ;
#1019 = PERSON_AND_ORGANIZATION ( #395, #336 ) ;
#1020 = CARTESIAN_POINT ( 'NONE',  ( -27.90000000000000213, 21.89999999999999503, 0.000000000000000000 ) ) ;
#1021 = DIRECTION ( 'NONE',  ( 1.000000000000000000, 0.000000000000000000, 0.000000000000000000 ) ) ;
#1022 = EDGE_LOOP ( 'NONE', ( #356, #866 ) ) ;
#1023 = LINE ( 'NONE', #494, #1010 ) ;
#1024 = DIRECTION ( 'NONE',  ( -0.000000000000000000, -0.000000000000000000, 1.000000000000000000 ) ) ;
#1025 = EDGE_CURVE ( 'NONE', #295, #63, #228, .T. ) ;
#1026 = AXIS2_PLACEMENT_3D ( 'NONE', #893, #476, #136 ) ;
#1027 = AXIS2_PLACEMENT_3D ( 'NONE', #29, #370, #362 ) ;
#1028 = APPROVAL_PERSON_ORGANIZATION ( #659, #713, #933 ) ;
#1029 = DIRECTION ( 'NONE',  ( 1.000000000000000000, 0.000000000000000000, 0.000000000000000000 ) ) ;
#1030 = ORIENTED_EDGE ( 'NONE', *, *, #890, .T. ) ;
#1031 = CARTESIAN_POINT ( 'NONE',  ( -20.50000000000000711, -6.099999999999807798, 0.5000000000000000000 ) ) ;
#1032 = CARTESIAN_POINT ( 'NONE',  ( -19.30000000000000426, -19.40000000000000568, 0.000000000000000000 ) ) ;
#1033 = ORIENTED_EDGE ( 'NONE', *, *, #730, .T. ) ;
#1034 = DIRECTION ( 'NONE',  ( 0.000000000000000000, -1.000000000000000000, 0.000000000000000000 ) ) ;
#1035 = ORIENTED_EDGE ( 'NONE', *, *, #596, .F. ) ;
#1036 = DIRECTION ( 'NONE',  ( -0.000000000000000000, -0.000000000000000000, -1.000000000000000000 ) ) ;
#1037 = FACE_BOUND ( 'NONE', #859, .T. ) ;
#1038 = VERTEX_POINT ( 'NONE', #355 ) ;
#1039 = PRODUCT_RELATED_PRODUCT_CATEGORY ( 'detail', '', ( #632 ) ) ;
#1040 = CARTESIAN_POINT ( 'NONE',  ( -25.50000000000000355, -1.337477835036409239E-13, 0.5000000000000000000 ) ) ;
#1041 = EDGE_CURVE ( 'NONE', #809, #211, #442, .T. ) ;
#1042 = ORIENTED_EDGE ( 'NONE', *, *, #42, .F. ) ;
#1043 = DIRECTION ( 'NONE',  ( 1.000000000000000000, 0.000000000000000000, 0.000000000000000000 ) ) ;
#1044 = PERSON_AND_ORGANIZATION ( #395, #336 ) ;
#1045 = DIRECTION ( 'NONE',  ( 0.000000000000000000, 0.000000000000000000, 1.000000000000000000 ) ) ;
#1046 = EDGE_LOOP ( 'NONE', ( #524, #600 ) ) ;
#1047 = AXIS2_PLACEMENT_3D ( 'NONE', #161, #588, #1009 ) ;
#1048 = CARTESIAN_POINT ( 'NONE',  ( -21.90000000000000213, -19.40000000000000568, 0.000000000000000000 ) ) ;
#1049 = AXIS2_PLACEMENT_3D ( 'NONE', #701, #953, #263 ) ;
#1050 = AXIS2_PLACEMENT_3D ( 'NONE', #121, #958, #463 ) ;
#1051 = ADVANCED_FACE ( 'NONE', ( #283 ), #367, .F. ) ;
#1052 = ORIENTED_EDGE ( 'NONE', *, *, #596, .T. ) ;
#1053 = DIRECTION ( 'NONE',  ( -0.000000000000000000, 0.000000000000000000, 1.000000000000000000 ) ) ;
#1054 = FACE_OUTER_BOUND ( 'NONE', #948, .T. ) ;
#1055 = ORIENTED_EDGE ( 'NONE', *, *, #235, .T. ) ;
#1056 = PLANE ( 'NONE',  #105 ) ;
#1057 = ORIENTED_EDGE ( 'NONE', *, *, #59, .T. ) ;
#1058 = EDGE_CURVE ( 'NONE', #579, #916, #922, .T. ) ;
#1059 = CARTESIAN_POINT ( 'NONE',  ( -7.600000000000011191, -16.34728466653856316, 0.000000000000000000 ) ) ;
#1060 = ORIENTED_EDGE ( 'NONE', *, *, #895, .F. ) ;
#1061 = DIRECTION ( 'NONE',  ( -0.000000000000000000, 0.000000000000000000, 1.000000000000000000 ) ) ;
#1062 = ORIENTED_EDGE ( 'NONE', *, *, #1025, .F. ) ;
#1063 = PLANE ( 'NONE',  #36 ) ;
#1064 = ORIENTED_EDGE ( 'NONE', *, *, #626, .F. ) ;
#1065 = EDGE_CURVE ( 'NONE', #575, #445, #375, .T. ) ;
#1066 = AXIS2_PLACEMENT_3D ( 'NONE', #222, #69, #481 ) ;
#1067 = CIRCLE ( 'NONE', #33, 1.100000000000000311 ) ;
#1068 = VECTOR ( 'NONE', #17, 1000.000000000000000 ) ;
#1069 = ORIENTED_EDGE ( 'NONE', *, *, #932, .F. ) ;
#1070 = AXIS2_PLACEMENT_3D ( 'NONE', #437, #1061, #293 ) ;
#1071 = CARTESIAN_POINT ( 'NONE',  ( -7.600000000000011191, 16.34728466653823276, -4.500000000000000888 ) ) ;
#1072 = FACE_BOUND ( 'NONE', #492, .T. ) ;
#1073 = MANIFOLD_SOLID_BREP ( '°£®Æ-¦ùªø37', #508 ) ;
#1074 = EDGE_LOOP ( 'NONE', ( #875, #812 ) ) ;
#1075 = CARTESIAN_POINT ( 'NONE',  ( -27.90000000000000213, 21.89999999999999503, -8.900000000000000355 ) ) ;
#1076 = ORIENTED_EDGE ( 'NONE', *, *, #394, .F. ) ;
#1077 = ADVANCED_FACE ( 'NONE', ( #40 ), #1056, .T. ) ;
#1078 = ORIENTED_EDGE ( 'NONE', *, *, #1025, .T. ) ;
#1079 = EDGE_CURVE ( 'NONE', #502, #203, #15, .T. ) ;
#1080 = DIRECTION ( 'NONE',  ( 1.000000000000000000, 0.000000000000000000, 0.000000000000000000 ) ) ;
#1081 = DIRECTION ( 'NONE',  ( 1.000000000000000000, 0.000000000000000000, 0.000000000000000000 ) ) ;
#1082 = ORIENTED_EDGE ( 'NONE', *, *, #482, .T. ) ;
#1083 = CIRCLE ( 'NONE', #241, 3.000000000000000000 ) ;
#1084 = AXIS2_PLACEMENT_3D ( 'NONE', #518, #707, #1043 ) ;
#1085 = EDGE_CURVE ( 'NONE', #134, #802, #781, .T. ) ;
#1086 = CARTESIAN_POINT ( 'NONE',  ( -20.50000000000000711, -6.099999999999807798, 0.5000000000000000000 ) ) ;
#1087 = AXIS2_PLACEMENT_3D ( 'NONE', #1048, #877, #21 ) ;
#1088 = CARTESIAN_POINT ( 'NONE',  ( 0.000000000000000000, 0.000000000000000000, 0.000000000000000000 ) ) ;
#1089 = VERTEX_POINT ( 'NONE', #863 ) ;
#1090 = DIRECTION ( 'NONE',  ( 1.000000000000000000, 0.000000000000000000, 0.000000000000000000 ) ) ;
#1091 = EDGE_CURVE ( 'NONE', #698, #709, #806, .T. ) ;
#1092 = CARTESIAN_POINT ( 'NONE',  ( -27.90000000000000213, -21.89999999999999503, -8.900000000000000355 ) ) ;
#1093 = DIRECTION ( 'NONE',  ( -0.000000000000000000, -0.000000000000000000, 1.000000000000000000 ) ) ;
#1094 = ORIENTED_EDGE ( 'NONE', *, *, #565, .F. ) ;
#1095 = CARTESIAN_POINT ( 'NONE',  ( 1.560670953303548708E-15, -26.90000000000000213, 0.000000000000000000 ) ) ;
#1096 = PERSON_AND_ORGANIZATION ( #395, #336 ) ;
#1097 = CARTESIAN_POINT ( 'NONE',  ( -10.24999999999983480, 17.75352077758108749, 0.000000000000000000 ) ) ;
#1098 = EDGE_CURVE ( 'NONE', #203, #623, #122, .T. ) ;
#1099 = CYLINDRICAL_SURFACE ( 'NONE', #65, 1.500000000000001332 ) ;
#1100 = ORIENTED_EDGE ( 'NONE', *, *, #477, .T. ) ;
#1101 = DIRECTION ( 'NONE',  ( 0.000000000000000000, -0.000000000000000000, -1.000000000000000000 ) ) ;
#1102 = AXIS2_PLACEMENT_3D ( 'NONE', #61, #401, #1080 ) ;
#1103 = DIRECTION ( 'NONE',  ( 1.000000000000000000, 0.000000000000000000, 0.000000000000000000 ) ) ;
#1104 = VECTOR ( 'NONE', #560, 1000.000000000000000 ) ;
#1105 = DIRECTION ( 'NONE',  ( 1.000000000000000000, 0.000000000000000000, 0.000000000000000000 ) ) ;
#1106 = VECTOR ( 'NONE', #857, 1000.000000000000000 ) ;
#1107 = EDGE_CURVE ( 'NONE', #302, #129, #168, .T. ) ;
#1108 = CARTESIAN_POINT ( 'NONE',  ( -10.24999999999983480, 17.75352077758108749, -4.500000000000000888 ) ) ;
#1109 = ORIENTED_EDGE ( 'NONE', *, *, #146, .F. ) ;
ENDSEC;
END-ISO-10303-21;
