ISO-10303-21;
HEADER;
FILE_DESCRIPTION (( 'STEP AP203' ),
    '1' );
FILE_NAME ('Å¨®M.step',
    '2026-06-05T03:32:55',
    ( '' ),
    ( '' ),
    'SwSTEP 2.0',
    'SolidWorks 2024',
    '' );
FILE_SCHEMA (( 'CONFIG_CONTROL_DESIGN' ));
ENDSEC;

DATA;
#1 = DIRECTION ( 'NONE',  ( -1.000000000000000000, 0.000000000000000000, 0.000000000000000000 ) ) ;
#2 = ADVANCED_FACE ( 'NONE', ( #266, #111 ), #113, .T. ) ;
#3 = DIRECTION ( 'NONE',  ( -1.000000000000000000, 0.000000000000000000, 0.000000000000000000 ) ) ;
#4 = AXIS2_PLACEMENT_3D ( 'NONE', #230, #102, #227 ) ;
#5 = FACE_BOUND ( 'NONE', #16, .T. ) ;
#6 = CYLINDRICAL_SURFACE ( 'NONE', #322, 2.500000000000000000 ) ;
#7 = CIRCLE ( 'NONE', #223, 2.500000000000000000 ) ;
#8 = CC_DESIGN_APPROVAL ( #313, ( #300 ) ) ;
#9 = APPROVAL_DATE_TIME ( #191, #219 ) ;
#10 = DESIGN_CONTEXT ( 'detailed design', #324, 'design' ) ;
#11 = PERSON_AND_ORGANIZATION ( #299, #197 ) ;
#12 = EDGE_CURVE ( 'NONE', #143, #136, #163, .T. ) ;
#13 = VERTEX_POINT ( 'NONE', #123 ) ;
#14 = EDGE_LOOP ( 'NONE', ( #293, #41 ) ) ;
#15 = VECTOR ( 'NONE', #59, 1000.000000000000000 ) ;
#16 = EDGE_LOOP ( 'NONE', ( #187, #140 ) ) ;
#17 = CC_DESIGN_PERSON_AND_ORGANIZATION_ASSIGNMENT ( #184, #168, ( #114 ) ) ;
#18 = APPROVAL_STATUS ( 'not_yet_approved' ) ;
#19 = ORIENTED_EDGE ( 'NONE', *, *, #97, .T. ) ;
#20 = VERTEX_POINT ( 'NONE', #220 ) ;
#21 = DIRECTION ( 'NONE',  ( 0.000000000000000000, 0.000000000000000000, -1.000000000000000000 ) ) ;
#22 = LOCAL_TIME ( 11, 32, 55.00000000000000000, #110 ) ;
#23 = DIRECTION ( 'NONE',  ( -0.000000000000000000, -0.000000000000000000, -1.000000000000000000 ) ) ;
#24 = CC_DESIGN_PERSON_AND_ORGANIZATION_ASSIGNMENT ( #285, #314, ( #116 ) ) ;
#25 = DIRECTION ( 'NONE',  ( -1.000000000000000000, 0.000000000000000000, 0.000000000000000000 ) ) ;
#26 = DIRECTION ( 'NONE',  ( 0.000000000000000000, 0.000000000000000000, 1.000000000000000000 ) ) ;
#27 = AXIS2_PLACEMENT_3D ( 'NONE', #147, #196, #1 ) ;
#28 = CYLINDRICAL_SURFACE ( 'NONE', #186, 7.000000000000000000 ) ;
#29 = CARTESIAN_POINT ( 'NONE',  ( 0.000000000000000000, 0.000000000000000000, 4.200000000000000178 ) ) ;
#30 = MECHANICAL_CONTEXT ( 'NONE', #284, 'mechanical' ) ;
#31 = ORIENTED_EDGE ( 'NONE', *, *, #152, .T. ) ;
#32 = ADVANCED_FACE ( 'NONE', ( #198 ), #28, .T. ) ;
#33 = CARTESIAN_POINT ( 'NONE',  ( 0.000000000000000000, 0.000000000000000000, 4.200000000000000178 ) ) ;
#34 = PRODUCT_DEFINITION_SHAPE ( 'NONE', 'NONE',  #231 ) ;
#35 = CARTESIAN_POINT ( 'NONE',  ( -7.000000000000000000, 8.572527594031473190E-16, -1.000000000000000000 ) ) ;
#36 = CIRCLE ( 'NONE', #279, 3.000000000000000444 ) ;
#37 = CC_DESIGN_PERSON_AND_ORGANIZATION_ASSIGNMENT ( #214, #90, ( #114 ) ) ;
#38 = SECURITY_CLASSIFICATION_LEVEL ( 'unclassified' ) ;
#39 = ORIENTED_EDGE ( 'NONE', *, *, #79, .F. ) ;
#40 = COORDINATED_UNIVERSAL_TIME_OFFSET ( 8, 0, .AHEAD. ) ;
#41 = ORIENTED_EDGE ( 'NONE', *, *, #281, .T. ) ;
#42 = ORIENTED_EDGE ( 'NONE', *, *, #79, .T. ) ;
#43 = APPROVAL_DATE_TIME ( #237, #258 ) ;
#44 = CLOSED_SHELL ( 'NONE', ( #32, #149, #248, #243, #129, #253, #2, #203, #56 ) ) ;
#45 = DIRECTION ( 'NONE',  ( -1.000000000000000000, 0.000000000000000000, -0.000000000000000000 ) ) ;
#46 = ORIENTED_EDGE ( 'NONE', *, *, #84, .T. ) ;
#47 = CARTESIAN_POINT ( 'NONE',  ( 3.000000000000000444, 3.673940397442060361E-16, 0.000000000000000000 ) ) ;
#48 = EDGE_CURVE ( 'NONE', #136, #115, #78, .T. ) ;
#49 = FACE_OUTER_BOUND ( 'NONE', #238, .T. ) ;
#50 = CARTESIAN_POINT ( 'NONE',  ( 0.000000000000000000, 0.000000000000000000, 0.000000000000000000 ) ) ;
#51 = CARTESIAN_POINT ( 'NONE',  ( 3.000000000000000444, 3.673940397442060361E-16, 4.200000000000000178 ) ) ;
#52 = DIRECTION ( 'NONE',  ( -1.000000000000000000, 0.000000000000000000, 0.000000000000000000 ) ) ;
#53 = CIRCLE ( 'NONE', #309, 3.000000000000000444 ) ;
#54 = DIRECTION ( 'NONE',  ( 1.000000000000000000, 0.000000000000000000, -0.000000000000000000 ) ) ;
#55 = CARTESIAN_POINT ( 'NONE',  ( 0.000000000000000000, 0.000000000000000000, 0.000000000000000000 ) ) ;
#56 = ADVANCED_FACE ( 'NONE', ( #49 ), #225, .T. ) ;
#57 = DIRECTION ( 'NONE',  ( 1.000000000000000000, 0.000000000000000000, 0.000000000000000000 ) ) ;
#58 = VECTOR ( 'NONE', #263, 1000.000000000000000 ) ;
#59 = DIRECTION ( 'NONE',  ( -0.000000000000000000, -0.000000000000000000, 1.000000000000000000 ) ) ;
#60 = ORIENTED_EDGE ( 'NONE', *, *, #276, .F. ) ;
#61 = CC_DESIGN_APPROVAL ( #258, ( #231 ) ) ;
#62 = PERSON_AND_ORGANIZATION_ROLE ( 'classification_officer' ) ;
#63 = EDGE_LOOP ( 'NONE', ( #91, #31 ) ) ;
#64 = APPROVAL_STATUS ( 'not_yet_approved' ) ;
#65 = ORIENTED_EDGE ( 'NONE', *, *, #12, .F. ) ;
#66 = DATE_TIME_ROLE ( 'creation_date' ) ;
#67 = ORIENTED_EDGE ( 'NONE', *, *, #222, .F. ) ;
#68 = VECTOR ( 'NONE', #249, 1000.000000000000000 ) ;
#69 = VERTEX_POINT ( 'NONE', #73 ) ;
#70 = CARTESIAN_POINT ( 'NONE',  ( 0.000000000000000000, 0.000000000000000000, 4.200000000000000178 ) ) ;
#71 = CC_DESIGN_DATE_AND_TIME_ASSIGNMENT ( #240, #135, ( #300 ) ) ;
#72 = PLANE ( 'NONE',  #157 ) ;
#73 = CARTESIAN_POINT ( 'NONE',  ( -7.000000000000000000, 8.572527594031473190E-16, -1.000000000000000000 ) ) ;
#74 = AXIS2_PLACEMENT_3D ( 'NONE', #70, #272, #224 ) ;
#75 = LINE ( 'NONE', #246, #127 ) ;
#76 = CARTESIAN_POINT ( 'NONE',  ( 0.000000000000000000, 0.000000000000000000, 4.200000000000000178 ) ) ;
#77 = DIRECTION ( 'NONE',  ( 0.000000000000000000, 0.000000000000000000, 1.000000000000000000 ) ) ;
#78 = CIRCLE ( 'NONE', #82, 3.000000000000000444 ) ;
#79 = EDGE_CURVE ( 'NONE', #185, #20, #128, .T. ) ;
#80 =( LENGTH_UNIT ( ) NAMED_UNIT ( * ) SI_UNIT ( .MILLI., .METRE. ) );
#81 = FACE_OUTER_BOUND ( 'NONE', #14, .T. ) ;
#82 = AXIS2_PLACEMENT_3D ( 'NONE', #273, #298, #247 ) ;
#83 = DIRECTION ( 'NONE',  ( 0.000000000000000000, 0.000000000000000000, -1.000000000000000000 ) ) ;
#84 = EDGE_CURVE ( 'NONE', #144, #156, #294, .T. ) ;
#85 = PERSON_AND_ORGANIZATION ( #299, #197 ) ;
#86 = ORIENTED_EDGE ( 'NONE', *, *, #295, .T. ) ;
#87 = AXIS2_PLACEMENT_3D ( 'NONE', #209, #88, #45 ) ;
#88 = DIRECTION ( 'NONE',  ( 0.000000000000000000, 0.000000000000000000, -1.000000000000000000 ) ) ;
#89 = VERTEX_POINT ( 'NONE', #221 ) ;
#90 = PERSON_AND_ORGANIZATION_ROLE ( 'design_supplier' ) ;
#91 = ORIENTED_EDGE ( 'NONE', *, *, #124, .T. ) ;
#92 = CIRCLE ( 'NONE', #141, 2.500000000000000000 ) ;
#93 = CARTESIAN_POINT ( 'NONE',  ( 0.000000000000000000, 0.000000000000000000, -1.000000000000000000 ) ) ;
#94 = EDGE_CURVE ( 'NONE', #156, #144, #172, .T. ) ;
#95 = FACE_BOUND ( 'NONE', #236, .T. ) ;
#96 = CARTESIAN_POINT ( 'NONE',  ( 0.000000000000000000, 0.000000000000000000, -1.000000000000000000 ) ) ;
#97 = EDGE_CURVE ( 'NONE', #185, #211, #92, .T. ) ;
#98 = DIRECTION ( 'NONE',  ( 1.000000000000000000, 0.000000000000000000, 0.000000000000000000 ) ) ;
#99 = AXIS2_PLACEMENT_3D ( 'NONE', #170, #21, #122 ) ;
#100 = LINE ( 'NONE', #51, #250 ) ;
#101 = LINE ( 'NONE', #303, #167 ) ;
#102 = DIRECTION ( 'NONE',  ( 0.000000000000000000, 0.000000000000000000, 1.000000000000000000 ) ) ;
#103 = EDGE_CURVE ( 'NONE', #290, #115, #100, .T. ) ;
#104 = DIRECTION ( 'NONE',  ( 1.000000000000000000, 0.000000000000000000, 0.000000000000000000 ) ) ;
#105 = ORIENTED_EDGE ( 'NONE', *, *, #304, .T. ) ;
#106 = DIRECTION ( 'NONE',  ( 0.000000000000000000, 0.000000000000000000, 1.000000000000000000 ) ) ;
#107 = DIRECTION ( 'NONE',  ( -1.000000000000000000, 0.000000000000000000, -0.000000000000000000 ) ) ;
#108 = CC_DESIGN_SECURITY_CLASSIFICATION ( #300, ( #114 ) ) ;
#109 = APPROVAL_ROLE ( '' ) ;
#110 = COORDINATED_UNIVERSAL_TIME_OFFSET ( 8, 0, .AHEAD. ) ;
#111 = FACE_BOUND ( 'NONE', #264, .T. ) ;
#112 = CALENDAR_DATE ( 2026, 5, 6 ) ;
#113 = PLANE ( 'NONE',  #87 ) ;
#114 = PRODUCT_DEFINITION_FORMATION_WITH_SPECIFIED_SOURCE ( 'ANY', '', #116, .NOT_KNOWN. ) ;
#115 = VERTEX_POINT ( 'NONE', #47 ) ;
#116 = PRODUCT ( '\X2\896f5957\X0\', '\X2\896f5957\X0\', '', ( #30 ) ) ;
#117 = COORDINATED_UNIVERSAL_TIME_OFFSET ( 8, 0, .AHEAD. ) ;
#118 = ORIENTED_EDGE ( 'NONE', *, *, #327, .F. ) ;
#119 = CC_DESIGN_PERSON_AND_ORGANIZATION_ASSIGNMENT ( #265, #188, ( #231 ) ) ;
#120 = EDGE_LOOP ( 'NONE', ( #316, #216, #318, #65 ) ) ;
#121 = APPROVAL_PERSON_ORGANIZATION ( #11, #258, #288 ) ;
#122 = DIRECTION ( 'NONE',  ( -1.000000000000000000, 0.000000000000000000, 0.000000000000000000 ) ) ;
#123 = CARTESIAN_POINT ( 'NONE',  ( 2.500000000000000000, 3.061616997868383141E-16, -1.000000000000000000 ) ) ;
#124 = EDGE_CURVE ( 'NONE', #89, #69, #212, .T. ) ;
#125 = DIRECTION ( 'NONE',  ( -1.000000000000000000, 0.000000000000000000, 0.000000000000000000 ) ) ;
#126 = DIRECTION ( 'NONE',  ( -0.000000000000000000, -0.000000000000000000, 1.000000000000000000 ) ) ;
#127 = VECTOR ( 'NONE', #268, 1000.000000000000000 ) ;
#128 = LINE ( 'NONE', #325, #68 ) ;
#129 = ADVANCED_FACE ( 'NONE', ( #145 ), #148, .T. ) ;
#130 = DIRECTION ( 'NONE',  ( -0.000000000000000000, -0.000000000000000000, -1.000000000000000000 ) ) ;
#131 = PLANE ( 'NONE',  #176 ) ;
#132 = APPROVAL_PERSON_ORGANIZATION ( #142, #219, #164 ) ;
#133 = CARTESIAN_POINT ( 'NONE',  ( 3.000000000000000444, 3.673940397442060361E-16, 4.200000000000000178 ) ) ;
#134 = LOCAL_TIME ( 11, 32, 55.00000000000000000, #319 ) ;
#135 = DATE_TIME_ROLE ( 'classification_date' ) ;
#136 = VERTEX_POINT ( 'NONE', #301 ) ;
#137 = SHAPE_DEFINITION_REPRESENTATION ( #34, #291 ) ;
#138 = EDGE_CURVE ( 'NONE', #89, #144, #75, .T. ) ;
#139 = ORIENTED_EDGE ( 'NONE', *, *, #222, .T. ) ;
#140 = ORIENTED_EDGE ( 'NONE', *, *, #304, .F. ) ;
#141 = AXIS2_PLACEMENT_3D ( 'NONE', #76, #26, #271 ) ;
#142 = PERSON_AND_ORGANIZATION ( #299, #197 ) ;
#143 = VERTEX_POINT ( 'NONE', #244 ) ;
#144 = VERTEX_POINT ( 'NONE', #199 ) ;
#145 = FACE_OUTER_BOUND ( 'NONE', #166, .T. ) ;
#146 = AXIS2_PLACEMENT_3D ( 'NONE', #202, #256, #104 ) ;
#147 = CARTESIAN_POINT ( 'NONE',  ( 0.000000000000000000, 0.000000000000000000, 0.000000000000000000 ) ) ;
#148 = CYLINDRICAL_SURFACE ( 'NONE', #329, 3.000000000000000444 ) ;
#149 = ADVANCED_FACE ( 'NONE', ( #326 ), #174, .F. ) ;
#150 = CARTESIAN_POINT ( 'NONE',  ( 0.000000000000000000, 0.000000000000000000, 4.200000000000000178 ) ) ;
#151 = CARTESIAN_POINT ( 'NONE',  ( -7.000000000000000000, 8.572527594031473190E-16, 0.000000000000000000 ) ) ;
#152 = EDGE_CURVE ( 'NONE', #69, #89, #179, .T. ) ;
#153 =( NAMED_UNIT ( * ) SI_UNIT ( $, .STERADIAN. ) SOLID_ANGLE_UNIT ( ) );
#154 = DIRECTION ( 'NONE',  ( -0.000000000000000000, -0.000000000000000000, -1.000000000000000000 ) ) ;
#155 = CYLINDRICAL_SURFACE ( 'NONE', #193, 3.000000000000000444 ) ;
#156 = VERTEX_POINT ( 'NONE', #151 ) ;
#157 = AXIS2_PLACEMENT_3D ( 'NONE', #171, #200, #107 ) ;
#158 = DIRECTION ( 'NONE',  ( 0.000000000000000000, 0.000000000000000000, 1.000000000000000000 ) ) ;
#159 = EDGE_LOOP ( 'NONE', ( #286, #320 ) ) ;
#160 = AXIS2_PLACEMENT_3D ( 'NONE', #55, #106, #308 ) ;
#161 = UNCERTAINTY_MEASURE_WITH_UNIT (LENGTH_MEASURE( 1.000000000000000082E-05 ), #80, 'distance_accuracy_value', 'NONE');
#162 = APPROVAL_DATE_TIME ( #234, #313 ) ;
#163 = LINE ( 'NONE', #312, #58 ) ;
#164 = APPROVAL_ROLE ( '' ) ;
#165 = EDGE_LOOP ( 'NONE', ( #192, #182, #261, #321 ) ) ;
#166 = EDGE_LOOP ( 'NONE', ( #289, #60, #213, #283 ) ) ;
#167 = VECTOR ( 'NONE', #130, 1000.000000000000000 ) ;
#168 = PERSON_AND_ORGANIZATION_ROLE ( 'creator' ) ;
#169 = ORIENTED_EDGE ( 'NONE', *, *, #295, .F. ) ;
#170 = CARTESIAN_POINT ( 'NONE',  ( 0.000000000000000000, 0.000000000000000000, -1.000000000000000000 ) ) ;
#171 = CARTESIAN_POINT ( 'NONE',  ( 0.000000000000000000, 0.000000000000000000, 0.000000000000000000 ) ) ;
#172 = CIRCLE ( 'NONE', #27, 7.000000000000000000 ) ;
#173 = DIRECTION ( 'NONE',  ( -0.000000000000000000, -0.000000000000000000, 1.000000000000000000 ) ) ;
#174 = CYLINDRICAL_SURFACE ( 'NONE', #74, 2.500000000000000000 ) ;
#175 = DIRECTION ( 'NONE',  ( 0.000000000000000000, 0.000000000000000000, -1.000000000000000000 ) ) ;
#176 = AXIS2_PLACEMENT_3D ( 'NONE', #29, #158, #54 ) ;
#177 = LINE ( 'NONE', #35, #15 ) ;
#178 = DIRECTION ( 'NONE',  ( -1.000000000000000000, 0.000000000000000000, 0.000000000000000000 ) ) ;
#179 = CIRCLE ( 'NONE', #274, 7.000000000000000000 ) ;
#180 = CARTESIAN_POINT ( 'NONE',  ( 2.500000000000000000, 3.061616997868383141E-16, 4.200000000000000178 ) ) ;
#181 = CALENDAR_DATE ( 2026, 5, 6 ) ;
#182 = ORIENTED_EDGE ( 'NONE', *, *, #327, .T. ) ;
#183 = EDGE_CURVE ( 'NONE', #20, #13, #206, .T. ) ;
#184 = PERSON_AND_ORGANIZATION ( #299, #197 ) ;
#185 = VERTEX_POINT ( 'NONE', #218 ) ;
#186 = AXIS2_PLACEMENT_3D ( 'NONE', #96, #126, #98 ) ;
#187 = ORIENTED_EDGE ( 'NONE', *, *, #97, .F. ) ;
#188 = PERSON_AND_ORGANIZATION_ROLE ( 'creator' ) ;
#189 = CC_DESIGN_PERSON_AND_ORGANIZATION_ASSIGNMENT ( #317, #62, ( #300 ) ) ;
#190 = ORIENTED_EDGE ( 'NONE', *, *, #138, .T. ) ;
#191 = DATE_AND_TIME ( #112, #228 ) ;
#192 = ORIENTED_EDGE ( 'NONE', *, *, #152, .F. ) ;
#193 = AXIS2_PLACEMENT_3D ( 'NONE', #33, #259, #178 ) ;
#194 = DIRECTION ( 'NONE',  ( -0.000000000000000000, -0.000000000000000000, -1.000000000000000000 ) ) ;
#195 = DIRECTION ( 'NONE',  ( -1.000000000000000000, 0.000000000000000000, 0.000000000000000000 ) ) ;
#196 = DIRECTION ( 'NONE',  ( 0.000000000000000000, 0.000000000000000000, -1.000000000000000000 ) ) ;
#197 = ORGANIZATION ( 'UNSPECIFIED', 'UNSPECIFIED', '' ) ;
#198 = FACE_OUTER_BOUND ( 'NONE', #165, .T. ) ;
#199 = CARTESIAN_POINT ( 'NONE',  ( 7.000000000000000000, 0.000000000000000000, 0.000000000000000000 ) ) ;
#200 = DIRECTION ( 'NONE',  ( 0.000000000000000000, 0.000000000000000000, -1.000000000000000000 ) ) ;
#201 = CARTESIAN_POINT ( 'NONE',  ( 0.000000000000000000, 0.000000000000000000, -1.000000000000000000 ) ) ;
#202 = CARTESIAN_POINT ( 'NONE',  ( 0.000000000000000000, 0.000000000000000000, 4.200000000000000178 ) ) ;
#203 = ADVANCED_FACE ( 'NONE', ( #95, #297 ), #72, .F. ) ;
#204 = FACE_OUTER_BOUND ( 'NONE', #120, .T. ) ;
#205 = CIRCLE ( 'NONE', #4, 3.000000000000000444 ) ;
#206 = CIRCLE ( 'NONE', #99, 2.500000000000000000 ) ;
#207 = COORDINATED_UNIVERSAL_TIME_OFFSET ( 8, 0, .AHEAD. ) ;
#208 = CALENDAR_DATE ( 2026, 5, 6 ) ;
#209 = CARTESIAN_POINT ( 'NONE',  ( 0.000000000000000000, 0.000000000000000000, -1.000000000000000000 ) ) ;
#210 = APPLICATION_PROTOCOL_DEFINITION ( 'international standard', 'config_control_design', 1994, #324 ) ;
#211 = VERTEX_POINT ( 'NONE', #180 ) ;
#212 = CIRCLE ( 'NONE', #239, 7.000000000000000000 ) ;
#213 = ORIENTED_EDGE ( 'NONE', *, *, #12, .T. ) ;
#214 = PERSON_AND_ORGANIZATION ( #299, #197 ) ;
#215 = ORIENTED_EDGE ( 'NONE', *, *, #183, .T. ) ;
#216 = ORIENTED_EDGE ( 'NONE', *, *, #103, .T. ) ;
#217 =( GEOMETRIC_REPRESENTATION_CONTEXT ( 3 ) GLOBAL_UNCERTAINTY_ASSIGNED_CONTEXT ( ( #161 ) ) GLOBAL_UNIT_ASSIGNED_CONTEXT ( ( #80, #282, #153 ) ) REPRESENTATION_CONTEXT ( 'NONE', 'WORKASPACE' ) );
#218 = CARTESIAN_POINT ( 'NONE',  ( -2.500000000000000000, 0.000000000000000000, 4.200000000000000178 ) ) ;
#219 = APPROVAL ( #64, 'UNSPECIFIED' ) ;
#220 = CARTESIAN_POINT ( 'NONE',  ( -2.500000000000000000, 0.000000000000000000, -1.000000000000000000 ) ) ;
#221 = CARTESIAN_POINT ( 'NONE',  ( 7.000000000000000000, 0.000000000000000000, -1.000000000000000000 ) ) ;
#222 = EDGE_CURVE ( 'NONE', #13, #20, #7, .T. ) ;
#223 = AXIS2_PLACEMENT_3D ( 'NONE', #201, #83, #3 ) ;
#224 = DIRECTION ( 'NONE',  ( -1.000000000000000000, 0.000000000000000000, 0.000000000000000000 ) ) ;
#225 = CYLINDRICAL_SURFACE ( 'NONE', #270, 7.000000000000000000 ) ;
#226 = MANIFOLD_SOLID_BREP ( '¶ñ®Æ-¦ùªø2', #44 ) ;
#227 = DIRECTION ( 'NONE',  ( 1.000000000000000000, 0.000000000000000000, 0.000000000000000000 ) ) ;
#228 = LOCAL_TIME ( 11, 32, 55.00000000000000000, #117 ) ;
#229 = PRODUCT_RELATED_PRODUCT_CATEGORY ( 'detail', '', ( #116 ) ) ;
#230 = CARTESIAN_POINT ( 'NONE',  ( 0.000000000000000000, 0.000000000000000000, 4.200000000000000178 ) ) ;
#231 = PRODUCT_DEFINITION ( 'UNKNOWN', '', #114, #10 ) ;
#232 = CALENDAR_DATE ( 2026, 5, 6 ) ;
#233 = CIRCLE ( 'NONE', #146, 2.500000000000000000 ) ;
#234 = DATE_AND_TIME ( #292, #323 ) ;
#235 = EDGE_LOOP ( 'NONE', ( #169, #105, #42, #215 ) ) ;
#236 = EDGE_LOOP ( 'NONE', ( #241, #242 ) ) ;
#237 = DATE_AND_TIME ( #181, #22 ) ;
#238 = EDGE_LOOP ( 'NONE', ( #118, #255, #190, #46 ) ) ;
#239 = AXIS2_PLACEMENT_3D ( 'NONE', #296, #328, #195 ) ;
#240 = DATE_AND_TIME ( #232, #134 ) ;
#241 = ORIENTED_EDGE ( 'NONE', *, *, #48, .F. ) ;
#242 = ORIENTED_EDGE ( 'NONE', *, *, #307, .F. ) ;
#243 = ADVANCED_FACE ( 'NONE', ( #81, #5 ), #131, .T. ) ;
#244 = CARTESIAN_POINT ( 'NONE',  ( -3.000000000000000444, 0.000000000000000000, 4.200000000000000178 ) ) ;
#245 = LOCAL_TIME ( 11, 32, 55.00000000000000000, #40 ) ;
#246 = CARTESIAN_POINT ( 'NONE',  ( 7.000000000000000000, 0.000000000000000000, -1.000000000000000000 ) ) ;
#247 = DIRECTION ( 'NONE',  ( 1.000000000000000000, 0.000000000000000000, 0.000000000000000000 ) ) ;
#248 = ADVANCED_FACE ( 'NONE', ( #204 ), #155, .T. ) ;
#249 = DIRECTION ( 'NONE',  ( -0.000000000000000000, -0.000000000000000000, -1.000000000000000000 ) ) ;
#250 = VECTOR ( 'NONE', #194, 1000.000000000000000 ) ;
#251 = APPROVAL_PERSON_ORGANIZATION ( #85, #313, #109 ) ;
#252 = DIRECTION ( 'NONE',  ( 0.000000000000000000, 0.000000000000000000, -1.000000000000000000 ) ) ;
#253 = ADVANCED_FACE ( 'NONE', ( #277 ), #6, .F. ) ;
#254 = APPLICATION_PROTOCOL_DEFINITION ( 'international standard', 'config_control_design', 1994, #284 ) ;
#255 = ORIENTED_EDGE ( 'NONE', *, *, #124, .F. ) ;
#256 = DIRECTION ( 'NONE',  ( 0.000000000000000000, 0.000000000000000000, 1.000000000000000000 ) ) ;
#257 = DIRECTION ( 'NONE',  ( 1.000000000000000000, 0.000000000000000000, 0.000000000000000000 ) ) ;
#258 = APPROVAL ( #262, 'UNSPECIFIED' ) ;
#259 = DIRECTION ( 'NONE',  ( -0.000000000000000000, -0.000000000000000000, -1.000000000000000000 ) ) ;
#260 = AXIS2_PLACEMENT_3D ( 'NONE', #50, #252, #125 ) ;
#261 = ORIENTED_EDGE ( 'NONE', *, *, #94, .T. ) ;
#262 = APPROVAL_STATUS ( 'not_yet_approved' ) ;
#263 = DIRECTION ( 'NONE',  ( -0.000000000000000000, -0.000000000000000000, -1.000000000000000000 ) ) ;
#264 = EDGE_LOOP ( 'NONE', ( #306, #67 ) ) ;
#265 = PERSON_AND_ORGANIZATION ( #299, #197 ) ;
#266 = FACE_OUTER_BOUND ( 'NONE', #63, .T. ) ;
#267 = EDGE_LOOP ( 'NONE', ( #19, #86, #139, #39 ) ) ;
#268 = DIRECTION ( 'NONE',  ( -0.000000000000000000, -0.000000000000000000, 1.000000000000000000 ) ) ;
#269 = DIRECTION ( 'NONE',  ( 1.000000000000000000, 0.000000000000000000, 0.000000000000000000 ) ) ;
#270 = AXIS2_PLACEMENT_3D ( 'NONE', #93, #173, #269 ) ;
#271 = DIRECTION ( 'NONE',  ( 1.000000000000000000, 0.000000000000000000, 0.000000000000000000 ) ) ;
#272 = DIRECTION ( 'NONE',  ( -0.000000000000000000, -0.000000000000000000, -1.000000000000000000 ) ) ;
#273 = CARTESIAN_POINT ( 'NONE',  ( 0.000000000000000000, 0.000000000000000000, 0.000000000000000000 ) ) ;
#274 = AXIS2_PLACEMENT_3D ( 'NONE', #302, #175, #52 ) ;
#275 = DIRECTION ( 'NONE',  ( 0.000000000000000000, 0.000000000000000000, 1.000000000000000000 ) ) ;
#276 = EDGE_CURVE ( 'NONE', #143, #290, #205, .T. ) ;
#277 = FACE_OUTER_BOUND ( 'NONE', #235, .T. ) ;
#278 = CARTESIAN_POINT ( 'NONE',  ( 0.000000000000000000, 0.000000000000000000, 4.200000000000000178 ) ) ;
#279 = AXIS2_PLACEMENT_3D ( 'NONE', #280, #275, #257 ) ;
#280 = CARTESIAN_POINT ( 'NONE',  ( 0.000000000000000000, 0.000000000000000000, 0.000000000000000000 ) ) ;
#281 = EDGE_CURVE ( 'NONE', #290, #143, #53, .T. ) ;
#282 =( NAMED_UNIT ( * ) PLANE_ANGLE_UNIT ( ) SI_UNIT ( $, .RADIAN. ) );
#283 = ORIENTED_EDGE ( 'NONE', *, *, #48, .T. ) ;
#284 = APPLICATION_CONTEXT ( 'configuration controlled 3d designs of mechanical parts and assemblies' ) ;
#285 = PERSON_AND_ORGANIZATION ( #299, #197 ) ;
#286 = ORIENTED_EDGE ( 'NONE', *, *, #84, .F. ) ;
#287 = CC_DESIGN_DATE_AND_TIME_ASSIGNMENT ( #311, #66, ( #231 ) ) ;
#288 = APPROVAL_ROLE ( '' ) ;
#289 = ORIENTED_EDGE ( 'NONE', *, *, #103, .F. ) ;
#290 = VERTEX_POINT ( 'NONE', #133 ) ;
#291 = ADVANCED_BREP_SHAPE_REPRESENTATION ( '\X2\896f5957\X0\', ( #226, #160 ), #217 ) ;
#292 = CALENDAR_DATE ( 2026, 5, 6 ) ;
#293 = ORIENTED_EDGE ( 'NONE', *, *, #276, .T. ) ;
#294 = CIRCLE ( 'NONE', #260, 7.000000000000000000 ) ;
#295 = EDGE_CURVE ( 'NONE', #211, #13, #101, .T. ) ;
#296 = CARTESIAN_POINT ( 'NONE',  ( 0.000000000000000000, 0.000000000000000000, -1.000000000000000000 ) ) ;
#297 = FACE_OUTER_BOUND ( 'NONE', #159, .T. ) ;
#298 = DIRECTION ( 'NONE',  ( 0.000000000000000000, 0.000000000000000000, 1.000000000000000000 ) ) ;
#299 = PERSON ( 'UNSPECIFIED', 'UNSPECIFIED', 'UNSPECIFIED', ('UNSPECIFIED'), ('UNSPECIFIED'), ('UNSPECIFIED') ) ;
#300 = SECURITY_CLASSIFICATION ( '', '', #38 ) ;
#301 = CARTESIAN_POINT ( 'NONE',  ( -3.000000000000000444, 0.000000000000000000, 0.000000000000000000 ) ) ;
#302 = CARTESIAN_POINT ( 'NONE',  ( 0.000000000000000000, 0.000000000000000000, -1.000000000000000000 ) ) ;
#303 = CARTESIAN_POINT ( 'NONE',  ( 2.500000000000000000, 3.061616997868383141E-16, 4.200000000000000178 ) ) ;
#304 = EDGE_CURVE ( 'NONE', #211, #185, #233, .T. ) ;
#305 = CARTESIAN_POINT ( 'NONE',  ( 0.000000000000000000, 0.000000000000000000, 4.200000000000000178 ) ) ;
#306 = ORIENTED_EDGE ( 'NONE', *, *, #183, .F. ) ;
#307 = EDGE_CURVE ( 'NONE', #115, #136, #36, .T. ) ;
#308 = DIRECTION ( 'NONE',  ( 1.000000000000000000, 0.000000000000000000, 0.000000000000000000 ) ) ;
#309 = AXIS2_PLACEMENT_3D ( 'NONE', #305, #77, #57 ) ;
#310 = DIRECTION ( 'NONE',  ( -1.000000000000000000, 0.000000000000000000, 0.000000000000000000 ) ) ;
#311 = DATE_AND_TIME ( #208, #245 ) ;
#312 = CARTESIAN_POINT ( 'NONE',  ( -3.000000000000000444, 0.000000000000000000, 4.200000000000000178 ) ) ;
#313 = APPROVAL ( #18, 'UNSPECIFIED' ) ;
#314 = PERSON_AND_ORGANIZATION_ROLE ( 'design_owner' ) ;
#315 = CC_DESIGN_APPROVAL ( #219, ( #114 ) ) ;
#316 = ORIENTED_EDGE ( 'NONE', *, *, #281, .F. ) ;
#317 = PERSON_AND_ORGANIZATION ( #299, #197 ) ;
#318 = ORIENTED_EDGE ( 'NONE', *, *, #307, .T. ) ;
#319 = COORDINATED_UNIVERSAL_TIME_OFFSET ( 8, 0, .AHEAD. ) ;
#320 = ORIENTED_EDGE ( 'NONE', *, *, #94, .F. ) ;
#321 = ORIENTED_EDGE ( 'NONE', *, *, #138, .F. ) ;
#322 = AXIS2_PLACEMENT_3D ( 'NONE', #278, #154, #310 ) ;
#323 = LOCAL_TIME ( 11, 32, 55.00000000000000000, #207 ) ;
#324 = APPLICATION_CONTEXT ( 'configuration controlled 3d designs of mechanical parts and assemblies' ) ;
#325 = CARTESIAN_POINT ( 'NONE',  ( -2.500000000000000000, 0.000000000000000000, 4.200000000000000178 ) ) ;
#326 = FACE_OUTER_BOUND ( 'NONE', #267, .T. ) ;
#327 = EDGE_CURVE ( 'NONE', #69, #156, #177, .T. ) ;
#328 = DIRECTION ( 'NONE',  ( 0.000000000000000000, 0.000000000000000000, -1.000000000000000000 ) ) ;
#329 = AXIS2_PLACEMENT_3D ( 'NONE', #150, #23, #25 ) ;
ENDSEC;
END-ISO-10303-21;
