ISO-10303-21;
HEADER;
FILE_DESCRIPTION (( 'STEP AP203' ),
    '1' );
FILE_NAME ('Magnetic poles_new.step',
    '2026-06-05T03:33:01',
    ( '' ),
    ( '' ),
    'SwSTEP 2.0',
    'SolidWorks 2024',
    '' );
FILE_SCHEMA (( 'CONFIG_CONTROL_DESIGN' ));
ENDSEC;

DATA;
#1 = APPROVAL_STATUS ( 'not_yet_approved' ) ;
#2 = VERTEX_POINT ( 'NONE', #173 ) ;
#3 = CARTESIAN_POINT ( 'NONE',  ( 19.04780805675594735, -4.784468472043374554, 0.000000000000000000 ) ) ;
#4 = DIRECTION ( 'NONE',  ( 0.000000000000000000, 0.000000000000000000, 1.000000000000000000 ) ) ;
#5 = ADVANCED_FACE ( 'NONE', ( #495 ), #890, .F. ) ;
#6 = VERTEX_POINT ( 'NONE', #906 ) ;
#7 = CARTESIAN_POINT ( 'NONE',  ( 20.50000000000000000, 0.000000000000000000, 0.2500000000000000000 ) ) ;
#8 = PLANE ( 'NONE',  #562 ) ;
#9 = ORIENTED_EDGE ( 'NONE', *, *, #640, .T. ) ;
#10 = ORIENTED_EDGE ( 'NONE', *, *, #599, .F. ) ;
#11 = FACE_OUTER_BOUND ( 'NONE', #1014, .T. ) ;
#12 = VECTOR ( 'NONE', #352, 1000.000000000000114 ) ;
#13 = AXIS2_PLACEMENT_3D ( 'NONE', #209, #366, #701 ) ;
#14 = DIRECTION ( 'NONE',  ( -0.000000000000000000, -0.000000000000000000, -1.000000000000000000 ) ) ;
#15 = AXIS2_PLACEMENT_3D ( 'NONE', #152, #77, #394 ) ;
#16 = ORIENTED_EDGE ( 'NONE', *, *, #951, .F. ) ;
#17 = ORIENTED_EDGE ( 'NONE', *, *, #353, .T. ) ;
#18 = ORIENTED_EDGE ( 'NONE', *, *, #314, .T. ) ;
#19 = LINE ( 'NONE', #688, #287 ) ;
#20 = EDGE_CURVE ( 'NONE', #341, #993, #980, .T. ) ;
#21 = ORIENTED_EDGE ( 'NONE', *, *, #108, .T. ) ;
#22 = LINE ( 'NONE', #504, #949 ) ;
#23 = VERTEX_POINT ( 'NONE', #819 ) ;
#24 = LINE ( 'NONE', #275, #681 ) ;
#25 = CARTESIAN_POINT ( 'NONE',  ( 0.3579999999999999849, 0.000000000000000000, 0.2500000000000000000 ) ) ;
#26 = EDGE_CURVE ( 'NONE', #848, #66, #305, .T. ) ;
#27 = ORIENTED_EDGE ( 'NONE', *, *, #326, .T. ) ;
#28 = LINE ( 'NONE', #934, #590 ) ;
#29 = ORIENTED_EDGE ( 'NONE', *, *, #91, .T. ) ;
#30 = CARTESIAN_POINT ( 'NONE',  ( 0.3579999999999999849, 0.000000000000000000, 0.000000000000000000 ) ) ;
#31 = CYLINDRICAL_SURFACE ( 'NONE', #1008, 0.004999999999999796274 ) ;
#32 = AXIS2_PLACEMENT_3D ( 'NONE', #483, #4, #403 ) ;
#33 = CC_DESIGN_DATE_AND_TIME_ASSIGNMENT ( #229, #410, ( #219 ) ) ;
#34 = AXIS2_PLACEMENT_3D ( 'NONE', #711, #1031, #1036 ) ;
#35 = DIRECTION ( 'NONE',  ( -0.7299738700084257292, -0.6834750537546502303, 0.000000000000000000 ) ) ;
#36 = AXIS2_PLACEMENT_3D ( 'NONE', #996, #435, #582 ) ;
#37 = VECTOR ( 'NONE', #895, 1000.000000000000000 ) ;
#38 = CARTESIAN_POINT ( 'NONE',  ( -15.25000000000000000, 17.75352077758100222, 0.2500000000000000000 ) ) ;
#39 = CARTESIAN_POINT ( 'NONE',  ( -10.24999999999999645, -17.75352077758099867, 0.2500000000000000000 ) ) ;
#40 = EDGE_LOOP ( 'NONE', ( #303, #351, #984, #348 ) ) ;
#41 = CARTESIAN_POINT ( 'NONE',  ( 6.175092483748555239, 0.8773147407512820184, 0.2500000000000000000 ) ) ;
#42 = EDGE_CURVE ( 'NONE', #597, #241, #772, .T. ) ;
#43 = CYLINDRICAL_SURFACE ( 'NONE', #268, 10.00000000000000178 ) ;
#44 = DIRECTION ( 'NONE',  ( -0.000000000000000000, -0.000000000000000000, -1.000000000000000000 ) ) ;
#45 = LINE ( 'NONE', #787, #751 ) ;
#46 = DIRECTION ( 'NONE',  ( -0.000000000000000000, -0.000000000000000000, -1.000000000000000000 ) ) ;
#47 = CARTESIAN_POINT ( 'NONE',  ( -2.327769389269112921, 5.786444332020244552, 0.2500000000000000000 ) ) ;
#48 = VECTOR ( 'NONE', #585, 1000.000000000000000 ) ;
#49 = VERTEX_POINT ( 'NONE', #248 ) ;
#50 = VECTOR ( 'NONE', #426, 1000.000000000000114 ) ;
#51 = CC_DESIGN_SECURITY_CLASSIFICATION ( #219, ( #683 ) ) ;
#52 = EDGE_CURVE ( 'NONE', #762, #76, #953, .T. ) ;
#53 = CARTESIAN_POINT ( 'NONE',  ( -2.327769389269110700, -5.786444332020253434, 0.2500000000000000000 ) ) ;
#54 = DIRECTION ( 'NONE',  ( -0.000000000000000000, -0.000000000000000000, -1.000000000000000000 ) ) ;
#55 = EDGE_CURVE ( 'NONE', #848, #993, #744, .T. ) ;
#56 = CARTESIAN_POINT ( 'NONE',  ( 7.411365034765506898, -8.055642576022739476, 0.2500000000000000000 ) ) ;
#57 = ORIENTED_EDGE ( 'NONE', *, *, #108, .F. ) ;
#58 = CARTESIAN_POINT ( 'NONE',  ( 0.3579999999999999849, 0.000000000000000000, 0.2500000000000000000 ) ) ;
#59 = CARTESIAN_POINT ( 'NONE',  ( -15.25000000000000000, 17.75352077758100222, 0.000000000000000000 ) ) ;
#60 = LINE ( 'NONE', #128, #696 ) ;
#61 = EDGE_CURVE ( 'NONE', #429, #835, #409, .T. ) ;
#62 = EDGE_LOOP ( 'NONE', ( #322, #260, #192, #742 ) ) ;
#63 =( LENGTH_UNIT ( ) NAMED_UNIT ( * ) SI_UNIT ( .MILLI., .METRE. ) );
#64 = CARTESIAN_POINT ( 'NONE',  ( -2.327769389269112921, 5.786444332020244552, 0.000000000000000000 ) ) ;
#65 = CARTESIAN_POINT ( 'NONE',  ( -0.1743935456331129341, 0.3119814654468611725, 0.2500000000000000000 ) ) ;
#66 = VERTEX_POINT ( 'NONE', #900 ) ;
#67 = AXIS2_PLACEMENT_3D ( 'NONE', #324, #153, #498 ) ;
#68 = CIRCLE ( 'NONE', #750, 10.00000000000000178 ) ;
#69 = COORDINATED_UNIVERSAL_TIME_OFFSET ( 8, 0, .AHEAD. ) ;
#70 = VECTOR ( 'NONE', #1035, 1000.000000000000000 ) ;
#71 = VERTEX_POINT ( 'NONE', #658 ) ;
#72 = DIRECTION ( 'NONE',  ( 1.000000000000000000, 0.000000000000000000, 0.000000000000000000 ) ) ;
#73 = ORIENTED_EDGE ( 'NONE', *, *, #374, .T. ) ;
#74 = SHAPE_DEFINITION_REPRESENTATION ( #392, #491 ) ;
#75 = ADVANCED_FACE ( 'NONE', ( #740 ), #664, .T. ) ;
#76 = VERTEX_POINT ( 'NONE', #254 ) ;
#77 = DIRECTION ( 'NONE',  ( -0.000000000000000000, -0.000000000000000000, -1.000000000000000000 ) ) ;
#78 = DIRECTION ( 'NONE',  ( 1.000000000000000000, 0.000000000000000000, 0.000000000000000000 ) ) ;
#79 = ORIENTED_EDGE ( 'NONE', *, *, #485, .F. ) ;
#80 = PERSON_AND_ORGANIZATION ( #545, #871 ) ;
#81 = DIRECTION ( 'NONE',  ( 0.000000000000000000, 0.000000000000000000, 1.000000000000000000 ) ) ;
#82 = EDGE_CURVE ( 'NONE', #595, #319, #499, .T. ) ;
#83 = DIRECTION ( 'NONE',  ( 0.9922983898229190691, 0.1238705193128786797, 0.000000000000000000 ) ) ;
#84 = CARTESIAN_POINT ( 'NONE',  ( 7.411365034765508675, 8.055642576022741252, 0.000000000000000000 ) ) ;
#85 = PERSON_AND_ORGANIZATION ( #545, #871 ) ;
#86 = CIRCLE ( 'NONE', #200, 4.999999999999999112 ) ;
#87 = VERTEX_POINT ( 'NONE', #417 ) ;
#88 = AXIS2_PLACEMENT_3D ( 'NONE', #838, #759, #676 ) ;
#89 = AXIS2_PLACEMENT_3D ( 'NONE', #1058, #117, #763 ) ;
#90 = FACE_OUTER_BOUND ( 'NONE', #235, .T. ) ;
#91 = EDGE_CURVE ( 'NONE', #441, #770, #994, .T. ) ;
#92 = DIRECTION ( 'NONE',  ( -1.000000000000000000, 0.000000000000000000, 0.000000000000000000 ) ) ;
#93 = ORIENTED_EDGE ( 'NONE', *, *, #768, .T. ) ;
#94 = CARTESIAN_POINT ( 'NONE',  ( -2.327769389269110700, -5.786444332020253434, 0.2500000000000000000 ) ) ;
#95 = ORIENTED_EDGE ( 'NONE', *, *, #273, .T. ) ;
#96 = EDGE_CURVE ( 'NONE', #858, #791, #675, .T. ) ;
#97 = CARTESIAN_POINT ( 'NONE',  ( 19.04780805675594735, -4.784468472043374554, 0.2500000000000000000 ) ) ;
#98 = ORIENTED_EDGE ( 'NONE', *, *, #796, .F. ) ;
#99 = CARTESIAN_POINT ( 'NONE',  ( -10.24999999999999645, -17.75352077758099867, 0.2500000000000000000 ) ) ;
#100 = ORIENTED_EDGE ( 'NONE', *, *, #551, .F. ) ;
#101 = DIRECTION ( 'NONE',  ( -0.000000000000000000, -0.000000000000000000, -1.000000000000000000 ) ) ;
#102 = CIRCLE ( 'NONE', #699, 4.999999999999999112 ) ;
#103 = CARTESIAN_POINT ( 'NONE',  ( -10.24999999999999645, -17.75352077758099867, 0.2500000000000000000 ) ) ;
#104 = AXIS2_PLACEMENT_3D ( 'NONE', #30, #745, #909 ) ;
#105 = EDGE_LOOP ( 'NONE', ( #892, #653, #332, #361 ) ) ;
#106 = LINE ( 'NONE', #522, #12 ) ;
#107 = ORIENTED_EDGE ( 'NONE', *, *, #167, .F. ) ;
#108 = EDGE_CURVE ( 'NONE', #831, #786, #232, .T. ) ;
#109 = CARTESIAN_POINT ( 'NONE',  ( 3.270708597260458816, 10.44625168483803712, 0.2500000000000000000 ) ) ;
#110 = ORIENTED_EDGE ( 'NONE', *, *, #1034, .F. ) ;
#111 = LINE ( 'NONE', #428, #285 ) ;
#112 = ORIENTED_EDGE ( 'NONE', *, *, #700, .F. ) ;
#113 = ADVANCED_FACE ( 'NONE', ( #203 ), #281, .T. ) ;
#114 = DIRECTION ( 'NONE',  ( 1.000000000000000000, 0.000000000000000000, 0.000000000000000000 ) ) ;
#115 = PLANE ( 'NONE',  #1056 ) ;
#116 = ORIENTED_EDGE ( 'NONE', *, *, #697, .T. ) ;
#117 = DIRECTION ( 'NONE',  ( 0.000000000000000000, 0.000000000000000000, 1.000000000000000000 ) ) ;
#118 = DIRECTION ( 'NONE',  ( -0.000000000000000000, -0.000000000000000000, -1.000000000000000000 ) ) ;
#119 = VECTOR ( 'NONE', #191, 1000.000000000000000 ) ;
#120 = ORIENTED_EDGE ( 'NONE', *, *, #472, .T. ) ;
#121 = DIRECTION ( 'NONE',  ( -0.000000000000000000, -0.000000000000000000, -1.000000000000000000 ) ) ;
#122 = CARTESIAN_POINT ( 'NONE',  ( 0.3573806474034359471, 0.004961491949114615191, 0.000000000000000000 ) ) ;
#123 = DIRECTION ( 'NONE',  ( -1.000000000000000000, 0.000000000000000000, 0.000000000000000000 ) ) ;
#124 = LINE ( 'NONE', #832, #885 ) ;
#125 = EDGE_CURVE ( 'NONE', #670, #23, #969, .T. ) ;
#126 = PERSON_AND_ORGANIZATION ( #545, #871 ) ;
#127 = CARTESIAN_POINT ( 'NONE',  ( -5.380432787982690535, -18.88811989958223947, 0.2500000000000000000 ) ) ;
#128 = CARTESIAN_POINT ( 'NONE',  ( 4.509413790389235288, -0.5232677866088448759, 0.2500000000000000000 ) ) ;
#129 = CARTESIAN_POINT ( 'NONE',  ( 4.509413790389228183, 0.5232677866088432106, 0.000000000000000000 ) ) ;
#130 = LINE ( 'NONE', #137, #1005 ) ;
#131 = ORIENTED_EDGE ( 'NONE', *, *, #987, .T. ) ;
#132 = VECTOR ( 'NONE', #875, 1000.000000000000114 ) ;
#133 = CIRCLE ( 'NONE', #89, 5.000000000000000000 ) ;
#134 = DIRECTION ( 'NONE',  ( 0.2904383886488114408, 0.9568936944086746665, -0.000000000000000000 ) ) ;
#135 = LINE ( 'NONE', #139, #869 ) ;
#136 = EDGE_CURVE ( 'NONE', #985, #319, #747, .T. ) ;
#137 = CARTESIAN_POINT ( 'NONE',  ( 19.04780805675594735, -4.784468472043374554, 0.2500000000000000000 ) ) ;
#138 = ORIENTED_EDGE ( 'NONE', *, *, #136, .F. ) ;
#139 = CARTESIAN_POINT ( 'NONE',  ( -2.707870091379930955, -3.643633005348530851, 0.2500000000000000000 ) ) ;
#140 = FACE_OUTER_BOUND ( 'NONE', #413, .T. ) ;
#141 = ORIENTED_EDGE ( 'NONE', *, *, #613, .F. ) ;
#142 = APPROVAL_STATUS ( 'not_yet_approved' ) ;
#143 = ORIENTED_EDGE ( 'NONE', *, *, #697, .F. ) ;
#144 = CARTESIAN_POINT ( 'NONE',  ( -3.847323094479461414, 4.909129591268964532, 0.2500000000000000000 ) ) ;
#145 = DIRECTION ( 'NONE',  ( 0.000000000000000000, 0.000000000000000000, 1.000000000000000000 ) ) ;
#146 = ORIENTED_EDGE ( 'NONE', *, *, #207, .F. ) ;
#147 = VECTOR ( 'NONE', #734, 1000.000000000000000 ) ;
#148 = EDGE_CURVE ( 'NONE', #49, #71, #178, .T. ) ;
#149 = CIRCLE ( 'NONE', #577, 5.000000000000000000 ) ;
#150 = PERSON_AND_ORGANIZATION ( #545, #871 ) ;
#151 = LOCAL_TIME ( 11, 33, 1.000000000000000000, #223 ) ;
#152 = CARTESIAN_POINT ( 'NONE',  ( 7.411365034765508675, 8.055642576022741252, 0.2500000000000000000 ) ) ;
#153 = DIRECTION ( 'NONE',  ( 0.7974203540646018773, 0.6034242114163841375, -0.000000000000000000 ) ) ;
#154 = CARTESIAN_POINT ( 'NONE',  ( -3.847323094479461414, 4.909129591268964532, 0.000000000000000000 ) ) ;
#155 = ADVANCED_FACE ( 'NONE', ( #766 ), #115, .F. ) ;
#156 = CARTESIAN_POINT ( 'NONE',  ( 0.3579999999999999849, 0.000000000000000000, 0.000000000000000000 ) ) ;
#157 = CARTESIAN_POINT ( 'NONE',  ( -0.1789999999999971059, 0.3100370945548306389, 0.2500000000000000000 ) ) ;
#158 = EDGE_CURVE ( 'NONE', #23, #512, #1023, .T. ) ;
#159 = ORIENTED_EDGE ( 'NONE', *, *, #82, .F. ) ;
#160 = EDGE_CURVE ( 'NONE', #588, #848, #432, .T. ) ;
#161 = DIRECTION ( 'NONE',  ( 0.000000000000000000, 0.000000000000000000, 1.000000000000000000 ) ) ;
#162 = DIRECTION ( 'NONE',  ( 0.7299738700084257292, 0.6834750537546502303, 0.000000000000000000 ) ) ;
#163 = PERSON_AND_ORGANIZATION ( #545, #871 ) ;
#164 = CIRCLE ( 'NONE', #251, 5.000000000000000888 ) ;
#165 = APPROVAL_PERSON_ORGANIZATION ( #80, #730, #244 ) ;
#166 = CLOSED_SHELL ( 'NONE', ( #75, #534, #480, #452, #5, #282, #382, #312, #625, #942, #507 ) ) ;
#167 = EDGE_CURVE ( 'NONE', #87, #512, #28, .T. ) ;
#168 = DIRECTION ( 'NONE',  ( 0.2269198244002486042, 0.9739134424034614490, -0.000000000000000000 ) ) ;
#169 = ORIENTED_EDGE ( 'NONE', *, *, #494, .F. ) ;
#170 = ORIENTED_EDGE ( 'NONE', *, *, #700, .T. ) ;
#171 = EDGE_CURVE ( 'NONE', #924, #528, #22, .T. ) ;
#172 = CARTESIAN_POINT ( 'NONE',  ( -2.327769389269110700, -5.786444332020253434, 0.2500000000000000000 ) ) ;
#173 = CARTESIAN_POINT ( 'NONE',  ( -0.1829871017703224301, -0.3070199734977471229, 0.000000000000000000 ) ) ;
#174 = ORIENTED_EDGE ( 'NONE', *, *, #726, .F. ) ;
#175 = CARTESIAN_POINT ( 'NONE',  ( -0.1829871017703224301, -0.3070199734977471229, 0.2500000000000000000 ) ) ;
#176 = CARTESIAN_POINT ( 'NONE',  ( -0.1789999999999996594, -0.3100370945548292512, 0.2500000000000000000 ) ) ;
#177 = ORIENTED_EDGE ( 'NONE', *, *, #876, .T. ) ;
#178 = LINE ( 'NONE', #1015, #48 ) ;
#179 = EDGE_CURVE ( 'NONE', #2, #670, #124, .T. ) ;
#180 = EDGE_LOOP ( 'NONE', ( #315, #752, #548, #17 ) ) ;
#181 = PLANE ( 'NONE',  #321 ) ;
#182 = VECTOR ( 'NONE', #840, 1000.000000000000227 ) ;
#183 = AXIS2_PLACEMENT_3D ( 'NONE', #25, #256, #684 ) ;
#184 = DIRECTION ( 'NONE',  ( 1.000000000000000000, 0.000000000000000000, 0.000000000000000000 ) ) ;
#185 = ORIENTED_EDGE ( 'NONE', *, *, #306, .T. ) ;
#186 = DIRECTION ( 'NONE',  ( -1.000000000000000000, 0.000000000000000000, 0.000000000000000000 ) ) ;
#187 = EDGE_CURVE ( 'NONE', #263, #704, #359, .T. ) ;
#188 = ORIENTED_EDGE ( 'NONE', *, *, #158, .T. ) ;
#189 = LINE ( 'NONE', #764, #50 ) ;
#190 = ORIENTED_EDGE ( 'NONE', *, *, #620, .F. ) ;
#191 = DIRECTION ( 'NONE',  ( 0.6034242114163841375, -0.7974203540646018773, -0.000000000000000000 ) ) ;
#192 = ORIENTED_EDGE ( 'NONE', *, *, #459, .F. ) ;
#193 = DIRECTION ( 'NONE',  ( 1.000000000000000000, 0.000000000000000000, -0.000000000000000000 ) ) ;
#194 = DIRECTION ( 'NONE',  ( -0.000000000000000000, -0.000000000000000000, -1.000000000000000000 ) ) ;
#195 = ORIENTED_EDGE ( 'NONE', *, *, #306, .F. ) ;
#196 = CARTESIAN_POINT ( 'NONE',  ( 0.3573806474034359471, 0.004961491949114615191, 0.2500000000000000000 ) ) ;
#197 = LINE ( 'NONE', #53, #989 ) ;
#198 = DIRECTION ( 'NONE',  ( 0.000000000000000000, 0.000000000000000000, 1.000000000000000000 ) ) ;
#199 = VECTOR ( 'NONE', #777, 1000.000000000000114 ) ;
#200 = AXIS2_PLACEMENT_3D ( 'NONE', #103, #437, #746 ) ;
#201 = EDGE_CURVE ( 'NONE', #71, #791, #106, .T. ) ;
#202 = ORIENTED_EDGE ( 'NONE', *, *, #96, .F. ) ;
#203 = FACE_OUTER_BOUND ( 'NONE', #807, .T. ) ;
#204 = DIRECTION ( 'NONE',  ( 0.000000000000000000, 0.000000000000000000, 1.000000000000000000 ) ) ;
#205 = FACE_OUTER_BOUND ( 'NONE', #1051, .T. ) ;
#206 = DIRECTION ( 'NONE',  ( -0.000000000000000000, -0.000000000000000000, -1.000000000000000000 ) ) ;
#207 = EDGE_CURVE ( 'NONE', #297, #597, #347, .T. ) ;
#208 = PERSON_AND_ORGANIZATION_ROLE ( 'design_owner' ) ;
#209 = CARTESIAN_POINT ( 'NONE',  ( -2.327769389269112921, 5.786444332020244552, 0.2500000000000000000 ) ) ;
#210 = FACE_OUTER_BOUND ( 'NONE', #40, .T. ) ;
#211 = ORIENTED_EDGE ( 'NONE', *, *, #551, .T. ) ;
#212 = ADVANCED_FACE ( 'NONE', ( #761 ), #264, .T. ) ;
#213 = DIRECTION ( 'NONE',  ( -0.000000000000000000, -0.000000000000000000, -1.000000000000000000 ) ) ;
#214 = DIRECTION ( 'NONE',  ( -1.000000000000000000, 0.000000000000000000, 0.000000000000000000 ) ) ;
#215 = AXIS2_PLACEMENT_3D ( 'NONE', #216, #780, #877 ) ;
#216 = CARTESIAN_POINT ( 'NONE',  ( 7.411365034765506898, -8.055642576022739476, 0.000000000000000000 ) ) ;
#217 = AXIS2_PLACEMENT_3D ( 'NONE', #144, #469, #650 ) ;
#218 = ORIENTED_EDGE ( 'NONE', *, *, #1022, .F. ) ;
#219 = SECURITY_CLASSIFICATION ( '', '', #1050 ) ;
#220 = DIRECTION ( 'NONE',  ( 0.9568936944086745555, -0.2904383886488113853, 0.000000000000000000 ) ) ;
#221 = DIRECTION ( 'NONE',  ( -0.000000000000000000, -0.000000000000000000, -1.000000000000000000 ) ) ;
#222 = EDGE_LOOP ( 'NONE', ( #188, #107, #141, #634 ) ) ;
#223 = COORDINATED_UNIVERSAL_TIME_OFFSET ( 8, 0, .AHEAD. ) ;
#224 = VERTEX_POINT ( 'NONE', #513 ) ;
#225 = DIRECTION ( 'NONE',  ( -1.000000000000000000, 0.000000000000000000, 0.000000000000000000 ) ) ;
#226 = EDGE_CURVE ( 'NONE', #503, #770, #111, .T. ) ;
#227 = CARTESIAN_POINT ( 'NONE',  ( -10.24999999999999645, -17.75352077758099867, 0.000000000000000000 ) ) ;
#228 = ORIENTED_EDGE ( 'NONE', *, *, #665, .F. ) ;
#229 = DATE_AND_TIME ( #240, #338 ) ;
#230 = DIRECTION ( 'NONE',  ( 0.000000000000000000, 0.000000000000000000, 1.000000000000000000 ) ) ;
#231 = VERTEX_POINT ( 'NONE', #775 ) ;
#232 = CIRCLE ( 'NONE', #354, 10.00000000000000178 ) ;
#233 = VECTOR ( 'NONE', #14, 1000.000000000000000 ) ;
#234 = APPROVAL_PERSON_ORGANIZATION ( #568, #902, #479 ) ;
#235 = EDGE_LOOP ( 'NONE', ( #765, #16, #79, #423 ) ) ;
#236 = FACE_OUTER_BOUND ( 'NONE', #592, .T. ) ;
#237 = DIRECTION ( 'NONE',  ( -1.000000000000000000, 0.000000000000000000, 0.000000000000000000 ) ) ;
#238 = EDGE_CURVE ( 'NONE', #66, #297, #1007, .T. ) ;
#239 = ORIENTED_EDGE ( 'NONE', *, *, #542, .T. ) ;
#240 = CALENDAR_DATE ( 2026, 5, 6 ) ;
#241 = VERTEX_POINT ( 'NONE', #926 ) ;
#242 = LINE ( 'NONE', #894, #544 ) ;
#243 = DIRECTION ( 'NONE',  ( 0.2269198244002486042, 0.9739134424034614490, -0.000000000000000000 ) ) ;
#244 = APPROVAL_ROLE ( '' ) ;
#245 = EDGE_LOOP ( 'NONE', ( #29, #865, #633, #211 ) ) ;
#246 = DIRECTION ( 'NONE',  ( -0.000000000000000000, -0.000000000000000000, -1.000000000000000000 ) ) ;
#247 = LINE ( 'NONE', #94, #935 ) ;
#248 = CARTESIAN_POINT ( 'NONE',  ( 19.04780805675595090, 4.784468472043375442, 0.2500000000000000000 ) ) ;
#249 = CIRCLE ( 'NONE', #402, 0.004999999999999796274 ) ;
#250 = PRODUCT_DEFINITION ( 'UNKNOWN', '', #683, #601 ) ;
#251 = AXIS2_PLACEMENT_3D ( 'NONE', #7, #971, #1047 ) ;
#252 = ORIENTED_EDGE ( 'NONE', *, *, #52, .T. ) ;
#253 = DIRECTION ( 'NONE',  ( -0.000000000000000000, -0.000000000000000000, -1.000000000000000000 ) ) ;
#254 = CARTESIAN_POINT ( 'NONE',  ( 0.3573806474034352809, -0.004961491949114188449, 0.2500000000000000000 ) ) ;
#255 = ORIENTED_EDGE ( 'NONE', *, *, #1000, .F. ) ;
#256 = DIRECTION ( 'NONE',  ( 0.000000000000000000, 0.000000000000000000, 1.000000000000000000 ) ) ;
#257 = EDGE_CURVE ( 'NONE', #468, #985, #60, .T. ) ;
#258 = ORIENTED_EDGE ( 'NONE', *, *, #673, .T. ) ;
#259 = DIRECTION ( 'NONE',  ( -0.000000000000000000, -0.000000000000000000, -1.000000000000000000 ) ) ;
#260 = ORIENTED_EDGE ( 'NONE', *, *, #963, .F. ) ;
#261 = DIRECTION ( 'NONE',  ( -0.000000000000000000, -0.000000000000000000, -1.000000000000000000 ) ) ;
#262 = CARTESIAN_POINT ( 'NONE',  ( -2.707870091379930955, -3.643633005348530851, 0.000000000000000000 ) ) ;
#263 = VERTEX_POINT ( 'NONE', #961 ) ;
#264 = CYLINDRICAL_SURFACE ( 'NONE', #575, 0.004999999999999796274 ) ;
#265 = ADVANCED_FACE ( 'NONE', ( #614 ), #794, .T. ) ;
#266 = VERTEX_POINT ( 'NONE', #380 ) ;
#267 = CIRCLE ( 'NONE', #867, 0.004999999999999796274 ) ;
#268 = AXIS2_PLACEMENT_3D ( 'NONE', #294, #54, #214 ) ;
#269 = CARTESIAN_POINT ( 'NONE',  ( -2.707870091379930955, -3.643633005348530851, 0.2500000000000000000 ) ) ;
#270 =( GEOMETRIC_REPRESENTATION_CONTEXT ( 3 ) GLOBAL_UNCERTAINTY_ASSIGNED_CONTEXT ( ( #439 ) ) GLOBAL_UNIT_ASSIGNED_CONTEXT ( ( #63, #549, #715 ) ) REPRESENTATION_CONTEXT ( 'NONE', 'WORKASPACE' ) );
#271 = ORIENTED_EDGE ( 'NONE', *, *, #20, .T. ) ;
#272 = CARTESIAN_POINT ( 'NONE',  ( -0.1743935456331129341, 0.3119814654468611725, 0.2500000000000000000 ) ) ;
#273 = EDGE_CURVE ( 'NONE', #277, #231, #712, .T. ) ;
#274 = EDGE_LOOP ( 'NONE', ( #958, #728, #310, #416 ) ) ;
#275 = CARTESIAN_POINT ( 'NONE',  ( 0.3573806474034359471, 0.004961491949114615191, 0.2500000000000000000 ) ) ;
#276 = CARTESIAN_POINT ( 'NONE',  ( -0.1743935456331127121, -0.3119814654468620607, 0.2500000000000000000 ) ) ;
#277 = VERTEX_POINT ( 'NONE', #623 ) ;
#278 = CARTESIAN_POINT ( 'NONE',  ( -10.68207363202596483, 2.390609108815294981, 0.000000000000000000 ) ) ;
#279 = DIRECTION ( 'NONE',  ( 1.000000000000000000, 0.000000000000000000, 0.000000000000000000 ) ) ;
#280 = ORIENTED_EDGE ( 'NONE', *, *, #897, .T. ) ;
#281 = CYLINDRICAL_SURFACE ( 'NONE', #663, 0.004999999999999796274 ) ;
#282 = ADVANCED_FACE ( 'NONE', ( #724 ), #464, .T. ) ;
#283 = CARTESIAN_POINT ( 'NONE',  ( -5.380432787982704745, 18.88811989958223592, 0.000000000000000000 ) ) ;
#284 = CARTESIAN_POINT ( 'NONE',  ( 0.3573806474034359471, 0.004961491949114615191, 0.2500000000000000000 ) ) ;
#285 = VECTOR ( 'NONE', #678, 1000.000000000000000 ) ;
#286 = MANIFOLD_SOLID_BREP ( '填料-伸長2[1]', #1042 ) ;
#287 = VECTOR ( 'NONE', #847, 1000.000000000000000 ) ;
#288 = CARTESIAN_POINT ( 'NONE',  ( -2.707870091379941169, 3.643633005348537068, 0.000000000000000000 ) ) ;
#289 = DIRECTION ( 'NONE',  ( -0.000000000000000000, -0.000000000000000000, -1.000000000000000000 ) ) ;
#290 = LINE ( 'NONE', #127, #629 ) ;
#291 = CARTESIAN_POINT ( 'NONE',  ( -0.1743935456331129341, 0.3119814654468611725, 0.000000000000000000 ) ) ;
#292 = ORIENTED_EDGE ( 'NONE', *, *, #179, .F. ) ;
#293 = FACE_OUTER_BOUND ( 'NONE', #802, .T. ) ;
#294 = CARTESIAN_POINT ( 'NONE',  ( 3.270708597260456152, -10.44625168483803712, 0.2500000000000000000 ) ) ;
#295 = DIRECTION ( 'NONE',  ( 0.000000000000000000, 0.000000000000000000, 1.000000000000000000 ) ) ;
#296 = ADVANCED_FACE ( 'NONE', ( #631 ), #391, .T. ) ;
#297 = VERTEX_POINT ( 'NONE', #291 ) ;
#298 = DIRECTION ( 'NONE',  ( -0.3888741784065361529, 0.9212908733774808345, 0.000000000000000000 ) ) ;
#299 = LINE ( 'NONE', #793, #733 ) ;
#300 = AXIS2_PLACEMENT_3D ( 'NONE', #547, #790, #301 ) ;
#301 = DIRECTION ( 'NONE',  ( -1.000000000000000000, 0.000000000000000000, 0.000000000000000000 ) ) ;
#302 = VECTOR ( 'NONE', #220, 1000.000000000000114 ) ;
#303 = ORIENTED_EDGE ( 'NONE', *, *, #960, .T. ) ;
#304 = CC_DESIGN_APPROVAL ( #902, ( #683 ) ) ;
#305 = CIRCLE ( 'NONE', #632, 0.004999999999999796274 ) ;
#306 = EDGE_CURVE ( 'NONE', #277, #241, #370, .T. ) ;
#307 = ORIENTED_EDGE ( 'NONE', *, *, #55, .F. ) ;
#308 = CYLINDRICAL_SURFACE ( 'NONE', #386, 4.999999999999999112 ) ;
#309 = DIRECTION ( 'NONE',  ( -0.000000000000000000, -0.000000000000000000, -1.000000000000000000 ) ) ;
#310 = ORIENTED_EDGE ( 'NONE', *, *, #654, .F. ) ;
#311 = DIRECTION ( 'NONE',  ( 1.000000000000000000, 0.000000000000000000, -0.000000000000000000 ) ) ;
#312 = ADVANCED_FACE ( 'NONE', ( #556 ), #385, .F. ) ;
#313 = PLANE ( 'NONE',  #833 ) ;
#314 = EDGE_CURVE ( 'NONE', #835, #224, #488, .T. ) ;
#315 = ORIENTED_EDGE ( 'NONE', *, *, #494, .T. ) ;
#316 = ORIENTED_EDGE ( 'NONE', *, *, #702, .T. ) ;
#317 = DIRECTION ( 'NONE',  ( 1.000000000000000000, 0.000000000000000000, -0.000000000000000000 ) ) ;
#318 = ADVANCED_FACE ( 'NONE', ( #140 ), #471, .F. ) ;
#319 = VERTEX_POINT ( 'NONE', #859 ) ;
#320 = AXIS2_PLACEMENT_3D ( 'NONE', #109, #194, #520 ) ;
#321 = AXIS2_PLACEMENT_3D ( 'NONE', #509, #836, #193 ) ;
#322 = ORIENTED_EDGE ( 'NONE', *, *, #61, .T. ) ;
#323 = DIRECTION ( 'NONE',  ( 0.000000000000000000, 0.000000000000000000, 1.000000000000000000 ) ) ;
#324 = CARTESIAN_POINT ( 'NONE',  ( -0.1829871017703233460, 0.3070199734977474004, 0.2500000000000000000 ) ) ;
#325 = DIRECTION ( 'NONE',  ( 0.6834750537546502303, -0.7299738700084257292, 0.000000000000000000 ) ) ;
#326 = EDGE_CURVE ( 'NONE', #814, #429, #731, .T. ) ;
#327 = ORIENTED_EDGE ( 'NONE', *, *, #640, .F. ) ;
#328 = DIRECTION ( 'NONE',  ( -0.000000000000000000, -0.000000000000000000, -1.000000000000000000 ) ) ;
#329 = ADVANCED_FACE ( 'NONE', ( #210 ), #801, .F. ) ;
#330 = ORIENTED_EDGE ( 'NONE', *, *, #930, .F. ) ;
#331 = APPLICATION_CONTEXT ( 'configuration controlled 3d designs of mechanical parts and assemblies' ) ;
#332 = ORIENTED_EDGE ( 'NONE', *, *, #26, .F. ) ;
#333 = CARTESIAN_POINT ( 'NONE',  ( 3.270708597260458816, 10.44625168483803712, 0.000000000000000000 ) ) ;
#334 = CARTESIAN_POINT ( 'NONE',  ( 0.3573806474034359471, 0.004961491949114615191, 0.2500000000000000000 ) ) ;
#335 = CARTESIAN_POINT ( 'NONE',  ( -2.327769389269110700, -5.786444332020253434, 0.000000000000000000 ) ) ;
#336 = CIRCLE ( 'NONE', #887, 5.000000000000000000 ) ;
#337 = ORIENTED_EDGE ( 'NONE', *, *, #843, .F. ) ;
#338 = LOCAL_TIME ( 11, 33, 1.000000000000000000, #968 ) ;
#339 = EDGE_CURVE ( 'NONE', #266, #2, #267, .T. ) ;
#340 = DIRECTION ( 'NONE',  ( -0.9922983898229190691, -0.1238705193128786797, -0.000000000000000000 ) ) ;
#341 = VERTEX_POINT ( 'NONE', #288 ) ;
#342 = ORIENTED_EDGE ( 'NONE', *, *, #708, .T. ) ;
#343 = EDGE_LOOP ( 'NONE', ( #856, #757, #685, #671, #397, #578, #461, #21, #120 ) ) ;
#344 = FACE_OUTER_BOUND ( 'NONE', #884, .T. ) ;
#345 = DIRECTION ( 'NONE',  ( -0.9212908733774812786, 0.3888741784065352092, 0.000000000000000000 ) ) ;
#346 = EDGE_LOOP ( 'NONE', ( #760, #131, #414, #411 ) ) ;
#347 = LINE ( 'NONE', #999, #182 ) ;
#348 = ORIENTED_EDGE ( 'NONE', *, *, #226, .T. ) ;
#349 = CARTESIAN_POINT ( 'NONE',  ( -5.380432787982704745, 18.88811989958223592, 0.2500000000000000000 ) ) ;
#350 = EDGE_CURVE ( 'NONE', #993, #297, #404, .T. ) ;
#351 = ORIENTED_EDGE ( 'NONE', *, *, #979, .F. ) ;
#352 = DIRECTION ( 'NONE',  ( -0.9568936944086745555, -0.2904383886488113853, -0.000000000000000000 ) ) ;
#353 = EDGE_CURVE ( 'NONE', #489, #427, #130, .T. ) ;
#354 = AXIS2_PLACEMENT_3D ( 'NONE', #1018, #529, #849 ) ;
#355 = VERTEX_POINT ( 'NONE', #454 ) ;
#356 = CYLINDRICAL_SURFACE ( 'NONE', #923, 10.00000000000000178 ) ;
#357 = CIRCLE ( 'NONE', #405, 4.999999999999999112 ) ;
#358 = CARTESIAN_POINT ( 'NONE',  ( -10.24999999999999645, -17.75352077758099867, 0.000000000000000000 ) ) ;
#359 = LINE ( 'NONE', #196, #199 ) ;
#360 = PLANE ( 'NONE',  #183 ) ;
#361 = ORIENTED_EDGE ( 'NONE', *, *, #55, .T. ) ;
#362 = DIRECTION ( 'NONE',  ( -0.000000000000000000, -0.000000000000000000, -1.000000000000000000 ) ) ;
#363 = CARTESIAN_POINT ( 'NONE',  ( 6.175092483748565009, -0.8773147407512854601, 0.2500000000000000000 ) ) ;
#364 = CARTESIAN_POINT ( 'NONE',  ( 3.270708597260456152, -10.44625168483803712, 0.2500000000000000000 ) ) ;
#365 = DIRECTION ( 'NONE',  ( -1.000000000000000000, 0.000000000000000000, 0.000000000000000000 ) ) ;
#366 = DIRECTION ( 'NONE',  ( -0.9739134424034612270, -0.2269198244002492704, 0.000000000000000000 ) ) ;
#367 = VECTOR ( 'NONE', #448, 1000.000000000000000 ) ;
#368 = EDGE_CURVE ( 'NONE', #381, #355, #249, .T. ) ;
#369 = AXIS2_PLACEMENT_3D ( 'NONE', #932, #345, #992 ) ;
#370 = LINE ( 'NONE', #955, #367 ) ;
#371 = AXIS2_PLACEMENT_3D ( 'NONE', #771, #261, #497 ) ;
#372 = EDGE_LOOP ( 'NONE', ( #709, #431, #1011, #964 ) ) ;
#373 = LINE ( 'NONE', #945, #973 ) ;
#374 = EDGE_CURVE ( 'NONE', #539, #266, #641, .T. ) ;
#375 = CARTESIAN_POINT ( 'NONE',  ( 0.3573806474034352809, -0.004961491949114188449, 0.000000000000000000 ) ) ;
#376 = DIRECTION ( 'NONE',  ( 0.3888741784065361529, -0.9212908733774808345, 0.000000000000000000 ) ) ;
#377 = ORIENTED_EDGE ( 'NONE', *, *, #768, .F. ) ;
#378 = CARTESIAN_POINT ( 'NONE',  ( -0.1743935456331129341, 0.3119814654468611725, 0.2500000000000000000 ) ) ;
#379 = DIRECTION ( 'NONE',  ( -0.000000000000000000, -0.000000000000000000, -1.000000000000000000 ) ) ;
#380 = CARTESIAN_POINT ( 'NONE',  ( -0.1743935456331127121, -0.3119814654468620607, 0.000000000000000000 ) ) ;
#381 = VERTEX_POINT ( 'NONE', #905 ) ;
#382 = ADVANCED_FACE ( 'NONE', ( #743 ), #651, .F. ) ;
#383 = CARTESIAN_POINT ( 'NONE',  ( -3.847323094479461414, 4.909129591268964532, 0.000000000000000000 ) ) ;
#384 = VECTOR ( 'NONE', #253, 1000.000000000000000 ) ;
#385 = CYLINDRICAL_SURFACE ( 'NONE', #986, 10.00000000000000178 ) ;
#386 = AXIS2_PLACEMENT_3D ( 'NONE', #532, #379, #863 ) ;
#387 = ORIENTED_EDGE ( 'NONE', *, *, #438, .F. ) ;
#388 = CIRCLE ( 'NONE', #852, 9.999999999999998224 ) ;
#389 = EDGE_LOOP ( 'NONE', ( #903, #252, #669, #342, #841, #928, #518, #239, #898 ) ) ;
#390 = CARTESIAN_POINT ( 'NONE',  ( -0.1829871017703233460, 0.3070199734977474004, 0.2500000000000000000 ) ) ;
#391 = CYLINDRICAL_SURFACE ( 'NONE', #781, 5.000000000000000888 ) ;
#392 = PRODUCT_DEFINITION_SHAPE ( 'NONE', 'NONE',  #250 ) ;
#393 = EDGE_LOOP ( 'NONE', ( #271, #307, #878, #486 ) ) ;
#394 = DIRECTION ( 'NONE',  ( -1.000000000000000000, 0.000000000000000000, 0.000000000000000000 ) ) ;
#395 = ADVANCED_FACE ( 'NONE', ( #739 ), #811, .F. ) ;
#396 = DIRECTION ( 'NONE',  ( -0.000000000000000000, -0.000000000000000000, -1.000000000000000000 ) ) ;
#397 = ORIENTED_EDGE ( 'NONE', *, *, #573, .T. ) ;
#398 = APPROVAL_ROLE ( '' ) ;
#399 = DIRECTION ( 'NONE',  ( -0.000000000000000000, -0.000000000000000000, -1.000000000000000000 ) ) ;
#400 = EDGE_CURVE ( 'NONE', #6, #814, #561, .T. ) ;
#401 = CYLINDRICAL_SURFACE ( 'NONE', #470, 10.00000000000000355 ) ;
#402 = AXIS2_PLACEMENT_3D ( 'NONE', #785, #295, #460 ) ;
#403 = DIRECTION ( 'NONE',  ( 1.000000000000000000, 0.000000000000000000, 0.000000000000000000 ) ) ;
#404 = CIRCLE ( 'NONE', #798, 0.004999999999999796274 ) ;
#405 = AXIS2_PLACEMENT_3D ( 'NONE', #358, #583, #515 ) ;
#406 = LOCAL_TIME ( 11, 33, 1.000000000000000000, #467 ) ;
#407 = ORIENTED_EDGE ( 'NONE', *, *, #708, .F. ) ;
#408 = DIRECTION ( 'NONE',  ( -0.2269198244002486042, -0.9739134424034614490, 0.000000000000000000 ) ) ;
#409 = LINE ( 'NONE', #335, #830 ) ;
#410 = DATE_TIME_ROLE ( 'classification_date' ) ;
#411 = ORIENTED_EDGE ( 'NONE', *, *, #564, .F. ) ;
#412 = DIRECTION ( 'NONE',  ( 0.3888741784065352092, 0.9212908733774812786, -0.000000000000000000 ) ) ;
#413 = EDGE_LOOP ( 'NONE', ( #721, #387, #255, #982 ) ) ;
#414 = ORIENTED_EDGE ( 'NONE', *, *, #368, .T. ) ;
#415 = CARTESIAN_POINT ( 'NONE',  ( -3.847323094479461414, 4.909129591268964532, 0.2500000000000000000 ) ) ;
#416 = ORIENTED_EDGE ( 'NONE', *, *, #564, .T. ) ;
#417 = CARTESIAN_POINT ( 'NONE',  ( -13.66737526877324882, -14.10365142753886936, 0.2500000000000000000 ) ) ;
#418 = VECTOR ( 'NONE', #424, 1000.000000000000000 ) ;
#419 = CIRCLE ( 'NONE', #718, 10.00000000000000355 ) ;
#420 = ORIENTED_EDGE ( 'NONE', *, *, #326, .F. ) ;
#421 = CIRCLE ( 'NONE', #526, 0.004999999999999796274 ) ;
#422 = CARTESIAN_POINT ( 'NONE',  ( -3.847323094479453864, -4.909129591268960979, 0.2500000000000000000 ) ) ;
#423 = ORIENTED_EDGE ( 'NONE', *, *, #784, .T. ) ;
#424 = DIRECTION ( 'NONE',  ( -0.000000000000000000, -0.000000000000000000, -1.000000000000000000 ) ) ;
#425 = ORIENTED_EDGE ( 'NONE', *, *, #201, .T. ) ;
#426 = DIRECTION ( 'NONE',  ( 0.9922983898229190691, -0.1238705193128785131, 0.000000000000000000 ) ) ;
#427 = VERTEX_POINT ( 'NONE', #3 ) ;
#428 = CARTESIAN_POINT ( 'NONE',  ( -3.847323094479461414, 4.909129591268964532, 0.2500000000000000000 ) ) ;
#429 = VERTEX_POINT ( 'NONE', #1048 ) ;
#430 = CARTESIAN_POINT ( 'NONE',  ( -0.1743935456331127121, -0.3119814654468620607, 0.000000000000000000 ) ) ;
#431 = ORIENTED_EDGE ( 'NONE', *, *, #784, .F. ) ;
#432 = LINE ( 'NONE', #916, #119 ) ;
#433 = AXIS2_PLACEMENT_3D ( 'NONE', #65, #720, #376 ) ;
#434 = ORIENTED_EDGE ( 'NONE', *, *, #889, .F. ) ;
#435 = DIRECTION ( 'NONE',  ( 0.000000000000000000, 0.000000000000000000, 1.000000000000000000 ) ) ;
#436 = AXIS2_PLACEMENT_3D ( 'NONE', #176, #502, #114 ) ;
#437 = DIRECTION ( 'NONE',  ( 0.000000000000000000, 0.000000000000000000, 1.000000000000000000 ) ) ;
#438 = EDGE_CURVE ( 'NONE', #995, #597, #888, .T. ) ;
#439 = UNCERTAINTY_MEASURE_WITH_UNIT (LENGTH_MEASURE( 1.000000000000000082E-05 ), #63, 'distance_accuracy_value', 'NONE');
#440 = AXIS2_PLACEMENT_3D ( 'NONE', #823, #325, #162 ) ;
#441 = VERTEX_POINT ( 'NONE', #817 ) ;
#442 = CARTESIAN_POINT ( 'NONE',  ( -3.847323094479453864, -4.909129591268960979, 0.000000000000000000 ) ) ;
#443 = CARTESIAN_POINT ( 'NONE',  ( -1.801543699009305222, 4.166900791957375283, 0.2500000000000000000 ) ) ;
#444 = FACE_OUTER_BOUND ( 'NONE', #245, .T. ) ;
#445 = DIRECTION ( 'NONE',  ( -0.6034242114163830273, -0.7974203540646025434, 0.000000000000000000 ) ) ;
#446 = ADVANCED_FACE ( 'NONE', ( #661 ), #482, .F. ) ;
#447 = LINE ( 'NONE', #550, #302 ) ;
#448 = DIRECTION ( 'NONE',  ( -0.000000000000000000, -0.000000000000000000, -1.000000000000000000 ) ) ;
#449 = DIRECTION ( 'NONE',  ( 0.000000000000000000, 0.000000000000000000, 1.000000000000000000 ) ) ;
#450 = CARTESIAN_POINT ( 'NONE',  ( -15.24999999999999645, -17.75352077758099867, 0.000000000000000000 ) ) ;
#451 = AXIS2_PLACEMENT_3D ( 'NONE', #227, #941, #947 ) ;
#452 = ADVANCED_FACE ( 'NONE', ( #90 ), #401, .F. ) ;
#453 = VECTOR ( 'NONE', #46, 1000.000000000000000 ) ;
#454 = CARTESIAN_POINT ( 'NONE',  ( 0.3573806474034352809, -0.004961491949114188449, 0.000000000000000000 ) ) ;
#455 = VECTOR ( 'NONE', #1029, 1000.000000000000000 ) ;
#456 = ORIENTED_EDGE ( 'NONE', *, *, #876, .F. ) ;
#457 = DIRECTION ( 'NONE',  ( 1.000000000000000000, 0.000000000000000000, 0.000000000000000000 ) ) ;
#458 = CARTESIAN_POINT ( 'NONE',  ( -1.801543699009306998, -4.166900791957385053, 0.2500000000000000000 ) ) ;
#459 = EDGE_CURVE ( 'NONE', #1057, #831, #247, .T. ) ;
#460 = DIRECTION ( 'NONE',  ( 1.000000000000000000, 0.000000000000000000, 0.000000000000000000 ) ) ;
#461 = ORIENTED_EDGE ( 'NONE', *, *, #459, .T. ) ;
#462 = CARTESIAN_POINT ( 'NONE',  ( -3.847323094479450756, -4.909129591268959203, 0.2500000000000000000 ) ) ;
#463 = CARTESIAN_POINT ( 'NONE',  ( 6.175092483748555239, 0.8773147407512820184, 0.000000000000000000 ) ) ;
#464 = CYLINDRICAL_SURFACE ( 'NONE', #300, 4.999999999999999112 ) ;
#465 = ADVANCED_FACE ( 'NONE', ( #988 ), #574, .F. ) ;
#466 = ORIENTED_EDGE ( 'NONE', *, *, #679, .F. ) ;
#467 = COORDINATED_UNIVERSAL_TIME_OFFSET ( 8, 0, .AHEAD. ) ;
#468 = VERTEX_POINT ( 'NONE', #727 ) ;
#469 = DIRECTION ( 'NONE',  ( 0.6834750537546497862, 0.7299738700084261733, -0.000000000000000000 ) ) ;
#470 = AXIS2_PLACEMENT_3D ( 'NONE', #647, #328, #657 ) ;
#471 = PLANE ( 'NONE',  #433 ) ;
#472 = EDGE_CURVE ( 'NONE', #786, #539, #242, .T. ) ;
#473 = VECTOR ( 'NONE', #918, 1000.000000000000114 ) ;
#474 = EDGE_LOOP ( 'NONE', ( #330, #337, #908, #749 ) ) ;
#475 = CC_DESIGN_APPROVAL ( #713, ( #219 ) ) ;
#476 = CARTESIAN_POINT ( 'NONE',  ( -10.25000000000000000, 17.75352077758100222, 0.2500000000000000000 ) ) ;
#477 = DIRECTION ( 'NONE',  ( -0.000000000000000000, -0.000000000000000000, -1.000000000000000000 ) ) ;
#478 = ORIENTED_EDGE ( 'NONE', *, *, #82, .T. ) ;
#479 = APPROVAL_ROLE ( '' ) ;
#480 = ADVANCED_FACE ( 'NONE', ( #1053 ), #8, .F. ) ;
#481 = LINE ( 'NONE', #810, #834 ) ;
#482 = PLANE ( 'NONE',  #67 ) ;
#483 = CARTESIAN_POINT ( 'NONE',  ( 0.3579999999999999849, 0.000000000000000000, 0.2500000000000000000 ) ) ;
#484 = PERSON_AND_ORGANIZATION_ROLE ( 'creator' ) ;
#485 = EDGE_CURVE ( 'NONE', #528, #874, #419, .T. ) ;
#486 = ORIENTED_EDGE ( 'NONE', *, *, #979, .T. ) ;
#487 = CARTESIAN_POINT ( 'NONE',  ( -0.1743935456331127121, -0.3119814654468620607, 0.2500000000000000000 ) ) ;
#488 = CIRCLE ( 'NONE', #215, 10.00000000000000178 ) ;
#489 = VERTEX_POINT ( 'NONE', #97 ) ;
#490 = VECTOR ( 'NONE', #959, 1000.000000000000000 ) ;
#491 = ADVANCED_BREP_SHAPE_REPRESENTATION ( 'Magnetic poles_new', ( #286, #1002, #662, #630 ), #270 ) ;
#492 = CALENDAR_DATE ( 2026, 5, 6 ) ;
#493 = DIRECTION ( 'NONE',  ( 1.000000000000000000, 0.000000000000000000, -0.000000000000000000 ) ) ;
#494 = EDGE_CURVE ( 'NONE', #427, #71, #648, .T. ) ;
#495 = FACE_OUTER_BOUND ( 'NONE', #222, .T. ) ;
#496 = EDGE_LOOP ( 'NONE', ( #642, #327, #456, #660, #169, #112, #138, #466, #1030 ) ) ;
#497 = DIRECTION ( 'NONE',  ( 1.000000000000000000, 0.000000000000000000, 0.000000000000000000 ) ) ;
#498 = DIRECTION ( 'NONE',  ( -0.6034242114163841375, 0.7974203540646018773, 0.000000000000000000 ) ) ;
#499 = LINE ( 'NONE', #825, #627 ) ;
#500 = ORIENTED_EDGE ( 'NONE', *, *, #944, .F. ) ;
#501 = DIRECTION ( 'NONE',  ( -0.000000000000000000, -0.000000000000000000, -1.000000000000000000 ) ) ;
#502 = DIRECTION ( 'NONE',  ( 0.000000000000000000, 0.000000000000000000, 1.000000000000000000 ) ) ;
#503 = VERTEX_POINT ( 'NONE', #415 ) ;
#504 = CARTESIAN_POINT ( 'NONE',  ( -0.1829871017703224301, -0.3070199734977471229, 0.2500000000000000000 ) ) ;
#505 = AXIS2_PLACEMENT_3D ( 'NONE', #278, #44, #186 ) ;
#506 = VECTOR ( 'NONE', #340, 1000.000000000000114 ) ;
#507 = ADVANCED_FACE ( 'NONE', ( #974 ), #313, .F. ) ;
#508 = ORIENTED_EDGE ( 'NONE', *, *, #438, .T. ) ;
#509 = CARTESIAN_POINT ( 'NONE',  ( -0.1789999999999996594, -0.3100370945548292512, 0.2500000000000000000 ) ) ;
#510 = VECTOR ( 'NONE', #298, 1000.000000000000227 ) ;
#511 = LINE ( 'NONE', #349, #233 ) ;
#512 = VERTEX_POINT ( 'NONE', #565 ) ;
#513 = CARTESIAN_POINT ( 'NONE',  ( -1.801543699009306998, -4.166900791957385053, 0.000000000000000000 ) ) ;
#514 = ADVANCED_FACE ( 'NONE', ( #600 ), #360, .T. ) ;
#515 = DIRECTION ( 'NONE',  ( 1.000000000000000000, 0.000000000000000000, 0.000000000000000000 ) ) ;
#516 = ORIENTED_EDGE ( 'NONE', *, *, #374, .F. ) ;
#517 = DIRECTION ( 'NONE',  ( 0.7299738700084261733, -0.6834750537546497862, -0.000000000000000000 ) ) ;
#518 = ORIENTED_EDGE ( 'NONE', *, *, #694, .T. ) ;
#519 = LINE ( 'NONE', #462, #455 ) ;
#520 = DIRECTION ( 'NONE',  ( 1.000000000000000000, 0.000000000000000000, 0.000000000000000000 ) ) ;
#521 = ORIENTED_EDGE ( 'NONE', *, *, #125, .F. ) ;
#522 = CARTESIAN_POINT ( 'NONE',  ( 6.175092483748555239, 0.8773147407512820184, 0.000000000000000000 ) ) ;
#523 = VECTOR ( 'NONE', #822, 1000.000000000000000 ) ;
#524 = CARTESIAN_POINT ( 'NONE',  ( 0.000000000000000000, 0.000000000000000000, 0.000000000000000000 ) ) ;
#525 = AXIS2_PLACEMENT_3D ( 'NONE', #738, #323, #311 ) ;
#526 = AXIS2_PLACEMENT_3D ( 'NONE', #58, #449, #626 ) ;
#527 = FACE_OUTER_BOUND ( 'NONE', #948, .T. ) ;
#528 = VERTEX_POINT ( 'NONE', #269 ) ;
#529 = DIRECTION ( 'NONE',  ( -0.000000000000000000, -0.000000000000000000, -1.000000000000000000 ) ) ;
#530 = EDGE_CURVE ( 'NONE', #512, #814, #357, .T. ) ;
#531 = CARTESIAN_POINT ( 'NONE',  ( -0.1829871017703233460, 0.3070199734977474004, 0.000000000000000000 ) ) ;
#532 = CARTESIAN_POINT ( 'NONE',  ( -10.25000000000000000, 17.75352077758100222, 0.2500000000000000000 ) ) ;
#533 = DIRECTION ( 'NONE',  ( -1.000000000000000000, 0.000000000000000000, 0.000000000000000000 ) ) ;
#534 = ADVANCED_FACE ( 'NONE', ( #1013 ), #31, .T. ) ;
#535 = CARTESIAN_POINT ( 'NONE',  ( -10.68207363202596483, -2.390609108815293649, 0.000000000000000000 ) ) ;
#536 = LINE ( 'NONE', #64, #132 ) ;
#537 = CARTESIAN_POINT ( 'NONE',  ( -0.1789999999999971059, 0.3100370945548306389, 0.000000000000000000 ) ) ;
#538 = PRODUCT_RELATED_PRODUCT_CATEGORY ( 'detail', '', ( #558 ) ) ;
#539 = VERTEX_POINT ( 'NONE', #276 ) ;
#540 = FACE_OUTER_BOUND ( 'NONE', #274, .T. ) ;
#541 = AXIS2_PLACEMENT_3D ( 'NONE', #172, #732, #408 ) ;
#542 = EDGE_CURVE ( 'NONE', #858, #263, #1024, .T. ) ;
#543 = CARTESIAN_POINT ( 'NONE',  ( -3.847323094479461414, 4.909129591268964532, 0.2500000000000000000 ) ) ;
#544 = VECTOR ( 'NONE', #412, 1000.000000000000114 ) ;
#545 = PERSON ( 'UNSPECIFIED', 'UNSPECIFIED', 'UNSPECIFIED', ('UNSPECIFIED'), ('UNSPECIFIED'), ('UNSPECIFIED') ) ;
#546 = VECTOR ( 'NONE', #997, 1000.000000000000114 ) ;
#547 = CARTESIAN_POINT ( 'NONE',  ( -10.24999999999999645, -17.75352077758099867, 0.2500000000000000000 ) ) ;
#548 = ORIENTED_EDGE ( 'NONE', *, *, #860, .F. ) ;
#549 =( NAMED_UNIT ( * ) PLANE_ANGLE_UNIT ( ) SI_UNIT ( $, .RADIAN. ) );
#550 = CARTESIAN_POINT ( 'NONE',  ( 6.175092483748565009, -0.8773147407512854601, 0.000000000000000000 ) ) ;
#551 = EDGE_CURVE ( 'NONE', #714, #441, #19, .T. ) ;
#552 = DIRECTION ( 'NONE',  ( -1.000000000000000000, 0.000000000000000000, 0.000000000000000000 ) ) ;
#553 = ORIENTED_EDGE ( 'NONE', *, *, #605, .F. ) ;
#554 = ORIENTED_EDGE ( 'NONE', *, *, #472, .F. ) ;
#555 = CYLINDRICAL_SURFACE ( 'NONE', #34, 0.004999999999999796274 ) ;
#556 = FACE_OUTER_BOUND ( 'NONE', #804, .T. ) ;
#557 = ORIENTED_EDGE ( 'NONE', *, *, #723, .F. ) ;
#558 = PRODUCT ( 'Magnetic poles_new', 'Magnetic poles_new', '', ( #939 ) ) ;
#559 = CALENDAR_DATE ( 2026, 5, 6 ) ;
#560 = AXIS2_PLACEMENT_3D ( 'NONE', #756, #121, #607 ) ;
#561 = LINE ( 'NONE', #978, #384 ) ;
#562 = AXIS2_PLACEMENT_3D ( 'NONE', #910, #1061, #899 ) ;
#563 = ORIENTED_EDGE ( 'NONE', *, *, #158, .F. ) ;
#564 = EDGE_CURVE ( 'NONE', #76, #355, #587, .T. ) ;
#565 = CARTESIAN_POINT ( 'NONE',  ( -13.66737526877324882, -14.10365142753886936, 0.000000000000000000 ) ) ;
#566 = CC_DESIGN_PERSON_AND_ORGANIZATION_ASSIGNMENT ( #150, #484, ( #683 ) ) ;
#567 = ORIENTED_EDGE ( 'NONE', *, *, #314, .F. ) ;
#568 = PERSON_AND_ORGANIZATION ( #545, #871 ) ;
#569 = ORIENTED_EDGE ( 'NONE', *, *, #61, .F. ) ;
#570 = DIRECTION ( 'NONE',  ( 0.000000000000000000, 0.000000000000000000, 1.000000000000000000 ) ) ;
#571 = ORIENTED_EDGE ( 'NONE', *, *, #20, .F. ) ;
#572 = CALENDAR_DATE ( 2026, 5, 6 ) ;
#573 = EDGE_CURVE ( 'NONE', #87, #6, #86, .T. ) ;
#574 = PLANE ( 'NONE',  #972 ) ;
#575 = AXIS2_PLACEMENT_3D ( 'NONE', #686, #589, #921 ) ;
#576 = DIRECTION ( 'NONE',  ( -0.000000000000000000, -0.000000000000000000, -1.000000000000000000 ) ) ;
#577 = AXIS2_PLACEMENT_3D ( 'NONE', #706, #717, #1043 ) ;
#578 = ORIENTED_EDGE ( 'NONE', *, *, #605, .T. ) ;
#579 = DIRECTION ( 'NONE',  ( 0.1238705193128786797, -0.9922983898229190691, 0.000000000000000000 ) ) ;
#580 = DIRECTION ( 'NONE',  ( -0.000000000000000000, -0.000000000000000000, -1.000000000000000000 ) ) ;
#581 = ORIENTED_EDGE ( 'NONE', *, *, #1000, .T. ) ;
#582 = DIRECTION ( 'NONE',  ( 1.000000000000000000, 0.000000000000000000, -0.000000000000000000 ) ) ;
#583 = DIRECTION ( 'NONE',  ( 0.000000000000000000, 0.000000000000000000, 1.000000000000000000 ) ) ;
#584 = ORIENTED_EDGE ( 'NONE', *, *, #530, .T. ) ;
#585 = DIRECTION ( 'NONE',  ( -0.000000000000000000, -0.000000000000000000, -1.000000000000000000 ) ) ;
#586 = CARTESIAN_POINT ( 'NONE',  ( -15.25000000000000000, 17.75352077758100222, 0.2500000000000000000 ) ) ;
#587 = LINE ( 'NONE', #842, #922 ) ;
#588 = VERTEX_POINT ( 'NONE', #668 ) ;
#589 = DIRECTION ( 'NONE',  ( -0.000000000000000000, -0.000000000000000000, -1.000000000000000000 ) ) ;
#590 = VECTOR ( 'NONE', #362, 1000.000000000000000 ) ;
#591 = VECTOR ( 'NONE', #872, 1000.000000000000114 ) ;
#592 = EDGE_LOOP ( 'NONE', ( #919, #571, #638, #637, #977, #98, #377, #602, #146 ) ) ;
#593 = CIRCLE ( 'NONE', #371, 9.999999999999998224 ) ;
#594 = CARTESIAN_POINT ( 'NONE',  ( 6.175092483748564121, -0.8773147407512872364, 0.2500000000000000000 ) ) ;
#595 = VERTEX_POINT ( 'NONE', #594 ) ;
#596 = DIRECTION ( 'NONE',  ( -0.000000000000000000, -0.000000000000000000, -1.000000000000000000 ) ) ;
#597 = VERTEX_POINT ( 'NONE', #773 ) ;
#598 = DIRECTION ( 'NONE',  ( -0.000000000000000000, -0.000000000000000000, -1.000000000000000000 ) ) ;
#599 = EDGE_CURVE ( 'NONE', #933, #714, #336, .T. ) ;
#600 = FACE_OUTER_BOUND ( 'NONE', #389, .T. ) ;
#601 = DESIGN_CONTEXT ( 'detailed design', #331, 'design' ) ;
#602 = ORIENTED_EDGE ( 'NONE', *, *, #42, .F. ) ;
#603 = DIRECTION ( 'NONE',  ( 0.2904383886488114408, -0.9568936944086746665, 0.000000000000000000 ) ) ;
#604 = PLANE ( 'NONE',  #369 ) ;
#605 = EDGE_CURVE ( 'NONE', #6, #1057, #102, .T. ) ;
#606 = EDGE_LOOP ( 'NONE', ( #967, #110, #839, #73 ) ) ;
#607 = DIRECTION ( 'NONE',  ( -1.000000000000000000, 0.000000000000000000, 0.000000000000000000 ) ) ;
#608 = VECTOR ( 'NONE', #596, 1000.000000000000000 ) ;
#609 = PLANE ( 'NONE',  #611 ) ;
#610 = AXIS2_PLACEMENT_3D ( 'NONE', #364, #1026, #225 ) ;
#611 = AXIS2_PLACEMENT_3D ( 'NONE', #363, #134, #950 ) ;
#612 = DIRECTION ( 'NONE',  ( -0.000000000000000000, -0.000000000000000000, -1.000000000000000000 ) ) ;
#613 = EDGE_CURVE ( 'NONE', #874, #87, #829, .T. ) ;
#614 = FACE_OUTER_BOUND ( 'NONE', #474, .T. ) ;
#615 = PLANE ( 'NONE',  #719 ) ;
#616 = DIRECTION ( 'NONE',  ( -0.000000000000000000, -0.000000000000000000, -1.000000000000000000 ) ) ;
#617 = CC_DESIGN_PERSON_AND_ORGANIZATION_ASSIGNMENT ( #163, #976, ( #683 ) ) ;
#618 = CARTESIAN_POINT ( 'NONE',  ( -10.25000000000000000, 17.75352077758100222, 0.2500000000000000000 ) ) ;
#619 = ORIENTED_EDGE ( 'NONE', *, *, #148, .T. ) ;
#620 = EDGE_CURVE ( 'NONE', #231, #1033, #511, .T. ) ;
#621 = DIRECTION ( 'NONE',  ( -0.000000000000000000, -0.000000000000000000, -1.000000000000000000 ) ) ;
#622 = DIRECTION ( 'NONE',  ( -0.9568936944086745555, -0.2904383886488113853, -0.000000000000000000 ) ) ;
#623 = CARTESIAN_POINT ( 'NONE',  ( -2.327769389269112921, 5.786444332020246328, 0.2500000000000000000 ) ) ;
#624 = ORIENTED_EDGE ( 'NONE', *, *, #187, .F. ) ;
#625 = ADVANCED_FACE ( 'NONE', ( #527 ), #604, .F. ) ;
#626 = DIRECTION ( 'NONE',  ( 1.000000000000000000, 0.000000000000000000, 0.000000000000000000 ) ) ;
#627 = VECTOR ( 'NONE', #580, 1000.000000000000000 ) ;
#628 = CARTESIAN_POINT ( 'NONE',  ( -2.327769389269110700, -5.786444332020253434, 0.2500000000000000000 ) ) ;
#629 = VECTOR ( 'NONE', #616, 1000.000000000000000 ) ;
#630 = AXIS2_PLACEMENT_3D ( 'NONE', #524, #204, #853 ) ;
#631 = FACE_OUTER_BOUND ( 'NONE', #180, .T. ) ;
#632 = AXIS2_PLACEMENT_3D ( 'NONE', #157, #649, #812 ) ;
#633 = ORIENTED_EDGE ( 'NONE', *, *, #702, .F. ) ;
#634 = ORIENTED_EDGE ( 'NONE', *, *, #951, .T. ) ;
#635 = CARTESIAN_POINT ( 'NONE',  ( -2.327769389269110700, -5.786444332020253434, 0.000000000000000000 ) ) ;
#636 = DIRECTION ( 'NONE',  ( -0.000000000000000000, -0.000000000000000000, -1.000000000000000000 ) ) ;
#637 = ORIENTED_EDGE ( 'NONE', *, *, #91, .F. ) ;
#638 = ORIENTED_EDGE ( 'NONE', *, *, #960, .F. ) ;
#639 = DIRECTION ( 'NONE',  ( 1.000000000000000000, 0.000000000000000000, 0.000000000000000000 ) ) ;
#640 = EDGE_CURVE ( 'NONE', #725, #1006, #854, .T. ) ;
#641 = LINE ( 'NONE', #487, #850 ) ;
#642 = ORIENTED_EDGE ( 'NONE', *, *, #897, .F. ) ;
#643 = PERSON_AND_ORGANIZATION_ROLE ( 'creator' ) ;
#644 = EDGE_LOOP ( 'NONE', ( #915, #228, #567, #569, #420, #913, #563, #521, #292 ) ) ;
#645 = DIRECTION ( 'NONE',  ( 1.000000000000000000, 0.000000000000000000, 0.000000000000000000 ) ) ;
#646 = VECTOR ( 'NONE', #517, 1000.000000000000000 ) ;
#647 = CARTESIAN_POINT ( 'NONE',  ( -10.68207363202596483, 2.390609108815294981, 0.2500000000000000000 ) ) ;
#648 = CIRCLE ( 'NONE', #799, 5.000000000000000888 ) ;
#649 = DIRECTION ( 'NONE',  ( 0.000000000000000000, 0.000000000000000000, 1.000000000000000000 ) ) ;
#650 = DIRECTION ( 'NONE',  ( -0.7299738700084261733, 0.6834750537546497862, 0.000000000000000000 ) ) ;
#651 = PLANE ( 'NONE',  #541 ) ;
#652 = CC_DESIGN_PERSON_AND_ORGANIZATION_ASSIGNMENT ( #797, #736, ( #219 ) ) ;
#653 = ORIENTED_EDGE ( 'NONE', *, *, #238, .F. ) ;
#654 = EDGE_CURVE ( 'NONE', #76, #468, #189, .T. ) ;
#655 = EDGE_LOOP ( 'NONE', ( #93, #190, #689, #185 ) ) ;
#656 = PLANE ( 'NONE',  #525 ) ;
#657 = DIRECTION ( 'NONE',  ( -1.000000000000000000, 0.000000000000000000, 0.000000000000000000 ) ) ;
#658 = CARTESIAN_POINT ( 'NONE',  ( 19.04780805675595090, 4.784468472043375442, 0.000000000000000000 ) ) ;
#659 = EDGE_CURVE ( 'NONE', #539, #924, #769, .T. ) ;
#660 = ORIENTED_EDGE ( 'NONE', *, *, #201, .F. ) ;
#661 = FACE_OUTER_BOUND ( 'NONE', #393, .T. ) ;
#662 = MANIFOLD_SOLID_BREP ( '填料-伸長2[3]', #907 ) ;
#663 = AXIS2_PLACEMENT_3D ( 'NONE', #690, #844, #365 ) ;
#664 = CYLINDRICAL_SURFACE ( 'NONE', #815, 4.999999999999999112 ) ;
#665 = EDGE_CURVE ( 'NONE', #224, #266, #754, .T. ) ;
#666 = ORIENTED_EDGE ( 'NONE', *, *, #987, .F. ) ;
#667 = APPLICATION_CONTEXT ( 'configuration controlled 3d designs of mechanical parts and assemblies' ) ;
#668 = CARTESIAN_POINT ( 'NONE',  ( -2.707870091379941169, 3.643633005348537068, 0.2500000000000000000 ) ) ;
#669 = ORIENTED_EDGE ( 'NONE', *, *, #654, .T. ) ;
#670 = VERTEX_POINT ( 'NONE', #262 ) ;
#671 = ORIENTED_EDGE ( 'NONE', *, *, #613, .T. ) ;
#672 = CARTESIAN_POINT ( 'NONE',  ( 0.3573806474034359471, 0.004961491949114615191, 0.000000000000000000 ) ) ;
#673 = EDGE_CURVE ( 'NONE', #995, #277, #1059, .T. ) ;
#674 = ORIENTED_EDGE ( 'NONE', *, *, #889, .T. ) ;
#675 = LINE ( 'NONE', #929, #418 ) ;
#676 = DIRECTION ( 'NONE',  ( -1.000000000000000000, 0.000000000000000000, 0.000000000000000000 ) ) ;
#677 = EDGE_LOOP ( 'NONE', ( #9, #500, #624, #674 ) ) ;
#678 = DIRECTION ( 'NONE',  ( -0.000000000000000000, -0.000000000000000000, -1.000000000000000000 ) ) ;
#679 = EDGE_CURVE ( 'NONE', #355, #985, #1003, .T. ) ;
#680 = AXIS2_PLACEMENT_3D ( 'NONE', #334, #579, #83 ) ;
#681 = VECTOR ( 'NONE', #598, 1000.000000000000000 ) ;
#682 = EDGE_LOOP ( 'NONE', ( #425, #202, #737, #619 ) ) ;
#683 = PRODUCT_DEFINITION_FORMATION_WITH_SPECIFIED_SOURCE ( 'ANY', '', #558, .NOT_KNOWN. ) ;
#684 = DIRECTION ( 'NONE',  ( 1.000000000000000000, 0.000000000000000000, -0.000000000000000000 ) ) ;
#685 = ORIENTED_EDGE ( 'NONE', *, *, #485, .T. ) ;
#686 = CARTESIAN_POINT ( 'NONE',  ( -0.1789999999999971059, 0.3100370945548306389, 0.2500000000000000000 ) ) ;
#687 = ADVANCED_FACE ( 'NONE', ( #937 ), #43, .F. ) ;
#688 = CARTESIAN_POINT ( 'NONE',  ( -13.66737526877325060, 14.10365142753887113, 0.2500000000000000000 ) ) ;
#689 = ORIENTED_EDGE ( 'NONE', *, *, #273, .F. ) ;
#690 = CARTESIAN_POINT ( 'NONE',  ( 0.3579999999999999849, 0.000000000000000000, 0.2500000000000000000 ) ) ;
#691 = LINE ( 'NONE', #698, #70 ) ;
#692 = ADVANCED_FACE ( 'NONE', ( #779 ), #857, .F. ) ;
#693 = CARTESIAN_POINT ( 'NONE',  ( 0.3530000000000002025, 0.000000000000000000, 0.2500000000000000000 ) ) ;
#694 = EDGE_CURVE ( 'NONE', #49, #858, #299, .T. ) ;
#695 = DIRECTION ( 'NONE',  ( 0.9568936944086745555, 0.2904383886488113853, 0.000000000000000000 ) ) ;
#696 = VECTOR ( 'NONE', #1044, 1000.000000000000000 ) ;
#697 = EDGE_CURVE ( 'NONE', #786, #224, #881, .T. ) ;
#698 = CARTESIAN_POINT ( 'NONE',  ( -0.1829871017703224301, -0.3070199734977471229, 0.2500000000000000000 ) ) ;
#699 = AXIS2_PLACEMENT_3D ( 'NONE', #39, #198, #279 ) ;
#700 = EDGE_CURVE ( 'NONE', #319, #427, #447, .T. ) ;
#701 = DIRECTION ( 'NONE',  ( 0.2269198244002492704, -0.9739134424034612270, 0.000000000000000000 ) ) ;
#702 = EDGE_CURVE ( 'NONE', #714, #503, #789, .T. ) ;
#703 = DIRECTION ( 'NONE',  ( -0.2269198244002492704, 0.9739134424034612270, 0.000000000000000000 ) ) ;
#704 = VERTEX_POINT ( 'NONE', #284 ) ;
#705 = LINE ( 'NONE', #378, #510 ) ;
#706 = CARTESIAN_POINT ( 'NONE',  ( -10.25000000000000000, 17.75352077758100222, 0.000000000000000000 ) ) ;
#707 = CARTESIAN_POINT ( 'NONE',  ( -0.1789999999999996594, -0.3100370945548292512, 0.000000000000000000 ) ) ;
#708 = EDGE_CURVE ( 'NONE', #468, #595, #904, .T. ) ;
#709 = ORIENTED_EDGE ( 'NONE', *, *, #179, .T. ) ;
#710 = DIRECTION ( 'NONE',  ( 0.1238705193128785131, 0.9922983898229190691, -0.000000000000000000 ) ) ;
#711 = CARTESIAN_POINT ( 'NONE',  ( 0.3579999999999999849, 0.000000000000000000, 0.2500000000000000000 ) ) ;
#712 = LINE ( 'NONE', #47, #716 ) ;
#713 = APPROVAL ( #1055, 'UNSPECIFIED' ) ;
#714 = VERTEX_POINT ( 'NONE', #776 ) ;
#715 =( NAMED_UNIT ( * ) SI_UNIT ( $, .STERADIAN. ) SOLID_ANGLE_UNIT ( ) );
#716 = VECTOR ( 'NONE', #703, 1000.000000000000114 ) ;
#717 = DIRECTION ( 'NONE',  ( 0.000000000000000000, 0.000000000000000000, 1.000000000000000000 ) ) ;
#718 = AXIS2_PLACEMENT_3D ( 'NONE', #824, #477, #237 ) ;
#719 = AXIS2_PLACEMENT_3D ( 'NONE', #861, #710, #782 ) ;
#720 = DIRECTION ( 'NONE',  ( -0.9212908733774809455, -0.3888741784065362084, 0.000000000000000000 ) ) ;
#721 = ORIENTED_EDGE ( 'NONE', *, *, #207, .T. ) ;
#722 = APPROVAL_DATE_TIME ( #809, #730 ) ;
#723 = EDGE_CURVE ( 'NONE', #1057, #429, #290, .T. ) ;
#724 = FACE_OUTER_BOUND ( 'NONE', #952, .T. ) ;
#725 = VERTEX_POINT ( 'NONE', #129 ) ;
#726 = EDGE_CURVE ( 'NONE', #595, #489, #940, .T. ) ;
#727 = CARTESIAN_POINT ( 'NONE',  ( 4.509413790389235288, -0.5232677866088448759, 0.2500000000000000000 ) ) ;
#728 = ORIENTED_EDGE ( 'NONE', *, *, #257, .F. ) ;
#729 = CALENDAR_DATE ( 2026, 5, 6 ) ;
#730 = APPROVAL ( #142, 'UNSPECIFIED' ) ;
#731 = CIRCLE ( 'NONE', #451, 4.999999999999999112 ) ;
#732 = DIRECTION ( 'NONE',  ( -0.9739134424034614490, 0.2269198244002486042, 0.000000000000000000 ) ) ;
#733 = VECTOR ( 'NONE', #622, 1000.000000000000114 ) ;
#734 = DIRECTION ( 'NONE',  ( -0.000000000000000000, -0.000000000000000000, -1.000000000000000000 ) ) ;
#735 = VECTOR ( 'NONE', #501, 1000.000000000000000 ) ;
#736 = PERSON_AND_ORGANIZATION_ROLE ( 'classification_officer' ) ;
#737 = ORIENTED_EDGE ( 'NONE', *, *, #694, .F. ) ;
#738 = CARTESIAN_POINT ( 'NONE',  ( -0.1789999999999971059, 0.3100370945548306389, 0.000000000000000000 ) ) ;
#739 = FACE_OUTER_BOUND ( 'NONE', #677, .T. ) ;
#740 = FACE_OUTER_BOUND ( 'NONE', #1045, .T. ) ;
#741 = DATE_AND_TIME ( #729, #406 ) ;
#742 = ORIENTED_EDGE ( 'NONE', *, *, #723, .T. ) ;
#743 = FACE_OUTER_BOUND ( 'NONE', #62, .T. ) ;
#744 = LINE ( 'NONE', #912, #147 ) ;
#745 = DIRECTION ( 'NONE',  ( 0.000000000000000000, 0.000000000000000000, 1.000000000000000000 ) ) ;
#746 = DIRECTION ( 'NONE',  ( 1.000000000000000000, 0.000000000000000000, 0.000000000000000000 ) ) ;
#747 = CIRCLE ( 'NONE', #560, 10.00000000000000178 ) ;
#748 = ORIENTED_EDGE ( 'NONE', *, *, #542, .F. ) ;
#749 = ORIENTED_EDGE ( 'NONE', *, *, #796, .T. ) ;
#750 = AXIS2_PLACEMENT_3D ( 'NONE', #333, #246, #639 ) ;
#751 = VECTOR ( 'NONE', #213, 1000.000000000000000 ) ;
#752 = ORIENTED_EDGE ( 'NONE', *, *, #148, .F. ) ;
#753 = DIRECTION ( 'NONE',  ( -1.000000000000000000, 0.000000000000000000, 0.000000000000000000 ) ) ;
#754 = LINE ( 'NONE', #430, #546 ) ;
#755 = ORIENTED_EDGE ( 'NONE', *, *, #944, .T. ) ;
#756 = CARTESIAN_POINT ( 'NONE',  ( 3.270708597260456152, -10.44625168483803712, 0.000000000000000000 ) ) ;
#757 = ORIENTED_EDGE ( 'NONE', *, *, #171, .T. ) ;
#758 = LINE ( 'NONE', #38, #735 ) ;
#759 = DIRECTION ( 'NONE',  ( -0.000000000000000000, -0.000000000000000000, -1.000000000000000000 ) ) ;
#760 = ORIENTED_EDGE ( 'NONE', *, *, #52, .F. ) ;
#761 = FACE_OUTER_BOUND ( 'NONE', #105, .T. ) ;
#762 = VERTEX_POINT ( 'NONE', #693 ) ;
#763 = DIRECTION ( 'NONE',  ( 1.000000000000000000, 0.000000000000000000, 0.000000000000000000 ) ) ;
#764 = CARTESIAN_POINT ( 'NONE',  ( 0.3573806474034352809, -0.004961491949114188449, 0.2500000000000000000 ) ) ;
#765 = ORIENTED_EDGE ( 'NONE', *, *, #125, .T. ) ;
#766 = FACE_OUTER_BOUND ( 'NONE', #682, .T. ) ;
#767 = AXIS2_PLACEMENT_3D ( 'NONE', #618, #206, #1037 ) ;
#768 = EDGE_CURVE ( 'NONE', #241, #1033, #536, .T. ) ;
#769 = CIRCLE ( 'NONE', #436, 0.004999999999999796274 ) ;
#770 = VERTEX_POINT ( 'NONE', #383 ) ;
#771 = CARTESIAN_POINT ( 'NONE',  ( -10.68207363202596483, -2.390609108815293649, 0.2500000000000000000 ) ) ;
#772 = CIRCLE ( 'NONE', #820, 10.00000000000000888 ) ;
#773 = CARTESIAN_POINT ( 'NONE',  ( -1.801543699009305222, 4.166900791957375283, 0.000000000000000000 ) ) ;
#774 = ORIENTED_EDGE ( 'NONE', *, *, #400, .T. ) ;
#775 = CARTESIAN_POINT ( 'NONE',  ( -5.380432787982704745, 18.88811989958223592, 0.2500000000000000000 ) ) ;
#776 = CARTESIAN_POINT ( 'NONE',  ( -13.66737526877325060, 14.10365142753887113, 0.2500000000000000000 ) ) ;
#777 = DIRECTION ( 'NONE',  ( -0.9922983898229190691, -0.1238705193128786797, -0.000000000000000000 ) ) ;
#778 = CC_DESIGN_PERSON_AND_ORGANIZATION_ASSIGNMENT ( #126, #208, ( #558 ) ) ;
#779 = FACE_OUTER_BOUND ( 'NONE', #655, .T. ) ;
#780 = DIRECTION ( 'NONE',  ( -0.000000000000000000, -0.000000000000000000, -1.000000000000000000 ) ) ;
#781 = AXIS2_PLACEMENT_3D ( 'NONE', #1027, #221, #552 ) ;
#782 = DIRECTION ( 'NONE',  ( -0.9922983898229190691, 0.1238705193128785131, 0.000000000000000000 ) ) ;
#783 = FACE_OUTER_BOUND ( 'NONE', #346, .T. ) ;
#784 = EDGE_CURVE ( 'NONE', #528, #670, #135, .T. ) ;
#785 = CARTESIAN_POINT ( 'NONE',  ( 0.3579999999999999849, 0.000000000000000000, 0.000000000000000000 ) ) ;
#786 = VERTEX_POINT ( 'NONE', #458 ) ;
#787 = CARTESIAN_POINT ( 'NONE',  ( 0.3530000000000002025, 0.000000000000000000, 0.2500000000000000000 ) ) ;
#788 = CC_DESIGN_PERSON_AND_ORGANIZATION_ASSIGNMENT ( #85, #643, ( #250 ) ) ;
#789 = LINE ( 'NONE', #543, #490 ) ;
#790 = DIRECTION ( 'NONE',  ( -0.000000000000000000, -0.000000000000000000, -1.000000000000000000 ) ) ;
#791 = VERTEX_POINT ( 'NONE', #463 ) ;
#792 = CARTESIAN_POINT ( 'NONE',  ( -5.380432787982690535, -18.88811989958223947, 0.2500000000000000000 ) ) ;
#793 = CARTESIAN_POINT ( 'NONE',  ( 6.175092483748555239, 0.8773147407512820184, 0.2500000000000000000 ) ) ;
#794 = CYLINDRICAL_SURFACE ( 'NONE', #767, 4.999999999999999112 ) ;
#795 = VERTEX_POINT ( 'NONE', #59 ) ;
#796 = EDGE_CURVE ( 'NONE', #1033, #795, #149, .T. ) ;
#797 = PERSON_AND_ORGANIZATION ( #545, #871 ) ;
#798 = AXIS2_PLACEMENT_3D ( 'NONE', #537, #873, #864 ) ;
#799 = AXIS2_PLACEMENT_3D ( 'NONE', #806, #161, #78 ) ;
#800 = CC_DESIGN_APPROVAL ( #730, ( #250 ) ) ;
#801 = CYLINDRICAL_SURFACE ( 'NONE', #1004, 9.999999999999996447 ) ;
#802 = EDGE_LOOP ( 'NONE', ( #170, #975, #174, #478 ) ) ;
#803 = COORDINATED_UNIVERSAL_TIME_OFFSET ( 8, 0, .AHEAD. ) ;
#804 = EDGE_LOOP ( 'NONE', ( #18, #143, #57, #962 ) ) ;
#805 = PLANE ( 'NONE',  #217 ) ;
#806 = CARTESIAN_POINT ( 'NONE',  ( 20.50000000000000000, 0.000000000000000000, 0.000000000000000000 ) ) ;
#807 = EDGE_LOOP ( 'NONE', ( #666, #218, #755, #280 ) ) ;
#808 = ADVANCED_FACE ( 'NONE', ( #205 ), #308, .T. ) ;
#809 = DATE_AND_TIME ( #572, #1060 ) ;
#810 = CARTESIAN_POINT ( 'NONE',  ( 4.509413790389228183, 0.5232677866088432106, 0.2500000000000000000 ) ) ;
#811 = PLANE ( 'NONE',  #680 ) ;
#812 = DIRECTION ( 'NONE',  ( 1.000000000000000000, 0.000000000000000000, 0.000000000000000000 ) ) ;
#813 = DATE_TIME_ROLE ( 'creation_date' ) ;
#814 = VERTEX_POINT ( 'NONE', #450 ) ;
#815 = AXIS2_PLACEMENT_3D ( 'NONE', #99, #259, #990 ) ;
#816 = CIRCLE ( 'NONE', #1040, 5.000000000000000000 ) ;
#817 = CARTESIAN_POINT ( 'NONE',  ( -13.66737526877325060, 14.10365142753887113, 0.000000000000000000 ) ) ;
#818 = LOCAL_TIME ( 11, 33, 1.000000000000000000, #69 ) ;
#819 = CARTESIAN_POINT ( 'NONE',  ( -3.847323094479450756, -4.909129591268959203, 0.000000000000000000 ) ) ;
#820 = AXIS2_PLACEMENT_3D ( 'NONE', #84, #576, #92 ) ;
#821 = ORIENTED_EDGE ( 'NONE', *, *, #42, .T. ) ;
#822 = DIRECTION ( 'NONE',  ( -0.000000000000000000, -0.000000000000000000, -1.000000000000000000 ) ) ;
#823 = CARTESIAN_POINT ( 'NONE',  ( -3.847323094479453864, -4.909129591268960979, 0.2500000000000000000 ) ) ;
#824 = CARTESIAN_POINT ( 'NONE',  ( -10.68207363202596483, 2.390609108815294981, 0.2500000000000000000 ) ) ;
#825 = CARTESIAN_POINT ( 'NONE',  ( 6.175092483748564121, -0.8773147407512872364, 0.2500000000000000000 ) ) ;
#826 = ADVANCED_FACE ( 'NONE', ( #783 ), #555, .T. ) ;
#827 = ORIENTED_EDGE ( 'NONE', *, *, #573, .F. ) ;
#828 = CARTESIAN_POINT ( 'NONE',  ( 3.270708597260458816, 10.44625168483803712, 0.2500000000000000000 ) ) ;
#829 = LINE ( 'NONE', #422, #473 ) ;
#830 = VECTOR ( 'NONE', #243, 1000.000000000000114 ) ;
#831 = VERTEX_POINT ( 'NONE', #628 ) ;
#832 = CARTESIAN_POINT ( 'NONE',  ( -0.1829871017703224301, -0.3070199734977471229, 0.000000000000000000 ) ) ;
#833 = AXIS2_PLACEMENT_3D ( 'NONE', #966, #230, #317 ) ;
#834 = VECTOR ( 'NONE', #399, 1000.000000000000000 ) ;
#835 = VERTEX_POINT ( 'NONE', #635 ) ;
#836 = DIRECTION ( 'NONE',  ( 0.000000000000000000, 0.000000000000000000, 1.000000000000000000 ) ) ;
#837 = ADVANCED_FACE ( 'NONE', ( #444 ), #805, .F. ) ;
#838 = CARTESIAN_POINT ( 'NONE',  ( 7.411365034765508675, 8.055642576022741252, 0.2500000000000000000 ) ) ;
#839 = ORIENTED_EDGE ( 'NONE', *, *, #659, .F. ) ;
#840 = DIRECTION ( 'NONE',  ( -0.3888741784065361529, 0.9212908733774808345, 0.000000000000000000 ) ) ;
#841 = ORIENTED_EDGE ( 'NONE', *, *, #726, .T. ) ;
#842 = CARTESIAN_POINT ( 'NONE',  ( 0.3573806474034352809, -0.004961491949114188449, 0.2500000000000000000 ) ) ;
#843 = EDGE_CURVE ( 'NONE', #231, #933, #816, .T. ) ;
#844 = DIRECTION ( 'NONE',  ( -0.000000000000000000, -0.000000000000000000, -1.000000000000000000 ) ) ;
#845 = ORIENTED_EDGE ( 'NONE', *, *, #920, .T. ) ;
#846 = PLANE ( 'NONE',  #36 ) ;
#847 = DIRECTION ( 'NONE',  ( -0.000000000000000000, -0.000000000000000000, -1.000000000000000000 ) ) ;
#848 = VERTEX_POINT ( 'NONE', #390 ) ;
#849 = DIRECTION ( 'NONE',  ( 1.000000000000000000, 0.000000000000000000, 0.000000000000000000 ) ) ;
#850 = VECTOR ( 'NONE', #396, 1000.000000000000000 ) ;
#851 = VECTOR ( 'NONE', #946, 1000.000000000000114 ) ;
#852 = AXIS2_PLACEMENT_3D ( 'NONE', #535, #621, #457 ) ;
#853 = DIRECTION ( 'NONE',  ( 1.000000000000000000, 0.000000000000000000, 0.000000000000000000 ) ) ;
#854 = LINE ( 'NONE', #672, #506 ) ;
#855 = DIRECTION ( 'NONE',  ( -0.6034242114163830273, -0.7974203540646025434, 0.000000000000000000 ) ) ;
#856 = ORIENTED_EDGE ( 'NONE', *, *, #659, .T. ) ;
#857 = PLANE ( 'NONE',  #13 ) ;
#858 = VERTEX_POINT ( 'NONE', #1052 ) ;
#859 = CARTESIAN_POINT ( 'NONE',  ( 6.175092483748564121, -0.8773147407512872364, 0.000000000000000000 ) ) ;
#860 = EDGE_CURVE ( 'NONE', #489, #49, #164, .T. ) ;
#861 = CARTESIAN_POINT ( 'NONE',  ( 0.3573806474034352809, -0.004961491949114188449, 0.2500000000000000000 ) ) ;
#862 = EDGE_LOOP ( 'NONE', ( #1038, #159, #407, #970 ) ) ;
#863 = DIRECTION ( 'NONE',  ( -1.000000000000000000, 0.000000000000000000, 0.000000000000000000 ) ) ;
#864 = DIRECTION ( 'NONE',  ( 1.000000000000000000, 0.000000000000000000, 0.000000000000000000 ) ) ;
#865 = ORIENTED_EDGE ( 'NONE', *, *, #226, .F. ) ;
#866 = CC_DESIGN_DATE_AND_TIME_ASSIGNMENT ( #741, #813, ( #250 ) ) ;
#867 = AXIS2_PLACEMENT_3D ( 'NONE', #707, #145, #72 ) ;
#868 = CARTESIAN_POINT ( 'NONE',  ( 4.509413790389235288, -0.5232677866088448759, 0.000000000000000000 ) ) ;
#869 = VECTOR ( 'NONE', #612, 1000.000000000000000 ) ;
#870 = ADVANCED_FACE ( 'NONE', ( #236 ), #656, .F. ) ;
#871 = ORGANIZATION ( 'UNSPECIFIED', 'UNSPECIFIED', '' ) ;
#872 = DIRECTION ( 'NONE',  ( 0.9568936944086745555, -0.2904383886488113853, 0.000000000000000000 ) ) ;
#873 = DIRECTION ( 'NONE',  ( 0.000000000000000000, 0.000000000000000000, 1.000000000000000000 ) ) ;
#874 = VERTEX_POINT ( 'NONE', #893 ) ;
#875 = DIRECTION ( 'NONE',  ( -0.2269198244002492704, 0.9739134424034612270, 0.000000000000000000 ) ) ;
#876 = EDGE_CURVE ( 'NONE', #791, #725, #68, .T. ) ;
#877 = DIRECTION ( 'NONE',  ( 1.000000000000000000, 0.000000000000000000, 0.000000000000000000 ) ) ;
#878 = ORIENTED_EDGE ( 'NONE', *, *, #160, .F. ) ;
#879 = APPROVAL_DATE_TIME ( #1046, #713 ) ;
#880 = ORIENTED_EDGE ( 'NONE', *, *, #400, .F. ) ;
#881 = LINE ( 'NONE', #954, #453 ) ;
#882 = DIRECTION ( 'NONE',  ( -1.000000000000000000, 0.000000000000000000, 0.000000000000000000 ) ) ;
#883 = ADVANCED_FACE ( 'NONE', ( #965 ), #886, .F. ) ;
#884 = EDGE_LOOP ( 'NONE', ( #1001, #581, #258, #95, #1020, #1017, #316, #845, #1049 ) ) ;
#885 = VECTOR ( 'NONE', #445, 1000.000000000000227 ) ;
#886 = CYLINDRICAL_SURFACE ( 'NONE', #15, 10.00000000000000888 ) ;
#887 = AXIS2_PLACEMENT_3D ( 'NONE', #914, #1016, #184 ) ;
#888 = LINE ( 'NONE', #983, #523 ) ;
#889 = EDGE_CURVE ( 'NONE', #263, #725, #481, .T. ) ;
#890 = PLANE ( 'NONE',  #440 ) ;
#891 = EDGE_CURVE ( 'NONE', #795, #441, #133, .T. ) ;
#892 = ORIENTED_EDGE ( 'NONE', *, *, #350, .T. ) ;
#893 = CARTESIAN_POINT ( 'NONE',  ( -3.847323094479450756, -4.909129591268959203, 0.2500000000000000000 ) ) ;
#894 = CARTESIAN_POINT ( 'NONE',  ( -0.1743935456331127121, -0.3119814654468620607, 0.2500000000000000000 ) ) ;
#895 = DIRECTION ( 'NONE',  ( 0.6034242114163841375, -0.7974203540646018773, -0.000000000000000000 ) ) ;
#896 = PERSON_AND_ORGANIZATION ( #545, #871 ) ;
#897 = EDGE_CURVE ( 'NONE', #1006, #381, #1009, .T. ) ;
#898 = ORIENTED_EDGE ( 'NONE', *, *, #187, .T. ) ;
#899 = DIRECTION ( 'NONE',  ( 0.6034242114163830273, 0.7974203540646025434, 0.000000000000000000 ) ) ;
#900 = CARTESIAN_POINT ( 'NONE',  ( -0.1743935456331129341, 0.3119814654468611725, 0.2500000000000000000 ) ) ;
#901 = DATE_AND_TIME ( #492, #151 ) ;
#902 = APPROVAL ( #1, 'UNSPECIFIED' ) ;
#903 = ORIENTED_EDGE ( 'NONE', *, *, #1022, .T. ) ;
#904 = CIRCLE ( 'NONE', #610, 10.00000000000000178 ) ;
#905 = CARTESIAN_POINT ( 'NONE',  ( 0.3530000000000002025, 0.000000000000000000, 0.000000000000000000 ) ) ;
#906 = CARTESIAN_POINT ( 'NONE',  ( -15.24999999999999645, -17.75352077758099867, 0.2500000000000000000 ) ) ;
#907 = CLOSED_SHELL ( 'NONE', ( #808, #212, #318, #883, #692, #265, #837, #329, #446, #911, #870 ) ) ;
#908 = ORIENTED_EDGE ( 'NONE', *, *, #620, .T. ) ;
#909 = DIRECTION ( 'NONE',  ( 1.000000000000000000, 0.000000000000000000, 0.000000000000000000 ) ) ;
#910 = CARTESIAN_POINT ( 'NONE',  ( -0.1829871017703224301, -0.3070199734977471229, 0.2500000000000000000 ) ) ;
#911 = ADVANCED_FACE ( 'NONE', ( #344 ), #846, .T. ) ;
#912 = CARTESIAN_POINT ( 'NONE',  ( -0.1829871017703233460, 0.3070199734977474004, 0.2500000000000000000 ) ) ;
#913 = ORIENTED_EDGE ( 'NONE', *, *, #530, .F. ) ;
#914 = CARTESIAN_POINT ( 'NONE',  ( -10.25000000000000000, 17.75352077758100222, 0.2500000000000000000 ) ) ;
#915 = ORIENTED_EDGE ( 'NONE', *, *, #339, .F. ) ;
#916 = CARTESIAN_POINT ( 'NONE',  ( -0.1829871017703233460, 0.3070199734977474004, 0.2500000000000000000 ) ) ;
#917 = ORIENTED_EDGE ( 'NONE', *, *, #96, .T. ) ;
#918 = DIRECTION ( 'NONE',  ( -0.7299738700084257292, -0.6834750537546502303, 0.000000000000000000 ) ) ;
#919 = ORIENTED_EDGE ( 'NONE', *, *, #350, .F. ) ;
#920 = EDGE_CURVE ( 'NONE', #503, #588, #593, .T. ) ;
#921 = DIRECTION ( 'NONE',  ( -1.000000000000000000, 0.000000000000000000, 0.000000000000000000 ) ) ;
#922 = VECTOR ( 'NONE', #118, 1000.000000000000000 ) ;
#923 = AXIS2_PLACEMENT_3D ( 'NONE', #828, #101, #753 ) ;
#924 = VERTEX_POINT ( 'NONE', #175 ) ;
#925 = DIRECTION ( 'NONE',  ( -0.000000000000000000, -0.000000000000000000, -1.000000000000000000 ) ) ;
#926 = CARTESIAN_POINT ( 'NONE',  ( -2.327769389269112921, 5.786444332020246328, 0.000000000000000000 ) ) ;
#927 = CARTESIAN_POINT ( 'NONE',  ( -0.1789999999999996594, -0.3100370945548292512, 0.2500000000000000000 ) ) ;
#928 = ORIENTED_EDGE ( 'NONE', *, *, #860, .T. ) ;
#929 = CARTESIAN_POINT ( 'NONE',  ( 6.175092483748555239, 0.8773147407512820184, 0.2500000000000000000 ) ) ;
#930 = EDGE_CURVE ( 'NONE', #933, #795, #758, .T. ) ;
#931 = ADVANCED_FACE ( 'NONE', ( #11 ), #356, .F. ) ;
#932 = CARTESIAN_POINT ( 'NONE',  ( -0.1743935456331127121, -0.3119814654468620607, 0.2500000000000000000 ) ) ;
#933 = VERTEX_POINT ( 'NONE', #586 ) ;
#934 = CARTESIAN_POINT ( 'NONE',  ( -13.66737526877324882, -14.10365142753886936, 0.2500000000000000000 ) ) ;
#935 = VECTOR ( 'NONE', #168, 1000.000000000000114 ) ;
#936 = APPROVAL_PERSON_ORGANIZATION ( #896, #713, #398 ) ;
#937 = FACE_OUTER_BOUND ( 'NONE', #862, .T. ) ;
#938 = DIRECTION ( 'NONE',  ( -0.000000000000000000, -0.000000000000000000, -1.000000000000000000 ) ) ;
#939 = MECHANICAL_CONTEXT ( 'NONE', #667, 'mechanical' ) ;
#940 = LINE ( 'NONE', #1021, #591 ) ;
#941 = DIRECTION ( 'NONE',  ( 0.000000000000000000, 0.000000000000000000, 1.000000000000000000 ) ) ;
#942 = ADVANCED_FACE ( 'NONE', ( #1012 ), #181, .T. ) ;
#943 = ORIENTED_EDGE ( 'NONE', *, *, #665, .T. ) ;
#944 = EDGE_CURVE ( 'NONE', #704, #1006, #24, .T. ) ;
#945 = CARTESIAN_POINT ( 'NONE',  ( -2.707870091379941169, 3.643633005348537068, 0.2500000000000000000 ) ) ;
#946 = DIRECTION ( 'NONE',  ( 0.9922983898229190691, -0.1238705193128785131, 0.000000000000000000 ) ) ;
#947 = DIRECTION ( 'NONE',  ( 1.000000000000000000, 0.000000000000000000, 0.000000000000000000 ) ) ;
#948 = EDGE_LOOP ( 'NONE', ( #943, #516, #554, #116 ) ) ;
#949 = VECTOR ( 'NONE', #855, 1000.000000000000227 ) ;
#950 = DIRECTION ( 'NONE',  ( -0.9568936944086745555, 0.2904383886488113853, 0.000000000000000000 ) ) ;
#951 = EDGE_CURVE ( 'NONE', #874, #23, #519, .T. ) ;
#952 = EDGE_LOOP ( 'NONE', ( #880, #827, #998, #584 ) ) ;
#953 = CIRCLE ( 'NONE', #32, 0.004999999999999796274 ) ;
#954 = CARTESIAN_POINT ( 'NONE',  ( -1.801543699009306998, -4.166900791957385053, 0.2500000000000000000 ) ) ;
#955 = CARTESIAN_POINT ( 'NONE',  ( -2.327769389269112921, 5.786444332020246328, 0.2500000000000000000 ) ) ;
#956 = ORIENTED_EDGE ( 'NONE', *, *, #673, .F. ) ;
#957 = APPLICATION_PROTOCOL_DEFINITION ( 'international standard', 'config_control_design', 1994, #331 ) ;
#958 = ORIENTED_EDGE ( 'NONE', *, *, #679, .T. ) ;
#959 = DIRECTION ( 'NONE',  ( 0.7299738700084261733, -0.6834750537546497862, -0.000000000000000000 ) ) ;
#960 = EDGE_CURVE ( 'NONE', #770, #341, #388, .T. ) ;
#961 = CARTESIAN_POINT ( 'NONE',  ( 4.509413790389228183, 0.5232677866088432106, 0.2500000000000000000 ) ) ;
#962 = ORIENTED_EDGE ( 'NONE', *, *, #963, .T. ) ;
#963 = EDGE_CURVE ( 'NONE', #831, #835, #197, .T. ) ;
#964 = ORIENTED_EDGE ( 'NONE', *, *, #1034, .T. ) ;
#965 = FACE_OUTER_BOUND ( 'NONE', #991, .T. ) ;
#966 = CARTESIAN_POINT ( 'NONE',  ( -0.1789999999999996594, -0.3100370945548292512, 0.000000000000000000 ) ) ;
#967 = ORIENTED_EDGE ( 'NONE', *, *, #339, .T. ) ;
#968 = COORDINATED_UNIVERSAL_TIME_OFFSET ( 8, 0, .AHEAD. ) ;
#969 = CIRCLE ( 'NONE', #505, 10.00000000000000355 ) ;
#970 = ORIENTED_EDGE ( 'NONE', *, *, #257, .T. ) ;
#971 = DIRECTION ( 'NONE',  ( 0.000000000000000000, 0.000000000000000000, 1.000000000000000000 ) ) ;
#972 = AXIS2_PLACEMENT_3D ( 'NONE', #156, #570, #493 ) ;
#973 = VECTOR ( 'NONE', #289, 1000.000000000000000 ) ;
#974 = FACE_OUTER_BOUND ( 'NONE', #644, .T. ) ;
#975 = ORIENTED_EDGE ( 'NONE', *, *, #353, .F. ) ;
#976 = PERSON_AND_ORGANIZATION_ROLE ( 'design_supplier' ) ;
#977 = ORIENTED_EDGE ( 'NONE', *, *, #891, .F. ) ;
#978 = CARTESIAN_POINT ( 'NONE',  ( -15.24999999999999645, -17.75352077758099867, 0.2500000000000000000 ) ) ;
#979 = EDGE_CURVE ( 'NONE', #588, #341, #373, .T. ) ;
#980 = LINE ( 'NONE', #1054, #37 ) ;
#981 = APPROVAL_DATE_TIME ( #901, #902 ) ;
#982 = ORIENTED_EDGE ( 'NONE', *, *, #238, .T. ) ;
#983 = CARTESIAN_POINT ( 'NONE',  ( -1.801543699009305222, 4.166900791957375283, 0.2500000000000000000 ) ) ;
#984 = ORIENTED_EDGE ( 'NONE', *, *, #920, .F. ) ;
#985 = VERTEX_POINT ( 'NONE', #868 ) ;
#986 = AXIS2_PLACEMENT_3D ( 'NONE', #56, #636, #882 ) ;
#987 = EDGE_CURVE ( 'NONE', #762, #381, #45, .T. ) ;
#988 = FACE_OUTER_BOUND ( 'NONE', #496, .T. ) ;
#989 = VECTOR ( 'NONE', #1019, 1000.000000000000000 ) ;
#990 = DIRECTION ( 'NONE',  ( -1.000000000000000000, 0.000000000000000000, 0.000000000000000000 ) ) ;
#991 = EDGE_LOOP ( 'NONE', ( #821, #195, #956, #508 ) ) ;
#992 = DIRECTION ( 'NONE',  ( -0.3888741784065352092, -0.9212908733774812786, 0.000000000000000000 ) ) ;
#993 = VERTEX_POINT ( 'NONE', #531 ) ;
#994 = LINE ( 'NONE', #154, #646 ) ;
#995 = VERTEX_POINT ( 'NONE', #443 ) ;
#996 = CARTESIAN_POINT ( 'NONE',  ( -0.1789999999999971059, 0.3100370945548306389, 0.2500000000000000000 ) ) ;
#997 = DIRECTION ( 'NONE',  ( 0.3888741784065352092, 0.9212908733774812786, -0.000000000000000000 ) ) ;
#998 = ORIENTED_EDGE ( 'NONE', *, *, #167, .T. ) ;
#999 = CARTESIAN_POINT ( 'NONE',  ( -0.1743935456331129341, 0.3119814654468611725, 0.000000000000000000 ) ) ;
#1000 = EDGE_CURVE ( 'NONE', #66, #995, #705, .T. ) ;
#1001 = ORIENTED_EDGE ( 'NONE', *, *, #26, .T. ) ;
#1002 = MANIFOLD_SOLID_BREP ( '填料-伸長2[2]', #166 ) ;
#1003 = LINE ( 'NONE', #375, #851 ) ;
#1004 = AXIS2_PLACEMENT_3D ( 'NONE', #1032, #309, #533 ) ;
#1005 = VECTOR ( 'NONE', #938, 1000.000000000000000 ) ;
#1006 = VERTEX_POINT ( 'NONE', #122 ) ;
#1007 = LINE ( 'NONE', #272, #608 ) ;
#1008 = AXIS2_PLACEMENT_3D ( 'NONE', #927, #925, #123 ) ;
#1009 = CIRCLE ( 'NONE', #104, 0.004999999999999796274 ) ;
#1010 = ADVANCED_FACE ( 'NONE', ( #540 ), #615, .F. ) ;
#1011 = ORIENTED_EDGE ( 'NONE', *, *, #171, .F. ) ;
#1012 = FACE_OUTER_BOUND ( 'NONE', #343, .T. ) ;
#1013 = FACE_OUTER_BOUND ( 'NONE', #606, .T. ) ;
#1014 = EDGE_LOOP ( 'NONE', ( #177, #434, #748, #917 ) ) ;
#1015 = CARTESIAN_POINT ( 'NONE',  ( 19.04780805675595090, 4.784468472043375442, 0.2500000000000000000 ) ) ;
#1016 = DIRECTION ( 'NONE',  ( 0.000000000000000000, 0.000000000000000000, 1.000000000000000000 ) ) ;
#1017 = ORIENTED_EDGE ( 'NONE', *, *, #599, .T. ) ;
#1018 = CARTESIAN_POINT ( 'NONE',  ( 7.411365034765506898, -8.055642576022739476, 0.2500000000000000000 ) ) ;
#1019 = DIRECTION ( 'NONE',  ( -0.000000000000000000, -0.000000000000000000, -1.000000000000000000 ) ) ;
#1020 = ORIENTED_EDGE ( 'NONE', *, *, #843, .T. ) ;
#1021 = CARTESIAN_POINT ( 'NONE',  ( 6.175092483748565009, -0.8773147407512854601, 0.2500000000000000000 ) ) ;
#1022 = EDGE_CURVE ( 'NONE', #704, #762, #421, .T. ) ;
#1023 = LINE ( 'NONE', #442, #1039 ) ;
#1024 = CIRCLE ( 'NONE', #320, 10.00000000000000178 ) ;
#1025 = APPLICATION_PROTOCOL_DEFINITION ( 'international standard', 'config_control_design', 1994, #667 ) ;
#1026 = DIRECTION ( 'NONE',  ( -0.000000000000000000, -0.000000000000000000, -1.000000000000000000 ) ) ;
#1027 = CARTESIAN_POINT ( 'NONE',  ( 20.50000000000000000, 0.000000000000000000, 0.2500000000000000000 ) ) ;
#1028 = ORIENTED_EDGE ( 'NONE', *, *, #891, .T. ) ;
#1029 = DIRECTION ( 'NONE',  ( -0.000000000000000000, -0.000000000000000000, -1.000000000000000000 ) ) ;
#1030 = ORIENTED_EDGE ( 'NONE', *, *, #368, .F. ) ;
#1031 = DIRECTION ( 'NONE',  ( -0.000000000000000000, -0.000000000000000000, -1.000000000000000000 ) ) ;
#1032 = CARTESIAN_POINT ( 'NONE',  ( -10.68207363202596483, -2.390609108815293649, 0.2500000000000000000 ) ) ;
#1033 = VERTEX_POINT ( 'NONE', #283 ) ;
#1034 = EDGE_CURVE ( 'NONE', #924, #2, #691, .T. ) ;
#1035 = DIRECTION ( 'NONE',  ( -0.000000000000000000, -0.000000000000000000, -1.000000000000000000 ) ) ;
#1036 = DIRECTION ( 'NONE',  ( -1.000000000000000000, 0.000000000000000000, 0.000000000000000000 ) ) ;
#1037 = DIRECTION ( 'NONE',  ( -1.000000000000000000, 0.000000000000000000, 0.000000000000000000 ) ) ;
#1038 = ORIENTED_EDGE ( 'NONE', *, *, #136, .T. ) ;
#1039 = VECTOR ( 'NONE', #35, 1000.000000000000114 ) ;
#1040 = AXIS2_PLACEMENT_3D ( 'NONE', #476, #81, #645 ) ;
#1041 = ADVANCED_FACE ( 'NONE', ( #293 ), #609, .F. ) ;
#1042 = CLOSED_SHELL ( 'NONE', ( #826, #113, #1010, #687, #1041, #296, #155, #931, #395, #514, #465 ) ) ;
#1043 = DIRECTION ( 'NONE',  ( 1.000000000000000000, 0.000000000000000000, 0.000000000000000000 ) ) ;
#1044 = DIRECTION ( 'NONE',  ( -0.000000000000000000, -0.000000000000000000, -1.000000000000000000 ) ) ;
#1045 = EDGE_LOOP ( 'NONE', ( #553, #774, #27, #557 ) ) ;
#1046 = DATE_AND_TIME ( #559, #818 ) ;
#1047 = DIRECTION ( 'NONE',  ( 1.000000000000000000, 0.000000000000000000, 0.000000000000000000 ) ) ;
#1048 = CARTESIAN_POINT ( 'NONE',  ( -5.380432787982690535, -18.88811989958223947, 0.000000000000000000 ) ) ;
#1049 = ORIENTED_EDGE ( 'NONE', *, *, #160, .T. ) ;
#1050 = SECURITY_CLASSIFICATION_LEVEL ( 'unclassified' ) ;
#1051 = EDGE_LOOP ( 'NONE', ( #10, #1062, #1028, #100 ) ) ;
#1052 = CARTESIAN_POINT ( 'NONE',  ( 6.175092483748555239, 0.8773147407512820184, 0.2500000000000000000 ) ) ;
#1053 = FACE_OUTER_BOUND ( 'NONE', #372, .T. ) ;
#1054 = CARTESIAN_POINT ( 'NONE',  ( -0.1829871017703233460, 0.3070199734977474004, 0.000000000000000000 ) ) ;
#1055 = APPROVAL_STATUS ( 'not_yet_approved' ) ;
#1056 = AXIS2_PLACEMENT_3D ( 'NONE', #41, #603, #695 ) ;
#1057 = VERTEX_POINT ( 'NONE', #792 ) ;
#1058 = CARTESIAN_POINT ( 'NONE',  ( -10.25000000000000000, 17.75352077758100222, 0.000000000000000000 ) ) ;
#1059 = CIRCLE ( 'NONE', #88, 10.00000000000000888 ) ;
#1060 = LOCAL_TIME ( 11, 33, 1.000000000000000000, #803 ) ;
#1061 = DIRECTION ( 'NONE',  ( 0.7974203540646026545, -0.6034242114163831383, 0.000000000000000000 ) ) ;
#1062 = ORIENTED_EDGE ( 'NONE', *, *, #930, .T. ) ;
ENDSEC;
END-ISO-10303-21;
