ISO-10303-21;
HEADER;
FILE_DESCRIPTION (( 'STEP AP203' ),
    '1' );
FILE_NAME ('YOKE.step',
    '2026-06-05T03:32:56',
    ( '' ),
    ( '' ),
    'SwSTEP 2.0',
    'SolidWorks 2024',
    '' );
FILE_SCHEMA (( 'CONFIG_CONTROL_DESIGN' ));
ENDSEC;

DATA;
#1 = CARTESIAN_POINT ( 'NONE',  ( 21.52213123017730467, 0.7747607655502354307, 5.500000000000000000 ) ) ;
#2 = CALENDAR_DATE ( 2026, 5, 6 ) ;
#3 = FACE_BOUND ( 'NONE', #692, .T. ) ;
#4 = CARTESIAN_POINT ( 'NONE',  ( 11.52213123017730645, 6.028281543131323694, 5.500000000000000000 ) ) ;
#5 = EDGE_CURVE ( 'NONE', #141, #1078, #802, .T. ) ;
#6 = EDGE_LOOP ( 'NONE', ( #612, #516, #226, #790 ) ) ;
#7 = CARTESIAN_POINT ( 'NONE',  ( 16.52213123017730467, 0.000000000000000000, 5.500000000000000000 ) ) ;
#8 = CARTESIAN_POINT ( 'NONE',  ( 11.52213123017730645, 11.02828154313132458, 0.000000000000000000 ) ) ;
#9 = CARTESIAN_POINT ( 'NONE',  ( 11.52213123017730645, 11.02828154313132458, 5.500000000000000000 ) ) ;
#10 = ORIENTED_EDGE ( 'NONE', *, *, #541, .F. ) ;
#11 = CARTESIAN_POINT ( 'NONE',  ( 0.000000000000000000, -9.478760012030850390, 5.500000000000000000 ) ) ;
#12 = FACE_OUTER_BOUND ( 'NONE', #231, .T. ) ;
#13 = AXIS2_PLACEMENT_3D ( 'NONE', #968, #563, #51 ) ;
#14 = VECTOR ( 'NONE', #179, 1000.000000000000000 ) ;
#15 = ORIENTED_EDGE ( 'NONE', *, *, #749, .F. ) ;
#16 = CARTESIAN_POINT ( 'NONE',  ( -28.87786876982270812, 0.000000000000000000, -4.500000000000000888 ) ) ;
#17 = DIRECTION ( 'NONE',  ( 1.000000000000000000, 0.000000000000000000, 0.000000000000000000 ) ) ;
#18 = VERTEX_POINT ( 'NONE', #552 ) ;
#19 = EDGE_CURVE ( 'NONE', #69, #841, #748, .T. ) ;
#20 = EDGE_LOOP ( 'NONE', ( #772, #598, #456, #817 ) ) ;
#21 = CARTESIAN_POINT ( 'NONE',  ( 21.52213123017730467, 0.7747607655502354307, 5.500000000000000000 ) ) ;
#22 = CARTESIAN_POINT ( 'NONE',  ( 25.92213123017732102, -21.12523923444974727, 0.000000000000000000 ) ) ;
#23 = EDGE_LOOP ( 'NONE', ( #935, #431 ) ) ;
#24 = EDGE_CURVE ( 'NONE', #458, #678, #977, .T. ) ;
#25 = LINE ( 'NONE', #442, #415 ) ;
#26 = ORIENTED_EDGE ( 'NONE', *, *, #1040, .T. ) ;
#27 = CARTESIAN_POINT ( 'NONE',  ( -14.47786876982269710, -4.478760012030853055, 5.500000000000000000 ) ) ;
#28 = LINE ( 'NONE', #615, #674 ) ;
#29 = ORIENTED_EDGE ( 'NONE', *, *, #171, .F. ) ;
#30 = CIRCLE ( 'NONE', #301, 4.999999999999997335 ) ;
#31 = DIRECTION ( 'NONE',  ( -0.000000000000000000, -0.000000000000000000, 1.000000000000000000 ) ) ;
#32 = AXIS2_PLACEMENT_3D ( 'NONE', #7, #337, #312 ) ;
#33 = ORIENTED_EDGE ( 'NONE', *, *, #649, .F. ) ;
#34 = DIRECTION ( 'NONE',  ( -0.000000000000000000, 0.000000000000000000, 1.000000000000000000 ) ) ;
#35 = ORIENTED_EDGE ( 'NONE', *, *, #1074, .F. ) ;
#36 = CARTESIAN_POINT ( 'NONE',  ( -14.47786876982269710, 6.028281543131323694, 0.000000000000000000 ) ) ;
#37 = ORIENTED_EDGE ( 'NONE', *, *, #649, .T. ) ;
#38 = EDGE_CURVE ( 'NONE', #242, #1067, #1066, .T. ) ;
#39 = CARTESIAN_POINT ( 'NONE',  ( 16.52213123017730467, -4.478760012030853055, 5.500000000000000000 ) ) ;
#40 = EDGE_LOOP ( 'NONE', ( #193, #1028, #978, #707 ) ) ;
#41 = VERTEX_POINT ( 'NONE', #987 ) ;
#42 = CYLINDRICAL_SURFACE ( 'NONE', #1041, 2.500000000000000444 ) ;
#43 = DIRECTION ( 'NONE',  ( -0.000000000000000000, 0.000000000000000000, 1.000000000000000000 ) ) ;
#44 = EDGE_LOOP ( 'NONE', ( #49, #280, #374, #182 ) ) ;
#45 = AXIS2_PLACEMENT_3D ( 'NONE', #663, #397, #735 ) ;
#46 = LINE ( 'NONE', #461, #694 ) ;
#47 = CARTESIAN_POINT ( 'NONE',  ( 19.02213123017730467, 0.7747607655502354307, 0.000000000000000000 ) ) ;
#48 = ADVANCED_FACE ( 'NONE', ( #140 ), #470, .T. ) ;
#49 = ORIENTED_EDGE ( 'NONE', *, *, #270, .T. ) ;
#50 = DIRECTION ( 'NONE',  ( 0.000000000000000000, -1.000000000000000000, 0.000000000000000000 ) ) ;
#51 = DIRECTION ( 'NONE',  ( 1.000000000000000000, 0.000000000000000000, 0.000000000000000000 ) ) ;
#52 = EDGE_CURVE ( 'NONE', #351, #385, #1094, .T. ) ;
#53 = EDGE_LOOP ( 'NONE', ( #123, #760, #685, #282 ) ) ;
#54 = CARTESIAN_POINT ( 'NONE',  ( -9.477868769822695327, 6.028281543131323694, 0.000000000000000000 ) ) ;
#55 = ORIENTED_EDGE ( 'NONE', *, *, #471, .T. ) ;
#56 = ORIENTED_EDGE ( 'NONE', *, *, #571, .T. ) ;
#57 = AXIS2_PLACEMENT_3D ( 'NONE', #720, #885, #210 ) ;
#58 = CARTESIAN_POINT ( 'NONE',  ( 11.27213123017726204, -16.97876001203082907, 5.500000000000000000 ) ) ;
#59 = AXIS2_PLACEMENT_3D ( 'NONE', #1065, #386, #800 ) ;
#60 = SHAPE_DEFINITION_REPRESENTATION ( #144, #525 ) ;
#61 = CARTESIAN_POINT ( 'NONE',  ( -9.227868769822784145, -16.97876001203071183, 0.000000000000000000 ) ) ;
#62 = ORIENTED_EDGE ( 'NONE', *, *, #345, .F. ) ;
#63 = PRODUCT_DEFINITION ( 'UNKNOWN', '', #979, #858 ) ;
#64 = DIRECTION ( 'NONE',  ( 1.000000000000000000, 0.000000000000000000, -0.000000000000000000 ) ) ;
#65 = EDGE_CURVE ( 'NONE', #804, #1046, #691, .T. ) ;
#66 = SECURITY_CLASSIFICATION_LEVEL ( 'unclassified' ) ;
#67 = DIRECTION ( 'NONE',  ( 1.000000000000000000, 0.000000000000000000, 0.000000000000000000 ) ) ;
#68 = FACE_OUTER_BOUND ( 'NONE', #40, .T. ) ;
#69 = VERTEX_POINT ( 'NONE', #47 ) ;
#70 = CYLINDRICAL_SURFACE ( 'NONE', #1076, 2.500000000000000444 ) ;
#71 = DIRECTION ( 'NONE',  ( -0.000000000000000000, 0.000000000000000000, 1.000000000000000000 ) ) ;
#72 = EDGE_CURVE ( 'NONE', #346, #317, #946, .T. ) ;
#73 = DIRECTION ( 'NONE',  ( 0.000000000000000000, -1.000000000000000000, 0.000000000000000000 ) ) ;
#74 = ORIENTED_EDGE ( 'NONE', *, *, #489, .T. ) ;
#75 = AXIS2_PLACEMENT_3D ( 'NONE', #275, #194, #881 ) ;
#76 = DIRECTION ( 'NONE',  ( -0.000000000000000000, -0.000000000000000000, -1.000000000000000000 ) ) ;
#77 = PERSON ( 'UNSPECIFIED', 'UNSPECIFIED', 'UNSPECIFIED', ('UNSPECIFIED'), ('UNSPECIFIED'), ('UNSPECIFIED') ) ;
#78 = VECTOR ( 'NONE', #730, 1000.000000000000000 ) ;
#79 = DATE_AND_TIME ( #319, #981 ) ;
#80 = DIRECTION ( 'NONE',  ( -0.000000000000000000, 0.000000000000000000, 1.000000000000000000 ) ) ;
#81 = CIRCLE ( 'NONE', #889, 2.500000000000000444 ) ;
#82 = AXIS2_PLACEMENT_3D ( 'NONE', #627, #547, #126 ) ;
#83 = EDGE_CURVE ( 'NONE', #538, #640, #554, .T. ) ;
#84 = EDGE_CURVE ( 'NONE', #341, #1050, #482, .T. ) ;
#85 = FACE_OUTER_BOUND ( 'NONE', #608, .T. ) ;
#86 = DIRECTION ( 'NONE',  ( -1.000000000000000000, 0.000000000000000000, 0.000000000000000000 ) ) ;
#87 = CALENDAR_DATE ( 2026, 5, 6 ) ;
#88 = LINE ( 'NONE', #843, #132 ) ;
#89 = CARTESIAN_POINT ( 'NONE',  ( 11.27213123017726204, -16.97876001203082907, 5.500000000000000000 ) ) ;
#90 = ADVANCED_FACE ( 'NONE', ( #294 ), #145, .T. ) ;
#91 = ORIENTED_EDGE ( 'NONE', *, *, #551, .T. ) ;
#92 = CARTESIAN_POINT ( 'NONE',  ( 0.000000000000000000, -9.478760012030850390, 5.500000000000000000 ) ) ;
#93 = CARTESIAN_POINT ( 'NONE',  ( 0.000000000000000000, 0.000000000000000000, 5.500000000000000000 ) ) ;
#94 = CYLINDRICAL_SURFACE ( 'NONE', #289, 5.000000000000000888 ) ;
#95 = ORIENTED_EDGE ( 'NONE', *, *, #460, .T. ) ;
#96 = PLANE ( 'NONE',  #871 ) ;
#97 = CARTESIAN_POINT ( 'NONE',  ( 25.92213123017732102, 27.67476076555023567, 0.000000000000000000 ) ) ;
#98 = AXIS2_PLACEMENT_3D ( 'NONE', #263, #957, #613 ) ;
#99 = CIRCLE ( 'NONE', #833, 2.499999999999998668 ) ;
#100 = ORIENTED_EDGE ( 'NONE', *, *, #345, .T. ) ;
#101 = DIRECTION ( 'NONE',  ( -1.000000000000000000, 0.000000000000000000, 0.000000000000000000 ) ) ;
#102 = EDGE_LOOP ( 'NONE', ( #426, #476, #354, #948 ) ) ;
#103 = DIRECTION ( 'NONE',  ( 1.000000000000000000, 0.000000000000000000, 0.000000000000000000 ) ) ;
#104 = DIRECTION ( 'NONE',  ( 1.000000000000000000, 0.000000000000000000, 0.000000000000000000 ) ) ;
#105 = ADVANCED_FACE ( 'NONE', ( #387 ), #725, .F. ) ;
#106 = ORIENTED_EDGE ( 'NONE', *, *, #262, .F. ) ;
#107 = CARTESIAN_POINT ( 'NONE',  ( -9.227868769822784145, -16.97876001203071183, 5.500000000000000000 ) ) ;
#108 = ORIENTED_EDGE ( 'NONE', *, *, #1020, .F. ) ;
#109 = DIRECTION ( 'NONE',  ( 1.000000000000000000, 0.000000000000000000, 0.000000000000000000 ) ) ;
#110 = CARTESIAN_POINT ( 'NONE',  ( -16.97786876982269533, 0.7747607655502357638, 5.500000000000000000 ) ) ;
#111 = ORIENTED_EDGE ( 'NONE', *, *, #65, .T. ) ;
#112 = CYLINDRICAL_SURFACE ( 'NONE', #98, 2.499999999999998668 ) ;
#113 = ORIENTED_EDGE ( 'NONE', *, *, #856, .F. ) ;
#114 = CYLINDRICAL_SURFACE ( 'NONE', #256, 2.499999999999998668 ) ;
#115 = ORIENTED_EDGE ( 'NONE', *, *, #736, .T. ) ;
#116 = CC_DESIGN_PERSON_AND_ORGANIZATION_ASSIGNMENT ( #642, #754, ( #63 ) ) ;
#117 = VECTOR ( 'NONE', #151, 1000.000000000000000 ) ;
#118 = CARTESIAN_POINT ( 'NONE',  ( -9.477868769822695327, -9.478760012030850390, 5.500000000000000000 ) ) ;
#119 = CIRCLE ( 'NONE', #732, 5.000000000000004441 ) ;
#120 = EDGE_CURVE ( 'NONE', #153, #1056, #379, .T. ) ;
#121 = VERTEX_POINT ( 'NONE', #377 ) ;
#122 = LINE ( 'NONE', #520, #731 ) ;
#123 = ORIENTED_EDGE ( 'NONE', *, *, #389, .T. ) ;
#124 = EDGE_CURVE ( 'NONE', #546, #385, #716, .T. ) ;
#125 = VERTEX_POINT ( 'NONE', #972 ) ;
#126 = DIRECTION ( 'NONE',  ( 1.000000000000000000, 0.000000000000000000, 0.000000000000000000 ) ) ;
#127 = DIRECTION ( 'NONE',  ( -0.000000000000000000, 0.000000000000000000, 1.000000000000000000 ) ) ;
#128 = ORIENTED_EDGE ( 'NONE', *, *, #803, .F. ) ;
#129 = DIRECTION ( 'NONE',  ( -0.000000000000000000, 0.000000000000000000, 1.000000000000000000 ) ) ;
#130 = DIRECTION ( 'NONE',  ( 0.000000000000000000, 1.000000000000000000, 0.000000000000000000 ) ) ;
#131 =( GEOMETRIC_REPRESENTATION_CONTEXT ( 3 ) GLOBAL_UNCERTAINTY_ASSIGNED_CONTEXT ( ( #973 ) ) GLOBAL_UNIT_ASSIGNED_CONTEXT ( ( #703, #1051, #599 ) ) REPRESENTATION_CONTEXT ( 'NONE', 'WORKASPACE' ) );
#132 = VECTOR ( 'NONE', #492, 1000.000000000000000 ) ;
#133 = ORIENTED_EDGE ( 'NONE', *, *, #19, .T. ) ;
#134 = VECTOR ( 'NONE', #1025, 1000.000000000000000 ) ;
#135 = CARTESIAN_POINT ( 'NONE',  ( 8.772131230177262040, -16.97876001203082907, 5.500000000000000000 ) ) ;
#136 = ORIENTED_EDGE ( 'NONE', *, *, #504, .T. ) ;
#137 = EDGE_CURVE ( 'NONE', #41, #351, #175, .T. ) ;
#138 = EDGE_LOOP ( 'NONE', ( #595, #533 ) ) ;
#139 = DIRECTION ( 'NONE',  ( 0.000000000000000000, -1.000000000000000000, 0.000000000000000000 ) ) ;
#140 = FACE_OUTER_BOUND ( 'NONE', #6, .T. ) ;
#141 = VERTEX_POINT ( 'NONE', #250 ) ;
#142 = DIRECTION ( 'NONE',  ( -0.000000000000000000, -0.000000000000000000, 1.000000000000000000 ) ) ;
#143 = COORDINATED_UNIVERSAL_TIME_OFFSET ( 8, 0, .AHEAD. ) ;
#144 = PRODUCT_DEFINITION_SHAPE ( 'NONE', 'NONE',  #63 ) ;
#145 = PLANE ( 'NONE',  #57 ) ;
#146 = EDGE_LOOP ( 'NONE', ( #628, #484 ) ) ;
#147 = EDGE_CURVE ( 'NONE', #189, #330, #88, .T. ) ;
#148 = VECTOR ( 'NONE', #300, 1000.000000000000000 ) ;
#149 = LINE ( 'NONE', #243, #555 ) ;
#150 = CIRCLE ( 'NONE', #82, 2.499999999999998668 ) ;
#151 = DIRECTION ( 'NONE',  ( -0.000000000000000000, -0.000000000000000000, -1.000000000000000000 ) ) ;
#152 = CARTESIAN_POINT ( 'NONE',  ( -9.477868769822695327, -4.478760012030853055, 5.500000000000000000 ) ) ;
#153 = VERTEX_POINT ( 'NONE', #824 ) ;
#154 = CARTESIAN_POINT ( 'NONE',  ( -14.47786876982269710, 0.000000000000000000, 5.500000000000000000 ) ) ;
#155 = EDGE_CURVE ( 'NONE', #1056, #153, #81, .T. ) ;
#156 = DIRECTION ( 'NONE',  ( 1.000000000000000000, 0.000000000000000000, 0.000000000000000000 ) ) ;
#157 = CARTESIAN_POINT ( 'NONE',  ( 24.02213123017730467, 0.7747607655502357638, 5.500000000000000000 ) ) ;
#158 = ORIENTED_EDGE ( 'NONE', *, *, #527, .T. ) ;
#159 = FACE_OUTER_BOUND ( 'NONE', #575, .T. ) ;
#160 = APPROVAL_DATE_TIME ( #562, #167 ) ;
#161 = LINE ( 'NONE', #582, #451 ) ;
#162 = EDGE_CURVE ( 'NONE', #1067, #678, #765, .T. ) ;
#163 = DIRECTION ( 'NONE',  ( -0.000000000000000000, -0.000000000000000000, -1.000000000000000000 ) ) ;
#164 = VECTOR ( 'NONE', #680, 1000.000000000000000 ) ;
#165 = FACE_OUTER_BOUND ( 'NONE', #1064, .T. ) ;
#166 = AXIS2_PLACEMENT_3D ( 'NONE', #544, #130, #1070 ) ;
#167 = APPROVAL ( #1008, 'UNSPECIFIED' ) ;
#168 = FACE_BOUND ( 'NONE', #942, .T. ) ;
#169 = VECTOR ( 'NONE', #217, 1000.000000000000000 ) ;
#170 = AXIS2_PLACEMENT_3D ( 'NONE', #11, #342, #277 ) ;
#171 = EDGE_CURVE ( 'NONE', #267, #822, #290, .T. ) ;
#172 = LINE ( 'NONE', #9, #1072 ) ;
#173 = ORIENTED_EDGE ( 'NONE', *, *, #38, .T. ) ;
#174 = CARTESIAN_POINT ( 'NONE',  ( -9.477868769822695327, 6.028281543131323694, 5.500000000000000000 ) ) ;
#175 = LINE ( 'NONE', #486, #604 ) ;
#176 = DIRECTION ( 'NONE',  ( 1.000000000000000000, 0.000000000000000000, 0.000000000000000000 ) ) ;
#177 = EDGE_LOOP ( 'NONE', ( #214, #1071, #1043, #869 ) ) ;
#178 = DIRECTION ( 'NONE',  ( 1.000000000000000000, 0.000000000000000000, 0.000000000000000000 ) ) ;
#179 = DIRECTION ( 'NONE',  ( -0.000000000000000000, -0.000000000000000000, -1.000000000000000000 ) ) ;
#180 = ORIENTED_EDGE ( 'NONE', *, *, #1040, .F. ) ;
#181 = EDGE_CURVE ( 'NONE', #804, #876, #245, .T. ) ;
#182 = ORIENTED_EDGE ( 'NONE', *, *, #933, .F. ) ;
#183 = DIRECTION ( 'NONE',  ( 1.000000000000000000, 0.000000000000000000, 0.000000000000000000 ) ) ;
#184 = CARTESIAN_POINT ( 'NONE',  ( -11.72786876982278415, -16.97876001203071183, 0.000000000000000000 ) ) ;
#185 = AXIS2_PLACEMENT_3D ( 'NONE', #514, #366, #1027 ) ;
#186 = ORIENTED_EDGE ( 'NONE', *, *, #864, .F. ) ;
#187 = AXIS2_PLACEMENT_3D ( 'NONE', #154, #64, #248 ) ;
#188 = APPLICATION_PROTOCOL_DEFINITION ( 'international standard', 'config_control_design', 1994, #1087 ) ;
#189 = VERTEX_POINT ( 'NONE', #905 ) ;
#190 = DIRECTION ( 'NONE',  ( -0.000000000000000000, -0.000000000000000000, 1.000000000000000000 ) ) ;
#191 = EDGE_CURVE ( 'NONE', #857, #479, #661, .T. ) ;
#192 = CARTESIAN_POINT ( 'NONE',  ( 30.92213123017731391, 22.67476076555021436, 5.500000000000000000 ) ) ;
#193 = ORIENTED_EDGE ( 'NONE', *, *, #230, .F. ) ;
#194 = DIRECTION ( 'NONE',  ( 0.000000000000000000, 0.000000000000000000, 1.000000000000000000 ) ) ;
#195 = ORIENTED_EDGE ( 'NONE', *, *, #961, .F. ) ;
#196 = CARTESIAN_POINT ( 'NONE',  ( 24.02213123017730467, 0.7747607655502357638, 0.000000000000000000 ) ) ;
#197 = DIRECTION ( 'NONE',  ( -0.000000000000000000, -0.000000000000000000, -1.000000000000000000 ) ) ;
#198 = ORIENTED_EDGE ( 'NONE', *, *, #441, .T. ) ;
#199 = DIRECTION ( 'NONE',  ( -0.000000000000000000, 0.000000000000000000, 1.000000000000000000 ) ) ;
#200 = ORIENTED_EDGE ( 'NONE', *, *, #958, .T. ) ;
#201 = LINE ( 'NONE', #793, #223 ) ;
#202 = ORIENTED_EDGE ( 'NONE', *, *, #425, .T. ) ;
#203 = VECTOR ( 'NONE', #908, 1000.000000000000000 ) ;
#204 = AXIS2_PLACEMENT_3D ( 'NONE', #229, #43, #632 ) ;
#205 = EDGE_CURVE ( 'NONE', #929, #215, #99, .T. ) ;
#206 = CARTESIAN_POINT ( 'NONE',  ( -16.97786876982269533, 0.7747607655502357638, 0.000000000000000000 ) ) ;
#207 = CIRCLE ( 'NONE', #852, 5.000000000000018652 ) ;
#208 = EDGE_LOOP ( 'NONE', ( #440, #401 ) ) ;
#209 = LINE ( 'NONE', #383, #751 ) ;
#210 = DIRECTION ( 'NONE',  ( -1.000000000000000000, 1.160350151155054756E-16, 0.000000000000000000 ) ) ;
#211 = ORIENTED_EDGE ( 'NONE', *, *, #5, .F. ) ;
#212 = EDGE_CURVE ( 'NONE', #929, #841, #996, .T. ) ;
#213 = DIRECTION ( 'NONE',  ( 1.000000000000000000, 0.000000000000000000, 0.000000000000000000 ) ) ;
#214 = ORIENTED_EDGE ( 'NONE', *, *, #583, .T. ) ;
#215 = VERTEX_POINT ( 'NONE', #328 ) ;
#216 = EDGE_CURVE ( 'NONE', #857, #822, #758, .T. ) ;
#217 = DIRECTION ( 'NONE',  ( -0.000000000000000000, -0.000000000000000000, 1.000000000000000000 ) ) ;
#218 = ORIENTED_EDGE ( 'NONE', *, *, #38, .F. ) ;
#219 = ORGANIZATION ( 'UNSPECIFIED', 'UNSPECIFIED', '' ) ;
#220 = AXIS2_PLACEMENT_3D ( 'NONE', #308, #643, #797 ) ;
#221 = AXIS2_PLACEMENT_3D ( 'NONE', #54, #888, #227 ) ;
#222 = ORIENTED_EDGE ( 'NONE', *, *, #910, .T. ) ;
#223 = VECTOR ( 'NONE', #450, 1000.000000000000000 ) ;
#224 = DIRECTION ( 'NONE',  ( -1.000000000000000000, 2.320700302310109512E-16, 0.000000000000000000 ) ) ;
#225 = CARTESIAN_POINT ( 'NONE',  ( 30.92213123017732812, -21.12523923444975438, -4.500000000000000888 ) ) ;
#226 = ORIENTED_EDGE ( 'NONE', *, *, #270, .F. ) ;
#227 = DIRECTION ( 'NONE',  ( 1.000000000000000000, 0.000000000000000000, 0.000000000000000000 ) ) ;
#228 = PERSON_AND_ORGANIZATION ( #77, #219 ) ;
#229 = CARTESIAN_POINT ( 'NONE',  ( -19.47786876982269533, 0.7747607655502354307, 5.500000000000000000 ) ) ;
#230 = EDGE_CURVE ( 'NONE', #435, #794, #30, .T. ) ;
#231 = EDGE_LOOP ( 'NONE', ( #586, #198, #633, #679, #726, #100, #959, #186 ) ) ;
#232 = DIRECTION ( 'NONE',  ( -1.000000000000000000, 0.000000000000000000, 0.000000000000000000 ) ) ;
#233 = CARTESIAN_POINT ( 'NONE',  ( 24.02213123017730467, 0.7747607655502357638, 5.500000000000000000 ) ) ;
#234 = CARTESIAN_POINT ( 'NONE',  ( 11.52213123017730645, -9.478760012030850390, 5.500000000000000000 ) ) ;
#235 = ORIENTED_EDGE ( 'NONE', *, *, #65, .F. ) ;
#236 = VECTOR ( 'NONE', #197, 1000.000000000000000 ) ;
#237 = CYLINDRICAL_SURFACE ( 'NONE', #274, 2.500000000000000444 ) ;
#238 = AXIS2_PLACEMENT_3D ( 'NONE', #348, #445, #681 ) ;
#239 = DATE_AND_TIME ( #1002, #481 ) ;
#240 = DIRECTION ( 'NONE',  ( 1.000000000000000000, 0.000000000000000000, 0.000000000000000000 ) ) ;
#241 = CYLINDRICAL_SURFACE ( 'NONE', #887, 5.000000000000004441 ) ;
#242 = VERTEX_POINT ( 'NONE', #648 ) ;
#243 = CARTESIAN_POINT ( 'NONE',  ( -11.72786876982253368, 18.52828154313132458, 5.500000000000000000 ) ) ;
#244 = PERSON_AND_ORGANIZATION_ROLE ( 'creator' ) ;
#245 = LINE ( 'NONE', #566, #568 ) ;
#246 = FACE_OUTER_BOUND ( 'NONE', #302, .T. ) ;
#247 = CC_DESIGN_DATE_AND_TIME_ASSIGNMENT ( #79, #478, ( #729 ) ) ;
#248 = DIRECTION ( 'NONE',  ( -0.000000000000000000, 0.000000000000000000, -1.000000000000000000 ) ) ;
#249 = COORDINATED_UNIVERSAL_TIME_OFFSET ( 8, 0, .AHEAD. ) ;
#250 = CARTESIAN_POINT ( 'NONE',  ( -14.47786876982269710, 6.028281543131323694, 5.500000000000000000 ) ) ;
#251 = CARTESIAN_POINT ( 'NONE',  ( -9.477868769822695327, -9.478760012030850390, 0.000000000000000000 ) ) ;
#252 = VECTOR ( 'NONE', #339, 1000.000000000000000 ) ;
#253 = VERTEX_POINT ( 'NONE', #920 ) ;
#254 = CYLINDRICAL_SURFACE ( 'NONE', #303, 2.500000000000000444 ) ;
#255 = DIRECTION ( 'NONE',  ( 1.000000000000000000, 0.000000000000000000, 0.000000000000000000 ) ) ;
#256 = AXIS2_PLACEMENT_3D ( 'NONE', #937, #512, #343 ) ;
#257 = CARTESIAN_POINT ( 'NONE',  ( -28.87786876982270812, 22.67476076555021436, 5.500000000000000000 ) ) ;
#258 = ORIENTED_EDGE ( 'NONE', *, *, #314, .T. ) ;
#259 = DIRECTION ( 'NONE',  ( -1.000000000000000000, 0.000000000000000000, -0.000000000000000000 ) ) ;
#260 = DIRECTION ( 'NONE',  ( -0.000000000000000000, -0.000000000000000000, -1.000000000000000000 ) ) ;
#261 = ORIENTED_EDGE ( 'NONE', *, *, #441, .F. ) ;
#262 = EDGE_CURVE ( 'NONE', #317, #346, #637, .T. ) ;
#263 = CARTESIAN_POINT ( 'NONE',  ( -19.47786876982269533, 0.7747607655502354307, 5.500000000000000000 ) ) ;
#264 = ORIENTED_EDGE ( 'NONE', *, *, #191, .F. ) ;
#265 = FACE_OUTER_BOUND ( 'NONE', #893, .T. ) ;
#266 = CARTESIAN_POINT ( 'NONE',  ( -23.87786876982270101, -26.12523923444975438, 5.500000000000000000 ) ) ;
#267 = VERTEX_POINT ( 'NONE', #8 ) ;
#268 = ORIENTED_EDGE ( 'NONE', *, *, #171, .T. ) ;
#269 = DIRECTION ( 'NONE',  ( -0.000000000000000000, 0.000000000000000000, 1.000000000000000000 ) ) ;
#270 = EDGE_CURVE ( 'NONE', #549, #189, #161, .T. ) ;
#271 = LINE ( 'NONE', #369, #134 ) ;
#272 = LOCAL_TIME ( 11, 32, 56.00000000000000000, #327 ) ;
#273 = ORIENTED_EDGE ( 'NONE', *, *, #618, .T. ) ;
#274 = AXIS2_PLACEMENT_3D ( 'NONE', #58, #417, #1090 ) ;
#275 = CARTESIAN_POINT ( 'NONE',  ( 0.000000000000000000, 0.000000000000000000, 0.000000000000000000 ) ) ;
#276 = ORIENTED_EDGE ( 'NONE', *, *, #984, .T. ) ;
#277 = DIRECTION ( 'NONE',  ( 0.000000000000000000, -0.000000000000000000, 1.000000000000000000 ) ) ;
#278 = EDGE_CURVE ( 'NONE', #18, #807, #906, .T. ) ;
#279 = CARTESIAN_POINT ( 'NONE',  ( -23.87786876982270101, -21.12523923444975438, 0.000000000000000000 ) ) ;
#280 = ORIENTED_EDGE ( 'NONE', *, *, #147, .T. ) ;
#281 = CARTESIAN_POINT ( 'NONE',  ( -28.87786876982270812, -21.12523923444974727, 5.500000000000000000 ) ) ;
#282 = ORIENTED_EDGE ( 'NONE', *, *, #811, .T. ) ;
#283 = CARTESIAN_POINT ( 'NONE',  ( -28.87786876982270812, 0.000000000000000000, 5.500000000000000000 ) ) ;
#284 = VERTEX_POINT ( 'NONE', #924 ) ;
#285 = CYLINDRICAL_SURFACE ( 'NONE', #621, 2.500000000000000444 ) ;
#286 = ORIENTED_EDGE ( 'NONE', *, *, #425, .F. ) ;
#287 = CARTESIAN_POINT ( 'NONE',  ( -9.227868769822533679, 18.52828154313132458, 5.500000000000000000 ) ) ;
#288 = ORIENTED_EDGE ( 'NONE', *, *, #992, .T. ) ;
#289 = AXIS2_PLACEMENT_3D ( 'NONE', #698, #782, #101 ) ;
#290 = CIRCLE ( 'NONE', #872, 4.999999999999997335 ) ;
#291 = VECTOR ( 'NONE', #142, 1000.000000000000000 ) ;
#292 = ORIENTED_EDGE ( 'NONE', *, *, #378, .F. ) ;
#293 = CARTESIAN_POINT ( 'NONE',  ( 11.27213123017726204, -16.97876001203082907, 0.000000000000000000 ) ) ;
#294 = FACE_OUTER_BOUND ( 'NONE', #44, .T. ) ;
#295 = VERTEX_POINT ( 'NONE', #931 ) ;
#296 = CARTESIAN_POINT ( 'NONE',  ( -9.227868769822784145, -16.97876001203071183, 5.500000000000000000 ) ) ;
#297 = DIRECTION ( 'NONE',  ( 1.000000000000000000, 0.000000000000000000, 0.000000000000000000 ) ) ;
#298 = EDGE_LOOP ( 'NONE', ( #513, #798, #56, #542 ) ) ;
#299 = PLANE ( 'NONE',  #874 ) ;
#300 = DIRECTION ( 'NONE',  ( -0.000000000000000000, -0.000000000000000000, -1.000000000000000000 ) ) ;
#301 = AXIS2_PLACEMENT_3D ( 'NONE', #1009, #71, #654 ) ;
#302 = EDGE_LOOP ( 'NONE', ( #528, #1048, #111, #258 ) ) ;
#303 = AXIS2_PLACEMENT_3D ( 'NONE', #930, #994, #232 ) ;
#304 = PRODUCT_RELATED_PRODUCT_CATEGORY ( 'detail', '', ( #310 ) ) ;
#305 = DIRECTION ( 'NONE',  ( 1.000000000000000000, 0.000000000000000000, 0.000000000000000000 ) ) ;
#306 = ADVANCED_FACE ( 'NONE', ( #12, #573, #168, #1018, #497, #755, #3, #508 ), #334, .T. ) ;
#307 = APPROVAL_STATUS ( 'not_yet_approved' ) ;
#308 = CARTESIAN_POINT ( 'NONE',  ( 21.52213123017730467, 0.7747607655502354307, 0.000000000000000000 ) ) ;
#309 = MANIFOLD_SOLID_BREP ( '°£®Æ-¦ùªø1', #362 ) ;
#310 = PRODUCT ( 'YOKE', 'YOKE', '', ( #985 ) ) ;
#311 = ORIENTED_EDGE ( 'NONE', *, *, #460, .F. ) ;
#312 = DIRECTION ( 'NONE',  ( -0.000000000000000000, 0.000000000000000000, -1.000000000000000000 ) ) ;
#313 = DIRECTION ( 'NONE',  ( 1.000000000000000000, 0.000000000000000000, 0.000000000000000000 ) ) ;
#314 = EDGE_CURVE ( 'NONE', #1046, #970, #409, .T. ) ;
#315 = ADVANCED_FACE ( 'NONE', ( #779 ), #1049, .F. ) ;
#316 = DIRECTION ( 'NONE',  ( 1.000000000000000000, 0.000000000000000000, 0.000000000000000000 ) ) ;
#317 = VERTEX_POINT ( 'NONE', #1030 ) ;
#318 = FACE_OUTER_BOUND ( 'NONE', #437, .T. ) ;
#319 = CALENDAR_DATE ( 2026, 5, 6 ) ;
#320 = DIRECTION ( 'NONE',  ( 0.000000000000000000, -0.000000000000000000, -1.000000000000000000 ) ) ;
#321 = EDGE_CURVE ( 'NONE', #472, #590, #122, .T. ) ;
#322 = LINE ( 'NONE', #412, #252 ) ;
#323 = ORIENTED_EDGE ( 'NONE', *, *, #331, .F. ) ;
#324 = AXIS2_PLACEMENT_3D ( 'NONE', #737, #809, #313 ) ;
#325 = DIRECTION ( 'NONE',  ( 1.000000000000000000, 0.000000000000000000, 0.000000000000000000 ) ) ;
#326 = CIRCLE ( 'NONE', #907, 4.999999999999997335 ) ;
#327 = COORDINATED_UNIVERSAL_TIME_OFFSET ( 8, 0, .AHEAD. ) ;
#328 = CARTESIAN_POINT ( 'NONE',  ( 19.02213123017730467, 0.7747607655502354307, 5.500000000000000000 ) ) ;
#329 = CARTESIAN_POINT ( 'NONE',  ( 16.52213123017730467, -4.478760012030853055, 5.500000000000000000 ) ) ;
#330 = VERTEX_POINT ( 'NONE', #868 ) ;
#331 = EDGE_CURVE ( 'NONE', #121, #317, #597, .T. ) ;
#332 = CARTESIAN_POINT ( 'NONE',  ( 25.92213123017731036, 22.67476076555023923, 0.000000000000000000 ) ) ;
#333 = APPLICATION_PROTOCOL_DEFINITION ( 'international standard', 'config_control_design', 1994, #382 ) ;
#334 = PLANE ( 'NONE',  #1059 ) ;
#335 = CARTESIAN_POINT ( 'NONE',  ( -23.87786876982270101, 22.67476076555022146, 0.000000000000000000 ) ) ;
#336 = ORIENTED_EDGE ( 'NONE', *, *, #984, .F. ) ;
#337 = DIRECTION ( 'NONE',  ( 1.000000000000000000, 0.000000000000000000, -0.000000000000000000 ) ) ;
#338 = CARTESIAN_POINT ( 'NONE',  ( 11.27213123017726204, -16.97876001203082907, 0.000000000000000000 ) ) ;
#339 = DIRECTION ( 'NONE',  ( -0.000000000000000000, -0.000000000000000000, -1.000000000000000000 ) ) ;
#340 = CIRCLE ( 'NONE', #480, 4.999999999999997335 ) ;
#341 = VERTEX_POINT ( 'NONE', #353 ) ;
#342 = DIRECTION ( 'NONE',  ( 0.000000000000000000, 1.000000000000000000, 0.000000000000000000 ) ) ;
#343 = DIRECTION ( 'NONE',  ( -1.000000000000000000, 0.000000000000000000, 0.000000000000000000 ) ) ;
#344 = CIRCLE ( 'NONE', #380, 2.500000000000000444 ) ;
#345 = EDGE_CURVE ( 'NONE', #396, #330, #1021, .T. ) ;
#346 = VERTEX_POINT ( 'NONE', #941 ) ;
#347 = DIRECTION ( 'NONE',  ( -0.000000000000000000, -0.000000000000000000, 1.000000000000000000 ) ) ;
#348 = CARTESIAN_POINT ( 'NONE',  ( -9.227868769822784145, -16.97876001203071183, 5.500000000000000000 ) ) ;
#349 = ORIENTED_EDGE ( 'NONE', *, *, #321, .T. ) ;
#350 = DIRECTION ( 'NONE',  ( -1.000000000000000000, 0.000000000000000000, 0.000000000000000000 ) ) ;
#351 = VERTEX_POINT ( 'NONE', #184 ) ;
#352 = CARTESIAN_POINT ( 'NONE',  ( -9.227868769822784145, -16.97876001203071183, 0.000000000000000000 ) ) ;
#353 = CARTESIAN_POINT ( 'NONE',  ( -21.97786876982269177, 0.7747607655502354307, 0.000000000000000000 ) ) ;
#354 = ORIENTED_EDGE ( 'NONE', *, *, #331, .T. ) ;
#355 = EDGE_CURVE ( 'NONE', #640, #341, #271, .T. ) ;
#356 = CARTESIAN_POINT ( 'NONE',  ( -6.062885058931148987E-15, -26.12523923444975793, 0.000000000000000000 ) ) ;
#357 = EDGE_CURVE ( 'NONE', #602, #346, #201, .T. ) ;
#358 = VERTEX_POINT ( 'NONE', #97 ) ;
#359 = FACE_OUTER_BOUND ( 'NONE', #465, .T. ) ;
#360 = AXIS2_PLACEMENT_3D ( 'NONE', #107, #791, #350 ) ;
#361 = CARTESIAN_POINT ( 'NONE',  ( -23.87786876982270101, -21.12523923444975438, 5.500000000000000000 ) ) ;
#362 = CLOSED_SHELL ( 'NONE', ( #625, #1054, #883, #700, #410, #1033, #611, #105, #714, #717, #890, #742, #969, #630, #90, #689, #770, #1042, #647, #519, #722, #1057, #306, #830, #315, #845, #669, #784, #901, #48 ) ) ;
#363 = CIRCLE ( 'NONE', #927, 5.000000000000004441 ) ;
#364 = ORIENTED_EDGE ( 'NONE', *, *, #205, .T. ) ;
#365 = AXIS2_PLACEMENT_3D ( 'NONE', #16, #259, #427 ) ;
#366 = DIRECTION ( 'NONE',  ( -0.000000000000000000, 0.000000000000000000, 1.000000000000000000 ) ) ;
#367 = EDGE_CURVE ( 'NONE', #902, #1052, #862, .T. ) ;
#368 = ORIENTED_EDGE ( 'NONE', *, *, #191, .T. ) ;
#369 = CARTESIAN_POINT ( 'NONE',  ( -21.97786876982269177, 0.7747607655502354307, 5.500000000000000000 ) ) ;
#370 = ORIENTED_EDGE ( 'NONE', *, *, #367, .F. ) ;
#371 = DIRECTION ( 'NONE',  ( 1.000000000000000000, 0.000000000000000000, 0.000000000000000000 ) ) ;
#372 = ORIENTED_EDGE ( 'NONE', *, *, #467, .F. ) ;
#373 = CARTESIAN_POINT ( 'NONE',  ( 16.52213123017730467, 0.000000000000000000, 0.000000000000000000 ) ) ;
#374 = ORIENTED_EDGE ( 'NONE', *, *, #600, .F. ) ;
#375 = ORIENTED_EDGE ( 'NONE', *, *, #974, .T. ) ;
#376 = LINE ( 'NONE', #711, #658 ) ;
#377 = CARTESIAN_POINT ( 'NONE',  ( 8.772131230177386385, 18.52828154313117182, 5.500000000000000000 ) ) ;
#378 = EDGE_CURVE ( 'NONE', #882, #284, #457, .T. ) ;
#379 = CIRCLE ( 'NONE', #518, 2.500000000000000444 ) ;
#380 = AXIS2_PLACEMENT_3D ( 'NONE', #287, #898, #213 ) ;
#381 = EDGE_LOOP ( 'NONE', ( #349, #276, #368, #372, #113, #235, #853, #33 ) ) ;
#382 = APPLICATION_CONTEXT ( 'configuration controlled 3d designs of mechanical parts and assemblies' ) ;
#383 = CARTESIAN_POINT ( 'NONE',  ( -14.47786876982269710, 0.000000000000000000, 5.500000000000000000 ) ) ;
#384 = DIRECTION ( 'NONE',  ( -0.000000000000000000, 0.000000000000000000, 1.000000000000000000 ) ) ;
#385 = VERTEX_POINT ( 'NONE', #605 ) ;
#386 = DIRECTION ( 'NONE',  ( -0.000000000000000000, -0.000000000000000000, -1.000000000000000000 ) ) ;
#387 = FACE_OUTER_BOUND ( 'NONE', #53, .T. ) ;
#388 = ORIENTED_EDGE ( 'NONE', *, *, #992, .F. ) ;
#389 = EDGE_CURVE ( 'NONE', #900, #267, #28, .T. ) ;
#390 = CARTESIAN_POINT ( 'NONE',  ( -9.227868769822533679, 18.52828154313132458, 5.500000000000000000 ) ) ;
#391 = DIRECTION ( 'NONE',  ( -0.000000000000000000, -0.000000000000000000, -1.000000000000000000 ) ) ;
#392 = AXIS2_PLACEMENT_3D ( 'NONE', #335, #574, #584 ) ;
#393 = CC_DESIGN_APPROVAL ( #167, ( #979 ) ) ;
#394 = VECTOR ( 'NONE', #610, 1000.000000000000000 ) ;
#395 = AXIS2_PLACEMENT_3D ( 'NONE', #687, #34, #532 ) ;
#396 = VERTEX_POINT ( 'NONE', #192 ) ;
#397 = DIRECTION ( 'NONE',  ( -0.000000000000000000, 0.000000000000000000, 1.000000000000000000 ) ) ;
#398 = DATE_AND_TIME ( #87, #799 ) ;
#399 = DIRECTION ( 'NONE',  ( -0.000000000000000000, 0.000000000000000000, 1.000000000000000000 ) ) ;
#400 = LINE ( 'NONE', #234, #411 ) ;
#401 = ORIENTED_EDGE ( 'NONE', *, *, #551, .F. ) ;
#402 = CARTESIAN_POINT ( 'NONE',  ( 25.92213123017732102, -21.12523923444974727, -4.500000000000000888 ) ) ;
#403 = DIRECTION ( 'NONE',  ( 1.000000000000000000, -2.081668171172160625E-15, 0.000000000000000000 ) ) ;
#404 = EDGE_CURVE ( 'NONE', #682, #253, #363, .T. ) ;
#405 = CARTESIAN_POINT ( 'NONE',  ( -9.477868769822695327, 11.02828154313132458, 0.000000000000000000 ) ) ;
#406 = ORIENTED_EDGE ( 'NONE', *, *, #539, .F. ) ;
#407 = DIRECTION ( 'NONE',  ( -1.000000000000000000, 0.000000000000000000, 0.000000000000000000 ) ) ;
#408 = CC_DESIGN_PERSON_AND_ORGANIZATION_ASSIGNMENT ( #664, #244, ( #979 ) ) ;
#409 = LINE ( 'NONE', #701, #236 ) ;
#410 = ADVANCED_FACE ( 'NONE', ( #955 ), #114, .F. ) ;
#411 = VECTOR ( 'NONE', #569, 1000.000000000000000 ) ;
#412 = CARTESIAN_POINT ( 'NONE',  ( 13.77213123017726204, -16.97876001203082907, 5.500000000000000000 ) ) ;
#413 = EDGE_LOOP ( 'NONE', ( #636, #614, #406, #510 ) ) ;
#414 = APPROVAL_PERSON_ORGANIZATION ( #1012, #932, #995 ) ;
#415 = VECTOR ( 'NONE', #859, 1000.000000000000000 ) ;
#416 = AXIS2_PLACEMENT_3D ( 'NONE', #839, #320, #403 ) ;
#417 = DIRECTION ( 'NONE',  ( -0.000000000000000000, -0.000000000000000000, -1.000000000000000000 ) ) ;
#418 = CIRCLE ( 'NONE', #221, 5.000000000000000888 ) ;
#419 = CALENDAR_DATE ( 2026, 5, 6 ) ;
#420 = DIRECTION ( 'NONE',  ( 1.000000000000000000, 0.000000000000000000, 0.000000000000000000 ) ) ;
#421 = LINE ( 'NONE', #759, #832 ) ;
#422 = DIRECTION ( 'NONE',  ( -0.000000000000000000, -0.000000000000000000, -1.000000000000000000 ) ) ;
#423 = DIRECTION ( 'NONE',  ( 1.000000000000000000, 0.000000000000000000, 0.000000000000000000 ) ) ;
#424 = DIRECTION ( 'NONE',  ( -1.000000000000000000, 0.000000000000000000, 0.000000000000000000 ) ) ;
#425 = EDGE_CURVE ( 'NONE', #538, #1050, #439, .T. ) ;
#426 = ORIENTED_EDGE ( 'NONE', *, *, #357, .F. ) ;
#427 = DIRECTION ( 'NONE',  ( -0.000000000000000000, 0.000000000000000000, 1.000000000000000000 ) ) ;
#428 = DIRECTION ( 'NONE',  ( 0.000000000000000000, -1.000000000000000000, 0.000000000000000000 ) ) ;
#429 = CARTESIAN_POINT ( 'NONE',  ( 30.92213123017732812, -21.12523923444975438, 5.500000000000000000 ) ) ;
#430 = CIRCLE ( 'NONE', #515, 2.500000000000000444 ) ;
#431 = ORIENTED_EDGE ( 'NONE', *, *, #278, .T. ) ;
#432 = DIRECTION ( 'NONE',  ( 3.168444704980471560E-16, -1.000000000000000000, 0.000000000000000000 ) ) ;
#433 = DIRECTION ( 'NONE',  ( -0.000000000000000000, 0.000000000000000000, 1.000000000000000000 ) ) ;
#434 = CIRCLE ( 'NONE', #983, 2.500000000000000444 ) ;
#435 = VERTEX_POINT ( 'NONE', #848 ) ;
#436 = FACE_OUTER_BOUND ( 'NONE', #795, .T. ) ;
#437 = EDGE_LOOP ( 'NONE', ( #273, #556, #106, #323 ) ) ;
#438 = CARTESIAN_POINT ( 'NONE',  ( 25.92213123017731036, 22.67476076555023923, -4.500000000000000888 ) ) ;
#439 = LINE ( 'NONE', #110, #501 ) ;
#440 = ORIENTED_EDGE ( 'NONE', *, *, #583, .F. ) ;
#441 = EDGE_CURVE ( 'NONE', #1052, #458, #623, .T. ) ;
#442 = CARTESIAN_POINT ( 'NONE',  ( 30.92213123017732102, 9.797506296296660138E-15, 0.000000000000000000 ) ) ;
#443 = ORIENTED_EDGE ( 'NONE', *, *, #918, .T. ) ;
#444 = CARTESIAN_POINT ( 'NONE',  ( 16.52213123017730467, 6.028281543131323694, 5.500000000000000000 ) ) ;
#445 = DIRECTION ( 'NONE',  ( -0.000000000000000000, 0.000000000000000000, 1.000000000000000000 ) ) ;
#446 = ORIENTED_EDGE ( 'NONE', *, *, #856, .T. ) ;
#447 = CYLINDRICAL_SURFACE ( 'NONE', #360, 2.500000000000000444 ) ;
#448 = ORIENTED_EDGE ( 'NONE', *, *, #84, .F. ) ;
#449 = CIRCLE ( 'NONE', #904, 2.499999999999998668 ) ;
#450 = DIRECTION ( 'NONE',  ( -0.000000000000000000, -0.000000000000000000, -1.000000000000000000 ) ) ;
#451 = VECTOR ( 'NONE', #746, 1000.000000000000000 ) ;
#452 = VECTOR ( 'NONE', #550, 1000.000000000000000 ) ;
#453 = ORIENTED_EDGE ( 'NONE', *, *, #600, .T. ) ;
#454 = VECTOR ( 'NONE', #432, 1000.000000000000000 ) ;
#455 = DIRECTION ( 'NONE',  ( 1.000000000000000000, 0.000000000000000000, 0.000000000000000000 ) ) ;
#456 = ORIENTED_EDGE ( 'NONE', *, *, #19, .F. ) ;
#457 = LINE ( 'NONE', #788, #14 ) ;
#458 = VERTEX_POINT ( 'NONE', #266 ) ;
#459 = ORIENTED_EDGE ( 'NONE', *, *, #1020, .T. ) ;
#460 = EDGE_CURVE ( 'NONE', #546, #41, #606, .T. ) ;
#461 = CARTESIAN_POINT ( 'NONE',  ( -28.87786876982270812, 0.000000000000000000, 0.000000000000000000 ) ) ;
#462 = DIRECTION ( 'NONE',  ( 1.000000000000000000, 0.000000000000000000, 0.000000000000000000 ) ) ;
#463 = VERTEX_POINT ( 'NONE', #695 ) ;
#464 = CARTESIAN_POINT ( 'NONE',  ( 11.52213123017730645, 11.02828154313132458, 5.500000000000000000 ) ) ;
#465 = EDGE_LOOP ( 'NONE', ( #744, #453, #62, #108 ) ) ;
#466 = AXIS2_PLACEMENT_3D ( 'NONE', #438, #190, #524 ) ;
#467 = EDGE_CURVE ( 'NONE', #463, #479, #326, .T. ) ;
#468 = VERTEX_POINT ( 'NONE', #774 ) ;
#469 = CARTESIAN_POINT ( 'NONE',  ( -16.97786876982269533, 0.7747607655502357638, 5.500000000000000000 ) ) ;
#470 = CYLINDRICAL_SURFACE ( 'NONE', #815, 5.000000000000011546 ) ;
#471 = EDGE_CURVE ( 'NONE', #242, #295, #207, .T. ) ;
#472 = VERTEX_POINT ( 'NONE', #1069 ) ;
#473 = DIRECTION ( 'NONE',  ( 1.000000000000000000, 0.000000000000000000, 0.000000000000000000 ) ) ;
#474 = DIRECTION ( 'NONE',  ( 1.000000000000000000, 0.000000000000000000, 0.000000000000000000 ) ) ;
#475 = EDGE_CURVE ( 'NONE', #640, #538, #150, .T. ) ;
#476 = ORIENTED_EDGE ( 'NONE', *, *, #825, .T. ) ;
#477 = CARTESIAN_POINT ( 'NONE',  ( 25.92213123017732102, -26.12523923444976504, -4.500000000000000888 ) ) ;
#478 = DATE_TIME_ROLE ( 'classification_date' ) ;
#479 = VERTEX_POINT ( 'NONE', #39 ) ;
#480 = AXIS2_PLACEMENT_3D ( 'NONE', #4, #934, #176 ) ;
#481 = LOCAL_TIME ( 11, 32, 56.00000000000000000, #249 ) ;
#482 = CIRCLE ( 'NONE', #13, 2.499999999999998668 ) ;
#483 = VECTOR ( 'NONE', #875, 1000.000000000000000 ) ;
#484 = ORIENTED_EDGE ( 'NONE', *, *, #205, .F. ) ;
#485 = DIRECTION ( 'NONE',  ( -1.000000000000000000, 0.000000000000000000, 0.000000000000000000 ) ) ;
#486 = CARTESIAN_POINT ( 'NONE',  ( -11.72786876982278415, -16.97876001203071183, 5.500000000000000000 ) ) ;
#487 = DIRECTION ( 'NONE',  ( -1.000000000000000000, 0.000000000000000000, 0.000000000000000000 ) ) ;
#488 = ORIENTED_EDGE ( 'NONE', *, *, #950, .T. ) ;
#489 = EDGE_CURVE ( 'NONE', #822, #794, #989, .T. ) ;
#490 = CARTESIAN_POINT ( 'NONE',  ( -9.227868769822533679, 18.52828154313132458, 5.500000000000000000 ) ) ;
#491 = EDGE_CURVE ( 'NONE', #1056, #807, #1062, .T. ) ;
#492 = DIRECTION ( 'NONE',  ( 1.000000000000000000, -1.160350151155054756E-16, 0.000000000000000000 ) ) ;
#493 = DIRECTION ( 'NONE',  ( -0.000000000000000000, -0.000000000000000000, -1.000000000000000000 ) ) ;
#494 = ORIENTED_EDGE ( 'NONE', *, *, #137, .T. ) ;
#495 = CARTESIAN_POINT ( 'NONE',  ( 11.52213123017730645, 6.028281543131323694, 5.500000000000000000 ) ) ;
#496 = PERSON_AND_ORGANIZATION ( #77, #219 ) ;
#497 = FACE_BOUND ( 'NONE', #138, .T. ) ;
#498 = APPROVAL_PERSON_ORGANIZATION ( #228, #167, #819 ) ;
#499 = FACE_OUTER_BOUND ( 'NONE', #413, .T. ) ;
#500 = VECTOR ( 'NONE', #1085, 1000.000000000000000 ) ;
#501 = VECTOR ( 'NONE', #260, 1000.000000000000000 ) ;
#502 = CARTESIAN_POINT ( 'NONE',  ( 25.92213123017732102, -26.12523923444976504, 5.500000000000000000 ) ) ;
#503 = CARTESIAN_POINT ( 'NONE',  ( 11.27213123017726204, -16.97876001203082907, 5.500000000000000000 ) ) ;
#504 = EDGE_CURVE ( 'NONE', #125, #682, #46, .T. ) ;
#505 = DIRECTION ( 'NONE',  ( -0.000000000000000000, -0.000000000000000000, 1.000000000000000000 ) ) ;
#506 = ORIENTED_EDGE ( 'NONE', *, *, #212, .F. ) ;
#507 = FACE_BOUND ( 'NONE', #23, .T. ) ;
#508 = FACE_BOUND ( 'NONE', #381, .T. ) ;
#509 = CARTESIAN_POINT ( 'NONE',  ( -9.227868769822533679, 18.52828154313132458, 0.000000000000000000 ) ) ;
#510 = ORIENTED_EDGE ( 'NONE', *, *, #491, .F. ) ;
#511 = CARTESIAN_POINT ( 'NONE',  ( 8.772131230177262040, -16.97876001203082907, 0.000000000000000000 ) ) ;
#512 = DIRECTION ( 'NONE',  ( -0.000000000000000000, -0.000000000000000000, -1.000000000000000000 ) ) ;
#513 = ORIENTED_EDGE ( 'NONE', *, *, #950, .F. ) ;
#514 = CARTESIAN_POINT ( 'NONE',  ( 21.52213123017730467, 0.7747607655502354307, 0.000000000000000000 ) ) ;
#515 = AXIS2_PLACEMENT_3D ( 'NONE', #531, #603, #178 ) ;
#516 = ORIENTED_EDGE ( 'NONE', *, *, #864, .T. ) ;
#517 = FACE_BOUND ( 'NONE', #709, .T. ) ;
#518 = AXIS2_PLACEMENT_3D ( 'NONE', #880, #127, #462 ) ;
#519 = ADVANCED_FACE ( 'NONE', ( #808 ), #982, .F. ) ;
#520 = CARTESIAN_POINT ( 'NONE',  ( 0.000000000000000000, 11.02828154313132458, 5.500000000000000000 ) ) ;
#521 = CIRCLE ( 'NONE', #45, 2.500000000000000444 ) ;
#522 = ORIENTED_EDGE ( 'NONE', *, *, #124, .T. ) ;
#523 = ORIENTED_EDGE ( 'NONE', *, *, #811, .F. ) ;
#524 = DIRECTION ( 'NONE',  ( 1.000000000000000000, 0.000000000000000000, 0.000000000000000000 ) ) ;
#525 = ADVANCED_BREP_SHAPE_REPRESENTATION ( 'YOKE', ( #309, #75 ), #131 ) ;
#526 = DIRECTION ( 'NONE',  ( -0.000000000000000000, 0.000000000000000000, 1.000000000000000000 ) ) ;
#527 = EDGE_CURVE ( 'NONE', #141, #804, #209, .T. ) ;
#528 = ORIENTED_EDGE ( 'NONE', *, *, #1086, .F. ) ;
#529 = FACE_OUTER_BOUND ( 'NONE', #849, .T. ) ;
#530 = VERTEX_POINT ( 'NONE', #805 ) ;
#531 = CARTESIAN_POINT ( 'NONE',  ( 11.27213123017738639, 18.52828154313117182, 5.500000000000000000 ) ) ;
#532 = DIRECTION ( 'NONE',  ( 1.000000000000000000, 0.000000000000000000, 0.000000000000000000 ) ) ;
#533 = ORIENTED_EDGE ( 'NONE', *, *, #825, .F. ) ;
#534 = CARTESIAN_POINT ( 'NONE',  ( -9.477868769822695327, -4.478760012030853055, 0.000000000000000000 ) ) ;
#535 = ORIENTED_EDGE ( 'NONE', *, *, #489, .F. ) ;
#536 = CIRCLE ( 'NONE', #1091, 2.500000000000000444 ) ;
#537 = DIRECTION ( 'NONE',  ( 3.168444704980471560E-16, -1.000000000000000000, 0.000000000000000000 ) ) ;
#538 = VERTEX_POINT ( 'NONE', #469 ) ;
#539 = EDGE_CURVE ( 'NONE', #807, #18, #766, .T. ) ;
#540 = CARTESIAN_POINT ( 'NONE',  ( 8.772131230177262040, -16.97876001203082907, 5.500000000000000000 ) ) ;
#541 = EDGE_CURVE ( 'NONE', #900, #1078, #418, .T. ) ;
#542 = ORIENTED_EDGE ( 'NONE', *, *, #24, .F. ) ;
#543 = DIRECTION ( 'NONE',  ( 2.320700302310109512E-16, 1.000000000000000000, -0.000000000000000000 ) ) ;
#544 = CARTESIAN_POINT ( 'NONE',  ( 0.000000000000000000, 11.02828154313132458, 5.500000000000000000 ) ) ;
#545 = EDGE_CURVE ( 'NONE', #970, #435, #376, .T. ) ;
#546 = VERTEX_POINT ( 'NONE', #719 ) ;
#547 = DIRECTION ( 'NONE',  ( -0.000000000000000000, 0.000000000000000000, 1.000000000000000000 ) ) ;
#548 = CARTESIAN_POINT ( 'NONE',  ( -14.47786876982269710, 6.028281543131323694, 5.500000000000000000 ) ) ;
#549 = VERTEX_POINT ( 'NONE', #884 ) ;
#550 = DIRECTION ( 'NONE',  ( 0.000000000000000000, -1.000000000000000000, 0.000000000000000000 ) ) ;
#551 = EDGE_CURVE ( 'NONE', #882, #468, #344, .T. ) ;
#552 = CARTESIAN_POINT ( 'NONE',  ( 13.77213123017726204, -16.97876001203082907, 0.000000000000000000 ) ) ;
#553 = VECTOR ( 'NONE', #428, 1000.000000000000000 ) ;
#554 = CIRCLE ( 'NONE', #204, 2.499999999999998668 ) ;
#555 = VECTOR ( 'NONE', #828, 1000.000000000000000 ) ;
#556 = ORIENTED_EDGE ( 'NONE', *, *, #357, .T. ) ;
#557 = DIRECTION ( 'NONE',  ( 1.000000000000000000, -2.081668171172160625E-15, 0.000000000000000000 ) ) ;
#558 = CARTESIAN_POINT ( 'NONE',  ( -23.87786876982270101, 22.67476076555022146, -4.500000000000000888 ) ) ;
#559 = EDGE_CURVE ( 'NONE', #41, #546, #801, .T. ) ;
#560 = ORIENTED_EDGE ( 'NONE', *, *, #83, .T. ) ;
#561 = DIRECTION ( 'NONE',  ( -0.000000000000000000, 0.000000000000000000, 1.000000000000000000 ) ) ;
#562 = DATE_AND_TIME ( #419, #851 ) ;
#563 = DIRECTION ( 'NONE',  ( -0.000000000000000000, 0.000000000000000000, 1.000000000000000000 ) ) ;
#564 = EDGE_LOOP ( 'NONE', ( #1026, #886, #593, #620 ) ) ;
#565 = LINE ( 'NONE', #903, #454 ) ;
#566 = CARTESIAN_POINT ( 'NONE',  ( -14.47786876982269710, -4.478760012030853055, 5.500000000000000000 ) ) ;
#567 = AXIS2_PLACEMENT_3D ( 'NONE', #1081, #493, #424 ) ;
#568 = VECTOR ( 'NONE', #741, 1000.000000000000000 ) ;
#569 = DIRECTION ( 'NONE',  ( -0.000000000000000000, -0.000000000000000000, -1.000000000000000000 ) ) ;
#570 = EDGE_LOOP ( 'NONE', ( #895, #211, #158, #877 ) ) ;
#571 = EDGE_CURVE ( 'NONE', #295, #678, #724, .T. ) ;
#572 = FACE_OUTER_BOUND ( 'NONE', #564, .T. ) ;
#573 = FACE_BOUND ( 'NONE', #208, .T. ) ;
#574 = DIRECTION ( 'NONE',  ( 0.000000000000000000, -0.000000000000000000, -1.000000000000000000 ) ) ;
#575 = EDGE_LOOP ( 'NONE', ( #268, #827, #336, #956 ) ) ;
#576 = DIRECTION ( 'NONE',  ( 1.000000000000000000, 0.000000000000000000, 0.000000000000000000 ) ) ;
#577 = COORDINATED_UNIVERSAL_TIME_OFFSET ( 8, 0, .AHEAD. ) ;
#578 = DIRECTION ( 'NONE',  ( -0.000000000000000000, -0.000000000000000000, -1.000000000000000000 ) ) ;
#579 = CYLINDRICAL_SURFACE ( 'NONE', #1019, 4.999999999999999112 ) ;
#580 = DIRECTION ( 'NONE',  ( -0.000000000000000000, -0.000000000000000000, 1.000000000000000000 ) ) ;
#581 = CC_DESIGN_DATE_AND_TIME_ASSIGNMENT ( #919, #990, ( #63 ) ) ;
#582 = CARTESIAN_POINT ( 'NONE',  ( -23.87786876982271522, 27.67476076555023923, -4.500000000000000888 ) ) ;
#583 = EDGE_CURVE ( 'NONE', #468, #882, #966, .T. ) ;
#584 = DIRECTION ( 'NONE',  ( 1.000000000000000000, 0.000000000000000000, 0.000000000000000000 ) ) ;
#585 = AXIS2_PLACEMENT_3D ( 'NONE', #1, #668, #660 ) ;
#586 = ORIENTED_EDGE ( 'NONE', *, *, #367, .T. ) ;
#587 = PLANE ( 'NONE',  #32 ) ;
#588 = CARTESIAN_POINT ( 'NONE',  ( 16.52213123017730467, 6.028281543131323694, 5.500000000000000000 ) ) ;
#589 = CARTESIAN_POINT ( 'NONE',  ( -23.87786876982270101, -26.12523923444975438, -4.500000000000000888 ) ) ;
#590 = VERTEX_POINT ( 'NONE', #464 ) ;
#591 = FACE_OUTER_BOUND ( 'NONE', #1097, .T. ) ;
#592 = CARTESIAN_POINT ( 'NONE',  ( 8.772131230177386385, 18.52828154313117182, 5.500000000000000000 ) ) ;
#593 = ORIENTED_EDGE ( 'NONE', *, *, #491, .T. ) ;
#594 = FACE_OUTER_BOUND ( 'NONE', #1023, .T. ) ;
#595 = ORIENTED_EDGE ( 'NONE', *, *, #618, .F. ) ;
#596 = PLANE ( 'NONE',  #170 ) ;
#597 = LINE ( 'NONE', #592, #394 ) ;
#598 = ORIENTED_EDGE ( 'NONE', *, *, #212, .T. ) ;
#599 =( NAMED_UNIT ( * ) SI_UNIT ( $, .STERADIAN. ) SOLID_ANGLE_UNIT ( ) );
#600 = EDGE_CURVE ( 'NONE', #358, #330, #631, .T. ) ;
#601 = CIRCLE ( 'NONE', #710, 4.999999999999999112 ) ;
#602 = VERTEX_POINT ( 'NONE', #622 ) ;
#603 = DIRECTION ( 'NONE',  ( -0.000000000000000000, 0.000000000000000000, 1.000000000000000000 ) ) ;
#604 = VECTOR ( 'NONE', #578, 1000.000000000000000 ) ;
#605 = CARTESIAN_POINT ( 'NONE',  ( -6.727868769822783257, -16.97876001203071183, 0.000000000000000000 ) ) ;
#606 = CIRCLE ( 'NONE', #238, 2.500000000000000444 ) ;
#607 = ORIENTED_EDGE ( 'NONE', *, *, #72, .T. ) ;
#608 = EDGE_LOOP ( 'NONE', ( #629, #488, #261, #128 ) ) ;
#609 = CARTESIAN_POINT ( 'NONE',  ( -9.477868769822695327, 11.02828154313132458, 5.500000000000000000 ) ) ;
#610 = DIRECTION ( 'NONE',  ( -0.000000000000000000, -0.000000000000000000, -1.000000000000000000 ) ) ;
#611 = ADVANCED_FACE ( 'NONE', ( #1053 ), #299, .F. ) ;
#612 = ORIENTED_EDGE ( 'NONE', *, *, #980, .T. ) ;
#613 = DIRECTION ( 'NONE',  ( -1.000000000000000000, 0.000000000000000000, 0.000000000000000000 ) ) ;
#614 = ORIENTED_EDGE ( 'NONE', *, *, #916, .T. ) ;
#615 = CARTESIAN_POINT ( 'NONE',  ( -0.000000000000000000, 11.02828154313132458, 0.000000000000000000 ) ) ;
#616 = CC_DESIGN_PERSON_AND_ORGANIZATION_ASSIGNMENT ( #496, #899, ( #979 ) ) ;
#617 = ORIENTED_EDGE ( 'NONE', *, *, #389, .F. ) ;
#618 = EDGE_CURVE ( 'NONE', #121, #602, #434, .T. ) ;
#619 = LINE ( 'NONE', #356, #763 ) ;
#620 = ORIENTED_EDGE ( 'NONE', *, *, #278, .F. ) ;
#621 = AXIS2_PLACEMENT_3D ( 'NONE', #1047, #963, #865 ) ;
#622 = CARTESIAN_POINT ( 'NONE',  ( 13.77213123017738816, 18.52828154313117182, 5.500000000000000000 ) ) ;
#623 = CIRCLE ( 'NONE', #1095, 5.000000000000004441 ) ;
#624 = EDGE_LOOP ( 'NONE', ( #173, #792, #688, #1089 ) ) ;
#625 = ADVANCED_FACE ( 'NONE', ( #641 ), #42, .F. ) ;
#626 = ORIENTED_EDGE ( 'NONE', *, *, #545, .F. ) ;
#627 = CARTESIAN_POINT ( 'NONE',  ( -19.47786876982269533, 0.7747607655502354307, 5.500000000000000000 ) ) ;
#628 = ORIENTED_EDGE ( 'NONE', *, *, #706, .F. ) ;
#629 = ORIENTED_EDGE ( 'NONE', *, *, #404, .T. ) ;
#630 = ADVANCED_FACE ( 'NONE', ( #757 ), #1000, .T. ) ;
#631 = LINE ( 'NONE', #976, #169 ) ;
#632 = DIRECTION ( 'NONE',  ( 1.000000000000000000, 0.000000000000000000, 0.000000000000000000 ) ) ;
#633 = ORIENTED_EDGE ( 'NONE', *, *, #24, .T. ) ;
#634 = EDGE_CURVE ( 'NONE', #468, #704, #149, .T. ) ;
#635 = CARTESIAN_POINT ( 'NONE',  ( -6.062885058931148987E-15, -26.12523923444975793, 5.500000000000000000 ) ) ;
#636 = ORIENTED_EDGE ( 'NONE', *, *, #155, .T. ) ;
#637 = CIRCLE ( 'NONE', #785, 2.500000000000000444 ) ;
#638 = AXIS2_PLACEMENT_3D ( 'NONE', #390, #561, #705 ) ;
#639 = AXIS2_PLACEMENT_3D ( 'NONE', #495, #422, #1011 ) ;
#640 = VERTEX_POINT ( 'NONE', #1007 ) ;
#641 = FACE_OUTER_BOUND ( 'NONE', #177, .T. ) ;
#642 = PERSON_AND_ORGANIZATION ( #77, #219 ) ;
#643 = DIRECTION ( 'NONE',  ( -0.000000000000000000, 0.000000000000000000, 1.000000000000000000 ) ) ;
#644 = ORIENTED_EDGE ( 'NONE', *, *, #1086, .T. ) ;
#645 = DIRECTION ( 'NONE',  ( -0.000000000000000000, 0.000000000000000000, 1.000000000000000000 ) ) ;
#646 = PERSON_AND_ORGANIZATION_ROLE ( 'classification_officer' ) ;
#647 = ADVANCED_FACE ( 'NONE', ( #572 ), #237, .F. ) ;
#648 = CARTESIAN_POINT ( 'NONE',  ( 30.92213123017732812, -21.12523923444975438, 0.000000000000000000 ) ) ;
#649 = EDGE_CURVE ( 'NONE', #472, #141, #787, .T. ) ;
#650 = DIRECTION ( 'NONE',  ( -0.000000000000000000, -0.000000000000000000, -1.000000000000000000 ) ) ;
#651 = ORIENTED_EDGE ( 'NONE', *, *, #683, .T. ) ;
#652 = DIRECTION ( 'NONE',  ( -0.000000000000000000, -0.000000000000000000, -1.000000000000000000 ) ) ;
#653 = APPROVAL_STATUS ( 'not_yet_approved' ) ;
#654 = DIRECTION ( 'NONE',  ( 1.000000000000000000, 0.000000000000000000, 0.000000000000000000 ) ) ;
#655 = APPROVAL_PERSON_ORGANIZATION ( #923, #721, #838 ) ;
#656 = VECTOR ( 'NONE', #391, 1000.000000000000000 ) ;
#657 = CARTESIAN_POINT ( 'NONE',  ( -14.47786876982269710, 0.000000000000000000, 0.000000000000000000 ) ) ;
#658 = VECTOR ( 'NONE', #971, 1000.000000000000000 ) ;
#659 = ORIENTED_EDGE ( 'NONE', *, *, #155, .F. ) ;
#660 = DIRECTION ( 'NONE',  ( 1.000000000000000000, 0.000000000000000000, 0.000000000000000000 ) ) ;
#661 = LINE ( 'NONE', #1093, #553 ) ;
#662 = DIRECTION ( 'NONE',  ( -0.000000000000000000, -0.000000000000000000, -1.000000000000000000 ) ) ;
#663 = CARTESIAN_POINT ( 'NONE',  ( -9.227868769822533679, 18.52828154313132458, 0.000000000000000000 ) ) ;
#664 = PERSON_AND_ORGANIZATION ( #77, #219 ) ;
#665 = DIRECTION ( 'NONE',  ( -0.000000000000000000, 0.000000000000000000, 1.000000000000000000 ) ) ;
#666 = LINE ( 'NONE', #329, #203 ) ;
#667 = ORIENTED_EDGE ( 'NONE', *, *, #475, .F. ) ;
#668 = DIRECTION ( 'NONE',  ( -0.000000000000000000, 0.000000000000000000, 1.000000000000000000 ) ) ;
#669 = ADVANCED_FACE ( 'NONE', ( #922 ), #823, .T. ) ;
#670 = DIRECTION ( 'NONE',  ( -0.000000000000000000, 0.000000000000000000, 1.000000000000000000 ) ) ;
#671 = VECTOR ( 'NONE', #505, 1000.000000000000000 ) ;
#672 = CARTESIAN_POINT ( 'NONE',  ( -28.87786876982270812, 22.67476076555021436, -4.500000000000000888 ) ) ;
#673 = VECTOR ( 'NONE', #1077, 1000.000000000000000 ) ;
#674 = VECTOR ( 'NONE', #951, 1000.000000000000000 ) ;
#675 = ORIENTED_EDGE ( 'NONE', *, *, #749, .T. ) ;
#676 = FACE_BOUND ( 'NONE', #723, .T. ) ;
#677 = DIRECTION ( 'NONE',  ( -1.000000000000000000, -3.168444704980471560E-16, 0.000000000000000000 ) ) ;
#678 = VERTEX_POINT ( 'NONE', #502 ) ;
#679 = ORIENTED_EDGE ( 'NONE', *, *, #162, .F. ) ;
#680 = DIRECTION ( 'NONE',  ( -0.000000000000000000, -0.000000000000000000, -1.000000000000000000 ) ) ;
#681 = DIRECTION ( 'NONE',  ( 1.000000000000000000, 0.000000000000000000, 0.000000000000000000 ) ) ;
#682 = VERTEX_POINT ( 'NONE', #911 ) ;
#683 = EDGE_CURVE ( 'NONE', #704, #284, #521, .T. ) ;
#684 = FACE_OUTER_BOUND ( 'NONE', #102, .T. ) ;
#685 = ORIENTED_EDGE ( 'NONE', *, *, #321, .F. ) ;
#686 = PLANE ( 'NONE',  #365 ) ;
#687 = CARTESIAN_POINT ( 'NONE',  ( 25.92213123017731036, 22.67476076555023923, 5.500000000000000000 ) ) ;
#688 = ORIENTED_EDGE ( 'NONE', *, *, #571, .F. ) ;
#689 = ADVANCED_FACE ( 'NONE', ( #818 ), #1083, .F. ) ;
#690 = VECTOR ( 'NONE', #73, 1000.000000000000000 ) ;
#691 = CIRCLE ( 'NONE', #324, 4.999999999999999112 ) ;
#692 = EDGE_LOOP ( 'NONE', ( #667, #702 ) ) ;
#693 = CARTESIAN_POINT ( 'NONE',  ( -28.87786876982270812, -21.12523923444974727, -4.500000000000000888 ) ) ;
#694 = VECTOR ( 'NONE', #50, 1000.000000000000000 ) ;
#695 = CARTESIAN_POINT ( 'NONE',  ( 11.52213123017730645, -9.478760012030850390, 5.500000000000000000 ) ) ;
#696 = AXIS2_PLACEMENT_3D ( 'NONE', #296, #129, #473 ) ;
#697 = ORIENTED_EDGE ( 'NONE', *, *, #1017, .F. ) ;
#698 = CARTESIAN_POINT ( 'NONE',  ( -9.477868769822695327, 6.028281543131323694, 5.500000000000000000 ) ) ;
#699 = ORIENTED_EDGE ( 'NONE', *, *, #404, .F. ) ;
#700 = ADVANCED_FACE ( 'NONE', ( #318 ), #70, .F. ) ;
#701 = CARTESIAN_POINT ( 'NONE',  ( -9.477868769822695327, -9.478760012030850390, 5.500000000000000000 ) ) ;
#702 = ORIENTED_EDGE ( 'NONE', *, *, #83, .F. ) ;
#703 =( LENGTH_UNIT ( ) NAMED_UNIT ( * ) SI_UNIT ( .MILLI., .METRE. ) );
#704 = VERTEX_POINT ( 'NONE', #745 ) ;
#705 = DIRECTION ( 'NONE',  ( 1.000000000000000000, 0.000000000000000000, 0.000000000000000000 ) ) ;
#706 = EDGE_CURVE ( 'NONE', #215, #929, #834, .T. ) ;
#707 = ORIENTED_EDGE ( 'NONE', *, *, #961, .T. ) ;
#708 = EDGE_CURVE ( 'NONE', #530, #358, #119, .T. ) ;
#709 = EDGE_LOOP ( 'NONE', ( #1060, #607 ) ) ;
#710 = AXIS2_PLACEMENT_3D ( 'NONE', #534, #776, #371 ) ;
#711 = CARTESIAN_POINT ( 'NONE',  ( 0.000000000000000000, -9.478760012030850390, 0.000000000000000000 ) ) ;
#712 = CC_DESIGN_SECURITY_CLASSIFICATION ( #729, ( #979 ) ) ;
#713 = AXIS2_PLACEMENT_3D ( 'NONE', #1036, #677, #537 ) ;
#714 = ADVANCED_FACE ( 'NONE', ( #159 ), #917, .F. ) ;
#715 = AXIS2_PLACEMENT_3D ( 'NONE', #402, #580, #740 ) ;
#716 = LINE ( 'NONE', #1063, #148 ) ;
#717 = ADVANCED_FACE ( 'NONE', ( #165 ), #587, .F. ) ;
#718 = ORIENTED_EDGE ( 'NONE', *, *, #559, .T. ) ;
#719 = CARTESIAN_POINT ( 'NONE',  ( -6.727868769822783257, -16.97876001203071183, 5.500000000000000000 ) ) ;
#720 = CARTESIAN_POINT ( 'NONE',  ( 3.211241283748619946E-15, 27.67476076555023567, 5.500000000000000000 ) ) ;
#721 = APPROVAL ( #307, 'UNSPECIFIED' ) ;
#722 = ADVANCED_FACE ( 'NONE', ( #1016 ), #254, .F. ) ;
#723 = EDGE_LOOP ( 'NONE', ( #617, #993, #200, #644, #1037, #1082, #535, #29 ) ) ;
#724 = LINE ( 'NONE', #477, #291 ) ;
#725 = PLANE ( 'NONE',  #166 ) ;
#726 = ORIENTED_EDGE ( 'NONE', *, *, #736, .F. ) ;
#727 = CARTESIAN_POINT ( 'NONE',  ( 11.27213123017738639, 18.52828154313117182, 5.500000000000000000 ) ) ;
#728 = VECTOR ( 'NONE', #347, 1000.000000000000000 ) ;
#729 = SECURITY_CLASSIFICATION ( '', '', #66 ) ;
#730 = DIRECTION ( 'NONE',  ( 1.000000000000000000, -2.320700302310109512E-16, 0.000000000000000000 ) ) ;
#731 = VECTOR ( 'NONE', #960, 1000.000000000000000 ) ;
#732 = AXIS2_PLACEMENT_3D ( 'NONE', #332, #645, #576 ) ;
#733 = ORIENTED_EDGE ( 'NONE', *, *, #355, .F. ) ;
#734 = CC_DESIGN_PERSON_AND_ORGANIZATION_ASSIGNMENT ( #829, #646, ( #729 ) ) ;
#735 = DIRECTION ( 'NONE',  ( 1.000000000000000000, 0.000000000000000000, 0.000000000000000000 ) ) ;
#736 = EDGE_CURVE ( 'NONE', #396, #1067, #565, .T. ) ;
#737 = CARTESIAN_POINT ( 'NONE',  ( -9.477868769822695327, -4.478760012030853055, 5.500000000000000000 ) ) ;
#738 = DIRECTION ( 'NONE',  ( 1.000000000000000000, 0.000000000000000000, 0.000000000000000000 ) ) ;
#739 = ORIENTED_EDGE ( 'NONE', *, *, #475, .T. ) ;
#740 = DIRECTION ( 'NONE',  ( 1.000000000000000000, 0.000000000000000000, 0.000000000000000000 ) ) ;
#741 = DIRECTION ( 'NONE',  ( -0.000000000000000000, -0.000000000000000000, -1.000000000000000000 ) ) ;
#742 = ADVANCED_FACE ( 'NONE', ( #768 ), #596, .T. ) ;
#743 = CARTESIAN_POINT ( 'NONE',  ( -23.87786876982270101, -21.12523923444975438, -4.500000000000000888 ) ) ;
#744 = ORIENTED_EDGE ( 'NONE', *, *, #708, .T. ) ;
#745 = CARTESIAN_POINT ( 'NONE',  ( -11.72786876982253368, 18.52828154313132458, 0.000000000000000000 ) ) ;
#746 = DIRECTION ( 'NONE',  ( -0.000000000000000000, -0.000000000000000000, 1.000000000000000000 ) ) ;
#747 = CC_DESIGN_APPROVAL ( #721, ( #63 ) ) ;
#748 = CIRCLE ( 'NONE', #220, 2.499999999999998668 ) ;
#749 = EDGE_CURVE ( 'NONE', #385, #351, #789, .T. ) ;
#750 = LINE ( 'NONE', #1096, #1038 ) ;
#751 = VECTOR ( 'NONE', #139, 1000.000000000000000 ) ;
#752 = EDGE_LOOP ( 'NONE', ( #286, #560, #775, #35 ) ) ;
#753 = DIRECTION ( 'NONE',  ( -0.000000000000000000, -0.000000000000000000, -1.000000000000000000 ) ) ;
#754 = PERSON_AND_ORGANIZATION_ROLE ( 'creator' ) ;
#755 = FACE_BOUND ( 'NONE', #146, .T. ) ;
#756 = LINE ( 'NONE', #672, #1058 ) ;
#757 = FACE_OUTER_BOUND ( 'NONE', #570, .T. ) ;
#758 = LINE ( 'NONE', #588, #117 ) ;
#759 = CARTESIAN_POINT ( 'NONE',  ( 19.02213123017730467, 0.7747607655502354307, 5.500000000000000000 ) ) ;
#760 = ORIENTED_EDGE ( 'NONE', *, *, #896, .F. ) ;
#761 = FACE_BOUND ( 'NONE', #863, .T. ) ;
#762 = CARTESIAN_POINT ( 'NONE',  ( 21.52213123017730467, 0.7747607655502354307, 5.500000000000000000 ) ) ;
#763 = VECTOR ( 'NONE', #1032, 1000.000000000000000 ) ;
#764 = DIRECTION ( 'NONE',  ( 1.000000000000000000, 0.000000000000000000, 0.000000000000000000 ) ) ;
#765 = CIRCLE ( 'NONE', #416, 5.000000000000018652 ) ;
#766 = CIRCLE ( 'NONE', #1061, 2.500000000000000444 ) ;
#767 = ORIENTED_EDGE ( 'NONE', *, *, #52, .T. ) ;
#768 = FACE_OUTER_BOUND ( 'NONE', #975, .T. ) ;
#769 = DIRECTION ( 'NONE',  ( 1.000000000000000000, 0.000000000000000000, 0.000000000000000000 ) ) ;
#770 = ADVANCED_FACE ( 'NONE', ( #1035 ), #1024, .F. ) ;
#771 = EDGE_LOOP ( 'NONE', ( #659, #780 ) ) ;
#772 = ORIENTED_EDGE ( 'NONE', *, *, #706, .T. ) ;
#773 = DIRECTION ( 'NONE',  ( -0.000000000000000000, -0.000000000000000000, -1.000000000000000000 ) ) ;
#774 = CARTESIAN_POINT ( 'NONE',  ( -11.72786876982253368, 18.52828154313132458, 5.500000000000000000 ) ) ;
#775 = ORIENTED_EDGE ( 'NONE', *, *, #355, .T. ) ;
#776 = DIRECTION ( 'NONE',  ( -0.000000000000000000, 0.000000000000000000, 1.000000000000000000 ) ) ;
#777 = EDGE_LOOP ( 'NONE', ( #292, #91, #988, #388 ) ) ;
#778 = CARTESIAN_POINT ( 'NONE',  ( 16.52213123017730467, -4.478760012030853055, 0.000000000000000000 ) ) ;
#779 = FACE_OUTER_BOUND ( 'NONE', #846, .T. ) ;
#780 = ORIENTED_EDGE ( 'NONE', *, *, #120, .F. ) ;
#781 = CC_DESIGN_PERSON_AND_ORGANIZATION_ASSIGNMENT ( #1055, #879, ( #310 ) ) ;
#782 = DIRECTION ( 'NONE',  ( -0.000000000000000000, -0.000000000000000000, -1.000000000000000000 ) ) ;
#783 = VECTOR ( 'NONE', #31, 1000.000000000000000 ) ;
#784 = ADVANCED_FACE ( 'NONE', ( #591 ), #686, .T. ) ;
#785 = AXIS2_PLACEMENT_3D ( 'NONE', #1013, #80, #420 ) ;
#786 = ORIENTED_EDGE ( 'NONE', *, *, #84, .T. ) ;
#787 = CIRCLE ( 'NONE', #891, 5.000000000000000888 ) ;
#788 = CARTESIAN_POINT ( 'NONE',  ( -6.727868769822533679, 18.52828154313132458, 5.500000000000000000 ) ) ;
#789 = CIRCLE ( 'NONE', #836, 2.500000000000000444 ) ;
#790 = ORIENTED_EDGE ( 'NONE', *, *, #910, .F. ) ;
#791 = DIRECTION ( 'NONE',  ( -0.000000000000000000, -0.000000000000000000, -1.000000000000000000 ) ) ;
#792 = ORIENTED_EDGE ( 'NONE', *, *, #162, .T. ) ;
#793 = CARTESIAN_POINT ( 'NONE',  ( 13.77213123017738816, 18.52828154313117182, 5.500000000000000000 ) ) ;
#794 = VERTEX_POINT ( 'NONE', #778 ) ;
#795 = EDGE_LOOP ( 'NONE', ( #718, #522, #962, #860 ) ) ;
#796 = DIRECTION ( 'NONE',  ( -0.000000000000000000, 0.000000000000000000, 1.000000000000000000 ) ) ;
#797 = DIRECTION ( 'NONE',  ( 1.000000000000000000, 0.000000000000000000, 0.000000000000000000 ) ) ;
#798 = ORIENTED_EDGE ( 'NONE', *, *, #1068, .T. ) ;
#799 = LOCAL_TIME ( 11, 32, 56.00000000000000000, #577 ) ;
#800 = DIRECTION ( 'NONE',  ( -1.000000000000000000, 0.000000000000000000, 0.000000000000000000 ) ) ;
#801 = CIRCLE ( 'NONE', #696, 2.500000000000000444 ) ;
#802 = LINE ( 'NONE', #548, #656 ) ;
#803 = EDGE_CURVE ( 'NONE', #682, #1052, #954, .T. ) ;
#804 = VERTEX_POINT ( 'NONE', #27 ) ;
#805 = CARTESIAN_POINT ( 'NONE',  ( 30.92213123017731391, 22.67476076555021436, 0.000000000000000000 ) ) ;
#806 = CARTESIAN_POINT ( 'NONE',  ( 11.27213123017738639, 18.52828154313117182, 0.000000000000000000 ) ) ;
#807 = VERTEX_POINT ( 'NONE', #511 ) ;
#808 = FACE_OUTER_BOUND ( 'NONE', #952, .T. ) ;
#809 = DIRECTION ( 'NONE',  ( -0.000000000000000000, 0.000000000000000000, 1.000000000000000000 ) ) ;
#810 = ORIENTED_EDGE ( 'NONE', *, *, #559, .F. ) ;
#811 = EDGE_CURVE ( 'NONE', #472, #900, #1044, .T. ) ;
#812 = DIRECTION ( 'NONE',  ( -0.000000000000000000, 0.000000000000000000, 1.000000000000000000 ) ) ;
#813 = AXIS2_PLACEMENT_3D ( 'NONE', #89, #662, #487 ) ;
#814 = ORIENTED_EDGE ( 'NONE', *, *, #314, .F. ) ;
#815 = AXIS2_PLACEMENT_3D ( 'NONE', #558, #1080, #474 ) ;
#816 = VECTOR ( 'NONE', #967, 1000.000000000000000 ) ;
#817 = ORIENTED_EDGE ( 'NONE', *, *, #974, .F. ) ;
#818 = FACE_OUTER_BOUND ( 'NONE', #752, .T. ) ;
#819 = APPROVAL_ROLE ( '' ) ;
#820 = DIRECTION ( 'NONE',  ( -0.000000000000000000, 0.000000000000000000, 1.000000000000000000 ) ) ;
#821 = DIRECTION ( 'NONE',  ( 0.000000000000000000, -0.000000000000000000, -1.000000000000000000 ) ) ;
#822 = VERTEX_POINT ( 'NONE', #936 ) ;
#823 = CYLINDRICAL_SURFACE ( 'NONE', #715, 5.000000000000018652 ) ;
#824 = CARTESIAN_POINT ( 'NONE',  ( 13.77213123017726204, -16.97876001203082907, 5.500000000000000000 ) ) ;
#825 = EDGE_CURVE ( 'NONE', #602, #121, #430, .T. ) ;
#826 = CYLINDRICAL_SURFACE ( 'NONE', #813, 2.500000000000000444 ) ;
#827 = ORIENTED_EDGE ( 'NONE', *, *, #216, .F. ) ;
#828 = DIRECTION ( 'NONE',  ( -0.000000000000000000, -0.000000000000000000, -1.000000000000000000 ) ) ;
#829 = PERSON_AND_ORGANIZATION ( #77, #219 ) ;
#830 = ADVANCED_FACE ( 'NONE', ( #265, #867, #940, #507, #517, #847, #761, #676 ), #96, .F. ) ;
#831 = CARTESIAN_POINT ( 'NONE',  ( 11.52213123017730645, 6.028281543131323694, 0.000000000000000000 ) ) ;
#832 = VECTOR ( 'NONE', #163, 1000.000000000000000 ) ;
#833 = AXIS2_PLACEMENT_3D ( 'NONE', #762, #665, #255 ) ;
#834 = CIRCLE ( 'NONE', #585, 2.499999999999998668 ) ;
#835 = CARTESIAN_POINT ( 'NONE',  ( -6.727868769822533679, 18.52828154313132458, 5.500000000000000000 ) ) ;
#836 = AXIS2_PLACEMENT_3D ( 'NONE', #352, #269, #183 ) ;
#837 = CARTESIAN_POINT ( 'NONE',  ( -19.47786876982269533, 0.7747607655502354307, 5.500000000000000000 ) ) ;
#838 = APPROVAL_ROLE ( '' ) ;
#839 = CARTESIAN_POINT ( 'NONE',  ( 25.92213123017732102, -21.12523923444974727, 5.500000000000000000 ) ) ;
#840 = LINE ( 'NONE', #589, #671 ) ;
#841 = VERTEX_POINT ( 'NONE', #196 ) ;
#842 = CYLINDRICAL_SURFACE ( 'NONE', #466, 5.000000000000004441 ) ;
#843 = CARTESIAN_POINT ( 'NONE',  ( 3.211241283748619946E-15, 27.67476076555023567, 5.500000000000000000 ) ) ;
#844 = DIRECTION ( 'NONE',  ( -0.000000000000000000, 0.000000000000000000, 1.000000000000000000 ) ) ;
#845 = ADVANCED_FACE ( 'NONE', ( #359 ), #842, .T. ) ;
#846 = EDGE_LOOP ( 'NONE', ( #459, #115, #218, #180 ) ) ;
#847 = FACE_BOUND ( 'NONE', #953, .T. ) ;
#848 = CARTESIAN_POINT ( 'NONE',  ( 11.52213123017730645, -9.478760012030850390, 0.000000000000000000 ) ) ;
#849 = EDGE_LOOP ( 'NONE', ( #739, #202, #448, #733 ) ) ;
#850 = LINE ( 'NONE', #945, #783 ) ;
#851 = LOCAL_TIME ( 11, 32, 56.00000000000000000, #1084 ) ;
#852 = AXIS2_PLACEMENT_3D ( 'NONE', #22, #894, #557 ) ;
#853 = ORIENTED_EDGE ( 'NONE', *, *, #527, .F. ) ;
#854 = CARTESIAN_POINT ( 'NONE',  ( 0.000000000000000000, 0.000000000000000000, 0.000000000000000000 ) ) ;
#855 = CARTESIAN_POINT ( 'NONE',  ( 11.52213123017730645, -4.478760012030853055, 5.500000000000000000 ) ) ;
#856 = EDGE_CURVE ( 'NONE', #1046, #463, #861, .T. ) ;
#857 = VERTEX_POINT ( 'NONE', #444 ) ;
#858 = DESIGN_CONTEXT ( 'detailed design', #382, 'design' ) ;
#859 = DIRECTION ( 'NONE',  ( 3.168444704980471560E-16, -1.000000000000000000, 0.000000000000000000 ) ) ;
#860 = ORIENTED_EDGE ( 'NONE', *, *, #137, .F. ) ;
#861 = LINE ( 'NONE', #92, #944 ) ;
#862 = LINE ( 'NONE', #283, #483 ) ;
#863 = EDGE_LOOP ( 'NONE', ( #786, #965 ) ) ;
#864 = EDGE_CURVE ( 'NONE', #902, #189, #1001, .T. ) ;
#865 = DIRECTION ( 'NONE',  ( -1.000000000000000000, 0.000000000000000000, 0.000000000000000000 ) ) ;
#866 = ORIENTED_EDGE ( 'NONE', *, *, #980, .F. ) ;
#867 = FACE_BOUND ( 'NONE', #909, .T. ) ;
#868 = CARTESIAN_POINT ( 'NONE',  ( 25.92213123017732102, 27.67476076555023567, 5.500000000000000000 ) ) ;
#869 = ORIENTED_EDGE ( 'NONE', *, *, #634, .F. ) ;
#870 = CARTESIAN_POINT ( 'NONE',  ( -19.47786876982269533, 0.7747607655502354307, 0.000000000000000000 ) ) ;
#871 = AXIS2_PLACEMENT_3D ( 'NONE', #854, #949, #103 ) ;
#872 = AXIS2_PLACEMENT_3D ( 'NONE', #831, #1003, #67 ) ;
#873 = ORIENTED_EDGE ( 'NONE', *, *, #216, .T. ) ;
#874 = AXIS2_PLACEMENT_3D ( 'NONE', #635, #543, #224 ) ;
#875 = DIRECTION ( 'NONE',  ( 0.000000000000000000, -1.000000000000000000, 0.000000000000000000 ) ) ;
#876 = VERTEX_POINT ( 'NONE', #997 ) ;
#877 = ORIENTED_EDGE ( 'NONE', *, *, #181, .T. ) ;
#878 = DIRECTION ( 'NONE',  ( 1.000000000000000000, 0.000000000000000000, 0.000000000000000000 ) ) ;
#879 = PERSON_AND_ORGANIZATION_ROLE ( 'design_owner' ) ;
#880 = CARTESIAN_POINT ( 'NONE',  ( 11.27213123017726204, -16.97876001203082907, 5.500000000000000000 ) ) ;
#881 = DIRECTION ( 'NONE',  ( 1.000000000000000000, 0.000000000000000000, 0.000000000000000000 ) ) ;
#882 = VERTEX_POINT ( 'NONE', #835 ) ;
#883 = ADVANCED_FACE ( 'NONE', ( #499 ), #826, .F. ) ;
#884 = CARTESIAN_POINT ( 'NONE',  ( -23.87786876982270101, 27.67476076555023923, 0.000000000000000000 ) ) ;
#885 = DIRECTION ( 'NONE',  ( 1.160350151155054756E-16, 1.000000000000000000, -0.000000000000000000 ) ) ;
#886 = ORIENTED_EDGE ( 'NONE', *, *, #120, .T. ) ;
#887 = AXIS2_PLACEMENT_3D ( 'NONE', #743, #1088, #316 ) ;
#888 = DIRECTION ( 'NONE',  ( -0.000000000000000000, 0.000000000000000000, 1.000000000000000000 ) ) ;
#889 = AXIS2_PLACEMENT_3D ( 'NONE', #503, #820, #423 ) ;
#890 = ADVANCED_FACE ( 'NONE', ( #68 ), #914, .F. ) ;
#891 = AXIS2_PLACEMENT_3D ( 'NONE', #174, #812, #325 ) ;
#892 = CARTESIAN_POINT ( 'NONE',  ( -6.062885058931148987E-15, -26.12523923444975793, 5.500000000000000000 ) ) ;
#893 = EDGE_LOOP ( 'NONE', ( #699, #1006, #222, #998, #999, #26, #55, #939 ) ) ;
#894 = DIRECTION ( 'NONE',  ( 0.000000000000000000, -0.000000000000000000, -1.000000000000000000 ) ) ;
#895 = ORIENTED_EDGE ( 'NONE', *, *, #958, .F. ) ;
#896 = EDGE_CURVE ( 'NONE', #590, #267, #172, .T. ) ;
#897 = ORIENTED_EDGE ( 'NONE', *, *, #803, .T. ) ;
#898 = DIRECTION ( 'NONE',  ( -0.000000000000000000, 0.000000000000000000, 1.000000000000000000 ) ) ;
#899 = PERSON_AND_ORGANIZATION_ROLE ( 'design_supplier' ) ;
#900 = VERTEX_POINT ( 'NONE', #405 ) ;
#901 = ADVANCED_FACE ( 'NONE', ( #85 ), #241, .T. ) ;
#902 = VERTEX_POINT ( 'NONE', #257 ) ;
#903 = CARTESIAN_POINT ( 'NONE',  ( 30.92213123017732102, 9.797506296296660138E-15, 5.500000000000000000 ) ) ;
#904 = AXIS2_PLACEMENT_3D ( 'NONE', #870, #199, #455 ) ;
#905 = CARTESIAN_POINT ( 'NONE',  ( -23.87786876982271522, 27.67476076555023923, 5.500000000000000000 ) ) ;
#906 = CIRCLE ( 'NONE', #926, 2.500000000000000444 ) ;
#907 = AXIS2_PLACEMENT_3D ( 'NONE', #855, #1045, #104 ) ;
#908 = DIRECTION ( 'NONE',  ( -0.000000000000000000, -0.000000000000000000, -1.000000000000000000 ) ) ;
#909 = EDGE_LOOP ( 'NONE', ( #651, #288 ) ) ;
#910 = EDGE_CURVE ( 'NONE', #125, #549, #925, .T. ) ;
#911 = CARTESIAN_POINT ( 'NONE',  ( -28.87786876982270812, -21.12523923444974727, 0.000000000000000000 ) ) ;
#912 = APPROVAL_DATE_TIME ( #239, #932 ) ;
#913 = DIRECTION ( 'NONE',  ( -0.000000000000000000, 0.000000000000000000, 1.000000000000000000 ) ) ;
#914 = CYLINDRICAL_SURFACE ( 'NONE', #567, 4.999999999999997335 ) ;
#915 = ORIENTED_EDGE ( 'NONE', *, *, #1017, .T. ) ;
#916 = EDGE_CURVE ( 'NONE', #153, #18, #322, .T. ) ;
#917 = CYLINDRICAL_SURFACE ( 'NONE', #639, 4.999999999999999112 ) ;
#918 = EDGE_CURVE ( 'NONE', #463, #435, #400, .T. ) ;
#919 = DATE_AND_TIME ( #2, #272 ) ;
#920 = CARTESIAN_POINT ( 'NONE',  ( -23.87786876982270101, -26.12523923444975438, 0.000000000000000000 ) ) ;
#921 = DIRECTION ( 'NONE',  ( -1.000000000000000000, 0.000000000000000000, 0.000000000000000000 ) ) ;
#922 = FACE_OUTER_BOUND ( 'NONE', #624, .T. ) ;
#923 = PERSON_AND_ORGANIZATION ( #77, #219 ) ;
#924 = CARTESIAN_POINT ( 'NONE',  ( -6.727868769822533679, 18.52828154313132458, 0.000000000000000000 ) ) ;
#925 = CIRCLE ( 'NONE', #392, 5.000000000000011546 ) ;
#926 = AXIS2_PLACEMENT_3D ( 'NONE', #338, #670, #240 ) ;
#927 = AXIS2_PLACEMENT_3D ( 'NONE', #279, #526, #769 ) ;
#928 = DIRECTION ( 'NONE',  ( 1.000000000000000000, -1.160350151155054756E-16, 0.000000000000000000 ) ) ;
#929 = VERTEX_POINT ( 'NONE', #157 ) ;
#930 = CARTESIAN_POINT ( 'NONE',  ( -9.227868769822533679, 18.52828154313132458, 5.500000000000000000 ) ) ;
#931 = CARTESIAN_POINT ( 'NONE',  ( 25.92213123017732102, -26.12523923444976504, 0.000000000000000000 ) ) ;
#932 = APPROVAL ( #653, 'UNSPECIFIED' ) ;
#933 = EDGE_CURVE ( 'NONE', #549, #358, #750, .T. ) ;
#934 = DIRECTION ( 'NONE',  ( 0.000000000000000000, -0.000000000000000000, -1.000000000000000000 ) ) ;
#935 = ORIENTED_EDGE ( 'NONE', *, *, #539, .T. ) ;
#936 = CARTESIAN_POINT ( 'NONE',  ( 16.52213123017730467, 6.028281543131323694, 0.000000000000000000 ) ) ;
#937 = CARTESIAN_POINT ( 'NONE',  ( 21.52213123017730467, 0.7747607655502354307, 5.500000000000000000 ) ) ;
#938 = ORIENTED_EDGE ( 'NONE', *, *, #5, .T. ) ;
#939 = ORIENTED_EDGE ( 'NONE', *, *, #1068, .F. ) ;
#940 = FACE_BOUND ( 'NONE', #1034, .T. ) ;
#941 = CARTESIAN_POINT ( 'NONE',  ( 13.77213123017738816, 18.52828154313117182, 0.000000000000000000 ) ) ;
#942 = EDGE_LOOP ( 'NONE', ( #810, #311 ) ) ;
#943 = CC_DESIGN_APPROVAL ( #932, ( #729 ) ) ;
#944 = VECTOR ( 'NONE', #109, 1000.000000000000000 ) ;
#945 = CARTESIAN_POINT ( 'NONE',  ( 30.92213123017731391, 22.67476076555021436, -4.500000000000000888 ) ) ;
#946 = CIRCLE ( 'NONE', #1004, 2.500000000000000444 ) ;
#947 = AXIS2_PLACEMENT_3D ( 'NONE', #837, #76, #86 ) ;
#948 = ORIENTED_EDGE ( 'NONE', *, *, #72, .F. ) ;
#949 = DIRECTION ( 'NONE',  ( -0.000000000000000000, 0.000000000000000000, 1.000000000000000000 ) ) ;
#950 = EDGE_CURVE ( 'NONE', #253, #458, #840, .T. ) ;
#951 = DIRECTION ( 'NONE',  ( 1.000000000000000000, 0.000000000000000000, 0.000000000000000000 ) ) ;
#952 = EDGE_LOOP ( 'NONE', ( #1015, #95, #494, #15 ) ) ;
#953 = EDGE_LOOP ( 'NONE', ( #133, #915 ) ) ;
#954 = LINE ( 'NONE', #693, #728 ) ;
#955 = FACE_OUTER_BOUND ( 'NONE', #20, .T. ) ;
#956 = ORIENTED_EDGE ( 'NONE', *, *, #896, .T. ) ;
#957 = DIRECTION ( 'NONE',  ( -0.000000000000000000, -0.000000000000000000, -1.000000000000000000 ) ) ;
#958 = EDGE_CURVE ( 'NONE', #1078, #876, #1010, .T. ) ;
#959 = ORIENTED_EDGE ( 'NONE', *, *, #147, .F. ) ;
#960 = DIRECTION ( 'NONE',  ( 1.000000000000000000, 0.000000000000000000, 0.000000000000000000 ) ) ;
#961 = EDGE_CURVE ( 'NONE', #479, #794, #666, .T. ) ;
#962 = ORIENTED_EDGE ( 'NONE', *, *, #52, .F. ) ;
#963 = DIRECTION ( 'NONE',  ( -0.000000000000000000, -0.000000000000000000, -1.000000000000000000 ) ) ;
#964 = CIRCLE ( 'NONE', #185, 2.499999999999998668 ) ;
#965 = ORIENTED_EDGE ( 'NONE', *, *, #1074, .T. ) ;
#966 = CIRCLE ( 'NONE', #638, 2.500000000000000444 ) ;
#967 = DIRECTION ( 'NONE',  ( -0.000000000000000000, -0.000000000000000000, -1.000000000000000000 ) ) ;
#968 = CARTESIAN_POINT ( 'NONE',  ( -19.47786876982269533, 0.7747607655502354307, 0.000000000000000000 ) ) ;
#969 = ADVANCED_FACE ( 'NONE', ( #246 ), #579, .F. ) ;
#970 = VERTEX_POINT ( 'NONE', #251 ) ;
#971 = DIRECTION ( 'NONE',  ( 1.000000000000000000, 0.000000000000000000, 0.000000000000000000 ) ) ;
#972 = CARTESIAN_POINT ( 'NONE',  ( -28.87786876982270812, 22.67476076555021436, 0.000000000000000000 ) ) ;
#973 = UNCERTAINTY_MEASURE_WITH_UNIT (LENGTH_MEASURE( 1.000000000000000082E-05 ), #703, 'distance_accuracy_value', 'NONE');
#974 = EDGE_CURVE ( 'NONE', #215, #69, #421, .T. ) ;
#975 = EDGE_LOOP ( 'NONE', ( #626, #814, #446, #443 ) ) ;
#976 = CARTESIAN_POINT ( 'NONE',  ( 25.92213123017732102, 27.67476076555023567, -4.500000000000000888 ) ) ;
#977 = LINE ( 'NONE', #892, #78 ) ;
#978 = ORIENTED_EDGE ( 'NONE', *, *, #467, .T. ) ;
#979 = PRODUCT_DEFINITION_FORMATION_WITH_SPECIFIED_SOURCE ( 'ANY', '', #310, .NOT_KNOWN. ) ;
#980 = EDGE_CURVE ( 'NONE', #125, #902, #756, .T. ) ;
#981 = LOCAL_TIME ( 11, 32, 56.00000000000000000, #143 ) ;
#982 = CYLINDRICAL_SURFACE ( 'NONE', #59, 2.500000000000000444 ) ;
#983 = AXIS2_PLACEMENT_3D ( 'NONE', #727, #1075, #305 ) ;
#984 = EDGE_CURVE ( 'NONE', #590, #857, #340, .T. ) ;
#985 = MECHANICAL_CONTEXT ( 'NONE', #1087, 'mechanical' ) ;
#986 = AXIS2_PLACEMENT_3D ( 'NONE', #21, #773, #1029 ) ;
#987 = CARTESIAN_POINT ( 'NONE',  ( -11.72786876982278415, -16.97876001203071183, 5.500000000000000000 ) ) ;
#988 = ORIENTED_EDGE ( 'NONE', *, *, #634, .T. ) ;
#989 = LINE ( 'NONE', #373, #452 ) ;
#990 = DATE_TIME_ROLE ( 'creation_date' ) ;
#991 = DIRECTION ( 'NONE',  ( 1.000000000000000000, 0.000000000000000000, 0.000000000000000000 ) ) ;
#992 = EDGE_CURVE ( 'NONE', #284, #704, #536, .T. ) ;
#993 = ORIENTED_EDGE ( 'NONE', *, *, #541, .T. ) ;
#994 = DIRECTION ( 'NONE',  ( -0.000000000000000000, -0.000000000000000000, -1.000000000000000000 ) ) ;
#995 = APPROVAL_ROLE ( '' ) ;
#996 = LINE ( 'NONE', #233, #500 ) ;
#997 = CARTESIAN_POINT ( 'NONE',  ( -14.47786876982269710, -4.478760012030853055, 0.000000000000000000 ) ) ;
#998 = ORIENTED_EDGE ( 'NONE', *, *, #933, .T. ) ;
#999 = ORIENTED_EDGE ( 'NONE', *, *, #708, .F. ) ;
#1000 = PLANE ( 'NONE',  #187 ) ;
#1001 = CIRCLE ( 'NONE', #1039, 5.000000000000011546 ) ;
#1002 = CALENDAR_DATE ( 2026, 5, 6 ) ;
#1003 = DIRECTION ( 'NONE',  ( 0.000000000000000000, -0.000000000000000000, -1.000000000000000000 ) ) ;
#1004 = AXIS2_PLACEMENT_3D ( 'NONE', #806, #384, #297 ) ;
#1005 = CARTESIAN_POINT ( 'NONE',  ( -23.87786876982270101, 22.67476076555022146, 5.500000000000000000 ) ) ;
#1006 = ORIENTED_EDGE ( 'NONE', *, *, #504, .F. ) ;
#1007 = CARTESIAN_POINT ( 'NONE',  ( -21.97786876982269177, 0.7747607655502354307, 5.500000000000000000 ) ) ;
#1008 = APPROVAL_STATUS ( 'not_yet_approved' ) ;
#1009 = CARTESIAN_POINT ( 'NONE',  ( 11.52213123017730645, -4.478760012030853055, 0.000000000000000000 ) ) ;
#1010 = LINE ( 'NONE', #657, #690 ) ;
#1011 = DIRECTION ( 'NONE',  ( -1.000000000000000000, 0.000000000000000000, 0.000000000000000000 ) ) ;
#1012 = PERSON_AND_ORGANIZATION ( #77, #219 ) ;
#1013 = CARTESIAN_POINT ( 'NONE',  ( 11.27213123017738639, 18.52828154313117182, 0.000000000000000000 ) ) ;
#1014 = DIRECTION ( 'NONE',  ( -0.000000000000000000, -0.000000000000000000, -1.000000000000000000 ) ) ;
#1015 = ORIENTED_EDGE ( 'NONE', *, *, #124, .F. ) ;
#1016 = FACE_OUTER_BOUND ( 'NONE', #777, .T. ) ;
#1017 = EDGE_CURVE ( 'NONE', #841, #69, #964, .T. ) ;
#1018 = FACE_BOUND ( 'NONE', #771, .T. ) ;
#1019 = AXIS2_PLACEMENT_3D ( 'NONE', #152, #1014, #921 ) ;
#1020 = EDGE_CURVE ( 'NONE', #530, #396, #850, .T. ) ;
#1021 = CIRCLE ( 'NONE', #395, 5.000000000000004441 ) ;
#1022 = DIRECTION ( 'NONE',  ( -0.000000000000000000, -0.000000000000000000, 1.000000000000000000 ) ) ;
#1023 = EDGE_LOOP ( 'NONE', ( #10, #523, #37, #938 ) ) ;
#1024 = CYLINDRICAL_SURFACE ( 'NONE', #986, 2.499999999999998668 ) ;
#1025 = DIRECTION ( 'NONE',  ( -0.000000000000000000, -0.000000000000000000, -1.000000000000000000 ) ) ;
#1026 = ORIENTED_EDGE ( 'NONE', *, *, #916, .F. ) ;
#1027 = DIRECTION ( 'NONE',  ( 1.000000000000000000, 0.000000000000000000, 0.000000000000000000 ) ) ;
#1028 = ORIENTED_EDGE ( 'NONE', *, *, #918, .F. ) ;
#1029 = DIRECTION ( 'NONE',  ( -1.000000000000000000, 0.000000000000000000, 0.000000000000000000 ) ) ;
#1030 = CARTESIAN_POINT ( 'NONE',  ( 8.772131230177386385, 18.52828154313117182, 0.000000000000000000 ) ) ;
#1031 = EDGE_LOOP ( 'NONE', ( #506, #364, #375, #697 ) ) ;
#1032 = DIRECTION ( 'NONE',  ( 1.000000000000000000, -2.320700302310109512E-16, 0.000000000000000000 ) ) ;
#1033 = ADVANCED_FACE ( 'NONE', ( #529 ), #112, .F. ) ;
#1034 = EDGE_LOOP ( 'NONE', ( #767, #675 ) ) ;
#1035 = FACE_OUTER_BOUND ( 'NONE', #1031, .T. ) ;
#1036 = CARTESIAN_POINT ( 'NONE',  ( 30.92213123017732102, 9.797506296296660138E-15, -4.500000000000000888 ) ) ;
#1037 = ORIENTED_EDGE ( 'NONE', *, *, #545, .T. ) ;
#1038 = VECTOR ( 'NONE', #928, 1000.000000000000000 ) ;
#1039 = AXIS2_PLACEMENT_3D ( 'NONE', #1005, #821, #738 ) ;
#1040 = EDGE_CURVE ( 'NONE', #530, #242, #25, .T. ) ;
#1041 = AXIS2_PLACEMENT_3D ( 'NONE', #490, #652, #485 ) ;
#1042 = ADVANCED_FACE ( 'NONE', ( #684 ), #285, .F. ) ;
#1043 = ORIENTED_EDGE ( 'NONE', *, *, #683, .F. ) ;
#1044 = LINE ( 'NONE', #609, #164 ) ;
#1045 = DIRECTION ( 'NONE',  ( -0.000000000000000000, 0.000000000000000000, 1.000000000000000000 ) ) ;
#1046 = VERTEX_POINT ( 'NONE', #118 ) ;
#1047 = CARTESIAN_POINT ( 'NONE',  ( 11.27213123017738639, 18.52828154313117182, 5.500000000000000000 ) ) ;
#1048 = ORIENTED_EDGE ( 'NONE', *, *, #181, .F. ) ;
#1049 = PLANE ( 'NONE',  #713 ) ;
#1050 = VERTEX_POINT ( 'NONE', #206 ) ;
#1051 =( NAMED_UNIT ( * ) PLANE_ANGLE_UNIT ( ) SI_UNIT ( $, .RADIAN. ) );
#1052 = VERTEX_POINT ( 'NONE', #281 ) ;
#1053 = FACE_OUTER_BOUND ( 'NONE', #298, .T. ) ;
#1054 = ADVANCED_FACE ( 'NONE', ( #436 ), #447, .F. ) ;
#1055 = PERSON_AND_ORGANIZATION ( #77, #219 ) ;
#1056 = VERTEX_POINT ( 'NONE', #540 ) ;
#1057 = ADVANCED_FACE ( 'NONE', ( #594 ), #94, .F. ) ;
#1058 = VECTOR ( 'NONE', #1022, 1000.000000000000000 ) ;
#1059 = AXIS2_PLACEMENT_3D ( 'NONE', #93, #913, #156 ) ;
#1060 = ORIENTED_EDGE ( 'NONE', *, *, #262, .T. ) ;
#1061 = AXIS2_PLACEMENT_3D ( 'NONE', #293, #796, #878 ) ;
#1062 = LINE ( 'NONE', #135, #816 ) ;
#1063 = CARTESIAN_POINT ( 'NONE',  ( -6.727868769822783257, -16.97876001203071183, 5.500000000000000000 ) ) ;
#1064 = EDGE_LOOP ( 'NONE', ( #74, #195, #264, #873 ) ) ;
#1065 = CARTESIAN_POINT ( 'NONE',  ( -9.227868769822784145, -16.97876001203071183, 5.500000000000000000 ) ) ;
#1066 = LINE ( 'NONE', #225, #673 ) ;
#1067 = VERTEX_POINT ( 'NONE', #429 ) ;
#1068 = EDGE_CURVE ( 'NONE', #253, #295, #619, .T. ) ;
#1069 = CARTESIAN_POINT ( 'NONE',  ( -9.477868769822695327, 11.02828154313132458, 5.500000000000000000 ) ) ;
#1070 = DIRECTION ( 'NONE',  ( 0.000000000000000000, -0.000000000000000000, 1.000000000000000000 ) ) ;
#1071 = ORIENTED_EDGE ( 'NONE', *, *, #378, .T. ) ;
#1072 = VECTOR ( 'NONE', #650, 1000.000000000000000 ) ;
#1073 = AXIS2_PLACEMENT_3D ( 'NONE', #61, #399, #991 ) ;
#1074 = EDGE_CURVE ( 'NONE', #1050, #341, #449, .T. ) ;
#1075 = DIRECTION ( 'NONE',  ( -0.000000000000000000, 0.000000000000000000, 1.000000000000000000 ) ) ;
#1076 = AXIS2_PLACEMENT_3D ( 'NONE', #1079, #753, #407 ) ;
#1077 = DIRECTION ( 'NONE',  ( -0.000000000000000000, -0.000000000000000000, 1.000000000000000000 ) ) ;
#1078 = VERTEX_POINT ( 'NONE', #36 ) ;
#1079 = CARTESIAN_POINT ( 'NONE',  ( 11.27213123017738639, 18.52828154313117182, 5.500000000000000000 ) ) ;
#1080 = DIRECTION ( 'NONE',  ( -0.000000000000000000, -0.000000000000000000, 1.000000000000000000 ) ) ;
#1081 = CARTESIAN_POINT ( 'NONE',  ( 11.52213123017730645, -4.478760012030853055, 5.500000000000000000 ) ) ;
#1082 = ORIENTED_EDGE ( 'NONE', *, *, #230, .T. ) ;
#1083 = CYLINDRICAL_SURFACE ( 'NONE', #947, 2.499999999999998668 ) ;
#1084 = COORDINATED_UNIVERSAL_TIME_OFFSET ( 8, 0, .AHEAD. ) ;
#1085 = DIRECTION ( 'NONE',  ( -0.000000000000000000, -0.000000000000000000, -1.000000000000000000 ) ) ;
#1086 = EDGE_CURVE ( 'NONE', #876, #970, #601, .T. ) ;
#1087 = APPLICATION_CONTEXT ( 'configuration controlled 3d designs of mechanical parts and assemblies' ) ;
#1088 = DIRECTION ( 'NONE',  ( -0.000000000000000000, -0.000000000000000000, 1.000000000000000000 ) ) ;
#1089 = ORIENTED_EDGE ( 'NONE', *, *, #471, .F. ) ;
#1090 = DIRECTION ( 'NONE',  ( -1.000000000000000000, 0.000000000000000000, 0.000000000000000000 ) ) ;
#1091 = AXIS2_PLACEMENT_3D ( 'NONE', #509, #844, #764 ) ;
#1092 = APPROVAL_DATE_TIME ( #398, #721 ) ;
#1093 = CARTESIAN_POINT ( 'NONE',  ( 16.52213123017730467, 0.000000000000000000, 5.500000000000000000 ) ) ;
#1094 = CIRCLE ( 'NONE', #1073, 2.500000000000000444 ) ;
#1095 = AXIS2_PLACEMENT_3D ( 'NONE', #361, #433, #17 ) ;
#1096 = CARTESIAN_POINT ( 'NONE',  ( 3.211241283748619946E-15, 27.67476076555023567, 0.000000000000000000 ) ) ;
#1097 = EDGE_LOOP ( 'NONE', ( #136, #897, #370, #866 ) ) ;
ENDSEC;
END-ISO-10303-21;
