ISO-10303-21;
HEADER;
FILE_DESCRIPTION (( 'STEP AP203' ),
    '1' );
FILE_NAME ('¾É¬W.step',
    '2026-06-05T03:32:55',
    ( '' ),
    ( '' ),
    'SwSTEP 2.0',
    'SolidWorks 2024',
    '' );
FILE_SCHEMA (( 'CONFIG_CONTROL_DESIGN' ));
ENDSEC;

DATA;
#1 = PLANE ( 'NONE',  #130 ) ;
#2 = EDGE_CURVE ( 'NONE', #292, #65, #272, .T. ) ;
#3 = DIRECTION ( 'NONE',  ( 1.000000000000000000, 0.000000000000000000, 0.000000000000000000 ) ) ;
#4 = MANIFOLD_SOLID_BREP ( '¶ñ®Æ-¦ùªø2', #167 ) ;
#5 = DIRECTION ( 'NONE',  ( -0.000000000000000000, -0.000000000000000000, 1.000000000000000000 ) ) ;
#6 = VECTOR ( 'NONE', #208, 1000.000000000000000 ) ;
#7 = CARTESIAN_POINT ( 'NONE',  ( 2.500000000000000000, 0.000000000000000000, -11.75000000000000000 ) ) ;
#8 = EDGE_CURVE ( 'NONE', #231, #50, #296, .T. ) ;
#9 = DIRECTION ( 'NONE',  ( 0.000000000000000000, 0.000000000000000000, -1.000000000000000000 ) ) ;
#10 = UNCERTAINTY_MEASURE_WITH_UNIT (LENGTH_MEASURE( 1.000000000000000082E-05 ), #140, 'distance_accuracy_value', 'NONE');
#11 = DIRECTION ( 'NONE',  ( -0.000000000000000000, -0.000000000000000000, -1.000000000000000000 ) ) ;
#12 = CIRCLE ( 'NONE', #375, 2.490000000000000213 ) ;
#13 = PRODUCT_DEFINITION_FORMATION_WITH_SPECIFIED_SOURCE ( 'ANY', '', #48, .NOT_KNOWN. ) ;
#14 = DIRECTION ( 'NONE',  ( 1.000000000000000000, 0.000000000000000000, 0.000000000000000000 ) ) ;
#15 = CARTESIAN_POINT ( 'NONE',  ( 2.448999795835026028, -0.4500000000000000666, 4.700000000000000178 ) ) ;
#16 = ADVANCED_FACE ( 'NONE', ( #243 ), #149, .T. ) ;
#17 = VERTEX_POINT ( 'NONE', #270 ) ;
#18 = CARTESIAN_POINT ( 'NONE',  ( 2.500000000000000000, 0.000000000000000000, 0.000000000000000000 ) ) ;
#19 = ORIENTED_EDGE ( 'NONE', *, *, #368, .T. ) ;
#20 = EDGE_LOOP ( 'NONE', ( #37, #192, #139, #175 ) ) ;
#21 = ADVANCED_FACE ( 'NONE', ( #154 ), #120, .T. ) ;
#22 = ORIENTED_EDGE ( 'NONE', *, *, #57, .T. ) ;
#23 = COORDINATED_UNIVERSAL_TIME_OFFSET ( 8, 0, .AHEAD. ) ;
#24 = ORIENTED_EDGE ( 'NONE', *, *, #233, .F. ) ;
#25 = APPROVAL_DATE_TIME ( #60, #98 ) ;
#26 = VECTOR ( 'NONE', #67, 1000.000000000000000 ) ;
#27 = DIRECTION ( 'NONE',  ( 1.000000000000000000, 0.000000000000000000, 0.000000000000000000 ) ) ;
#28 = CARTESIAN_POINT ( 'NONE',  ( 0.000000000000000000, 0.000000000000000000, 6.000000000000000000 ) ) ;
#29 = EDGE_CURVE ( 'NONE', #260, #384, #302, .T. ) ;
#30 = CARTESIAN_POINT ( 'NONE',  ( 0.000000000000000000, 0.000000000000000000, -11.75000000000000000 ) ) ;
#31 = DATE_AND_TIME ( #55, #229 ) ;
#32 = CARTESIAN_POINT ( 'NONE',  ( 0.000000000000000000, 0.000000000000000000, 4.700000000000000178 ) ) ;
#33 = AXIS2_PLACEMENT_3D ( 'NONE', #185, #161, #43 ) ;
#34 = VECTOR ( 'NONE', #361, 1000.000000000000000 ) ;
#35 = LOCAL_TIME ( 11, 32, 55.00000000000000000, #91 ) ;
#36 = EDGE_CURVE ( 'NONE', #356, #347, #305, .T. ) ;
#37 = ORIENTED_EDGE ( 'NONE', *, *, #123, .F. ) ;
#38 = DIRECTION ( 'NONE',  ( -0.000000000000000000, -0.000000000000000000, 1.000000000000000000 ) ) ;
#39 = FACE_OUTER_BOUND ( 'NONE', #227, .T. ) ;
#40 = CIRCLE ( 'NONE', #157, 2.490000000000000213 ) ;
#41 = DIRECTION ( 'NONE',  ( -0.000000000000000000, 0.000000000000000000, 1.000000000000000000 ) ) ;
#42 = DIRECTION ( 'NONE',  ( -1.000000000000000000, 0.000000000000000000, 0.000000000000000000 ) ) ;
#43 = DIRECTION ( 'NONE',  ( -1.000000000000000000, 0.000000000000000000, 0.000000000000000000 ) ) ;
#44 = CIRCLE ( 'NONE', #318, 2.490000000000000213 ) ;
#45 = APPROVAL_PERSON_ORGANIZATION ( #97, #196, #178 ) ;
#46 = EDGE_CURVE ( 'NONE', #65, #144, #92, .T. ) ;
#47 = ORIENTED_EDGE ( 'NONE', *, *, #180, .T. ) ;
#48 = PRODUCT ( '\X2\5c0e67f1\X0\', '\X2\5c0e67f1\X0\', '', ( #257 ) ) ;
#49 = DIRECTION ( 'NONE',  ( -0.000000000000000000, 0.000000000000000000, 1.000000000000000000 ) ) ;
#50 = VERTEX_POINT ( 'NONE', #324 ) ;
#51 = ORIENTED_EDGE ( 'NONE', *, *, #333, .T. ) ;
#52 = VECTOR ( 'NONE', #239, 1000.000000000000000 ) ;
#53 = CARTESIAN_POINT ( 'NONE',  ( 2.490000000000000213, 3.049370529876909390E-16, 0.000000000000000000 ) ) ;
#54 = VERTEX_POINT ( 'NONE', #211 ) ;
#55 = CALENDAR_DATE ( 2026, 5, 6 ) ;
#56 = CARTESIAN_POINT ( 'NONE',  ( 5.366800753803250646E-17, -0.4500000000000002887, 6.000000000000000000 ) ) ;
#57 = EDGE_CURVE ( 'NONE', #179, #17, #95, .T. ) ;
#58 = AXIS2_PLACEMENT_3D ( 'NONE', #222, #11, #42 ) ;
#59 = ORIENTED_EDGE ( 'NONE', *, *, #299, .F. ) ;
#60 = DATE_AND_TIME ( #150, #35 ) ;
#61 = DIRECTION ( 'NONE',  ( -0.000000000000000000, -0.000000000000000000, 1.000000000000000000 ) ) ;
#62 = PERSON_AND_ORGANIZATION ( #313, #103 ) ;
#63 = DIRECTION ( 'NONE',  ( -1.000000000000000000, 0.000000000000000000, 0.000000000000000000 ) ) ;
#64 = EDGE_CURVE ( 'NONE', #84, #231, #181, .T. ) ;
#65 = VERTEX_POINT ( 'NONE', #301 ) ;
#66 = DIRECTION ( 'NONE',  ( -1.000000000000000000, 1.192622389734054877E-16, 0.000000000000000000 ) ) ;
#67 = DIRECTION ( 'NONE',  ( -0.000000000000000000, -0.000000000000000000, 1.000000000000000000 ) ) ;
#68 = CC_DESIGN_PERSON_AND_ORGANIZATION_ASSIGNMENT ( #242, #297, ( #281 ) ) ;
#69 = FACE_OUTER_BOUND ( 'NONE', #315, .T. ) ;
#70 = CIRCLE ( 'NONE', #228, 2.490000000000000213 ) ;
#71 = DIRECTION ( 'NONE',  ( -1.000000000000000000, -1.192622389734054877E-16, 0.000000000000000000 ) ) ;
#72 = CARTESIAN_POINT ( 'NONE',  ( -2.490000000000000213, 0.000000000000000000, 4.700000000000000178 ) ) ;
#73 = PLANE ( 'NONE',  #162 ) ;
#74 = EDGE_LOOP ( 'NONE', ( #349, #151 ) ) ;
#75 = VECTOR ( 'NONE', #86, 1000.000000000000000 ) ;
#76 = DIRECTION ( 'NONE',  ( 1.000000000000000000, 0.000000000000000000, 0.000000000000000000 ) ) ;
#77 = ORIENTED_EDGE ( 'NONE', *, *, #29, .F. ) ;
#78 = CARTESIAN_POINT ( 'NONE',  ( 0.000000000000000000, 0.000000000000000000, -11.75000000000000000 ) ) ;
#79 = EDGE_CURVE ( 'NONE', #231, #234, #108, .T. ) ;
#80 = ORIENTED_EDGE ( 'NONE', *, *, #64, .F. ) ;
#81 = DIRECTION ( 'NONE',  ( -0.000000000000000000, 0.000000000000000000, 1.000000000000000000 ) ) ;
#82 = ORIENTED_EDGE ( 'NONE', *, *, #79, .T. ) ;
#83 = AXIS2_PLACEMENT_3D ( 'NONE', #189, #363, #367 ) ;
#84 = VERTEX_POINT ( 'NONE', #357 ) ;
#85 = SECURITY_CLASSIFICATION_LEVEL ( 'unclassified' ) ;
#86 = DIRECTION ( 'NONE',  ( -1.000000000000000000, -1.192622389734054877E-16, 0.000000000000000000 ) ) ;
#87 = EDGE_CURVE ( 'NONE', #382, #144, #89, .T. ) ;
#88 = DATE_TIME_ROLE ( 'creation_date' ) ;
#89 = LINE ( 'NONE', #156, #6 ) ;
#90 = ORIENTED_EDGE ( 'NONE', *, *, #345, .T. ) ;
#91 = COORDINATED_UNIVERSAL_TIME_OFFSET ( 8, 0, .AHEAD. ) ;
#92 = LINE ( 'NONE', #56, #75 ) ;
#93 = CARTESIAN_POINT ( 'NONE',  ( 2.448999795835026028, -0.4500000000000000666, 4.700000000000000178 ) ) ;
#94 = CARTESIAN_POINT ( 'NONE',  ( 2.490000000000000213, 3.049370529876909390E-16, 4.700000000000000178 ) ) ;
#95 = CIRCLE ( 'NONE', #390, 2.500000000000000000 ) ;
#96 = DIRECTION ( 'NONE',  ( -1.000000000000000000, 1.192622389734054877E-16, 0.000000000000000000 ) ) ;
#97 = PERSON_AND_ORGANIZATION ( #313, #103 ) ;
#98 = APPROVAL ( #106, 'UNSPECIFIED' ) ;
#99 = DIRECTION ( 'NONE',  ( -1.000000000000000000, 0.000000000000000000, 0.000000000000000000 ) ) ;
#100 = PRODUCT_DEFINITION_SHAPE ( 'NONE', 'NONE',  #321 ) ;
#101 = LINE ( 'NONE', #7, #26 ) ;
#102 = CIRCLE ( 'NONE', #202, 2.500000000000000000 ) ;
#103 = ORGANIZATION ( 'UNSPECIFIED', 'UNSPECIFIED', '' ) ;
#104 = DIRECTION ( 'NONE',  ( 0.000000000000000000, 0.000000000000000000, 1.000000000000000000 ) ) ;
#105 = CC_DESIGN_PERSON_AND_ORGANIZATION_ASSIGNMENT ( #340, #288, ( #48 ) ) ;
#106 = APPROVAL_STATUS ( 'not_yet_approved' ) ;
#107 = ORIENTED_EDGE ( 'NONE', *, *, #29, .T. ) ;
#108 = CIRCLE ( 'NONE', #383, 2.490000000000000213 ) ;
#109 = FACE_OUTER_BOUND ( 'NONE', #224, .T. ) ;
#110 = EDGE_LOOP ( 'NONE', ( #126, #22 ) ) ;
#111 = CARTESIAN_POINT ( 'NONE',  ( 0.000000000000000000, 0.000000000000000000, 4.700000000000000178 ) ) ;
#112 = ORIENTED_EDGE ( 'NONE', *, *, #87, .F. ) ;
#113 = DIRECTION ( 'NONE',  ( 1.000000000000000000, 0.000000000000000000, 0.000000000000000000 ) ) ;
#114 = ORIENTED_EDGE ( 'NONE', *, *, #8, .F. ) ;
#115 = AXIS2_PLACEMENT_3D ( 'NONE', #28, #206, #278 ) ;
#116 = COORDINATED_UNIVERSAL_TIME_OFFSET ( 8, 0, .AHEAD. ) ;
#117 = ORIENTED_EDGE ( 'NONE', *, *, #233, .T. ) ;
#118 = ADVANCED_FACE ( 'NONE', ( #277 ), #1, .T. ) ;
#119 = PERSON_AND_ORGANIZATION_ROLE ( 'creator' ) ;
#120 = PLANE ( 'NONE',  #115 ) ;
#121 = COORDINATED_UNIVERSAL_TIME_OFFSET ( 8, 0, .AHEAD. ) ;
#122 = CARTESIAN_POINT ( 'NONE',  ( 5.366800753803250646E-17, 0.4500000000000002887, 4.700000000000000178 ) ) ;
#123 = EDGE_CURVE ( 'NONE', #179, #356, #334, .T. ) ;
#124 = PERSON_AND_ORGANIZATION ( #313, #103 ) ;
#125 = CIRCLE ( 'NONE', #370, 2.490000000000000213 ) ;
#126 = ORIENTED_EDGE ( 'NONE', *, *, #152, .T. ) ;
#127 = EDGE_LOOP ( 'NONE', ( #267, #107, #117, #362, #172, #268, #265, #293 ) ) ;
#128 = CARTESIAN_POINT ( 'NONE',  ( 5.366800753803250646E-17, -0.4500000000000002887, 4.700000000000000178 ) ) ;
#129 = DIRECTION ( 'NONE',  ( -1.000000000000000000, -1.192622389734054877E-16, 0.000000000000000000 ) ) ;
#130 = AXIS2_PLACEMENT_3D ( 'NONE', #247, #216, #129 ) ;
#131 = CARTESIAN_POINT ( 'NONE',  ( -2.448999795835026028, 0.4500000000000005662, 4.700000000000000178 ) ) ;
#132 = CARTESIAN_POINT ( 'NONE',  ( -2.500000000000000000, 3.061616997868383141E-16, -11.75000000000000000 ) ) ;
#133 = CC_DESIGN_DATE_AND_TIME_ASSIGNMENT ( #31, #88, ( #321 ) ) ;
#134 = CYLINDRICAL_SURFACE ( 'NONE', #33, 2.490000000000000213 ) ;
#135 = AXIS2_PLACEMENT_3D ( 'NONE', #376, #343, #348 ) ;
#136 = LOCAL_TIME ( 11, 32, 55.00000000000000000, #23 ) ;
#137 = APPLICATION_PROTOCOL_DEFINITION ( 'international standard', 'config_control_design', 1994, #276 ) ;
#138 = APPLICATION_PROTOCOL_DEFINITION ( 'international standard', 'config_control_design', 1994, #350 ) ;
#139 = ORIENTED_EDGE ( 'NONE', *, *, #173, .T. ) ;
#140 =( LENGTH_UNIT ( ) NAMED_UNIT ( * ) SI_UNIT ( .MILLI., .METRE. ) );
#141 = EDGE_LOOP ( 'NONE', ( #386, #359, #148, #236 ) ) ;
#142 = VECTOR ( 'NONE', #279, 1000.000000000000000 ) ;
#143 =( NAMED_UNIT ( * ) SI_UNIT ( $, .STERADIAN. ) SOLID_ANGLE_UNIT ( ) );
#144 = VERTEX_POINT ( 'NONE', #303 ) ;
#145 = CARTESIAN_POINT ( 'NONE',  ( 0.000000000000000000, 0.000000000000000000, 0.000000000000000000 ) ) ;
#146 = ORIENTED_EDGE ( 'NONE', *, *, #299, .T. ) ;
#147 = EDGE_CURVE ( 'NONE', #234, #377, #160, .T. ) ;
#148 = ORIENTED_EDGE ( 'NONE', *, *, #2, .F. ) ;
#149 = CYLINDRICAL_SURFACE ( 'NONE', #237, 2.500000000000000000 ) ;
#150 = CALENDAR_DATE ( 2026, 5, 6 ) ;
#151 = ORIENTED_EDGE ( 'NONE', *, *, #46, .T. ) ;
#152 = EDGE_CURVE ( 'NONE', #17, #179, #102, .T. ) ;
#153 = CALENDAR_DATE ( 2026, 5, 6 ) ;
#154 = FACE_OUTER_BOUND ( 'NONE', #74, .T. ) ;
#155 = VECTOR ( 'NONE', #230, 1000.000000000000000 ) ;
#156 = CARTESIAN_POINT ( 'NONE',  ( -2.448999795835026028, -0.4500000000000005662, 6.000000000000000000 ) ) ;
#157 = AXIS2_PLACEMENT_3D ( 'NONE', #111, #49, #266 ) ;
#158 = DIRECTION ( 'NONE',  ( 1.000000000000000000, 0.000000000000000000, 0.000000000000000000 ) ) ;
#159 = EDGE_CURVE ( 'NONE', #144, #65, #70, .T. ) ;
#160 = LINE ( 'NONE', #337, #142 ) ;
#161 = DIRECTION ( 'NONE',  ( -0.000000000000000000, -0.000000000000000000, -1.000000000000000000 ) ) ;
#162 = AXIS2_PLACEMENT_3D ( 'NONE', #78, #264, #198 ) ;
#163 = DIRECTION ( 'NONE',  ( 1.192622389734054877E-16, 1.000000000000000000, 0.000000000000000000 ) ) ;
#164 = EDGE_CURVE ( 'NONE', #292, #382, #339, .T. ) ;
#165 = CARTESIAN_POINT ( 'NONE',  ( 5.366800753803250646E-17, 0.4500000000000002887, 4.700000000000000178 ) ) ;
#166 = CYLINDRICAL_SURFACE ( 'NONE', #263, 2.500000000000000000 ) ;
#167 = CLOSED_SHELL ( 'NONE', ( #16, #209, #246, #21, #326, #286, #118, #213, #201, #354, #252 ) ) ;
#168 = EDGE_LOOP ( 'NONE', ( #330, #317, #205, #374 ) ) ;
#169 = DIRECTION ( 'NONE',  ( 0.000000000000000000, 0.000000000000000000, 1.000000000000000000 ) ) ;
#170 = ORIENTED_EDGE ( 'NONE', *, *, #159, .F. ) ;
#171 =( NAMED_UNIT ( * ) PLANE_ANGLE_UNIT ( ) SI_UNIT ( $, .RADIAN. ) );
#172 = ORIENTED_EDGE ( 'NONE', *, *, #79, .F. ) ;
#173 = EDGE_CURVE ( 'NONE', #17, #347, #101, .T. ) ;
#174 = SHAPE_DEFINITION_REPRESENTATION ( #100, #190 ) ;
#175 = ORIENTED_EDGE ( 'NONE', *, *, #275, .T. ) ;
#176 = CARTESIAN_POINT ( 'NONE',  ( 0.000000000000000000, 0.000000000000000000, -11.75000000000000000 ) ) ;
#177 = ORIENTED_EDGE ( 'NONE', *, *, #36, .F. ) ;
#178 = APPROVAL_ROLE ( '' ) ;
#179 = VERTEX_POINT ( 'NONE', #132 ) ;
#180 = EDGE_CURVE ( 'NONE', #54, #50, #188, .T. ) ;
#181 = LINE ( 'NONE', #122, #187 ) ;
#182 = VECTOR ( 'NONE', #38, 1000.000000000000000 ) ;
#183 = ORIENTED_EDGE ( 'NONE', *, *, #275, .F. ) ;
#184 = CARTESIAN_POINT ( 'NONE',  ( 0.000000000000000000, 0.000000000000000000, -11.75000000000000000 ) ) ;
#185 = CARTESIAN_POINT ( 'NONE',  ( 0.000000000000000000, 0.000000000000000000, 6.000000000000000000 ) ) ;
#186 = DIRECTION ( 'NONE',  ( 0.000000000000000000, 0.000000000000000000, -1.000000000000000000 ) ) ;
#187 = VECTOR ( 'NONE', #295, 1000.000000000000000 ) ;
#188 = LINE ( 'NONE', #308, #220 ) ;
#189 = CARTESIAN_POINT ( 'NONE',  ( 0.000000000000000000, 0.000000000000000000, 0.000000000000000000 ) ) ;
#190 = ADVANCED_BREP_SHAPE_REPRESENTATION ( '\X2\5c0e67f1\X0\', ( #4, #203 ), #371 ) ;
#191 = CARTESIAN_POINT ( 'NONE',  ( -2.490000000000000213, 0.000000000000000000, 0.000000000000000000 ) ) ;
#192 = ORIENTED_EDGE ( 'NONE', *, *, #152, .F. ) ;
#193 = AXIS2_PLACEMENT_3D ( 'NONE', #389, #322, #388 ) ;
#194 = APPROVAL_PERSON_ORGANIZATION ( #385, #381, #355 ) ;
#195 = DESIGN_CONTEXT ( 'detailed design', #350, 'design' ) ;
#196 = APPROVAL ( #240, 'UNSPECIFIED' ) ;
#197 = ORIENTED_EDGE ( 'NONE', *, *, #364, .T. ) ;
#198 = DIRECTION ( 'NONE',  ( -1.000000000000000000, 0.000000000000000000, -0.000000000000000000 ) ) ;
#199 = CARTESIAN_POINT ( 'NONE',  ( 0.000000000000000000, 0.000000000000000000, 4.700000000000000178 ) ) ;
#200 = EDGE_LOOP ( 'NONE', ( #80, #90, #47, #114 ) ) ;
#201 = ADVANCED_FACE ( 'NONE', ( #255 ), #166, .T. ) ;
#202 = AXIS2_PLACEMENT_3D ( 'NONE', #284, #9, #332 ) ;
#203 = AXIS2_PLACEMENT_3D ( 'NONE', #287, #319, #14 ) ;
#204 = PLANE ( 'NONE',  #135 ) ;
#205 = ORIENTED_EDGE ( 'NONE', *, *, #36, .T. ) ;
#206 = DIRECTION ( 'NONE',  ( 0.000000000000000000, 0.000000000000000000, 1.000000000000000000 ) ) ;
#207 = DATE_AND_TIME ( #153, #221 ) ;
#208 = DIRECTION ( 'NONE',  ( 0.000000000000000000, 0.000000000000000000, 1.000000000000000000 ) ) ;
#209 = ADVANCED_FACE ( 'NONE', ( #282 ), #253, .T. ) ;
#210 = ORIENTED_EDGE ( 'NONE', *, *, #64, .T. ) ;
#211 = CARTESIAN_POINT ( 'NONE',  ( 2.448999795835026028, 0.4500000000000000666, 6.000000000000000000 ) ) ;
#212 = CARTESIAN_POINT ( 'NONE',  ( -2.448999795835026028, 0.4500000000000005662, 6.000000000000000000 ) ) ;
#213 = ADVANCED_FACE ( 'NONE', ( #372 ), #366, .F. ) ;
#214 = CC_DESIGN_APPROVAL ( #98, ( #321 ) ) ;
#215 = CARTESIAN_POINT ( 'NONE',  ( 0.000000000000000000, 0.000000000000000000, 0.000000000000000000 ) ) ;
#216 = DIRECTION ( 'NONE',  ( -1.192622389734054877E-16, 1.000000000000000000, 0.000000000000000000 ) ) ;
#217 = APPROVAL_DATE_TIME ( #358, #196 ) ;
#218 = FACE_OUTER_BOUND ( 'NONE', #298, .T. ) ;
#219 = DIRECTION ( 'NONE',  ( 0.000000000000000000, 0.000000000000000000, 1.000000000000000000 ) ) ;
#220 = VECTOR ( 'NONE', #66, 1000.000000000000000 ) ;
#221 = LOCAL_TIME ( 11, 32, 55.00000000000000000, #121 ) ;
#222 = CARTESIAN_POINT ( 'NONE',  ( 0.000000000000000000, 0.000000000000000000, 6.000000000000000000 ) ) ;
#223 = CARTESIAN_POINT ( 'NONE',  ( 2.448999795835026028, 0.4500000000000000666, 4.700000000000000178 ) ) ;
#224 = EDGE_LOOP ( 'NONE', ( #312, #197 ) ) ;
#225 = CC_DESIGN_DATE_AND_TIME_ASSIGNMENT ( #391, #335, ( #281 ) ) ;
#226 = APPROVAL_ROLE ( '' ) ;
#227 = EDGE_LOOP ( 'NONE', ( #77, #327, #291, #170, #112, #379, #262, #146 ) ) ;
#228 = AXIS2_PLACEMENT_3D ( 'NONE', #310, #219, #250 ) ;
#229 = LOCAL_TIME ( 11, 32, 55.00000000000000000, #116 ) ;
#230 = DIRECTION ( 'NONE',  ( -0.000000000000000000, -0.000000000000000000, 1.000000000000000000 ) ) ;
#231 = VERTEX_POINT ( 'NONE', #131 ) ;
#232 = DIRECTION ( 'NONE',  ( -0.000000000000000000, 0.000000000000000000, 1.000000000000000000 ) ) ;
#233 = EDGE_CURVE ( 'NONE', #384, #377, #125, .T. ) ;
#234 = VERTEX_POINT ( 'NONE', #72 ) ;
#235 = LINE ( 'NONE', #223, #155 ) ;
#236 = ORIENTED_EDGE ( 'NONE', *, *, #164, .T. ) ;
#237 = AXIS2_PLACEMENT_3D ( 'NONE', #30, #245, #158 ) ;
#238 = CALENDAR_DATE ( 2026, 5, 6 ) ;
#239 = DIRECTION ( 'NONE',  ( -0.000000000000000000, -0.000000000000000000, -1.000000000000000000 ) ) ;
#240 = APPROVAL_STATUS ( 'not_yet_approved' ) ;
#241 = DIRECTION ( 'NONE',  ( -0.000000000000000000, 0.000000000000000000, 1.000000000000000000 ) ) ;
#242 = PERSON_AND_ORGANIZATION ( #313, #103 ) ;
#243 = FACE_OUTER_BOUND ( 'NONE', #168, .T. ) ;
#244 = PERSON_AND_ORGANIZATION_ROLE ( 'creator' ) ;
#245 = DIRECTION ( 'NONE',  ( -0.000000000000000000, -0.000000000000000000, 1.000000000000000000 ) ) ;
#246 = ADVANCED_FACE ( 'NONE', ( #39 ), #134, .T. ) ;
#247 = CARTESIAN_POINT ( 'NONE',  ( 5.366800753803250646E-17, -0.4500000000000002887, 4.700000000000000178 ) ) ;
#248 = PLANE ( 'NONE',  #83 ) ;
#249 = AXIS2_PLACEMENT_3D ( 'NONE', #165, #163, #96 ) ;
#250 = DIRECTION ( 'NONE',  ( 1.000000000000000000, 0.000000000000000000, 0.000000000000000000 ) ) ;
#251 = FACE_BOUND ( 'NONE', #341, .T. ) ;
#252 = ADVANCED_FACE ( 'NONE', ( #251, #218 ), #248, .F. ) ;
#253 = CYLINDRICAL_SURFACE ( 'NONE', #58, 2.490000000000000213 ) ;
#254 = CIRCLE ( 'NONE', #352, 2.500000000000000000 ) ;
#255 = FACE_OUTER_BOUND ( 'NONE', #20, .T. ) ;
#256 = LOCAL_TIME ( 11, 32, 55.00000000000000000, #328 ) ;
#257 = MECHANICAL_CONTEXT ( 'NONE', #276, 'mechanical' ) ;
#258 = PRODUCT_RELATED_PRODUCT_CATEGORY ( 'detail', '', ( #48 ) ) ;
#259 = PERSON_AND_ORGANIZATION ( #313, #103 ) ;
#260 = VERTEX_POINT ( 'NONE', #94 ) ;
#261 = DIRECTION ( 'NONE',  ( 1.000000000000000000, 0.000000000000000000, 0.000000000000000000 ) ) ;
#262 = ORIENTED_EDGE ( 'NONE', *, *, #147, .T. ) ;
#263 = AXIS2_PLACEMENT_3D ( 'NONE', #184, #5, #304 ) ;
#264 = DIRECTION ( 'NONE',  ( 0.000000000000000000, 0.000000000000000000, -1.000000000000000000 ) ) ;
#265 = ORIENTED_EDGE ( 'NONE', *, *, #364, .F. ) ;
#266 = DIRECTION ( 'NONE',  ( 1.000000000000000000, 0.000000000000000000, 0.000000000000000000 ) ) ;
#267 = ORIENTED_EDGE ( 'NONE', *, *, #309, .F. ) ;
#268 = ORIENTED_EDGE ( 'NONE', *, *, #8, .T. ) ;
#269 = CIRCLE ( 'NONE', #325, 2.490000000000000213 ) ;
#270 = CARTESIAN_POINT ( 'NONE',  ( 2.500000000000000000, 0.000000000000000000, -11.75000000000000000 ) ) ;
#271 = APPROVAL_DATE_TIME ( #207, #381 ) ;
#272 = LINE ( 'NONE', #93, #311 ) ;
#273 = CARTESIAN_POINT ( 'NONE',  ( 2.490000000000000213, 3.049370529876909390E-16, 6.000000000000000000 ) ) ;
#274 = AXIS2_PLACEMENT_3D ( 'NONE', #307, #41, #76 ) ;
#275 = EDGE_CURVE ( 'NONE', #347, #356, #254, .T. ) ;
#276 = APPLICATION_CONTEXT ( 'configuration controlled 3d designs of mechanical parts and assemblies' ) ;
#277 = FACE_OUTER_BOUND ( 'NONE', #141, .T. ) ;
#278 = DIRECTION ( 'NONE',  ( 1.000000000000000000, 0.000000000000000000, -0.000000000000000000 ) ) ;
#279 = DIRECTION ( 'NONE',  ( -0.000000000000000000, -0.000000000000000000, -1.000000000000000000 ) ) ;
#280 = AXIS2_PLACEMENT_3D ( 'NONE', #380, #232, #261 ) ;
#281 = SECURITY_CLASSIFICATION ( '', '', #85 ) ;
#282 = FACE_OUTER_BOUND ( 'NONE', #127, .T. ) ;
#283 = CC_DESIGN_PERSON_AND_ORGANIZATION_ASSIGNMENT ( #62, #119, ( #321 ) ) ;
#284 = CARTESIAN_POINT ( 'NONE',  ( 0.000000000000000000, 0.000000000000000000, -11.75000000000000000 ) ) ;
#285 = CARTESIAN_POINT ( 'NONE',  ( 0.000000000000000000, 0.000000000000000000, 0.000000000000000000 ) ) ;
#286 = ADVANCED_FACE ( 'NONE', ( #69 ), #336, .T. ) ;
#287 = CARTESIAN_POINT ( 'NONE',  ( 0.000000000000000000, 0.000000000000000000, 0.000000000000000000 ) ) ;
#288 = PERSON_AND_ORGANIZATION_ROLE ( 'design_owner' ) ;
#289 = ORIENTED_EDGE ( 'NONE', *, *, #164, .F. ) ;
#290 = DIRECTION ( 'NONE',  ( 1.000000000000000000, 0.000000000000000000, 0.000000000000000000 ) ) ;
#291 = ORIENTED_EDGE ( 'NONE', *, *, #2, .T. ) ;
#292 = VERTEX_POINT ( 'NONE', #15 ) ;
#293 = ORIENTED_EDGE ( 'NONE', *, *, #345, .F. ) ;
#294 = CC_DESIGN_PERSON_AND_ORGANIZATION_ASSIGNMENT ( #360, #323, ( #13 ) ) ;
#295 = DIRECTION ( 'NONE',  ( -1.000000000000000000, 1.192622389734054877E-16, 0.000000000000000000 ) ) ;
#296 = LINE ( 'NONE', #212, #34 ) ;
#297 = PERSON_AND_ORGANIZATION_ROLE ( 'classification_officer' ) ;
#298 = EDGE_LOOP ( 'NONE', ( #183, #177 ) ) ;
#299 = EDGE_CURVE ( 'NONE', #377, #384, #44, .T. ) ;
#300 = CALENDAR_DATE ( 2026, 5, 6 ) ;
#301 = CARTESIAN_POINT ( 'NONE',  ( 2.448999795835026028, -0.4500000000000000666, 6.000000000000000000 ) ) ;
#302 = LINE ( 'NONE', #273, #52 ) ;
#303 = CARTESIAN_POINT ( 'NONE',  ( -2.448999795835026028, -0.4500000000000005662, 6.000000000000000000 ) ) ;
#304 = DIRECTION ( 'NONE',  ( 1.000000000000000000, 0.000000000000000000, 0.000000000000000000 ) ) ;
#305 = CIRCLE ( 'NONE', #193, 2.500000000000000000 ) ;
#306 = APPROVAL_PERSON_ORGANIZATION ( #259, #98, #226 ) ;
#307 = CARTESIAN_POINT ( 'NONE',  ( 0.000000000000000000, 0.000000000000000000, 4.700000000000000178 ) ) ;
#308 = CARTESIAN_POINT ( 'NONE',  ( 5.366800753803250646E-17, 0.4500000000000002887, 6.000000000000000000 ) ) ;
#309 = EDGE_CURVE ( 'NONE', #260, #84, #342, .T. ) ;
#310 = CARTESIAN_POINT ( 'NONE',  ( 0.000000000000000000, 0.000000000000000000, 6.000000000000000000 ) ) ;
#311 = VECTOR ( 'NONE', #61, 1000.000000000000000 ) ;
#312 = ORIENTED_EDGE ( 'NONE', *, *, #180, .F. ) ;
#313 = PERSON ( 'UNSPECIFIED', 'UNSPECIFIED', 'UNSPECIFIED', ('UNSPECIFIED'), ('UNSPECIFIED'), ('UNSPECIFIED') ) ;
#314 = CARTESIAN_POINT ( 'NONE',  ( 0.000000000000000000, 0.000000000000000000, 6.000000000000000000 ) ) ;
#315 = EDGE_LOOP ( 'NONE', ( #82, #19, #289, #51, #320, #210 ) ) ;
#316 = DIRECTION ( 'NONE',  ( 1.000000000000000000, 0.000000000000000000, 0.000000000000000000 ) ) ;
#317 = ORIENTED_EDGE ( 'NONE', *, *, #123, .T. ) ;
#318 = AXIS2_PLACEMENT_3D ( 'NONE', #145, #373, #113 ) ;
#319 = DIRECTION ( 'NONE',  ( 0.000000000000000000, 0.000000000000000000, 1.000000000000000000 ) ) ;
#320 = ORIENTED_EDGE ( 'NONE', *, *, #309, .T. ) ;
#321 = PRODUCT_DEFINITION ( 'UNKNOWN', '', #13, #195 ) ;
#322 = DIRECTION ( 'NONE',  ( 0.000000000000000000, 0.000000000000000000, -1.000000000000000000 ) ) ;
#323 = PERSON_AND_ORGANIZATION_ROLE ( 'design_supplier' ) ;
#324 = CARTESIAN_POINT ( 'NONE',  ( -2.448999795835026028, 0.4500000000000005662, 6.000000000000000000 ) ) ;
#325 = AXIS2_PLACEMENT_3D ( 'NONE', #199, #81, #316 ) ;
#326 = ADVANCED_FACE ( 'NONE', ( #109 ), #204, .T. ) ;
#327 = ORIENTED_EDGE ( 'NONE', *, *, #333, .F. ) ;
#328 = COORDINATED_UNIVERSAL_TIME_OFFSET ( 8, 0, .AHEAD. ) ;
#329 = DIRECTION ( 'NONE',  ( 0.000000000000000000, 0.000000000000000000, -1.000000000000000000 ) ) ;
#330 = ORIENTED_EDGE ( 'NONE', *, *, #57, .F. ) ;
#331 = CC_DESIGN_SECURITY_CLASSIFICATION ( #281, ( #13 ) ) ;
#332 = DIRECTION ( 'NONE',  ( -1.000000000000000000, 0.000000000000000000, 0.000000000000000000 ) ) ;
#333 = EDGE_CURVE ( 'NONE', #292, #260, #269, .T. ) ;
#334 = LINE ( 'NONE', #369, #182 ) ;
#335 = DATE_TIME_ROLE ( 'classification_date' ) ;
#336 = PLANE ( 'NONE',  #274 ) ;
#337 = CARTESIAN_POINT ( 'NONE',  ( -2.490000000000000213, 0.000000000000000000, 6.000000000000000000 ) ) ;
#338 = CC_DESIGN_PERSON_AND_ORGANIZATION_ASSIGNMENT ( #124, #244, ( #13 ) ) ;
#339 = LINE ( 'NONE', #128, #365 ) ;
#340 = PERSON_AND_ORGANIZATION ( #313, #103 ) ;
#341 = EDGE_LOOP ( 'NONE', ( #59, #24 ) ) ;
#342 = CIRCLE ( 'NONE', #280, 2.490000000000000213 ) ;
#343 = DIRECTION ( 'NONE',  ( 0.000000000000000000, 0.000000000000000000, 1.000000000000000000 ) ) ;
#344 = CC_DESIGN_APPROVAL ( #381, ( #13 ) ) ;
#345 = EDGE_CURVE ( 'NONE', #84, #54, #235, .T. ) ;
#346 = FACE_OUTER_BOUND ( 'NONE', #110, .T. ) ;
#347 = VERTEX_POINT ( 'NONE', #18 ) ;
#348 = DIRECTION ( 'NONE',  ( 1.000000000000000000, 0.000000000000000000, -0.000000000000000000 ) ) ;
#349 = ORIENTED_EDGE ( 'NONE', *, *, #159, .T. ) ;
#350 = APPLICATION_CONTEXT ( 'configuration controlled 3d designs of mechanical parts and assemblies' ) ;
#351 = CARTESIAN_POINT ( 'NONE',  ( -2.500000000000000000, 3.061616997868383141E-16, 0.000000000000000000 ) ) ;
#352 = AXIS2_PLACEMENT_3D ( 'NONE', #215, #186, #99 ) ;
#353 = CC_DESIGN_APPROVAL ( #196, ( #281 ) ) ;
#354 = ADVANCED_FACE ( 'NONE', ( #346 ), #73, .T. ) ;
#355 = APPROVAL_ROLE ( '' ) ;
#356 = VERTEX_POINT ( 'NONE', #351 ) ;
#357 = CARTESIAN_POINT ( 'NONE',  ( 2.448999795835026028, 0.4500000000000000666, 4.700000000000000178 ) ) ;
#358 = DATE_AND_TIME ( #300, #136 ) ;
#359 = ORIENTED_EDGE ( 'NONE', *, *, #46, .F. ) ;
#360 = PERSON_AND_ORGANIZATION ( #313, #103 ) ;
#361 = DIRECTION ( 'NONE',  ( 0.000000000000000000, 0.000000000000000000, 1.000000000000000000 ) ) ;
#362 = ORIENTED_EDGE ( 'NONE', *, *, #147, .F. ) ;
#363 = DIRECTION ( 'NONE',  ( 0.000000000000000000, 0.000000000000000000, -1.000000000000000000 ) ) ;
#364 = EDGE_CURVE ( 'NONE', #54, #50, #12, .T. ) ;
#365 = VECTOR ( 'NONE', #71, 1000.000000000000000 ) ;
#366 = PLANE ( 'NONE',  #249 ) ;
#367 = DIRECTION ( 'NONE',  ( -1.000000000000000000, 0.000000000000000000, -0.000000000000000000 ) ) ;
#368 = EDGE_CURVE ( 'NONE', #234, #382, #40, .T. ) ;
#369 = CARTESIAN_POINT ( 'NONE',  ( -2.500000000000000000, 3.061616997868383141E-16, -11.75000000000000000 ) ) ;
#370 = AXIS2_PLACEMENT_3D ( 'NONE', #285, #104, #3 ) ;
#371 =( GEOMETRIC_REPRESENTATION_CONTEXT ( 3 ) GLOBAL_UNCERTAINTY_ASSIGNED_CONTEXT ( ( #10 ) ) GLOBAL_UNIT_ASSIGNED_CONTEXT ( ( #140, #171, #143 ) ) REPRESENTATION_CONTEXT ( 'NONE', 'WORKASPACE' ) );
#372 = FACE_OUTER_BOUND ( 'NONE', #200, .T. ) ;
#373 = DIRECTION ( 'NONE',  ( 0.000000000000000000, 0.000000000000000000, 1.000000000000000000 ) ) ;
#374 = ORIENTED_EDGE ( 'NONE', *, *, #173, .F. ) ;
#375 = AXIS2_PLACEMENT_3D ( 'NONE', #314, #169, #290 ) ;
#376 = CARTESIAN_POINT ( 'NONE',  ( 0.000000000000000000, 0.000000000000000000, 6.000000000000000000 ) ) ;
#377 = VERTEX_POINT ( 'NONE', #191 ) ;
#378 = CARTESIAN_POINT ( 'NONE',  ( -2.448999795835026028, -0.4500000000000005662, 4.700000000000000178 ) ) ;
#379 = ORIENTED_EDGE ( 'NONE', *, *, #368, .F. ) ;
#380 = CARTESIAN_POINT ( 'NONE',  ( 0.000000000000000000, 0.000000000000000000, 4.700000000000000178 ) ) ;
#381 = APPROVAL ( #387, 'UNSPECIFIED' ) ;
#382 = VERTEX_POINT ( 'NONE', #378 ) ;
#383 = AXIS2_PLACEMENT_3D ( 'NONE', #32, #241, #27 ) ;
#384 = VERTEX_POINT ( 'NONE', #53 ) ;
#385 = PERSON_AND_ORGANIZATION ( #313, #103 ) ;
#386 = ORIENTED_EDGE ( 'NONE', *, *, #87, .T. ) ;
#387 = APPROVAL_STATUS ( 'not_yet_approved' ) ;
#388 = DIRECTION ( 'NONE',  ( -1.000000000000000000, 0.000000000000000000, 0.000000000000000000 ) ) ;
#389 = CARTESIAN_POINT ( 'NONE',  ( 0.000000000000000000, 0.000000000000000000, 0.000000000000000000 ) ) ;
#390 = AXIS2_PLACEMENT_3D ( 'NONE', #176, #329, #63 ) ;
#391 = DATE_AND_TIME ( #238, #256 ) ;
ENDSEC;
END-ISO-10303-21;
