ISO-10303-21;
HEADER;
FILE_DESCRIPTION (( 'STEP AP203' ),
    '1' );
FILE_NAME ('µu¾É¬W.step',
    '2026-06-05T03:32:56',
    ( '' ),
    ( '' ),
    'SwSTEP 2.0',
    'SolidWorks 2024',
    '' );
FILE_SCHEMA (( 'CONFIG_CONTROL_DESIGN' ));
ENDSEC;

DATA;
#1 = ORIENTED_EDGE ( 'NONE', *, *, #332, .F. ) ;
#2 = EDGE_CURVE ( 'NONE', #204, #92, #262, .T. ) ;
#3 = CARTESIAN_POINT ( 'NONE',  ( 2.490000000000000213, 3.049370529876909390E-16, 4.700000000000000178 ) ) ;
#4 = CARTESIAN_POINT ( 'NONE',  ( 0.000000000000000000, 0.000000000000000000, 0.000000000000000000 ) ) ;
#5 = MANIFOLD_SOLID_BREP ( '¶ñ®Æ-¦ùªø2', #201 ) ;
#6 = AXIS2_PLACEMENT_3D ( 'NONE', #273, #122, #112 ) ;
#7 = DIRECTION ( 'NONE',  ( -1.000000000000000000, 0.000000000000000000, 0.000000000000000000 ) ) ;
#8 = ADVANCED_FACE ( 'NONE', ( #65 ), #57, .T. ) ;
#9 = FACE_OUTER_BOUND ( 'NONE', #74, .T. ) ;
#10 = DIRECTION ( 'NONE',  ( 1.000000000000000000, 0.000000000000000000, 0.000000000000000000 ) ) ;
#11 = LOCAL_TIME ( 11, 32, 56.00000000000000000, #266 ) ;
#12 = AXIS2_PLACEMENT_3D ( 'NONE', #365, #307, #7 ) ;
#13 = MECHANICAL_CONTEXT ( 'NONE', #113, 'mechanical' ) ;
#14 = CARTESIAN_POINT ( 'NONE',  ( 0.000000000000000000, 0.000000000000000000, 0.000000000000000000 ) ) ;
#15 = ADVANCED_FACE ( 'NONE', ( #144 ), #143, .T. ) ;
#16 = ORIENTED_EDGE ( 'NONE', *, *, #346, .T. ) ;
#17 = DIRECTION ( 'NONE',  ( -1.000000000000000000, 0.000000000000000000, 0.000000000000000000 ) ) ;
#18 = VERTEX_POINT ( 'NONE', #61 ) ;
#19 = VECTOR ( 'NONE', #367, 1000.000000000000000 ) ;
#20 = AXIS2_PLACEMENT_3D ( 'NONE', #175, #294, #31 ) ;
#21 = CARTESIAN_POINT ( 'NONE',  ( 0.000000000000000000, 0.000000000000000000, 0.000000000000000000 ) ) ;
#22 = ORIENTED_EDGE ( 'NONE', *, *, #78, .F. ) ;
#23 = EDGE_CURVE ( 'NONE', #239, #259, #99, .T. ) ;
#24 = CARTESIAN_POINT ( 'NONE',  ( 2.500000000000000000, 0.000000000000000000, 0.000000000000000000 ) ) ;
#25 = ORIENTED_EDGE ( 'NONE', *, *, #362, .T. ) ;
#26 = ORIENTED_EDGE ( 'NONE', *, *, #78, .T. ) ;
#27 = SECURITY_CLASSIFICATION_LEVEL ( 'unclassified' ) ;
#28 = AXIS2_PLACEMENT_3D ( 'NONE', #385, #358, #210 ) ;
#29 = CARTESIAN_POINT ( 'NONE',  ( -2.448999795835026028, -0.4499999999999996780, 6.000000000000000000 ) ) ;
#30 = DATE_TIME_ROLE ( 'creation_date' ) ;
#31 = DIRECTION ( 'NONE',  ( 1.000000000000000000, 0.000000000000000000, -0.000000000000000000 ) ) ;
#32 = EDGE_CURVE ( 'NONE', #135, #372, #165, .T. ) ;
#33 = PERSON ( 'UNSPECIFIED', 'UNSPECIFIED', 'UNSPECIFIED', ('UNSPECIFIED'), ('UNSPECIFIED'), ('UNSPECIFIED') ) ;
#34 = APPROVAL_DATE_TIME ( #235, #339 ) ;
#35 = ORIENTED_EDGE ( 'NONE', *, *, #346, .F. ) ;
#36 = APPROVAL_ROLE ( '' ) ;
#37 = ORIENTED_EDGE ( 'NONE', *, *, #301, .F. ) ;
#38 = AXIS2_PLACEMENT_3D ( 'NONE', #249, #331, #184 ) ;
#39 = ORIENTED_EDGE ( 'NONE', *, *, #63, .T. ) ;
#40 = DIRECTION ( 'NONE',  ( 1.000000000000000000, 0.000000000000000000, 0.000000000000000000 ) ) ;
#41 = FACE_OUTER_BOUND ( 'NONE', #89, .T. ) ;
#42 = CARTESIAN_POINT ( 'NONE',  ( 2.448999795835026028, -0.4499999999999996780, 6.000000000000000000 ) ) ;
#43 = PRODUCT ( '\X2\77ed5c0e67f1\X0\', '\X2\77ed5c0e67f1\X0\', '', ( #13 ) ) ;
#44 = EDGE_CURVE ( 'NONE', #264, #223, #245, .T. ) ;
#45 = PLANE ( 'NONE',  #303 ) ;
#46 = FACE_OUTER_BOUND ( 'NONE', #261, .T. ) ;
#47 = ORIENTED_EDGE ( 'NONE', *, *, #168, .T. ) ;
#48 = ORIENTED_EDGE ( 'NONE', *, *, #265, .T. ) ;
#49 = DIRECTION ( 'NONE',  ( -0.000000000000000000, -0.000000000000000000, 1.000000000000000000 ) ) ;
#50 = VERTEX_POINT ( 'NONE', #298 ) ;
#51 = UNCERTAINTY_MEASURE_WITH_UNIT (LENGTH_MEASURE( 1.000000000000000082E-05 ), #195, 'distance_accuracy_value', 'NONE');
#52 = LINE ( 'NONE', #350, #390 ) ;
#53 = ORIENTED_EDGE ( 'NONE', *, *, #207, .T. ) ;
#54 = DIRECTION ( 'NONE',  ( 1.000000000000000000, 0.000000000000000000, 0.000000000000000000 ) ) ;
#55 = ORIENTED_EDGE ( 'NONE', *, *, #366, .T. ) ;
#56 = PERSON_AND_ORGANIZATION ( #33, #181 ) ;
#57 = PLANE ( 'NONE',  #158 ) ;
#58 = CALENDAR_DATE ( 2026, 5, 6 ) ;
#59 = VECTOR ( 'NONE', #347, 1000.000000000000000 ) ;
#60 = PLANE ( 'NONE',  #20 ) ;
#61 = CARTESIAN_POINT ( 'NONE',  ( 2.448999795835026028, 0.4500000000000001776, 4.700000000000000178 ) ) ;
#62 = CARTESIAN_POINT ( 'NONE',  ( -2.500000000000000000, 3.061616997868383141E-16, 0.000000000000000000 ) ) ;
#63 = EDGE_CURVE ( 'NONE', #239, #108, #267, .T. ) ;
#64 = CC_DESIGN_SECURITY_CLASSIFICATION ( #375, ( #247 ) ) ;
#65 = FACE_OUTER_BOUND ( 'NONE', #384, .T. ) ;
#66 = AXIS2_PLACEMENT_3D ( 'NONE', #275, #219, #10 ) ;
#67 = DIRECTION ( 'NONE',  ( -1.000000000000000000, 0.000000000000000000, -0.000000000000000000 ) ) ;
#68 = CYLINDRICAL_SURFACE ( 'NONE', #193, 2.490000000000000213 ) ;
#69 = CC_DESIGN_PERSON_AND_ORGANIZATION_ASSIGNMENT ( #119, #90, ( #381 ) ) ;
#70 = CARTESIAN_POINT ( 'NONE',  ( -2.490000000000000213, 0.000000000000000000, 6.000000000000000000 ) ) ;
#71 = VECTOR ( 'NONE', #152, 1000.000000000000000 ) ;
#72 = PLANE ( 'NONE',  #38 ) ;
#73 = LINE ( 'NONE', #187, #224 ) ;
#74 = EDGE_LOOP ( 'NONE', ( #232, #16, #296, #320, #150, #141, #283, #162 ) ) ;
#75 = LOCAL_TIME ( 11, 32, 56.00000000000000000, #391 ) ;
#76 = DIRECTION ( 'NONE',  ( 1.000000000000000000, 0.000000000000000000, 0.000000000000000000 ) ) ;
#77 = ORIENTED_EDGE ( 'NONE', *, *, #237, .F. ) ;
#78 = EDGE_CURVE ( 'NONE', #281, #108, #132, .T. ) ;
#79 = ORIENTED_EDGE ( 'NONE', *, *, #155, .T. ) ;
#80 = DIRECTION ( 'NONE',  ( 0.000000000000000000, 0.000000000000000000, -1.000000000000000000 ) ) ;
#81 = ORIENTED_EDGE ( 'NONE', *, *, #250, .T. ) ;
#82 = AXIS2_PLACEMENT_3D ( 'NONE', #216, #338, #313 ) ;
#83 = PERSON_AND_ORGANIZATION ( #33, #181 ) ;
#84 = ORIENTED_EDGE ( 'NONE', *, *, #250, .F. ) ;
#85 = VERTEX_POINT ( 'NONE', #62 ) ;
#86 = EDGE_CURVE ( 'NONE', #281, #92, #353, .T. ) ;
#87 = DIRECTION ( 'NONE',  ( -1.192622389734054631E-16, 1.000000000000000000, 0.000000000000000000 ) ) ;
#88 = VECTOR ( 'NONE', #114, 1000.000000000000000 ) ;
#89 = EDGE_LOOP ( 'NONE', ( #268, #328 ) ) ;
#90 = PERSON_AND_ORGANIZATION_ROLE ( 'creator' ) ;
#91 = CARTESIAN_POINT ( 'NONE',  ( 0.000000000000000000, 0.000000000000000000, 4.700000000000000178 ) ) ;
#92 = VERTEX_POINT ( 'NONE', #359 ) ;
#93 = DIRECTION ( 'NONE',  ( 0.000000000000000000, 0.000000000000000000, -1.000000000000000000 ) ) ;
#94 = VECTOR ( 'NONE', #212, 1000.000000000000000 ) ;
#95 = DIRECTION ( 'NONE',  ( -0.000000000000000000, -0.000000000000000000, 1.000000000000000000 ) ) ;
#96 = ADVANCED_FACE ( 'NONE', ( #180 ), #236, .F. ) ;
#97 = LINE ( 'NONE', #214, #137 ) ;
#98 = FACE_OUTER_BOUND ( 'NONE', #317, .T. ) ;
#99 = CIRCLE ( 'NONE', #336, 2.490000000000000213 ) ;
#100 = VECTOR ( 'NONE', #49, 1000.000000000000000 ) ;
#101 = CARTESIAN_POINT ( 'NONE',  ( -2.500000000000000000, 3.061616997868383141E-16, -11.00000000000000000 ) ) ;
#102 = ADVANCED_FACE ( 'NONE', ( #324 ), #60, .T. ) ;
#103 = FACE_OUTER_BOUND ( 'NONE', #200, .T. ) ;
#104 = ORIENTED_EDGE ( 'NONE', *, *, #86, .F. ) ;
#105 = VECTOR ( 'NONE', #234, 1000.000000000000000 ) ;
#106 = VERTEX_POINT ( 'NONE', #189 ) ;
#107 = CARTESIAN_POINT ( 'NONE',  ( -4.878909776184766872E-18, -0.4499999999999996780, 6.000000000000000000 ) ) ;
#108 = VERTEX_POINT ( 'NONE', #42 ) ;
#109 =( NAMED_UNIT ( * ) PLANE_ANGLE_UNIT ( ) SI_UNIT ( $, .RADIAN. ) );
#110 = CIRCLE ( 'NONE', #368, 2.490000000000000213 ) ;
#111 = CALENDAR_DATE ( 2026, 5, 6 ) ;
#112 = DIRECTION ( 'NONE',  ( 1.000000000000000000, 0.000000000000000000, 0.000000000000000000 ) ) ;
#113 = APPLICATION_CONTEXT ( 'configuration controlled 3d designs of mechanical parts and assemblies' ) ;
#114 = DIRECTION ( 'NONE',  ( -0.000000000000000000, -0.000000000000000000, -1.000000000000000000 ) ) ;
#115 = APPROVAL_STATUS ( 'not_yet_approved' ) ;
#116 = ORIENTED_EDGE ( 'NONE', *, *, #155, .F. ) ;
#117 = APPROVAL_PERSON_ORGANIZATION ( #334, #228, #36 ) ;
#118 = EDGE_CURVE ( 'NONE', #198, #223, #154, .T. ) ;
#119 = PERSON_AND_ORGANIZATION ( #33, #181 ) ;
#120 = AXIS2_PLACEMENT_3D ( 'NONE', #221, #80, #282 ) ;
#121 = CIRCLE ( 'NONE', #270, 2.490000000000000213 ) ;
#122 = DIRECTION ( 'NONE',  ( 0.000000000000000000, 0.000000000000000000, 1.000000000000000000 ) ) ;
#123 = DIRECTION ( 'NONE',  ( 1.000000000000000000, 0.000000000000000000, 0.000000000000000000 ) ) ;
#124 = DIRECTION ( 'NONE',  ( -0.000000000000000000, -0.000000000000000000, -1.000000000000000000 ) ) ;
#125 = LOCAL_TIME ( 11, 32, 56.00000000000000000, #169 ) ;
#126 = FACE_BOUND ( 'NONE', #299, .T. ) ;
#127 = CIRCLE ( 'NONE', #173, 2.500000000000000000 ) ;
#128 = EDGE_CURVE ( 'NONE', #378, #85, #182, .T. ) ;
#129 = CARTESIAN_POINT ( 'NONE',  ( -2.448999795835026028, 0.4499999999999996780, 6.000000000000000000 ) ) ;
#130 = CARTESIAN_POINT ( 'NONE',  ( -5.366800753803245099E-17, 0.4499999999999999556, 4.700000000000000178 ) ) ;
#131 = CARTESIAN_POINT ( 'NONE',  ( 0.000000000000000000, 0.000000000000000000, 6.000000000000000000 ) ) ;
#132 = CIRCLE ( 'NONE', #28, 2.490000000000000213 ) ;
#133 = APPLICATION_PROTOCOL_DEFINITION ( 'international standard', 'config_control_design', 1994, #113 ) ;
#134 = CARTESIAN_POINT ( 'NONE',  ( 0.000000000000000000, 0.000000000000000000, -11.00000000000000000 ) ) ;
#135 = VERTEX_POINT ( 'NONE', #305 ) ;
#136 = ADVANCED_FACE ( 'NONE', ( #126, #41 ), #45, .F. ) ;
#137 = VECTOR ( 'NONE', #190, 1000.000000000000000 ) ;
#138 = FACE_OUTER_BOUND ( 'NONE', #192, .T. ) ;
#139 = ORIENTED_EDGE ( 'NONE', *, *, #321, .T. ) ;
#140 = DIRECTION ( 'NONE',  ( -0.000000000000000000, 0.000000000000000000, 1.000000000000000000 ) ) ;
#141 = ORIENTED_EDGE ( 'NONE', *, *, #118, .T. ) ;
#142 = DATE_AND_TIME ( #243, #343 ) ;
#143 = CYLINDRICAL_SURFACE ( 'NONE', #241, 2.490000000000000213 ) ;
#144 = FACE_OUTER_BOUND ( 'NONE', #312, .T. ) ;
#145 = EDGE_CURVE ( 'NONE', #264, #223, #309, .T. ) ;
#146 = COORDINATED_UNIVERSAL_TIME_OFFSET ( 8, 0, .AHEAD. ) ;
#147 = DIRECTION ( 'NONE',  ( -0.000000000000000000, -0.000000000000000000, -1.000000000000000000 ) ) ;
#148 = SHAPE_DEFINITION_REPRESENTATION ( #342, #218 ) ;
#149 = ORIENTED_EDGE ( 'NONE', *, *, #151, .T. ) ;
#150 = ORIENTED_EDGE ( 'NONE', *, *, #366, .F. ) ;
#151 = EDGE_CURVE ( 'NONE', #259, #18, #110, .T. ) ;
#152 = DIRECTION ( 'NONE',  ( 0.000000000000000000, 0.000000000000000000, 1.000000000000000000 ) ) ;
#153 = CARTESIAN_POINT ( 'NONE',  ( 0.000000000000000000, 0.000000000000000000, -11.00000000000000000 ) ) ;
#154 = LINE ( 'NONE', #274, #71 ) ;
#155 = EDGE_CURVE ( 'NONE', #50, #106, #383, .T. ) ;
#156 = CARTESIAN_POINT ( 'NONE',  ( 0.000000000000000000, 0.000000000000000000, 0.000000000000000000 ) ) ;
#157 = CARTESIAN_POINT ( 'NONE',  ( -2.448999795835026028, 0.4499999999999996780, 4.700000000000000178 ) ) ;
#158 = AXIS2_PLACEMENT_3D ( 'NONE', #172, #183, #208 ) ;
#159 = CYLINDRICAL_SURFACE ( 'NONE', #215, 2.500000000000000000 ) ;
#160 = ORIENTED_EDGE ( 'NONE', *, *, #321, .F. ) ;
#161 = ADVANCED_FACE ( 'NONE', ( #9 ), #68, .T. ) ;
#162 = ORIENTED_EDGE ( 'NONE', *, *, #237, .T. ) ;
#163 = ORIENTED_EDGE ( 'NONE', *, *, #362, .F. ) ;
#164 = LOCAL_TIME ( 11, 32, 56.00000000000000000, #146 ) ;
#165 = CIRCLE ( 'NONE', #6, 2.490000000000000213 ) ;
#166 = CARTESIAN_POINT ( 'NONE',  ( 0.000000000000000000, 0.000000000000000000, 4.700000000000000178 ) ) ;
#167 = ORIENTED_EDGE ( 'NONE', *, *, #373, .T. ) ;
#168 = EDGE_CURVE ( 'NONE', #18, #198, #364, .T. ) ;
#169 = COORDINATED_UNIVERSAL_TIME_OFFSET ( 8, 0, .AHEAD. ) ;
#170 = ORIENTED_EDGE ( 'NONE', *, *, #301, .T. ) ;
#171 = DATE_TIME_ROLE ( 'classification_date' ) ;
#172 = CARTESIAN_POINT ( 'NONE',  ( 0.000000000000000000, 0.000000000000000000, 4.700000000000000178 ) ) ;
#173 = AXIS2_PLACEMENT_3D ( 'NONE', #134, #199, #17 ) ;
#174 = APPROVAL_DATE_TIME ( #233, #228 ) ;
#175 = CARTESIAN_POINT ( 'NONE',  ( 0.000000000000000000, 0.000000000000000000, 6.000000000000000000 ) ) ;
#176 = PERSON_AND_ORGANIZATION ( #33, #181 ) ;
#177 = DIRECTION ( 'NONE',  ( -0.000000000000000000, 0.000000000000000000, 1.000000000000000000 ) ) ;
#178 = ADVANCED_FACE ( 'NONE', ( #46 ), #72, .F. ) ;
#179 = APPROVAL_STATUS ( 'not_yet_approved' ) ;
#180 = FACE_OUTER_BOUND ( 'NONE', #226, .T. ) ;
#181 = ORGANIZATION ( 'UNSPECIFIED', 'UNSPECIFIED', '' ) ;
#182 = CIRCLE ( 'NONE', #284, 2.500000000000000000 ) ;
#183 = DIRECTION ( 'NONE',  ( -0.000000000000000000, 0.000000000000000000, 1.000000000000000000 ) ) ;
#184 = DIRECTION ( 'NONE',  ( 1.000000000000000000, -1.084202172485504588E-17, 0.000000000000000000 ) ) ;
#185 = CARTESIAN_POINT ( 'NONE',  ( -2.490000000000000213, 0.000000000000000000, 4.700000000000000178 ) ) ;
#186 = APPLICATION_CONTEXT ( 'configuration controlled 3d designs of mechanical parts and assemblies' ) ;
#187 = CARTESIAN_POINT ( 'NONE',  ( 2.448999795835026028, 0.4500000000000001776, 6.000000000000000000 ) ) ;
#188 = APPROVAL ( #179, 'UNSPECIFIED' ) ;
#189 = CARTESIAN_POINT ( 'NONE',  ( 2.500000000000000000, 0.000000000000000000, -11.00000000000000000 ) ) ;
#190 = DIRECTION ( 'NONE',  ( 1.000000000000000000, -1.084202172485504434E-17, 0.000000000000000000 ) ) ;
#191 = APPROVAL_STATUS ( 'not_yet_approved' ) ;
#192 = EDGE_LOOP ( 'NONE', ( #170, #79 ) ) ;
#193 = AXIS2_PLACEMENT_3D ( 'NONE', #131, #213, #248 ) ;
#194 = ADVANCED_FACE ( 'NONE', ( #252 ), #369, .T. ) ;
#195 =( LENGTH_UNIT ( ) NAMED_UNIT ( * ) SI_UNIT ( .MILLI., .METRE. ) );
#196 = ORIENTED_EDGE ( 'NONE', *, *, #23, .T. ) ;
#197 = CARTESIAN_POINT ( 'NONE',  ( -2.448999795835026028, -0.4499999999999996780, 6.000000000000000000 ) ) ;
#198 = VERTEX_POINT ( 'NONE', #157 ) ;
#199 = DIRECTION ( 'NONE',  ( 0.000000000000000000, 0.000000000000000000, -1.000000000000000000 ) ) ;
#200 = EDGE_LOOP ( 'NONE', ( #116, #53, #167, #1 ) ) ;
#201 = CLOSED_SHELL ( 'NONE', ( #306, #161, #102, #15, #276, #8, #178, #96, #194, #290, #136 ) ) ;
#202 = LINE ( 'NONE', #107, #59 ) ;
#203 = ORIENTED_EDGE ( 'NONE', *, *, #332, .T. ) ;
#204 = VERTEX_POINT ( 'NONE', #185 ) ;
#205 = PERSON_AND_ORGANIZATION_ROLE ( 'creator' ) ;
#206 = DIRECTION ( 'NONE',  ( -1.000000000000000000, -1.192622389734054631E-16, 0.000000000000000000 ) ) ;
#207 = EDGE_CURVE ( 'NONE', #50, #85, #333, .T. ) ;
#208 = DIRECTION ( 'NONE',  ( 1.000000000000000000, 0.000000000000000000, 0.000000000000000000 ) ) ;
#209 = PERSON_AND_ORGANIZATION_ROLE ( 'design_supplier' ) ;
#210 = DIRECTION ( 'NONE',  ( 1.000000000000000000, 0.000000000000000000, 0.000000000000000000 ) ) ;
#211 = DIRECTION ( 'NONE',  ( 1.000000000000000000, 0.000000000000000000, 0.000000000000000000 ) ) ;
#212 = DIRECTION ( 'NONE',  ( -1.000000000000000000, -1.192622389734054631E-16, 0.000000000000000000 ) ) ;
#213 = DIRECTION ( 'NONE',  ( -0.000000000000000000, -0.000000000000000000, -1.000000000000000000 ) ) ;
#214 = CARTESIAN_POINT ( 'NONE',  ( -4.878909776184766101E-18, -0.4499999999999996780, 4.700000000000000178 ) ) ;
#215 = AXIS2_PLACEMENT_3D ( 'NONE', #379, #225, #286 ) ;
#216 = CARTESIAN_POINT ( 'NONE',  ( 0.000000000000000000, 0.000000000000000000, 6.000000000000000000 ) ) ;
#217 = CIRCLE ( 'NONE', #242, 2.490000000000000213 ) ;
#218 = ADVANCED_BREP_SHAPE_REPRESENTATION ( '\X2\77ed5c0e67f1\X0\', ( #5, #330 ), #231 ) ;
#219 = DIRECTION ( 'NONE',  ( 0.000000000000000000, 0.000000000000000000, 1.000000000000000000 ) ) ;
#220 =( NAMED_UNIT ( * ) SI_UNIT ( $, .STERADIAN. ) SOLID_ANGLE_UNIT ( ) );
#221 = CARTESIAN_POINT ( 'NONE',  ( 0.000000000000000000, 0.000000000000000000, -11.00000000000000000 ) ) ;
#222 = CC_DESIGN_APPROVAL ( #228, ( #247 ) ) ;
#223 = VERTEX_POINT ( 'NONE', #129 ) ;
#224 = VECTOR ( 'NONE', #124, 1000.000000000000000 ) ;
#225 = DIRECTION ( 'NONE',  ( -0.000000000000000000, -0.000000000000000000, 1.000000000000000000 ) ) ;
#226 = EDGE_LOOP ( 'NONE', ( #349, #287, #351, #77 ) ) ;
#227 = DIRECTION ( 'NONE',  ( 0.000000000000000000, 0.000000000000000000, 1.000000000000000000 ) ) ;
#228 = APPROVAL ( #115, 'UNSPECIFIED' ) ;
#229 = ORIENTED_EDGE ( 'NONE', *, *, #86, .T. ) ;
#230 = DIRECTION ( 'NONE',  ( 1.000000000000000000, 0.000000000000000000, 0.000000000000000000 ) ) ;
#231 =( GEOMETRIC_REPRESENTATION_CONTEXT ( 3 ) GLOBAL_UNCERTAINTY_ASSIGNED_CONTEXT ( ( #51 ) ) GLOBAL_UNIT_ASSIGNED_CONTEXT ( ( #195, #109, #220 ) ) REPRESENTATION_CONTEXT ( 'NONE', 'WORKASPACE' ) );
#232 = ORIENTED_EDGE ( 'NONE', *, *, #151, .F. ) ;
#233 = DATE_AND_TIME ( #295, #75 ) ;
#234 = DIRECTION ( 'NONE',  ( 0.000000000000000000, 0.000000000000000000, 1.000000000000000000 ) ) ;
#235 = DATE_AND_TIME ( #58, #11 ) ;
#236 = PLANE ( 'NONE',  #376 ) ;
#237 = EDGE_CURVE ( 'NONE', #264, #18, #73, .T. ) ;
#238 = DATE_AND_TIME ( #323, #164 ) ;
#239 = VERTEX_POINT ( 'NONE', #304 ) ;
#240 = CC_DESIGN_APPROVAL ( #188, ( #375 ) ) ;
#241 = AXIS2_PLACEMENT_3D ( 'NONE', #389, #147, #326 ) ;
#242 = AXIS2_PLACEMENT_3D ( 'NONE', #14, #227, #76 ) ;
#243 = CALENDAR_DATE ( 2026, 5, 6 ) ;
#244 = DIRECTION ( 'NONE',  ( -1.000000000000000000, -1.192622389734054631E-16, 0.000000000000000000 ) ) ;
#245 = LINE ( 'NONE', #322, #363 ) ;
#246 = CARTESIAN_POINT ( 'NONE',  ( 2.448999795835026028, 0.4500000000000001776, 6.000000000000000000 ) ) ;
#247 = PRODUCT_DEFINITION_FORMATION_WITH_SPECIFIED_SOURCE ( 'ANY', '', #43, .NOT_KNOWN. ) ;
#248 = DIRECTION ( 'NONE',  ( -1.000000000000000000, 0.000000000000000000, 0.000000000000000000 ) ) ;
#249 = CARTESIAN_POINT ( 'NONE',  ( -4.878909776184766101E-18, -0.4499999999999996780, 4.700000000000000178 ) ) ;
#250 = EDGE_CURVE ( 'NONE', #92, #239, #97, .T. ) ;
#251 = DIRECTION ( 'NONE',  ( 1.000000000000000000, 0.000000000000000000, 0.000000000000000000 ) ) ;
#252 = FACE_OUTER_BOUND ( 'NONE', #345, .T. ) ;
#253 = CARTESIAN_POINT ( 'NONE',  ( 0.000000000000000000, 0.000000000000000000, 0.000000000000000000 ) ) ;
#254 = CC_DESIGN_DATE_AND_TIME_ASSIGNMENT ( #142, #30, ( #381 ) ) ;
#255 = ORIENTED_EDGE ( 'NONE', *, *, #44, .F. ) ;
#256 = ORIENTED_EDGE ( 'NONE', *, *, #23, .F. ) ;
#257 = CC_DESIGN_PERSON_AND_ORGANIZATION_ASSIGNMENT ( #176, #209, ( #247 ) ) ;
#258 = PLANE ( 'NONE',  #120 ) ;
#259 = VERTEX_POINT ( 'NONE', #3 ) ;
#260 = PERSON_AND_ORGANIZATION ( #33, #181 ) ;
#261 = EDGE_LOOP ( 'NONE', ( #139, #314, #84, #104 ) ) ;
#262 = CIRCLE ( 'NONE', #269, 2.490000000000000213 ) ;
#263 = PERSON_AND_ORGANIZATION ( #33, #181 ) ;
#264 = VERTEX_POINT ( 'NONE', #246 ) ;
#265 = EDGE_CURVE ( 'NONE', #204, #372, #335, .T. ) ;
#266 = COORDINATED_UNIVERSAL_TIME_OFFSET ( 8, 0, .AHEAD. ) ;
#267 = LINE ( 'NONE', #291, #105 ) ;
#268 = ORIENTED_EDGE ( 'NONE', *, *, #128, .F. ) ;
#269 = AXIS2_PLACEMENT_3D ( 'NONE', #357, #272, #211 ) ;
#270 = AXIS2_PLACEMENT_3D ( 'NONE', #166, #140, #54 ) ;
#271 = CC_DESIGN_DATE_AND_TIME_ASSIGNMENT ( #386, #171, ( #375 ) ) ;
#272 = DIRECTION ( 'NONE',  ( -0.000000000000000000, 0.000000000000000000, 1.000000000000000000 ) ) ;
#273 = CARTESIAN_POINT ( 'NONE',  ( 0.000000000000000000, 0.000000000000000000, 0.000000000000000000 ) ) ;
#274 = CARTESIAN_POINT ( 'NONE',  ( -2.448999795835026028, 0.4499999999999996780, 6.000000000000000000 ) ) ;
#275 = CARTESIAN_POINT ( 'NONE',  ( 0.000000000000000000, 0.000000000000000000, 6.000000000000000000 ) ) ;
#276 = ADVANCED_FACE ( 'NONE', ( #98 ), #300, .T. ) ;
#277 = CARTESIAN_POINT ( 'NONE',  ( 0.000000000000000000, 0.000000000000000000, 4.700000000000000178 ) ) ;
#278 = DIRECTION ( 'NONE',  ( -1.000000000000000000, 0.000000000000000000, 0.000000000000000000 ) ) ;
#279 = APPLICATION_PROTOCOL_DEFINITION ( 'international standard', 'config_control_design', 1994, #186 ) ;
#280 = CARTESIAN_POINT ( 'NONE',  ( -2.490000000000000213, 0.000000000000000000, 0.000000000000000000 ) ) ;
#281 = VERTEX_POINT ( 'NONE', #197 ) ;
#282 = DIRECTION ( 'NONE',  ( -1.000000000000000000, 0.000000000000000000, -0.000000000000000000 ) ) ;
#283 = ORIENTED_EDGE ( 'NONE', *, *, #145, .F. ) ;
#284 = AXIS2_PLACEMENT_3D ( 'NONE', #4, #360, #278 ) ;
#285 = ORIENTED_EDGE ( 'NONE', *, *, #128, .T. ) ;
#286 = DIRECTION ( 'NONE',  ( 1.000000000000000000, 0.000000000000000000, 0.000000000000000000 ) ) ;
#287 = ORIENTED_EDGE ( 'NONE', *, *, #118, .F. ) ;
#288 = ORIENTED_EDGE ( 'NONE', *, *, #145, .T. ) ;
#289 = COORDINATED_UNIVERSAL_TIME_OFFSET ( 8, 0, .AHEAD. ) ;
#290 = ADVANCED_FACE ( 'NONE', ( #138 ), #258, .T. ) ;
#291 = CARTESIAN_POINT ( 'NONE',  ( 2.448999795835026028, -0.4499999999999996780, 6.000000000000000000 ) ) ;
#292 = VECTOR ( 'NONE', #340, 1000.000000000000000 ) ;
#293 = PERSON_AND_ORGANIZATION_ROLE ( 'classification_officer' ) ;
#294 = DIRECTION ( 'NONE',  ( 0.000000000000000000, 0.000000000000000000, 1.000000000000000000 ) ) ;
#295 = CALENDAR_DATE ( 2026, 5, 6 ) ;
#296 = ORIENTED_EDGE ( 'NONE', *, *, #32, .T. ) ;
#297 = CC_DESIGN_PERSON_AND_ORGANIZATION_ASSIGNMENT ( #260, #205, ( #247 ) ) ;
#298 = CARTESIAN_POINT ( 'NONE',  ( -2.500000000000000000, 3.061616997868383141E-16, -11.00000000000000000 ) ) ;
#299 = EDGE_LOOP ( 'NONE', ( #163, #311 ) ) ;
#300 = PLANE ( 'NONE',  #82 ) ;
#301 = EDGE_CURVE ( 'NONE', #106, #50, #127, .T. ) ;
#302 = DIRECTION ( 'NONE',  ( -0.000000000000000000, 0.000000000000000000, 1.000000000000000000 ) ) ;
#303 = AXIS2_PLACEMENT_3D ( 'NONE', #156, #93, #67 ) ;
#304 = CARTESIAN_POINT ( 'NONE',  ( 2.448999795835026028, -0.4499999999999996780, 4.700000000000000178 ) ) ;
#305 = CARTESIAN_POINT ( 'NONE',  ( 2.490000000000000213, 3.049370529876909390E-16, 0.000000000000000000 ) ) ;
#306 = ADVANCED_FACE ( 'NONE', ( #103 ), #159, .T. ) ;
#307 = DIRECTION ( 'NONE',  ( 0.000000000000000000, 0.000000000000000000, -1.000000000000000000 ) ) ;
#308 = APPROVAL_PERSON_ORGANIZATION ( #370, #339, #310 ) ;
#309 = CIRCLE ( 'NONE', #66, 2.490000000000000213 ) ;
#310 = APPROVAL_ROLE ( '' ) ;
#311 = ORIENTED_EDGE ( 'NONE', *, *, #32, .F. ) ;
#312 = EDGE_LOOP ( 'NONE', ( #35, #256, #39, #22, #229, #329, #48, #25 ) ) ;
#313 = DIRECTION ( 'NONE',  ( 1.000000000000000000, 0.000000000000000000, -0.000000000000000000 ) ) ;
#314 = ORIENTED_EDGE ( 'NONE', *, *, #63, .F. ) ;
#315 = LINE ( 'NONE', #341, #100 ) ;
#316 = AXIS2_PLACEMENT_3D ( 'NONE', #153, #95, #251 ) ;
#317 = EDGE_LOOP ( 'NONE', ( #255, #288 ) ) ;
#318 = AXIS2_PLACEMENT_3D ( 'NONE', #253, #377, #371 ) ;
#319 = PERSON_AND_ORGANIZATION_ROLE ( 'design_owner' ) ;
#320 = ORIENTED_EDGE ( 'NONE', *, *, #265, .F. ) ;
#321 = EDGE_CURVE ( 'NONE', #281, #108, #202, .T. ) ;
#322 = CARTESIAN_POINT ( 'NONE',  ( -5.366800753803245099E-17, 0.4499999999999999556, 6.000000000000000000 ) ) ;
#323 = CALENDAR_DATE ( 2026, 5, 6 ) ;
#324 = FACE_OUTER_BOUND ( 'NONE', #348, .T. ) ;
#325 = CC_DESIGN_PERSON_AND_ORGANIZATION_ASSIGNMENT ( #83, #319, ( #43 ) ) ;
#326 = DIRECTION ( 'NONE',  ( -1.000000000000000000, 0.000000000000000000, 0.000000000000000000 ) ) ;
#327 = APPROVAL_ROLE ( '' ) ;
#328 = ORIENTED_EDGE ( 'NONE', *, *, #373, .F. ) ;
#329 = ORIENTED_EDGE ( 'NONE', *, *, #2, .F. ) ;
#330 = AXIS2_PLACEMENT_3D ( 'NONE', #21, #380, #230 ) ;
#331 = DIRECTION ( 'NONE',  ( -1.084202172485504588E-17, -1.000000000000000000, 0.000000000000000000 ) ) ;
#332 = EDGE_CURVE ( 'NONE', #106, #378, #315, .T. ) ;
#333 = LINE ( 'NONE', #101, #292 ) ;
#334 = PERSON_AND_ORGANIZATION ( #33, #181 ) ;
#335 = LINE ( 'NONE', #70, #19 ) ;
#336 = AXIS2_PLACEMENT_3D ( 'NONE', #91, #177, #123 ) ;
#337 = CIRCLE ( 'NONE', #318, 2.500000000000000000 ) ;
#338 = DIRECTION ( 'NONE',  ( 0.000000000000000000, 0.000000000000000000, 1.000000000000000000 ) ) ;
#339 = APPROVAL ( #191, 'UNSPECIFIED' ) ;
#340 = DIRECTION ( 'NONE',  ( -0.000000000000000000, -0.000000000000000000, 1.000000000000000000 ) ) ;
#341 = CARTESIAN_POINT ( 'NONE',  ( 2.500000000000000000, 0.000000000000000000, -11.00000000000000000 ) ) ;
#342 = PRODUCT_DEFINITION_SHAPE ( 'NONE', 'NONE',  #381 ) ;
#343 = LOCAL_TIME ( 11, 32, 56.00000000000000000, #289 ) ;
#344 = DIRECTION ( 'NONE',  ( -0.000000000000000000, -0.000000000000000000, -1.000000000000000000 ) ) ;
#345 = EDGE_LOOP ( 'NONE', ( #382, #37, #203, #285 ) ) ;
#346 = EDGE_CURVE ( 'NONE', #259, #135, #52, .T. ) ;
#347 = DIRECTION ( 'NONE',  ( 1.000000000000000000, -1.084202172485504588E-17, 0.000000000000000000 ) ) ;
#348 = EDGE_LOOP ( 'NONE', ( #160, #26 ) ) ;
#349 = ORIENTED_EDGE ( 'NONE', *, *, #44, .T. ) ;
#350 = CARTESIAN_POINT ( 'NONE',  ( 2.490000000000000213, 3.049370529876909390E-16, 6.000000000000000000 ) ) ;
#351 = ORIENTED_EDGE ( 'NONE', *, *, #168, .F. ) ;
#352 = PRODUCT_RELATED_PRODUCT_CATEGORY ( 'detail', '', ( #43 ) ) ;
#353 = LINE ( 'NONE', #29, #88 ) ;
#354 = CARTESIAN_POINT ( 'NONE',  ( -5.366800753803245099E-17, 0.4499999999999999556, 4.700000000000000178 ) ) ;
#355 = APPROVAL_DATE_TIME ( #238, #188 ) ;
#356 = APPROVAL_PERSON_ORGANIZATION ( #263, #188, #327 ) ;
#357 = CARTESIAN_POINT ( 'NONE',  ( 0.000000000000000000, 0.000000000000000000, 4.700000000000000178 ) ) ;
#358 = DIRECTION ( 'NONE',  ( 0.000000000000000000, 0.000000000000000000, 1.000000000000000000 ) ) ;
#359 = CARTESIAN_POINT ( 'NONE',  ( -2.448999795835026028, -0.4499999999999996780, 4.700000000000000178 ) ) ;
#360 = DIRECTION ( 'NONE',  ( 0.000000000000000000, 0.000000000000000000, -1.000000000000000000 ) ) ;
#361 = CC_DESIGN_APPROVAL ( #339, ( #381 ) ) ;
#362 = EDGE_CURVE ( 'NONE', #372, #135, #217, .T. ) ;
#363 = VECTOR ( 'NONE', #244, 1000.000000000000000 ) ;
#364 = LINE ( 'NONE', #130, #94 ) ;
#365 = CARTESIAN_POINT ( 'NONE',  ( 0.000000000000000000, 0.000000000000000000, -11.00000000000000000 ) ) ;
#366 = EDGE_CURVE ( 'NONE', #198, #204, #121, .T. ) ;
#367 = DIRECTION ( 'NONE',  ( -0.000000000000000000, -0.000000000000000000, -1.000000000000000000 ) ) ;
#368 = AXIS2_PLACEMENT_3D ( 'NONE', #277, #302, #40 ) ;
#369 = CYLINDRICAL_SURFACE ( 'NONE', #316, 2.500000000000000000 ) ;
#370 = PERSON_AND_ORGANIZATION ( #33, #181 ) ;
#371 = DIRECTION ( 'NONE',  ( -1.000000000000000000, 0.000000000000000000, 0.000000000000000000 ) ) ;
#372 = VERTEX_POINT ( 'NONE', #280 ) ;
#373 = EDGE_CURVE ( 'NONE', #85, #378, #337, .T. ) ;
#374 = DESIGN_CONTEXT ( 'detailed design', #186, 'design' ) ;
#375 = SECURITY_CLASSIFICATION ( '', '', #27 ) ;
#376 = AXIS2_PLACEMENT_3D ( 'NONE', #354, #87, #206 ) ;
#377 = DIRECTION ( 'NONE',  ( 0.000000000000000000, 0.000000000000000000, -1.000000000000000000 ) ) ;
#378 = VERTEX_POINT ( 'NONE', #24 ) ;
#379 = CARTESIAN_POINT ( 'NONE',  ( 0.000000000000000000, 0.000000000000000000, -11.00000000000000000 ) ) ;
#380 = DIRECTION ( 'NONE',  ( 0.000000000000000000, 0.000000000000000000, 1.000000000000000000 ) ) ;
#381 = PRODUCT_DEFINITION ( 'UNKNOWN', '', #247, #374 ) ;
#382 = ORIENTED_EDGE ( 'NONE', *, *, #207, .F. ) ;
#383 = CIRCLE ( 'NONE', #12, 2.500000000000000000 ) ;
#384 = EDGE_LOOP ( 'NONE', ( #55, #387, #81, #196, #149, #47 ) ) ;
#385 = CARTESIAN_POINT ( 'NONE',  ( 0.000000000000000000, 0.000000000000000000, 6.000000000000000000 ) ) ;
#386 = DATE_AND_TIME ( #111, #125 ) ;
#387 = ORIENTED_EDGE ( 'NONE', *, *, #2, .T. ) ;
#388 = CC_DESIGN_PERSON_AND_ORGANIZATION_ASSIGNMENT ( #56, #293, ( #375 ) ) ;
#389 = CARTESIAN_POINT ( 'NONE',  ( 0.000000000000000000, 0.000000000000000000, 6.000000000000000000 ) ) ;
#390 = VECTOR ( 'NONE', #344, 1000.000000000000000 ) ;
#391 = COORDINATED_UNIVERSAL_TIME_OFFSET ( 8, 0, .AHEAD. ) ;
ENDSEC;
END-ISO-10303-21;
