                                                                        S      1
1H,,1H;,,99HG:\my_workspace\code\FEM_sim\magnetic_sim\ANSYS\main\IGES_c,G      1
5HANSYS,22H  25.2      UP20250519,,,,,,,1.0,2,2HMM,,,13H000711.011117,  G      2
    1.0000E-04,,,,9,,;                                                  G      3
     128       1       0       0       0       0       0       000010001D      1
     128       0       0      12       1       0       0 SURFACE       0D      2
     126      13       0       0       0       0       0       000010001D      3
     126       0       0       7       1       0       0B-SPLINE       0D      4
     126      20       0       0       0       0       0       000010001D      5
     126       0       0       9       2       0       0B-SPLINE       0D      6
     126      29       0       0       0       0       0       000010001D      7
     126       0       0       7       1       0       0B-SPLINE       0D      8
     126      36       0       0       0       0       0       000010001D      9
     126       0       0      13       2       0       0B-SPLINE       0D     10
     126      49       0       0       0       0       0       000010001D     11
     126       0       0      13       2       0       0B-SPLINE       0D     12
     126      62       0       0       0       0       0       000010001D     13
     126       0       0       7       1       0       0B-SPLINE       0D     14
     126      69       0       0       0       0       0       000010001D     15
     126       0       0       9       2       0       0B-SPLINE       0D     16
     126      78       0       0       0       0       0       000010001D     17
     126       0       0       7       1       0       0B-SPLINE       0D     18
     126      85       0       0       0       0       0       000010001D     19
     126       0       0       9       2       0       0B-SPLINE       0D     20
     126      94       0       0       0       0       0       000010001D     21
     126       0       0       9       2       0       0B-SPLINE       0D     22
     128     103       0       0       0       0       0       000010001D     23
     128       0       0      12       1       0       0 SURFACE       0D     24
     126     115       0       0       0       0       0       000010001D     25
     126       0       0       9       2       0       0B-SPLINE       0D     26
     126     124       0       0       0       0       0       000010001D     27
     126       0       0       9       2       0       0B-SPLINE       0D     28
     126     133       0       0       0       0       0       000010001D     29
     126       0       0       7       1       0       0B-SPLINE       0D     30
     126     140       0       0       0       0       0       000010001D     31
     126       0       0       9       2       0       0B-SPLINE       0D     32
     126     149       0       0       0       0       0       000010001D     33
     126       0       0       7       1       0       0B-SPLINE       0D     34
     126     156       0       0       0       0       0       000010001D     35
     126       0       0      13       2       0       0B-SPLINE       0D     36
     126     169       0       0       0       0       0       000010001D     37
     126       0       0      13       2       0       0B-SPLINE       0D     38
     126     182       0       0       0       0       0       000010001D     39
     126       0       0       7       1       0       0B-SPLINE       0D     40
     126     189       0       0       0       0       0       000010001D     41
     126       0       0       9       2       0       0B-SPLINE       0D     42
     126     198       0       0       0       0       0       000010001D     43
     126       0       0       7       1       0       0B-SPLINE       0D     44
     128     205       0       0       0       0       0       000010001D     45
     128       0       0      15       8       0       0 SURFACE       0D     46
     126     220       0       0       0       0       0       000010001D     47
     126       0       0       7       1       0       0B-SPLINE       0D     48
     126     227       0       0       0       0       0       000010001D     49
     126       0       0       7       1       0       0B-SPLINE       0D     50
     128     234       0       0       0       0       0       000010001D     51
     128       0       0      15       8       0       0 SURFACE       0D     52
     126     249       0       0       0       0       0       000010001D     53
     126       0       0       7       1       0       0B-SPLINE       0D     54
     128     256       0       0       0       0       0       000010001D     55
     128       0       0      12       1       0       0 SURFACE       0D     56
     126     268       0       0       0       0       0       000010001D     57
     126       0       0       7       1       0       0B-SPLINE       0D     58
     128     275       0       0       0       0       0       000010001D     59
     128       0       0      15       8       0       0 SURFACE       0D     60
     126     290       0       0       0       0       0       000010001D     61
     126       0       0       7       1       0       0B-SPLINE       0D     62
     128     297       0       0       0       0       0       000010001D     63
     128       0       0      12       1       0       0 SURFACE       0D     64
     126     309       0       0       0       0       0       000010001D     65
     126       0       0       7       1       0       0B-SPLINE       0D     66
     128     316       0       0       0       0       0       000010001D     67
     128       0       0      21       8       0       0 SURFACE       0D     68
     126     337       0       0       0       0       0       000010001D     69
     126       0       0       7       1       0       0B-SPLINE       0D     70
     128     344       0       0       0       0       0       000010001D     71
     128       0       0      21       8       0       0 SURFACE       0D     72
     126     365       0       0       0       0       0       000010001D     73
     126       0       0       7       1       0       0B-SPLINE       0D     74
     128     372       0       0       0       0       0       000010001D     75
     128       0       0      12       1       0       0 SURFACE       0D     76
     126     384       0       0       0       0       0       000010001D     77
     126       0       0       7       1       0       0B-SPLINE       0D     78
     128     391       0       0       0       0       0       000010001D     79
     128       0       0      15       8       0       0 SURFACE       0D     80
     126     406       0       0       0       0       0       000010001D     81
     126       0       0       7       1       0       0B-SPLINE       0D     82
     128     413       0       0       0       0       0       000010001D     83
     128       0       0      12       1       0       0 SURFACE       0D     84
     502     425       0       0       0       0       0       000010001D     85
     502       0       0      21       1       0       0  VERTEX       0D     86
     504     446       0       0       0       0       0       000010001D     87
     504       0       0      30       1       0       0    EDGE       0D     88
     508     476       0       0       0       0       0       000010001D     89
     508       0       0      10       1       0       0    LOOP       0D     90
     510     486       0       0       0       0       0       000010001D     91
     510       0       0       1       1       0       0    FACE       0D     92
     508     487       0       0       0       0       0       000010001D     93
     508       0       0      10       1       0       0    LOOP       0D     94
     510     497       0       0       0       0       0       000010001D     95
     510       0       0       1       1       0       0    FACE       0D     96
     508     498       0       0       0       0       0       000010001D     97
     508       0       0       4       1       0       0    LOOP       0D     98
     510     502       0       0       0       0       0       000010001D     99
     510       0       0       1       1       0       0    FACE       0D    100
     508     503       0       0       0       0       0       000010001D    101
     508       0       0       4       1       0       0    LOOP       0D    102
     510     507       0       0       0       0       0       000010001D    103
     510       0       0       1       1       0       0    FACE       0D    104
     508     508       0       0       0       0       0       000010001D    105
     508       0       0       4       1       0       0    LOOP       0D    106
     510     512       0       0       0       0       0       000010001D    107
     510       0       0       1       1       0       0    FACE       0D    108
     508     513       0       0       0       0       0       000010001D    109
     508       0       0       4       1       0       0    LOOP       0D    110
     510     517       0       0       0       0       0       000010001D    111
     510       0       0       1       1       0       0    FACE       0D    112
     508     518       0       0       0       0       0       000010001D    113
     508       0       0       4       1       0       0    LOOP       0D    114
     510     522       0       0       0       0       0       000010001D    115
     510       0       0       1       1       0       0    FACE       0D    116
     508     523       0       0       0       0       0       000010001D    117
     508       0       0       4       1       0       0    LOOP       0D    118
     510     527       0       0       0       0       0       000010001D    119
     510       0       0       1       1       0       0    FACE       0D    120
     508     528       0       0       0       0       0       000010001D    121
     508       0       0       4       1       0       0    LOOP       0D    122
     510     532       0       0       0       0       0       000010001D    123
     510       0       0       1       1       0       0    FACE       0D    124
     508     533       0       0       0       0       0       000010001D    125
     508       0       0       4       1       0       0    LOOP       0D    126
     510     537       0       0       0       0       0       000010001D    127
     510       0       0       1       1       0       0    FACE       0D    128
     508     538       0       0       0       0       0       000010001D    129
     508       0       0       4       1       0       0    LOOP       0D    130
     510     542       0       0       0       0       0       000010001D    131
     510       0       0       1       1       0       0    FACE       0D    132
     508     543       0       0       0       0       0       000010001D    133
     508       0       0       4       1       0       0    LOOP       0D    134
     510     547       0       0       0       0       0       000010001D    135
     510       0       0       1       1       0       0    FACE       0D    136
     514     548       0       0       0       0       0       000010001D    137
     514       0       0       3       1       0       0   SHELL       0D    138
     186     551       0       0       0       0       0       000000001D    139
     186       0       0       1       0       0       0   B-REP       0D    140
     128     552       0       0       0       0       0       000010001D    141
     128       0       0      12       1       0       0 SURFACE       0D    142
     126     564       0       0       0       0       0       000010001D    143
     126       0       0       9       2       0       0B-SPLINE       0D    144
     126     573       0       0       0       0       0       000010001D    145
     126       0       0       9       2       0       0B-SPLINE       0D    146
     126     582       0       0       0       0       0       000010001D    147
     126       0       0       9       2       0       0B-SPLINE       0D    148
     126     591       0       0       0       0       0       000010001D    149
     126       0       0       9       2       0       0B-SPLINE       0D    150
     128     600       0       0       0       0       0       000010001D    151
     128       0       0      12       1       0       0 SURFACE       0D    152
     126     612       0       0       0       0       0       000010001D    153
     126       0       0       9       2       0       0B-SPLINE       0D    154
     126     621       0       0       0       0       0       000010001D    155
     126       0       0       9       2       0       0B-SPLINE       0D    156
     126     630       0       0       0       0       0       000010001D    157
     126       0       0       9       2       0       0B-SPLINE       0D    158
     126     639       0       0       0       0       0       000010001D    159
     126       0       0       9       2       0       0B-SPLINE       0D    160
     128     648       0       0       0       0       0       000010001D    161
     128       0       0      18       2       0       0 SURFACE       0D    162
     126     666       0       0       0       0       0       000010001D    163
     126       0       0       7       1       0       0B-SPLINE       0D    164
     126     673       0       0       0       0       0       000010001D    165
     126       0       0       7       1       0       0B-SPLINE       0D    166
     128     680       0       0       0       0       0       000010001D    167
     128       0       0      18       2       0       0 SURFACE       0D    168
     502     698       0       0       0       0       0       000010001D    169
     502       0       0       9       1       0       0  VERTEX       0D    170
     504     707       0       0       0       0       0       000010001D    171
     504       0       0      10       1       0       0    EDGE       0D    172
     508     717       0       0       0       0       0       000010001D    173
     508       0       0       4       1       0       0    LOOP       0D    174
     510     721       0       0       0       0       0       000010001D    175
     510       0       0       1       1       0       0    FACE       0D    176
     508     722       0       0       0       0       0       000010001D    177
     508       0       0       4       1       0       0    LOOP       0D    178
     510     726       0       0       0       0       0       000010001D    179
     510       0       0       1       1       0       0    FACE       0D    180
     508     727       0       0       0       0       0       000010001D    181
     508       0       0       6       1       0       0    LOOP       0D    182
     510     733       0       0       0       0       0       000010001D    183
     510       0       0       1       1       0       0    FACE       0D    184
     508     734       0       0       0       0       0       000010001D    185
     508       0       0       6       1       0       0    LOOP       0D    186
     510     740       0       0       0       0       0       000010001D    187
     510       0       0       1       1       0       0    FACE       0D    188
     514     741       0       0       0       0       0       000010001D    189
     514       0       0       1       1       0       0   SHELL       0D    190
     186     742       0       0       0       0       0       000000001D    191
     186       0       0       1       0       0       0   B-REP       0D    192
     128     743       0       0       0       0       0       000010001D    193
     128       0       0      12       1       0       0 SURFACE       0D    194
     126     755       0       0       0       0       0       000010001D    195
     126       0       0       9       2       0       0B-SPLINE       0D    196
     126     764       0       0       0       0       0       000010001D    197
     126       0       0       9       2       0       0B-SPLINE       0D    198
     126     773       0       0       0       0       0       000010001D    199
     126       0       0       9       2       0       0B-SPLINE       0D    200
     126     782       0       0       0       0       0       000010001D    201
     126       0       0       9       2       0       0B-SPLINE       0D    202
     128     791       0       0       0       0       0       000010001D    203
     128       0       0      12       1       0       0 SURFACE       0D    204
     126     803       0       0       0       0       0       000010001D    205
     126       0       0       9       2       0       0B-SPLINE       0D    206
     126     812       0       0       0       0       0       000010001D    207
     126       0       0       9       2       0       0B-SPLINE       0D    208
     126     821       0       0       0       0       0       000010001D    209
     126       0       0       9       2       0       0B-SPLINE       0D    210
     126     830       0       0       0       0       0       000010001D    211
     126       0       0       9       2       0       0B-SPLINE       0D    212
     128     839       0       0       0       0       0       000010001D    213
     128       0       0      18       2       0       0 SURFACE       0D    214
     126     857       0       0       0       0       0       000010001D    215
     126       0       0       7       1       0       0B-SPLINE       0D    216
     126     864       0       0       0       0       0       000010001D    217
     126       0       0       7       1       0       0B-SPLINE       0D    218
     128     871       0       0       0       0       0       000010001D    219
     128       0       0      18       2       0       0 SURFACE       0D    220
     502     889       0       0       0       0       0       000010001D    221
     502       0       0       9       1       0       0  VERTEX       0D    222
     504     898       0       0       0       0       0       000010001D    223
     504       0       0      10       1       0       0    EDGE       0D    224
     508     908       0       0       0       0       0       000010001D    225
     508       0       0       4       1       0       0    LOOP       0D    226
     510     912       0       0       0       0       0       000010001D    227
     510       0       0       1       1       0       0    FACE       0D    228
     508     913       0       0       0       0       0       000010001D    229
     508       0       0       4       1       0       0    LOOP       0D    230
     510     917       0       0       0       0       0       000010001D    231
     510       0       0       1       1       0       0    FACE       0D    232
     508     918       0       0       0       0       0       000010001D    233
     508       0       0       6       1       0       0    LOOP       0D    234
     510     924       0       0       0       0       0       000010001D    235
     510       0       0       1       1       0       0    FACE       0D    236
     508     925       0       0       0       0       0       000010001D    237
     508       0       0       6       1       0       0    LOOP       0D    238
     510     931       0       0       0       0       0       000010001D    239
     510       0       0       1       1       0       0    FACE       0D    240
     514     932       0       0       0       0       0       000010001D    241
     514       0       0       1       1       0       0   SHELL       0D    242
     186     933       0       0       0       0       0       000000001D    243
     186       0       0       1       0       0       0   B-REP       0D    244
128,1,1,1,1,0,0,                                                       1P      1
1,0,0,                                                                 1P      2
0.00000000000,0.00000000000,1.00000000000,                             1P      3
1.00000000000,0.00000000000,0.00000000000,                             1P      4
1.00000000000,1.00000000000,1.00000000000,                             1P      5
1.00000000000,1.00000000000,1.00000000000,                             1P      6
27.7473759078,11.7805848304,0.00000000000,                             1P      7
-4.25115151703,7.96062303568,0.00000000000,                            1P      8
30.1040674776,-7.96062303568,0.00000000000,                            1P      9
-1.89445994718,-11.7805848304,0.00000000000,                           1P     10
0.00000000000,1.00000000000,0.00000000000,                             1P     11
1.00000000000,0,0,0;                                                   1P     12
126,1,1,0,0,1,0,                                                       3P     13
0.00000000000,0.00000000000,1.00000000000,                             3P     14
1.00000000000,1.00000000000,1.00000000000,                             3P     15
4.50900000000,0.523000000000,0.00000000000,                            3P     16
0.357000000000,0.500000000000E-02,0.00000000000,                       3P     17
0.00000000000,1.00000000000,0.00000000000,                             3P     18
0.00000000000,0.00000000000,0,0,0;                                     3P     19
126,2,2,0,0,0,0,                                                       5P     20
0.00000000000,0.00000000000,0.00000000000,                             5P     21
1.00000000000,1.00000000000,1.00000000000,                             5P     22
1.00000000000,0.996367311788,1.00000000000,                            5P     23
6.17500000000,0.877000000000,0.00000000000,                            5P     24
5.35712822875,0.628803307635,0.00000000000,                            5P     25
4.50900000000,0.523000000000,0.00000000000,                            5P     26
0.00000000000,1.00000000000,0.00000000000,                             5P     27
0.00000000000,0.00000000000,0,0,0;                                     5P     28
126,1,1,0,0,1,0,                                                       7P     29
0.00000000000,0.00000000000,1.00000000000,                             7P     30
1.00000000000,1.00000000000,1.00000000000,                             7P     31
19.0480000000,4.78400000000,0.00000000000,                             7P     32
6.17500000000,0.877000000000,0.00000000000,                            7P     33
0.00000000000,1.00000000000,0.00000000000,                             7P     34
0.00000000000,0.00000000000,0,0,0;                                     7P     35
126,4,2,0,0,0,0,                                                       9P     36
0.00000000000,0.00000000000,0.00000000000,                             9P     37
0.500000000000,0.500000000000,1.00000000000,                           9P     38
1.00000000000,1.00000000000,1.00000000000,                             9P     39
0.893222595334,1.00000000000,0.893222595334,                           9P     40
1.00000000000,25.5000000000,0.00000000000,                             9P     41
0.00000000000,25.4997348697,2.51681226190,                             9P     42
0.00000000000,23.4780429928,4.01584728039,                             9P     43
0.00000000000,21.4563511158,5.51488229888,                             9P     44
0.00000000000,19.0480000000,4.78400000000,                             9P     45
0.00000000000,0.00000000000,1.00000000000,                             9P     46
0.00000000000,0.00000000000,0.00000000000,                             9P     47
0,0,0;                                                                 9P     48
126,4,2,0,0,0,0,                                                      11P     49
0.00000000000,0.00000000000,0.00000000000,                            11P     50
0.500000000000,0.500000000000,1.00000000000,                          11P     51
1.00000000000,1.00000000000,1.00000000000,                            11P     52
0.893222595334,1.00000000000,0.893222595334,                          11P     53
1.00000000000,19.0480000000,-4.78400000000,                           11P     54
0.00000000000,21.4563511158,-5.51488229888,                           11P     55
0.00000000000,23.4780429928,-4.01584728039,                           11P     56
0.00000000000,25.4997348697,-2.51681226190,                           11P     57
0.00000000000,25.5000000000,0.444089209850E-15,                       11P     58
0.00000000000,0.00000000000,1.00000000000,                            11P     59
0.00000000000,0.00000000000,0.00000000000,                            11P     60
0,0,0;                                                                11P     61
126,1,1,0,0,1,0,                                                      13P     62
0.00000000000,0.00000000000,1.00000000000,                            13P     63
1.00000000000,1.00000000000,1.00000000000,                            13P     64
6.17500000000,-0.877000000000,0.00000000000,                          13P     65
19.0480000000,-4.78400000000,0.00000000000,                           13P     66
0.00000000000,1.00000000000,0.00000000000,                            13P     67
0.00000000000,0.00000000000,0,0,0;                                    13P     68
126,2,2,0,0,0,0,                                                      15P     69
0.00000000000,0.00000000000,0.00000000000,                            15P     70
1.00000000000,1.00000000000,1.00000000000,                            15P     71
1.00000000000,0.996367311788,1.00000000000,                           15P     72
4.50900000000,-0.523000000000,0.00000000000,                          15P     73
5.35712822875,-0.628803307635,0.00000000000,                          15P     74
6.17500000000,-0.877000000000,0.00000000000,                          15P     75
0.00000000000,1.00000000000,0.00000000000,                            15P     76
0.00000000000,0.00000000000,0,0,0;                                    15P     77
126,1,1,0,0,1,0,                                                      17P     78
0.00000000000,0.00000000000,1.00000000000,                            17P     79
1.00000000000,1.00000000000,1.00000000000,                            17P     80
0.357000000000,-0.500000000000E-02,0.00000000000,                     17P     81
4.50900000000,-0.523000000000,0.00000000000,                          17P     82
0.00000000000,1.00000000000,0.00000000000,                            17P     83
0.00000000000,0.00000000000,0,0,0;                                    17P     84
126,2,2,0,0,0,0,                                                      19P     85
0.00000000000,0.00000000000,0.00000000000,                            19P     86
1.00000000000,1.00000000000,1.00000000000,                            19P     87
1.00000000000,0.768114574787,1.00000000000,                           19P     88
0.353000000000,0.00000000000,0.00000000000,                           19P     89
0.352915960572,-0.416723154269E-02,0.00000000000,                     19P     90
0.357000000000,-0.500000000000E-02,0.00000000000,                     19P     91
0.00000000000,1.00000000000,0.00000000000,                            19P     92
0.00000000000,0.00000000000,0,0,0;                                    19P     93
126,2,2,0,0,0,0,                                                      21P     94
0.00000000000,0.00000000000,0.00000000000,                            21P     95
1.00000000000,1.00000000000,1.00000000000,                            21P     96
1.00000000000,0.768114574787,1.00000000000,                           21P     97
0.357000000000,0.500000000000E-02,0.00000000000,                      21P     98
0.352915960572,0.416723154269E-02,0.00000000000,                      21P     99
0.353000000000,0.00000000000,0.00000000000,                           21P    100
0.00000000000,1.00000000000,0.00000000000,                            21P    101
0.00000000000,0.00000000000,0,0,0;                                    21P    102
128,1,1,1,1,0,0,                                                      23P    103
1,0,0,                                                                23P    104
0.00000000000,0.00000000000,1.00000000000,                            23P    105
1.00000000000,0.00000000000,0.00000000000,                            23P    106
1.00000000000,1.00000000000,1.00000000000,                            23P    107
1.00000000000,1.00000000000,1.00000000000,                            23P    108
27.7473759078,11.7805848304,0.250000000000,                           23P    109
-4.25115151703,7.96062303568,0.250000000000,                          23P    110
30.1040674776,-7.96062303568,0.250000000000,                          23P    111
-1.89445994718,-11.7805848304,0.250000000000,                         23P    112
0.00000000000,1.00000000000,0.00000000000,                            23P    113
1.00000000000,0,0,0;                                                  23P    114
126,2,2,0,0,0,0,                                                      25P    115
0.00000000000,0.00000000000,0.00000000000,                            25P    116
1.00000000000,1.00000000000,1.00000000000,                            25P    117
1.00000000000,0.768114574787,1.00000000000,                           25P    118
0.357000000000,0.500000000000E-02,0.250000000000,                     25P    119
0.352915960572,0.416723154269E-02,0.250000000000,                     25P    120
0.353000000000,0.00000000000,0.250000000000,                          25P    121
0.00000000000,1.00000000000,0.00000000000,                            25P    122
0.00000000000,0.00000000000,0,0,0;                                    25P    123
126,2,2,0,0,0,0,                                                      27P    124
0.00000000000,0.00000000000,0.00000000000,                            27P    125
1.00000000000,1.00000000000,1.00000000000,                            27P    126
1.00000000000,0.768114574787,1.00000000000,                           27P    127
0.353000000000,0.00000000000,0.250000000000,                          27P    128
0.352915960572,-0.416723154269E-02,0.250000000000,                    27P    129
0.357000000000,-0.500000000000E-02,0.250000000000,                    27P    130
0.00000000000,1.00000000000,0.00000000000,                            27P    131
0.00000000000,0.00000000000,0,0,0;                                    27P    132
126,1,1,0,0,1,0,                                                      29P    133
0.00000000000,0.00000000000,1.00000000000,                            29P    134
1.00000000000,1.00000000000,1.00000000000,                            29P    135
0.357000000000,-0.500000000000E-02,0.250000000000,                    29P    136
4.50900000000,-0.523000000000,0.250000000000,                         29P    137
0.00000000000,1.00000000000,0.00000000000,                            29P    138
0.00000000000,0.00000000000,0,0,0;                                    29P    139
126,2,2,0,0,0,0,                                                      31P    140
0.00000000000,0.00000000000,0.00000000000,                            31P    141
1.00000000000,1.00000000000,1.00000000000,                            31P    142
1.00000000000,0.996367311788,1.00000000000,                           31P    143
4.50900000000,-0.523000000000,0.250000000000,                         31P    144
5.35712822875,-0.628803307635,0.250000000000,                         31P    145
6.17500000000,-0.877000000000,0.250000000000,                         31P    146
0.00000000000,1.00000000000,0.00000000000,                            31P    147
0.00000000000,0.00000000000,0,0,0;                                    31P    148
126,1,1,0,0,1,0,                                                      33P    149
0.00000000000,0.00000000000,1.00000000000,                            33P    150
1.00000000000,1.00000000000,1.00000000000,                            33P    151
6.17500000000,-0.877000000000,0.250000000000,                         33P    152
19.0480000000,-4.78400000000,0.250000000000,                          33P    153
0.00000000000,1.00000000000,0.00000000000,                            33P    154
0.00000000000,0.00000000000,0,0,0;                                    33P    155
126,4,2,0,0,0,0,                                                      35P    156
0.00000000000,0.00000000000,0.00000000000,                            35P    157
0.500000000000,0.500000000000,1.00000000000,                          35P    158
1.00000000000,1.00000000000,1.00000000000,                            35P    159
0.893222595334,1.00000000000,0.893222595334,                          35P    160
1.00000000000,19.0480000000,-4.78400000000,                           35P    161
0.250000000000,21.4563511158,-5.51488229888,                          35P    162
0.250000000000,23.4780429928,-4.01584728039,                          35P    163
0.250000000000,25.4997348697,-2.51681226190,                          35P    164
0.250000000000,25.5000000000,0.00000000000,                           35P    165
0.250000000000,0.00000000000,1.00000000000,                           35P    166
0.00000000000,0.00000000000,0.00000000000,                            35P    167
0,0,0;                                                                35P    168
126,4,2,0,0,0,0,                                                      37P    169
0.00000000000,0.00000000000,0.00000000000,                            37P    170
0.500000000000,0.500000000000,1.00000000000,                          37P    171
1.00000000000,1.00000000000,1.00000000000,                            37P    172
0.893222595334,1.00000000000,0.893222595334,                          37P    173
1.00000000000,25.5000000000,0.00000000000,                            37P    174
0.250000000000,25.4997348697,2.51681226190,                           37P    175
0.250000000000,23.4780429928,4.01584728039,                           37P    176
0.250000000000,21.4563511158,5.51488229888,                           37P    177
0.250000000000,19.0480000000,4.78400000000,                           37P    178
0.250000000000,0.00000000000,1.00000000000,                           37P    179
0.00000000000,0.00000000000,0.00000000000,                            37P    180
0,0,0;                                                                37P    181
126,1,1,0,0,1,0,                                                      39P    182
0.00000000000,0.00000000000,1.00000000000,                            39P    183
1.00000000000,1.00000000000,1.00000000000,                            39P    184
19.0480000000,4.78400000000,0.250000000000,                           39P    185
6.17500000000,0.877000000000,0.250000000000,                          39P    186
0.00000000000,1.00000000000,0.00000000000,                            39P    187
0.00000000000,0.00000000000,0,0,0;                                    39P    188
126,2,2,0,0,0,0,                                                      41P    189
0.00000000000,0.00000000000,0.00000000000,                            41P    190
1.00000000000,1.00000000000,1.00000000000,                            41P    191
1.00000000000,0.996367311788,1.00000000000,                           41P    192
6.17500000000,0.877000000000,0.250000000000,                          41P    193
5.35712822875,0.628803307635,0.250000000000,                          41P    194
4.50900000000,0.523000000000,0.250000000000,                          41P    195
0.00000000000,1.00000000000,0.00000000000,                            41P    196
0.00000000000,0.00000000000,0,0,0;                                    41P    197
126,1,1,0,0,1,0,                                                      43P    198
0.00000000000,0.00000000000,1.00000000000,                            43P    199
1.00000000000,1.00000000000,1.00000000000,                            43P    200
4.50900000000,0.523000000000,0.250000000000,                          43P    201
0.357000000000,0.500000000000E-02,0.250000000000,                     43P    202
0.00000000000,1.00000000000,0.00000000000,                            43P    203
0.00000000000,0.00000000000,0,0,0;                                    43P    204
128,2,1,2,1,0,0,                                                      45P    205
0,0,0,                                                                45P    206
0.00000000000,0.00000000000,0.00000000000,                            45P    207
1.00000000000,1.00000000000,1.00000000000,                            45P    208
0.00000000000,0.00000000000,1.00000000000,                            45P    209
1.00000000000,1.00000000000,0.768114574787,                           45P    210
1.00000000000,1.00000000000,0.768114574787,                           45P    211
1.00000000000,0.357000000000,0.500000000000E-02,                      45P    212
0.00000000000,0.352915960572,0.416723154269E-02,                      45P    213
0.00000000000,0.353000000000,0.00000000000,                           45P    214
0.00000000000,0.357000000000,0.500000000000E-02,                      45P    215
0.250000000000,0.352915960572,0.416723154269E-02,                     45P    216
0.250000000000,0.353000000000,0.00000000000,                          45P    217
0.250000000000,0.00000000000,1.00000000000,                           45P    218
0.00000000000,1.00000000000,0,0,0;                                    45P    219
126,1,1,0,0,1,0,                                                      47P    220
0.00000000000,0.00000000000,1.00000000000,                            47P    221
1.00000000000,1.00000000000,1.00000000000,                            47P    222
0.353000000000,0.00000000000,0.00000000000,                           47P    223
0.353000000000,0.00000000000,0.250000000000,                          47P    224
0.00000000000,1.00000000000,0.00000000000,                            47P    225
0.00000000000,0.00000000000,0,0,0;                                    47P    226
126,1,1,0,0,1,0,                                                      49P    227
0.00000000000,0.00000000000,1.00000000000,                            49P    228
1.00000000000,1.00000000000,1.00000000000,                            49P    229
0.357000000000,0.500000000000E-02,0.00000000000,                      49P    230
0.357000000000,0.500000000000E-02,0.250000000000,                     49P    231
0.00000000000,1.00000000000,0.00000000000,                            49P    232
0.00000000000,0.00000000000,0,0,0;                                    49P    233
128,2,1,2,1,0,0,                                                      51P    234
0,0,0,                                                                51P    235
0.00000000000,0.00000000000,0.00000000000,                            51P    236
1.00000000000,1.00000000000,1.00000000000,                            51P    237
0.00000000000,0.00000000000,1.00000000000,                            51P    238
1.00000000000,1.00000000000,0.768114574787,                           51P    239
1.00000000000,1.00000000000,0.768114574787,                           51P    240
1.00000000000,0.353000000000,0.00000000000,                           51P    241
0.00000000000,0.352915960572,-0.416723154269E-02,                     51P    242
0.00000000000,0.357000000000,-0.500000000000E-02,                     51P    243
0.00000000000,0.353000000000,0.00000000000,                           51P    244
0.250000000000,0.352915960572,-0.416723154269E-02,                    51P    245
0.250000000000,0.357000000000,-0.500000000000E-02,                    51P    246
0.250000000000,0.00000000000,1.00000000000,                           51P    247
0.00000000000,1.00000000000,0,0,0;                                    51P    248
126,1,1,0,0,1,0,                                                      53P    249
0.00000000000,0.00000000000,1.00000000000,                            53P    250
1.00000000000,1.00000000000,1.00000000000,                            53P    251
0.357000000000,-0.500000000000E-02,0.00000000000,                     53P    252
0.357000000000,-0.500000000000E-02,0.250000000000,                    53P    253
0.00000000000,1.00000000000,0.00000000000,                            53P    254
0.00000000000,0.00000000000,0,0,0;                                    53P    255
128,1,1,1,1,0,0,                                                      55P    256
1,0,0,                                                                55P    257
0.00000000000,0.00000000000,1.00000000000,                            55P    258
1.00000000000,0.00000000000,0.00000000000,                            55P    259
1.00000000000,1.00000000000,1.00000000000,                            55P    260
1.00000000000,1.00000000000,1.00000000000,                            55P    261
0.357000000000,-0.500000000000E-02,0.00000000000,                     55P    262
4.50900000000,-0.523000000000,0.00000000000,                          55P    263
0.357000000000,-0.500000000000E-02,0.250000000000,                    55P    264
4.50900000000,-0.523000000000,0.250000000000,                         55P    265
0.00000000000,1.00000000000,0.00000000000,                            55P    266
1.00000000000,0,0,0;                                                  55P    267
126,1,1,0,0,1,0,                                                      57P    268
0.00000000000,0.00000000000,1.00000000000,                            57P    269
1.00000000000,1.00000000000,1.00000000000,                            57P    270
4.50900000000,-0.523000000000,0.00000000000,                          57P    271
4.50900000000,-0.523000000000,0.250000000000,                         57P    272
0.00000000000,1.00000000000,0.00000000000,                            57P    273
0.00000000000,0.00000000000,0,0,0;                                    57P    274
128,2,1,2,1,0,0,                                                      59P    275
0,0,0,                                                                59P    276
0.00000000000,0.00000000000,0.00000000000,                            59P    277
1.00000000000,1.00000000000,1.00000000000,                            59P    278
0.00000000000,0.00000000000,1.00000000000,                            59P    279
1.00000000000,1.00000000000,0.996367311788,                           59P    280
1.00000000000,1.00000000000,0.996367311788,                           59P    281
1.00000000000,4.50900000000,-0.523000000000,                          59P    282
0.00000000000,5.35712822875,-0.628803307635,                          59P    283
0.00000000000,6.17500000000,-0.877000000000,                          59P    284
0.00000000000,4.50900000000,-0.523000000000,                          59P    285
0.250000000000,5.35712822875,-0.628803307635,                         59P    286
0.250000000000,6.17500000000,-0.877000000000,                         59P    287
0.250000000000,0.00000000000,1.00000000000,                           59P    288
0.00000000000,1.00000000000,0,0,0;                                    59P    289
126,1,1,0,0,1,0,                                                      61P    290
0.00000000000,0.00000000000,1.00000000000,                            61P    291
1.00000000000,1.00000000000,1.00000000000,                            61P    292
6.17500000000,-0.877000000000,0.00000000000,                          61P    293
6.17500000000,-0.877000000000,0.250000000000,                         61P    294
0.00000000000,1.00000000000,0.00000000000,                            61P    295
0.00000000000,0.00000000000,0,0,0;                                    61P    296
128,1,1,1,1,0,0,                                                      63P    297
1,0,0,                                                                63P    298
0.00000000000,0.00000000000,1.00000000000,                            63P    299
1.00000000000,0.00000000000,0.00000000000,                            63P    300
1.00000000000,1.00000000000,1.00000000000,                            63P    301
1.00000000000,1.00000000000,1.00000000000,                            63P    302
6.17500000000,-0.877000000000,0.00000000000,                          63P    303
19.0480000000,-4.78400000000,0.00000000000,                           63P    304
6.17500000000,-0.877000000000,0.250000000000,                         63P    305
19.0480000000,-4.78400000000,0.250000000000,                          63P    306
0.00000000000,1.00000000000,0.00000000000,                            63P    307
1.00000000000,0,0,0;                                                  63P    308
126,1,1,0,0,1,0,                                                      65P    309
0.00000000000,0.00000000000,1.00000000000,                            65P    310
1.00000000000,1.00000000000,1.00000000000,                            65P    311
19.0480000000,-4.78400000000,0.00000000000,                           65P    312
19.0480000000,-4.78400000000,0.250000000000,                          65P    313
0.00000000000,1.00000000000,0.00000000000,                            65P    314
0.00000000000,0.00000000000,0,0,0;                                    65P    315
128,4,1,2,1,0,0,                                                      67P    316
0,0,0,                                                                67P    317
0.00000000000,0.00000000000,0.00000000000,                            67P    318
0.500000000000,0.500000000000,1.00000000000,                          67P    319
1.00000000000,1.00000000000,0.00000000000,                            67P    320
0.00000000000,1.00000000000,1.00000000000,                            67P    321
1.00000000000,0.893222595334,1.00000000000,                           67P    322
0.893222595334,1.00000000000,1.00000000000,                           67P    323
0.893222595334,1.00000000000,0.893222595334,                          67P    324
1.00000000000,19.0480000000,-4.78400000000,                           67P    325
0.00000000000,21.4563511158,-5.51488229888,                           67P    326
0.00000000000,23.4780429928,-4.01584728039,                           67P    327
0.00000000000,25.4997348697,-2.51681226190,                           67P    328
0.00000000000,25.5000000000,0.444089209850E-15,                       67P    329
0.00000000000,19.0480000000,-4.78400000000,                           67P    330
0.250000000000,21.4563511158,-5.51488229888,                          67P    331
0.250000000000,23.4780429928,-4.01584728039,                          67P    332
0.250000000000,25.4997348697,-2.51681226190,                          67P    333
0.250000000000,25.5000000000,0.00000000000,                           67P    334
0.250000000000,0.00000000000,1.00000000000,                           67P    335
0.00000000000,1.00000000000,0,0,0;                                    67P    336
126,1,1,0,0,1,0,                                                      69P    337
0.00000000000,0.00000000000,1.00000000000,                            69P    338
1.00000000000,1.00000000000,1.00000000000,                            69P    339
25.5000000000,0.00000000000,0.00000000000,                            69P    340
25.5000000000,0.00000000000,0.250000000000,                           69P    341
0.00000000000,1.00000000000,0.00000000000,                            69P    342
0.00000000000,0.00000000000,0,0,0;                                    69P    343
128,4,1,2,1,0,0,                                                      71P    344
0,0,0,                                                                71P    345
0.00000000000,0.00000000000,0.00000000000,                            71P    346
0.500000000000,0.500000000000,1.00000000000,                          71P    347
1.00000000000,1.00000000000,0.00000000000,                            71P    348
0.00000000000,1.00000000000,1.00000000000,                            71P    349
1.00000000000,0.893222595334,1.00000000000,                           71P    350
0.893222595334,1.00000000000,1.00000000000,                           71P    351
0.893222595334,1.00000000000,0.893222595334,                          71P    352
1.00000000000,25.5000000000,0.00000000000,                            71P    353
0.00000000000,25.4997348697,2.51681226190,                            71P    354
0.00000000000,23.4780429928,4.01584728039,                            71P    355
0.00000000000,21.4563511158,5.51488229888,                            71P    356
0.00000000000,19.0480000000,4.78400000000,                            71P    357
0.00000000000,25.5000000000,0.00000000000,                            71P    358
0.250000000000,25.4997348697,2.51681226190,                           71P    359
0.250000000000,23.4780429928,4.01584728039,                           71P    360
0.250000000000,21.4563511158,5.51488229888,                           71P    361
0.250000000000,19.0480000000,4.78400000000,                           71P    362
0.250000000000,0.00000000000,1.00000000000,                           71P    363
0.00000000000,1.00000000000,0,0,0;                                    71P    364
126,1,1,0,0,1,0,                                                      73P    365
0.00000000000,0.00000000000,1.00000000000,                            73P    366
1.00000000000,1.00000000000,1.00000000000,                            73P    367
19.0480000000,4.78400000000,0.00000000000,                            73P    368
19.0480000000,4.78400000000,0.250000000000,                           73P    369
0.00000000000,1.00000000000,0.00000000000,                            73P    370
0.00000000000,0.00000000000,0,0,0;                                    73P    371
128,1,1,1,1,0,0,                                                      75P    372
1,0,0,                                                                75P    373
0.00000000000,0.00000000000,1.00000000000,                            75P    374
1.00000000000,0.00000000000,0.00000000000,                            75P    375
1.00000000000,1.00000000000,1.00000000000,                            75P    376
1.00000000000,1.00000000000,1.00000000000,                            75P    377
19.0480000000,4.78400000000,0.00000000000,                            75P    378
6.17500000000,0.877000000000,0.00000000000,                           75P    379
19.0480000000,4.78400000000,0.250000000000,                           75P    380
6.17500000000,0.877000000000,0.250000000000,                          75P    381
0.00000000000,1.00000000000,0.00000000000,                            75P    382
1.00000000000,0,0,0;                                                  75P    383
126,1,1,0,0,1,0,                                                      77P    384
0.00000000000,0.00000000000,1.00000000000,                            77P    385
1.00000000000,1.00000000000,1.00000000000,                            77P    386
6.17500000000,0.877000000000,0.00000000000,                           77P    387
6.17500000000,0.877000000000,0.250000000000,                          77P    388
0.00000000000,1.00000000000,0.00000000000,                            77P    389
0.00000000000,0.00000000000,0,0,0;                                    77P    390
128,2,1,2,1,0,0,                                                      79P    391
0,0,0,                                                                79P    392
0.00000000000,0.00000000000,0.00000000000,                            79P    393
1.00000000000,1.00000000000,1.00000000000,                            79P    394
0.00000000000,0.00000000000,1.00000000000,                            79P    395
1.00000000000,1.00000000000,0.996367311788,                           79P    396
1.00000000000,1.00000000000,0.996367311788,                           79P    397
1.00000000000,6.17500000000,0.877000000000,                           79P    398
0.00000000000,5.35712822875,0.628803307635,                           79P    399
0.00000000000,4.50900000000,0.523000000000,                           79P    400
0.00000000000,6.17500000000,0.877000000000,                           79P    401
0.250000000000,5.35712822875,0.628803307635,                          79P    402
0.250000000000,4.50900000000,0.523000000000,                          79P    403
0.250000000000,0.00000000000,1.00000000000,                           79P    404
0.00000000000,1.00000000000,0,0,0;                                    79P    405
126,1,1,0,0,1,0,                                                      81P    406
0.00000000000,0.00000000000,1.00000000000,                            81P    407
1.00000000000,1.00000000000,1.00000000000,                            81P    408
4.50900000000,0.523000000000,0.00000000000,                           81P    409
4.50900000000,0.523000000000,0.250000000000,                          81P    410
0.00000000000,1.00000000000,0.00000000000,                            81P    411
0.00000000000,0.00000000000,0,0,0;                                    81P    412
128,1,1,1,1,0,0,                                                      83P    413
1,0,0,                                                                83P    414
0.00000000000,0.00000000000,1.00000000000,                            83P    415
1.00000000000,0.00000000000,0.00000000000,                            83P    416
1.00000000000,1.00000000000,1.00000000000,                            83P    417
1.00000000000,1.00000000000,1.00000000000,                            83P    418
4.50900000000,0.523000000000,0.00000000000,                           83P    419
0.357000000000,0.500000000000E-02,0.00000000000,                      83P    420
4.50900000000,0.523000000000,0.250000000000,                          83P    421
0.357000000000,0.500000000000E-02,0.250000000000,                     83P    422
0.00000000000,1.00000000000,0.00000000000,                            83P    423
1.00000000000,0,0,0;                                                  83P    424
502,20,0.357000000000,0.500000000000E-02,                             85P    425
0.00000000000,4.50900000000,0.523000000000,                           85P    426
0.00000000000,6.17500000000,0.877000000000,                           85P    427
0.00000000000,19.0480000000,4.78400000000,                            85P    428
0.00000000000,25.5000000000,0.00000000000,                            85P    429
0.00000000000,19.0480000000,-4.78400000000,                           85P    430
0.00000000000,6.17500000000,-0.877000000000,                          85P    431
0.00000000000,4.50900000000,-0.523000000000,                          85P    432
0.00000000000,0.357000000000,-0.500000000000E-02,                     85P    433
0.00000000000,0.353000000000,0.00000000000,                           85P    434
0.00000000000,0.357000000000,0.500000000000E-02,                      85P    435
0.250000000000,0.353000000000,0.00000000000,                          85P    436
0.250000000000,0.357000000000,-0.500000000000E-02,                    85P    437
0.250000000000,4.50900000000,-0.523000000000,                         85P    438
0.250000000000,6.17500000000,-0.877000000000,                         85P    439
0.250000000000,19.0480000000,-4.78400000000,                          85P    440
0.250000000000,25.5000000000,0.00000000000,                           85P    441
0.250000000000,19.0480000000,4.78400000000,                           85P    442
0.250000000000,6.17500000000,0.877000000000,                          85P    443
0.250000000000,4.50900000000,0.523000000000,                          85P    444
0.250000000000,0,0;                                                   85P    445
504,30,3,85,1,85,2,                                                   87P    446
5,85,2,85,3,                                                          87P    447
7,85,3,85,4,                                                          87P    448
9,85,4,85,5,                                                          87P    449
11,85,5,85,6,                                                         87P    450
13,85,6,85,7,                                                         87P    451
15,85,7,85,8,                                                         87P    452
17,85,8,85,9,                                                         87P    453
19,85,9,85,10,                                                        87P    454
21,85,10,85,1,                                                        87P    455
25,85,11,85,12,                                                       87P    456
27,85,12,85,13,                                                       87P    457
29,85,13,85,14,                                                       87P    458
31,85,14,85,15,                                                       87P    459
33,85,15,85,16,                                                       87P    460
35,85,16,85,17,                                                       87P    461
37,85,17,85,18,                                                       87P    462
39,85,18,85,19,                                                       87P    463
41,85,19,85,20,                                                       87P    464
43,85,20,85,11,                                                       87P    465
47,85,10,85,12,                                                       87P    466
49,85,11,85,1,                                                        87P    467
53,85,9,85,13,                                                        87P    468
57,85,8,85,14,                                                        87P    469
61,85,7,85,15,                                                        87P    470
65,85,6,85,16,                                                        87P    471
69,85,5,85,17,                                                        87P    472
73,85,4,85,18,                                                        87P    473
77,85,3,85,19,                                                        87P    474
81,85,2,85,20;                                                        87P    475
508,10,0,87,1,0,0,                                                    89P    476
0,87,2,0,0,                                                           89P    477
0,87,3,0,0,                                                           89P    478
0,87,4,0,0,                                                           89P    479
0,87,5,0,0,                                                           89P    480
0,87,6,0,0,                                                           89P    481
0,87,7,0,0,                                                           89P    482
0,87,8,0,0,                                                           89P    483
0,87,9,0,0,                                                           89P    484
0,87,10,0,0;                                                          89P    485
510,1,1,1,89,0,0;                                                     91P    486
508,10,0,87,11,1,0,                                                   93P    487
0,87,12,1,0,                                                          93P    488
0,87,13,1,0,                                                          93P    489
0,87,14,1,0,                                                          93P    490
0,87,15,1,0,                                                          93P    491
0,87,16,1,0,                                                          93P    492
0,87,17,1,0,                                                          93P    493
0,87,18,1,0,                                                          93P    494
0,87,19,1,0,                                                          93P    495
0,87,20,1,0;                                                          93P    496
510,23,1,1,93,0,0;                                                    95P    497
508,4,0,87,10,1,0,                                                    97P    498
0,87,21,1,0,                                                          97P    499
0,87,11,0,0,                                                          97P    500
0,87,22,0,0;                                                          97P    501
510,45,1,1,97,0,0;                                                    99P    502
508,4,0,87,9,1,0,                                                    101P    503
0,87,23,1,0,                                                         101P    504
0,87,12,0,0,                                                         101P    505
0,87,21,0,0;                                                         101P    506
510,51,1,1,101,0,0;                                                  103P    507
508,4,0,87,8,1,0,                                                    105P    508
0,87,24,1,0,                                                         105P    509
0,87,13,0,0,                                                         105P    510
0,87,23,0,0;                                                         105P    511
510,55,1,1,105,0,0;                                                  107P    512
508,4,0,87,7,1,0,                                                    109P    513
0,87,25,1,0,                                                         109P    514
0,87,14,0,0,                                                         109P    515
0,87,24,0,0;                                                         109P    516
510,59,1,1,109,0,0;                                                  111P    517
508,4,0,87,6,1,0,                                                    113P    518
0,87,26,1,0,                                                         113P    519
0,87,15,0,0,                                                         113P    520
0,87,25,0,0;                                                         113P    521
510,63,1,1,113,0,0;                                                  115P    522
508,4,0,87,5,1,0,                                                    117P    523
0,87,27,1,0,                                                         117P    524
0,87,16,0,0,                                                         117P    525
0,87,26,0,0;                                                         117P    526
510,67,1,1,117,0,0;                                                  119P    527
508,4,0,87,4,1,0,                                                    121P    528
0,87,28,1,0,                                                         121P    529
0,87,17,0,0,                                                         121P    530
0,87,27,0,0;                                                         121P    531
510,71,1,1,121,0,0;                                                  123P    532
508,4,0,87,3,1,0,                                                    125P    533
0,87,29,1,0,                                                         125P    534
0,87,18,0,0,                                                         125P    535
0,87,28,0,0;                                                         125P    536
510,75,1,1,125,0,0;                                                  127P    537
508,4,0,87,2,1,0,                                                    129P    538
0,87,30,1,0,                                                         129P    539
0,87,19,0,0,                                                         129P    540
0,87,29,0,0;                                                         129P    541
510,79,1,1,129,0,0;                                                  131P    542
508,4,0,87,1,1,0,                                                    133P    543
0,87,22,1,0,                                                         133P    544
0,87,20,0,0,                                                         133P    545
0,87,30,0,0;                                                         133P    546
510,83,1,1,133,0,0;                                                  135P    547
514,12,91,0,95,1,99,1,103,1,                                         137P    548
107,1,111,1,115,1,119,1,123,1,                                       137P    549
127,1,131,1,135,1,0,0,0,0;                                           137P    550
186,137,1,0,0,0,0;                                                   139P    551
128,1,1,1,1,0,0,                                                     141P    552
1,0,0,                                                               141P    553
0.00000000000,0.00000000000,1.00000000000,                           141P    554
1.00000000000,0.00000000000,0.00000000000,                           141P    555
1.00000000000,1.00000000000,1.00000000000,                           141P    556
1.00000000000,1.00000000000,1.00000000000,                           141P    557
16.9721825407,3.52781745931,0.250000000000,                          141P    558
24.0278174593,3.52781745931,0.250000000000,                          141P    559
16.9721825407,-3.52781745931,0.250000000000,                         141P    560
24.0278174593,-3.52781745931,0.250000000000,                         141P    561
0.00000000000,1.00000000000,0.00000000000,                           141P    562
1.00000000000,0,0,0;                                                 141P    563
126,2,2,0,0,0,0,                                                     143P    564
0.00000000000,0.00000000000,0.00000000000,                           143P    565
1.00000000000,1.00000000000,1.00000000000,                           143P    566
0.500000000000,0.500000000000,1.00000000000,                         143P    567
20.5000000000,-2.50000000000,0.250000000000,                         143P    568
23.0000000000,-2.50000000000,0.250000000000,                         143P    569
23.0000000000,0.00000000000,0.250000000000,                          143P    570
0.00000000000,1.00000000000,0.00000000000,                           143P    571
0.00000000000,0.00000000000,0,0,0;                                   143P    572
126,2,2,0,0,0,0,                                                     145P    573
0.00000000000,0.00000000000,0.00000000000,                           145P    574
1.00000000000,1.00000000000,1.00000000000,                           145P    575
1.00000000000,0.500000000000,0.500000000000,                         145P    576
18.0000000000,0.306161699787E-15,0.250000000000,                     145P    577
18.0000000000,-2.50000000000,0.250000000000,                         145P    578
20.5000000000,-2.50000000000,0.250000000000,                         145P    579
0.00000000000,1.00000000000,0.00000000000,                           145P    580
0.00000000000,0.00000000000,0,0,0;                                   145P    581
126,2,2,0,0,0,0,                                                     147P    582
0.00000000000,0.00000000000,0.00000000000,                           147P    583
1.00000000000,1.00000000000,1.00000000000,                           147P    584
0.500000000000,0.500000000000,1.00000000000,                         147P    585
20.5000000000,2.50000000000,0.250000000000,                          147P    586
18.0000000000,2.50000000000,0.250000000000,                          147P    587
18.0000000000,0.306161699787E-15,0.250000000000,                     147P    588
0.00000000000,1.00000000000,0.00000000000,                           147P    589
0.00000000000,0.00000000000,0,0,0;                                   147P    590
126,2,2,0,0,0,0,                                                     149P    591
0.00000000000,0.00000000000,0.00000000000,                           149P    592
1.00000000000,1.00000000000,1.00000000000,                           149P    593
1.00000000000,0.500000000000,0.500000000000,                         149P    594
23.0000000000,0.00000000000,0.250000000000,                          149P    595
23.0000000000,2.50000000000,0.250000000000,                          149P    596
20.5000000000,2.50000000000,0.250000000000,                          149P    597
0.00000000000,1.00000000000,0.00000000000,                           149P    598
0.00000000000,0.00000000000,0,0,0;                                   149P    599
128,1,1,1,1,0,0,                                                     151P    600
1,0,0,                                                               151P    601
0.00000000000,0.00000000000,1.00000000000,                           151P    602
1.00000000000,0.00000000000,0.00000000000,                           151P    603
1.00000000000,1.00000000000,1.00000000000,                           151P    604
1.00000000000,1.00000000000,1.00000000000,                           151P    605
16.9721825407,-3.52781745931,11.2500000000,                          151P    606
24.0278174593,-3.52781745931,11.2500000000,                          151P    607
16.9721825407,3.52781745931,11.2500000000,                           151P    608
24.0278174593,3.52781745931,11.2500000000,                           151P    609
0.00000000000,1.00000000000,0.00000000000,                           151P    610
1.00000000000,0,0,0;                                                 151P    611
126,2,2,0,0,0,0,                                                     153P    612
0.00000000000,0.00000000000,0.00000000000,                           153P    613
1.00000000000,1.00000000000,1.00000000000,                           153P    614
1.00000000000,0.500000000000,0.500000000000,                         153P    615
23.0000000000,0.00000000000,11.2500000000,                           153P    616
23.0000000000,2.50000000000,11.2500000000,                           153P    617
20.5000000000,2.50000000000,11.2500000000,                           153P    618
0.00000000000,1.00000000000,0.00000000000,                           153P    619
0.00000000000,0.00000000000,0,0,0;                                   153P    620
126,2,2,0,0,0,0,                                                     155P    621
0.00000000000,0.00000000000,0.00000000000,                           155P    622
1.00000000000,1.00000000000,1.00000000000,                           155P    623
0.500000000000,0.500000000000,1.00000000000,                         155P    624
20.5000000000,2.50000000000,11.2500000000,                           155P    625
18.0000000000,2.50000000000,11.2500000000,                           155P    626
18.0000000000,0.306161699787E-15,11.2500000000,                      155P    627
0.00000000000,1.00000000000,0.00000000000,                           155P    628
0.00000000000,0.00000000000,0,0,0;                                   155P    629
126,2,2,0,0,0,0,                                                     157P    630
0.00000000000,0.00000000000,0.00000000000,                           157P    631
1.00000000000,1.00000000000,1.00000000000,                           157P    632
1.00000000000,0.500000000000,0.500000000000,                         157P    633
18.0000000000,0.306161699787E-15,11.2500000000,                      157P    634
18.0000000000,-2.50000000000,11.2500000000,                          157P    635
20.5000000000,-2.50000000000,11.2500000000,                          157P    636
0.00000000000,1.00000000000,0.00000000000,                           157P    637
0.00000000000,0.00000000000,0,0,0;                                   157P    638
126,2,2,0,0,0,0,                                                     159P    639
0.00000000000,0.00000000000,0.00000000000,                           159P    640
1.00000000000,1.00000000000,1.00000000000,                           159P    641
0.500000000000,0.500000000000,1.00000000000,                         159P    642
20.5000000000,-2.50000000000,11.2500000000,                          159P    643
23.0000000000,-2.50000000000,11.2500000000,                          159P    644
23.0000000000,0.00000000000,11.2500000000,                           159P    645
0.00000000000,1.00000000000,0.00000000000,                           159P    646
0.00000000000,0.00000000000,0,0,0;                                   159P    647
128,3,1,2,1,0,0,                                                     161P    648
0,0,0,                                                               161P    649
0.00000000000,0.00000000000,0.00000000000,                           161P    650
0.500000000000,1.00000000000,1.00000000000,                          161P    651
1.00000000000,0.00000000000,0.00000000000,                           161P    652
1.00000000000,1.00000000000,1.00000000000,                           161P    653
0.500000000000,0.500000000000,1.00000000000,                         161P    654
1.00000000000,0.500000000000,0.500000000000,                         161P    655
1.00000000000,23.0000000000,0.00000000000,                           161P    656
0.250000000000,23.0000000000,2.50000000000,                          161P    657
0.250000000000,18.0000000000,2.50000000000,                          161P    658
0.250000000000,18.0000000000,0.306161699787E-15,                     161P    659
0.250000000000,23.0000000000,0.00000000000,                          161P    660
11.2500000000,23.0000000000,2.50000000000,                           161P    661
11.2500000000,18.0000000000,2.50000000000,                           161P    662
11.2500000000,18.0000000000,0.306161699787E-15,                      161P    663
11.2500000000,0.00000000000,1.00000000000,                           161P    664
0.00000000000,1.00000000000,0,0,0;                                   161P    665
126,1,1,0,0,0,0,                                                     163P    666
0.00000000000,0.00000000000,1.00000000000,                           163P    667
1.00000000000,1.00000000000,1.00000000000,                           163P    668
18.0000000000,0.306161699787E-15,0.250000000000,                     163P    669
18.0000000000,0.306161699787E-15,11.2500000000,                      163P    670
0.00000000000,1.00000000000,0.00000000000,                           163P    671
0.00000000000,0.00000000000,0,0,0;                                   163P    672
126,1,1,0,0,0,0,                                                     165P    673
0.00000000000,0.00000000000,1.00000000000,                           165P    674
1.00000000000,1.00000000000,1.00000000000,                           165P    675
23.0000000000,0.00000000000,0.250000000000,                          165P    676
23.0000000000,0.00000000000,11.2500000000,                           165P    677
0.00000000000,1.00000000000,0.00000000000,                           165P    678
0.00000000000,0.00000000000,0,0,0;                                   165P    679
128,3,1,2,1,0,0,                                                     167P    680
0,0,0,                                                               167P    681
0.00000000000,0.00000000000,0.00000000000,                           167P    682
0.500000000000,1.00000000000,1.00000000000,                          167P    683
1.00000000000,0.00000000000,0.00000000000,                           167P    684
1.00000000000,1.00000000000,1.00000000000,                           167P    685
0.500000000000,0.500000000000,1.00000000000,                         167P    686
1.00000000000,0.500000000000,0.500000000000,                         167P    687
1.00000000000,18.0000000000,0.306161699787E-15,                      167P    688
0.250000000000,18.0000000000,-2.50000000000,                         167P    689
0.250000000000,23.0000000000,-2.50000000000,                         167P    690
0.250000000000,23.0000000000,0.00000000000,                          167P    691
0.250000000000,18.0000000000,0.306161699787E-15,                     167P    692
11.2500000000,18.0000000000,-2.50000000000,                          167P    693
11.2500000000,23.0000000000,-2.50000000000,                          167P    694
11.2500000000,23.0000000000,0.00000000000,                           167P    695
11.2500000000,0.00000000000,1.00000000000,                           167P    696
0.00000000000,1.00000000000,0,0,0;                                   167P    697
502,8,23.0000000000,0.00000000000,                                   169P    698
0.250000000000,20.5000000000,-2.50000000000,                         169P    699
0.250000000000,18.0000000000,0.306161699787E-15,                     169P    700
0.250000000000,20.5000000000,2.50000000000,                          169P    701
0.250000000000,23.0000000000,0.00000000000,                          169P    702
11.2500000000,20.5000000000,2.50000000000,                           169P    703
11.2500000000,18.0000000000,0.306161699787E-15,                      169P    704
11.2500000000,20.5000000000,-2.50000000000,                          169P    705
11.2500000000,0,0;                                                   169P    706
504,10,143,169,1,169,2,                                              171P    707
145,169,2,169,3,                                                     171P    708
147,169,3,169,4,                                                     171P    709
149,169,4,169,1,                                                     171P    710
153,169,5,169,6,                                                     171P    711
155,169,6,169,7,                                                     171P    712
157,169,7,169,8,                                                     171P    713
159,169,8,169,5,                                                     171P    714
163,169,3,169,7,                                                     171P    715
165,169,5,169,1;                                                     171P    716
508,4,0,171,1,0,0,                                                   173P    717
0,171,2,0,0,                                                         173P    718
0,171,3,0,0,                                                         173P    719
0,171,4,0,0;                                                         173P    720
510,141,1,1,173,0,0;                                                 175P    721
508,4,0,171,5,1,0,                                                   177P    722
0,171,6,1,0,                                                         177P    723
0,171,7,1,0,                                                         177P    724
0,171,8,1,0;                                                         177P    725
510,151,1,1,177,0,0;                                                 179P    726
508,6,0,171,4,1,0,                                                   181P    727
0,171,3,1,0,                                                         181P    728
0,171,9,1,0,                                                         181P    729
0,171,6,0,0,                                                         181P    730
0,171,5,0,0,                                                         181P    731
0,171,10,0,0;                                                        181P    732
510,161,1,1,181,0,0;                                                 183P    733
508,6,0,171,2,1,0,                                                   185P    734
0,171,1,1,0,                                                         185P    735
0,171,10,1,0,                                                        185P    736
0,171,8,0,0,                                                         185P    737
0,171,7,0,0,                                                         185P    738
0,171,9,0,0;                                                         185P    739
510,167,1,1,185,0,0;                                                 187P    740
514,4,175,1,179,1,183,1,187,1;                                       189P    741
186,189,1,0,0,0,0;                                                   191P    742
128,1,1,1,1,0,0,                                                     193P    743
1,0,0,                                                               193P    744
0.00000000000,0.00000000000,1.00000000000,                           193P    745
1.00000000000,0.00000000000,0.00000000000,                           193P    746
1.00000000000,1.00000000000,1.00000000000,                           193P    747
1.00000000000,1.00000000000,1.00000000000,                           193P    748
16.9862938105,3.51370618947,11.2500000000,                           193P    749
24.0137061895,3.51370618947,11.2500000000,                           193P    750
16.9862938105,-3.51370618947,11.2500000000,                          193P    751
24.0137061895,-3.51370618947,11.2500000000,                          193P    752
0.00000000000,1.00000000000,0.00000000000,                           193P    753
1.00000000000,0,0,0;                                                 193P    754
126,2,2,0,0,0,0,                                                     195P    755
0.00000000000,0.00000000000,0.00000000000,                           195P    756
1.00000000000,1.00000000000,1.00000000000,                           195P    757
0.500000000000,0.500000000000,1.00000000000,                         195P    758
20.5000000000,-2.49000000000,11.2500000000,                          195P    759
22.9900000000,-2.49000000000,11.2500000000,                          195P    760
22.9900000000,0.00000000000,11.2500000000,                           195P    761
0.00000000000,1.00000000000,0.00000000000,                           195P    762
0.00000000000,0.00000000000,0,0,0;                                   195P    763
126,2,2,0,0,0,0,                                                     197P    764
0.00000000000,0.00000000000,0.00000000000,                           197P    765
1.00000000000,1.00000000000,1.00000000000,                           197P    766
1.00000000000,0.500000000000,0.500000000000,                         197P    767
18.0100000000,0.304937052988E-15,11.2500000000,                      197P    768
18.0100000000,-2.49000000000,11.2500000000,                          197P    769
20.5000000000,-2.49000000000,11.2500000000,                          197P    770
0.00000000000,1.00000000000,0.00000000000,                           197P    771
0.00000000000,0.00000000000,0,0,0;                                   197P    772
126,2,2,0,0,0,0,                                                     199P    773
0.00000000000,0.00000000000,0.00000000000,                           199P    774
1.00000000000,1.00000000000,1.00000000000,                           199P    775
0.500000000000,0.500000000000,1.00000000000,                         199P    776
20.5000000000,2.49000000000,11.2500000000,                           199P    777
18.0100000000,2.49000000000,11.2500000000,                           199P    778
18.0100000000,0.304937052988E-15,11.2500000000,                      199P    779
0.00000000000,1.00000000000,0.00000000000,                           199P    780
0.00000000000,0.00000000000,0,0,0;                                   199P    781
126,2,2,0,0,0,0,                                                     201P    782
0.00000000000,0.00000000000,0.00000000000,                           201P    783
1.00000000000,1.00000000000,1.00000000000,                           201P    784
1.00000000000,0.500000000000,0.500000000000,                         201P    785
22.9900000000,0.00000000000,11.2500000000,                           201P    786
22.9900000000,2.49000000000,11.2500000000,                           201P    787
20.5000000000,2.49000000000,11.2500000000,                           201P    788
0.00000000000,1.00000000000,0.00000000000,                           201P    789
0.00000000000,0.00000000000,0,0,0;                                   201P    790
128,1,1,1,1,0,0,                                                     203P    791
1,0,0,                                                               203P    792
0.00000000000,0.00000000000,1.00000000000,                           203P    793
1.00000000000,0.00000000000,0.00000000000,                           203P    794
1.00000000000,1.00000000000,1.00000000000,                           203P    795
1.00000000000,1.00000000000,1.00000000000,                           203P    796
16.9862938105,-3.51370618947,17.2500000000,                          203P    797
24.0137061895,-3.51370618947,17.2500000000,                          203P    798
16.9862938105,3.51370618947,17.2500000000,                           203P    799
24.0137061895,3.51370618947,17.2500000000,                           203P    800
0.00000000000,1.00000000000,0.00000000000,                           203P    801
1.00000000000,0,0,0;                                                 203P    802
126,2,2,0,0,0,0,                                                     205P    803
0.00000000000,0.00000000000,0.00000000000,                           205P    804
1.00000000000,1.00000000000,1.00000000000,                           205P    805
1.00000000000,0.500000000000,0.500000000000,                         205P    806
22.9900000000,0.00000000000,17.2500000000,                           205P    807
22.9900000000,2.49000000000,17.2500000000,                           205P    808
20.5000000000,2.49000000000,17.2500000000,                           205P    809
0.00000000000,1.00000000000,0.00000000000,                           205P    810
0.00000000000,0.00000000000,0,0,0;                                   205P    811
126,2,2,0,0,0,0,                                                     207P    812
0.00000000000,0.00000000000,0.00000000000,                           207P    813
1.00000000000,1.00000000000,1.00000000000,                           207P    814
0.500000000000,0.500000000000,1.00000000000,                         207P    815
20.5000000000,2.49000000000,17.2500000000,                           207P    816
18.0100000000,2.49000000000,17.2500000000,                           207P    817
18.0100000000,0.304937052988E-15,17.2500000000,                      207P    818
0.00000000000,1.00000000000,0.00000000000,                           207P    819
0.00000000000,0.00000000000,0,0,0;                                   207P    820
126,2,2,0,0,0,0,                                                     209P    821
0.00000000000,0.00000000000,0.00000000000,                           209P    822
1.00000000000,1.00000000000,1.00000000000,                           209P    823
1.00000000000,0.500000000000,0.500000000000,                         209P    824
18.0100000000,0.304937052988E-15,17.2500000000,                      209P    825
18.0100000000,-2.49000000000,17.2500000000,                          209P    826
20.5000000000,-2.49000000000,17.2500000000,                          209P    827
0.00000000000,1.00000000000,0.00000000000,                           209P    828
0.00000000000,0.00000000000,0,0,0;                                   209P    829
126,2,2,0,0,0,0,                                                     211P    830
0.00000000000,0.00000000000,0.00000000000,                           211P    831
1.00000000000,1.00000000000,1.00000000000,                           211P    832
0.500000000000,0.500000000000,1.00000000000,                         211P    833
20.5000000000,-2.49000000000,17.2500000000,                          211P    834
22.9900000000,-2.49000000000,17.2500000000,                          211P    835
22.9900000000,0.00000000000,17.2500000000,                           211P    836
0.00000000000,1.00000000000,0.00000000000,                           211P    837
0.00000000000,0.00000000000,0,0,0;                                   211P    838
128,3,1,2,1,0,0,                                                     213P    839
0,0,0,                                                               213P    840
0.00000000000,0.00000000000,0.00000000000,                           213P    841
0.500000000000,1.00000000000,1.00000000000,                          213P    842
1.00000000000,0.00000000000,0.00000000000,                           213P    843
1.00000000000,1.00000000000,1.00000000000,                           213P    844
0.500000000000,0.500000000000,1.00000000000,                         213P    845
1.00000000000,0.500000000000,0.500000000000,                         213P    846
1.00000000000,22.9900000000,0.00000000000,                           213P    847
11.2500000000,22.9900000000,2.49000000000,                           213P    848
11.2500000000,18.0100000000,2.49000000000,                           213P    849
11.2500000000,18.0100000000,0.304937052988E-15,                      213P    850
11.2500000000,22.9900000000,0.00000000000,                           213P    851
17.2500000000,22.9900000000,2.49000000000,                           213P    852
17.2500000000,18.0100000000,2.49000000000,                           213P    853
17.2500000000,18.0100000000,0.304937052988E-15,                      213P    854
17.2500000000,0.00000000000,1.00000000000,                           213P    855
0.00000000000,1.00000000000,0,0,0;                                   213P    856
126,1,1,0,0,0,0,                                                     215P    857
0.00000000000,0.00000000000,1.00000000000,                           215P    858
1.00000000000,1.00000000000,1.00000000000,                           215P    859
18.0100000000,0.304937052988E-15,11.2500000000,                      215P    860
18.0100000000,0.304937052988E-15,17.2500000000,                      215P    861
0.00000000000,1.00000000000,0.00000000000,                           215P    862
0.00000000000,0.00000000000,0,0,0;                                   215P    863
126,1,1,0,0,0,0,                                                     217P    864
0.00000000000,0.00000000000,1.00000000000,                           217P    865
1.00000000000,1.00000000000,1.00000000000,                           217P    866
22.9900000000,0.00000000000,11.2500000000,                           217P    867
22.9900000000,0.00000000000,17.2500000000,                           217P    868
0.00000000000,1.00000000000,0.00000000000,                           217P    869
0.00000000000,0.00000000000,0,0,0;                                   217P    870
128,3,1,2,1,0,0,                                                     219P    871
0,0,0,                                                               219P    872
0.00000000000,0.00000000000,0.00000000000,                           219P    873
0.500000000000,1.00000000000,1.00000000000,                          219P    874
1.00000000000,0.00000000000,0.00000000000,                           219P    875
1.00000000000,1.00000000000,1.00000000000,                           219P    876
0.500000000000,0.500000000000,1.00000000000,                         219P    877
1.00000000000,0.500000000000,0.500000000000,                         219P    878
1.00000000000,18.0100000000,0.304937052988E-15,                      219P    879
11.2500000000,18.0100000000,-2.49000000000,                          219P    880
11.2500000000,22.9900000000,-2.49000000000,                          219P    881
11.2500000000,22.9900000000,0.00000000000,                           219P    882
11.2500000000,18.0100000000,0.304937052988E-15,                      219P    883
17.2500000000,18.0100000000,-2.49000000000,                          219P    884
17.2500000000,22.9900000000,-2.49000000000,                          219P    885
17.2500000000,22.9900000000,0.00000000000,                           219P    886
17.2500000000,0.00000000000,1.00000000000,                           219P    887
0.00000000000,1.00000000000,0,0,0;                                   219P    888
502,8,22.9900000000,0.00000000000,                                   221P    889
11.2500000000,20.5000000000,-2.49000000000,                          221P    890
11.2500000000,18.0100000000,0.304937052988E-15,                      221P    891
11.2500000000,20.5000000000,2.49000000000,                           221P    892
11.2500000000,22.9900000000,0.00000000000,                           221P    893
17.2500000000,20.5000000000,2.49000000000,                           221P    894
17.2500000000,18.0100000000,0.304937052988E-15,                      221P    895
17.2500000000,20.5000000000,-2.49000000000,                          221P    896
17.2500000000,0,0;                                                   221P    897
504,10,195,221,1,221,2,                                              223P    898
197,221,2,221,3,                                                     223P    899
199,221,3,221,4,                                                     223P    900
201,221,4,221,1,                                                     223P    901
205,221,5,221,6,                                                     223P    902
207,221,6,221,7,                                                     223P    903
209,221,7,221,8,                                                     223P    904
211,221,8,221,5,                                                     223P    905
215,221,3,221,7,                                                     223P    906
217,221,5,221,1;                                                     223P    907
508,4,0,223,1,0,0,                                                   225P    908
0,223,2,0,0,                                                         225P    909
0,223,3,0,0,                                                         225P    910
0,223,4,0,0;                                                         225P    911
510,193,1,1,225,0,0;                                                 227P    912
508,4,0,223,5,1,0,                                                   229P    913
0,223,6,1,0,                                                         229P    914
0,223,7,1,0,                                                         229P    915
0,223,8,1,0;                                                         229P    916
510,203,1,1,229,0,0;                                                 231P    917
508,6,0,223,4,1,0,                                                   233P    918
0,223,3,1,0,                                                         233P    919
0,223,9,1,0,                                                         233P    920
0,223,6,0,0,                                                         233P    921
0,223,5,0,0,                                                         233P    922
0,223,10,0,0;                                                        233P    923
510,213,1,1,233,0,0;                                                 235P    924
508,6,0,223,2,1,0,                                                   237P    925
0,223,1,1,0,                                                         237P    926
0,223,10,1,0,                                                        237P    927
0,223,8,0,0,                                                         237P    928
0,223,7,0,0,                                                         237P    929
0,223,9,0,0;                                                         237P    930
510,219,1,1,237,0,0;                                                 239P    931
514,4,227,1,231,1,235,1,239,1;                                       241P    932
186,241,1,0,0,0,0;                                                   243P    933
S      1G      3D    244P    933                                        T      1
