SolidWorks IGES file using analytic representation for surfaces         S      1
1H,,1H;,28HHallSensor_Bone_Bottom_Cover,123HF:\BACK UP WORK DIR\STUDY\REG      1
SEARCH\Daisuke's MT CAD design\hall sensor assemble (5-1-2014)\HallSensoG      2
r_Bone_Bottom_Cover.IGS,15HSolidWorks 2013,15HSolidWorks 2013,32,308,   G      3
15,308,15,28HHallSensor_Bone_Bottom_Cover,1.,2,2HMM,50,0.125,13H140714.1G      4
00401,1E-008,499990.,9Hlong9_000,,11,0,13H140714.100401;                G      5
     314       1       0       0       0                        00000200D      1
     314       0       5       1       0                               0D      2
     110       2       0       0       0                        01010000D      3
     110       0       0       1       0                               0D      4
     110       3       0       0       0                        01010000D      5
     110       0       0       1       0                               0D      6
     120       4       0       0       0                        01010000D      7
     120       0       0       1       0                               0D      8
     126       5       0       0       0                        01010500D      9
     126       0       0       2       0                               0D     10
     110       7       0       0       0                        01010000D     11
     110       0       0       1       0                               0D     12
     126       8       0       0       0                        01010500D     13
     126       0       0       2       0                               0D     14
     100      10       0       0       0                        01010000D     15
     100       0       0       1       0                               0D     16
     126      11       0       0       0                        01010500D     17
     126       0       0       2       0                               0D     18
     110      13       0       0       0                        01010000D     19
     110       0       0       1       0                               0D     20
     126      14       0       0       0                        01010500D     21
     126       0       0       2       0                               0D     22
     124      16       0       0       0                        00000000D     23
     124       0       0       4       0                               0D     24
     100      20       0       0       0              23        01010000D     25
     100       0       0       1       0                               0D     26
     102      21       0       0       0                        01010500D     27
     102       0       0       1       0                               0D     28
     102      22       0       0       0                        01010000D     29
     102       0       0       1       0                               0D     30
     142      23       0       0       0                        00010500D     31
     142       0       0       1       0                               0D     32
     144      24       0       0       0                        00000000D     33
     144       0      -1       1       0                               0D     34
     110      25       0       0       0                        01010000D     35
     110       0       0       1       0                               0D     36
     110      26       0       0       0                        01010000D     37
     110       0       0       1       0                               0D     38
     120      27       0       0       0                        01010000D     39
     120       0       0       1       0                               0D     40
     126      28       0       0       0                        01010500D     41
     126       0       0       2       0                               0D     42
     110      30       0       0       0                        01010000D     43
     110       0       0       1       0                               0D     44
     126      31       0       0       0                        01010500D     45
     126       0       0       2       0                               0D     46
     100      33       0       0       0                        01010000D     47
     100       0       0       1       0                               0D     48
     126      34       0       0       0                        01010500D     49
     126       0       0       2       0                               0D     50
     110      36       0       0       0                        01010000D     51
     110       0       0       1       0                               0D     52
     126      37       0       0       0                        01010500D     53
     126       0       0       2       0                               0D     54
     124      39       0       0       0                        00000000D     55
     124       0       0       4       0                               0D     56
     100      43       0       0       0              55        01010000D     57
     100       0       0       1       0                               0D     58
     102      44       0       0       0                        01010500D     59
     102       0       0       1       0                               0D     60
     102      45       0       0       0                        01010000D     61
     102       0       0       1       0                               0D     62
     142      46       0       0       0                        00010500D     63
     142       0       0       1       0                               0D     64
     144      47       0       0       0                        00000000D     65
     144       0      -1       1       0                               0D     66
     110      48       0       0       0                        01010000D     67
     110       0       0       1       0                               0D     68
     110      49       0       0       0                        01010000D     69
     110       0       0       1       0                               0D     70
     120      50       0       0       0                        01010000D     71
     120       0       0       1       0                               0D     72
     126      51       0       0       0                        01010500D     73
     126       0       0       2       0                               0D     74
     110      53       0       0       0                        01010000D     75
     110       0       0       1       0                               0D     76
     126      54       0       0       0                        01010500D     77
     126       0       0       2       0                               0D     78
     100      56       0       0       0                        01010000D     79
     100       0       0       1       0                               0D     80
     126      57       0       0       0                        01010500D     81
     126       0       0       2       0                               0D     82
     110      59       0       0       0                        01010000D     83
     110       0       0       1       0                               0D     84
     126      60       0       0       0                        01010500D     85
     126       0       0       2       0                               0D     86
     124      62       0       0       0                        00000000D     87
     124       0       0       4       0                               0D     88
     100      66       0       0       0              87        01010000D     89
     100       0       0       1       0                               0D     90
     102      67       0       0       0                        01010500D     91
     102       0       0       1       0                               0D     92
     102      68       0       0       0                        01010000D     93
     102       0       0       1       0                               0D     94
     142      69       0       0       0                        00010500D     95
     142       0       0       1       0                               0D     96
     144      70       0       0       0                        00000000D     97
     144       0      -1       1       0                               0D     98
     128      71       0       0       0                        01010000D     99
     128       0       0       2       0                               0D    100
     126      73       0       0       0                        01010500D    101
     126       0       0       2       0                               0D    102
     110      75       0       0       0                        01010000D    103
     110       0       0       1       0                               0D    104
     126      76       0       0       0                        01010500D    105
     126       0       0       2       0                               0D    106
     110      78       0       0       0                        01010000D    107
     110       0       0       1       0                               0D    108
     126      79       0       0       0                        01010500D    109
     126       0       0       2       0                               0D    110
     110      81       0       0       0                        01010000D    111
     110       0       0       1       0                               0D    112
     126      82       0       0       0                        01010500D    113
     126       0       0       2       0                               0D    114
     110      84       0       0       0                        01010000D    115
     110       0       0       1       0                               0D    116
     102      85       0       0       0                        01010500D    117
     102       0       0       1       0                               0D    118
     102      86       0       0       0                        01010000D    119
     102       0       0       1       0                               0D    120
     142      87       0       0       0                        00010500D    121
     142       0       0       1       0                               0D    122
     144      88       0       0       0                        00000000D    123
     144       0      -1       1       0                               0D    124
     128      89       0       0       0                        01010000D    125
     128       0       0       2       0                               0D    126
     126      91       0       0       0                        01010500D    127
     126       0       0       2       0                               0D    128
     110      93       0       0       0                        01010000D    129
     110       0       0       1       0                               0D    130
     126      94       0       0       0                        01010500D    131
     126       0       0       2       0                               0D    132
     110      96       0       0       0                        01010000D    133
     110       0       0       1       0                               0D    134
     126      97       0       0       0                        01010500D    135
     126       0       0       2       0                               0D    136
     110      99       0       0       0                        01010000D    137
     110       0       0       1       0                               0D    138
     126     100       0       0       0                        01010500D    139
     126       0       0       2       0                               0D    140
     110     102       0       0       0                        01010000D    141
     110       0       0       1       0                               0D    142
     102     103       0       0       0                        01010500D    143
     102       0       0       1       0                               0D    144
     102     104       0       0       0                        01010000D    145
     102       0       0       1       0                               0D    146
     142     105       0       0       0                        00010500D    147
     142       0       0       1       0                               0D    148
     126     106       0       0       0                        01010500D    149
     126       0       0      11       0                               0D    150
     100     117       0       0       0                        01010000D    151
     100       0       0       1       0                               0D    152
     126     118       0       0       0                        01010500D    153
     126       0       0      11       0                               0D    154
     100     129       0       0       0                        01010000D    155
     100       0       0       1       0                               0D    156
     102     130       0       0       0                        01010500D    157
     102       0       0       1       0                               0D    158
     102     131       0       0       0                        01010000D    159
     102       0       0       1       0                               0D    160
     142     132       0       0       0                        00010500D    161
     142       0       0       1       0                               0D    162
     144     133       0       0       0                        00000000D    163
     144       0      -1       1       0                               0D    164
     128     134       0       0       0                        01010000D    165
     128       0       0       2       0                               0D    166
     126     136       0       0       0                        01010500D    167
     126       0       0       2       0                               0D    168
     110     138       0       0       0                        01010000D    169
     110       0       0       1       0                               0D    170
     126     139       0       0       0                        01010500D    171
     126       0       0       2       0                               0D    172
     110     141       0       0       0                        01010000D    173
     110       0       0       1       0                               0D    174
     126     142       0       0       0                        01010500D    175
     126       0       0       2       0                               0D    176
     110     144       0       0       0                        01010000D    177
     110       0       0       1       0                               0D    178
     126     145       0       0       0                        01010500D    179
     126       0       0       2       0                               0D    180
     110     147       0       0       0                        01010000D    181
     110       0       0       1       0                               0D    182
     102     148       0       0       0                        01010500D    183
     102       0       0       1       0                               0D    184
     102     149       0       0       0                        01010000D    185
     102       0       0       1       0                               0D    186
     142     150       0       0       0                        00010500D    187
     142       0       0       1       0                               0D    188
     144     151       0       0       0                        00000000D    189
     144       0      -1       1       0                               0D    190
     128     152       0       0       0                        01010000D    191
     128       0       0       2       0                               0D    192
     126     154       0       0       0                        01010500D    193
     126       0       0       2       0                               0D    194
     110     156       0       0       0                        01010000D    195
     110       0       0       1       0                               0D    196
     126     157       0       0       0                        01010500D    197
     126       0       0       2       0                               0D    198
     110     159       0       0       0                        01010000D    199
     110       0       0       1       0                               0D    200
     126     160       0       0       0                        01010500D    201
     126       0       0       2       0                               0D    202
     110     162       0       0       0                        01010000D    203
     110       0       0       1       0                               0D    204
     126     163       0       0       0                        01010500D    205
     126       0       0       2       0                               0D    206
     110     165       0       0       0                        01010000D    207
     110       0       0       1       0                               0D    208
     102     166       0       0       0                        01010500D    209
     102       0       0       1       0                               0D    210
     102     167       0       0       0                        01010000D    211
     102       0       0       1       0                               0D    212
     142     168       0       0       0                        00010500D    213
     142       0       0       1       0                               0D    214
     126     169       0       0       0                        01010500D    215
     126       0       0      11       0                               0D    216
     100     180       0       0       0                        01010000D    217
     100       0       0       1       0                               0D    218
     126     181       0       0       0                        01010500D    219
     126       0       0      11       0                               0D    220
     100     192       0       0       0                        01010000D    221
     100       0       0       1       0                               0D    222
     102     193       0       0       0                        01010500D    223
     102       0       0       1       0                               0D    224
     102     194       0       0       0                        01010000D    225
     102       0       0       1       0                               0D    226
     142     195       0       0       0                        00010500D    227
     142       0       0       1       0                               0D    228
     144     196       0       0       0                        00000000D    229
     144       0      -1       1       0                               0D    230
     128     197       0       0       0                        01010000D    231
     128       0       0       2       0                               0D    232
     126     199       0       0       0                        01010500D    233
     126       0       0       2       0                               0D    234
     110     201       0       0       0                        01010000D    235
     110       0       0       1       0                               0D    236
     126     202       0       0       0                        01010500D    237
     126       0       0       2       0                               0D    238
     110     204       0       0       0                        01010000D    239
     110       0       0       1       0                               0D    240
     126     205       0       0       0                        01010500D    241
     126       0       0       2       0                               0D    242
     110     207       0       0       0                        01010000D    243
     110       0       0       1       0                               0D    244
     126     208       0       0       0                        01010500D    245
     126       0       0       2       0                               0D    246
     110     210       0       0       0                        01010000D    247
     110       0       0       1       0                               0D    248
     102     211       0       0       0                        01010500D    249
     102       0       0       1       0                               0D    250
     102     212       0       0       0                        01010000D    251
     102       0       0       1       0                               0D    252
     142     213       0       0       0                        00010500D    253
     142       0       0       1       0                               0D    254
     144     214       0       0       0                        00000000D    255
     144       0      -1       1       0                               0D    256
     128     215       0       0       0                        01010000D    257
     128       0       0       2       0                               0D    258
     126     217       0       0       0                        01010500D    259
     126       0       0       2       0                               0D    260
     110     219       0       0       0                        01010000D    261
     110       0       0       1       0                               0D    262
     126     220       0       0       0                        01010500D    263
     126       0       0       2       0                               0D    264
     110     222       0       0       0                        01010000D    265
     110       0       0       1       0                               0D    266
     126     223       0       0       0                        01010500D    267
     126       0       0       2       0                               0D    268
     110     225       0       0       0                        01010000D    269
     110       0       0       1       0                               0D    270
     126     226       0       0       0                        01010500D    271
     126       0       0       2       0                               0D    272
     110     228       0       0       0                        01010000D    273
     110       0       0       1       0                               0D    274
     102     229       0       0       0                        01010500D    275
     102       0       0       1       0                               0D    276
     102     230       0       0       0                        01010000D    277
     102       0       0       1       0                               0D    278
     142     231       0       0       0                        00010500D    279
     142       0       0       1       0                               0D    280
     126     232       0       0       0                        01010500D    281
     126       0       0      11       0                               0D    282
     100     243       0       0       0                        01010000D    283
     100       0       0       1       0                               0D    284
     126     244       0       0       0                        01010500D    285
     126       0       0      11       0                               0D    286
     100     255       0       0       0                        01010000D    287
     100       0       0       1       0                               0D    288
     102     256       0       0       0                        01010500D    289
     102       0       0       1       0                               0D    290
     102     257       0       0       0                        01010000D    291
     102       0       0       1       0                               0D    292
     142     258       0       0       0                        00010500D    293
     142       0       0       1       0                               0D    294
     144     259       0       0       0                        00000000D    295
     144       0      -1       1       0                               0D    296
     128     260       0       0       0                        01010000D    297
     128       0       0       2       0                               0D    298
     126     262       0       0       0                        01010500D    299
     126       0       0       2       0                               0D    300
     110     264       0       0       0                        01010000D    301
     110       0       0       1       0                               0D    302
     126     265       0       0       0                        01010500D    303
     126       0       0       2       0                               0D    304
     110     267       0       0       0                        01010000D    305
     110       0       0       1       0                               0D    306
     126     268       0       0       0                        01010500D    307
     126       0       0       2       0                               0D    308
     110     270       0       0       0                        01010000D    309
     110       0       0       1       0                               0D    310
     126     271       0       0       0                        01010500D    311
     126       0       0       2       0                               0D    312
     110     273       0       0       0                        01010000D    313
     110       0       0       1       0                               0D    314
     102     274       0       0       0                        01010500D    315
     102       0       0       1       0                               0D    316
     102     275       0       0       0                        01010000D    317
     102       0       0       1       0                               0D    318
     142     276       0       0       0                        00010500D    319
     142       0       0       1       0                               0D    320
     144     277       0       0       0                        00000000D    321
     144       0      -1       1       0                               0D    322
     128     278       0       0       0                        01010000D    323
     128       0       0       2       0                               0D    324
     126     280       0       0       0                        01010500D    325
     126       0       0       2       0                               0D    326
     110     282       0       0       0                        01010000D    327
     110       0       0       1       0                               0D    328
     126     283       0       0       0                        01010500D    329
     126       0       0       2       0                               0D    330
     110     285       0       0       0                        01010000D    331
     110       0       0       1       0                               0D    332
     126     286       0       0       0                        01010500D    333
     126       0       0       2       0                               0D    334
     110     288       0       0       0                        01010000D    335
     110       0       0       1       0                               0D    336
     126     289       0       0       0                        01010500D    337
     126       0       0       2       0                               0D    338
     110     291       0       0       0                        01010000D    339
     110       0       0       1       0                               0D    340
     102     292       0       0       0                        01010500D    341
     102       0       0       1       0                               0D    342
     102     293       0       0       0                        01010000D    343
     102       0       0       1       0                               0D    344
     142     294       0       0       0                        00010500D    345
     142       0       0       1       0                               0D    346
     126     295       0       0       0                        01010500D    347
     126       0       0      11       0                               0D    348
     124     306       0       0       0                        00000000D    349
     124       0       0       4       0                               0D    350
     100     310       0       0       0             349        01010000D    351
     100       0       0       1       0                               0D    352
     126     311       0       0       0                        01010500D    353
     126       0       0      11       0                               0D    354
     124     322       0       0       0                        00000000D    355
     124       0       0       4       0                               0D    356
     100     326       0       0       0             355        01010000D    357
     100       0       0       1       0                               0D    358
     102     327       0       0       0                        01010500D    359
     102       0       0       1       0                               0D    360
     102     328       0       0       0                        01010000D    361
     102       0       0       1       0                               0D    362
     142     329       0       0       0                        00010500D    363
     142       0       0       1       0                               0D    364
     126     330       0       0       0                        01010500D    365
     126       0       0      11       0                               0D    366
     124     341       0       0       0                        00000000D    367
     124       0       0       4       0                               0D    368
     100     345       0       0       0             367        01010000D    369
     100       0       0       1       0                               0D    370
     126     346       0       0       0                        01010500D    371
     126       0       0      11       0                               0D    372
     124     357       0       0       0                        00000000D    373
     124       0       0       4       0                               0D    374
     100     361       0       0       0             373        01010000D    375
     100       0       0       1       0                               0D    376
     102     362       0       0       0                        01010500D    377
     102       0       0       1       0                               0D    378
     102     363       0       0       0                        01010000D    379
     102       0       0       1       0                               0D    380
     142     364       0       0       0                        00010500D    381
     142       0       0       1       0                               0D    382
     126     365       0       0       0                        01010500D    383
     126       0       0      11       0                               0D    384
     124     376       0       0       0                        00000000D    385
     124       0       0       4       0                               0D    386
     100     380       0       0       0             385        01010000D    387
     100       0       0       1       0                               0D    388
     126     381       0       0       0                        01010500D    389
     126       0       0      11       0                               0D    390
     124     392       0       0       0                        00000000D    391
     124       0       0       4       0                               0D    392
     100     396       0       0       0             391        01010000D    393
     100       0       0       1       0                               0D    394
     102     397       0       0       0                        01010500D    395
     102       0       0       1       0                               0D    396
     102     398       0       0       0                        01010000D    397
     102       0       0       1       0                               0D    398
     142     399       0       0       0                        00010500D    399
     142       0       0       1       0                               0D    400
     144     400       0       0       0                        00000000D    401
     144       0      -1       1       0                               0D    402
     128     401       0       0       0                        01010000D    403
     128       0       0       2       0                               0D    404
     126     403       0       0       0                        01010500D    405
     126       0       0       2       0                               0D    406
     110     405       0       0       0                        01010000D    407
     110       0       0       1       0                               0D    408
     126     406       0       0       0                        01010500D    409
     126       0       0       2       0                               0D    410
     110     408       0       0       0                        01010000D    411
     110       0       0       1       0                               0D    412
     126     409       0       0       0                        01010500D    413
     126       0       0       2       0                               0D    414
     110     411       0       0       0                        01010000D    415
     110       0       0       1       0                               0D    416
     126     412       0       0       0                        01010500D    417
     126       0       0       2       0                               0D    418
     110     414       0       0       0                        01010000D    419
     110       0       0       1       0                               0D    420
     126     415       0       0       0                        01010500D    421
     126       0       0       2       0                               0D    422
     110     417       0       0       0                        01010000D    423
     110       0       0       1       0                               0D    424
     126     418       0       0       0                        01010500D    425
     126       0       0       2       0                               0D    426
     110     420       0       0       0                        01010000D    427
     110       0       0       1       0                               0D    428
     126     421       0       0       0                        01010500D    429
     126       0       0       2       0                               0D    430
     110     423       0       0       0                        01010000D    431
     110       0       0       1       0                               0D    432
     126     424       0       0       0                        01010500D    433
     126       0       0       2       0                               0D    434
     110     426       0       0       0                        01010000D    435
     110       0       0       1       0                               0D    436
     102     427       0       0       0                        01010500D    437
     102       0       0       1       0                               0D    438
     102     428       0       0       0                        01010000D    439
     102       0       0       1       0                               0D    440
     142     429       0       0       0                        00010500D    441
     142       0       0       1       0                               0D    442
     144     430       0       0       0                        00000000D    443
     144       0      -1       1       0                               0D    444
     128     431       0       0       0                        01010000D    445
     128       0       0       2       0                               0D    446
     126     433       0       0       0                        01010500D    447
     126       0       0       2       0                               0D    448
     110     435       0       0       0                        01010000D    449
     110       0       0       1       0                               0D    450
     126     436       0       0       0                        01010500D    451
     126       0       0       2       0                               0D    452
     110     438       0       0       0                        01010000D    453
     110       0       0       1       0                               0D    454
     126     439       0       0       0                        01010500D    455
     126       0       0       2       0                               0D    456
     110     441       0       0       0                        01010000D    457
     110       0       0       1       0                               0D    458
     126     442       0       0       0                        01010500D    459
     126       0       0       2       0                               0D    460
     110     444       0       0       0                        01010000D    461
     110       0       0       1       0                               0D    462
     126     445       0       0       0                        01010500D    463
     126       0       0       2       0                               0D    464
     110     447       0       0       0                        01010000D    465
     110       0       0       1       0                               0D    466
     126     448       0       0       0                        01010500D    467
     126       0       0       2       0                               0D    468
     110     450       0       0       0                        01010000D    469
     110       0       0       1       0                               0D    470
     126     451       0       0       0                        01010500D    471
     126       0       0       2       0                               0D    472
     110     453       0       0       0                        01010000D    473
     110       0       0       1       0                               0D    474
     126     454       0       0       0                        01010500D    475
     126       0       0       2       0                               0D    476
     110     456       0       0       0                        01010000D    477
     110       0       0       1       0                               0D    478
     102     457       0       0       0                        01010500D    479
     102       0       0       1       0                               0D    480
     102     458       0       0       0                        01010000D    481
     102       0       0       1       0                               0D    482
     142     459       0       0       0                        00010500D    483
     142       0       0       1       0                               0D    484
     144     460       0       0       0                        00000000D    485
     144       0      -1       1       0                               0D    486
     110     461       0       0       0                        01010000D    487
     110       0       0       1       0                               0D    488
     110     462       0       0       0                        01010000D    489
     110       0       0       1       0                               0D    490
     120     463       0       0       0                        01010000D    491
     120       0       0       1       0                               0D    492
     126     464       0       0       0                        01010500D    493
     126       0       0       2       0                               0D    494
     100     466       0       0       0                        01010000D    495
     100       0       0       1       0                               0D    496
     126     467       0       0       0                        01010500D    497
     126       0       0       2       0                               0D    498
     110     469       0       0       0                        01010000D    499
     110       0       0       1       0                               0D    500
     126     470       0       0       0                        01010500D    501
     126       0       0       2       0                               0D    502
     124     472       0       0       0                        00000000D    503
     124       0       0       4       0                               0D    504
     100     476       0       0       0             503        01010000D    505
     100       0       0       1       0                               0D    506
     126     477       0       0       0                        01010500D    507
     126       0       0       2       0                               0D    508
     110     479       0       0       0                        01010000D    509
     110       0       0       1       0                               0D    510
     102     480       0       0       0                        01010500D    511
     102       0       0       1       0                               0D    512
     102     481       0       0       0                        01010000D    513
     102       0       0       1       0                               0D    514
     142     482       0       0       0                        00010500D    515
     142       0       0       1       0                               0D    516
     144     483       0       0       0                        00000000D    517
     144       0      -1       1       0                               0D    518
     110     484       0       0       0                        01010000D    519
     110       0       0       1       0                               0D    520
     110     485       0       0       0                        01010000D    521
     110       0       0       1       0                               0D    522
     120     486       0       0       0                        01010000D    523
     120       0       0       1       0                               0D    524
     126     487       0       0       0                        01010500D    525
     126       0       0       2       0                               0D    526
     100     489       0       0       0                        01010000D    527
     100       0       0       1       0                               0D    528
     126     490       0       0       0                        01010500D    529
     126       0       0       2       0                               0D    530
     110     492       0       0       0                        01010000D    531
     110       0       0       1       0                               0D    532
     126     493       0       0       0                        01010500D    533
     126       0       0       2       0                               0D    534
     124     495       0       0       0                        00000000D    535
     124       0       0       4       0                               0D    536
     100     499       0       0       0             535        01010000D    537
     100       0       0       1       0                               0D    538
     126     500       0       0       0                        01010500D    539
     126       0       0       2       0                               0D    540
     110     502       0       0       0                        01010000D    541
     110       0       0       1       0                               0D    542
     102     503       0       0       0                        01010500D    543
     102       0       0       1       0                               0D    544
     102     504       0       0       0                        01010000D    545
     102       0       0       1       0                               0D    546
     142     505       0       0       0                        00010500D    547
     142       0       0       1       0                               0D    548
     144     506       0       0       0                        00000000D    549
     144       0      -1       1       0                               0D    550
     110     507       0       0       0                        01010000D    551
     110       0       0       1       0                               0D    552
     110     508       0       0       0                        01010000D    553
     110       0       0       1       0                               0D    554
     120     509       0       0       0                        01010000D    555
     120       0       0       1       0                               0D    556
     126     510       0       0       0                        01010500D    557
     126       0       0       2       0                               0D    558
     100     512       0       0       0                        01010000D    559
     100       0       0       1       0                               0D    560
     126     513       0       0       0                        01010500D    561
     126       0       0       2       0                               0D    562
     110     515       0       0       0                        01010000D    563
     110       0       0       1       0                               0D    564
     126     516       0       0       0                        01010500D    565
     126       0       0       2       0                               0D    566
     124     518       0       0       0                        00000000D    567
     124       0       0       4       0                               0D    568
     100     522       0       0       0             567        01010000D    569
     100       0       0       1       0                               0D    570
     126     523       0       0       0                        01010500D    571
     126       0       0       2       0                               0D    572
     110     525       0       0       0                        01010000D    573
     110       0       0       1       0                               0D    574
     102     526       0       0       0                        01010500D    575
     102       0       0       1       0                               0D    576
     102     527       0       0       0                        01010000D    577
     102       0       0       1       0                               0D    578
     142     528       0       0       0                        00010500D    579
     142       0       0       1       0                               0D    580
     144     529       0       0       0                        00000000D    581
     144       0      -1       1       0                               0D    582
314,100.,100.,0.,;                                                     1P      1
110,1.125,2.5,-2.5,1.125,2.5,-1002.5;                                  3P      2
110,0.324999949,2.5,0.,0.324999949,2.5,-2.5;                           5P      3
120,3,5,0.,6.28318530717959;                                           7P      4
126,1,1,1,0,1,0,0.,0.,1.,1.,1.,1.,0.,6.283185307,0.,1.,                9P      5
6.283185307,0.,0.,1.,0.,0.,1.;                                         9P      6
110,0.324999949,2.5,0.,0.324999949,2.5,-2.5;                          11P      7
126,1,1,1,0,1,0,0.,0.,1.,1.,1.,1.,1.,6.283185307,0.,1.,               13P      8
3.141592654,0.,0.,1.,0.,0.,1.;                                        13P      9
100,-2.5,1.125,2.5,0.324999949,2.5,1.925000051,2.5;                   15P     10
126,1,1,1,0,1,0,0.,0.,1.,1.,1.,1.,1.,3.141592654,0.,0.,               17P     11
3.141592654,0.,0.,1.,0.,0.,1.;                                        17P     12
110,1.925000051,2.5,-2.5,1.925000051,2.5,0.;                          19P     13
126,1,1,1,0,1,0,0.,0.,1.,1.,1.,1.,0.,3.141592654,0.,0.,               21P     14
6.283185307,0.,0.,1.,0.,0.,1.;                                        21P     15
124,1.,-7.105427357601E-015,0.,1.77462211592428E-014,                 23P     16
-7.105427357601E-015,-1.,6.98296267768627E-015,                       23P     17
5.00000000000001,-4.96169340471387E-029,-6.98296267768627E-015,       23P     18
-1.,1.74574066942157E-014;                                            23P     19
100,0.,1.125,2.5,1.925000051,2.5,0.324999949,2.5;                     25P     20
102,4,9,13,17,21;                                                     27P     21
102,4,11,15,19,25;                                                    29P     22
142,1,7,27,29,1;                                                      31P     23
144,7,1,0,31;                                                         33P     24
110,6.,2.5,-2.5,6.,2.5,-1002.5;                                       35P     25
110,5.2,2.5,-0.7,5.2,2.5,-2.5;                                        37P     26
120,35,37,0.,6.28318530717959;                                        39P     27
126,1,1,1,0,1,0,0.,0.,1.,1.,1.,1.,0.,6.283185307,0.,1.,               41P     28
6.283185307,0.,0.,1.,0.,0.,1.;                                        41P     29
110,5.2,2.5,-0.7,5.2,2.5,-2.5;                                        43P     30
126,1,1,1,0,1,0,0.,0.,1.,1.,1.,1.,1.,6.283185307,0.,1.,               45P     31
3.141592654,0.,0.,1.,0.,0.,1.;                                        45P     32
100,-2.5,6.,2.5,5.2,2.5,6.8,2.5;                                      47P     33
126,1,1,1,0,1,0,0.,0.,1.,1.,1.,1.,1.,3.141592654,0.,0.,               49P     34
3.141592654,0.,0.,1.,0.,0.,1.;                                        49P     35
110,6.8,2.5,-2.5,6.8,2.5,-0.7;                                        51P     36
126,1,1,1,0,1,0,0.,0.,1.,1.,1.,1.,0.,3.141592654,0.,0.,               53P     37
6.283185307,0.,0.,1.,0.,0.,1.;                                        53P     38
124,1.,-7.105427357601E-015,0.,1.81799020282372E-014,                 55P     39
-7.105427357601E-015,-1.,6.98296267768627E-015,                       55P     40
5.00000000000005,-4.96169340471387E-029,-6.98296267768627E-015,       55P     41
-1.,-1.39999999999998;                                                55P     42
100,-0.7,6.,2.5,6.8,2.5,5.2,2.5;                                      57P     43
102,4,41,45,49,53;                                                    59P     44
102,4,43,47,51,57;                                                    61P     45
142,1,39,59,61,1;                                                     63P     46
144,39,1,0,63;                                                        65P     47
110,10.875,2.5,-2.5,10.875,2.5,-1002.5;                               67P     48
110,10.074999949,2.5,0.,10.074999949,2.5,-2.5;                        69P     49
120,67,69,0.,6.28318530717959;                                        71P     50
126,1,1,1,0,1,0,0.,0.,1.,1.,1.,1.,0.,6.283185307,0.,1.,               73P     51
6.283185307,0.,0.,1.,0.,0.,1.;                                        73P     52
110,10.074999949,2.5,0.,10.074999949,2.5,-2.5;                        75P     53
126,1,1,1,0,1,0,0.,0.,1.,1.,1.,1.,1.,6.283185307,0.,1.,               77P     54
3.141592654,0.,0.,1.,0.,0.,1.;                                        77P     55
100,-2.5,10.875,2.5,10.074999949,2.5,11.675000051,2.5;                79P     56
126,1,1,1,0,1,0,0.,0.,1.,1.,1.,1.,1.,3.141592654,0.,0.,               81P     57
3.141592654,0.,0.,1.,0.,0.,1.;                                        81P     58
110,11.675000051,2.5,-2.5,11.675000051,2.5,0.;                        83P     59
126,1,1,1,0,1,0,0.,0.,1.,1.,1.,1.,0.,3.141592654,0.,0.,               85P     60
6.283185307,0.,0.,1.,0.,0.,1.;                                        85P     61
124,1.,-7.105427357601E-015,-9.33183864767377E-033,                   87P     62
1.81799020282375E-014,-7.105427357601E-015,-1.,                       87P     63
6.98296267768627E-015,5.00000000000008,-4.96262658857864E-029,        87P     64
-6.98296267768627E-015,-1.,1.74574066942162E-014;                     87P     65
100,0.,10.875,2.5,11.675000051,2.5,10.074999949,2.5;                  89P     66
102,4,73,77,81,85;                                                    91P     67
102,4,75,79,83,89;                                                    93P     68
142,1,71,91,93,1;                                                     95P     69
144,71,1,0,95;                                                        97P     70
128,1,1,1,1,0,0,1,0,0,0.,0.,1.,1.,0.,0.,1.,1.,1.,1.,1.,1.,0.,         99P     71
0.,0.,0.,0.,-2.5,0.,5.,0.,0.,5.,-2.5,0.,1.,0.,1.;                     99P     72
126,1,1,1,0,1,0,0.,0.,1.,1.,1.,1.,1.,0.,0.,1.,1.,0.,0.,1.,0.,        101P     73
0.,1.;                                                               101P     74
110,0.,0.,-2.5,0.,5.,-2.5;                                           103P     75
126,1,1,1,0,1,0,0.,0.,1.,1.,1.,1.,1.,1.,0.,0.,1.,0.,0.,1.,0.,        105P     76
0.,1.;                                                               105P     77
110,0.,5.,-2.5,0.,5.,0.;                                             107P     78
126,1,1,1,0,1,0,0.,0.,1.,1.,1.,1.,0.,1.,0.,0.,0.,0.,0.,1.,0.,        109P     79
0.,1.;                                                               109P     80
110,0.,5.,0.,0.,0.,0.;                                               111P     81
126,1,1,1,0,1,0,0.,0.,1.,1.,1.,1.,0.,0.,0.,1.,0.,0.,0.,1.,0.,        113P     82
0.,1.;                                                               113P     83
110,0.,0.,0.,0.,0.,-2.5;                                             115P     84
102,4,101,105,109,113;                                               117P     85
102,4,103,107,111,115;                                               119P     86
142,1,99,117,119,1;                                                  121P     87
144,99,1,0,121;                                                      123P     88
128,1,1,1,1,0,0,1,0,0,0.,0.,1.,1.,0.,0.,1.,1.,1.,1.,1.,1.,2.25,      125P     89
0.,0.,0.,0.,0.,2.25,5.,0.,0.,5.,0.,0.,1.,0.,1.;                      125P     90
126,1,1,1,0,1,0,0.,0.,1.,1.,1.,1.,1.,0.,0.,1.,1.,0.,0.,1.,0.,        127P     91
0.,1.;                                                               127P     92
110,0.,0.,0.,0.,5.,0.;                                               129P     93
126,1,1,1,0,1,0,0.,0.,1.,1.,1.,1.,1.,1.,0.,0.,1.,0.,0.,1.,0.,        131P     94
0.,1.;                                                               131P     95
110,0.,5.,0.,2.25,5.,0.;                                             133P     96
126,1,1,1,0,1,0,0.,0.,1.,1.,1.,1.,0.,1.,0.,0.,0.,0.,0.,1.,0.,        135P     97
0.,1.;                                                               135P     98
110,2.25,5.,0.,2.25,0.,0.;                                           137P     99
126,1,1,1,0,1,0,0.,0.,1.,1.,1.,1.,0.,0.,0.,1.,0.,0.,0.,1.,0.,        139P    100
0.,1.;                                                               139P    101
110,2.25,0.,0.,0.,0.,0.;                                             141P    102
102,4,127,131,135,139;                                               143P    103
102,4,129,133,137,141;                                               145P    104
142,1,125,143,145,1;                                                 147P    105
126,16,2,1,0,1,0,0.,0.,0.,0.125,0.125,0.25,0.25,0.375,0.375,         149P    106
0.5,0.5,0.625,0.625,0.75,0.75,0.875,0.875,1.,1.,1.,1.,1.,1.,1.,      149P    107
1.,1.,1.,1.,1.,1.,1.,1.,1.,1.,1.,1.,1.,0.855555578,0.5,0.,           149P    108
0.855555578,0.468174019,0.,0.828490521,0.438770647,0.,               149P    109
0.801425465,0.409367275,0.,0.75141576,0.386862908,0.,                149P    110
0.701406056,0.364358541,0.,0.636065229,0.352179265,0.,               149P    111
0.570724402,0.33999999,0.,0.5,0.33999999,0.,0.429275598,             149P    112
0.33999999,0.,0.363934771,0.352179265,0.,0.298593944,                149P    113
0.364358541,0.,0.24858424,0.386862908,0.,0.198574535,                149P    114
0.409367275,0.,0.171509479,0.438770647,0.,0.144444422,               149P    115
0.468174019,0.,0.144444422,0.5,0.,0.,1.,0.,0.,1.;                    149P    116
100,0.,1.125,2.5,0.324999949,2.5,1.925000051,2.5;                    151P    117
126,16,2,1,0,1,0,0.,0.,0.,0.125,0.125,0.25,0.25,0.375,0.375,         153P    118
0.5,0.5,0.625,0.625,0.75,0.75,0.875,0.875,1.,1.,1.,1.,1.,1.,1.,      153P    119
1.,1.,1.,1.,1.,1.,1.,1.,1.,1.,1.,1.,1.,0.144444422,0.5,0.,           153P    120
0.144444422,0.531825981,0.,0.171509479,0.561229353,0.,               153P    121
0.198574535,0.590632725,0.,0.24858424,0.613137092,0.,                153P    122
0.298593944,0.635641459,0.,0.363934771,0.647820735,0.,               153P    123
0.429275598,0.66000001,0.,0.5,0.66000001,0.,0.570724402,             153P    124
0.66000001,0.,0.636065229,0.647820735,0.,0.701406056,                153P    125
0.635641459,0.,0.75141576,0.613137092,0.,0.801425465,                153P    126
0.590632725,0.,0.828490521,0.561229353,0.,0.855555578,               153P    127
0.531825981,0.,0.855555578,0.5,0.,0.,1.,0.,0.,1.;                    153P    128
100,0.,1.125,2.5,1.925000051,2.5,0.324999949,2.5;                    155P    129
102,2,149,153;                                                       157P    130
102,2,151,155;                                                       159P    131
142,1,125,157,159,1;                                                 161P    132
144,125,1,1,147,161;                                                 163P    133
128,1,1,1,1,0,0,1,0,0,0.,0.,1.,1.,0.,0.,1.,1.,1.,1.,1.,1.,2.25,      165P    134
0.,-0.7,2.25,0.,0.,2.25,5.,-0.7,2.25,5.,0.,0.,1.,0.,1.;              165P    135
126,1,1,1,0,1,0,0.,0.,1.,1.,1.,1.,1.,0.,0.,1.,1.,0.,0.,1.,0.,        167P    136
0.,1.;                                                               167P    137
110,2.25,0.,0.,2.25,5.,0.;                                           169P    138
126,1,1,1,0,1,0,0.,0.,1.,1.,1.,1.,1.,1.,0.,0.,1.,0.,0.,1.,0.,        171P    139
0.,1.;                                                               171P    140
110,2.25,5.,0.,2.25,5.,-0.7;                                         173P    141
126,1,1,1,0,1,0,0.,0.,1.,1.,1.,1.,0.,1.,0.,0.,0.,0.,0.,1.,0.,        175P    142
0.,1.;                                                               175P    143
110,2.25,5.,-0.7,2.25,0.,-0.7;                                       177P    144
126,1,1,1,0,1,0,0.,0.,1.,1.,1.,1.,0.,0.,0.,1.,0.,0.,0.,1.,0.,        179P    145
0.,1.;                                                               179P    146
110,2.25,0.,-0.7,2.25,0.,0.;                                         181P    147
102,4,167,171,175,179;                                               183P    148
102,4,169,173,177,181;                                               185P    149
142,1,165,183,185,1;                                                 187P    150
144,165,1,0,187;                                                     189P    151
128,1,1,1,1,0,0,1,0,0,0.,0.,1.,1.,0.,0.,1.,1.,1.,1.,1.,1.,9.75,      191P    152
0.,-0.7,2.25,0.,-0.7,9.75,5.,-0.7,2.25,5.,-0.7,0.,1.,0.,1.;          191P    153
126,1,1,1,0,1,0,0.,0.,1.,1.,1.,1.,1.,0.,0.,1.,1.,0.,0.,1.,0.,        193P    154
0.,1.;                                                               193P    155
110,2.25,0.,-0.7,2.25,5.,-0.7;                                       195P    156
126,1,1,1,0,1,0,0.,0.,1.,1.,1.,1.,1.,1.,0.,0.,1.,0.,0.,1.,0.,        197P    157
0.,1.;                                                               197P    158
110,2.25,5.,-0.7,9.75,5.,-0.7;                                       199P    159
126,1,1,1,0,1,0,0.,0.,1.,1.,1.,1.,0.,1.,0.,0.,0.,0.,0.,1.,0.,        201P    160
0.,1.;                                                               201P    161
110,9.75,5.,-0.7,9.75,0.,-0.7;                                       203P    162
126,1,1,1,0,1,0,0.,0.,1.,1.,1.,1.,0.,0.,0.,1.,0.,0.,0.,1.,0.,        205P    163
0.,1.;                                                               205P    164
110,9.75,0.,-0.7,2.25,0.,-0.7;                                       207P    165
102,4,193,197,201,205;                                               209P    166
102,4,195,199,203,207;                                               211P    167
142,1,191,209,211,1;                                                 213P    168
126,16,2,1,0,1,0,0.,0.,0.,0.125,0.125,0.25,0.25,0.375,0.375,         215P    169
0.5,0.5,0.625,0.625,0.75,0.75,0.875,0.875,1.,1.,1.,1.,1.,1.,1.,      215P    170
1.,1.,1.,1.,1.,1.,1.,1.,1.,1.,1.,1.,1.,0.606666667,0.5,0.,           215P    171
0.606666667,0.468174021,0.,0.59854715,0.438770651,0.,                215P    172
0.590427634,0.40936728,0.,0.575424723,0.386862915,0.,                215P    173
0.560421813,0.36435855,0.,0.540819566,0.352179275,0.,                215P    174
0.521217319,0.34,0.,0.5,0.34,0.,0.478782681,0.34,0.,                 215P    175
0.459180434,0.352179275,0.,0.439578187,0.36435855,0.,                215P    176
0.424575277,0.386862915,0.,0.409572366,0.40936728,0.,                215P    177
0.40145285,0.438770651,0.,0.393333333,0.468174021,0.,                215P    178
0.393333333,0.5,0.,0.,1.,0.,0.,1.;                                   215P    179
100,-0.7,6.,2.5,5.2,2.5,6.8,2.5;                                     217P    180
126,16,2,1,0,1,0,0.,0.,0.,0.125,0.125,0.25,0.25,0.375,0.375,         219P    181
0.5,0.5,0.625,0.625,0.75,0.75,0.875,0.875,1.,1.,1.,1.,1.,1.,1.,      219P    182
1.,1.,1.,1.,1.,1.,1.,1.,1.,1.,1.,1.,1.,0.393333333,0.5,0.,           219P    183
0.393333333,0.531825979,0.,0.40145285,0.561229349,0.,                219P    184
0.409572366,0.59063272,0.,0.424575277,0.613137085,0.,                219P    185
0.439578187,0.63564145,0.,0.459180434,0.647820725,0.,                219P    186
0.478782681,0.66,0.,0.5,0.66,0.,0.521217319,0.66,0.,                 219P    187
0.540819566,0.647820725,0.,0.560421813,0.63564145,0.,                219P    188
0.575424723,0.613137085,0.,0.590427634,0.59063272,0.,                219P    189
0.59854715,0.561229349,0.,0.606666667,0.531825979,0.,                219P    190
0.606666667,0.5,0.,0.,1.,0.,0.,1.;                                   219P    191
100,-0.7,6.,2.5,6.8,2.5,5.2,2.5;                                     221P    192
102,2,215,219;                                                       223P    193
102,2,217,221;                                                       225P    194
142,1,191,223,225,1;                                                 227P    195
144,191,1,1,213,227;                                                 229P    196
128,1,1,1,1,0,0,1,0,0,0.,0.,1.,1.,0.,0.,1.,1.,1.,1.,1.,1.,9.75,      231P    197
0.,0.,9.75,0.,-0.7,9.75,5.,0.,9.75,5.,-0.7,0.,1.,0.,1.;              231P    198
126,1,1,1,0,1,0,0.,0.,1.,1.,1.,1.,1.,0.,0.,1.,1.,0.,0.,1.,0.,        233P    199
0.,1.;                                                               233P    200
110,9.75,0.,-0.7,9.75,5.,-0.7;                                       235P    201
126,1,1,1,0,1,0,0.,0.,1.,1.,1.,1.,1.,1.,0.,0.,1.,0.,0.,1.,0.,        237P    202
0.,1.;                                                               237P    203
110,9.75,5.,-0.7,9.75,5.,0.;                                         239P    204
126,1,1,1,0,1,0,0.,0.,1.,1.,1.,1.,0.,1.,0.,0.,0.,0.,0.,1.,0.,        241P    205
0.,1.;                                                               241P    206
110,9.75,5.,0.,9.75,0.,0.;                                           243P    207
126,1,1,1,0,1,0,0.,0.,1.,1.,1.,1.,0.,0.,0.,1.,0.,0.,0.,1.,0.,        245P    208
0.,1.;                                                               245P    209
110,9.75,0.,0.,9.75,0.,-0.7;                                         247P    210
102,4,233,237,241,245;                                               249P    211
102,4,235,239,243,247;                                               251P    212
142,1,231,249,251,1;                                                 253P    213
144,231,1,0,253;                                                     255P    214
128,1,1,1,1,0,0,1,0,0,0.,0.,1.,1.,0.,0.,1.,1.,1.,1.,1.,1.,12.,       257P    215
0.,0.,9.75,0.,0.,12.,5.,0.,9.75,5.,0.,0.,1.,0.,1.;                   257P    216
126,1,1,1,0,1,0,0.,0.,1.,1.,1.,1.,1.,0.,0.,1.,1.,0.,0.,1.,0.,        259P    217
0.,1.;                                                               259P    218
110,9.75,0.,0.,9.75,5.,0.;                                           261P    219
126,1,1,1,0,1,0,0.,0.,1.,1.,1.,1.,1.,1.,0.,0.,1.,0.,0.,1.,0.,        263P    220
0.,1.;                                                               263P    221
110,9.75,5.,0.,12.,5.,0.;                                            265P    222
126,1,1,1,0,1,0,0.,0.,1.,1.,1.,1.,0.,1.,0.,0.,0.,0.,0.,1.,0.,        267P    223
0.,1.;                                                               267P    224
110,12.,5.,0.,12.,0.,0.;                                             269P    225
126,1,1,1,0,1,0,0.,0.,1.,1.,1.,1.,0.,0.,0.,1.,0.,0.,0.,1.,0.,        271P    226
0.,1.;                                                               271P    227
110,12.,0.,0.,9.75,0.,0.;                                            273P    228
102,4,259,263,267,271;                                               275P    229
102,4,261,265,269,273;                                               277P    230
142,1,257,275,277,1;                                                 279P    231
126,16,2,1,0,1,0,0.,0.,0.,0.125,0.125,0.25,0.25,0.375,0.375,         281P    232
0.5,0.5,0.625,0.625,0.75,0.75,0.875,0.875,1.,1.,1.,1.,1.,1.,1.,      281P    233
1.,1.,1.,1.,1.,1.,1.,1.,1.,1.,1.,1.,1.,0.855555578,0.5,0.,           281P    234
0.855555578,0.468174019,0.,0.828490521,0.438770647,0.,               281P    235
0.801425465,0.409367275,0.,0.75141576,0.386862908,0.,                281P    236
0.701406056,0.364358541,0.,0.636065229,0.352179265,0.,               281P    237
0.570724402,0.33999999,0.,0.5,0.33999999,0.,0.429275598,             281P    238
0.33999999,0.,0.363934771,0.352179265,0.,0.298593944,                281P    239
0.364358541,0.,0.24858424,0.386862908,0.,0.198574535,                281P    240
0.409367275,0.,0.171509479,0.438770647,0.,0.144444422,               281P    241
0.468174019,0.,0.144444422,0.5,0.,0.,1.,0.,0.,1.;                    281P    242
100,0.,10.875,2.5,10.074999949,2.5,11.675000051,2.5;                 283P    243
126,16,2,1,0,1,0,0.,0.,0.,0.125,0.125,0.25,0.25,0.375,0.375,         285P    244
0.5,0.5,0.625,0.625,0.75,0.75,0.875,0.875,1.,1.,1.,1.,1.,1.,1.,      285P    245
1.,1.,1.,1.,1.,1.,1.,1.,1.,1.,1.,1.,1.,0.144444422,0.5,0.,           285P    246
0.144444422,0.531825981,0.,0.171509479,0.561229353,0.,               285P    247
0.198574535,0.590632725,0.,0.24858424,0.613137092,0.,                285P    248
0.298593944,0.635641459,0.,0.363934771,0.647820735,0.,               285P    249
0.429275598,0.66000001,0.,0.5,0.66000001,0.,0.570724402,             285P    250
0.66000001,0.,0.636065229,0.647820735,0.,0.701406056,                285P    251
0.635641459,0.,0.75141576,0.613137092,0.,0.801425465,                285P    252
0.590632725,0.,0.828490521,0.561229353,0.,0.855555578,               285P    253
0.531825981,0.,0.855555578,0.5,0.,0.,1.,0.,0.,1.;                    285P    254
100,0.,10.875,2.5,11.675000051,2.5,10.074999949,2.5;                 287P    255
102,2,281,285;                                                       289P    256
102,2,283,287;                                                       291P    257
142,1,257,289,291,1;                                                 293P    258
144,257,1,1,279,293;                                                 295P    259
128,1,1,1,1,0,0,1,0,0,0.,0.,1.,1.,0.,0.,1.,1.,1.,1.,1.,1.,12.,       297P    260
0.,-2.5,12.,0.,0.,12.,5.,-2.5,12.,5.,0.,0.,1.,0.,1.;                 297P    261
126,1,1,1,0,1,0,0.,0.,1.,1.,1.,1.,1.,0.,0.,1.,1.,0.,0.,1.,0.,        299P    262
0.,1.;                                                               299P    263
110,12.,0.,0.,12.,5.,0.;                                             301P    264
126,1,1,1,0,1,0,0.,0.,1.,1.,1.,1.,1.,1.,0.,0.,1.,0.,0.,1.,0.,        303P    265
0.,1.;                                                               303P    266
110,12.,5.,0.,12.,5.,-2.5;                                           305P    267
126,1,1,1,0,1,0,0.,0.,1.,1.,1.,1.,0.,1.,0.,0.,0.,0.,0.,1.,0.,        307P    268
0.,1.;                                                               307P    269
110,12.,5.,-2.5,12.,0.,-2.5;                                         309P    270
126,1,1,1,0,1,0,0.,0.,1.,1.,1.,1.,0.,0.,0.,1.,0.,0.,0.,1.,0.,        311P    271
0.,1.;                                                               311P    272
110,12.,0.,-2.5,12.,0.,0.;                                           313P    273
102,4,299,303,307,311;                                               315P    274
102,4,301,305,309,313;                                               317P    275
142,1,297,315,317,1;                                                 319P    276
144,297,1,0,319;                                                     321P    277
128,1,1,1,1,0,0,1,0,0,0.,0.,1.,1.,0.,0.,1.,1.,1.,1.,1.,1.,0.,        323P    278
0.,-2.5,12.,0.,-2.5,0.,5.,-2.5,12.,5.,-2.5,0.,1.,0.,1.;              323P    279
126,1,1,1,0,1,0,0.,0.,1.,1.,1.,1.,1.,0.,0.,1.,1.,0.,0.,1.,0.,        325P    280
0.,1.;                                                               325P    281
110,12.,0.,-2.5,12.,5.,-2.5;                                         327P    282
126,1,1,1,0,1,0,0.,0.,1.,1.,1.,1.,1.,1.,0.,0.,1.,0.,0.,1.,0.,        329P    283
0.,1.;                                                               329P    284
110,12.,5.,-2.5,0.,5.,-2.5;                                          331P    285
126,1,1,1,0,1,0,0.,0.,1.,1.,1.,1.,0.,1.,0.,0.,0.,0.,0.,1.,0.,        333P    286
0.,1.;                                                               333P    287
110,0.,5.,-2.5,0.,0.,-2.5;                                           335P    288
126,1,1,1,0,1,0,0.,0.,1.,1.,1.,1.,0.,0.,0.,1.,0.,0.,0.,1.,0.,        337P    289
0.,1.;                                                               337P    290
110,0.,0.,-2.5,12.,0.,-2.5;                                          339P    291
102,4,325,329,333,337;                                               341P    292
102,4,327,331,335,339;                                               343P    293
142,1,323,341,343,1;                                                 345P    294
126,16,2,1,0,1,0,0.,0.,0.,0.125,0.125,0.25,0.25,0.375,0.375,         347P    295
0.5,0.5,0.625,0.625,0.75,0.75,0.875,0.875,1.,1.,1.,1.,1.,1.,1.,      347P    296
1.,1.,1.,1.,1.,1.,1.,1.,1.,1.,1.,1.,1.,0.160416671,0.5,0.,           347P    297
0.160416671,0.468174019,0.,0.155341973,0.438770647,0.,               347P    298
0.150267275,0.409367275,0.,0.140890455,0.386862908,0.,               347P    299
0.131513636,0.364358541,0.,0.11926223,0.352179265,0.,                347P    300
0.107010825,0.33999999,0.,0.09375,0.33999999,0.,0.080489175,         347P    301
0.33999999,0.,0.06823777,0.352179265,0.,0.055986364,                 347P    302
0.364358541,0.,0.046609545,0.386862908,0.,0.037232725,               347P    303
0.409367275,0.,0.032158027,0.438770647,0.,0.027083329,               347P    304
0.468174019,0.,0.027083329,0.5,0.,0.,1.,0.,0.,1.;                    347P    305
124,1.,-7.105427357601E-015,0.,1.77462211592427E-014,                349P    306
-7.105427357601E-015,-1.,6.98296267768627E-015,                      349P    307
5.00000000000002,-4.96169340471387E-029,-6.98296267768627E-015,      349P    308
-1.,-4.99999999999997;                                               349P    309
100,-2.5,1.125,2.5,1.925000051,2.5,0.324999949,2.5;                  351P    310
126,16,2,1,0,1,0,0.,0.,0.,0.125,0.125,0.25,0.25,0.375,0.375,         353P    311
0.5,0.5,0.625,0.625,0.75,0.75,0.875,0.875,1.,1.,1.,1.,1.,1.,1.,      353P    312
1.,1.,1.,1.,1.,1.,1.,1.,1.,1.,1.,1.,1.,0.027083329,0.5,0.,           353P    313
0.027083329,0.531825981,0.,0.032158027,0.561229353,0.,               353P    314
0.037232725,0.590632725,0.,0.046609545,0.613137092,0.,               353P    315
0.055986364,0.635641459,0.,0.06823777,0.647820735,0.,                353P    316
0.080489175,0.66000001,0.,0.09375,0.66000001,0.,0.107010825,         353P    317
0.66000001,0.,0.11926223,0.647820735,0.,0.131513636,                 353P    318
0.635641459,0.,0.140890455,0.613137092,0.,0.150267275,               353P    319
0.590632725,0.,0.155341973,0.561229353,0.,0.160416671,               353P    320
0.531825981,0.,0.160416671,0.5,0.,0.,1.,0.,0.,1.;                    353P    321
124,-1.,-6.98296267768627E-015,0.,2.25000000000002,                  355P    322
-6.98296267768627E-015,1.,-6.98296267768627E-015,                    355P    323
-9.66216824576445E-015,4.87617677579594E-029,                        355P    324
-6.98296267768627E-015,-1.,-4.99999999999997;                        355P    325
100,-2.5,1.125,2.5,1.925000051,2.5,0.324999949,2.5;                  357P    326
102,2,347,353;                                                       359P    327
102,2,351,357;                                                       361P    328
142,1,323,359,361,1;                                                 363P    329
126,16,2,1,0,1,0,0.,0.,0.,0.125,0.125,0.25,0.25,0.375,0.375,         365P    330
0.5,0.5,0.625,0.625,0.75,0.75,0.875,0.875,1.,1.,1.,1.,1.,1.,1.,      365P    331
1.,1.,1.,1.,1.,1.,1.,1.,1.,1.,1.,1.,1.,0.566666667,0.5,0.,           365P    332
0.566666667,0.468174021,0.,0.561591969,0.438770651,0.,               365P    333
0.556517271,0.40936728,0.,0.547140452,0.386862915,0.,                365P    334
0.537763633,0.36435855,0.,0.525512229,0.352179275,0.,                365P    335
0.513260824,0.34,0.,0.5,0.34,0.,0.486739176,0.34,0.,                 365P    336
0.474487771,0.352179275,0.,0.462236367,0.36435855,0.,                365P    337
0.452859548,0.386862915,0.,0.443482729,0.40936728,0.,                365P    338
0.438408031,0.438770651,0.,0.433333333,0.468174021,0.,               365P    339
0.433333333,0.5,0.,0.,1.,0.,0.,1.;                                   365P    340
124,1.,-7.105427357601E-015,0.,1.81799020282371E-014,                367P    341
-7.105427357601E-015,-1.,6.98296267768627E-015,                      367P    342
5.00000000000006,-4.96169340471387E-029,-6.98296267768627E-015,      367P    343
-1.,-4.99999999999999;                                               367P    344
100,-2.5,6.,2.5,6.8,2.5,5.2,2.5;                                     369P    345
126,16,2,1,0,1,0,0.,0.,0.,0.125,0.125,0.25,0.25,0.375,0.375,         371P    346
0.5,0.5,0.625,0.625,0.75,0.75,0.875,0.875,1.,1.,1.,1.,1.,1.,1.,      371P    347
1.,1.,1.,1.,1.,1.,1.,1.,1.,1.,1.,1.,1.,0.433333333,0.5,0.,           371P    348
0.433333333,0.531825979,0.,0.438408031,0.561229349,0.,               371P    349
0.443482729,0.59063272,0.,0.452859548,0.613137085,0.,                371P    350
0.462236367,0.63564145,0.,0.474487771,0.647820725,0.,                371P    351
0.486739176,0.66,0.,0.5,0.66,0.,0.513260824,0.66,0.,                 371P    352
0.525512229,0.647820725,0.,0.537763633,0.63564145,0.,                371P    353
0.547140452,0.613137085,0.,0.556517271,0.59063272,0.,                371P    354
0.561591969,0.561229349,0.,0.566666667,0.531825979,0.,               371P    355
0.566666667,0.5,0.,0.,1.,0.,0.,1.;                                   371P    356
124,-1.,-6.98296267768627E-015,0.,12.,-6.98296267768627E-015,        373P    357
1.,-6.98296267768627E-015,2.41609292111346E-014,                     373P    358
4.87617677579594E-029,-6.98296267768627E-015,-1.,                    373P    359
-4.99999999999999;                                                   373P    360
100,-2.5,6.,2.5,6.8,2.5,5.2,2.5;                                     375P    361
102,2,365,371;                                                       377P    362
102,2,369,375;                                                       379P    363
142,1,323,377,379,1;                                                 381P    364
126,16,2,1,0,1,0,0.,0.,0.,0.125,0.125,0.25,0.25,0.375,0.375,         383P    365
0.5,0.5,0.625,0.625,0.75,0.75,0.875,0.875,1.,1.,1.,1.,1.,1.,1.,      383P    366
1.,1.,1.,1.,1.,1.,1.,1.,1.,1.,1.,1.,1.,0.972916671,0.5,0.,           383P    367
0.972916671,0.468174019,0.,0.967841973,0.438770647,0.,               383P    368
0.962767275,0.409367275,0.,0.953390455,0.386862908,0.,               383P    369
0.944013636,0.364358541,0.,0.93176223,0.352179265,0.,                383P    370
0.919510825,0.33999999,0.,0.90625,0.33999999,0.,0.892989175,         383P    371
0.33999999,0.,0.88073777,0.352179265,0.,0.868486364,                 383P    372
0.364358541,0.,0.859109545,0.386862908,0.,0.849732725,               383P    373
0.409367275,0.,0.844658027,0.438770647,0.,0.839583329,               383P    374
0.468174019,0.,0.839583329,0.5,0.,0.,1.,0.,0.,1.;                    383P    375
124,1.,-7.105427357601E-015,0.,1.81799020282374E-014,                385P    376
-7.105427357601E-015,-1.,6.98296267768627E-015,5.0000000000001,      385P    377
-4.96169340471387E-029,-6.98296267768627E-015,-1.,                   385P    378
-4.99999999999999;                                                   385P    379
100,-2.5,10.875,2.5,11.675000051,2.5,10.074999949,2.5;               387P    380
126,16,2,1,0,1,0,0.,0.,0.,0.125,0.125,0.25,0.25,0.375,0.375,         389P    381
0.5,0.5,0.625,0.625,0.75,0.75,0.875,0.875,1.,1.,1.,1.,1.,1.,1.,      389P    382
1.,1.,1.,1.,1.,1.,1.,1.,1.,1.,1.,1.,1.,0.839583329,0.5,0.,           389P    383
0.839583329,0.531825981,0.,0.844658027,0.561229353,0.,               389P    384
0.849732725,0.590632725,0.,0.859109545,0.613137092,0.,               389P    385
0.868486364,0.635641459,0.,0.88073777,0.647820735,0.,                389P    386
0.892989175,0.66000001,0.,0.90625,0.66000001,0.,0.919510825,         389P    387
0.66000001,0.,0.93176223,0.647820735,0.,0.944013636,                 389P    388
0.635641459,0.,0.953390455,0.613137092,0.,0.962767275,               389P    389
0.590632725,0.,0.967841973,0.561229353,0.,0.972916671,               389P    390
0.531825981,0.,0.972916671,0.5,0.,0.,1.,0.,0.,1.;                    389P    391
124,-1.,-6.98296267768627E-015,0.,21.75,-6.98296267768627E-015,      391P    392
1.,-6.98296267768627E-015,5.84177075370279E-014,                     391P    393
4.87617677579594E-029,-6.98296267768627E-015,-1.,                    391P    394
-4.99999999999999;                                                   391P    395
100,-2.5,10.875,2.5,11.675000051,2.5,10.074999949,2.5;               393P    396
102,2,383,389;                                                       395P    397
102,2,387,393;                                                       397P    398
142,1,323,395,397,1;                                                 399P    399
144,323,1,3,345,363,381,399;                                         401P    400
128,1,1,1,1,0,0,1,0,0,0.,0.,1.,1.,0.,0.,1.,1.,1.,1.,1.,1.,0.,        403P    401
5.,0.,0.,5.,-2.5,12.,5.,0.,12.,5.,-2.5,0.,1.,0.,1.;                  403P    402
126,1,1,1,0,1,0,0.,0.,1.,1.,1.,1.,1.,0.,0.,1.,1.,0.,0.,1.,0.,        405P    403
0.,1.;                                                               405P    404
110,0.,5.,-2.5,12.,5.,-2.5;                                          407P    405
126,1,1,1,0,1,0,0.,0.,1.,1.,1.,1.,1.,1.,0.,0.,1.,0.,0.,1.,0.,        409P    406
0.,1.;                                                               409P    407
110,12.,5.,-2.5,12.,5.,0.;                                           411P    408
126,1,1,1,0,1,0,0.,0.,1.,1.,1.,1.,0.,1.,0.,0.,0.8125,0.,0.,1.,       413P    409
0.,0.,1.;                                                            413P    410
110,12.,5.,0.,9.75,5.,0.;                                            415P    411
126,1,1,1,0,1,0,0.,0.,1.,1.,1.,1.,0.,0.8125,0.,0.28,0.8125,0.,       417P    412
0.,1.,0.,0.,1.;                                                      417P    413
110,9.75,5.,0.,9.75,5.,-0.7;                                         419P    414
126,1,1,1,0,1,0,0.,0.,1.,1.,1.,1.,0.28,0.8125,0.,0.28,0.1875,        421P    415
0.,0.,1.,0.,0.,1.;                                                   421P    416
110,9.75,5.,-0.7,2.25,5.,-0.7;                                       423P    417
126,1,1,1,0,1,0,0.,0.,1.,1.,1.,1.,0.28,0.1875,0.,0.,0.1875,0.,       425P    418
0.,1.,0.,0.,1.;                                                      425P    419
110,2.25,5.,-0.7,2.25,5.,0.;                                         427P    420
126,1,1,1,0,1,0,0.,0.,1.,1.,1.,1.,0.,0.1875,0.,0.,0.,0.,0.,1.,       429P    421
0.,0.,1.;                                                            429P    422
110,2.25,5.,0.,0.,5.,0.;                                             431P    423
126,1,1,1,0,1,0,0.,0.,1.,1.,1.,1.,0.,0.,0.,1.,0.,0.,0.,1.,0.,        433P    424
0.,1.;                                                               433P    425
110,0.,5.,0.,0.,5.,-2.5;                                             435P    426
102,8,405,409,413,417,421,425,429,433;                               437P    427
102,8,407,411,415,419,423,427,431,435;                               439P    428
142,1,403,437,439,1;                                                 441P    429
144,403,1,0,441;                                                     443P    430
128,1,1,1,1,0,0,1,0,0,0.,0.,1.,1.,0.,0.,1.,1.,1.,1.,1.,1.,0.,        445P    431
0.,0.,0.,0.,-2.5,12.,0.,0.,12.,0.,-2.5,0.,1.,0.,1.;                  445P    432
126,1,1,1,0,1,0,0.,0.,1.,1.,1.,1.,0.,0.,0.,1.,0.,0.,0.,1.,0.,        447P    433
0.,1.;                                                               447P    434
110,0.,0.,0.,0.,0.,-2.5;                                             449P    435
126,1,1,1,0,1,0,0.,0.,1.,1.,1.,1.,1.,0.,0.,1.,1.,0.,0.,1.,0.,        451P    436
0.,1.;                                                               451P    437
110,0.,0.,-2.5,12.,0.,-2.5;                                          453P    438
126,1,1,1,0,1,0,0.,0.,1.,1.,1.,1.,1.,1.,0.,0.,1.,0.,0.,1.,0.,        455P    439
0.,1.;                                                               455P    440
110,12.,0.,-2.5,12.,0.,0.;                                           457P    441
126,1,1,1,0,1,0,0.,0.,1.,1.,1.,1.,0.,1.,0.,0.,0.8125,0.,0.,1.,       459P    442
0.,0.,1.;                                                            459P    443
110,12.,0.,0.,9.75,0.,0.;                                            461P    444
126,1,1,1,0,1,0,0.,0.,1.,1.,1.,1.,0.,0.8125,0.,0.28,0.8125,0.,       463P    445
0.,1.,0.,0.,1.;                                                      463P    446
110,9.75,0.,0.,9.75,0.,-0.7;                                         465P    447
126,1,1,1,0,1,0,0.,0.,1.,1.,1.,1.,0.28,0.8125,0.,0.28,0.1875,        467P    448
0.,0.,1.,0.,0.,1.;                                                   467P    449
110,9.75,0.,-0.7,2.25,0.,-0.7;                                       469P    450
126,1,1,1,0,1,0,0.,0.,1.,1.,1.,1.,0.28,0.1875,0.,0.,0.1875,0.,       471P    451
0.,1.,0.,0.,1.;                                                      471P    452
110,2.25,0.,-0.7,2.25,0.,0.;                                         473P    453
126,1,1,1,0,1,0,0.,0.,1.,1.,1.,1.,0.,0.1875,0.,0.,0.,0.,0.,1.,       475P    454
0.,0.,1.;                                                            475P    455
110,2.25,0.,0.,0.,0.,0.;                                             477P    456
102,8,447,451,455,459,463,467,471,475;                               479P    457
102,8,449,453,457,461,465,469,473,477;                               481P    458
142,1,445,479,481,1;                                                 483P    459
144,445,1,0,483;                                                     485P    460
110,10.875,2.5,-2.5,10.875,2.5,-1002.5;                              487P    461
110,10.074999949,2.5,0.,10.074999949,2.5,-2.5;                       489P    462
120,487,489,0.,6.28318530717959;                                     491P    463
126,1,1,1,0,1,0,0.,0.,1.,1.,1.,1.,1.,3.141592654,0.,1.,0.,0.,        493P    464
0.,1.,0.,0.,1.;                                                      493P    465
100,-2.5,10.875,2.5,11.675000051,2.5,10.074999949,2.5;               495P    466
126,1,1,1,0,1,0,0.,0.,1.,1.,1.,1.,1.,0.,0.,0.,0.,0.,0.,1.,0.,        497P    467
0.,1.;                                                               497P    468
110,10.074999949,2.5,-2.5,10.074999949,2.5,0.;                       499P    469
126,1,1,1,0,1,0,0.,0.,1.,1.,1.,1.,0.,0.,0.,0.,3.141592654,0.,        501P    470
0.,1.,0.,0.,1.;                                                      501P    471
124,-1.,-6.98296267768627E-015,-9.33183864767377E-033,21.75,         503P    472
-6.98296267768627E-015,1.,-6.98296267768627E-015,                    503P    473
7.59852861656912E-014,4.8771099596607E-029,                          503P    474
-6.98296267768627E-015,-1.,1.74574066942151E-014;                    503P    475
100,0.,10.875,2.5,11.675000051,2.5,10.074999949,2.5;                 505P    476
126,1,1,1,0,1,0,0.,0.,1.,1.,1.,1.,0.,3.141592654,0.,1.,              507P    477
3.141592654,0.,0.,1.,0.,0.,1.;                                       507P    478
110,11.675000051,2.5,0.,11.675000051,2.5,-2.5;                       509P    479
102,4,493,497,501,507;                                               511P    480
102,4,495,499,505,509;                                               513P    481
142,1,491,511,513,1;                                                 515P    482
144,491,1,0,515;                                                     517P    483
110,6.,2.5,-2.5,6.,2.5,-1002.5;                                      519P    484
110,5.2,2.5,-0.7,5.2,2.5,-2.5;                                       521P    485
120,519,521,0.,6.28318530717959;                                     523P    486
126,1,1,1,0,1,0,0.,0.,1.,1.,1.,1.,1.,3.141592654,0.,1.,0.,0.,        525P    487
0.,1.,0.,0.,1.;                                                      525P    488
100,-2.5,6.,2.5,6.8,2.5,5.2,2.5;                                     527P    489
126,1,1,1,0,1,0,0.,0.,1.,1.,1.,1.,1.,0.,0.,0.,0.,0.,0.,1.,0.,        529P    490
0.,1.;                                                               529P    491
110,5.2,2.5,-2.5,5.2,2.5,-0.7;                                       531P    492
126,1,1,1,0,1,0,0.,0.,1.,1.,1.,1.,0.,0.,0.,0.,3.141592654,0.,        533P    493
0.,1.,0.,0.,1.;                                                      533P    494
124,-1.,-6.98296267768627E-015,0.,12.,-6.98296267768627E-015,        535P    495
1.,-6.98296267768627E-015,3.67228496499733E-014,                     535P    496
4.87617677579594E-029,-6.98296267768627E-015,-1.,                    535P    497
-1.39999999999998;                                                   535P    498
100,-0.7,6.,2.5,6.8,2.5,5.2,2.5;                                     537P    499
126,1,1,1,0,1,0,0.,0.,1.,1.,1.,1.,0.,3.141592654,0.,1.,              539P    500
3.141592654,0.,0.,1.,0.,0.,1.;                                       539P    501
110,6.8,2.5,-0.7,6.8,2.5,-2.5;                                       541P    502
102,4,525,529,533,539;                                               543P    503
102,4,527,531,537,541;                                               545P    504
142,1,523,543,545,1;                                                 547P    505
144,523,1,0,547;                                                     549P    506
110,1.125,2.5,-2.5,1.125,2.5,-1002.5;                                551P    507
110,0.324999949,2.5,0.,0.324999949,2.5,-2.5;                         553P    508
120,551,553,0.,6.28318530717959;                                     555P    509
126,1,1,1,0,1,0,0.,0.,1.,1.,1.,1.,1.,3.141592654,0.,1.,0.,0.,        557P    510
0.,1.,0.,0.,1.;                                                      557P    511
100,-2.5,1.125,2.5,1.925000051,2.5,0.324999949,2.5;                  559P    512
126,1,1,1,0,1,0,0.,0.,1.,1.,1.,1.,1.,0.,0.,0.,0.,0.,0.,1.,0.,        561P    513
0.,1.;                                                               561P    514
110,0.324999949,2.5,-2.5,0.324999949,2.5,0.;                         563P    515
126,1,1,1,0,1,0,0.,0.,1.,1.,1.,1.,0.,0.,0.,0.,3.141592654,0.,        565P    516
0.,1.,0.,0.,1.;                                                      565P    517
124,-1.,-6.98296267768627E-015,0.,2.25000000000002,                  567P    518
-6.98296267768627E-015,1.,-6.98296267768627E-015,                    567P    519
7.9054103828987E-015,4.87617677579594E-029,                          567P    520
-6.98296267768627E-015,-1.,1.74574066942156E-014;                    567P    521
100,0.,1.125,2.5,1.925000051,2.5,0.324999949,2.5;                    569P    522
126,1,1,1,0,1,0,0.,0.,1.,1.,1.,1.,0.,3.141592654,0.,1.,              571P    523
3.141592654,0.,0.,1.,0.,0.,1.;                                       571P    524
110,1.925000051,2.5,0.,1.925000051,2.5,-2.5;                         573P    525
102,4,557,561,565,571;                                               575P    526
102,4,559,563,569,573;                                               577P    527
142,1,555,575,577,1;                                                 579P    528
144,555,1,0,579;                                                     581P    529
S      1G      5D    582P    529                                        T      1
