SolidWorks IGES file using analytic representation for surfaces         S      1
1H,,1H;,26HHallSensor_Bone_Top_Branch,121HF:\BACK UP WORK DIR\STUDY\RESEG      1
ARCH\Daisuke's MT CAD design\hall sensor assemble (5-1-2014)\HallSensor_G      2
Bone_Top_Branch.IGS,15HSolidWorks 2013,15HSolidWorks 2013,32,308,15,    G      3
308,15,26HHallSensor_Bone_Top_Branch,1.,2,2HMM,50,0.125,13H140714.100537G      4
,1E-008,499990.,9Hlong9_000,,11,0,13H140714.100537;                     G      5
     314       1       0       0       0                        00000200D      1
     314       0       5       1       0                               0D      2
     110       2       0       0       0                        01010000D      3
     110       0       0       1       0                               0D      4
     110       3       0       0       0                        01010000D      5
     110       0       0       1       0                               0D      6
     120       4       0       0       0                        01010000D      7
     120       0       0       1       0                               0D      8
     126       5       0       0       0                        01010500D      9
     126       0       0       2       0                               0D     10
     110       7       0       0       0                        01010000D     11
     110       0       0       1       0                               0D     12
     126       8       0       0       0                        01010500D     13
     126       0       0       2       0                               0D     14
     124      10       0       0       0                        00000000D     15
     124       0       0       3       0                               0D     16
     100      13       0       0       0              15        01010000D     17
     100       0       0       1       0                               0D     18
     126      14       0       0       0                        01010500D     19
     126       0       0       2       0                               0D     20
     110      16       0       0       0                        01010000D     21
     110       0       0       1       0                               0D     22
     126      17       0       0       0                        01010500D     23
     126       0       0       2       0                               0D     24
     124      19       0       0       0                        00000000D     25
     124       0       0       3       0                               0D     26
     100      22       0       0       0              25        01010000D     27
     100       0       0       1       0                               0D     28
     102      23       0       0       0                        01010500D     29
     102       0       0       1       0                               0D     30
     102      24       0       0       0                        01010000D     31
     102       0       0       1       0                               0D     32
     142      25       0       0       0                        00010500D     33
     142       0       0       1       0                               0D     34
     144      26       0       0       0                        00000000D     35
     144       0      -1       1       0                               0D     36
     110      27       0       0       0                        01010000D     37
     110       0       0       1       0                               0D     38
     110      28       0       0       0                        01010000D     39
     110       0       0       1       0                               0D     40
     120      29       0       0       0                        01010000D     41
     120       0       0       1       0                               0D     42
     126      30       0       0       0                        01010500D     43
     126       0       0       2       0                               0D     44
     110      32       0       0       0                        01010000D     45
     110       0       0       1       0                               0D     46
     126      33       0       0       0                        01010500D     47
     126       0       0       2       0                               0D     48
     124      35       0       0       0                        00000000D     49
     124       0       0       3       0                               0D     50
     100      38       0       0       0              49        01010000D     51
     100       0       0       1       0                               0D     52
     126      39       0       0       0                        01010500D     53
     126       0       0       2       0                               0D     54
     110      41       0       0       0                        01010000D     55
     110       0       0       1       0                               0D     56
     126      42       0       0       0                        01010500D     57
     126       0       0       2       0                               0D     58
     124      44       0       0       0                        00000000D     59
     124       0       0       3       0                               0D     60
     100      47       0       0       0              59        01010000D     61
     100       0       0       1       0                               0D     62
     102      48       0       0       0                        01010500D     63
     102       0       0       1       0                               0D     64
     102      49       0       0       0                        01010000D     65
     102       0       0       1       0                               0D     66
     142      50       0       0       0                        00010500D     67
     142       0       0       1       0                               0D     68
     144      51       0       0       0                        00000000D     69
     144       0      -1       1       0                               0D     70
     128      52       0       0       0                        01010000D     71
     128       0       0       2       0                               0D     72
     126      54       0       0       0                        01010500D     73
     126       0       0       2       0                               0D     74
     110      56       0       0       0                        01010000D     75
     110       0       0       1       0                               0D     76
     126      57       0       0       0                        01010500D     77
     126       0       0       2       0                               0D     78
     110      59       0       0       0                        01010000D     79
     110       0       0       1       0                               0D     80
     126      60       0       0       0                        01010500D     81
     126       0       0       2       0                               0D     82
     110      62       0       0       0                        01010000D     83
     110       0       0       1       0                               0D     84
     126      63       0       0       0                        01010500D     85
     126       0       0       2       0                               0D     86
     110      65       0       0       0                        01010000D     87
     110       0       0       1       0                               0D     88
     102      66       0       0       0                        01010500D     89
     102       0       0       1       0                               0D     90
     102      67       0       0       0                        01010000D     91
     102       0       0       1       0                               0D     92
     142      68       0       0       0                        00010500D     93
     142       0       0       1       0                               0D     94
     144      69       0       0       0                        00000000D     95
     144       0      -1       1       0                               0D     96
     128      70       0       0       0                        01010000D     97
     128       0       0       2       0                               0D     98
     126      72       0       0       0                        01010500D     99
     126       0       0       2       0                               0D    100
     110      74       0       0       0                        01010000D    101
     110       0       0       1       0                               0D    102
     126      75       0       0       0                        01010500D    103
     126       0       0       2       0                               0D    104
     110      77       0       0       0                        01010000D    105
     110       0       0       1       0                               0D    106
     126      78       0       0       0                        01010500D    107
     126       0       0       2       0                               0D    108
     110      80       0       0       0                        01010000D    109
     110       0       0       1       0                               0D    110
     126      81       0       0       0                        01010500D    111
     126       0       0       2       0                               0D    112
     110      83       0       0       0                        01010000D    113
     110       0       0       1       0                               0D    114
     102      84       0       0       0                        01010500D    115
     102       0       0       1       0                               0D    116
     102      85       0       0       0                        01010000D    117
     102       0       0       1       0                               0D    118
     142      86       0       0       0                        00010500D    119
     142       0       0       1       0                               0D    120
     144      87       0       0       0                        00000000D    121
     144       0      -1       1       0                               0D    122
     128      88       0       0       0                        01010000D    123
     128       0       0       2       0                               0D    124
     126      90       0       0       0                        01010500D    125
     126       0       0       2       0                               0D    126
     110      92       0       0       0                        01010000D    127
     110       0       0       1       0                               0D    128
     126      93       0       0       0                        01010500D    129
     126       0       0       2       0                               0D    130
     110      95       0       0       0                        01010000D    131
     110       0       0       1       0                               0D    132
     126      96       0       0       0                        01010500D    133
     126       0       0       2       0                               0D    134
     110      98       0       0       0                        01010000D    135
     110       0       0       1       0                               0D    136
     126      99       0       0       0                        01010500D    137
     126       0       0       2       0                               0D    138
     110     101       0       0       0                        01010000D    139
     110       0       0       1       0                               0D    140
     102     102       0       0       0                        01010500D    141
     102       0       0       1       0                               0D    142
     102     103       0       0       0                        01010000D    143
     102       0       0       1       0                               0D    144
     142     104       0       0       0                        00010500D    145
     142       0       0       1       0                               0D    146
     144     105       0       0       0                        00000000D    147
     144       0      -1       1       0                               0D    148
     128     106       0       0       0                        01010000D    149
     128       0       0       2       0                               0D    150
     126     108       0       0       0                        01010500D    151
     126       0       0       2       0                               0D    152
     110     110       0       0       0                        01010000D    153
     110       0       0       1       0                               0D    154
     126     111       0       0       0                        01010500D    155
     126       0       0       2       0                               0D    156
     110     113       0       0       0                        01010000D    157
     110       0       0       1       0                               0D    158
     126     114       0       0       0                        01010500D    159
     126       0       0       2       0                               0D    160
     110     116       0       0       0                        01010000D    161
     110       0       0       1       0                               0D    162
     126     117       0       0       0                        01010500D    163
     126       0       0       2       0                               0D    164
     110     119       0       0       0                        01010000D    165
     110       0       0       1       0                               0D    166
     102     120       0       0       0                        01010500D    167
     102       0       0       1       0                               0D    168
     102     121       0       0       0                        01010000D    169
     102       0       0       1       0                               0D    170
     142     122       0       0       0                        00010500D    171
     142       0       0       1       0                               0D    172
     144     123       0       0       0                        00000000D    173
     144       0      -1       1       0                               0D    174
     128     124       0       0       0                        01010000D    175
     128       0       0       2       0                               0D    176
     126     126       0       0       0                        01010500D    177
     126       0       0       2       0                               0D    178
     110     128       0       0       0                        01010000D    179
     110       0       0       1       0                               0D    180
     126     129       0       0       0                        01010500D    181
     126       0       0       2       0                               0D    182
     110     131       0       0       0                        01010000D    183
     110       0       0       1       0                               0D    184
     126     132       0       0       0                        01010500D    185
     126       0       0       2       0                               0D    186
     110     134       0       0       0                        01010000D    187
     110       0       0       1       0                               0D    188
     126     135       0       0       0                        01010500D    189
     126       0       0       2       0                               0D    190
     110     137       0       0       0                        01010000D    191
     110       0       0       1       0                               0D    192
     102     138       0       0       0                        01010500D    193
     102       0       0       1       0                               0D    194
     102     139       0       0       0                        01010000D    195
     102       0       0       1       0                               0D    196
     142     140       0       0       0                        00010500D    197
     142       0       0       1       0                               0D    198
     126     141       0       0       0                        01010500D    199
     126       0       0      11       0                               0D    200
     124     152       0       0       0                        00000000D    201
     124       0       0       3       0                               0D    202
     100     155       0       0       0             201        01010000D    203
     100       0       0       1       0                               0D    204
     126     156       0       0       0                        01010500D    205
     126       0       0      11       0                               0D    206
     124     167       0       0       0                        00000000D    207
     124       0       0       3       0                               0D    208
     100     170       0       0       0             207        01010000D    209
     100       0       0       1       0                               0D    210
     102     171       0       0       0                        01010500D    211
     102       0       0       1       0                               0D    212
     102     172       0       0       0                        01010000D    213
     102       0       0       1       0                               0D    214
     142     173       0       0       0                        00010500D    215
     142       0       0       1       0                               0D    216
     126     174       0       0       0                        01010500D    217
     126       0       0      11       0                               0D    218
     124     185       0       0       0                        00000000D    219
     124       0       0       3       0                               0D    220
     100     188       0       0       0             219        01010000D    221
     100       0       0       1       0                               0D    222
     126     189       0       0       0                        01010500D    223
     126       0       0      11       0                               0D    224
     124     200       0       0       0                        00000000D    225
     124       0       0       3       0                               0D    226
     100     203       0       0       0             225        01010000D    227
     100       0       0       1       0                               0D    228
     102     204       0       0       0                        01010500D    229
     102       0       0       1       0                               0D    230
     102     205       0       0       0                        01010000D    231
     102       0       0       1       0                               0D    232
     142     206       0       0       0                        00010500D    233
     142       0       0       1       0                               0D    234
     144     207       0       0       0                        00000000D    235
     144       0      -1       1       0                               0D    236
     128     208       0       0       0                        01010000D    237
     128       0       0       2       0                               0D    238
     126     210       0       0       0                        01010500D    239
     126       0       0       2       0                               0D    240
     110     212       0       0       0                        01010000D    241
     110       0       0       1       0                               0D    242
     126     213       0       0       0                        01010500D    243
     126       0       0       2       0                               0D    244
     110     215       0       0       0                        01010000D    245
     110       0       0       1       0                               0D    246
     126     216       0       0       0                        01010500D    247
     126       0       0       2       0                               0D    248
     110     218       0       0       0                        01010000D    249
     110       0       0       1       0                               0D    250
     126     219       0       0       0                        01010500D    251
     126       0       0       2       0                               0D    252
     110     221       0       0       0                        01010000D    253
     110       0       0       1       0                               0D    254
     102     222       0       0       0                        01010500D    255
     102       0       0       1       0                               0D    256
     102     223       0       0       0                        01010000D    257
     102       0       0       1       0                               0D    258
     142     224       0       0       0                        00010500D    259
     142       0       0       1       0                               0D    260
     126     225       0       0       0                        01010500D    261
     126       0       0      11       0                               0D    262
     124     236       0       0       0                        00000000D    263
     124       0       0       3       0                               0D    264
     100     239       0       0       0             263        01010000D    265
     100       0       0       1       0                               0D    266
     126     240       0       0       0                        01010500D    267
     126       0       0      11       0                               0D    268
     124     251       0       0       0                        00000000D    269
     124       0       0       3       0                               0D    270
     100     254       0       0       0             269        01010000D    271
     100       0       0       1       0                               0D    272
     102     255       0       0       0                        01010500D    273
     102       0       0       1       0                               0D    274
     102     256       0       0       0                        01010000D    275
     102       0       0       1       0                               0D    276
     142     257       0       0       0                        00010500D    277
     142       0       0       1       0                               0D    278
     126     258       0       0       0                        01010500D    279
     126       0       0      11       0                               0D    280
     124     269       0       0       0                        00000000D    281
     124       0       0       3       0                               0D    282
     100     272       0       0       0             281        01010000D    283
     100       0       0       1       0                               0D    284
     126     273       0       0       0                        01010500D    285
     126       0       0      11       0                               0D    286
     124     284       0       0       0                        00000000D    287
     124       0       0       3       0                               0D    288
     100     287       0       0       0             287        01010000D    289
     100       0       0       1       0                               0D    290
     102     288       0       0       0                        01010500D    291
     102       0       0       1       0                               0D    292
     102     289       0       0       0                        01010000D    293
     102       0       0       1       0                               0D    294
     142     290       0       0       0                        00010500D    295
     142       0       0       1       0                               0D    296
     144     291       0       0       0                        00000000D    297
     144       0      -1       1       0                               0D    298
     110     292       0       0       0                        01010000D    299
     110       0       0       1       0                               0D    300
     110     293       0       0       0                        01010000D    301
     110       0       0       1       0                               0D    302
     120     294       0       0       0                        01010000D    303
     120       0       0       1       0                               0D    304
     126     295       0       0       0                        01010500D    305
     126       0       0       2       0                               0D    306
     124     297       0       0       0                        00000000D    307
     124       0       0       4       0                               0D    308
     100     301       0       0       0             307        01010000D    309
     100       0       0       1       0                               0D    310
     126     302       0       0       0                        01010500D    311
     126       0       0       2       0                               0D    312
     110     304       0       0       0                        01010000D    313
     110       0       0       1       0                               0D    314
     126     305       0       0       0                        01010500D    315
     126       0       0       2       0                               0D    316
     124     307       0       0       0                        00000000D    317
     124       0       0       3       0                               0D    318
     100     310       0       0       0             317        01010000D    319
     100       0       0       1       0                               0D    320
     126     311       0       0       0                        01010500D    321
     126       0       0       2       0                               0D    322
     110     313       0       0       0                        01010000D    323
     110       0       0       1       0                               0D    324
     102     314       0       0       0                        01010500D    325
     102       0       0       1       0                               0D    326
     102     315       0       0       0                        01010000D    327
     102       0       0       1       0                               0D    328
     142     316       0       0       0                        00010500D    329
     142       0       0       1       0                               0D    330
     144     317       0       0       0                        00000000D    331
     144       0      -1       1       0                               0D    332
     110     318       0       0       0                        01010000D    333
     110       0       0       1       0                               0D    334
     110     319       0       0       0                        01010000D    335
     110       0       0       1       0                               0D    336
     120     320       0       0       0                        01010000D    337
     120       0       0       1       0                               0D    338
     126     321       0       0       0                        01010500D    339
     126       0       0       2       0                               0D    340
     124     323       0       0       0                        00000000D    341
     124       0       0       4       0                               0D    342
     100     327       0       0       0             341        01010000D    343
     100       0       0       1       0                               0D    344
     126     328       0       0       0                        01010500D    345
     126       0       0       2       0                               0D    346
     110     330       0       0       0                        01010000D    347
     110       0       0       1       0                               0D    348
     126     331       0       0       0                        01010500D    349
     126       0       0       2       0                               0D    350
     124     333       0       0       0                        00000000D    351
     124       0       0       3       0                               0D    352
     100     336       0       0       0             351        01010000D    353
     100       0       0       1       0                               0D    354
     126     337       0       0       0                        01010500D    355
     126       0       0       2       0                               0D    356
     110     339       0       0       0                        01010000D    357
     110       0       0       1       0                               0D    358
     102     340       0       0       0                        01010500D    359
     102       0       0       1       0                               0D    360
     102     341       0       0       0                        01010000D    361
     102       0       0       1       0                               0D    362
     142     342       0       0       0                        00010500D    363
     142       0       0       1       0                               0D    364
     144     343       0       0       0                        00000000D    365
     144       0      -1       1       0                               0D    366
314,100.,100.,0.,;                                                     1P      1
110,1.2,1.5,-1.5,1.2,1001.5,-1.5;                                      3P      2
110,1.2,0.,-0.699999949,1.2,1.5,-0.699999949;                          5P      3
120,3,5,0.,6.28318530717959;                                           7P      4
126,1,1,1,0,1,0,0.,0.,1.,1.,1.,1.,0.,6.283185307,0.,1.,                9P      5
6.283185307,0.,0.,1.,0.,0.,1.;                                         9P      6
110,1.2,0.,-0.699999949,1.2,1.5,-0.699999949;                         11P      7
126,1,1,1,0,1,0,0.,0.,1.,1.,1.,1.,1.,6.283185307,0.,1.,               13P      8
3.141592654,0.,0.,1.,0.,0.,1.;                                        13P      9
124,6.12323399573677E-017,-1.,0.,2.7,6.12323399573677E-017,           15P     10
3.74939945665464E-033,-1.,1.78623659258902E-015,1.,                   15P     11
6.12323399573677E-017,6.12323399573677E-017,-2.7;                     15P     12
100,-1.5,1.2,1.5,2.000000051,1.5,0.399999949,1.5;                     17P     13
126,1,1,1,0,1,0,0.,0.,1.,1.,1.,1.,1.,3.141592654,0.,0.,               19P     14
3.141592654,0.,0.,1.,0.,0.,1.;                                        19P     15
110,1.2,1.5,-2.300000051,1.2,0.,-2.300000051;                         21P     16
126,1,1,1,0,1,0,0.,0.,1.,1.,1.,1.,0.,3.141592654,0.,0.,               23P     17
6.283185307,0.,0.,1.,0.,0.,1.;                                        23P     18
124,6.12323399573677E-017,-1.,0.,1.2,6.12323399573677E-017,           25P     19
3.74939945665464E-033,1.,1.5,-1.,-6.12323399573677E-017,              25P     20
6.12323399573677E-017,-0.3;                                           25P     21
100,-1.5,1.2,0.,2.000000051,0.,0.399999949,0.;                        27P     22
102,4,9,13,19,23;                                                     29P     23
102,4,11,17,21,27;                                                    31P     24
142,1,7,29,31,1;                                                      33P     25
144,7,1,0,33;                                                         35P     26
110,4.,1.5,-1.5,4.,1001.5,-1.5;                                       37P     27
110,4.,0.,-0.699999949,4.,1.5,-0.699999949;                           39P     28
120,37,39,0.,6.28318530717959;                                        41P     29
126,1,1,1,0,1,0,0.,0.,1.,1.,1.,1.,0.,6.283185307,0.,1.,               43P     30
6.283185307,0.,0.,1.,0.,0.,1.;                                        43P     31
110,4.,0.,-0.699999949,4.,1.5,-0.699999949;                           45P     32
126,1,1,1,0,1,0,0.,0.,1.,1.,1.,1.,1.,6.283185307,0.,1.,               47P     33
3.141592654,0.,0.,1.,0.,0.,1.;                                        47P     34
124,6.12323399573677E-017,-1.,0.,5.5,6.12323399573677E-017,           49P     35
3.74939945665464E-033,-1.,1.61478604070839E-015,1.,                   49P     36
6.12323399573677E-017,6.12323399573677E-017,-5.5;                     49P     37
100,-1.5,4.,1.5,4.800000051,1.5,3.199999949,1.5;                      51P     38
126,1,1,1,0,1,0,0.,0.,1.,1.,1.,1.,1.,3.141592654,0.,0.,               53P     39
3.141592654,0.,0.,1.,0.,0.,1.;                                        53P     40
110,4.,1.5,-2.300000051,4.,0.,-2.300000051;                           55P     41
126,1,1,1,0,1,0,0.,0.,1.,1.,1.,1.,0.,3.141592654,0.,0.,               57P     42
6.283185307,0.,0.,1.,0.,0.,1.;                                        57P     43
124,6.12323399573677E-017,-1.,0.,4.,6.12323399573677E-017,            59P     44
3.74939945665464E-033,1.,1.5,-1.,-6.12323399573677E-017,              59P     45
6.12323399573677E-017,2.5;                                            59P     46
100,-1.5,4.,0.,4.800000051,0.,3.199999949,0.;                         61P     47
102,4,43,47,53,57;                                                    63P     48
102,4,45,51,55,61;                                                    65P     49
142,1,41,63,65,1;                                                     67P     50
144,41,1,0,67;                                                        69P     51
128,1,1,1,1,0,0,1,0,0,0.,0.,1.,1.,0.,0.,1.,1.,1.,1.,1.,1.,0.,         71P     52
0.,0.,0.,0.,-3.,0.,1.5,0.,0.,1.5,-3.,0.,1.,0.,1.;                     71P     53
126,1,1,1,0,1,0,0.,0.,1.,1.,1.,1.,1.,0.,0.,1.,1.,0.,0.,1.,0.,         73P     54
0.,1.;                                                                73P     55
110,0.,0.,-3.,0.,1.5,-3.;                                             75P     56
126,1,1,1,0,1,0,0.,0.,1.,1.,1.,1.,1.,1.,0.,0.,1.,0.,0.,1.,0.,         77P     57
0.,1.;                                                                77P     58
110,0.,1.5,-3.,0.,1.5,0.;                                             79P     59
126,1,1,1,0,1,0,0.,0.,1.,1.,1.,1.,0.,1.,0.,0.,0.,0.,0.,1.,0.,         81P     60
0.,1.;                                                                81P     61
110,0.,1.5,0.,0.,0.,0.;                                               83P     62
126,1,1,1,0,1,0,0.,0.,1.,1.,1.,1.,0.,0.,0.,1.,0.,0.,0.,1.,0.,         85P     63
0.,1.;                                                                85P     64
110,0.,0.,0.,0.,0.,-3.;                                               87P     65
102,4,73,77,81,85;                                                    89P     66
102,4,75,79,83,87;                                                    91P     67
142,1,71,89,91,1;                                                     93P     68
144,71,1,0,93;                                                        95P     69
128,1,1,1,1,0,0,1,0,0,0.,0.,1.,1.,0.,0.,1.,1.,1.,1.,1.,1.,18.5,       97P     70
0.,0.,0.,0.,0.,18.5,1.5,0.,0.,1.5,0.,0.,1.,0.,1.;                     97P     71
126,1,1,1,0,1,0,0.,0.,1.,1.,1.,1.,1.,0.,0.,1.,1.,0.,0.,1.,0.,         99P     72
0.,1.;                                                                99P     73
110,0.,0.,0.,0.,1.5,0.;                                              101P     74
126,1,1,1,0,1,0,0.,0.,1.,1.,1.,1.,1.,1.,0.,0.,1.,0.,0.,1.,0.,        103P     75
0.,1.;                                                               103P     76
110,0.,1.5,0.,18.5,1.5,0.;                                           105P     77
126,1,1,1,0,1,0,0.,0.,1.,1.,1.,1.,0.,1.,0.,0.,0.,0.,0.,1.,0.,        107P     78
0.,1.;                                                               107P     79
110,18.5,1.5,0.,18.5,0.,0.;                                          109P     80
126,1,1,1,0,1,0,0.,0.,1.,1.,1.,1.,0.,0.,0.,1.,0.,0.,0.,1.,0.,        111P     81
0.,1.;                                                               111P     82
110,18.5,0.,0.,0.,0.,0.;                                             113P     83
102,4,99,103,107,111;                                                115P     84
102,4,101,105,109,113;                                               117P     85
142,1,97,115,117,1;                                                  119P     86
144,97,1,0,119;                                                      121P     87
128,1,1,1,1,0,0,1,0,0,0.,0.,1.,1.,0.,0.,1.,1.,1.,1.,1.,1.,18.5,      123P     88
0.,-3.,18.5,0.,0.,18.5,1.5,-3.,18.5,1.5,0.,0.,1.,0.,1.;              123P     89
126,1,1,1,0,1,0,0.,0.,1.,1.,1.,1.,1.,0.,0.,1.,1.,0.,0.,1.,0.,        125P     90
0.,1.;                                                               125P     91
110,18.5,0.,0.,18.5,1.5,0.;                                          127P     92
126,1,1,1,0,1,0,0.,0.,1.,1.,1.,1.,1.,1.,0.,0.,1.,0.,0.,1.,0.,        129P     93
0.,1.;                                                               129P     94
110,18.5,1.5,0.,18.5,1.5,-3.;                                        131P     95
126,1,1,1,0,1,0,0.,0.,1.,1.,1.,1.,0.,1.,0.,0.,0.,0.,0.,1.,0.,        133P     96
0.,1.;                                                               133P     97
110,18.5,1.5,-3.,18.5,0.,-3.;                                        135P     98
126,1,1,1,0,1,0,0.,0.,1.,1.,1.,1.,0.,0.,0.,1.,0.,0.,0.,1.,0.,        137P     99
0.,1.;                                                               137P    100
110,18.5,0.,-3.,18.5,0.,0.;                                          139P    101
102,4,125,129,133,137;                                               141P    102
102,4,127,131,135,139;                                               143P    103
142,1,123,141,143,1;                                                 145P    104
144,123,1,0,145;                                                     147P    105
128,1,1,1,1,0,0,1,0,0,0.,0.,1.,1.,0.,0.,1.,1.,1.,1.,1.,1.,0.,        149P    106
0.,-3.,18.5,0.,-3.,0.,1.5,-3.,18.5,1.5,-3.,0.,1.,0.,1.;              149P    107
126,1,1,1,0,1,0,0.,0.,1.,1.,1.,1.,1.,0.,0.,1.,1.,0.,0.,1.,0.,        151P    108
0.,1.;                                                               151P    109
110,18.5,0.,-3.,18.5,1.5,-3.;                                        153P    110
126,1,1,1,0,1,0,0.,0.,1.,1.,1.,1.,1.,1.,0.,0.,1.,0.,0.,1.,0.,        155P    111
0.,1.;                                                               155P    112
110,18.5,1.5,-3.,0.,1.5,-3.;                                         157P    113
126,1,1,1,0,1,0,0.,0.,1.,1.,1.,1.,0.,1.,0.,0.,0.,0.,0.,1.,0.,        159P    114
0.,1.;                                                               159P    115
110,0.,1.5,-3.,0.,0.,-3.;                                            161P    116
126,1,1,1,0,1,0,0.,0.,1.,1.,1.,1.,0.,0.,0.,1.,0.,0.,0.,1.,0.,        163P    117
0.,1.;                                                               163P    118
110,0.,0.,-3.,18.5,0.,-3.;                                           165P    119
102,4,151,155,159,163;                                               167P    120
102,4,153,157,161,165;                                               169P    121
142,1,149,167,169,1;                                                 171P    122
144,149,1,0,171;                                                     173P    123
128,1,1,1,1,0,0,1,0,0,0.,0.,1.,1.,0.,0.,1.,1.,1.,1.,1.,1.,0.,        175P    124
1.5,0.,0.,1.5,-3.,18.5,1.5,0.,18.5,1.5,-3.,0.,1.,0.,1.;              175P    125
126,1,1,1,0,1,0,0.,0.,1.,1.,1.,1.,1.,0.,0.,1.,1.,0.,0.,1.,0.,        177P    126
0.,1.;                                                               177P    127
110,0.,1.5,-3.,18.5,1.5,-3.;                                         179P    128
126,1,1,1,0,1,0,0.,0.,1.,1.,1.,1.,1.,1.,0.,0.,1.,0.,0.,1.,0.,        181P    129
0.,1.;                                                               181P    130
110,18.5,1.5,-3.,18.5,1.5,0.;                                        183P    131
126,1,1,1,0,1,0,0.,0.,1.,1.,1.,1.,0.,1.,0.,0.,0.,0.,0.,1.,0.,        185P    132
0.,1.;                                                               185P    133
110,18.5,1.5,0.,0.,1.5,0.;                                           187P    134
126,1,1,1,0,1,0,0.,0.,1.,1.,1.,1.,0.,0.,0.,1.,0.,0.,0.,1.,0.,        189P    135
0.,1.;                                                               189P    136
110,0.,1.5,0.,0.,1.5,-3.;                                            191P    137
102,4,177,181,185,189;                                               193P    138
102,4,179,183,187,191;                                               195P    139
142,1,175,193,195,1;                                                 197P    140
126,16,2,1,0,1,0,0.,0.,0.,0.125,0.125,0.25,0.25,0.375,0.375,         199P    141
0.5,0.5,0.625,0.625,0.75,0.75,0.875,0.875,1.,1.,1.,1.,1.,1.,1.,      199P    142
1.,1.,1.,1.,1.,1.,1.,1.,1.,1.,1.,1.,1.,0.766666684,0.064864865,      199P    143
0.,0.766666684,0.056263248,0.,0.746367891,0.048316391,0.,            199P    144
0.726069098,0.040369534,0.,0.68856182,0.034287272,0.,                199P    145
0.651054542,0.028205011,0.,0.602048922,0.024913315,0.,               199P    146
0.553043301,0.021621619,0.,0.5,0.021621619,0.,0.446956699,           199P    147
0.021621619,0.,0.397951078,0.024913315,0.,0.348945458,               199P    148
0.028205011,0.,0.31143818,0.034287272,0.,0.273930902,                199P    149
0.040369534,0.,0.253632109,0.048316391,0.,0.233333316,               199P    150
0.056263248,0.,0.233333316,0.064864865,0.,0.,1.,0.,0.,1.;            199P    151
124,6.12323399573677E-017,-1.,0.,2.7,6.12323399573677E-017,          201P    152
3.74939945665464E-033,1.,3.,-1.,-6.12323399573677E-017,              201P    153
6.12323399573677E-017,-0.3;                                          201P    154
100,-1.5,1.2,1.5,2.000000051,1.5,0.399999949,1.5;                    203P    155
126,16,2,1,0,1,0,0.,0.,0.,0.125,0.125,0.25,0.25,0.375,0.375,         205P    156
0.5,0.5,0.625,0.625,0.75,0.75,0.875,0.875,1.,1.,1.,1.,1.,1.,1.,      205P    157
1.,1.,1.,1.,1.,1.,1.,1.,1.,1.,1.,1.,1.,0.233333316,0.064864865,      205P    158
0.,0.233333316,0.073466481,0.,0.253632109,0.081413339,0.,            205P    159
0.273930902,0.089360196,0.,0.31143818,0.095442457,0.,                205P    160
0.348945458,0.101524719,0.,0.397951078,0.104816415,0.,               205P    161
0.446956699,0.108108111,0.,0.5,0.108108111,0.,0.553043301,           205P    162
0.108108111,0.,0.602048922,0.104816415,0.,0.651054542,               205P    163
0.101524719,0.,0.68856182,0.095442457,0.,0.726069098,                205P    164
0.089360196,0.,0.746367891,0.081413339,0.,0.766666684,               205P    165
0.073466481,0.,0.766666684,0.064864865,0.,0.,1.,0.,0.,1.;            205P    166
124,1.40271576953299E-014,1.,0.,-0.300000000000019,                  207P    167
-6.12323399573677E-017,8.58915688636046E-031,1.,3.,1.,               207P    168
-1.40271576953299E-014,6.12323399573677E-017,-2.69999999999998;      207P    169
100,-1.5,1.2,1.5,2.000000051,1.5,0.399999949,1.5;                    209P    170
102,2,199,205;                                                       211P    171
102,2,203,209;                                                       213P    172
142,1,175,211,213,1;                                                 215P    173
126,16,2,1,0,1,0,0.,0.,0.,0.125,0.125,0.25,0.25,0.375,0.375,         217P    174
0.5,0.5,0.625,0.625,0.75,0.75,0.875,0.875,1.,1.,1.,1.,1.,1.,1.,      217P    175
1.,1.,1.,1.,1.,1.,1.,1.,1.,1.,1.,1.,1.,0.766666684,0.216216216,      217P    176
0.,0.766666684,0.2076146,0.,0.746367891,0.199667742,0.,              217P    177
0.726069098,0.191720885,0.,0.68856182,0.185638624,0.,                217P    178
0.651054542,0.179556362,0.,0.602048922,0.176264666,0.,               217P    179
0.553043301,0.17297297,0.,0.5,0.17297297,0.,0.446956699,             217P    180
0.17297297,0.,0.397951078,0.176264666,0.,0.348945458,                217P    181
0.179556362,0.,0.31143818,0.185638624,0.,0.273930902,                217P    182
0.191720885,0.,0.253632109,0.199667742,0.,0.233333316,               217P    183
0.2076146,0.,0.233333316,0.216216216,0.,0.,1.,0.,0.,1.;              217P    184
124,6.12323399573677E-017,-1.,0.,5.5,6.12323399573677E-017,          219P    185
3.74939945665464E-033,1.,3.,-1.,-6.12323399573677E-017,              219P    186
6.12323399573677E-017,2.5;                                           219P    187
100,-1.5,4.,1.5,4.800000051,1.5,3.199999949,1.5;                     221P    188
126,16,2,1,0,1,0,0.,0.,0.,0.125,0.125,0.25,0.25,0.375,0.375,         223P    189
0.5,0.5,0.625,0.625,0.75,0.75,0.875,0.875,1.,1.,1.,1.,1.,1.,1.,      223P    190
1.,1.,1.,1.,1.,1.,1.,1.,1.,1.,1.,1.,1.,0.233333316,0.216216216,      223P    191
0.,0.233333316,0.224817833,0.,0.253632109,0.23276469,0.,             223P    192
0.273930902,0.240711547,0.,0.31143818,0.246793809,0.,                223P    193
0.348945458,0.25287607,0.,0.397951078,0.256167766,0.,                223P    194
0.446956699,0.259459462,0.,0.5,0.259459462,0.,0.553043301,           223P    195
0.259459462,0.,0.602048922,0.256167766,0.,0.651054542,               223P    196
0.25287607,0.,0.68856182,0.246793809,0.,0.726069098,                 223P    197
0.240711547,0.,0.746367891,0.23276469,0.,0.766666684,                223P    198
0.224817833,0.,0.766666684,0.216216216,0.,0.,1.,0.,0.,1.;            223P    199
124,1.40271576953299E-014,1.,0.,2.49999999999994,                    225P    200
-6.12323399573677E-017,8.58915688636046E-031,1.,3.,1.,               225P    201
-1.40271576953299E-014,6.12323399573677E-017,-5.49999999999998;      225P    202
100,-1.5,4.,1.5,4.800000051,1.5,3.199999949,1.5;                     227P    203
102,2,217,223;                                                       229P    204
102,2,221,227;                                                       231P    205
142,1,175,229,231,1;                                                 233P    206
144,175,1,2,197,215,233;                                             235P    207
128,1,1,1,1,0,0,1,0,0,0.,0.,1.,1.,0.,0.,1.,1.,1.,1.,1.,1.,0.,        237P    208
0.,0.,0.,0.,-3.,18.5,0.,0.,18.5,0.,-3.,0.,1.,0.,1.;                  237P    209
126,1,1,1,0,1,0,0.,0.,1.,1.,1.,1.,0.,0.,0.,1.,0.,0.,0.,1.,0.,        239P    210
0.,1.;                                                               239P    211
110,0.,0.,0.,0.,0.,-3.;                                              241P    212
126,1,1,1,0,1,0,0.,0.,1.,1.,1.,1.,1.,0.,0.,1.,1.,0.,0.,1.,0.,        243P    213
0.,1.;                                                               243P    214
110,0.,0.,-3.,18.5,0.,-3.;                                           245P    215
126,1,1,1,0,1,0,0.,0.,1.,1.,1.,1.,1.,1.,0.,0.,1.,0.,0.,1.,0.,        247P    216
0.,1.;                                                               247P    217
110,18.5,0.,-3.,18.5,0.,0.;                                          249P    218
126,1,1,1,0,1,0,0.,0.,1.,1.,1.,1.,0.,1.,0.,0.,0.,0.,0.,1.,0.,        251P    219
0.,1.;                                                               251P    220
110,18.5,0.,0.,0.,0.,0.;                                             253P    221
102,4,239,243,247,251;                                               255P    222
102,4,241,245,249,253;                                               257P    223
142,1,237,255,257,1;                                                 259P    224
126,16,2,1,0,1,0,0.,0.,0.,0.125,0.125,0.25,0.25,0.375,0.375,         261P    225
0.5,0.5,0.625,0.625,0.75,0.75,0.875,0.875,1.,1.,1.,1.,1.,1.,1.,      261P    226
1.,1.,1.,1.,1.,1.,1.,1.,1.,1.,1.,1.,1.,0.233333316,0.064864865,      261P    227
0.,0.233333316,0.073466481,0.,0.253632109,0.081413339,0.,            261P    228
0.273930902,0.089360196,0.,0.31143818,0.095442457,0.,                261P    229
0.348945458,0.101524719,0.,0.397951078,0.104816415,0.,               261P    230
0.446956699,0.108108111,0.,0.5,0.108108111,0.,0.553043301,           261P    231
0.108108111,0.,0.602048922,0.104816415,0.,0.651054542,               261P    232
0.101524719,0.,0.68856182,0.095442457,0.,0.726069098,                261P    233
0.089360196,0.,0.746367891,0.081413339,0.,0.766666684,               261P    234
0.073466481,0.,0.766666684,0.064864865,0.,0.,1.,0.,0.,1.;            261P    235
124,1.40271576953299E-014,1.,0.,1.19999999999998,                    263P    236
-6.12323399573677E-017,8.58915688636046E-031,1.,1.5,1.,              263P    237
-1.40271576953299E-014,6.12323399573677E-017,-2.7;                   263P    238
100,-1.5,1.2,0.,2.000000051,0.,0.399999949,0.;                       265P    239
126,16,2,1,0,1,0,0.,0.,0.,0.125,0.125,0.25,0.25,0.375,0.375,         267P    240
0.5,0.5,0.625,0.625,0.75,0.75,0.875,0.875,1.,1.,1.,1.,1.,1.,1.,      267P    241
1.,1.,1.,1.,1.,1.,1.,1.,1.,1.,1.,1.,1.,0.766666684,0.064864865,      267P    242
0.,0.766666684,0.056263248,0.,0.746367891,0.048316391,0.,            267P    243
0.726069098,0.040369534,0.,0.68856182,0.034287272,0.,                267P    244
0.651054542,0.028205011,0.,0.602048922,0.024913315,0.,               267P    245
0.553043301,0.021621619,0.,0.5,0.021621619,0.,0.446956699,           267P    246
0.021621619,0.,0.397951078,0.024913315,0.,0.348945458,               267P    247
0.028205011,0.,0.31143818,0.034287272,0.,0.273930902,                267P    248
0.040369534,0.,0.253632109,0.048316391,0.,0.233333316,               267P    249
0.056263248,0.,0.233333316,0.064864865,0.,0.,1.,0.,0.,1.;            267P    250
124,6.12323399573677E-017,-1.,0.,1.2,6.12323399573677E-017,          269P    251
3.74939945665464E-033,1.,1.5,-1.,-6.12323399573677E-017,             269P    252
6.12323399573677E-017,-0.3;                                          269P    253
100,-1.5,1.2,0.,2.000000051,0.,0.399999949,0.;                       271P    254
102,2,261,267;                                                       273P    255
102,2,265,271;                                                       275P    256
142,1,237,273,275,1;                                                 277P    257
126,16,2,1,0,1,0,0.,0.,0.,0.125,0.125,0.25,0.25,0.375,0.375,         279P    258
0.5,0.5,0.625,0.625,0.75,0.75,0.875,0.875,1.,1.,1.,1.,1.,1.,1.,      279P    259
1.,1.,1.,1.,1.,1.,1.,1.,1.,1.,1.,1.,1.,0.233333316,0.216216216,      279P    260
0.,0.233333316,0.224817833,0.,0.253632109,0.23276469,0.,             279P    261
0.273930902,0.240711547,0.,0.31143818,0.246793809,0.,                279P    262
0.348945458,0.25287607,0.,0.397951078,0.256167766,0.,                279P    263
0.446956699,0.259459462,0.,0.5,0.259459462,0.,0.553043301,           279P    264
0.259459462,0.,0.602048922,0.256167766,0.,0.651054542,               279P    265
0.25287607,0.,0.68856182,0.246793809,0.,0.726069098,                 279P    266
0.240711547,0.,0.746367891,0.23276469,0.,0.766666684,                279P    267
0.224817833,0.,0.766666684,0.216216216,0.,0.,1.,0.,0.,1.;            279P    268
124,1.40271576953299E-014,1.,0.,3.99999999999994,                    281P    269
-6.12323399573677E-017,8.58915688636046E-031,1.,1.5,1.,              281P    270
-1.40271576953299E-014,6.12323399573677E-017,-5.5;                   281P    271
100,-1.5,4.,0.,4.800000051,0.,3.199999949,0.;                        283P    272
126,16,2,1,0,1,0,0.,0.,0.,0.125,0.125,0.25,0.25,0.375,0.375,         285P    273
0.5,0.5,0.625,0.625,0.75,0.75,0.875,0.875,1.,1.,1.,1.,1.,1.,1.,      285P    274
1.,1.,1.,1.,1.,1.,1.,1.,1.,1.,1.,1.,1.,0.766666684,0.216216216,      285P    275
0.,0.766666684,0.2076146,0.,0.746367891,0.199667742,0.,              285P    276
0.726069098,0.191720885,0.,0.68856182,0.185638624,0.,                285P    277
0.651054542,0.179556362,0.,0.602048922,0.176264666,0.,               285P    278
0.553043301,0.17297297,0.,0.5,0.17297297,0.,0.446956699,             285P    279
0.17297297,0.,0.397951078,0.176264666,0.,0.348945458,                285P    280
0.179556362,0.,0.31143818,0.185638624,0.,0.273930902,                285P    281
0.191720885,0.,0.253632109,0.199667742,0.,0.233333316,               285P    282
0.2076146,0.,0.233333316,0.216216216,0.,0.,1.,0.,0.,1.;              285P    283
124,6.12323399573677E-017,-1.,0.,4.,6.12323399573677E-017,           287P    284
3.74939945665464E-033,1.,1.5,-1.,-6.12323399573677E-017,             287P    285
6.12323399573677E-017,2.5;                                           287P    286
100,-1.5,4.,0.,4.800000051,0.,3.199999949,0.;                        289P    287
102,2,279,285;                                                       291P    288
102,2,283,289;                                                       293P    289
142,1,237,291,293,1;                                                 295P    290
144,237,1,2,259,277,295;                                             297P    291
110,4.,1.5,-1.5,4.,1001.5,-1.5;                                      299P    292
110,4.,0.,-0.699999949,4.,1.5,-0.699999949;                          301P    293
120,299,301,0.,6.28318530717959;                                     303P    294
126,1,1,1,0,1,0,0.,0.,1.,1.,1.,1.,1.,3.141592654,0.,1.,0.,0.,        305P    295
0.,1.,0.,0.,1.;                                                      305P    296
124,1.40271576953299E-014,1.,0.,2.49999999999994,                    307P    297
-6.12323399573677E-017,8.58915688636046E-031,-1.,                    307P    298
2.10464476036733E-015,-1.,1.40271576953299E-014,                     307P    299
6.12323399573677E-017,2.49999999999998;                              307P    300
100,-1.5,4.,1.5,4.800000051,1.5,3.199999949,1.5;                     309P    301
126,1,1,1,0,1,0,0.,0.,1.,1.,1.,1.,1.,0.,0.,0.,0.,0.,0.,1.,0.,        311P    302
0.,1.;                                                               311P    303
110,4.,1.5,-0.699999949,4.,0.,-0.699999949;                          313P    304
126,1,1,1,0,1,0,0.,0.,1.,1.,1.,1.,0.,0.,0.,0.,3.141592654,0.,        315P    305
0.,1.,0.,0.,1.;                                                      315P    306
124,1.40271576953299E-014,1.,0.,3.99999999999994,                    317P    307
-6.12323399573677E-017,8.58915688636046E-031,1.,1.5,1.,              317P    308
-1.40271576953299E-014,6.12323399573677E-017,-5.5;                   317P    309
100,-1.5,4.,0.,4.800000051,0.,3.199999949,0.;                        319P    310
126,1,1,1,0,1,0,0.,0.,1.,1.,1.,1.,0.,3.141592654,0.,1.,              321P    311
3.141592654,0.,0.,1.,0.,0.,1.;                                       321P    312
110,4.,0.,-2.300000051,4.,1.5,-2.300000051;                          323P    313
102,4,305,311,315,321;                                               325P    314
102,4,309,313,319,323;                                               327P    315
142,1,303,325,327,1;                                                 329P    316
144,303,1,0,329;                                                     331P    317
110,1.2,1.5,-1.5,1.2,1001.5,-1.5;                                    333P    318
110,1.2,0.,-0.699999949,1.2,1.5,-0.699999949;                        335P    319
120,333,335,0.,6.28318530717959;                                     337P    320
126,1,1,1,0,1,0,0.,0.,1.,1.,1.,1.,1.,3.141592654,0.,1.,0.,0.,        339P    321
0.,1.,0.,0.,1.;                                                      339P    322
124,1.40271576953299E-014,1.,0.,-0.300000000000018,                  341P    323
-6.12323399573677E-017,8.58915688636046E-031,-1.,                    341P    324
1.9331942084867E-015,-1.,1.40271576953299E-014,                      341P    325
6.12323399573677E-017,-0.300000000000021;                            341P    326
100,-1.5,1.2,1.5,2.000000051,1.5,0.399999949,1.5;                    343P    327
126,1,1,1,0,1,0,0.,0.,1.,1.,1.,1.,1.,0.,0.,0.,0.,0.,0.,1.,0.,        345P    328
0.,1.;                                                               345P    329
110,1.2,1.5,-0.699999949,1.2,0.,-0.699999949;                        347P    330
126,1,1,1,0,1,0,0.,0.,1.,1.,1.,1.,0.,0.,0.,0.,3.141592654,0.,        349P    331
0.,1.,0.,0.,1.;                                                      349P    332
124,1.40271576953299E-014,1.,0.,1.19999999999998,                    351P    333
-6.12323399573677E-017,8.58915688636046E-031,1.,1.5,1.,              351P    334
-1.40271576953299E-014,6.12323399573677E-017,-2.7;                   351P    335
100,-1.5,1.2,0.,2.000000051,0.,0.399999949,0.;                       353P    336
126,1,1,1,0,1,0,0.,0.,1.,1.,1.,1.,0.,3.141592654,0.,1.,              355P    337
3.141592654,0.,0.,1.,0.,0.,1.;                                       355P    338
110,1.2,0.,-2.300000051,1.2,1.5,-2.300000051;                        357P    339
102,4,339,345,349,355;                                               359P    340
102,4,343,347,353,357;                                               361P    341
142,1,337,359,361,1;                                                 363P    342
144,337,1,0,363;                                                     365P    343
S      1G      5D    366P    343                                        T      1
