ISO-10303-21;
HEADER;
FILE_DESCRIPTION (( 'STEP AP214' ),
    '1' );
FILE_NAME ('single_pole.STEP',
    '2026-10-01T11:32:45',
    ( '' ),
    ( '' ),
    'SwSTEP 2.0',
    'SolidWorks 2024',
    '' );
FILE_SCHEMA (( 'AUTOMOTIVE_DESIGN' ));
ENDSEC;

DATA;
#1 = ORIENTED_EDGE ( 'NONE', *, *, #1085, .T. ) ;
#2 = VECTOR ( 'NONE', #1161, 1000.000000000000000 ) ;
#3 = DIRECTION ( 'NONE',  ( 1.000000000000000000, 0.000000000000000000, 0.000000000000000000 ) ) ;
#4 = ORIENTED_EDGE ( 'NONE', *, *, #1137, .T. ) ;
#5 = CARTESIAN_POINT ( 'NONE',  ( 18.78763754782499973, 0.000000000000000000, 11.24999999999998224 ) ) ;
#6 = CARTESIAN_POINT ( 'NONE',  ( 23.76763754782499660, 4.336808689942017736E-16, 11.24999999999998224 ) ) ;
#7 = ORIENTED_EDGE ( 'NONE', *, *, #942, .F. ) ;
#8 = DIRECTION ( 'NONE',  ( 0.000000000000000000, 0.000000000000000000, -1.000000000000000000 ) ) ;
#9 = ORIENTED_EDGE ( 'NONE', *, *, #787, .F. ) ;
#10 = DIRECTION ( 'NONE',  ( 0.000000000000000000, 0.000000000000000000, 1.000000000000000000 ) ) ;
#11 = ADVANCED_FACE ( 'NONE', ( #950 ), #160, .T. ) ;
#12 = MECHANICAL_DESIGN_GEOMETRIC_PRESENTATION_REPRESENTATION (  '', ( #1005 ), #755 ) ;
#13 = DIRECTION ( 'NONE',  ( 0.000000000000000000, 0.000000000000000000, -1.000000000000000000 ) ) ;
#14 = VECTOR ( 'NONE', #703, 1000.000000000000000 ) ;
#15 = ORIENTED_EDGE ( 'NONE', *, *, #667, .T. ) ;
#16 = AXIS2_PLACEMENT_3D ( 'NONE', #741, #430, #715 ) ;
#17 = AXIS2_PLACEMENT_3D ( 'NONE', #1236, #1019, #711 ) ;
#18 = LINE ( 'NONE', #1006, #677 ) ;
#19 = VERTEX_POINT ( 'NONE', #242 ) ;
#20 = CARTESIAN_POINT ( 'NONE',  ( 36.27763754782499461, 0.000000000000000000, 11.25999999999999979 ) ) ;
#21 = EDGE_CURVE ( 'NONE', #420, #910, #850, .T. ) ;
#22 = CARTESIAN_POINT ( 'NONE',  ( 18.83835486637948975, 0.5000000000000000000, 15.94999999999990870 ) ) ;
#23 = VERTEX_POINT ( 'NONE', #1246 ) ;
#24 = DIRECTION ( 'NONE',  ( 0.9920857479505066356, -0.1255622105312099446, 0.000000000000000000 ) ) ;
#25 = ORIENTED_EDGE ( 'NONE', *, *, #705, .T. ) ;
#26 = AXIS2_PLACEMENT_3D ( 'NONE', #1239, #543, #53 ) ;
#27 = DIRECTION ( 'NONE',  ( -1.000000000000000000, 0.000000000000000000, 0.000000000000000000 ) ) ;
#28 = DIRECTION ( 'NONE',  ( -1.000000000000000000, 0.000000000000000000, 0.000000000000000000 ) ) ;
#29 = ORIENTED_EDGE ( 'NONE', *, *, #537, .F. ) ;
#30 = EDGE_CURVE ( 'NONE', #877, #1004, #451, .T. ) ;
#31 = FACE_OUTER_BOUND ( 'NONE', #907, .T. ) ;
#32 = PRODUCT_DEFINITION_CONTEXT ( 'detailed design', #1071, 'design' ) ;
#33 = LINE ( 'NONE', #644, #58 ) ;
#34 = DIRECTION ( 'NONE',  ( 0.9922983898229190691, -0.1238705193128784160, 0.000000000000000000 ) ) ;
#35 = VERTEX_POINT ( 'NONE', #245 ) ;
#36 = AXIS2_PLACEMENT_3D ( 'NONE', #763, #273, #665 ) ;
#37 = EDGE_CURVE ( 'NONE', #1058, #403, #1037, .T. ) ;
#38 = PLANE ( 'NONE',  #645 ) ;
#39 = PRESENTATION_LAYER_ASSIGNMENT (  '', '', ( #267 ) ) ;
#40 = DIRECTION ( 'NONE',  ( 0.000000000000000000, 0.000000000000000000, -1.000000000000000000 ) ) ;
#41 = DIRECTION ( 'NONE',  ( 0.000000000000000000, 0.000000000000000000, 1.000000000000000000 ) ) ;
#42 = LINE ( 'NONE', #258, #394 ) ;
#43 = CARTESIAN_POINT ( 'NONE',  ( 21.27763754782499817, 0.000000000000000000, 11.25999999999999979 ) ) ;
#44 = CARTESIAN_POINT ( 'NONE',  ( 18.83835486637948975, -0.5000000000000000000, 17.24999999999998579 ) ) ;
#45 = DIRECTION ( 'NONE',  ( 0.000000000000000000, 0.000000000000000000, -1.000000000000000000 ) ) ;
#46 = AXIS2_PLACEMENT_3D ( 'NONE', #294, #1173, #187 ) ;
#47 = DIRECTION ( 'NONE',  ( 0.000000000000000000, 0.000000000000000000, -1.000000000000000000 ) ) ;
#48 = CLOSED_SHELL ( 'NONE', ( #698, #1102, #87, #1009, #116, #1178, #935, #405, #572, #1271, #167, #1118, #1185, #905, #920, #422, #529, #581, #884, #514, #190 ) ) ;
#49 = VERTEX_POINT ( 'NONE', #842 ) ;
#50 = CARTESIAN_POINT ( 'NONE',  ( 21.27763754782499817, -3.500000000000000000, 14.25999999999999801 ) ) ;
#51 = DIRECTION ( 'NONE',  ( 0.000000000000000000, 0.000000000000000000, -1.000000000000000000 ) ) ;
#52 = EDGE_CURVE ( 'NONE', #520, #1209, #915, .T. ) ;
#53 = DIRECTION ( 'NONE',  ( -0.1255622105312099168, -0.9920857479505065246, 0.000000000000000000 ) ) ;
#54 = LINE ( 'NONE', #445, #812 ) ;
#55 = AXIS2_PLACEMENT_3D ( 'NONE', #1070, #975, #773 ) ;
#56 = ORIENTED_EDGE ( 'NONE', *, *, #1030, .T. ) ;
#57 = DIRECTION ( 'NONE',  ( 0.9920857479505066356, -0.1255622105312099446, 0.000000000000000000 ) ) ;
#58 = VECTOR ( 'NONE', #435, 1000.000000000000000 ) ;
#59 = DIRECTION ( 'NONE',  ( -0.9920857479505066356, 0.1255622105312099446, 0.000000000000000000 ) ) ;
#60 = AXIS2_PLACEMENT_3D ( 'NONE', #1124, #349, #525 ) ;
#61 = EDGE_CURVE ( 'NONE', #1001, #1164, #239, .T. ) ;
#62 = DIRECTION ( 'NONE',  ( 0.000000000000000000, 0.000000000000000000, -1.000000000000000000 ) ) ;
#63 = ORIENTED_EDGE ( 'NONE', *, *, #777, .T. ) ;
#64 = SHAPE_DEFINITION_REPRESENTATION ( #951, #332 ) ;
#65 = ORIENTED_EDGE ( 'NONE', *, *, #563, .F. ) ;
#66 = DIRECTION ( 'NONE',  ( -0.000000000000000000, -0.000000000000000000, -1.000000000000000000 ) ) ;
#67 = AXIS2_PLACEMENT_3D ( 'NONE', #684, #480, #768 ) ;
#68 = CARTESIAN_POINT ( 'NONE',  ( 36.27763754782499461, -3.500000000000000000, 14.25999999999999801 ) ) ;
#69 = ORIENTED_EDGE ( 'NONE', *, *, #1210, .F. ) ;
#70 =( GEOMETRIC_REPRESENTATION_CONTEXT ( 3 ) GLOBAL_UNCERTAINTY_ASSIGNED_CONTEXT ( ( #846 ) ) GLOBAL_UNIT_ASSIGNED_CONTEXT ( ( #364, #76, #746 ) ) REPRESENTATION_CONTEXT ( 'NONE', 'WORKASPACE' ) );
#71 = DIRECTION ( 'NONE',  ( 1.000000000000000000, 0.000000000000000000, 0.000000000000000000 ) ) ;
#72 = ORIENTED_EDGE ( 'NONE', *, *, #612, .F. ) ;
#73 = FACE_OUTER_BOUND ( 'NONE', #971, .T. ) ;
#74 = CARTESIAN_POINT ( 'NONE',  ( 1.135018195228436166, 0.004961491949114632538, 0.2500000000000834888 ) ) ;
#75 = ORIENTED_EDGE ( 'NONE', *, *, #1000, .F. ) ;
#76 =( NAMED_UNIT ( * ) PLANE_ANGLE_UNIT ( ) SI_UNIT ( $, .RADIAN. ) );
#77 = EDGE_CURVE ( 'NONE', #691, #126, #42, .T. ) ;
#78 = PLANE ( 'NONE',  #527 ) ;
#79 = ORIENTED_EDGE ( 'NONE', *, *, #738, .F. ) ;
#80 =( GEOMETRIC_REPRESENTATION_CONTEXT ( 3 ) GLOBAL_UNCERTAINTY_ASSIGNED_CONTEXT ( ( #139 ) ) GLOBAL_UNIT_ASSIGNED_CONTEXT ( ( #353, #260, #557 ) ) REPRESENTATION_CONTEXT ( 'NONE', 'WORKASPACE' ) );
#81 = VECTOR ( 'NONE', #779, 1000.000000000000000 ) ;
#82 = DIRECTION ( 'NONE',  ( 0.000000000000000000, 0.000000000000000000, -1.000000000000000000 ) ) ;
#83 = ORIENTED_EDGE ( 'NONE', *, *, #974, .F. ) ;
#84 = CARTESIAN_POINT ( 'NONE',  ( 21.27763754782499817, 3.500000000000000000, 11.25999999999999979 ) ) ;
#85 = ORIENTED_EDGE ( 'NONE', *, *, #1232, .F. ) ;
#86 =( NAMED_UNIT ( * ) PLANE_ANGLE_UNIT ( ) SI_UNIT ( $, .RADIAN. ) );
#87 = ADVANCED_FACE ( 'NONE', ( #724 ), #654, .T. ) ;
#88 = DIRECTION ( 'NONE',  ( 0.000000000000000000, 0.000000000000000000, -1.000000000000000000 ) ) ;
#89 = ORIENTED_EDGE ( 'NONE', *, *, #1225, .F. ) ;
#90 = PRODUCT_DEFINITION_FORMATION_WITH_SPECIFIED_SOURCE ( 'ANY', '', #1052, .NOT_KNOWN. ) ;
#91 = SURFACE_STYLE_USAGE ( .BOTH. , #972 ) ;
#92 = ORIENTED_EDGE ( 'NONE', *, *, #507, .F. ) ;
#93 = DIRECTION ( 'NONE',  ( 0.9922983898229190691, -0.1238705193128784160, 0.000000000000000000 ) ) ;
#94 = EDGE_CURVE ( 'NONE', #23, #919, #560, .T. ) ;
#95 = CARTESIAN_POINT ( 'NONE',  ( 1.130637547825000144, 0.000000000000000000, 0.2500000000000834888 ) ) ;
#96 = ORIENTED_EDGE ( 'NONE', *, *, #436, .F. ) ;
#97 = DIRECTION ( 'NONE',  ( 0.000000000000000000, 0.000000000000000000, -1.000000000000000000 ) ) ;
#98 = EDGE_LOOP ( 'NONE', ( #586, #470 ) ) ;
#99 = DIRECTION ( 'NONE',  ( 0.000000000000000000, 0.000000000000000000, 1.000000000000000000 ) ) ;
#100 = DIRECTION ( 'NONE',  ( 0.9568936944086746665, -0.2904383886488113853, 0.000000000000000000 ) ) ;
#101 = MECHANICAL_DESIGN_GEOMETRIC_PRESENTATION_REPRESENTATION (  '', ( #267 ), #80 ) ;
#102 = VERTEX_POINT ( 'NONE', #333 ) ;
#103 = LINE ( 'NONE', #999, #81 ) ;
#104 = ORIENTED_EDGE ( 'NONE', *, *, #21, .T. ) ;
#105 = CARTESIAN_POINT ( 'NONE',  ( 28.71828065745379988, -0.9417165789840746815, 7.050000000000000711 ) ) ;
#106 = PLANE ( 'NONE',  #1177 ) ;
#107 = ORIENTED_EDGE ( 'NONE', *, *, #643, .T. ) ;
#108 = EDGE_CURVE ( 'NONE', #1156, #446, #1228, .T. ) ;
#109 = LINE ( 'NONE', #979, #286 ) ;
#110 = CIRCLE ( 'NONE', #46, 0.004999999999999796274 ) ;
#111 = ORIENTED_EDGE ( 'NONE', *, *, #588, .F. ) ;
#112 = DIRECTION ( 'NONE',  ( -0.000000000000000000, -0.000000000000000000, -1.000000000000000000 ) ) ;
#113 = DIRECTION ( 'NONE',  ( 0.1238705193128786103, -0.9922983898229190691, 0.000000000000000000 ) ) ;
#114 = ORIENTED_EDGE ( 'NONE', *, *, #730, .F. ) ;
#115 = CARTESIAN_POINT ( 'NONE',  ( 18.83835486637948975, -0.5000000000000000000, 17.24999999999998579 ) ) ;
#116 = ADVANCED_FACE ( 'NONE', ( #533 ), #438, .F. ) ;
#117 = ORIENTED_EDGE ( 'NONE', *, *, #429, .F. ) ;
#118 = DIRECTION ( 'NONE',  ( 0.000000000000000000, 0.000000000000000000, -1.000000000000000000 ) ) ;
#119 = EDGE_CURVE ( 'NONE', #1111, #1001, #54, .T. ) ;
#120 = VECTOR ( 'NONE', #118, 1000.000000000000000 ) ;
#121 = DIRECTION ( 'NONE',  ( 0.000000000000000000, 0.000000000000000000, -1.000000000000000000 ) ) ;
#122 = ORIENTED_EDGE ( 'NONE', *, *, #612, .T. ) ;
#123 = AXIS2_PLACEMENT_3D ( 'NONE', #1213, #10, #1187 ) ;
#124 = PLANE ( 'NONE',  #780 ) ;
#125 = CIRCLE ( 'NONE', #230, 2.499999999999998668 ) ;
#126 = VERTEX_POINT ( 'NONE', #1034 ) ;
#127 = CARTESIAN_POINT ( 'NONE',  ( 21.27763754782499817, -0.5000000000000000000, 17.24999999999998579 ) ) ;
#128 = ADVANCED_FACE ( 'NONE', ( #154 ), #743, .F. ) ;
#129 = DIRECTION ( 'NONE',  ( 0.9920857479505066356, -0.1255622105312099446, 0.000000000000000000 ) ) ;
#130 = VERTEX_POINT ( 'NONE', #944 ) ;
#131 = CARTESIAN_POINT ( 'NONE',  ( 21.27763754782499817, -3.500000000000000000, 14.25999999999999801 ) ) ;
#132 = ORIENTED_EDGE ( 'NONE', *, *, #158, .T. ) ;
#133 = CIRCLE ( 'NONE', #582, 2.489999999999999325 ) ;
#134 = CARTESIAN_POINT ( 'NONE',  ( 21.27763754782499817, -3.500000000000000000, 11.25999999999999979 ) ) ;
#135 = CARTESIAN_POINT ( 'NONE',  ( 21.27763754782499817, 0.000000000000000000, 11.24999999999998224 ) ) ;
#136 = ADVANCED_FACE ( 'NONE', ( #385 ), #876, .T. ) ;
#137 = ORIENTED_EDGE ( 'NONE', *, *, #604, .F. ) ;
#138 = DIRECTION ( 'NONE',  ( -1.000000000000000000, 0.000000000000000000, 0.000000000000000000 ) ) ;
#139 = UNCERTAINTY_MEASURE_WITH_UNIT (LENGTH_MEASURE( 1.000000000000000082E-05 ), #353, 'distance_accuracy_value', 'NONE');
#140 = CARTESIAN_POINT ( 'NONE',  ( 4.048346145085459646, 10.44625168483803890, 0.2500000000000834888 ) ) ;
#141 = FACE_OUTER_BOUND ( 'NONE', #770, .T. ) ;
#142 = DIRECTION ( 'NONE',  ( 0.000000000000000000, 0.000000000000000000, 1.000000000000000000 ) ) ;
#143 = AXIS2_PLACEMENT_3D ( 'NONE', #508, #113, #817 ) ;
#144 = DIRECTION ( 'NONE',  ( 0.000000000000000000, 0.000000000000000000, 1.000000000000000000 ) ) ;
#145 = AXIS2_PLACEMENT_3D ( 'NONE', #548, #1268, #1068 ) ;
#146 = AXIS2_PLACEMENT_3D ( 'NONE', #916, #440, #255 ) ;
#147 = DIRECTION ( 'NONE',  ( -1.000000000000000000, 0.000000000000000000, 0.000000000000000000 ) ) ;
#148 = DIRECTION ( 'NONE',  ( 0.000000000000000000, -0.000000000000000000, -1.000000000000000000 ) ) ;
#149 = CARTESIAN_POINT ( 'NONE',  ( 21.27763754782499817, 0.000000000000000000, 0.2500000000000834888 ) ) ;
#150 = DIRECTION ( 'NONE',  ( -1.000000000000000000, 3.035766082959415373E-16, 0.000000000000000000 ) ) ;
#151 = EDGE_CURVE ( 'NONE', #354, #520, #110, .T. ) ;
#152 = CARTESIAN_POINT ( 'NONE',  ( 21.27763754782499817, -3.500000000000000000, 11.25999999999999979 ) ) ;
#153 = DIRECTION ( 'NONE',  ( -1.000000000000000000, 0.000000000000000000, 0.000000000000000000 ) ) ;
#154 = FACE_OUTER_BOUND ( 'NONE', #1041, .T. ) ;
#155 = ORIENTED_EDGE ( 'NONE', *, *, #52, .F. ) ;
#156 = DIRECTION ( 'NONE',  ( 0.9920857479505065246, -0.1255622105312099168, 0.000000000000000000 ) ) ;
#157 = CARTESIAN_POINT ( 'NONE',  ( 36.27763754782499461, 0.000000000000000000, 14.25999999999999801 ) ) ;
#158 = EDGE_CURVE ( 'NONE', #1104, #1164, #589, .T. ) ;
#159 = CARTESIAN_POINT ( 'NONE',  ( 19.82544560458094907, 4.784468472043379883, 0.2500000000000834888 ) ) ;
#160 = CYLINDRICAL_SURFACE ( 'NONE', #276, 3.500000000000000888 ) ;
#161 = PRESENTATION_LAYER_ASSIGNMENT (  '', '', ( #1005 ) ) ;
#162 = EDGE_LOOP ( 'NONE', ( #359, #132, #590, #1076 ) ) ;
#163 = CARTESIAN_POINT ( 'NONE',  ( 21.27763754782499817, 0.000000000000000000, 14.25999999999999801 ) ) ;
#164 = AXIS2_PLACEMENT_3D ( 'NONE', #339, #1014, #626 ) ;
#165 = ORIENTED_EDGE ( 'NONE', *, *, #321, .T. ) ;
#166 = LINE ( 'NONE', #550, #898 ) ;
#167 = ADVANCED_FACE ( 'NONE', ( #756 ), #193, .T. ) ;
#168 = DIRECTION ( 'NONE',  ( 0.9920857479505065246, -0.1255622105312099168, 0.000000000000000000 ) ) ;
#169 = ORIENTED_EDGE ( 'NONE', *, *, #1078, .F. ) ;
#170 = DIRECTION ( 'NONE',  ( 0.000000000000000000, 0.000000000000000000, -1.000000000000000000 ) ) ;
#171 = DIRECTION ( 'NONE',  ( -1.000000000000000000, 0.000000000000000000, 0.000000000000000000 ) ) ;
#172 = CARTESIAN_POINT ( 'NONE',  ( 17.77763754782499817, 0.000000000000000000, 14.25999999999999801 ) ) ;
#173 = EDGE_CURVE ( 'NONE', #381, #35, #1181, .T. ) ;
#174 = VECTOR ( 'NONE', #666, 1000.000000000000000 ) ;
#175 = ORIENTED_EDGE ( 'NONE', *, *, #928, .T. ) ;
#176 = CARTESIAN_POINT ( 'NONE',  ( 21.27763754782499817, 0.000000000000000000, 15.94999999999990870 ) ) ;
#177 = ORIENTED_EDGE ( 'NONE', *, *, #643, .F. ) ;
#178 =( LENGTH_UNIT ( ) NAMED_UNIT ( * ) SI_UNIT ( .MILLI., .METRE. ) );
#179 = DIRECTION ( 'NONE',  ( 0.000000000000000000, 0.000000000000000000, -1.000000000000000000 ) ) ;
#180 = ORIENTED_EDGE ( 'NONE', *, *, #61, .T. ) ;
#181 = EDGE_CURVE ( 'NONE', #49, #1278, #1072, .T. ) ;
#182 = CARTESIAN_POINT ( 'NONE',  ( 18.79742317794873330, 0.3139055263280247643, 6.050000000000110845 ) ) ;
#183 = EDGE_LOOP ( 'NONE', ( #278, #85 ) ) ;
#184 =( NAMED_UNIT ( * ) SI_UNIT ( $, .STERADIAN. ) SOLID_ANGLE_UNIT ( ) );
#185 = AXIS2_PLACEMENT_3D ( 'NONE', #404, #493, #802 ) ;
#186 = CIRCLE ( 'NONE', #509, 3.500000000000000888 ) ;
#187 = DIRECTION ( 'NONE',  ( 1.000000000000000000, 0.000000000000000000, 0.000000000000000000 ) ) ;
#188 = ORIENTED_EDGE ( 'NONE', *, *, #268, .F. ) ;
#189 = LINE ( 'NONE', #1056, #656 ) ;
#190 = ADVANCED_FACE ( 'NONE', ( #957 ), #970, .T. ) ;
#191 = VERTEX_POINT ( 'NONE', #1155 ) ;
#192 = SURFACE_STYLE_FILL_AREA ( #1249 ) ;
#193 = CYLINDRICAL_SURFACE ( 'NONE', #1120, 2.489999999999999325 ) ;
#194 = ORIENTED_EDGE ( 'NONE', *, *, #974, .T. ) ;
#195 = CARTESIAN_POINT ( 'NONE',  ( 6.952730031573559621, 0.8773147407512820184, 0.000000000000000000 ) ) ;
#196 = CLOSED_SHELL ( 'NONE', ( #1170, #473, #992, #1160, #136, #421, #11, #291, #762 ) ) ;
#197 = ORIENTED_EDGE ( 'NONE', *, *, #1232, .T. ) ;
#198 = DIRECTION ( 'NONE',  ( 1.000000000000000000, 0.000000000000000000, 0.000000000000000000 ) ) ;
#199 = EDGE_CURVE ( 'NONE', #694, #902, #889, .T. ) ;
#200 = CARTESIAN_POINT ( 'NONE',  ( 1.135018195228435500, -0.004961491949114198857, 0.2500000000000834888 ) ) ;
#201 = ORIENTED_EDGE ( 'NONE', *, *, #832, .T. ) ;
#202 = CARTESIAN_POINT ( 'NONE',  ( 21.27763754782499817, 0.000000000000000000, 6.050000000000110845 ) ) ;
#203 = VECTOR ( 'NONE', #66, 1000.000000000000000 ) ;
#204 = ORIENTED_EDGE ( 'NONE', *, *, #660, .T. ) ;
#205 = LINE ( 'NONE', #1094, #367 ) ;
#206 = DIRECTION ( 'NONE',  ( 0.000000000000000000, 0.000000000000000000, 1.000000000000000000 ) ) ;
#207 = AXIS2_PLACEMENT_3D ( 'NONE', #424, #822, #147 ) ;
#208 = EDGE_LOOP ( 'NONE', ( #602, #231, #65, #978 ) ) ;
#209 = DIRECTION ( 'NONE',  ( 0.000000000000000000, 0.000000000000000000, -1.000000000000000000 ) ) ;
#210 = ORIENTED_EDGE ( 'NONE', *, *, #119, .T. ) ;
#211 = CARTESIAN_POINT ( 'NONE',  ( 36.27763754782499461, 2.489999999999998437, 14.25999999999999801 ) ) ;
#212 = FACE_OUTER_BOUND ( 'NONE', #357, .T. ) ;
#213 = ORIENTED_EDGE ( 'NONE', *, *, #173, .T. ) ;
#214 = ADVANCED_FACE ( 'NONE', ( #982 ), #671, .T. ) ;
#215 = DIRECTION ( 'NONE',  ( 1.000000000000000000, 0.000000000000000000, 0.000000000000000000 ) ) ;
#216 = ORIENTED_EDGE ( 'NONE', *, *, #30, .F. ) ;
#217 = CARTESIAN_POINT ( 'NONE',  ( 18.83835486637948975, -0.5000000000000000000, 15.94999999999990870 ) ) ;
#218 = CYLINDRICAL_SURFACE ( 'NONE', #723, 2.500000000000000000 ) ;
#219 = EDGE_LOOP ( 'NONE', ( #15, #641, #883, #25, #1107 ) ) ;
#220 = DIRECTION ( 'NONE',  ( 0.000000000000000000, 0.000000000000000000, -1.000000000000000000 ) ) ;
#221 = EDGE_CURVE ( 'NONE', #375, #670, #994, .T. ) ;
#222 = VERTEX_POINT ( 'NONE', #661 ) ;
#223 = LINE ( 'NONE', #486, #1274 ) ;
#224 = CIRCLE ( 'NONE', #425, 2.500000000000000000 ) ;
#225 = PLANE ( 'NONE',  #966 ) ;
#226 = ORIENTED_EDGE ( 'NONE', *, *, #221, .F. ) ;
#227 = AXIS2_PLACEMENT_3D ( 'NONE', #330, #1139, #57 ) ;
#228 = VECTOR ( 'NONE', #220, 1000.000000000000000 ) ;
#229 = DIRECTION ( 'NONE',  ( 0.000000000000000000, 0.000000000000000000, -1.000000000000000000 ) ) ;
#230 = AXIS2_PLACEMENT_3D ( 'NONE', #331, #336, #1221 ) ;
#231 = ORIENTED_EDGE ( 'NONE', *, *, #628, .F. ) ;
#232 = FACE_OUTER_BOUND ( 'NONE', #651, .T. ) ;
#233 = EDGE_CURVE ( 'NONE', #694, #520, #1260, .T. ) ;
#234 = CARTESIAN_POINT ( 'NONE',  ( 21.27763754782499817, 0.000000000000000000, 11.24999999999998224 ) ) ;
#235 = ORIENTED_EDGE ( 'NONE', *, *, #1210, .T. ) ;
#236 = VECTOR ( 'NONE', #179, 1000.000000000000000 ) ;
#237 = CARTESIAN_POINT ( 'NONE',  ( 21.27763754782499817, 0.000000000000000000, 11.24999999999998224 ) ) ;
#238 = CARTESIAN_POINT ( 'NONE',  ( 1.135637547824999816, 0.000000000000000000, 0.2500000000000834888 ) ) ;
#239 = CIRCLE ( 'NONE', #955, 3.499999999999999556 ) ;
#240 = DIRECTION ( 'NONE',  ( 1.000000000000000000, 0.000000000000000000, 0.000000000000000000 ) ) ;
#241 = AXIS2_PLACEMENT_3D ( 'NONE', #43, #334, #726 ) ;
#242 = CARTESIAN_POINT ( 'NONE',  ( 18.78763754782499973, 0.000000000000000000, 11.25999999999999979 ) ) ;
#243 = CARTESIAN_POINT ( 'NONE',  ( 23.71692022927050658, -0.5000000000000000000, 17.24999999999998579 ) ) ;
#244 = PLANE ( 'NONE',  #26 ) ;
#245 = CARTESIAN_POINT ( 'NONE',  ( 21.27763754782499817, -2.489999999999998437, 11.25999999999999979 ) ) ;
#246 = EDGE_CURVE ( 'NONE', #259, #354, #469, .T. ) ;
#247 = LINE ( 'NONE', #1115, #467 ) ;
#248 = CIRCLE ( 'NONE', #1132, 2.489999999999999325 ) ;
#249 = AXIS2_PLACEMENT_3D ( 'NONE', #1092, #806, #209 ) ;
#250 = DIRECTION ( 'NONE',  ( 1.000000000000000000, 0.000000000000000000, 0.000000000000000000 ) ) ;
#251 = CYLINDRICAL_SURFACE ( 'NONE', #1253, 3.499999999999999556 ) ;
#252 = CARTESIAN_POINT ( 'NONE',  ( 21.27763754782499817, 0.000000000000000000, 7.050000000000000711 ) ) ;
#253 = EDGE_CURVE ( 'NONE', #919, #1156, #774, .T. ) ;
#254 = VERTEX_POINT ( 'NONE', #1080 ) ;
#255 = DIRECTION ( 'NONE',  ( -1.000000000000000000, 0.000000000000000000, 0.000000000000000000 ) ) ;
#256 = DIRECTION ( 'NONE',  ( 0.000000000000000000, 0.000000000000000000, -1.000000000000000000 ) ) ;
#257 = PLANE ( 'NONE',  #810 ) ;
#258 = CARTESIAN_POINT ( 'NONE',  ( 21.27763754782499817, 2.489999999999998437, 14.25999999999999801 ) ) ;
#259 = VERTEX_POINT ( 'NONE', #279 ) ;
#260 =( NAMED_UNIT ( * ) PLANE_ANGLE_UNIT ( ) SI_UNIT ( $, .RADIAN. ) );
#261 = EDGE_CURVE ( 'NONE', #902, #1209, #287, .T. ) ;
#262 = DIRECTION ( 'NONE',  ( 0.000000000000000000, 0.000000000000000000, -1.000000000000000000 ) ) ;
#263 = DIRECTION ( 'NONE',  ( 0.000000000000000000, 0.000000000000000000, 1.000000000000000000 ) ) ;
#264 = AXIS2_PLACEMENT_3D ( 'NONE', #372, #1059, #961 ) ;
#265 = ORIENTED_EDGE ( 'NONE', *, *, #521, .T. ) ;
#266 = DIRECTION ( 'NONE',  ( 0.000000000000000000, 0.000000000000000000, 1.000000000000000000 ) ) ;
#267 = STYLED_ITEM ( 'NONE', ( #1149 ), #983 ) ;
#268 = EDGE_CURVE ( 'NONE', #1158, #534, #488, .T. ) ;
#269 = AXIS2_PLACEMENT_3D ( 'NONE', #1146, #729, #59 ) ;
#270 = DIRECTION ( 'NONE',  ( -0.9920857479505065246, 0.1255622105312099168, 0.000000000000000000 ) ) ;
#271 = ORIENTED_EDGE ( 'NONE', *, *, #521, .F. ) ;
#272 = CARTESIAN_POINT ( 'NONE',  ( 21.27763754782499817, 0.000000000000000000, 6.050000000000110845 ) ) ;
#273 = DIRECTION ( 'NONE',  ( 0.000000000000000000, 1.000000000000000000, 0.000000000000000000 ) ) ;
#274 = LINE ( 'NONE', #1060, #623 ) ;
#275 = ORIENTED_EDGE ( 'NONE', *, *, #199, .T. ) ;
#276 = AXIS2_PLACEMENT_3D ( 'NONE', #343, #47, #539 ) ;
#277 = CYLINDRICAL_SURFACE ( 'NONE', #407, 0.004999999999999796274 ) ;
#278 = ORIENTED_EDGE ( 'NONE', *, *, #893, .F. ) ;
#279 = CARTESIAN_POINT ( 'NONE',  ( 1.135018195228436166, 0.004961491949114632538, 0.2500000000000834888 ) ) ;
#280 = ORIENTED_EDGE ( 'NONE', *, *, #913, .F. ) ;
#281 = EDGE_CURVE ( 'NONE', #919, #505, #274, .T. ) ;
#282 = COLOUR_RGB ( '',0.7921568627450980005, 0.8196078431372548767, 0.9333333333333333481 ) ;
#283 = FACE_OUTER_BOUND ( 'NONE', #765, .T. ) ;
#284 = FILL_AREA_STYLE_COLOUR ( '', #569 ) ;
#285 = VECTOR ( 'NONE', #733, 1000.000000000000227 ) ;
#286 = VECTOR ( 'NONE', #692, 1000.000000000000000 ) ;
#287 = LINE ( 'NONE', #200, #1183 ) ;
#288 = VERTEX_POINT ( 'NONE', #866 ) ;
#289 = EDGE_CURVE ( 'NONE', #446, #485, #1065, .T. ) ;
#290 = FACE_OUTER_BOUND ( 'NONE', #386, .T. ) ;
#291 = ADVANCED_FACE ( 'NONE', ( #212 ), #218, .F. ) ;
#292 = EDGE_LOOP ( 'NONE', ( #618, #1101, #1061, #554, #662, #499, #75, #624, #680, #685, #482, #1203 ) ) ;
#293 =( NAMED_UNIT ( * ) SI_UNIT ( $, .STERADIAN. ) SOLID_ANGLE_UNIT ( ) );
#294 = CARTESIAN_POINT ( 'NONE',  ( 1.135637547824999816, 0.000000000000000000, 0.000000000000000000 ) ) ;
#295 = VERTEX_POINT ( 'NONE', #1010 ) ;
#296 = CARTESIAN_POINT ( 'NONE',  ( 21.27763754782499817, 3.500000000000000000, 14.25999999999999801 ) ) ;
#297 = ORIENTED_EDGE ( 'NONE', *, *, #281, .T. ) ;
#298 = DIRECTION ( 'NONE',  ( 0.000000000000000000, 0.000000000000000000, 1.000000000000000000 ) ) ;
#299 = EDGE_CURVE ( 'NONE', #783, #597, #515, .T. ) ;
#300 = PLANE ( 'NONE',  #143 ) ;
#301 = VERTEX_POINT ( 'NONE', #906 ) ;
#302 = CYLINDRICAL_SURFACE ( 'NONE', #945, 10.00000000000000000 ) ;
#303 = ORIENTED_EDGE ( 'NONE', *, *, #305, .T. ) ;
#304 = LINE ( 'NONE', #600, #1110 ) ;
#305 = EDGE_CURVE ( 'NONE', #288, #381, #494, .T. ) ;
#306 = DIRECTION ( 'NONE',  ( -1.000000000000000000, 0.000000000000000000, 0.000000000000000000 ) ) ;
#307 = AXIS2_PLACEMENT_3D ( 'NONE', #157, #1224, #250 ) ;
#308 = VECTOR ( 'NONE', #382, 1000.000000000000000 ) ;
#309 = ORIENTED_EDGE ( 'NONE', *, *, #380, .T. ) ;
#310 = DIRECTION ( 'NONE',  ( -1.000000000000000000, -1.301042606982605814E-16, 0.000000000000000000 ) ) ;
#311 = VERTEX_POINT ( 'NONE', #413 ) ;
#312 = LINE ( 'NONE', #127, #1047 ) ;
#313 = DIRECTION ( 'NONE',  ( -0.9920857479505066356, 0.1255622105312099446, 0.000000000000000000 ) ) ;
#314 = ORIENTED_EDGE ( 'NONE', *, *, #94, .F. ) ;
#315 = EDGE_CURVE ( 'NONE', #295, #609, #735, .T. ) ;
#316 = DIRECTION ( 'NONE',  ( 0.000000000000000000, 0.000000000000000000, -1.000000000000000000 ) ) ;
#317 = ORIENTED_EDGE ( 'NONE', *, *, #713, .T. ) ;
#318 = DIRECTION ( 'NONE',  ( 0.000000000000000000, 0.000000000000000000, -1.000000000000000000 ) ) ;
#319 = CARTESIAN_POINT ( 'NONE',  ( 18.79742317794873330, 0.3139055263280247643, 11.24999999999998224 ) ) ;
#320 = ORIENTED_EDGE ( 'NONE', *, *, #342, .F. ) ;
#321 = EDGE_CURVE ( 'NONE', #683, #254, #1214, .T. ) ;
#322 = CARTESIAN_POINT ( 'NONE',  ( 21.27763754782499817, 0.000000000000000000, 6.050000000000110845 ) ) ;
#323 = ORIENTED_EDGE ( 'NONE', *, *, #689, .T. ) ;
#324 = CARTESIAN_POINT ( 'NONE',  ( 21.27763754782499817, 0.000000000000000000, 14.25999999999999801 ) ) ;
#325 = AXIS2_PLACEMENT_3D ( 'NONE', #722, #1245, #240 ) ;
#326 = CARTESIAN_POINT ( 'NONE',  ( 21.27763754782499817, 3.500000000000000000, 14.25999999999999801 ) ) ;
#327 = ORIENTED_EDGE ( 'NONE', *, *, #803, .F. ) ;
#328 = CIRCLE ( 'NONE', #164, 2.489999999999999325 ) ;
#329 = FACE_BOUND ( 'NONE', #540, .T. ) ;
#330 = CARTESIAN_POINT ( 'NONE',  ( 21.27763754782499817, 0.000000000000000000, 6.050000000000110845 ) ) ;
#331 = CARTESIAN_POINT ( 'NONE',  ( 21.27763754782499817, 0.000000000000000000, 0.2500000000000834888 ) ) ;
#332 = ADVANCED_BREP_SHAPE_REPRESENTATION ( 'single_pole', ( #983, #556, #553, #976 ), #70 ) ;
#333 = CARTESIAN_POINT ( 'NONE',  ( 23.71692022927050658, -0.5000000000000000000, 15.94999999999990870 ) ) ;
#334 = DIRECTION ( 'NONE',  ( 0.000000000000000000, 0.000000000000000000, 1.000000000000000000 ) ) ;
#335 = CARTESIAN_POINT ( 'NONE',  ( 28.71828065745379988, -0.9417165789840746815, 6.050000000000110845 ) ) ;
#336 = DIRECTION ( 'NONE',  ( 0.000000000000000000, 0.000000000000000000, -1.000000000000000000 ) ) ;
#337 = DIRECTION ( 'NONE',  ( 0.000000000000000000, 0.000000000000000000, 1.000000000000000000 ) ) ;
#338 = FACE_OUTER_BOUND ( 'NONE', #368, .T. ) ;
#339 = CARTESIAN_POINT ( 'NONE',  ( 21.27763754782499817, 0.000000000000000000, 15.94999999999990870 ) ) ;
#340 = LINE ( 'NONE', #1046, #1044 ) ;
#341 = CIRCLE ( 'NONE', #55, 3.500000000000000888 ) ;
#342 = EDGE_CURVE ( 'NONE', #102, #191, #1194, .T. ) ;
#343 = CARTESIAN_POINT ( 'NONE',  ( 21.27763754782499817, 0.000000000000000000, 11.24999999999998224 ) ) ;
#344 = VECTOR ( 'NONE', #501, 1000.000000000000227 ) ;
#345 = EDGE_LOOP ( 'NONE', ( #137, #991 ) ) ;
#346 = CARTESIAN_POINT ( 'NONE',  ( 21.27763754782499817, -0.5000000000000000000, 15.94999999999990870 ) ) ;
#347 = AXIS2_PLACEMENT_3D ( 'NONE', #530, #229, #138 ) ;
#348 = CARTESIAN_POINT ( 'NONE',  ( 36.27763754782499461, 0.000000000000000000, 11.25999999999999979 ) ) ;
#349 = DIRECTION ( 'NONE',  ( 0.000000000000000000, -1.000000000000000000, 0.000000000000000000 ) ) ;
#350 = DIRECTION ( 'NONE',  ( 0.000000000000000000, 0.000000000000000000, 1.000000000000000000 ) ) ;
#351 = ORIENTED_EDGE ( 'NONE', *, *, #1167, .F. ) ;
#352 = EDGE_CURVE ( 'NONE', #505, #392, #1003, .T. ) ;
#353 =( LENGTH_UNIT ( ) NAMED_UNIT ( * ) SI_UNIT ( .MILLI., .METRE. ) );
#354 = VERTEX_POINT ( 'NONE', #1095 ) ;
#355 = CARTESIAN_POINT ( 'NONE',  ( 18.77763754782500172, 4.336808689942017736E-16, 0.2500000000000834888 ) ) ;
#356 = VERTEX_POINT ( 'NONE', #709 ) ;
#357 = EDGE_LOOP ( 'NONE', ( #801, #1069, #1175, #1261 ) ) ;
#358 = EDGE_CURVE ( 'NONE', #35, #948, #1201, .T. ) ;
#359 = ORIENTED_EDGE ( 'NONE', *, *, #713, .F. ) ;
#360 = FACE_OUTER_BOUND ( 'NONE', #914, .T. ) ;
#361 = DIRECTION ( 'NONE',  ( -0.000000000000000000, -0.000000000000000000, -1.000000000000000000 ) ) ;
#362 = CIRCLE ( 'NONE', #1108, 2.489999999999999325 ) ;
#363 = ORIENTED_EDGE ( 'NONE', *, *, #667, .F. ) ;
#364 =( LENGTH_UNIT ( ) NAMED_UNIT ( * ) SI_UNIT ( .MILLI., .METRE. ) );
#365 = CIRCLE ( 'NONE', #1088, 2.500000000000000000 ) ;
#366 = CIRCLE ( 'NONE', #123, 2.489999999999999325 ) ;
#367 = VECTOR ( 'NONE', #112, 1000.000000000000000 ) ;
#368 = EDGE_LOOP ( 'NONE', ( #1013, #235, #104, #204 ) ) ;
#369 = CARTESIAN_POINT ( 'NONE',  ( 13.83699443819620001, 0.9417165789840755696, 6.050000000000110845 ) ) ;
#370 = ORIENTED_EDGE ( 'NONE', *, *, #151, .T. ) ;
#371 = CARTESIAN_POINT ( 'NONE',  ( 6.952730031573559621, 0.8773147407512820184, 0.2500000000000834888 ) ) ;
#372 = CARTESIAN_POINT ( 'NONE',  ( 21.27763754782499817, 0.000000000000000000, 6.050000000000110845 ) ) ;
#373 = EDGE_CURVE ( 'NONE', #420, #874, #365, .T. ) ;
#374 = DIRECTION ( 'NONE',  ( 0.000000000000000000, 1.000000000000000000, 0.000000000000000000 ) ) ;
#375 = VERTEX_POINT ( 'NONE', #6 ) ;
#376 = VECTOR ( 'NONE', #432, 1000.000000000000000 ) ;
#377 = DIRECTION ( 'NONE',  ( 0.000000000000000000, 0.000000000000000000, 1.000000000000000000 ) ) ;
#378 = VERTEX_POINT ( 'NONE', #419 ) ;
#379 = CARTESIAN_POINT ( 'NONE',  ( 21.27763754782499817, 0.000000000000000000, 11.24999999999998224 ) ) ;
#380 = EDGE_CURVE ( 'NONE', #609, #295, #526, .T. ) ;
#381 = VERTEX_POINT ( 'NONE', #797 ) ;
#382 = DIRECTION ( 'NONE',  ( 0.000000000000000000, 0.000000000000000000, 1.000000000000000000 ) ) ;
#383 = ORIENTED_EDGE ( 'NONE', *, *, #537, .T. ) ;
#384 = VECTOR ( 'NONE', #638, 1000.000000000000000 ) ;
#385 = FACE_OUTER_BOUND ( 'NONE', #998, .T. ) ;
#386 = EDGE_LOOP ( 'NONE', ( #1243, #117, #122, #453 ) ) ;
#387 = ADVANCED_FACE ( 'NONE', ( #1188 ), #300, .F. ) ;
#388 = CARTESIAN_POINT ( 'NONE',  ( 18.78763754782499973, 0.000000000000000000, 17.24999999999998579 ) ) ;
#389 = VERTEX_POINT ( 'NONE', #22 ) ;
#390 = DIRECTION ( 'NONE',  ( 0.000000000000000000, 0.000000000000000000, 1.000000000000000000 ) ) ;
#391 = DIRECTION ( 'NONE',  ( 0.000000000000000000, 0.000000000000000000, -1.000000000000000000 ) ) ;
#392 = VERTEX_POINT ( 'NONE', #690 ) ;
#393 = AXIS2_PLACEMENT_3D ( 'NONE', #1250, #782, #270 ) ;
#394 = VECTOR ( 'NONE', #1121, 1000.000000000000000 ) ;
#395 = CIRCLE ( 'NONE', #241, 3.499999999999999556 ) ;
#396 = CARTESIAN_POINT ( 'NONE',  ( 36.27763754782499461, 3.500000000000000000, 11.25999999999999979 ) ) ;
#397 = EDGE_CURVE ( 'NONE', #683, #1111, #495, .T. ) ;
#398 = ORIENTED_EDGE ( 'NONE', *, *, #1039, .F. ) ;
#399 = CARTESIAN_POINT ( 'NONE',  ( 23.77763754782499817, 0.000000000000000000, 0.2500000000000834888 ) ) ;
#400 = DIRECTION ( 'NONE',  ( 1.000000000000000000, 0.000000000000000000, 0.000000000000000000 ) ) ;
#401 = ORIENTED_EDGE ( 'NONE', *, *, #414, .T. ) ;
#402 = CARTESIAN_POINT ( 'NONE',  ( 36.27763754782499461, -3.500000000000000000, 11.25999999999999979 ) ) ;
#403 = VERTEX_POINT ( 'NONE', #990 ) ;
#404 = CARTESIAN_POINT ( 'NONE',  ( 4.048346145085454317, -10.44625168483803890, 0.000000000000000000 ) ) ;
#405 = ADVANCED_FACE ( 'NONE', ( #809 ), #106, .T. ) ;
#406 = DIRECTION ( 'NONE',  ( -1.000000000000000000, -0.000000000000000000, -0.000000000000000000 ) ) ;
#407 = AXIS2_PLACEMENT_3D ( 'NONE', #565, #170, #1063 ) ;
#408 = CIRCLE ( 'NONE', #575, 7.499999999999999112 ) ;
#409 = ORIENTED_EDGE ( 'NONE', *, *, #738, .T. ) ;
#410 = CARTESIAN_POINT ( 'NONE',  ( 21.27763754782499817, 0.000000000000000000, 11.24999999999998224 ) ) ;
#411 = EDGE_LOOP ( 'NONE', ( #510, #177, #858, #370 ) ) ;
#412 = DIRECTION ( 'NONE',  ( 1.000000000000000000, -3.035766082959415373E-16, 0.000000000000000000 ) ) ;
#413 = CARTESIAN_POINT ( 'NONE',  ( 36.27763754782499461, 2.489999999999998437, 11.25999999999999979 ) ) ;
#414 = EDGE_CURVE ( 'NONE', #597, #354, #1193, .T. ) ;
#415 = ORIENTED_EDGE ( 'NONE', *, *, #158, .F. ) ;
#416 = FACE_OUTER_BOUND ( 'NONE', #1096, .T. ) ;
#417 = EDGE_LOOP ( 'NONE', ( #855, #169 ) ) ;
#418 = CARTESIAN_POINT ( 'NONE',  ( 23.75785191770126659, -0.3139055263280247643, 6.050000000000110845 ) ) ;
#419 = CARTESIAN_POINT ( 'NONE',  ( 5.287051338214239671, -0.5232677866088448759, 0.000000000000000000 ) ) ;
#420 = VERTEX_POINT ( 'NONE', #319 ) ;
#421 = ADVANCED_FACE ( 'NONE', ( #1106, #997 ), #225, .T. ) ;
#422 = ADVANCED_FACE ( 'NONE', ( #742 ), #431, .F. ) ;
#423 = DIRECTION ( 'NONE',  ( 1.000000000000000000, 0.000000000000000000, 0.000000000000000000 ) ) ;
#424 = CARTESIAN_POINT ( 'NONE',  ( 36.27763754782499461, 0.000000000000000000, 14.25999999999999801 ) ) ;
#425 = AXIS2_PLACEMENT_3D ( 'NONE', #1077, #318, #500 ) ;
#426 = DIRECTION ( 'NONE',  ( 0.2904383886488113853, -0.9568936944086746665, 0.000000000000000000 ) ) ;
#427 = ORIENTED_EDGE ( 'NONE', *, *, #436, .T. ) ;
#428 = CARTESIAN_POINT ( 'NONE',  ( 21.27763754782499817, 0.000000000000000000, 17.24999999999998579 ) ) ;
#429 = EDGE_CURVE ( 'NONE', #222, #489, #125, .T. ) ;
#430 = DIRECTION ( 'NONE',  ( 0.000000000000000000, 0.000000000000000000, 1.000000000000000000 ) ) ;
#431 = PLANE ( 'NONE',  #60 ) ;
#432 = DIRECTION ( 'NONE',  ( -0.000000000000000000, -0.000000000000000000, -1.000000000000000000 ) ) ;
#433 = VECTOR ( 'NONE', #100, 1000.000000000000227 ) ;
#434 = FACE_OUTER_BOUND ( 'NONE', #880, .T. ) ;
#435 = DIRECTION ( 'NONE',  ( 1.000000000000000000, -3.035766082959415373E-16, 0.000000000000000000 ) ) ;
#436 = EDGE_CURVE ( 'NONE', #798, #1158, #1220, .T. ) ;
#437 = DIRECTION ( 'NONE',  ( 1.000000000000000000, 0.000000000000000000, 0.000000000000000000 ) ) ;
#438 = PLANE ( 'NONE',  #1229 ) ;
#439 = ORIENTED_EDGE ( 'NONE', *, *, #744, .F. ) ;
#440 = DIRECTION ( 'NONE',  ( 0.000000000000000000, 0.000000000000000000, -1.000000000000000000 ) ) ;
#441 = CARTESIAN_POINT ( 'NONE',  ( 1.135018195228435500, -0.004961491949114198857, 0.2500000000000834888 ) ) ;
#442 = CARTESIAN_POINT ( 'NONE',  ( 18.83835486637948975, 0.5000000000000000000, 17.24999999999998579 ) ) ;
#443 = VECTOR ( 'NONE', #34, 1000.000000000000114 ) ;
#444 = ADVANCED_FACE ( 'NONE', ( #839 ), #257, .F. ) ;
#445 = CARTESIAN_POINT ( 'NONE',  ( 21.27763754782499817, 3.500000000000000000, 11.25999999999999979 ) ) ;
#446 = VERTEX_POINT ( 'NONE', #159 ) ;
#447 = AXIS2_PLACEMENT_3D ( 'NONE', #816, #702, #27 ) ;
#448 = VECTOR ( 'NONE', #799, 1000.000000000000000 ) ;
#449 = DIRECTION ( 'NONE',  ( 1.000000000000000000, 0.000000000000000000, 0.000000000000000000 ) ) ;
#450 = PLANE ( 'NONE',  #1075 ) ;
#451 = LINE ( 'NONE', #68, #376 ) ;
#452 = ADVANCED_FACE ( 'NONE', ( #1133 ), #450, .F. ) ;
#453 = ORIENTED_EDGE ( 'NONE', *, *, #315, .T. ) ;
#454 = APPLICATION_PROTOCOL_DEFINITION ( 'draft international standard', 'automotive_design', 1998, #650 ) ;
#455 = LINE ( 'NONE', #1171, #595 ) ;
#456 = ORIENTED_EDGE ( 'NONE', *, *, #1254, .F. ) ;
#457 = SURFACE_STYLE_USAGE ( .BOTH. , #875 ) ;
#458 = DIRECTION ( 'NONE',  ( 0.000000000000000000, 0.000000000000000000, -1.000000000000000000 ) ) ;
#459 = ORIENTED_EDGE ( 'NONE', *, *, #913, .T. ) ;
#460 = ORIENTED_EDGE ( 'NONE', *, *, #475, .F. ) ;
#461 = PLANE ( 'NONE',  #36 ) ;
#462 = DIRECTION ( 'NONE',  ( 0.000000000000000000, 0.000000000000000000, -1.000000000000000000 ) ) ;
#463 = ORIENTED_EDGE ( 'NONE', *, *, #246, .F. ) ;
#464 = VECTOR ( 'NONE', #847, 1000.000000000000000 ) ;
#465 = DIRECTION ( 'NONE',  ( 1.000000000000000000, 0.000000000000000000, 0.000000000000000000 ) ) ;
#466 = EDGE_CURVE ( 'NONE', #126, #19, #133, .T. ) ;
#467 = VECTOR ( 'NONE', #630, 1000.000000000000114 ) ;
#468 = CARTESIAN_POINT ( 'NONE',  ( 21.27763754782499817, 0.000000000000000000, 7.050000000000000711 ) ) ;
#469 = LINE ( 'NONE', #74, #1117 ) ;
#470 = ORIENTED_EDGE ( 'NONE', *, *, #542, .T. ) ;
#471 = DIRECTION ( 'NONE',  ( 1.000000000000000000, 0.000000000000000000, 0.000000000000000000 ) ) ;
#472 = DIRECTION ( 'NONE',  ( -0.000000000000000000, -0.000000000000000000, -1.000000000000000000 ) ) ;
#473 = ADVANCED_FACE ( 'NONE', ( #538, #823 ), #244, .F. ) ;
#474 =( LENGTH_UNIT ( ) NAMED_UNIT ( * ) SI_UNIT ( .MILLI., .METRE. ) );
#475 = EDGE_CURVE ( 'NONE', #1145, #301, #1016, .T. ) ;
#476 = DIRECTION ( 'NONE',  ( -1.000000000000000000, 0.000000000000000000, 0.000000000000000000 ) ) ;
#477 = VERTEX_POINT ( 'NONE', #442 ) ;
#478 = DIRECTION ( 'NONE',  ( -0.1255622105312099168, -0.9920857479505065246, 0.000000000000000000 ) ) ;
#479 = ORIENTED_EDGE ( 'NONE', *, *, #682, .F. ) ;
#480 = DIRECTION ( 'NONE',  ( 0.000000000000000000, 0.000000000000000000, -1.000000000000000000 ) ) ;
#481 = EDGE_CURVE ( 'NONE', #254, #1104, #712, .T. ) ;
#482 = ORIENTED_EDGE ( 'NONE', *, *, #466, .F. ) ;
#483 = STYLED_ITEM ( 'NONE', ( #856 ), #553 ) ;
#484 = DIRECTION ( 'NONE',  ( 0.000000000000000000, -1.000000000000000000, 0.000000000000000000 ) ) ;
#485 = VERTEX_POINT ( 'NONE', #1033 ) ;
#486 = CARTESIAN_POINT ( 'NONE',  ( 5.287051338214239671, -0.5232677866088448759, 0.2500000000000834888 ) ) ;
#487 = CIRCLE ( 'NONE', #145, 10.00000000000000178 ) ;
#488 = LINE ( 'NONE', #369, #2 ) ;
#489 = VERTEX_POINT ( 'NONE', #355 ) ;
#490 = EDGE_CURVE ( 'NONE', #902, #23, #627, .T. ) ;
#491 = CARTESIAN_POINT ( 'NONE',  ( 19.82544560458094907, -4.784468472043379883, 0.2500000000000834888 ) ) ;
#492 = ORIENTED_EDGE ( 'NONE', *, *, #796, .T. ) ;
#493 = DIRECTION ( 'NONE',  ( 0.000000000000000000, 0.000000000000000000, -1.000000000000000000 ) ) ;
#494 = CIRCLE ( 'NONE', #1255, 2.489999999999999325 ) ;
#495 = LINE ( 'NONE', #1086, #1130 ) ;
#496 = EDGE_LOOP ( 'NONE', ( #668, #558 ) ) ;
#497 = AXIS2_PLACEMENT_3D ( 'NONE', #149, #458, #1241 ) ;
#498 = CARTESIAN_POINT ( 'NONE',  ( 28.71828065745379988, -0.9417165789840746815, 6.050000000000110845 ) ) ;
#499 = ORIENTED_EDGE ( 'NONE', *, *, #181, .T. ) ;
#500 = DIRECTION ( 'NONE',  ( -0.9920857479505066356, 0.1255622105312099446, 0.000000000000000000 ) ) ;
#501 = DIRECTION ( 'NONE',  ( 0.9568936944086746665, -0.2904383886488113853, 0.000000000000000000 ) ) ;
#502 = ORIENTED_EDGE ( 'NONE', *, *, #1279, .F. ) ;
#503 = DIRECTION ( 'NONE',  ( 0.000000000000000000, 0.000000000000000000, 1.000000000000000000 ) ) ;
#504 = AXIS2_PLACEMENT_3D ( 'NONE', #1152, #659, #171 ) ;
#505 = VERTEX_POINT ( 'NONE', #748 ) ;
#506 = DIRECTION ( 'NONE',  ( 0.000000000000000000, 0.000000000000000000, 1.000000000000000000 ) ) ;
#507 = EDGE_CURVE ( 'NONE', #761, #691, #340, .T. ) ;
#508 = CARTESIAN_POINT ( 'NONE',  ( 1.135018195228436166, 0.004961491949114632538, 0.2500000000000834888 ) ) ;
#509 = AXIS2_PLACEMENT_3D ( 'NONE', #830, #522, #156 ) ;
#510 = ORIENTED_EDGE ( 'NONE', *, *, #233, .F. ) ;
#511 = DIRECTION ( 'NONE',  ( 0.000000000000000000, 0.000000000000000000, 1.000000000000000000 ) ) ;
#512 = ORIENTED_EDGE ( 'NONE', *, *, #281, .F. ) ;
#513 = FACE_OUTER_BOUND ( 'NONE', #162, .T. ) ;
#514 = ADVANCED_FACE ( 'NONE', ( #141 ), #925, .T. ) ;
#515 = LINE ( 'NONE', #622, #1053 ) ;
#516 = ORIENTED_EDGE ( 'NONE', *, *, #859, .F. ) ;
#517 = DIRECTION ( 'NONE',  ( 0.000000000000000000, 0.000000000000000000, -1.000000000000000000 ) ) ;
#518 = CARTESIAN_POINT ( 'NONE',  ( 23.75785191770126659, -0.3139055263280247643, 11.24999999999998224 ) ) ;
#519 = DIRECTION ( 'NONE',  ( -1.000000000000000000, -0.000000000000000000, -0.000000000000000000 ) ) ;
#520 = VERTEX_POINT ( 'NONE', #828 ) ;
#521 = EDGE_CURVE ( 'NONE', #1247, #761, #611, .T. ) ;
#522 = DIRECTION ( 'NONE',  ( 0.000000000000000000, 0.000000000000000000, 1.000000000000000000 ) ) ;
#523 = DIRECTION ( 'NONE',  ( 1.000000000000000000, 0.000000000000000000, 0.000000000000000000 ) ) ;
#524 = AXIS2_PLACEMENT_3D ( 'NONE', #1027, #41, #646 ) ;
#525 = DIRECTION ( 'NONE',  ( 0.000000000000000000, -0.000000000000000000, -1.000000000000000000 ) ) ;
#526 = CIRCLE ( 'NONE', #633, 2.499999999999998668 ) ;
#527 = AXIS2_PLACEMENT_3D ( 'NONE', #272, #663, #478 ) ;
#528 = ORIENTED_EDGE ( 'NONE', *, *, #253, .F. ) ;
#529 = ADVANCED_FACE ( 'NONE', ( #833 ), #251, .T. ) ;
#530 = CARTESIAN_POINT ( 'NONE',  ( 4.048346145085459646, 10.44625168483803890, 0.2500000000000834888 ) ) ;
#531 = CARTESIAN_POINT ( 'NONE',  ( 21.27763754782499817, 0.000000000000000000, 7.050000000000000711 ) ) ;
#532 = CARTESIAN_POINT ( 'NONE',  ( 21.27763754782499817, 2.489999999999998437, 14.25999999999999801 ) ) ;
#533 = FACE_OUTER_BOUND ( 'NONE', #863, .T. ) ;
#534 = VERTEX_POINT ( 'NONE', #936 ) ;
#535 = DIRECTION ( 'NONE',  ( -0.9920857479505066356, 0.1255622105312099446, 0.000000000000000000 ) ) ;
#536 = DIRECTION ( 'NONE',  ( 1.000000000000000000, 0.000000000000000000, 0.000000000000000000 ) ) ;
#537 = EDGE_CURVE ( 'NONE', #761, #311, #865, .T. ) ;
#538 = FACE_BOUND ( 'NONE', #345, .T. ) ;
#539 = DIRECTION ( 'NONE',  ( -0.9920857479505065246, 0.1255622105312099168, 0.000000000000000000 ) ) ;
#540 = EDGE_LOOP ( 'NONE', ( #92, #271, #988, #848, #995 ) ) ;
#541 = LINE ( 'NONE', #1219, #285 ) ;
#542 = EDGE_CURVE ( 'NONE', #130, #356, #341, .T. ) ;
#543 = DIRECTION ( 'NONE',  ( -0.000000000000000000, 0.000000000000000000, -1.000000000000000000 ) ) ;
#544 = CIRCLE ( 'NONE', #838, 5.000000000000000888 ) ;
#545 = DIRECTION ( 'NONE',  ( 1.000000000000000000, 0.000000000000000000, 0.000000000000000000 ) ) ;
#546 = ORIENTED_EDGE ( 'NONE', *, *, #352, .T. ) ;
#547 = VECTOR ( 'NONE', #1123, 1000.000000000000000 ) ;
#548 = CARTESIAN_POINT ( 'NONE',  ( 4.048346145085459646, 10.44625168483803890, 0.000000000000000000 ) ) ;
#549 = VERTEX_POINT ( 'NONE', #1159 ) ;
#550 = CARTESIAN_POINT ( 'NONE',  ( 6.952730031573559621, 0.8773147407512820184, 0.2500000000000834888 ) ) ;
#551 = DIRECTION ( 'NONE',  ( -1.000000000000000000, 0.000000000000000000, 0.000000000000000000 ) ) ;
#552 = EDGE_CURVE ( 'NONE', #1209, #378, #1269, .T. ) ;
#553 = MANIFOLD_SOLID_BREP ( '¶ñ®Æ-¦ùªø1', #48 ) ;
#554 = ORIENTED_EDGE ( 'NONE', *, *, #852, .T. ) ;
#555 = DIRECTION ( 'NONE',  ( 0.000000000000000000, 0.000000000000000000, 1.000000000000000000 ) ) ;
#556 = MANIFOLD_SOLID_BREP ( 'NONE', #196 ) ;
#557 =( NAMED_UNIT ( * ) SI_UNIT ( $, .STERADIAN. ) SOLID_ANGLE_UNIT ( ) );
#558 = ORIENTED_EDGE ( 'NONE', *, *, #380, .F. ) ;
#559 = VECTOR ( 'NONE', #1166, 1000.000000000000000 ) ;
#560 = CIRCLE ( 'NONE', #727, 10.00000000000000000 ) ;
#561 = DIRECTION ( 'NONE',  ( 0.000000000000000000, 0.000000000000000000, -1.000000000000000000 ) ) ;
#562 = EDGE_LOOP ( 'NONE', ( #673, #194, #1142, #1168 ) ) ;
#563 = EDGE_CURVE ( 'NONE', #446, #968, #166, .T. ) ;
#564 = APPLICATION_PROTOCOL_DEFINITION ( 'draft international standard', 'automotive_design', 1998, #1071 ) ;
#565 = CARTESIAN_POINT ( 'NONE',  ( 1.135637547824999816, 0.000000000000000000, 0.2500000000000834888 ) ) ;
#566 = ORIENTED_EDGE ( 'NONE', *, *, #730, .T. ) ;
#567 = CARTESIAN_POINT ( 'NONE',  ( 36.27763754782499461, 2.489999999999998437, 14.25999999999999801 ) ) ;
#568 = DIRECTION ( 'NONE',  ( 0.000000000000000000, 0.000000000000000000, 1.000000000000000000 ) ) ;
#569 = COLOUR_RGB ( '',0.7921568627450980005, 0.8196078431372548767, 0.9333333333333333481 ) ;
#570 = ORIENTED_EDGE ( 'NONE', *, *, #358, .F. ) ;
#571 = AXIS2_PLACEMENT_3D ( 'NONE', #1015, #1207, #306 ) ;
#572 = ADVANCED_FACE ( 'NONE', ( #360 ), #754, .T. ) ;
#573 = CIRCLE ( 'NONE', #878, 3.500000000000003109 ) ;
#574 = CYLINDRICAL_SURFACE ( 'NONE', #1154, 3.500000000000003109 ) ;
#575 = AXIS2_PLACEMENT_3D ( 'NONE', #1138, #826, #535 ) ;
#576 = CARTESIAN_POINT ( 'NONE',  ( 1.135018195228435500, -0.004961491949114198857, 0.000000000000000000 ) ) ;
#577 = DIRECTION ( 'NONE',  ( 0.000000000000000000, 0.000000000000000000, -1.000000000000000000 ) ) ;
#578 = EDGE_LOOP ( 'NONE', ( #745, #973 ) ) ;
#579 = DIRECTION ( 'NONE',  ( 0.000000000000000000, 0.000000000000000000, -1.000000000000000000 ) ) ;
#580 = EDGE_LOOP ( 'NONE', ( #111, #1235, #197, #805 ) ) ;
#581 = ADVANCED_FACE ( 'NONE', ( #73 ), #461, .F. ) ;
#582 = AXIS2_PLACEMENT_3D ( 'NONE', #652, #1226, #437 ) ;
#583 = CARTESIAN_POINT ( 'NONE',  ( 21.27763754782499817, -2.489999999999998437, 14.25999999999999801 ) ) ;
#584 = ORIENTED_EDGE ( 'NONE', *, *, #119, .F. ) ;
#585 = LINE ( 'NONE', #296, #904 ) ;
#586 = ORIENTED_EDGE ( 'NONE', *, *, #1254, .T. ) ;
#587 = CARTESIAN_POINT ( 'NONE',  ( 18.78763754782499973, 0.000000000000000000, 17.24999999999998579 ) ) ;
#588 = EDGE_CURVE ( 'NONE', #1158, #798, #1234, .T. ) ;
#589 = LINE ( 'NONE', #172, #725 ) ;
#590 = ORIENTED_EDGE ( 'NONE', *, *, #1279, .T. ) ;
#591 = AXIS2_PLACEMENT_3D ( 'NONE', #688, #903, #1008 ) ;
#592 = FACE_OUTER_BOUND ( 'NONE', #851, .T. ) ;
#593 = ORIENTED_EDGE ( 'NONE', *, *, #819, .T. ) ;
#594 = LINE ( 'NONE', #587, #1258 ) ;
#595 = VECTOR ( 'NONE', #954, 1000.000000000000000 ) ;
#596 = DIRECTION ( 'NONE',  ( -0.000000000000000000, -0.000000000000000000, -1.000000000000000000 ) ) ;
#597 = VERTEX_POINT ( 'NONE', #1165 ) ;
#598 = LINE ( 'NONE', #388, #228 ) ;
#599 = ORIENTED_EDGE ( 'NONE', *, *, #604, .T. ) ;
#600 = CARTESIAN_POINT ( 'NONE',  ( 23.76763754782499660, 4.336808689942017736E-16, 17.24999999999998579 ) ) ;
#601 = DIRECTION ( 'NONE',  ( -0.9922983898229190691, -0.1238705193128786103, 0.000000000000000000 ) ) ;
#602 = ORIENTED_EDGE ( 'NONE', *, *, #769, .T. ) ;
#603 = AXIS2_PLACEMENT_3D ( 'NONE', #937, #647, #545 ) ;
#604 = EDGE_CURVE ( 'NONE', #403, #1058, #984, .T. ) ;
#605 = CARTESIAN_POINT ( 'NONE',  ( 18.77763754782500172, 4.336808689942017736E-16, 0.2500000000000834888 ) ) ;
#606 = ORIENTED_EDGE ( 'NONE', *, *, #721, .T. ) ;
#607 = LINE ( 'NONE', #399, #1150 ) ;
#608 = DIRECTION ( 'NONE',  ( 0.000000000000000000, 0.000000000000000000, 1.000000000000000000 ) ) ;
#609 = VERTEX_POINT ( 'NONE', #981 ) ;
#610 = CARTESIAN_POINT ( 'NONE',  ( 23.75785191770126659, -0.3139055263280247643, 11.24999999999998224 ) ) ;
#611 = CIRCLE ( 'NONE', #821, 2.489999999999999325 ) ;
#612 = EDGE_CURVE ( 'NONE', #222, #295, #607, .T. ) ;
#613 = ORIENTED_EDGE ( 'NONE', *, *, #61, .F. ) ;
#614 = CARTESIAN_POINT ( 'NONE',  ( 21.27763754782499817, 0.000000000000000000, 0.2500000000000834888 ) ) ;
#615 = CARTESIAN_POINT ( 'NONE',  ( 21.27763754782499817, 0.000000000000000000, 11.24999999999998224 ) ) ;
#616 = CIRCLE ( 'NONE', #1091, 7.499999999999999112 ) ;
#617 = AXIS2_PLACEMENT_3D ( 'NONE', #237, #517, #933 ) ;
#618 = ORIENTED_EDGE ( 'NONE', *, *, #967, .T. ) ;
#619 = CARTESIAN_POINT ( 'NONE',  ( 21.27763754782499817, -3.500000000000000000, 14.25999999999999801 ) ) ;
#620 = ORIENTED_EDGE ( 'NONE', *, *, #507, .T. ) ;
#621 = CARTESIAN_POINT ( 'NONE',  ( 36.27763754782499461, -3.500000000000000000, 14.25999999999999801 ) ) ;
#622 = CARTESIAN_POINT ( 'NONE',  ( 5.287051338214229901, 0.5232677866088432106, 0.2500000000000834888 ) ) ;
#623 = VECTOR ( 'NONE', #82, 1000.000000000000000 ) ;
#624 = ORIENTED_EDGE ( 'NONE', *, *, #752, .T. ) ;
#625 = PLANE ( 'NONE',  #1197 ) ;
#626 = DIRECTION ( 'NONE',  ( 1.000000000000000000, 0.000000000000000000, 0.000000000000000000 ) ) ;
#627 = LINE ( 'NONE', #1040, #443 ) ;
#628 = EDGE_CURVE ( 'NONE', #968, #1148, #1200, .T. ) ;
#629 = DIRECTION ( 'NONE',  ( -1.301042606982605814E-16, 1.000000000000000000, 0.000000000000000000 ) ) ;
#630 = DIRECTION ( 'NONE',  ( -0.9922983898229190691, -0.1238705193128786103, 0.000000000000000000 ) ) ;
#631 = CARTESIAN_POINT ( 'NONE',  ( 21.27763754782499817, -2.489999999999998437, 14.25999999999999801 ) ) ;
#632 = DIRECTION ( 'NONE',  ( 0.000000000000000000, 0.000000000000000000, 1.000000000000000000 ) ) ;
#633 = AXIS2_PLACEMENT_3D ( 'NONE', #135, #391, #28 ) ;
#634 = DIRECTION ( 'NONE',  ( 1.000000000000000000, 0.000000000000000000, 0.000000000000000000 ) ) ;
#635 = AXIS2_PLACEMENT_3D ( 'NONE', #993, #1097, #3 ) ;
#636 = EDGE_CURVE ( 'NONE', #392, #485, #544, .T. ) ;
#637 = CYLINDRICAL_SURFACE ( 'NONE', #347, 10.00000000000000000 ) ;
#638 = DIRECTION ( 'NONE',  ( 1.000000000000000000, 0.000000000000000000, 0.000000000000000000 ) ) ;
#639 = CARTESIAN_POINT ( 'NONE',  ( 36.27763754782499461, 0.000000000000000000, 14.25999999999999801 ) ) ;
#640 = DIRECTION ( 'NONE',  ( -1.000000000000000000, -0.000000000000000000, -0.000000000000000000 ) ) ;
#641 = ORIENTED_EDGE ( 'NONE', *, *, #1039, .T. ) ;
#642 = CARTESIAN_POINT ( 'NONE',  ( 36.27763754782499461, -2.489999999999998437, 14.25999999999999801 ) ) ;
#643 = EDGE_CURVE ( 'NONE', #259, #694, #775, .T. ) ;
#644 = CARTESIAN_POINT ( 'NONE',  ( 21.27763754782499817, -0.5000000000000000000, 15.94999999999990870 ) ) ;
#645 = AXIS2_PLACEMENT_3D ( 'NONE', #428, #1122, #423 ) ;
#646 = DIRECTION ( 'NONE',  ( 1.000000000000000000, 0.000000000000000000, 0.000000000000000000 ) ) ;
#647 = DIRECTION ( 'NONE',  ( 0.000000000000000000, 0.000000000000000000, 1.000000000000000000 ) ) ;
#648 = ORIENTED_EDGE ( 'NONE', *, *, #321, .F. ) ;
#649 = DIRECTION ( 'NONE',  ( 0.000000000000000000, 0.000000000000000000, 1.000000000000000000 ) ) ;
#650 = APPLICATION_CONTEXT ( 'automotive_design' ) ;
#651 = EDGE_LOOP ( 'NONE', ( #363, #114, #265, #383 ) ) ;
#652 = CARTESIAN_POINT ( 'NONE',  ( 21.27763754782499817, 0.000000000000000000, 11.25999999999999979 ) ) ;
#653 =( GEOMETRIC_REPRESENTATION_CONTEXT ( 3 ) GLOBAL_UNCERTAINTY_ASSIGNED_CONTEXT ( ( #909 ) ) GLOBAL_UNIT_ASSIGNED_CONTEXT ( ( #178, #86, #184 ) ) REPRESENTATION_CONTEXT ( 'NONE', 'WORKASPACE' ) );
#654 = PLANE ( 'NONE',  #497 ) ;
#655 = ORIENTED_EDGE ( 'NONE', *, *, #674, .T. ) ;
#656 = VECTOR ( 'NONE', #579, 1000.000000000000000 ) ;
#657 = DIRECTION ( 'NONE',  ( 0.000000000000000000, 0.000000000000000000, 1.000000000000000000 ) ) ;
#658 = ORIENTED_EDGE ( 'NONE', *, *, #852, .F. ) ;
#659 = DIRECTION ( 'NONE',  ( 0.000000000000000000, 0.000000000000000000, -1.000000000000000000 ) ) ;
#660 = EDGE_CURVE ( 'NONE', #910, #704, #224, .T. ) ;
#661 = CARTESIAN_POINT ( 'NONE',  ( 23.77763754782499817, 0.000000000000000000, 0.2500000000000834888 ) ) ;
#662 = ORIENTED_EDGE ( 'NONE', *, *, #928, .F. ) ;
#663 = DIRECTION ( 'NONE',  ( -0.000000000000000000, 0.000000000000000000, -1.000000000000000000 ) ) ;
#664 = ORIENTED_EDGE ( 'NONE', *, *, #1153, .F. ) ;
#665 = DIRECTION ( 'NONE',  ( 0.000000000000000000, -0.000000000000000000, 1.000000000000000000 ) ) ;
#666 = DIRECTION ( 'NONE',  ( 0.000000000000000000, 0.000000000000000000, -1.000000000000000000 ) ) ;
#667 = EDGE_CURVE ( 'NONE', #948, #311, #362, .T. ) ;
#668 = ORIENTED_EDGE ( 'NONE', *, *, #315, .F. ) ;
#669 = PLANE ( 'NONE',  #862 ) ;
#670 = VERTEX_POINT ( 'NONE', #5 ) ;
#671 = CYLINDRICAL_SURFACE ( 'NONE', #67, 0.004999999999999796274 ) ;
#672 = AXIS2_PLACEMENT_3D ( 'NONE', #468, #1105, #1002 ) ;
#673 = ORIENTED_EDGE ( 'NONE', *, *, #542, .F. ) ;
#674 = EDGE_CURVE ( 'NONE', #23, #378, #223, .T. ) ;
#675 = AXIS2_PLACEMENT_3D ( 'NONE', #348, #266, #1043 ) ;
#676 = DIRECTION ( 'NONE',  ( 1.000000000000000000, 0.000000000000000000, 0.000000000000000000 ) ) ;
#677 = VECTOR ( 'NONE', #310, 1000.000000000000000 ) ;
#678 = FILL_AREA_STYLE ('',( #284 ) ) ;
#679 = CARTESIAN_POINT ( 'NONE',  ( 19.82544560458094907, 4.784468472043379883, 0.2500000000000834888 ) ) ;
#680 = ORIENTED_EDGE ( 'NONE', *, *, #221, .T. ) ;
#681 = CARTESIAN_POINT ( 'NONE',  ( 24.74993766565177467, -0.4394677368592344591, 7.050000000000000711 ) ) ;
#682 = EDGE_CURVE ( 'NONE', #489, #222, #1087, .T. ) ;
#683 = VERTEX_POINT ( 'NONE', #789 ) ;
#684 = CARTESIAN_POINT ( 'NONE',  ( 1.135637547824999816, 0.000000000000000000, 0.2500000000000834888 ) ) ;
#685 = ORIENTED_EDGE ( 'NONE', *, *, #1030, .F. ) ;
#686 = CYLINDRICAL_SURFACE ( 'NONE', #843, 2.499999999999998668 ) ;
#687 = ORIENTED_EDGE ( 'NONE', *, *, #108, .T. ) ;
#688 = CARTESIAN_POINT ( 'NONE',  ( 1.135637547824999816, 0.000000000000000000, 0.2500000000000834888 ) ) ;
#689 = EDGE_CURVE ( 'NONE', #1145, #301, #312, .T. ) ;
#690 = CARTESIAN_POINT ( 'NONE',  ( 19.82544560458094907, -4.784468472043379883, 0.000000000000000000 ) ) ;
#691 = VERTEX_POINT ( 'NONE', #808 ) ;
#692 = DIRECTION ( 'NONE',  ( -1.000000000000000000, -0.000000000000000000, -0.000000000000000000 ) ) ;
#693 = VECTOR ( 'NONE', #40, 1000.000000000000000 ) ;
#694 = VERTEX_POINT ( 'NONE', #1283 ) ;
#695 = DIRECTION ( 'NONE',  ( 0.000000000000000000, 0.000000000000000000, -1.000000000000000000 ) ) ;
#696 = AXIS2_PLACEMENT_3D ( 'NONE', #346, #908, #150 ) ;
#697 = CARTESIAN_POINT ( 'NONE',  ( 1.135018195228436166, 0.004961491949114632538, 0.000000000000000000 ) ) ;
#698 = ADVANCED_FACE ( 'NONE', ( #513 ), #989, .T. ) ;
#699 = ORIENTED_EDGE ( 'NONE', *, *, #481, .F. ) ;
#700 = FACE_BOUND ( 'NONE', #867, .T. ) ;
#701 = ORIENTED_EDGE ( 'NONE', *, *, #397, .T. ) ;
#702 = DIRECTION ( 'NONE',  ( -0.000000000000000000, -0.000000000000000000, -1.000000000000000000 ) ) ;
#703 = DIRECTION ( 'NONE',  ( 1.000000000000000000, 0.000000000000000000, 0.000000000000000000 ) ) ;
#704 = VERTEX_POINT ( 'NONE', #418 ) ;
#705 = EDGE_CURVE ( 'NONE', #19, #35, #366, .T. ) ;
#706 = CARTESIAN_POINT ( 'NONE',  ( 21.27763754782499817, 0.000000000000000000, 0.2500000000000834888 ) ) ;
#707 = ORIENTED_EDGE ( 'NONE', *, *, #588, .T. ) ;
#708 = DIRECTION ( 'NONE',  ( 1.000000000000000000, 0.000000000000000000, 0.000000000000000000 ) ) ;
#709 = CARTESIAN_POINT ( 'NONE',  ( 17.80533742999822522, 0.4394677368592349032, 11.24999999999998224 ) ) ;
#710 = VERTEX_POINT ( 'NONE', #217 ) ;
#711 = DIRECTION ( 'NONE',  ( 0.9920857479505066356, -0.1255622105312099446, 0.000000000000000000 ) ) ;
#712 = CIRCLE ( 'NONE', #524, 3.499999999999999556 ) ;
#713 = EDGE_CURVE ( 'NONE', #1104, #1180, #986, .T. ) ;
#714 = ORIENTED_EDGE ( 'NONE', *, *, #705, .F. ) ;
#715 = DIRECTION ( 'NONE',  ( 1.000000000000000000, 0.000000000000000000, 0.000000000000000000 ) ) ;
#716 = CARTESIAN_POINT ( 'NONE',  ( 21.27763754782499817, 0.000000000000000000, 14.25999999999999801 ) ) ;
#717 = CIRCLE ( 'NONE', #943, 10.00000000000000178 ) ;
#718 = EDGE_LOOP ( 'NONE', ( #570, #1275, #1227, #566 ) ) ;
#719 = DIRECTION ( 'NONE',  ( 1.000000000000000000, 0.000000000000000000, -0.000000000000000000 ) ) ;
#720 = LINE ( 'NONE', #152, #384 ) ;
#721 = EDGE_CURVE ( 'NONE', #549, #288, #594, .T. ) ;
#722 = CARTESIAN_POINT ( 'NONE',  ( 21.27763754782499817, 0.000000000000000000, 17.24999999999998579 ) ) ;
#723 = AXIS2_PLACEMENT_3D ( 'NONE', #1100, #13, #313 ) ;
#724 = FACE_OUTER_BOUND ( 'NONE', #1282, .T. ) ;
#725 = VECTOR ( 'NONE', #361, 1000.000000000000000 ) ;
#726 = DIRECTION ( 'NONE',  ( 1.000000000000000000, 0.000000000000000000, 0.000000000000000000 ) ) ;
#727 = AXIS2_PLACEMENT_3D ( 'NONE', #857, #62, #551 ) ;
#728 = PLANE ( 'NONE',  #736 ) ;
#729 = DIRECTION ( 'NONE',  ( 0.000000000000000000, 0.000000000000000000, -1.000000000000000000 ) ) ;
#730 = EDGE_CURVE ( 'NONE', #1247, #948, #205, .T. ) ;
#731 = VERTEX_POINT ( 'NONE', #105 ) ;
#732 = LINE ( 'NONE', #131, #1259 ) ;
#733 = DIRECTION ( 'NONE',  ( -0.9568936944086746665, -0.2904383886488113853, 0.000000000000000000 ) ) ;
#734 = DIRECTION ( 'NONE',  ( -0.000000000000000000, -0.000000000000000000, -1.000000000000000000 ) ) ;
#735 = CIRCLE ( 'NONE', #571, 2.499999999999998668 ) ;
#736 = AXIS2_PLACEMENT_3D ( 'NONE', #238, #934, #1131 ) ;
#737 = DIRECTION ( 'NONE',  ( 1.000000000000000000, 0.000000000000000000, 0.000000000000000000 ) ) ;
#738 = EDGE_CURVE ( 'NONE', #378, #505, #800, .T. ) ;
#739 = ORIENTED_EDGE ( 'NONE', *, *, #552, .F. ) ;
#740 = CYLINDRICAL_SURFACE ( 'NONE', #864, 7.499999999999999112 ) ;
#741 = CARTESIAN_POINT ( 'NONE',  ( 21.27763754782499817, 0.000000000000000000, 15.94999999999990870 ) ) ;
#742 = FACE_OUTER_BOUND ( 'NONE', #964, .T. ) ;
#743 = PLANE ( 'NONE',  #603 ) ;
#744 = EDGE_CURVE ( 'NONE', #1004, #1111, #573, .T. ) ;
#745 = ORIENTED_EDGE ( 'NONE', *, *, #689, .F. ) ;
#746 =( NAMED_UNIT ( * ) SI_UNIT ( $, .STERADIAN. ) SOLID_ANGLE_UNIT ( ) );
#747 = DIRECTION ( 'NONE',  ( -1.000000000000000000, 0.000000000000000000, 0.000000000000000000 ) ) ;
#748 = CARTESIAN_POINT ( 'NONE',  ( 6.952730031573559621, -0.8773147407512867924, 0.000000000000000000 ) ) ;
#749 = DIRECTION ( 'NONE',  ( 1.000000000000000000, 0.000000000000000000, 0.000000000000000000 ) ) ;
#750 = ORIENTED_EDGE ( 'NONE', *, *, #832, .F. ) ;
#751 = FILL_AREA_STYLE_COLOUR ( '', #778 ) ;
#752 = EDGE_CURVE ( 'NONE', #191, #375, #304, .T. ) ;
#753 = ORIENTED_EDGE ( 'NONE', *, *, #744, .T. ) ;
#754 = CYLINDRICAL_SURFACE ( 'NONE', #504, 2.489999999999999325 ) ;
#755 =( GEOMETRIC_REPRESENTATION_CONTEXT ( 3 ) GLOBAL_UNCERTAINTY_ASSIGNED_CONTEXT ( ( #1129 ) ) GLOBAL_UNIT_ASSIGNED_CONTEXT ( ( #474, #1265, #293 ) ) REPRESENTATION_CONTEXT ( 'NONE', 'WORKASPACE' ) );
#756 = FACE_OUTER_BOUND ( 'NONE', #292, .T. ) ;
#757 = ORIENTED_EDGE ( 'NONE', *, *, #1144, .T. ) ;
#758 = PRODUCT_CONTEXT ( 'NONE', #650, 'mechanical' ) ;
#759 = CIRCLE ( 'NONE', #16, 2.489999999999999325 ) ;
#760 = DIRECTION ( 'NONE',  ( 1.000000000000000000, 0.000000000000000000, 0.000000000000000000 ) ) ;
#761 = VERTEX_POINT ( 'NONE', #211 ) ;
#762 = ADVANCED_FACE ( 'NONE', ( #1020 ), #1112, .T. ) ;
#763 = CARTESIAN_POINT ( 'NONE',  ( 21.27763754782499817, -3.500000000000000000, 14.25999999999999801 ) ) ;
#764 = CARTESIAN_POINT ( 'NONE',  ( 1.135637547824999816, 0.000000000000000000, 0.2500000000000834888 ) ) ;
#765 = EDGE_LOOP ( 'NONE', ( #593, #845, #63, #887, #938, #757 ) ) ;
#766 = FILL_AREA_STYLE ('',( #751 ) ) ;
#767 = AXIS2_PLACEMENT_3D ( 'NONE', #583, #374, #962 ) ;
#768 = DIRECTION ( 'NONE',  ( -1.000000000000000000, 0.000000000000000000, 0.000000000000000000 ) ) ;
#769 = EDGE_CURVE ( 'NONE', #485, #1148, #541, .T. ) ;
#770 = EDGE_LOOP ( 'NONE', ( #398, #29, #620, #792 ) ) ;
#771 = FACE_OUTER_BOUND ( 'NONE', #794, .T. ) ;
#772 = ORIENTED_EDGE ( 'NONE', *, *, #261, .T. ) ;
#773 = DIRECTION ( 'NONE',  ( 0.9920857479505065246, -0.1255622105312099168, 0.000000000000000000 ) ) ;
#774 = LINE ( 'NONE', #1051, #433 ) ;
#775 = CIRCLE ( 'NONE', #591, 0.004999999999999796274 ) ;
#776 = VERTEX_POINT ( 'NONE', #134 ) ;
#777 = EDGE_CURVE ( 'NONE', #710, #102, #33, .T. ) ;
#778 = COLOUR_RGB ( '',0.7921568627450980005, 0.8196078431372548767, 0.9333333333333333481 ) ;
#779 = DIRECTION ( 'NONE',  ( -1.000000000000000000, -1.301042606982605814E-16, 0.000000000000000000 ) ) ;
#780 = AXIS2_PLACEMENT_3D ( 'NONE', #410, #316, #484 ) ;
#781 = ORIENTED_EDGE ( 'NONE', *, *, #682, .T. ) ;
#782 = DIRECTION ( 'NONE',  ( 0.000000000000000000, 0.000000000000000000, -1.000000000000000000 ) ) ;
#783 = VERTEX_POINT ( 'NONE', #1038 ) ;
#784 = FACE_OUTER_BOUND ( 'NONE', #980, .T. ) ;
#785 = EDGE_CURVE ( 'NONE', #549, #710, #328, .T. ) ;
#786 = VECTOR ( 'NONE', #577, 1000.000000000000000 ) ;
#787 = EDGE_CURVE ( 'NONE', #877, #683, #1238, .T. ) ;
#788 = ORIENTED_EDGE ( 'NONE', *, *, #233, .T. ) ;
#789 = CARTESIAN_POINT ( 'NONE',  ( 36.27763754782499461, 3.500000000000000000, 14.25999999999999801 ) ) ;
#790 = CARTESIAN_POINT ( 'NONE',  ( 6.952730031573570280, -0.8773147407512860152, 0.000000000000000000 ) ) ;
#791 = AXIS2_PLACEMENT_3D ( 'NONE', #1029, #263, #634 ) ;
#792 = ORIENTED_EDGE ( 'NONE', *, *, #77, .T. ) ;
#793 = FACE_OUTER_BOUND ( 'NONE', #496, .T. ) ;
#794 = EDGE_LOOP ( 'NONE', ( #753, #956, #9, #1182 ) ) ;
#795 = DIRECTION ( 'NONE',  ( 0.000000000000000000, 0.000000000000000000, 1.000000000000000000 ) ) ;
#796 = EDGE_CURVE ( 'NONE', #968, #783, #717, .T. ) ;
#797 = CARTESIAN_POINT ( 'NONE',  ( 21.27763754782499461, -2.489999999999998437, 14.25999999999999801 ) ) ;
#798 = VERTEX_POINT ( 'NONE', #335 ) ;
#799 = DIRECTION ( 'NONE',  ( 0.000000000000000000, 0.000000000000000000, -1.000000000000000000 ) ) ;
#800 = CIRCLE ( 'NONE', #185, 10.00000000000000000 ) ;
#801 = ORIENTED_EDGE ( 'NONE', *, *, #373, .T. ) ;
#802 = DIRECTION ( 'NONE',  ( -1.000000000000000000, 0.000000000000000000, 0.000000000000000000 ) ) ;
#803 = EDGE_CURVE ( 'NONE', #670, #375, #841, .T. ) ;
#804 = CARTESIAN_POINT ( 'NONE',  ( 21.27763754782499817, 0.000000000000000000, 15.94999999999990870 ) ) ;
#805 = ORIENTED_EDGE ( 'NONE', *, *, #1062, .F. ) ;
#806 = DIRECTION ( 'NONE',  ( 0.1238705193128784160, 0.9922983898229190691, 0.000000000000000000 ) ) ;
#807 = ORIENTED_EDGE ( 'NONE', *, *, #299, .F. ) ;
#808 = CARTESIAN_POINT ( 'NONE',  ( 21.27763754782499817, 2.489999999999999325, 14.25999999999999801 ) ) ;
#809 = FACE_OUTER_BOUND ( 'NONE', #1022, .T. ) ;
#810 = AXIS2_PLACEMENT_3D ( 'NONE', #849, #1119, #45 ) ;
#811 = ORIENTED_EDGE ( 'NONE', *, *, #636, .T. ) ;
#812 = VECTOR ( 'NONE', #640, 1000.000000000000000 ) ;
#813 = ADVANCED_FACE ( 'NONE', ( #1025 ), #728, .T. ) ;
#814 = CARTESIAN_POINT ( 'NONE',  ( 36.27763754782499461, 0.000000000000000000, 14.25999999999999801 ) ) ;
#815 = ORIENTED_EDGE ( 'NONE', *, *, #108, .F. ) ;
#816 = CARTESIAN_POINT ( 'NONE',  ( 21.27763754782499817, 0.000000000000000000, 14.25999999999999801 ) ) ;
#817 = DIRECTION ( 'NONE',  ( 0.000000000000000000, 0.000000000000000000, -1.000000000000000000 ) ) ;
#818 = ORIENTED_EDGE ( 'NONE', *, *, #796, .F. ) ;
#819 = EDGE_CURVE ( 'NONE', #389, #549, #759, .T. ) ;
#820 = DIRECTION ( 'NONE',  ( 1.000000000000000000, 0.000000000000000000, 0.000000000000000000 ) ) ;
#821 = AXIS2_PLACEMENT_3D ( 'NONE', #639, #632, #930 ) ;
#822 = DIRECTION ( 'NONE',  ( -0.000000000000000000, -0.000000000000000000, -1.000000000000000000 ) ) ;
#823 = FACE_OUTER_BOUND ( 'NONE', #183, .T. ) ;
#824 = VECTOR ( 'NONE', #536, 1000.000000000000000 ) ;
#825 = ORIENTED_EDGE ( 'NONE', *, *, #552, .T. ) ;
#826 = DIRECTION ( 'NONE',  ( 0.000000000000000000, 0.000000000000000000, -1.000000000000000000 ) ) ;
#827 = CARTESIAN_POINT ( 'NONE',  ( 18.83835486637948975, 0.5000000000000000000, 17.24999999999998579 ) ) ;
#828 = CARTESIAN_POINT ( 'NONE',  ( 1.130637547825000144, 0.000000000000000000, 0.000000000000000000 ) ) ;
#829 = DIRECTION ( 'NONE',  ( 0.000000000000000000, 0.000000000000000000, -1.000000000000000000 ) ) ;
#830 = CARTESIAN_POINT ( 'NONE',  ( 21.27763754782499817, 0.000000000000000000, 11.24999999999998224 ) ) ;
#831 = FACE_BOUND ( 'NONE', #219, .T. ) ;
#832 = EDGE_CURVE ( 'NONE', #776, #1004, #720, .T. ) ;
#833 = FACE_OUTER_BOUND ( 'NONE', #1191, .T. ) ;
#834 = CARTESIAN_POINT ( 'NONE',  ( 21.27763754782499817, 0.5000000000000000000, 15.94999999999990870 ) ) ;
#835 = ORIENTED_EDGE ( 'NONE', *, *, #352, .F. ) ;
#836 = CARTESIAN_POINT ( 'NONE',  ( 17.77763754782499817, 0.000000000000000000, 11.25999999999999979 ) ) ;
#837 = FACE_OUTER_BOUND ( 'NONE', #1251, .T. ) ;
#838 = AXIS2_PLACEMENT_3D ( 'NONE', #911, #506, #1099 ) ;
#839 = FACE_OUTER_BOUND ( 'NONE', #1195, .T. ) ;
#840 = EDGE_CURVE ( 'NONE', #1145, #710, #1032, .T. ) ;
#841 = CIRCLE ( 'NONE', #1174, 2.489999999999999325 ) ;
#842 = CARTESIAN_POINT ( 'NONE',  ( 23.71692022927050658, 0.5000000000000000000, 17.24999999999998579 ) ) ;
#843 = AXIS2_PLACEMENT_3D ( 'NONE', #706, #511, #215 ) ;
#844 = PRODUCT_DEFINITION ( 'UNKNOWN', '', #90, #32 ) ;
#845 = ORIENTED_EDGE ( 'NONE', *, *, #785, .T. ) ;
#846 = UNCERTAINTY_MEASURE_WITH_UNIT (LENGTH_MEASURE( 1.000000000000000082E-05 ), #364, 'distance_accuracy_value', 'NONE');
#847 = DIRECTION ( 'NONE',  ( 0.000000000000000000, 0.000000000000000000, 1.000000000000000000 ) ) ;
#848 = ORIENTED_EDGE ( 'NONE', *, *, #305, .F. ) ;
#849 = CARTESIAN_POINT ( 'NONE',  ( 6.952730031573570280, -0.8773147407512860152, 0.2500000000000834888 ) ) ;
#850 = LINE ( 'NONE', #1126, #854 ) ;
#851 = EDGE_LOOP ( 'NONE', ( #479, #4, #309, #72 ) ) ;
#852 = EDGE_CURVE ( 'NONE', #389, #477, #1230, .T. ) ;
#853 = FACE_OUTER_BOUND ( 'NONE', #1267, .T. ) ;
#854 = VECTOR ( 'NONE', #829, 1000.000000000000000 ) ;
#855 = ORIENTED_EDGE ( 'NONE', *, *, #660, .F. ) ;
#856 = PRESENTATION_STYLE_ASSIGNMENT (( #969 ) ) ;
#857 = CARTESIAN_POINT ( 'NONE',  ( 4.048346145085454317, -10.44625168483803890, 0.2500000000000834888 ) ) ;
#858 = ORIENTED_EDGE ( 'NONE', *, *, #246, .T. ) ;
#859 = EDGE_CURVE ( 'NONE', #102, #301, #1244, .T. ) ;
#860 = ORIENTED_EDGE ( 'NONE', *, *, #840, .T. ) ;
#861 = DIRECTION ( 'NONE',  ( 1.000000000000000000, 0.000000000000000000, 0.000000000000000000 ) ) ;
#862 = AXIS2_PLACEMENT_3D ( 'NONE', #868, #649, #676 ) ;
#863 = EDGE_LOOP ( 'NONE', ( #1, #658, #1042, #1093 ) ) ;
#864 = AXIS2_PLACEMENT_3D ( 'NONE', #322, #144, #24 ) ;
#865 = LINE ( 'NONE', #567, #203 ) ;
#866 = CARTESIAN_POINT ( 'NONE',  ( 18.78763754782499973, 0.000000000000000000, 14.25999999999999801 ) ) ;
#867 = EDGE_LOOP ( 'NONE', ( #327, #226 ) ) ;
#868 = CARTESIAN_POINT ( 'NONE',  ( 21.27763754782499817, 0.000000000000000000, 15.94999999999990870 ) ) ;
#869 = FILL_AREA_STYLE_COLOUR ( '', #282 ) ;
#870 = EDGE_CURVE ( 'NONE', #381, #1247, #929, .T. ) ;
#871 = CARTESIAN_POINT ( 'NONE',  ( 23.71692022927050658, 0.5000000000000000000, 17.24999999999998579 ) ) ;
#872 = ORIENTED_EDGE ( 'NONE', *, *, #52, .T. ) ;
#873 = SURFACE_STYLE_FILL_AREA ( #766 ) ;
#874 = VERTEX_POINT ( 'NONE', #518 ) ;
#875 = SURFACE_SIDE_STYLE ('',( #1064 ) ) ;
#876 = CYLINDRICAL_SURFACE ( 'NONE', #393, 3.500000000000000888 ) ;
#877 = VERTEX_POINT ( 'NONE', #621 ) ;
#878 = AXIS2_PLACEMENT_3D ( 'NONE', #888, #795, #1192 ) ;
#879 = CARTESIAN_POINT ( 'NONE',  ( 17.80533742999822522, 0.4394677368592349032, 11.24999999999998224 ) ) ;
#880 = EDGE_LOOP ( 'NONE', ( #811, #1073, #815, #459 ) ) ;
#881 = DIRECTION ( 'NONE',  ( 0.000000000000000000, 0.000000000000000000, -1.000000000000000000 ) ) ;
#882 = DIRECTION ( 'NONE',  ( 0.000000000000000000, 0.000000000000000000, 1.000000000000000000 ) ) ;
#883 = ORIENTED_EDGE ( 'NONE', *, *, #466, .T. ) ;
#884 = ADVANCED_FACE ( 'NONE', ( #232 ), #917, .F. ) ;
#885 = CARTESIAN_POINT ( 'NONE',  ( 13.83699443819620001, 0.9417165789840755696, 6.050000000000110845 ) ) ;
#886 = AXIS2_PLACEMENT_3D ( 'NONE', #379, #568, #861 ) ;
#887 = ORIENTED_EDGE ( 'NONE', *, *, #342, .T. ) ;
#888 = CARTESIAN_POINT ( 'NONE',  ( 36.27763754782499461, 0.000000000000000000, 11.25999999999999979 ) ) ;
#889 = CIRCLE ( 'NONE', #1055, 0.004999999999999796274 ) ;
#890 = CARTESIAN_POINT ( 'NONE',  ( 21.27763754782499817, 0.000000000000000000, 17.24999999999998579 ) ) ;
#891 = ORIENTED_EDGE ( 'NONE', *, *, #1153, .T. ) ;
#892 = LINE ( 'NONE', #879, #448 ) ;
#893 = EDGE_CURVE ( 'NONE', #731, #534, #616, .T. ) ;
#894 = ORIENTED_EDGE ( 'NONE', *, *, #787, .T. ) ;
#895 = DIRECTION ( 'NONE',  ( -1.000000000000000000, 0.000000000000000000, 0.000000000000000000 ) ) ;
#896 = DIRECTION ( 'NONE',  ( 1.000000000000000000, 0.000000000000000000, 0.000000000000000000 ) ) ;
#897 = ORIENTED_EDGE ( 'NONE', *, *, #481, .T. ) ;
#898 = VECTOR ( 'NONE', #949, 1000.000000000000227 ) ;
#899 = DIRECTION ( 'NONE',  ( 0.000000000000000000, 0.000000000000000000, -1.000000000000000000 ) ) ;
#900 = AXIS2_PLACEMENT_3D ( 'NONE', #804, #206, #896 ) ;
#901 = CIRCLE ( 'NONE', #1090, 2.489999999999999325 ) ;
#902 = VERTEX_POINT ( 'NONE', #441 ) ;
#903 = DIRECTION ( 'NONE',  ( 0.000000000000000000, 0.000000000000000000, 1.000000000000000000 ) ) ;
#904 = VECTOR ( 'NONE', #1082, 1000.000000000000000 ) ;
#905 = ADVANCED_FACE ( 'NONE', ( #837, #831 ), #1237, .F. ) ;
#906 = CARTESIAN_POINT ( 'NONE',  ( 23.71692022927050658, -0.5000000000000000000, 17.24999999999998579 ) ) ;
#907 = EDGE_LOOP ( 'NONE', ( #1199, #807, #818, #953 ) ) ;
#908 = DIRECTION ( 'NONE',  ( -3.035766082959415373E-16, -1.000000000000000000, 0.000000000000000000 ) ) ;
#909 = UNCERTAINTY_MEASURE_WITH_UNIT (LENGTH_MEASURE( 1.000000000000000082E-05 ), #178, 'distance_accuracy_value', 'NONE');
#910 = VERTEX_POINT ( 'NONE', #182 ) ;
#911 = CARTESIAN_POINT ( 'NONE',  ( 21.27763754782499817, 0.000000000000000000, 0.000000000000000000 ) ) ;
#912 = DIRECTION ( 'NONE',  ( 1.000000000000000000, 0.000000000000000000, 0.000000000000000000 ) ) ;
#913 = EDGE_CURVE ( 'NONE', #1156, #392, #455, .T. ) ;
#914 = EDGE_LOOP ( 'NONE', ( #303, #213, #714, #56, #1212, #1114, #320, #1054, #460, #860, #1205, #606 ) ) ;
#915 = CIRCLE ( 'NONE', #791, 0.004999999999999796274 ) ;
#916 = CARTESIAN_POINT ( 'NONE',  ( 21.27763754782499817, 0.000000000000000000, 0.2500000000000834888 ) ) ;
#917 = CYLINDRICAL_SURFACE ( 'NONE', #207, 2.489999999999999325 ) ;
#918 = DIRECTION ( 'NONE',  ( 0.000000000000000000, -1.000000000000000000, 0.000000000000000000 ) ) ;
#919 = VERTEX_POINT ( 'NONE', #1262 ) ;
#920 = ADVANCED_FACE ( 'NONE', ( #771 ), #574, .T. ) ;
#921 = FACE_OUTER_BOUND ( 'NONE', #578, .T. ) ;
#922 = MECHANICAL_DESIGN_GEOMETRIC_PRESENTATION_REPRESENTATION (  '', ( #483 ), #653 ) ;
#923 = VECTOR ( 'NONE', #406, 1000.000000000000000 ) ;
#924 = CARTESIAN_POINT ( 'NONE',  ( 21.27763754782499817, 0.000000000000000000, 11.24999999999998224 ) ) ;
#925 = PLANE ( 'NONE',  #1127 ) ;
#926 = CARTESIAN_POINT ( 'NONE',  ( 21.27763754782499817, 0.000000000000000000, 11.25999999999999979 ) ) ;
#927 = CYLINDRICAL_SURFACE ( 'NONE', #617, 2.500000000000000000 ) ;
#928 = EDGE_CURVE ( 'NONE', #49, #477, #901, .T. ) ;
#929 = LINE ( 'NONE', #631, #824 ) ;
#930 = DIRECTION ( 'NONE',  ( 1.000000000000000000, 0.000000000000000000, 0.000000000000000000 ) ) ;
#931 = ORIENTED_EDGE ( 'NONE', *, *, #1167, .T. ) ;
#932 = ORIENTED_EDGE ( 'NONE', *, *, #777, .F. ) ;
#933 = DIRECTION ( 'NONE',  ( -0.9920857479505066356, 0.1255622105312099446, 0.000000000000000000 ) ) ;
#934 = DIRECTION ( 'NONE',  ( 0.000000000000000000, 0.000000000000000000, 1.000000000000000000 ) ) ;
#935 = ADVANCED_FACE ( 'NONE', ( #283 ), #669, .T. ) ;
#936 = CARTESIAN_POINT ( 'NONE',  ( 13.83699443819620001, 0.9417165789840755696, 7.050000000000000711 ) ) ;
#937 = CARTESIAN_POINT ( 'NONE',  ( 1.135637547824999816, 0.000000000000000000, 0.000000000000000000 ) ) ;
#938 = ORIENTED_EDGE ( 'NONE', *, *, #1000, .T. ) ;
#939 = DIRECTION ( 'NONE',  ( 0.000000000000000000, 0.000000000000000000, 1.000000000000000000 ) ) ;
#940 = VECTOR ( 'NONE', #93, 1000.000000000000114 ) ;
#941 = DIRECTION ( 'NONE',  ( 0.000000000000000000, 0.000000000000000000, 1.000000000000000000 ) ) ;
#942 = EDGE_CURVE ( 'NONE', #1148, #597, #487, .T. ) ;
#943 = AXIS2_PLACEMENT_3D ( 'NONE', #140, #256, #523 ) ;
#944 = CARTESIAN_POINT ( 'NONE',  ( 24.74993766565177467, -0.4394677368592344591, 11.24999999999998224 ) ) ;
#945 = AXIS2_PLACEMENT_3D ( 'NONE', #1190, #8, #1103 ) ;
#946 = ORIENTED_EDGE ( 'NONE', *, *, #1085, .F. ) ;
#947 = CARTESIAN_POINT ( 'NONE',  ( 36.27763754782499461, 0.000000000000000000, 14.25999999999999801 ) ) ;
#948 = VERTEX_POINT ( 'NONE', #1050 ) ;
#949 = DIRECTION ( 'NONE',  ( -0.9568936944086746665, -0.2904383886488113853, 0.000000000000000000 ) ) ;
#950 = FACE_OUTER_BOUND ( 'NONE', #562, .T. ) ;
#951 = PRODUCT_DEFINITION_SHAPE ( 'NONE', 'NONE',  #844 ) ;
#952 = ADVANCED_FACE ( 'NONE', ( #853 ), #277, .T. ) ;
#953 = ORIENTED_EDGE ( 'NONE', *, *, #628, .T. ) ;
#954 = DIRECTION ( 'NONE',  ( 0.000000000000000000, 0.000000000000000000, -1.000000000000000000 ) ) ;
#955 = AXIS2_PLACEMENT_3D ( 'NONE', #926, #142, #749 ) ;
#956 = ORIENTED_EDGE ( 'NONE', *, *, #397, .F. ) ;
#957 = FACE_OUTER_BOUND ( 'NONE', #718, .T. ) ;
#958 = EDGE_LOOP ( 'NONE', ( #825, #1151, #1035, #772 ) ) ;
#959 = DIRECTION ( 'NONE',  ( 0.000000000000000000, 0.000000000000000000, 1.000000000000000000 ) ) ;
#960 = ORIENTED_EDGE ( 'NONE', *, *, #253, .T. ) ;
#961 = DIRECTION ( 'NONE',  ( -0.9920857479505066356, 0.1255622105312099446, 0.000000000000000000 ) ) ;
#962 = DIRECTION ( 'NONE',  ( 0.000000000000000000, -0.000000000000000000, 1.000000000000000000 ) ) ;
#963 = AXIS2_PLACEMENT_3D ( 'NONE', #614, #881, #895 ) ;
#964 = EDGE_LOOP ( 'NONE', ( #210, #664, #648, #701 ) ) ;
#965 = VECTOR ( 'NONE', #503, 1000.000000000000000 ) ;
#966 = AXIS2_PLACEMENT_3D ( 'NONE', #615, #941, #1021 ) ;
#967 = EDGE_CURVE ( 'NONE', #691, #288, #1196, .T. ) ;
#968 = VERTEX_POINT ( 'NONE', #371 ) ;
#969 = SURFACE_STYLE_USAGE ( .BOTH. , #1257 ) ;
#970 = PLANE ( 'NONE',  #767 ) ;
#971 = EDGE_LOOP ( 'NONE', ( #201, #216, #351, #1098 ) ) ;
#972 = SURFACE_SIDE_STYLE ('',( #873 ) ) ;
#973 = ORIENTED_EDGE ( 'NONE', *, *, #475, .T. ) ;
#974 = EDGE_CURVE ( 'NONE', #130, #1058, #189, .T. ) ;
#975 = DIRECTION ( 'NONE',  ( 0.000000000000000000, 0.000000000000000000, 1.000000000000000000 ) ) ;
#976 = AXIS2_PLACEMENT_3D ( 'NONE', #1143, #555, #471 ) ;
#977 = DIRECTION ( 'NONE',  ( 0.000000000000000000, 0.000000000000000000, 1.000000000000000000 ) ) ;
#978 = ORIENTED_EDGE ( 'NONE', *, *, #289, .T. ) ;
#979 = CARTESIAN_POINT ( 'NONE',  ( 21.27763754782499817, 2.489999999999998437, 11.25999999999999979 ) ) ;
#980 = EDGE_LOOP ( 'NONE', ( #409, #512, #314, #655 ) ) ;
#981 = CARTESIAN_POINT ( 'NONE',  ( 18.77763754782500172, 4.336808689942017736E-16, 11.24999999999998224 ) ) ;
#982 = FACE_OUTER_BOUND ( 'NONE', #411, .T. ) ;
#983 = MANIFOLD_SOLID_BREP ( 'NONE', #1208 ) ;
#984 = CIRCLE ( 'NONE', #672, 3.500000000000000888 ) ;
#985 = ORIENTED_EDGE ( 'NONE', *, *, #636, .F. ) ;
#986 = CIRCLE ( 'NONE', #1026, 3.499999999999999556 ) ;
#987 = LINE ( 'NONE', #610, #1134 ) ;
#988 = ORIENTED_EDGE ( 'NONE', *, *, #870, .F. ) ;
#989 = CYLINDRICAL_SURFACE ( 'NONE', #447, 3.499999999999999556 ) ;
#990 = CARTESIAN_POINT ( 'NONE',  ( 17.80533742999822522, 0.4394677368592349032, 7.050000000000000711 ) ) ;
#991 = ORIENTED_EDGE ( 'NONE', *, *, #37, .F. ) ;
#992 = ADVANCED_FACE ( 'NONE', ( #1252, #1157 ), #78, .T. ) ;
#993 = CARTESIAN_POINT ( 'NONE',  ( 21.27763754782499817, 0.000000000000000000, 0.2500000000000834888 ) ) ;
#994 = CIRCLE ( 'NONE', #886, 2.489999999999999325 ) ;
#995 = ORIENTED_EDGE ( 'NONE', *, *, #967, .F. ) ;
#996 = DIRECTION ( 'NONE',  ( 0.000000000000000000, 0.000000000000000000, -1.000000000000000000 ) ) ;
#997 = FACE_OUTER_BOUND ( 'NONE', #98, .T. ) ;
#998 = EDGE_LOOP ( 'NONE', ( #83, #456, #1081, #599 ) ) ;
#999 = CARTESIAN_POINT ( 'NONE',  ( 21.27763754782499817, 0.5000000000000000000, 15.94999999999990870 ) ) ;
#1000 = EDGE_CURVE ( 'NONE', #191, #1278, #248, .T. ) ;
#1001 = VERTEX_POINT ( 'NONE', #84 ) ;
#1002 = DIRECTION ( 'NONE',  ( 0.9920857479505065246, -0.1255622105312099168, 0.000000000000000000 ) ) ;
#1003 = LINE ( 'NONE', #790, #344 ) ;
#1004 = VERTEX_POINT ( 'NONE', #402 ) ;
#1005 = STYLED_ITEM ( 'NONE', ( #1276 ), #556 ) ;
#1006 = CARTESIAN_POINT ( 'NONE',  ( 21.27763754782499817, 0.5000000000000000000, 17.24999999999998579 ) ) ;
#1007 = EDGE_LOOP ( 'NONE', ( #107, #275, #1186, #1189, #960, #687, #1048, #492, #1272 ) ) ;
#1008 = DIRECTION ( 'NONE',  ( 1.000000000000000000, 0.000000000000000000, 0.000000000000000000 ) ) ;
#1009 = ADVANCED_FACE ( 'NONE', ( #290 ), #1204, .T. ) ;
#1010 = CARTESIAN_POINT ( 'NONE',  ( 23.77763754782499817, 0.000000000000000000, 11.24999999999998224 ) ) ;
#1011 = ORIENTED_EDGE ( 'NONE', *, *, #299, .T. ) ;
#1012 = PLANE ( 'NONE',  #696 ) ;
#1013 = ORIENTED_EDGE ( 'NONE', *, *, #1125, .F. ) ;
#1014 = DIRECTION ( 'NONE',  ( 0.000000000000000000, 0.000000000000000000, 1.000000000000000000 ) ) ;
#1015 = CARTESIAN_POINT ( 'NONE',  ( 21.27763754782499817, 0.000000000000000000, 11.24999999999998224 ) ) ;
#1016 = CIRCLE ( 'NONE', #325, 2.489999999999999325 ) ;
#1017 = ORIENTED_EDGE ( 'NONE', *, *, #261, .F. ) ;
#1018 = AXIS2_PLACEMENT_3D ( 'NONE', #252, #350, #168 ) ;
#1019 = DIRECTION ( 'NONE',  ( 0.000000000000000000, 0.000000000000000000, 1.000000000000000000 ) ) ;
#1020 = FACE_OUTER_BOUND ( 'NONE', #580, .T. ) ;
#1021 = DIRECTION ( 'NONE',  ( 0.9920857479505065246, -0.1255622105312099168, 0.000000000000000000 ) ) ;
#1022 = EDGE_LOOP ( 'NONE', ( #946, #175 ) ) ;
#1023 = ADVANCED_FACE ( 'NONE', ( #1074 ), #1281, .F. ) ;
#1024 = DIRECTION ( 'NONE',  ( -0.000000000000000000, -0.000000000000000000, -1.000000000000000000 ) ) ;
#1025 = FACE_OUTER_BOUND ( 'NONE', #1007, .T. ) ;
#1026 = AXIS2_PLACEMENT_3D ( 'NONE', #324, #298, #198 ) ;
#1027 = CARTESIAN_POINT ( 'NONE',  ( 21.27763754782499817, 0.000000000000000000, 14.25999999999999801 ) ) ;
#1028 = CIRCLE ( 'NONE', #17, 2.500000000000000000 ) ;
#1029 = CARTESIAN_POINT ( 'NONE',  ( 1.135637547824999816, 0.000000000000000000, 0.000000000000000000 ) ) ;
#1030 = EDGE_CURVE ( 'NONE', #19, #670, #598, .T. ) ;
#1031 = LINE ( 'NONE', #619, #1079 ) ;
#1032 = LINE ( 'NONE', #44, #693 ) ;
#1033 = CARTESIAN_POINT ( 'NONE',  ( 19.82544560458094907, 4.784468472043379883, 0.000000000000000000 ) ) ;
#1034 = CARTESIAN_POINT ( 'NONE',  ( 21.27763754782499817, 2.489999999999998437, 11.25999999999999979 ) ) ;
#1035 = ORIENTED_EDGE ( 'NONE', *, *, #490, .F. ) ;
#1036 = CARTESIAN_POINT ( 'NONE',  ( 1.135018195228435500, -0.004961491949114198857, 0.000000000000000000 ) ) ;
#1037 = CIRCLE ( 'NONE', #1018, 3.500000000000000888 ) ;
#1038 = CARTESIAN_POINT ( 'NONE',  ( 5.287051338214229901, 0.5232677866088432106, 0.2500000000000834888 ) ) ;
#1039 = EDGE_CURVE ( 'NONE', #311, #126, #109, .T. ) ;
#1040 = CARTESIAN_POINT ( 'NONE',  ( 1.135018195228435500, -0.004961491949114198857, 0.2500000000000834888 ) ) ;
#1041 = EDGE_LOOP ( 'NONE', ( #1083, #1162, #7, #1172, #985, #835, #79, #739, #155 ) ) ;
#1042 = ORIENTED_EDGE ( 'NONE', *, *, #1144, .F. ) ;
#1043 = DIRECTION ( 'NONE',  ( 1.000000000000000000, 0.000000000000000000, -0.000000000000000000 ) ) ;
#1044 = VECTOR ( 'NONE', #519, 1000.000000000000000 ) ;
#1045 = ADVANCED_FACE ( 'NONE', ( #784 ), #302, .F. ) ;
#1046 = CARTESIAN_POINT ( 'NONE',  ( 21.27763754782499817, 2.489999999999998437, 14.25999999999999801 ) ) ;
#1047 = VECTOR ( 'NONE', #412, 1000.000000000000000 ) ;
#1048 = ORIENTED_EDGE ( 'NONE', *, *, #563, .T. ) ;
#1049 = EDGE_LOOP ( 'NONE', ( #401, #463, #89, #1011 ) ) ;
#1050 = CARTESIAN_POINT ( 'NONE',  ( 36.27763754782499461, -2.489999999999998437, 11.25999999999999979 ) ) ;
#1051 = CARTESIAN_POINT ( 'NONE',  ( 6.952730031573570280, -0.8773147407512860152, 0.2500000000000834888 ) ) ;
#1052 = PRODUCT ( 'single_pole', 'single_pole', '', ( #758 ) ) ;
#1053 = VECTOR ( 'NONE', #121, 1000.000000000000000 ) ;
#1054 = ORIENTED_EDGE ( 'NONE', *, *, #859, .T. ) ;
#1055 = AXIS2_PLACEMENT_3D ( 'NONE', #764, #977, #1270 ) ;
#1056 = CARTESIAN_POINT ( 'NONE',  ( 24.74993766565177467, -0.4394677368592344591, 11.24999999999998224 ) ) ;
#1057 = AXIS2_PLACEMENT_3D ( 'NONE', #1135, #337, #737 ) ;
#1058 = VERTEX_POINT ( 'NONE', #681 ) ;
#1059 = DIRECTION ( 'NONE',  ( 0.000000000000000000, 0.000000000000000000, -1.000000000000000000 ) ) ;
#1060 = CARTESIAN_POINT ( 'NONE',  ( 6.952730031573559621, -0.8773147407512867924, 0.2500000000000834888 ) ) ;
#1061 = ORIENTED_EDGE ( 'NONE', *, *, #819, .F. ) ;
#1062 = EDGE_CURVE ( 'NONE', #798, #731, #1184, .T. ) ;
#1063 = DIRECTION ( 'NONE',  ( -1.000000000000000000, 0.000000000000000000, 0.000000000000000000 ) ) ;
#1064 = SURFACE_STYLE_FILL_AREA ( #678 ) ;
#1065 = LINE ( 'NONE', #679, #786 ) ;
#1066 = ORIENTED_EDGE ( 'NONE', *, *, #1062, .T. ) ;
#1067 = EDGE_CURVE ( 'NONE', #356, #403, #892, .T. ) ;
#1068 = DIRECTION ( 'NONE',  ( 1.000000000000000000, 0.000000000000000000, 0.000000000000000000 ) ) ;
#1069 = ORIENTED_EDGE ( 'NONE', *, *, #1125, .T. ) ;
#1070 = CARTESIAN_POINT ( 'NONE',  ( 21.27763754782499817, 0.000000000000000000, 11.24999999999998224 ) ) ;
#1071 = APPLICATION_CONTEXT ( 'automotive_design' ) ;
#1072 = LINE ( 'NONE', #871, #174 ) ;
#1073 = ORIENTED_EDGE ( 'NONE', *, *, #289, .F. ) ;
#1074 = FACE_OUTER_BOUND ( 'NONE', #958, .T. ) ;
#1075 = AXIS2_PLACEMENT_3D ( 'NONE', #1140, #426, #262 ) ;
#1076 = ORIENTED_EDGE ( 'NONE', *, *, #1264, .F. ) ;
#1077 = CARTESIAN_POINT ( 'NONE',  ( 21.27763754782499817, 0.000000000000000000, 6.050000000000110845 ) ) ;
#1078 = EDGE_CURVE ( 'NONE', #704, #910, #1240, .T. ) ;
#1079 = VECTOR ( 'NONE', #1024, 1000.000000000000000 ) ;
#1080 = CARTESIAN_POINT ( 'NONE',  ( 21.27763754782499817, 3.500000000000000000, 14.25999999999999801 ) ) ;
#1081 = ORIENTED_EDGE ( 'NONE', *, *, #1067, .T. ) ;
#1082 = DIRECTION ( 'NONE',  ( -0.000000000000000000, -0.000000000000000000, -1.000000000000000000 ) ) ;
#1083 = ORIENTED_EDGE ( 'NONE', *, *, #151, .F. ) ;
#1084 = DIRECTION ( 'NONE',  ( 0.000000000000000000, 0.000000000000000000, -1.000000000000000000 ) ) ;
#1085 = EDGE_CURVE ( 'NONE', #49, #477, #18, .T. ) ;
#1086 = CARTESIAN_POINT ( 'NONE',  ( 36.27763754782499461, 3.500000000000000000, 14.25999999999999801 ) ) ;
#1087 = CIRCLE ( 'NONE', #963, 2.499999999999998668 ) ;
#1088 = AXIS2_PLACEMENT_3D ( 'NONE', #234, #882, #129 ) ;
#1089 = ORIENTED_EDGE ( 'NONE', *, *, #840, .F. ) ;
#1090 = AXIS2_PLACEMENT_3D ( 'NONE', #1163, #657, #71 ) ;
#1091 = AXIS2_PLACEMENT_3D ( 'NONE', #531, #51, #1116 ) ;
#1092 = CARTESIAN_POINT ( 'NONE',  ( 1.135018195228435500, -0.004961491949114198857, 0.2500000000000834888 ) ) ;
#1093 = ORIENTED_EDGE ( 'NONE', *, *, #181, .F. ) ;
#1094 = CARTESIAN_POINT ( 'NONE',  ( 36.27763754782499461, -2.489999999999998437, 14.25999999999999801 ) ) ;
#1095 = CARTESIAN_POINT ( 'NONE',  ( 1.135018195228436166, 0.004961491949114632538, 0.000000000000000000 ) ) ;
#1096 = EDGE_LOOP ( 'NONE', ( #323, #516, #932, #1089 ) ) ;
#1097 = DIRECTION ( 'NONE',  ( 0.000000000000000000, 0.000000000000000000, 1.000000000000000000 ) ) ;
#1098 = ORIENTED_EDGE ( 'NONE', *, *, #1264, .T. ) ;
#1099 = DIRECTION ( 'NONE',  ( 1.000000000000000000, 0.000000000000000000, 0.000000000000000000 ) ) ;
#1100 = CARTESIAN_POINT ( 'NONE',  ( 21.27763754782499817, 0.000000000000000000, 11.24999999999998224 ) ) ;
#1101 = ORIENTED_EDGE ( 'NONE', *, *, #721, .F. ) ;
#1102 = ADVANCED_FACE ( 'NONE', ( #700, #793 ), #124, .F. ) ;
#1103 = DIRECTION ( 'NONE',  ( -1.000000000000000000, 0.000000000000000000, 0.000000000000000000 ) ) ;
#1104 = VERTEX_POINT ( 'NONE', #1179 ) ;
#1105 = DIRECTION ( 'NONE',  ( 0.000000000000000000, 0.000000000000000000, 1.000000000000000000 ) ) ;
#1106 = FACE_BOUND ( 'NONE', #1222, .T. ) ;
#1107 = ORIENTED_EDGE ( 'NONE', *, *, #358, .T. ) ;
#1108 = AXIS2_PLACEMENT_3D ( 'NONE', #20, #390, #708 ) ;
#1109 = DIRECTION ( 'NONE',  ( 0.000000000000000000, 0.000000000000000000, 1.000000000000000000 ) ) ;
#1110 = VECTOR ( 'NONE', #695, 1000.000000000000000 ) ;
#1111 = VERTEX_POINT ( 'NONE', #396 ) ;
#1112 = CYLINDRICAL_SURFACE ( 'NONE', #227, 7.499999999999999112 ) ;
#1113 = DIRECTION ( 'NONE',  ( 0.000000000000000000, 0.000000000000000000, 1.000000000000000000 ) ) ;
#1114 = ORIENTED_EDGE ( 'NONE', *, *, #752, .F. ) ;
#1115 = CARTESIAN_POINT ( 'NONE',  ( 1.135018195228436166, 0.004961491949114632538, 0.2500000000000834888 ) ) ;
#1116 = DIRECTION ( 'NONE',  ( -0.9920857479505066356, 0.1255622105312099446, 0.000000000000000000 ) ) ;
#1117 = VECTOR ( 'NONE', #88, 1000.000000000000000 ) ;
#1118 = ADVANCED_FACE ( 'NONE', ( #592 ), #686, .T. ) ;
#1119 = DIRECTION ( 'NONE',  ( 0.2904383886488113853, 0.9568936944086746665, 0.000000000000000000 ) ) ;
#1120 = AXIS2_PLACEMENT_3D ( 'NONE', #1277, #561, #476 ) ;
#1121 = DIRECTION ( 'NONE',  ( -0.000000000000000000, -0.000000000000000000, -1.000000000000000000 ) ) ;
#1122 = DIRECTION ( 'NONE',  ( 0.000000000000000000, 0.000000000000000000, 1.000000000000000000 ) ) ;
#1123 = DIRECTION ( 'NONE',  ( 0.000000000000000000, 0.000000000000000000, 1.000000000000000000 ) ) ;
#1124 = CARTESIAN_POINT ( 'NONE',  ( 21.27763754782499817, 3.500000000000000000, 14.25999999999999801 ) ) ;
#1125 = EDGE_CURVE ( 'NONE', #874, #704, #987, .T. ) ;
#1126 = CARTESIAN_POINT ( 'NONE',  ( 18.79742317794873330, 0.3139055263280247643, 11.24999999999998224 ) ) ;
#1127 = AXIS2_PLACEMENT_3D ( 'NONE', #532, #918, #148 ) ;
#1128 = FACE_OUTER_BOUND ( 'NONE', #1147, .T. ) ;
#1129 = UNCERTAINTY_MEASURE_WITH_UNIT (LENGTH_MEASURE( 1.000000000000000082E-05 ), #474, 'distance_accuracy_value', 'NONE');
#1130 = VECTOR ( 'NONE', #596, 1000.000000000000000 ) ;
#1131 = DIRECTION ( 'NONE',  ( 1.000000000000000000, 0.000000000000000000, 0.000000000000000000 ) ) ;
#1132 = AXIS2_PLACEMENT_3D ( 'NONE', #176, #959, #465 ) ;
#1133 = FACE_OUTER_BOUND ( 'NONE', #208, .T. ) ;
#1134 = VECTOR ( 'NONE', #97, 1000.000000000000000 ) ;
#1135 = CARTESIAN_POINT ( 'NONE',  ( 21.27763754782499817, 0.000000000000000000, 0.2500000000000834888 ) ) ;
#1136 = EDGE_LOOP ( 'NONE', ( #188, #96, #1066, #1141 ) ) ;
#1137 = EDGE_CURVE ( 'NONE', #489, #609, #1273, .T. ) ;
#1138 = CARTESIAN_POINT ( 'NONE',  ( 21.27763754782499817, 0.000000000000000000, 7.050000000000000711 ) ) ;
#1139 = DIRECTION ( 'NONE',  ( 0.000000000000000000, 0.000000000000000000, 1.000000000000000000 ) ) ;
#1140 = CARTESIAN_POINT ( 'NONE',  ( 6.952730031573559621, 0.8773147407512820184, 0.2500000000000834888 ) ) ;
#1141 = ORIENTED_EDGE ( 'NONE', *, *, #893, .T. ) ;
#1142 = ORIENTED_EDGE ( 'NONE', *, *, #37, .T. ) ;
#1143 = CARTESIAN_POINT ( 'NONE',  ( 0.000000000000000000, 0.000000000000000000, 0.000000000000000000 ) ) ;
#1144 = EDGE_CURVE ( 'NONE', #1278, #389, #103, .T. ) ;
#1145 = VERTEX_POINT ( 'NONE', #115 ) ;
#1146 = CARTESIAN_POINT ( 'NONE',  ( 21.27763754782499817, 0.000000000000000000, 6.050000000000110845 ) ) ;
#1147 = EDGE_LOOP ( 'NONE', ( #894, #165, #897, #317, #931 ) ) ;
#1148 = VERTEX_POINT ( 'NONE', #195 ) ;
#1149 = PRESENTATION_STYLE_ASSIGNMENT (( #91 ) ) ;
#1150 = VECTOR ( 'NONE', #99, 1000.000000000000000 ) ;
#1151 = ORIENTED_EDGE ( 'NONE', *, *, #674, .F. ) ;
#1152 = CARTESIAN_POINT ( 'NONE',  ( 21.27763754782499817, 0.000000000000000000, 17.24999999999998579 ) ) ;
#1153 = EDGE_CURVE ( 'NONE', #254, #1001, #585, .T. ) ;
#1154 = AXIS2_PLACEMENT_3D ( 'NONE', #947, #472, #747 ) ;
#1155 = CARTESIAN_POINT ( 'NONE',  ( 23.76763754782499660, 4.336808689942017736E-16, 15.94999999999990870 ) ) ;
#1156 = VERTEX_POINT ( 'NONE', #491 ) ;
#1157 = FACE_OUTER_BOUND ( 'NONE', #1263, .T. ) ;
#1158 = VERTEX_POINT ( 'NONE', #885 ) ;
#1159 = CARTESIAN_POINT ( 'NONE',  ( 18.78763754782499973, 0.000000000000000000, 15.94999999999990870 ) ) ;
#1160 = ADVANCED_FACE ( 'NONE', ( #338 ), #927, .F. ) ;
#1161 = DIRECTION ( 'NONE',  ( 0.000000000000000000, 0.000000000000000000, 1.000000000000000000 ) ) ;
#1162 = ORIENTED_EDGE ( 'NONE', *, *, #414, .F. ) ;
#1163 = CARTESIAN_POINT ( 'NONE',  ( 21.27763754782499817, 0.000000000000000000, 17.24999999999998579 ) ) ;
#1164 = VERTEX_POINT ( 'NONE', #836 ) ;
#1165 = CARTESIAN_POINT ( 'NONE',  ( 5.287051338214229901, 0.5232677866088432106, 0.000000000000000000 ) ) ;
#1166 = DIRECTION ( 'NONE',  ( -0.000000000000000000, -0.000000000000000000, -1.000000000000000000 ) ) ;
#1167 = EDGE_CURVE ( 'NONE', #1180, #877, #732, .T. ) ;
#1168 = ORIENTED_EDGE ( 'NONE', *, *, #1067, .F. ) ;
#1169 = PRODUCT_RELATED_PRODUCT_CATEGORY ( 'part', '', ( #1052 ) ) ;
#1170 = ADVANCED_FACE ( 'NONE', ( #1217 ), #740, .T. ) ;
#1171 = CARTESIAN_POINT ( 'NONE',  ( 19.82544560458094907, -4.784468472043379883, 0.2500000000000834888 ) ) ;
#1172 = ORIENTED_EDGE ( 'NONE', *, *, #769, .F. ) ;
#1173 = DIRECTION ( 'NONE',  ( 0.000000000000000000, 0.000000000000000000, 1.000000000000000000 ) ) ;
#1174 = AXIS2_PLACEMENT_3D ( 'NONE', #924, #939, #449 ) ;
#1175 = ORIENTED_EDGE ( 'NONE', *, *, #1078, .T. ) ;
#1176 = AXIS2_PLACEMENT_3D ( 'NONE', #202, #899, #1198 ) ;
#1177 = AXIS2_PLACEMENT_3D ( 'NONE', #890, #608, #400 ) ;
#1178 = ADVANCED_FACE ( 'NONE', ( #416 ), #1012, .F. ) ;
#1179 = CARTESIAN_POINT ( 'NONE',  ( 17.77763754782499817, 0.000000000000000000, 14.25999999999999801 ) ) ;
#1180 = VERTEX_POINT ( 'NONE', #50 ) ;
#1181 = LINE ( 'NONE', #1266, #559 ) ;
#1182 = ORIENTED_EDGE ( 'NONE', *, *, #30, .T. ) ;
#1183 = VECTOR ( 'NONE', #462, 1000.000000000000000 ) ;
#1184 = LINE ( 'NONE', #498, #965 ) ;
#1185 = ADVANCED_FACE ( 'NONE', ( #1128, #329 ), #625, .T. ) ;
#1186 = ORIENTED_EDGE ( 'NONE', *, *, #490, .T. ) ;
#1187 = DIRECTION ( 'NONE',  ( 1.000000000000000000, 0.000000000000000000, 0.000000000000000000 ) ) ;
#1188 = FACE_OUTER_BOUND ( 'NONE', #1049, .T. ) ;
#1189 = ORIENTED_EDGE ( 'NONE', *, *, #94, .T. ) ;
#1190 = CARTESIAN_POINT ( 'NONE',  ( 4.048346145085454317, -10.44625168483803890, 0.2500000000000834888 ) ) ;
#1191 = EDGE_LOOP ( 'NONE', ( #415, #699, #891, #180 ) ) ;
#1192 = DIRECTION ( 'NONE',  ( 1.000000000000000000, 0.000000000000000000, 0.000000000000000000 ) ) ;
#1193 = LINE ( 'NONE', #697, #1280 ) ;
#1194 = CIRCLE ( 'NONE', #900, 2.489999999999999325 ) ;
#1195 = EDGE_LOOP ( 'NONE', ( #546, #280, #528, #297 ) ) ;
#1196 = CIRCLE ( 'NONE', #1218, 2.489999999999999325 ) ;
#1197 = AXIS2_PLACEMENT_3D ( 'NONE', #814, #1109, #719 ) ;
#1198 = DIRECTION ( 'NONE',  ( -0.9920857479505066356, 0.1255622105312099446, 0.000000000000000000 ) ) ;
#1199 = ORIENTED_EDGE ( 'NONE', *, *, #942, .T. ) ;
#1200 = LINE ( 'NONE', #1206, #120 ) ;
#1201 = LINE ( 'NONE', #1284, #14 ) ;
#1202 = ADVANCED_FACE ( 'NONE', ( #434 ), #1211, .T. ) ;
#1203 = ORIENTED_EDGE ( 'NONE', *, *, #77, .F. ) ;
#1204 = CYLINDRICAL_SURFACE ( 'NONE', #635, 2.499999999999998668 ) ;
#1205 = ORIENTED_EDGE ( 'NONE', *, *, #785, .F. ) ;
#1206 = CARTESIAN_POINT ( 'NONE',  ( 6.952730031573559621, 0.8773147407512820184, 0.2500000000000834888 ) ) ;
#1207 = DIRECTION ( 'NONE',  ( 0.000000000000000000, 0.000000000000000000, -1.000000000000000000 ) ) ;
#1208 = CLOSED_SHELL ( 'NONE', ( #128, #813, #387, #1242, #452, #1202, #444, #1045, #1023, #214, #952 ) ) ;
#1209 = VERTEX_POINT ( 'NONE', #1036 ) ;
#1210 = EDGE_CURVE ( 'NONE', #874, #420, #1028, .T. ) ;
#1211 = CYLINDRICAL_SURFACE ( 'NONE', #146, 5.000000000000000888 ) ;
#1212 = ORIENTED_EDGE ( 'NONE', *, *, #803, .T. ) ;
#1213 = CARTESIAN_POINT ( 'NONE',  ( 21.27763754782499817, 0.000000000000000000, 11.25999999999999979 ) ) ;
#1214 = LINE ( 'NONE', #326, #923 ) ;
#1215 = ORIENTED_EDGE ( 'NONE', *, *, #373, .F. ) ;
#1216 = PRESENTATION_LAYER_ASSIGNMENT (  '', '', ( #483 ) ) ;
#1217 = FACE_OUTER_BOUND ( 'NONE', #1136, .T. ) ;
#1218 = AXIS2_PLACEMENT_3D ( 'NONE', #163, #377, #760 ) ;
#1219 = CARTESIAN_POINT ( 'NONE',  ( 6.952730031573559621, 0.8773147407512820184, 0.000000000000000000 ) ) ;
#1220 = CIRCLE ( 'NONE', #269, 7.499999999999999112 ) ;
#1221 = DIRECTION ( 'NONE',  ( -1.000000000000000000, 0.000000000000000000, 0.000000000000000000 ) ) ;
#1222 = EDGE_LOOP ( 'NONE', ( #1215, #69 ) ) ;
#1223 = CARTESIAN_POINT ( 'NONE',  ( 23.71692022927050658, 0.5000000000000000000, 15.94999999999990870 ) ) ;
#1224 = DIRECTION ( 'NONE',  ( 0.000000000000000000, 0.000000000000000000, 1.000000000000000000 ) ) ;
#1225 = EDGE_CURVE ( 'NONE', #783, #259, #247, .T. ) ;
#1226 = DIRECTION ( 'NONE',  ( 0.000000000000000000, 0.000000000000000000, 1.000000000000000000 ) ) ;
#1227 = ORIENTED_EDGE ( 'NONE', *, *, #870, .T. ) ;
#1228 = CIRCLE ( 'NONE', #1057, 5.000000000000000888 ) ;
#1229 = AXIS2_PLACEMENT_3D ( 'NONE', #834, #629, #1233 ) ;
#1230 = LINE ( 'NONE', #827, #464 ) ;
#1231 = CARTESIAN_POINT ( 'NONE',  ( 21.27763754782499817, 0.000000000000000000, 14.25999999999999801 ) ) ;
#1232 = EDGE_CURVE ( 'NONE', #534, #731, #408, .T. ) ;
#1233 = DIRECTION ( 'NONE',  ( 1.000000000000000000, 1.301042606982605814E-16, 0.000000000000000000 ) ) ;
#1234 = CIRCLE ( 'NONE', #264, 7.499999999999999112 ) ;
#1235 = ORIENTED_EDGE ( 'NONE', *, *, #268, .T. ) ;
#1236 = CARTESIAN_POINT ( 'NONE',  ( 21.27763754782499817, 0.000000000000000000, 11.24999999999998224 ) ) ;
#1237 = PLANE ( 'NONE',  #675 ) ;
#1238 = CIRCLE ( 'NONE', #307, 3.500000000000003109 ) ;
#1239 = CARTESIAN_POINT ( 'NONE',  ( 21.27763754782499817, 0.000000000000000000, 7.050000000000000711 ) ) ;
#1240 = CIRCLE ( 'NONE', #1176, 2.500000000000000000 ) ;
#1241 = DIRECTION ( 'NONE',  ( 0.000000000000000000, -1.000000000000000000, 0.000000000000000000 ) ) ;
#1242 = ADVANCED_FACE ( 'NONE', ( #31 ), #637, .F. ) ;
#1243 = ORIENTED_EDGE ( 'NONE', *, *, #1137, .F. ) ;
#1244 = LINE ( 'NONE', #243, #547 ) ;
#1245 = DIRECTION ( 'NONE',  ( 0.000000000000000000, 0.000000000000000000, 1.000000000000000000 ) ) ;
#1246 = CARTESIAN_POINT ( 'NONE',  ( 5.287051338214239671, -0.5232677866088448759, 0.2500000000000834888 ) ) ;
#1247 = VERTEX_POINT ( 'NONE', #642 ) ;
#1248 = ORIENTED_EDGE ( 'NONE', *, *, #429, .T. ) ;
#1249 = FILL_AREA_STYLE ('',( #869 ) ) ;
#1250 = CARTESIAN_POINT ( 'NONE',  ( 21.27763754782499817, 0.000000000000000000, 11.24999999999998224 ) ) ;
#1251 = EDGE_LOOP ( 'NONE', ( #439, #750, #502, #613, #584 ) ) ;
#1252 = FACE_BOUND ( 'NONE', #417, .T. ) ;
#1253 = AXIS2_PLACEMENT_3D ( 'NONE', #1231, #734, #153 ) ;
#1254 = EDGE_CURVE ( 'NONE', #356, #130, #186, .T. ) ;
#1255 = AXIS2_PLACEMENT_3D ( 'NONE', #716, #1113, #912 ) ;
#1256 = ORIENTED_EDGE ( 'NONE', *, *, #199, .F. ) ;
#1257 = SURFACE_SIDE_STYLE ('',( #192 ) ) ;
#1258 = VECTOR ( 'NONE', #996, 1000.000000000000000 ) ;
#1259 = VECTOR ( 'NONE', #820, 1000.000000000000000 ) ;
#1260 = LINE ( 'NONE', #95, #236 ) ;
#1261 = ORIENTED_EDGE ( 'NONE', *, *, #21, .F. ) ;
#1262 = CARTESIAN_POINT ( 'NONE',  ( 6.952730031573559621, -0.8773147407512867924, 0.2500000000000834888 ) ) ;
#1263 = EDGE_LOOP ( 'NONE', ( #427, #707 ) ) ;
#1264 = EDGE_CURVE ( 'NONE', #1180, #776, #1031, .T. ) ;
#1265 =( NAMED_UNIT ( * ) PLANE_ANGLE_UNIT ( ) SI_UNIT ( $, .RADIAN. ) );
#1266 = CARTESIAN_POINT ( 'NONE',  ( 21.27763754782499817, -2.489999999999998437, 14.25999999999999801 ) ) ;
#1267 = EDGE_LOOP ( 'NONE', ( #1256, #788, #872, #1017 ) ) ;
#1268 = DIRECTION ( 'NONE',  ( 0.000000000000000000, 0.000000000000000000, -1.000000000000000000 ) ) ;
#1269 = LINE ( 'NONE', #576, #940 ) ;
#1270 = DIRECTION ( 'NONE',  ( 1.000000000000000000, 0.000000000000000000, 0.000000000000000000 ) ) ;
#1271 = ADVANCED_FACE ( 'NONE', ( #921 ), #38, .T. ) ;
#1272 = ORIENTED_EDGE ( 'NONE', *, *, #1225, .T. ) ;
#1273 = LINE ( 'NONE', #605, #308 ) ;
#1274 = VECTOR ( 'NONE', #1084, 1000.000000000000000 ) ;
#1275 = ORIENTED_EDGE ( 'NONE', *, *, #173, .F. ) ;
#1276 = PRESENTATION_STYLE_ASSIGNMENT (( #457 ) ) ;
#1277 = CARTESIAN_POINT ( 'NONE',  ( 21.27763754782499817, 0.000000000000000000, 17.24999999999998579 ) ) ;
#1278 = VERTEX_POINT ( 'NONE', #1223 ) ;
#1279 = EDGE_CURVE ( 'NONE', #1164, #776, #395, .T. ) ;
#1280 = VECTOR ( 'NONE', #601, 1000.000000000000114 ) ;
#1281 = PLANE ( 'NONE',  #249 ) ;
#1282 = EDGE_LOOP ( 'NONE', ( #1248, #781 ) ) ;
#1283 = CARTESIAN_POINT ( 'NONE',  ( 1.130637547825000144, 0.000000000000000000, 0.2500000000000834888 ) ) ;
#1284 = CARTESIAN_POINT ( 'NONE',  ( 21.27763754782499817, -2.489999999999998437, 11.25999999999999979 ) ) ;
ENDSEC;
END-ISO-10303-21;
