ISO-10303-21;
HEADER;
FILE_DESCRIPTION (( 'STEP AP214' ),
    '1' );
FILE_NAME ('pole組合.STEP',
    '2026-07-10T15:12:34',
    ( '' ),
    ( '' ),
    'SwSTEP 2.0',
    'SolidWorks 2024',
    '' );
FILE_SCHEMA (( 'AUTOMOTIVE_DESIGN' ));
ENDSEC;

DATA;
#1 = CARTESIAN_POINT ( 'NONE',  ( 2.439282681445510637, -0.5000000000000004441, 6.000000000000000000 ) ) ;
#2 = ORIENTED_EDGE ( 'NONE', *, *, #392, .F. ) ;
#3 = EDGE_CURVE ( 'NONE', #396, #605, #164, .T. ) ;
#4 = CARTESIAN_POINT ( 'NONE',  ( 0.000000000000000000, 0.000000000000000000, 4.199999999999981526 ) ) ;
#5 = VECTOR ( 'NONE', #142, 1000.000000000000000 ) ;
#6 = ORIENTED_EDGE ( 'NONE', *, *, #25, .T. ) ;
#7 = AXIS2_PLACEMENT_3D ( 'NONE', #4, #647, #960 ) ;
#8 = CARTESIAN_POINT ( 'NONE',  ( 0.000000000000000000, 0.000000000000000000, 0.000000000000000000 ) ) ;
#9 = LINE ( 'NONE', #78, #253 ) ;
#10 = ORIENTED_EDGE ( 'NONE', *, *, #472, .F. ) ;
#11 = AXIS2_PLACEMENT_3D ( 'NONE', #668, #983, #598 ) ;
#12 = ADVANCED_FACE ( 'NONE', ( #608 ), #109, .T. ) ;
#13 = ORIENTED_EDGE ( 'NONE', *, *, #500, .F. ) ;
#14 = LINE ( 'NONE', #340, #768 ) ;
#15 = ORIENTED_EDGE ( 'NONE', *, *, #967, .F. ) ;
#16 = EDGE_CURVE ( 'NONE', #338, #577, #1000, .T. ) ;
#17 = PRESENTATION_STYLE_ASSIGNMENT (( #423 ) ) ;
#18 = PRODUCT_DEFINITION_CONTEXT ( 'detailed design', #89, 'design' ) ;
#19 = EDGE_LOOP ( 'NONE', ( #1026, #869, #783, #215 ) ) ;
#20 = DIRECTION ( 'NONE',  ( 0.9568936944086745555, -0.2904383886488113853, 0.000000000000000000 ) ) ;
#21 = CYLINDRICAL_SURFACE ( 'NONE', #156, 3.500000000000000000 ) ;
#22 = ORIENTED_EDGE ( 'NONE', *, *, #388, .F. ) ;
#23 = CARTESIAN_POINT ( 'NONE',  ( -2.439282681445510637, 0.4999999999999989453, 6.000000000000000000 ) ) ;
#24 = ORIENTED_EDGE ( 'NONE', *, *, #25, .F. ) ;
#25 = EDGE_CURVE ( 'NONE', #789, #326, #675, .T. ) ;
#26 = DIRECTION ( 'NONE',  ( 0.000000000000000000, 0.000000000000000000, -1.000000000000000000 ) ) ;
#27 = CARTESIAN_POINT ( 'NONE',  ( 0.000000000000000000, 0.000000000000000000, 6.000000000000000000 ) ) ;
#28 =( LENGTH_UNIT ( ) NAMED_UNIT ( * ) SI_UNIT ( .MILLI., .METRE. ) );
#29 = CARTESIAN_POINT ( 'NONE',  ( 0.000000000000000000, 0.000000000000000000, 4.199999999999981526 ) ) ;
#30 = APPLICATION_CONTEXT ( 'automotive_design' ) ;
#31 = CARTESIAN_POINT ( 'NONE',  ( 6.175092483748565009, -0.8773147407512854601, 0.000000000000000000 ) ) ;
#32 = VERTEX_POINT ( 'NONE', #283 ) ;
#33 =( LENGTH_UNIT ( ) NAMED_UNIT ( * ) SI_UNIT ( .MILLI., .METRE. ) );
#34 = UNCERTAINTY_MEASURE_WITH_UNIT (LENGTH_MEASURE( 1.000000000000000082E-05 ), #987, 'distance_accuracy_value', 'NONE');
#35 = CARTESIAN_POINT ( 'NONE',  ( 4.509413790389235288, -0.5232677866088448759, 0.000000000000000000 ) ) ;
#36 = PRODUCT_RELATED_PRODUCT_CATEGORY ( 'part', '', ( #994 ) ) ;
#37 = LINE ( 'NONE', #993, #832 ) ;
#38 = ORIENTED_EDGE ( 'NONE', *, *, #894, .T. ) ;
#39 = CARTESIAN_POINT ( 'NONE',  ( 0.000000000000000000, 0.000000000000000000, 0.000000000000000000 ) ) ;
#40 = DIRECTION ( 'NONE',  ( 0.000000000000000000, 0.000000000000000000, -1.000000000000000000 ) ) ;
#41 = EDGE_CURVE ( 'NONE', #772, #91, #48, .T. ) ;
#42 = CARTESIAN_POINT ( 'NONE',  ( 0.3579999999999999849, 0.000000000000000000, 0.2500000000000000000 ) ) ;
#43 = CARTESIAN_POINT ( 'NONE',  ( 0.000000000000000000, 0.000000000000000000, 4.700000000000000178 ) ) ;
#44 = VERTEX_POINT ( 'NONE', #620 ) ;
#45 = CIRCLE ( 'NONE', #489, 2.490000000000000213 ) ;
#46 = ADVANCED_FACE ( 'NONE', ( #434 ), #266, .T. ) ;
#47 = DIRECTION ( 'NONE',  ( -0.000000000000000000, -0.000000000000000000, 1.000000000000000000 ) ) ;
#48 = LINE ( 'NONE', #750, #933 ) ;
#49 = CARTESIAN_POINT ( 'NONE',  ( -7.500000000000000000, 9.184850993605147944E-16, -1.000000000000000888 ) ) ;
#50 = ORIENTED_EDGE ( 'NONE', *, *, #201, .T. ) ;
#51 =( NAMED_UNIT ( * ) SI_UNIT ( $, .STERADIAN. ) SOLID_ANGLE_UNIT ( ) );
#52 =( GEOMETRIC_REPRESENTATION_CONTEXT ( 3 ) GLOBAL_UNCERTAINTY_ASSIGNED_CONTEXT ( ( #753 ) ) GLOBAL_UNIT_ASSIGNED_CONTEXT ( ( #33, #281, #51 ) ) REPRESENTATION_CONTEXT ( 'NONE', 'WORKASPACE' ) );
#53 = CARTESIAN_POINT ( 'NONE',  ( 2.490000000000000213, 3.049370529876909390E-16, 4.700000000000000178 ) ) ;
#54 = DIRECTION ( 'NONE',  ( 0.9922983898229190691, 0.1238705193128786797, 0.000000000000000000 ) ) ;
#55 = FACE_OUTER_BOUND ( 'NONE', #928, .T. ) ;
#56 = ORIENTED_EDGE ( 'NONE', *, *, #230, .T. ) ;
#57 = DIRECTION ( 'NONE',  ( -0.000000000000000000, -0.000000000000000000, -1.000000000000000000 ) ) ;
#58 = ADVANCED_FACE ( 'NONE', ( #438 ), #518, .T. ) ;
#59 = FACE_OUTER_BOUND ( 'NONE', #322, .T. ) ;
#60 = ORIENTED_EDGE ( 'NONE', *, *, #548, .F. ) ;
#61 = VECTOR ( 'NONE', #198, 1000.000000000000114 ) ;
#62 = DIRECTION ( 'NONE',  ( -0.000000000000000000, -0.000000000000000000, 1.000000000000000000 ) ) ;
#63 = EDGE_LOOP ( 'NONE', ( #922, #948, #902, #538 ) ) ;
#64 = SHAPE_DEFINITION_REPRESENTATION ( #842, #681 ) ;
#65 = PLANE ( 'NONE',  #890 ) ;
#66 = AXIS2_PLACEMENT_3D ( 'NONE', #255, #191, #502 ) ;
#67 = AXIS2_PLACEMENT_3D ( 'NONE', #919, #40, #931 ) ;
#68 = EDGE_LOOP ( 'NONE', ( #77, #949 ) ) ;
#69 = DIRECTION ( 'NONE',  ( 0.000000000000000000, 0.000000000000000000, 1.000000000000000000 ) ) ;
#70 = CARTESIAN_POINT ( 'NONE',  ( 6.175092483748555239, 0.8773147407512820184, 0.000000000000000000 ) ) ;
#71 = ADVANCED_FACE ( 'NONE', ( #355 ), #988, .F. ) ;
#72 = VERTEX_POINT ( 'NONE', #614 ) ;
#73 = APPLICATION_PROTOCOL_DEFINITION ( 'draft international standard', 'automotive_design', 1998, #89 ) ;
#74 = CARTESIAN_POINT ( 'NONE',  ( 19.04780805675594735, -4.784468472043374554, 0.2500000000000000000 ) ) ;
#75 = AXIS2_PLACEMENT_3D ( 'NONE', #585, #888, #814 ) ;
#76 = UNCERTAINTY_MEASURE_WITH_UNIT (LENGTH_MEASURE( 1.000000000000000082E-05 ), #28, 'distance_accuracy_value', 'NONE');
#77 = ORIENTED_EDGE ( 'NONE', *, *, #786, .F. ) ;
#78 = CARTESIAN_POINT ( 'NONE',  ( 19.04780805675594735, -4.784468472043374554, 0.2500000000000000000 ) ) ;
#79 = AXIS2_PLACEMENT_3D ( 'NONE', #723, #863, #788 ) ;
#80 = EDGE_LOOP ( 'NONE', ( #95, #319, #550, #301 ) ) ;
#81 = EDGE_LOOP ( 'NONE', ( #496, #544, #436, #864 ) ) ;
#82 = EDGE_CURVE ( 'NONE', #44, #400, #197, .T. ) ;
#83 = CARTESIAN_POINT ( 'NONE',  ( 0.000000000000000000, 0.000000000000000000, 4.199999999999981526 ) ) ;
#84 = ORIENTED_EDGE ( 'NONE', *, *, #339, .F. ) ;
#85 = EDGE_CURVE ( 'NONE', #256, #706, #707, .T. ) ;
#86 = CARTESIAN_POINT ( 'NONE',  ( 6.175092483748564121, -0.8773147407512872364, 0.000000000000000000 ) ) ;
#87 = ORIENTED_EDGE ( 'NONE', *, *, #866, .T. ) ;
#88 = FACE_BOUND ( 'NONE', #590, .T. ) ;
#89 = APPLICATION_CONTEXT ( 'automotive_design' ) ;
#90 =( GEOMETRIC_REPRESENTATION_CONTEXT ( 3 ) GLOBAL_UNCERTAINTY_ASSIGNED_CONTEXT ( ( #106 ) ) GLOBAL_UNIT_ASSIGNED_CONTEXT ( ( #182, #596, #591 ) ) REPRESENTATION_CONTEXT ( 'NONE', 'WORKASPACE' ) );
#91 = VERTEX_POINT ( 'NONE', #35 ) ;
#92 = DIRECTION ( 'NONE',  ( -0.000000000000000000, -0.000000000000000000, -1.000000000000000000 ) ) ;
#93 = CYLINDRICAL_SURFACE ( 'NONE', #374, 2.500000000000000000 ) ;
#94 = SHAPE_REPRESENTATION ( 'pole\X2\7d445408\X0\', ( #827, #589, #104, #449 ), #330 ) ;
#95 = ORIENTED_EDGE ( 'NONE', *, *, #85, .T. ) ;
#96 = VECTOR ( 'NONE', #112, 1000.000000000000000 ) ;
#97 = CARTESIAN_POINT ( 'NONE',  ( 0.3579999999999999849, 0.000000000000000000, 0.2500000000000000000 ) ) ;
#98 = CIRCLE ( 'NONE', #646, 10.00000000000000178 ) ;
#99 = PRODUCT_DEFINITION ( 'UNKNOWN', '', #162, #583 ) ;
#100 = MECHANICAL_DESIGN_GEOMETRIC_PRESENTATION_REPRESENTATION (  '', ( #822 ), #377 ) ;
#101 = CARTESIAN_POINT ( 'NONE',  ( 0.000000000000000000, 0.000000000000000000, 0.000000000000000000 ) ) ;
#102 = DIRECTION ( 'NONE',  ( -1.000000000000000000, 0.000000000000000000, 0.000000000000000000 ) ) ;
#103 = DIRECTION ( 'NONE',  ( -0.000000000000000000, -0.000000000000000000, -1.000000000000000000 ) ) ;
#104 = AXIS2_PLACEMENT_3D ( 'NONE', #545, #475, #642 ) ;
#105 = VECTOR ( 'NONE', #212, 1000.000000000000000 ) ;
#106 = UNCERTAINTY_MEASURE_WITH_UNIT (LENGTH_MEASURE( 1.000000000000000082E-05 ), #182, 'distance_accuracy_value', 'NONE');
#107 = ADVANCED_BREP_SHAPE_REPRESENTATION ( '', ( #557, #139 ), #569 ) ;
#108 = VECTOR ( 'NONE', #912, 1000.000000000000000 ) ;
#109 = CYLINDRICAL_SURFACE ( 'NONE', #897, 7.500000000000000000 ) ;
#110 = PLANE ( 'NONE',  #452 ) ;
#111 = ORIENTED_EDGE ( 'NONE', *, *, #998, .T. ) ;
#112 = DIRECTION ( 'NONE',  ( -0.000000000000000000, -0.000000000000000000, -1.000000000000000000 ) ) ;
#113 = DIRECTION ( 'NONE',  ( -0.000000000000000000, -0.000000000000000000, -1.000000000000000000 ) ) ;
#114 = DIRECTION ( 'NONE',  ( -0.000000000000000000, -0.000000000000000000, -1.000000000000000000 ) ) ;
#115 = EDGE_LOOP ( 'NONE', ( #687, #761, #38, #700, #305, #419 ) ) ;
#116 = SHAPE_REPRESENTATION_RELATIONSHIP ( 'NONE' , 'NONE' ,  #681, #107 ) ;
#117 = AXIS2_PLACEMENT_3D ( 'NONE', #876, #871, #235 ) ;
#118 = PRODUCT ( 'pole', 'pole', '', ( #138 ) ) ;
#119 = EDGE_CURVE ( 'NONE', #580, #807, #936, .T. ) ;
#120 = DIRECTION ( 'NONE',  ( -1.000000000000000000, 0.000000000000000000, 0.000000000000000000 ) ) ;
#121 = ADVANCED_FACE ( 'NONE', ( #129 ), #764, .T. ) ;
#122 = CARTESIAN_POINT ( 'NONE',  ( 2.500000000000000000, 0.000000000000000000, -11.00000000000000000 ) ) ;
#123 = LINE ( 'NONE', #766, #134 ) ;
#124 = ORIENTED_EDGE ( 'NONE', *, *, #141, .T. ) ;
#125 = EDGE_CURVE ( 'NONE', #326, #957, #533, .T. ) ;
#126 = DIRECTION ( 'NONE',  ( 1.000000000000000000, 0.000000000000000000, 0.000000000000000000 ) ) ;
#127 = LINE ( 'NONE', #1006, #408 ) ;
#128 = AXIS2_PLACEMENT_3D ( 'NONE', #42, #454, #218 ) ;
#129 = FACE_OUTER_BOUND ( 'NONE', #63, .T. ) ;
#130 = CARTESIAN_POINT ( 'NONE',  ( 2.439282681445510637, -0.5000000000000004441, 4.700000000000000178 ) ) ;
#131 = PRODUCT_DEFINITION_SHAPE ( 'NONE', 'NONE',  #1032 ) ;
#132 = ORIENTED_EDGE ( 'NONE', *, *, #746, .T. ) ;
#133 = CARTESIAN_POINT ( 'NONE',  ( -2.490000000000000213, 0.000000000000000000, 0.000000000000000000 ) ) ;
#134 = VECTOR ( 'NONE', #284, 1000.000000000000000 ) ;
#135 = DIRECTION ( 'NONE',  ( 1.000000000000000000, 0.000000000000000000, 0.000000000000000000 ) ) ;
#136 = CYLINDRICAL_SURFACE ( 'NONE', #148, 10.00000000000000178 ) ;
#137 = VERTEX_POINT ( 'NONE', #278 ) ;
#138 = PRODUCT_CONTEXT ( 'NONE', #314, 'mechanical' ) ;
#139 = AXIS2_PLACEMENT_3D ( 'NONE', #373, #264, #126 ) ;
#140 = CARTESIAN_POINT ( 'NONE',  ( 0.3573806474034352809, -0.004961491949114188449, 0.000000000000000000 ) ) ;
#141 = EDGE_CURVE ( 'NONE', #400, #412, #180, .T. ) ;
#142 = DIRECTION ( 'NONE',  ( 0.000000000000000000, 0.000000000000000000, 1.000000000000000000 ) ) ;
#143 = ORIENTED_EDGE ( 'NONE', *, *, #704, .F. ) ;
#144 = PRODUCT_CONTEXT ( 'NONE', #308, 'mechanical' ) ;
#145 = DIRECTION ( 'NONE',  ( 1.000000000000000000, 0.000000000000000000, 0.000000000000000000 ) ) ;
#146 = SURFACE_STYLE_USAGE ( .BOTH. , #640 ) ;
#147 = ORIENTED_EDGE ( 'NONE', *, *, #578, .F. ) ;
#148 = AXIS2_PLACEMENT_3D ( 'NONE', #460, #703, #806 ) ;
#149 = DIRECTION ( 'NONE',  ( -0.000000000000000000, -0.000000000000000000, -1.000000000000000000 ) ) ;
#150 = DIRECTION ( 'NONE',  ( -0.9568936944086745555, -0.2904383886488113853, -0.000000000000000000 ) ) ;
#151 = EDGE_LOOP ( 'NONE', ( #567, #973, #274, #22 ) ) ;
#152 = APPLICATION_PROTOCOL_DEFINITION ( 'draft international standard', 'automotive_design', 1998, #458 ) ;
#153 = FACE_BOUND ( 'NONE', #68, .T. ) ;
#154 = ADVANCED_FACE ( 'NONE', ( #366 ), #350, .F. ) ;
#155 = CIRCLE ( 'NONE', #480, 2.490000000000000213 ) ;
#156 = AXIS2_PLACEMENT_3D ( 'NONE', #83, #195, #265 ) ;
#157 = CARTESIAN_POINT ( 'NONE',  ( 0.3573806474034359471, 0.004961491949114615191, 0.2500000000000000000 ) ) ;
#158 = EDGE_LOOP ( 'NONE', ( #499, #795 ) ) ;
#159 = DIRECTION ( 'NONE',  ( 1.000000000000000000, 0.000000000000000000, 0.000000000000000000 ) ) ;
#160 = ADVANCED_FACE ( 'NONE', ( #1013 ), #223, .F. ) ;
#161 = DIRECTION ( 'NONE',  ( -1.000000000000000000, 0.000000000000000000, 0.000000000000000000 ) ) ;
#162 = PRODUCT_DEFINITION_FORMATION_WITH_SPECIFIED_SOURCE ( 'ANY', '', #925, .NOT_KNOWN. ) ;
#163 = ORIENTED_EDGE ( 'NONE', *, *, #629, .T. ) ;
#164 = CIRCLE ( 'NONE', #623, 2.490000000000000213 ) ;
#165 = CARTESIAN_POINT ( 'NONE',  ( 2.500000000000000000, 0.000000000000000000, -11.00000000000000000 ) ) ;
#166 = ORIENTED_EDGE ( 'NONE', *, *, #82, .T. ) ;
#167 = EDGE_CURVE ( 'NONE', #605, #194, #45, .T. ) ;
#168 = LINE ( 'NONE', #250, #1016 ) ;
#169 = DIRECTION ( 'NONE',  ( 0.000000000000000000, 0.000000000000000000, 1.000000000000000000 ) ) ;
#170 = ADVANCED_FACE ( 'NONE', ( #938 ), #136, .F. ) ;
#171 = EDGE_LOOP ( 'NONE', ( #817, #268 ) ) ;
#172 = AXIS2_PLACEMENT_3D ( 'NONE', #384, #846, #466 ) ;
#173 = DIRECTION ( 'NONE',  ( 1.000000000000000000, 0.000000000000000000, -0.000000000000000000 ) ) ;
#174 = CARTESIAN_POINT ( 'NONE',  ( 3.270708597260458816, 10.44625168483803712, 0.2500000000000000000 ) ) ;
#175 = ORIENTED_EDGE ( 'NONE', *, *, #327, .T. ) ;
#176 = LINE ( 'NONE', #501, #951 ) ;
#177 = EDGE_LOOP ( 'NONE', ( #87, #84, #60, #175 ) ) ;
#178 = DIRECTION ( 'NONE',  ( 1.000000000000000000, 0.000000000000000000, 0.000000000000000000 ) ) ;
#179 = FACE_OUTER_BOUND ( 'NONE', #810, .T. ) ;
#180 = CIRCLE ( 'NONE', #300, 7.500000000000000000 ) ;
#181 = ORIENTED_EDGE ( 'NONE', *, *, #542, .F. ) ;
#182 =( LENGTH_UNIT ( ) NAMED_UNIT ( * ) SI_UNIT ( .MILLI., .METRE. ) );
#183 = VERTEX_POINT ( 'NONE', #905 ) ;
#184 = LINE ( 'NONE', #516, #482 ) ;
#185 = EDGE_CURVE ( 'NONE', #220, #636, #851, .T. ) ;
#186 = AXIS2_PLACEMENT_3D ( 'NONE', #174, #908, #178 ) ;
#187 = ORIENTED_EDGE ( 'NONE', *, *, #327, .F. ) ;
#188 = AXIS2_PLACEMENT_3D ( 'NONE', #923, #624, #937 ) ;
#189 = DIRECTION ( 'NONE',  ( -0.9568936944086745555, -0.2904383886488113853, -0.000000000000000000 ) ) ;
#190 = PRESENTATION_LAYER_ASSIGNMENT (  '', '', ( #822 ) ) ;
#191 = DIRECTION ( 'NONE',  ( 0.000000000000000000, 0.000000000000000000, -1.000000000000000000 ) ) ;
#192 = ORIENTED_EDGE ( 'NONE', *, *, #853, .F. ) ;
#193 = CARTESIAN_POINT ( 'NONE',  ( -2.439282681445510637, -0.4999999999999989453, 6.000000000000000000 ) ) ;
#194 = VERTEX_POINT ( 'NONE', #650 ) ;
#195 = DIRECTION ( 'NONE',  ( -0.000000000000000000, -0.000000000000000000, -1.000000000000000000 ) ) ;
#196 = VECTOR ( 'NONE', #477, 1000.000000000000000 ) ;
#197 = LINE ( 'NONE', #359, #105 ) ;
#198 = DIRECTION ( 'NONE',  ( 0.9568936944086745555, -0.2904383886488113853, 0.000000000000000000 ) ) ;
#199 = ORIENTED_EDGE ( 'NONE', *, *, #3, .F. ) ;
#200 = LINE ( 'NONE', #906, #507 ) ;
#201 = EDGE_CURVE ( 'NONE', #605, #767, #14, .T. ) ;
#202 = DIRECTION ( 'NONE',  ( 1.000000000000000000, 0.000000000000000000, 0.000000000000000000 ) ) ;
#203 = EDGE_CURVE ( 'NONE', #504, #789, #709, .T. ) ;
#204 = DIRECTION ( 'NONE',  ( -1.000000000000000000, 0.000000000000000000, 0.000000000000000000 ) ) ;
#205 = DIRECTION ( 'NONE',  ( 0.000000000000000000, 0.000000000000000000, 1.000000000000000000 ) ) ;
#206 = VERTEX_POINT ( 'NONE', #23 ) ;
#207 = CIRCLE ( 'NONE', #631, 2.500000000000000000 ) ;
#208 = AXIS2_PLACEMENT_3D ( 'NONE', #304, #1025, #399 ) ;
#209 = VECTOR ( 'NONE', #47, 1000.000000000000000 ) ;
#210 = PRODUCT_DEFINITION_SHAPE ( 'NONE', 'NONE',  #878 ) ;
#211 = CARTESIAN_POINT ( 'NONE',  ( -2.500000000000000000, 3.061616997868383141E-16, -11.00000000000000000 ) ) ;
#212 = DIRECTION ( 'NONE',  ( -0.000000000000000000, -0.000000000000000000, 1.000000000000000000 ) ) ;
#213 = MANIFOLD_SOLID_BREP ( '填料-伸長2', #765 ) ;
#214 = LINE ( 'NONE', #844, #639 ) ;
#215 = ORIENTED_EDGE ( 'NONE', *, *, #986, .T. ) ;
#216 = CARTESIAN_POINT ( 'NONE',  ( 19.04780805675595090, 4.784468472043375442, 0.2500000000000000000 ) ) ;
#217 = CYLINDRICAL_SURFACE ( 'NONE', #660, 2.490000000000000213 ) ;
#218 = DIRECTION ( 'NONE',  ( -1.000000000000000000, 0.000000000000000000, 0.000000000000000000 ) ) ;
#219 = PRODUCT_DEFINITION ( 'UNKNOWN', '', #896, #602 ) ;
#220 = VERTEX_POINT ( 'NONE', #901 ) ;
#221 = PRODUCT_CONTEXT ( 'NONE', #458, 'mechanical' ) ;
#222 = DIRECTION ( 'NONE',  ( -0.000000000000000000, -0.000000000000000000, -1.000000000000000000 ) ) ;
#223 = PLANE ( 'NONE',  #881 ) ;
#224 = DIRECTION ( 'NONE',  ( 1.000000000000000000, 0.000000000000000000, 0.000000000000000000 ) ) ;
#225 = ORIENTED_EDGE ( 'NONE', *, *, #721, .F. ) ;
#226 = AXIS2_PLACEMENT_3D ( 'NONE', #101, #597, #457 ) ;
#227 = FACE_OUTER_BOUND ( 'NONE', #346, .T. ) ;
#228 = CARTESIAN_POINT ( 'NONE',  ( 0.3573806474034359471, 0.004961491949114615191, 0.2500000000000000000 ) ) ;
#229 = EDGE_LOOP ( 'NONE', ( #411, #726, #677, #575 ) ) ;
#230 = EDGE_CURVE ( 'NONE', #957, #326, #247, .T. ) ;
#231 = FACE_BOUND ( 'NONE', #779, .T. ) ;
#232 = ORIENTED_EDGE ( 'NONE', *, *, #930, .T. ) ;
#233 =( NAMED_UNIT ( * ) PLANE_ANGLE_UNIT ( ) SI_UNIT ( $, .RADIAN. ) );
#234 = ADVANCED_FACE ( 'NONE', ( #663 ), #574, .T. ) ;
#235 = DIRECTION ( 'NONE',  ( 1.000000000000000000, 0.000000000000000000, 0.000000000000000000 ) ) ;
#236 = EDGE_CURVE ( 'NONE', #767, #1020, #813, .T. ) ;
#237 = EDGE_LOOP ( 'NONE', ( #898, #425 ) ) ;
#238 = APPLICATION_PROTOCOL_DEFINITION ( 'draft international standard', 'automotive_design', 1998, #30 ) ;
#239 = CYLINDRICAL_SURFACE ( 'NONE', #564, 0.004999999999999796274 ) ;
#240 = ORIENTED_EDGE ( 'NONE', *, *, #527, .T. ) ;
#241 = CARTESIAN_POINT ( 'NONE',  ( 0.000000000000000000, 0.000000000000000000, -1.000000000000000888 ) ) ;
#242 = ORIENTED_EDGE ( 'NONE', *, *, #1022, .F. ) ;
#243 = AXIS2_PLACEMENT_3D ( 'NONE', #29, #603, #759 ) ;
#244 = DIRECTION ( 'NONE',  ( -0.000000000000000000, -0.000000000000000000, -1.000000000000000000 ) ) ;
#245 = ORIENTED_EDGE ( 'NONE', *, *, #1004, .T. ) ;
#246 = EDGE_CURVE ( 'NONE', #194, #446, #168, .T. ) ;
#247 = CIRCLE ( 'NONE', #691, 2.500000000000000000 ) ;
#248 = DIRECTION ( 'NONE',  ( 1.000000000000000000, -3.035766082959412908E-16, 0.000000000000000000 ) ) ;
#249 = ORIENTED_EDGE ( 'NONE', *, *, #1022, .T. ) ;
#250 = CARTESIAN_POINT ( 'NONE',  ( -6.505213034913017976E-17, 0.4999999999999992784, 4.700000000000000178 ) ) ;
#251 = ORIENTED_EDGE ( 'NONE', *, *, #542, .T. ) ;
#252 = EDGE_LOOP ( 'NONE', ( #741, #181, #294, #944 ) ) ;
#253 = VECTOR ( 'NONE', #321, 1000.000000000000000 ) ;
#254 = DIRECTION ( 'NONE',  ( 0.000000000000000000, 0.000000000000000000, 1.000000000000000000 ) ) ;
#255 = CARTESIAN_POINT ( 'NONE',  ( 0.000000000000000000, 0.000000000000000000, -1.000000000000000888 ) ) ;
#256 = VERTEX_POINT ( 'NONE', #505 ) ;
#257 = PRESENTATION_STYLE_ASSIGNMENT (( #495 ) ) ;
#258 = CLOSED_SHELL ( 'NONE', ( #757, #121, #71, #170, #497, #914, #358, #354, #160, #717, #833 ) ) ;
#259 = ADVANCED_FACE ( 'NONE', ( #410, #818 ), #332, .T. ) ;
#260 = DIRECTION ( 'NONE',  ( -1.000000000000000000, 0.000000000000000000, 0.000000000000000000 ) ) ;
#261 = AXIS2_PLACEMENT_3D ( 'NONE', #43, #519, #267 ) ;
#262 = VERTEX_POINT ( 'NONE', #86 ) ;
#263 = DIRECTION ( 'NONE',  ( -1.000000000000000000, 0.000000000000000000, 0.000000000000000000 ) ) ;
#264 = DIRECTION ( 'NONE',  ( 0.000000000000000000, 0.000000000000000000, 1.000000000000000000 ) ) ;
#265 = DIRECTION ( 'NONE',  ( -1.000000000000000000, 0.000000000000000000, 0.000000000000000000 ) ) ;
#266 = CYLINDRICAL_SURFACE ( 'NONE', #571, 7.500000000000000000 ) ;
#267 = DIRECTION ( 'NONE',  ( 1.000000000000000000, 0.000000000000000000, 0.000000000000000000 ) ) ;
#268 = ORIENTED_EDGE ( 'NONE', *, *, #203, .T. ) ;
#269 = DIRECTION ( 'NONE',  ( 1.000000000000000000, 0.000000000000000000, 0.000000000000000000 ) ) ;
#270 = CYLINDRICAL_SURFACE ( 'NONE', #325, 5.000000000000000888 ) ;
#271 = ADVANCED_FACE ( 'NONE', ( #413 ), #735, .F. ) ;
#272 = DIRECTION ( 'NONE',  ( 0.1238705193128785131, 0.9922983898229190691, -0.000000000000000000 ) ) ;
#273 = CARTESIAN_POINT ( 'NONE',  ( 0.000000000000000000, 0.000000000000000000, 6.000000000000000000 ) ) ;
#274 = ORIENTED_EDGE ( 'NONE', *, *, #894, .F. ) ;
#275 = EDGE_CURVE ( 'NONE', #183, #194, #176, .T. ) ;
#276 = CARTESIAN_POINT ( 'NONE',  ( 4.509413790389228183, 0.5232677866088432106, 0.000000000000000000 ) ) ;
#277 = MECHANICAL_DESIGN_GEOMETRIC_PRESENTATION_REPRESENTATION (  '', ( #320 ), #90 ) ;
#278 = CARTESIAN_POINT ( 'NONE',  ( -3.500000000000000000, 0.000000000000000000, 0.000000000000000000 ) ) ;
#279 = DIRECTION ( 'NONE',  ( 0.9568936944086745555, 0.2904383886488113853, 0.000000000000000000 ) ) ;
#280 = ORIENTED_EDGE ( 'NONE', *, *, #943, .F. ) ;
#281 =( NAMED_UNIT ( * ) PLANE_ANGLE_UNIT ( ) SI_UNIT ( $, .RADIAN. ) );
#282 = LINE ( 'NONE', #211, #209 ) ;
#283 = CARTESIAN_POINT ( 'NONE',  ( -2.439282681445510637, -0.4999999999999989453, 4.700000000000000178 ) ) ;
#284 = DIRECTION ( 'NONE',  ( -0.000000000000000000, -0.000000000000000000, -1.000000000000000000 ) ) ;
#285 = ORIENTED_EDGE ( 'NONE', *, *, #236, .T. ) ;
#286 =( NAMED_UNIT ( * ) PLANE_ANGLE_UNIT ( ) SI_UNIT ( $, .RADIAN. ) );
#287 = VECTOR ( 'NONE', #903, 1000.000000000000000 ) ;
#288 = PRESENTATION_LAYER_ASSIGNMENT (  '', '', ( #407 ) ) ;
#289 = VECTOR ( 'NONE', #471, 1000.000000000000000 ) ;
#290 = PRODUCT_DEFINITION_SHAPE ( 'NONE', 'NONE',  #1031 ) ;
#291 = DIRECTION ( 'NONE',  ( -1.301042606982605567E-16, 1.000000000000000000, 0.000000000000000000 ) ) ;
#292 = LINE ( 'NONE', #420, #798 ) ;
#293 = CARTESIAN_POINT ( 'NONE',  ( 3.270708597260458816, 10.44625168483803712, 0.000000000000000000 ) ) ;
#294 = ORIENTED_EDGE ( 'NONE', *, *, #578, .T. ) ;
#295 = DIRECTION ( 'NONE',  ( 0.000000000000000000, 0.000000000000000000, 1.000000000000000000 ) ) ;
#296 = PRODUCT_DEFINITION_FORMATION_WITH_SPECIFIED_SOURCE ( 'ANY', '', #689, .NOT_KNOWN. ) ;
#297 = CARTESIAN_POINT ( 'NONE',  ( 2.500000000000000000, 3.061616997868383141E-16, 4.199999999999981526 ) ) ;
#298 = AXIS2_PLACEMENT_3D ( 'NONE', #915, #932, #698 ) ;
#299 = DIRECTION ( 'NONE',  ( 1.000000000000000000, 0.000000000000000000, 0.000000000000000000 ) ) ;
#300 = AXIS2_PLACEMENT_3D ( 'NONE', #428, #26, #204 ) ;
#301 = ORIENTED_EDGE ( 'NONE', *, *, #946, .F. ) ;
#302 = CONTEXT_DEPENDENT_SHAPE_REPRESENTATION ( #981, #307 ) ;
#303 = CYLINDRICAL_SURFACE ( 'NONE', #581, 3.500000000000000000 ) ;
#304 = CARTESIAN_POINT ( 'NONE',  ( 0.000000000000000000, 0.000000000000000000, 4.199999999999981526 ) ) ;
#305 = ORIENTED_EDGE ( 'NONE', *, *, #167, .T. ) ;
#306 = DIRECTION ( 'NONE',  ( 1.000000000000000000, 0.000000000000000000, 0.000000000000000000 ) ) ;
#307 = PRODUCT_DEFINITION_SHAPE ( 'NONE', 'NONE',  #1033 ) ;
#308 = APPLICATION_CONTEXT ( 'automotive_design' ) ;
#309 = DIRECTION ( 'NONE',  ( -1.000000000000000000, 0.000000000000000000, -0.000000000000000000 ) ) ;
#310 = EDGE_CURVE ( 'NONE', #732, #830, #292, .T. ) ;
#311 = CARTESIAN_POINT ( 'NONE',  ( 0.000000000000000000, 0.000000000000000000, 0.000000000000000000 ) ) ;
#312 = ORIENTED_EDGE ( 'NONE', *, *, #389, .F. ) ;
#313 =( NAMED_UNIT ( * ) SI_UNIT ( $, .STERADIAN. ) SOLID_ANGLE_UNIT ( ) );
#314 = APPLICATION_CONTEXT ( 'automotive_design' ) ;
#315 = LINE ( 'NONE', #793, #958 ) ;
#316 = EDGE_CURVE ( 'NONE', #595, #412, #829, .T. ) ;
#317 = CLOSED_SHELL ( 'NONE', ( #46, #271, #690, #259, #910, #731, #972, #792, #12 ) ) ;
#318 = LINE ( 'NONE', #157, #790 ) ;
#319 = ORIENTED_EDGE ( 'NONE', *, *, #969, .T. ) ;
#320 = STYLED_ITEM ( 'NONE', ( #257 ), #213 ) ;
#321 = DIRECTION ( 'NONE',  ( -0.000000000000000000, -0.000000000000000000, -1.000000000000000000 ) ) ;
#322 = EDGE_LOOP ( 'NONE', ( #886, #372, #939, #368 ) ) ;
#323 = DIRECTION ( 'NONE',  ( 1.000000000000000000, 0.000000000000000000, 0.000000000000000000 ) ) ;
#324 = VECTOR ( 'NONE', #644, 1000.000000000000114 ) ;
#325 = AXIS2_PLACEMENT_3D ( 'NONE', #737, #347, #260 ) ;
#326 = VERTEX_POINT ( 'NONE', #514 ) ;
#327 = EDGE_CURVE ( 'NONE', #985, #641, #214, .T. ) ;
#328 = DIRECTION ( 'NONE',  ( -1.000000000000000000, 0.000000000000000000, 0.000000000000000000 ) ) ;
#329 = FACE_OUTER_BOUND ( 'NONE', #711, .T. ) ;
#330 =( GEOMETRIC_REPRESENTATION_CONTEXT ( 3 ) GLOBAL_UNCERTAINTY_ASSIGNED_CONTEXT ( ( #570 ) ) GLOBAL_UNIT_ASSIGNED_CONTEXT ( ( #633, #233, #313 ) ) REPRESENTATION_CONTEXT ( 'NONE', 'WORKASPACE' ) );
#331 = ORIENTED_EDGE ( 'NONE', *, *, #746, .F. ) ;
#332 = PLANE ( 'NONE',  #799 ) ;
#333 = DIRECTION ( 'NONE',  ( 0.000000000000000000, 0.000000000000000000, 1.000000000000000000 ) ) ;
#334 = VERTEX_POINT ( 'NONE', #599 ) ;
#335 = ORIENTED_EDGE ( 'NONE', *, *, #816, .F. ) ;
#336 = PRODUCT_DEFINITION ( 'UNKNOWN', '', #296, #18 ) ;
#337 = FILL_AREA_STYLE ('',( #341 ) ) ;
#338 = VERTEX_POINT ( 'NONE', #193 ) ;
#339 = EDGE_CURVE ( 'NONE', #494, #361, #37, .T. ) ;
#340 = CARTESIAN_POINT ( 'NONE',  ( 2.490000000000000213, 3.049370529876909390E-16, 6.000000000000000000 ) ) ;
#341 = FILL_AREA_STYLE_COLOUR ( '', #648 ) ;
#342 = ADVANCED_FACE ( 'NONE', ( #824 ), #110, .T. ) ;
#343 = CARTESIAN_POINT ( 'NONE',  ( 0.000000000000000000, 0.000000000000000000, -11.00000000000000000 ) ) ;
#344 = ORIENTED_EDGE ( 'NONE', *, *, #203, .F. ) ;
#345 = DIRECTION ( 'NONE',  ( 0.000000000000000000, 0.000000000000000000, -1.000000000000000000 ) ) ;
#346 = EDGE_LOOP ( 'NONE', ( #245, #553, #1010, #713, #995, #132, #249, #559, #736 ) ) ;
#347 = DIRECTION ( 'NONE',  ( -0.000000000000000000, -0.000000000000000000, -1.000000000000000000 ) ) ;
#348 = AXIS2_PLACEMENT_3D ( 'NONE', #836, #751, #279 ) ;
#349 = AXIS2_PLACEMENT_3D ( 'NONE', #657, #968, #893 ) ;
#350 = PLANE ( 'NONE',  #11 ) ;
#351 = ADVANCED_BREP_SHAPE_REPRESENTATION ( '', ( #916, #139 ), #52 ) ;
#352 = DIRECTION ( 'NONE',  ( 1.000000000000000000, 0.000000000000000000, 0.000000000000000000 ) ) ;
#353 = FACE_OUTER_BOUND ( 'NONE', #414, .T. ) ;
#354 = ADVANCED_FACE ( 'NONE', ( #616 ), #360, .F. ) ;
#355 = FACE_OUTER_BOUND ( 'NONE', #19, .T. ) ;
#356 = FACE_OUTER_BOUND ( 'NONE', #935, .T. ) ;
#357 = CIRCLE ( 'NONE', #942, 2.490000000000000213 ) ;
#358 = ADVANCED_FACE ( 'NONE', ( #429 ), #755, .F. ) ;
#359 = CARTESIAN_POINT ( 'NONE',  ( 7.500000000000000000, 0.000000000000000000, -1.000000000000000888 ) ) ;
#360 = CYLINDRICAL_SURFACE ( 'NONE', #1030, 10.00000000000000178 ) ;
#361 = VERTEX_POINT ( 'NONE', #1001 ) ;
#362 = CARTESIAN_POINT ( 'NONE',  ( 0.000000000000000000, 0.000000000000000000, 0.000000000000000000 ) ) ;
#363 =( REPRESENTATION_RELATIONSHIP ('NONE','NONE', #94, #535 ) REPRESENTATION_RELATIONSHIP_WITH_TRANSFORMATION ( #1027 )SHAPE_REPRESENTATION_RELATIONSHIP( ) );
#364 = PLANE ( 'NONE',  #188 ) ;
#365 = AXIS2_PLACEMENT_3D ( 'NONE', #962, #254, #883 ) ;
#366 = FACE_OUTER_BOUND ( 'NONE', #151, .T. ) ;
#367 = DIRECTION ( 'NONE',  ( 1.000000000000000000, 0.000000000000000000, 0.000000000000000000 ) ) ;
#368 = ORIENTED_EDGE ( 'NONE', *, *, #613, .T. ) ;
#369 = CYLINDRICAL_SURFACE ( 'NONE', #775, 2.500000000000000000 ) ;
#370 = CARTESIAN_POINT ( 'NONE',  ( 0.000000000000000000, 0.000000000000000000, -1.000000000000000888 ) ) ;
#371 = DIRECTION ( 'NONE',  ( 0.000000000000000000, 0.000000000000000000, 1.000000000000000000 ) ) ;
#372 = ORIENTED_EDGE ( 'NONE', *, *, #865, .F. ) ;
#373 = CARTESIAN_POINT ( 'NONE',  ( 0.000000000000000000, 0.000000000000000000, 0.000000000000000000 ) ) ;
#374 = AXIS2_PLACEMENT_3D ( 'NONE', #343, #62, #135 ) ;
#375 = EDGE_CURVE ( 'NONE', #220, #572, #669, .T. ) ;
#376 = CIRCLE ( 'NONE', #546, 0.004999999999999796274 ) ;
#377 =( GEOMETRIC_REPRESENTATION_CONTEXT ( 3 ) GLOBAL_UNCERTAINTY_ASSIGNED_CONTEXT ( ( #76 ) ) GLOBAL_UNIT_ASSIGNED_CONTEXT ( ( #28, #431, #733 ) ) REPRESENTATION_CONTEXT ( 'NONE', 'WORKASPACE' ) );
#378 = DIRECTION ( 'NONE',  ( -1.000000000000000000, 0.000000000000000000, 0.000000000000000000 ) ) ;
#379 = CARTESIAN_POINT ( 'NONE',  ( 0.000000000000000000, 0.000000000000000000, 4.700000000000000178 ) ) ;
#380 =( LENGTH_UNIT ( ) NAMED_UNIT ( * ) SI_UNIT ( .MILLI., .METRE. ) );
#381 = EDGE_LOOP ( 'NONE', ( #404, #199, #240, #225, #724, #13, #892, #584 ) ) ;
#382 = APPLICATION_CONTEXT ( 'automotive_design' ) ;
#383 = PRODUCT_DEFINITION_FORMATION_WITH_SPECIFIED_SOURCE ( 'ANY', '', #118, .NOT_KNOWN. ) ;
#384 = CARTESIAN_POINT ( 'NONE',  ( 0.3579999999999999849, 0.000000000000000000, 0.000000000000000000 ) ) ;
#385 = CARTESIAN_POINT ( 'NONE',  ( 6.175092483748565009, -0.8773147407512854601, 0.2500000000000000000 ) ) ;
#386 = VERTEX_POINT ( 'NONE', #927 ) ;
#387 = DIRECTION ( 'NONE',  ( -0.000000000000000000, -0.000000000000000000, -1.000000000000000000 ) ) ;
#388 = EDGE_CURVE ( 'NONE', #338, #32, #123, .T. ) ;
#389 = EDGE_CURVE ( 'NONE', #183, #206, #625, .T. ) ;
#390 = ORIENTED_EDGE ( 'NONE', *, *, #532, .T. ) ;
#391 = APPLICATION_PROTOCOL_DEFINITION ( 'draft international standard', 'automotive_design', 1998, #314 ) ;
#392 = EDGE_CURVE ( 'NONE', #632, #1020, #676, .T. ) ;
#393 = CARTESIAN_POINT ( 'NONE',  ( 0.3579999999999999849, 0.000000000000000000, 0.000000000000000000 ) ) ;
#394 = CIRCLE ( 'NONE', #172, 0.004999999999999796274 ) ;
#395 = CARTESIAN_POINT ( 'NONE',  ( 3.500000000000000000, 4.286263797015736595E-16, 0.000000000000000000 ) ) ;
#396 = VERTEX_POINT ( 'NONE', #130 ) ;
#397 = CARTESIAN_POINT ( 'NONE',  ( 21.27763754782495909, -2.096116504847392648, 1006.925000000007344 ) ) ;
#398 = CARTESIAN_POINT ( 'NONE',  ( 0.000000000000000000, 0.000000000000000000, 0.000000000000000000 ) ) ;
#399 = DIRECTION ( 'NONE',  ( 1.000000000000000000, 0.000000000000000000, 0.000000000000000000 ) ) ;
#400 = VERTEX_POINT ( 'NONE', #984 ) ;
#401 = SHAPE_DEFINITION_REPRESENTATION ( #441, #672 ) ;
#402 = AXIS2_PLACEMENT_3D ( 'NONE', #293, #114, #367 ) ;
#403 = LINE ( 'NONE', #725, #324 ) ;
#404 = ORIENTED_EDGE ( 'NONE', *, *, #201, .F. ) ;
#405 = CARTESIAN_POINT ( 'NONE',  ( 0.000000000000000000, 0.000000000000000000, -11.00000000000000000 ) ) ;
#406 = DIRECTION ( 'NONE',  ( 0.000000000000000000, 0.000000000000000000, -1.000000000000000000 ) ) ;
#407 = STYLED_ITEM ( 'NONE', ( #473 ), #557 ) ;
#408 = VECTOR ( 'NONE', #857, 1000.000000000000000 ) ;
#409 = ORIENTED_EDGE ( 'NONE', *, *, #230, .F. ) ;
#410 = FACE_OUTER_BOUND ( 'NONE', #860, .T. ) ;
#411 = ORIENTED_EDGE ( 'NONE', *, *, #704, .T. ) ;
#412 = VERTEX_POINT ( 'NONE', #530 ) ;
#413 = FACE_OUTER_BOUND ( 'NONE', #80, .T. ) ;
#414 = EDGE_LOOP ( 'NONE', ( #390, #456, #331, #442 ) ) ;
#415 = AXIS2_PLACEMENT_3D ( 'NONE', #405, #747, #263 ) ;
#416 = DIRECTION ( 'NONE',  ( 0.9922983898229190691, -0.1238705193128785131, 0.000000000000000000 ) ) ;
#417 = EDGE_CURVE ( 'NONE', #446, #632, #722, .T. ) ;
#418 =( REPRESENTATION_RELATIONSHIP ('NONE','NONE', #94, #672 ) REPRESENTATION_RELATIONSHIP_WITH_TRANSFORMATION ( #479 )SHAPE_REPRESENTATION_RELATIONSHIP( ) );
#419 = ORIENTED_EDGE ( 'NONE', *, *, #246, .T. ) ;
#420 = CARTESIAN_POINT ( 'NONE',  ( 6.175092483748565009, -0.8773147407512854601, 0.2500000000000000000 ) ) ;
#421 = ORIENTED_EDGE ( 'NONE', *, *, #721, .T. ) ;
#422 = EDGE_CURVE ( 'NONE', #812, #641, #517, .T. ) ;
#423 = SURFACE_STYLE_USAGE ( .BOTH. , #587 ) ;
#424 = COLOUR_RGB ( '',0.7921568627450980005, 0.8196078431372548767, 0.9333333333333333481 ) ;
#425 = ORIENTED_EDGE ( 'NONE', *, *, #998, .F. ) ;
#426 = AXIS2_PLACEMENT_3D ( 'NONE', #991, #443, #202 ) ;
#427 = DIRECTION ( 'NONE',  ( 1.000000000000000000, 0.000000000000000000, 0.000000000000000000 ) ) ;
#428 = CARTESIAN_POINT ( 'NONE',  ( 0.000000000000000000, 0.000000000000000000, 0.000000000000000000 ) ) ;
#429 = FACE_OUTER_BOUND ( 'NONE', #600, .T. ) ;
#430 = AXIS2_PLACEMENT_3D ( 'NONE', #444, #272, #920 ) ;
#431 =( NAMED_UNIT ( * ) PLANE_ANGLE_UNIT ( ) SI_UNIT ( $, .RADIAN. ) );
#432 = APPLICATION_CONTEXT ( 'automotive_design' ) ;
#433 = EDGE_CURVE ( 'NONE', #262, #756, #439, .T. ) ;
#434 = FACE_OUTER_BOUND ( 'NONE', #777, .T. ) ;
#435 = DIRECTION ( 'NONE',  ( -0.000000000000000000, -0.000000000000000000, 1.000000000000000000 ) ) ;
#436 = ORIENTED_EDGE ( 'NONE', *, *, #246, .F. ) ;
#437 = DIRECTION ( 'NONE',  ( 0.000000000000000000, 0.000000000000000000, -1.000000000000000000 ) ) ;
#438 = FACE_OUTER_BOUND ( 'NONE', #171, .T. ) ;
#439 = LINE ( 'NONE', #31, #61 ) ;
#440 = CIRCLE ( 'NONE', #841, 7.500000000000000000 ) ;
#441 = PRODUCT_DEFINITION_SHAPE ( 'NONE', 'NONE',  #336 ) ;
#442 = ORIENTED_EDGE ( 'NONE', *, *, #865, .T. ) ;
#443 = DIRECTION ( 'NONE',  ( -0.000000000000000000, 0.000000000000000000, 1.000000000000000000 ) ) ;
#444 = CARTESIAN_POINT ( 'NONE',  ( 0.3573806474034352809, -0.004961491949114188449, 0.2500000000000000000 ) ) ;
#445 = CARTESIAN_POINT ( 'NONE',  ( 0.3530000000000002025, 0.000000000000000000, 0.2500000000000000000 ) ) ;
#446 = VERTEX_POINT ( 'NONE', #760 ) ;
#447 = DIRECTION ( 'NONE',  ( -1.000000000000000000, 0.000000000000000000, 0.000000000000000000 ) ) ;
#448 = FACE_OUTER_BOUND ( 'NONE', #966, .T. ) ;
#449 = AXIS2_PLACEMENT_3D ( 'NONE', #397, #954, #870 ) ;
#450 = LINE ( 'NONE', #534, #289 ) ;
#451 = PRODUCT_DEFINITION_SHAPE ( 'NONE', 'NONE',  #99 ) ;
#452 = AXIS2_PLACEMENT_3D ( 'NONE', #1009, #510, #609 ) ;
#453 = ADVANCED_FACE ( 'NONE', ( #356 ), #989, .T. ) ;
#454 = DIRECTION ( 'NONE',  ( -0.000000000000000000, -0.000000000000000000, -1.000000000000000000 ) ) ;
#455 = DIRECTION ( 'NONE',  ( -0.000000000000000000, -0.000000000000000000, -1.000000000000000000 ) ) ;
#456 = ORIENTED_EDGE ( 'NONE', *, *, #1018, .F. ) ;
#457 = DIRECTION ( 'NONE',  ( -1.000000000000000000, 0.000000000000000000, 0.000000000000000000 ) ) ;
#458 = APPLICATION_CONTEXT ( 'automotive_design' ) ;
#459 = FACE_OUTER_BOUND ( 'NONE', #837, .T. ) ;
#460 = CARTESIAN_POINT ( 'NONE',  ( 3.270708597260456152, -10.44625168483803712, 0.2500000000000000000 ) ) ;
#461 = CYLINDRICAL_SURFACE ( 'NONE', #79, 2.500000000000000000 ) ;
#462 = ORIENTED_EDGE ( 'NONE', *, *, #565, .T. ) ;
#463 = SHAPE_DEFINITION_REPRESENTATION ( #210, #535 ) ;
#464 = AXIS2_PLACEMENT_3D ( 'NONE', #385, #718, #859 ) ;
#465 = CIRCLE ( 'NONE', #875, 2.490000000000000213 ) ;
#466 = DIRECTION ( 'NONE',  ( 1.000000000000000000, 0.000000000000000000, 0.000000000000000000 ) ) ;
#467 = CARTESIAN_POINT ( 'NONE',  ( 20.50000000000000000, 0.000000000000000000, 0.000000000000000000 ) ) ;
#468 = ORIENTED_EDGE ( 'NONE', *, *, #532, .F. ) ;
#469 = CONTEXT_DEPENDENT_SHAPE_REPRESENTATION ( #363, #290 ) ;
#470 = EDGE_CURVE ( 'NONE', #446, #206, #917, .T. ) ;
#471 = DIRECTION ( 'NONE',  ( -0.000000000000000000, -0.000000000000000000, -1.000000000000000000 ) ) ;
#472 = EDGE_CURVE ( 'NONE', #334, #812, #621, .T. ) ;
#473 = PRESENTATION_STYLE_ASSIGNMENT (( #146 ) ) ;
#474 = ORIENTED_EDGE ( 'NONE', *, *, #652, .F. ) ;
#475 = DIRECTION ( 'NONE',  ( 0.000000000000000000, 0.000000000000000000, 1.000000000000000000 ) ) ;
#476 = CARTESIAN_POINT ( 'NONE',  ( -2.500000000000000000, 0.000000000000000000, -1.000000000000000888 ) ) ;
#477 = DIRECTION ( 'NONE',  ( -0.000000000000000000, -0.000000000000000000, -1.000000000000000000 ) ) ;
#478 = VERTEX_POINT ( 'NONE', #395 ) ;
#479 = ITEM_DEFINED_TRANSFORMATION ( 'NONE', 'NONE', #104,  #139 ) ;
#480 = AXIS2_PLACEMENT_3D ( 'NONE', #873, #558, #224 ) ;
#481 = DIRECTION ( 'NONE',  ( 1.000000000000000000, 0.000000000000000000, -0.000000000000000000 ) ) ;
#482 = VECTOR ( 'NONE', #416, 1000.000000000000114 ) ;
#483 = DIRECTION ( 'NONE',  ( 1.000000000000000000, 0.000000000000000000, 0.000000000000000000 ) ) ;
#484 = EDGE_LOOP ( 'NONE', ( #520, #586, #462, #147 ) ) ;
#485 = ADVANCED_FACE ( 'NONE', ( #55 ), #461, .T. ) ;
#486 = CARTESIAN_POINT ( 'NONE',  ( 3.270708597260456152, -10.44625168483803712, 0.2500000000000000000 ) ) ;
#487 = VECTOR ( 'NONE', #835, 1000.000000000000000 ) ;
#488 = ORIENTED_EDGE ( 'NONE', *, *, #946, .T. ) ;
#489 = AXIS2_PLACEMENT_3D ( 'NONE', #379, #626, #299 ) ;
#490 = FACE_OUTER_BOUND ( 'NONE', #237, .T. ) ;
#491 = ORIENTED_EDGE ( 'NONE', *, *, #1018, .T. ) ;
#492 = DIRECTION ( 'NONE',  ( -1.000000000000000000, -1.301042606982605567E-16, 0.000000000000000000 ) ) ;
#493 = DIRECTION ( 'NONE',  ( 0.000000000000000000, 0.000000000000000000, 1.000000000000000000 ) ) ;
#494 = VERTEX_POINT ( 'NONE', #228 ) ;
#495 = SURFACE_STYLE_USAGE ( .BOTH. , #727 ) ;
#496 = ORIENTED_EDGE ( 'NONE', *, *, #834, .T. ) ;
#497 = ADVANCED_FACE ( 'NONE', ( #59 ), #782, .F. ) ;
#498 = LINE ( 'NONE', #820, #1005 ) ;
#499 = ORIENTED_EDGE ( 'NONE', *, *, #85, .F. ) ;
#500 = EDGE_CURVE ( 'NONE', #632, #32, #155, .T. ) ;
#501 = CARTESIAN_POINT ( 'NONE',  ( 2.439282681445510637, 0.4999999999999995559, 6.000000000000000000 ) ) ;
#502 = DIRECTION ( 'NONE',  ( -1.000000000000000000, 0.000000000000000000, -0.000000000000000000 ) ) ;
#503 = CARTESIAN_POINT ( 'NONE',  ( -3.500000000000000000, 0.000000000000000000, 4.199999999999981526 ) ) ;
#504 = VERTEX_POINT ( 'NONE', #543 ) ;
#505 = CARTESIAN_POINT ( 'NONE',  ( -2.500000000000000000, 0.000000000000000000, 4.199999999999981526 ) ) ;
#506 = SURFACE_STYLE_FILL_AREA ( #337 ) ;
#507 = VECTOR ( 'NONE', #189, 1000.000000000000114 ) ;
#508 = ORIENTED_EDGE ( 'NONE', *, *, #652, .T. ) ;
#509 = AXIS2_PLACEMENT_3D ( 'NONE', #815, #333, #594 ) ;
#510 = DIRECTION ( 'NONE',  ( 0.000000000000000000, 0.000000000000000000, 1.000000000000000000 ) ) ;
#511 = CARTESIAN_POINT ( 'NONE',  ( 4.509413790389228183, 0.5232677866088432106, 0.2500000000000000000 ) ) ;
#512 = EDGE_CURVE ( 'NONE', #653, #812, #710, .T. ) ;
#513 = DIRECTION ( 'NONE',  ( 1.000000000000000000, 0.000000000000000000, 0.000000000000000000 ) ) ;
#514 = CARTESIAN_POINT ( 'NONE',  ( 2.500000000000000000, 0.000000000000000000, 0.000000000000000000 ) ) ;
#515 = ORIENTED_EDGE ( 'NONE', *, *, #868, .T. ) ;
#516 = CARTESIAN_POINT ( 'NONE',  ( 0.3573806474034352809, -0.004961491949114188449, 0.2500000000000000000 ) ) ;
#517 = CIRCLE ( 'NONE', #402, 10.00000000000000178 ) ;
#518 = PLANE ( 'NONE',  #298 ) ;
#519 = DIRECTION ( 'NONE',  ( -0.000000000000000000, 0.000000000000000000, 1.000000000000000000 ) ) ;
#520 = ORIENTED_EDGE ( 'NONE', *, *, #868, .F. ) ;
#521 = FACE_OUTER_BOUND ( 'NONE', #484, .T. ) ;
#522 = AXIS2_PLACEMENT_3D ( 'NONE', #601, #976, #655 ) ;
#523 = CARTESIAN_POINT ( 'NONE',  ( 0.000000000000000000, 0.000000000000000000, -1.000000000000000888 ) ) ;
#524 = CARTESIAN_POINT ( 'NONE',  ( -2.439282681445510637, 0.4999999999999989453, 6.000000000000000000 ) ) ;
#525 = ORIENTED_EDGE ( 'NONE', *, *, #316, .F. ) ;
#526 = SHAPE_REPRESENTATION_RELATIONSHIP ( 'NONE' , 'NONE' ,  #672, #541 ) ;
#527 = EDGE_CURVE ( 'NONE', #396, #577, #1019, .T. ) ;
#528 = PLANE ( 'NONE',  #562 ) ;
#529 = DIRECTION ( 'NONE',  ( -1.000000000000000000, 0.000000000000000000, 0.000000000000000000 ) ) ;
#530 = CARTESIAN_POINT ( 'NONE',  ( -7.500000000000000000, 9.184850993605147944E-16, 0.000000000000000000 ) ) ;
#531 = ORIENTED_EDGE ( 'NONE', *, *, #422, .F. ) ;
#532 = EDGE_CURVE ( 'NONE', #756, #653, #858, .T. ) ;
#533 = CIRCLE ( 'NONE', #637, 2.500000000000000000 ) ;
#534 = CARTESIAN_POINT ( 'NONE',  ( 3.500000000000000000, 4.286263797015736595E-16, 4.199999999999981526 ) ) ;
#535 = SHAPE_REPRESENTATION ( 'pole', ( #139 ), #52 ) ;
#536 = VECTOR ( 'NONE', #205, 1000.000000000000000 ) ;
#537 = DIRECTION ( 'NONE',  ( 0.000000000000000000, 0.000000000000000000, -1.000000000000000000 ) ) ;
#538 = ORIENTED_EDGE ( 'NONE', *, *, #816, .T. ) ;
#539 = SHAPE_DEFINITION_REPRESENTATION ( #451, #94 ) ;
#540 = DIRECTION ( 'NONE',  ( 0.9922983898229190691, -0.1238705193128785131, 0.000000000000000000 ) ) ;
#541 = ADVANCED_BREP_SHAPE_REPRESENTATION ( '', ( #213, #139 ), #805 ) ;
#542 = EDGE_CURVE ( 'NONE', #72, #386, #889, .T. ) ;
#543 = CARTESIAN_POINT ( 'NONE',  ( -2.500000000000000000, 3.061616997868383141E-16, -11.00000000000000000 ) ) ;
#544 = ORIENTED_EDGE ( 'NONE', *, *, #470, .F. ) ;
#545 = CARTESIAN_POINT ( 'NONE',  ( 21.27763754782496264, -2.096116504847392203, 1011.125000000006935 ) ) ;
#546 = AXIS2_PLACEMENT_3D ( 'NONE', #563, #950, #955 ) ;
#547 = FACE_OUTER_BOUND ( 'NONE', #990, .T. ) ;
#548 = EDGE_CURVE ( 'NONE', #985, #494, #318, .T. ) ;
#549 = CARTESIAN_POINT ( 'NONE',  ( 6.175092483748555239, 0.8773147407512820184, 0.000000000000000000 ) ) ;
#550 = ORIENTED_EDGE ( 'NONE', *, *, #119, .T. ) ;
#551 = CARTESIAN_POINT ( 'NONE',  ( 0.000000000000000000, 0.000000000000000000, 0.000000000000000000 ) ) ;
#552 = AXIS2_PLACEMENT_3D ( 'NONE', #97, #979, #427 ) ;
#553 = ORIENTED_EDGE ( 'NONE', *, *, #185, .T. ) ;
#554 = APPLICATION_PROTOCOL_DEFINITION ( 'draft international standard', 'automotive_design', 1998, #308 ) ;
#555 = CARTESIAN_POINT ( 'NONE',  ( 19.04780805675595090, 4.784468472043375442, 0.2500000000000000000 ) ) ;
#556 = UNCERTAINTY_MEASURE_WITH_UNIT (LENGTH_MEASURE( 1.000000000000000082E-05 ), #380, 'distance_accuracy_value', 'NONE');
#557 = MANIFOLD_SOLID_BREP ( '填料-伸長2', #317 ) ;
#558 = DIRECTION ( 'NONE',  ( -0.000000000000000000, 0.000000000000000000, 1.000000000000000000 ) ) ;
#559 = ORIENTED_EDGE ( 'NONE', *, *, #967, .T. ) ;
#560 = PRODUCT_CONTEXT ( 'NONE', #30, 'mechanical' ) ;
#561 = AXIS2_PLACEMENT_3D ( 'NONE', #311, #1014, #627 ) ;
#562 = AXIS2_PLACEMENT_3D ( 'NONE', #692, #291, #607 ) ;
#563 = CARTESIAN_POINT ( 'NONE',  ( 0.3579999999999999849, 0.000000000000000000, 0.000000000000000000 ) ) ;
#564 = AXIS2_PLACEMENT_3D ( 'NONE', #576, #387, #161 ) ;
#565 = EDGE_CURVE ( 'NONE', #478, #137, #743, .T. ) ;
#566 = APPLICATION_CONTEXT ( 'automotive_design' ) ;
#567 = ORIENTED_EDGE ( 'NONE', *, *, #16, .T. ) ;
#568 = DIRECTION ( 'NONE',  ( 1.000000000000000000, 0.000000000000000000, 0.000000000000000000 ) ) ;
#569 =( GEOMETRIC_REPRESENTATION_CONTEXT ( 3 ) GLOBAL_UNCERTAINTY_ASSIGNED_CONTEXT ( ( #679 ) ) GLOBAL_UNIT_ASSIGNED_CONTEXT ( ( #606, #831, #678 ) ) REPRESENTATION_CONTEXT ( 'NONE', 'WORKASPACE' ) );
#570 = UNCERTAINTY_MEASURE_WITH_UNIT (LENGTH_MEASURE( 1.000000000000000082E-05 ), #633, 'distance_accuracy_value', 'NONE');
#571 = AXIS2_PLACEMENT_3D ( 'NONE', #370, #828, #513 ) ;
#572 = VERTEX_POINT ( 'NONE', #635 ) ;
#573 = AXIS2_PLACEMENT_3D ( 'NONE', #27, #686, #352 ) ;
#574 = CYLINDRICAL_SURFACE ( 'NONE', #75, 2.490000000000000213 ) ;
#575 = ORIENTED_EDGE ( 'NONE', *, *, #41, .T. ) ;
#576 = CARTESIAN_POINT ( 'NONE',  ( 0.3579999999999999849, 0.000000000000000000, 0.2500000000000000000 ) ) ;
#577 = VERTEX_POINT ( 'NONE', #738 ) ;
#578 = EDGE_CURVE ( 'NONE', #72, #137, #661, .T. ) ;
#579 = DIRECTION ( 'NONE',  ( 0.000000000000000000, 0.000000000000000000, 1.000000000000000000 ) ) ;
#580 = VERTEX_POINT ( 'NONE', #588 ) ;
#581 = AXIS2_PLACEMENT_3D ( 'NONE', #852, #630, #378 ) ;
#582 = ADVANCED_FACE ( 'NONE', ( #179 ), #93, .T. ) ;
#583 = PRODUCT_DEFINITION_CONTEXT ( 'detailed design', #566, 'design' ) ;
#584 = ORIENTED_EDGE ( 'NONE', *, *, #786, .T. ) ;
#585 = CARTESIAN_POINT ( 'NONE',  ( 0.000000000000000000, 0.000000000000000000, 6.000000000000000000 ) ) ;
#586 = ORIENTED_EDGE ( 'NONE', *, *, #682, .T. ) ;
#587 = SURFACE_SIDE_STYLE ('',( #506 ) ) ;
#588 = CARTESIAN_POINT ( 'NONE',  ( 2.500000000000000000, 3.061616997868383141E-16, -1.000000000000000888 ) ) ;
#589 = AXIS2_PLACEMENT_3D ( 'NONE', #796, #295, #306 ) ;
#590 = EDGE_LOOP ( 'NONE', ( #280, #884 ) ) ;
#591 =( NAMED_UNIT ( * ) SI_UNIT ( $, .STERADIAN. ) SOLID_ANGLE_UNIT ( ) );
#592 = EDGE_LOOP ( 'NONE', ( #508, #730 ) ) ;
#593 = VECTOR ( 'NONE', #849, 1000.000000000000000 ) ;
#594 = DIRECTION ( 'NONE',  ( 1.000000000000000000, 0.000000000000000000, 0.000000000000000000 ) ) ;
#595 = VERTEX_POINT ( 'NONE', #941 ) ;
#596 =( NAMED_UNIT ( * ) PLANE_ANGLE_UNIT ( ) SI_UNIT ( $, .RADIAN. ) );
#597 = DIRECTION ( 'NONE',  ( 0.000000000000000000, 0.000000000000000000, -1.000000000000000000 ) ) ;
#598 = DIRECTION ( 'NONE',  ( 1.000000000000000000, -3.035766082959412908E-16, 0.000000000000000000 ) ) ;
#599 = CARTESIAN_POINT ( 'NONE',  ( 6.175092483748555239, 0.8773147407512820184, 0.2500000000000000000 ) ) ;
#600 = EDGE_LOOP ( 'NONE', ( #856, #10, #242, #491 ) ) ;
#601 = CARTESIAN_POINT ( 'NONE',  ( 0.000000000000000000, 0.000000000000000000, -1.000000000000000888 ) ) ;
#602 = PRODUCT_DEFINITION_CONTEXT ( 'detailed design', #432, 'design' ) ;
#603 = DIRECTION ( 'NONE',  ( 0.000000000000000000, 0.000000000000000000, 1.000000000000000000 ) ) ;
#604 = DIRECTION ( 'NONE',  ( 1.000000000000000000, 0.000000000000000000, -0.000000000000000000 ) ) ;
#605 = VERTEX_POINT ( 'NONE', #53 ) ;
#606 =( LENGTH_UNIT ( ) NAMED_UNIT ( * ) SI_UNIT ( .MILLI., .METRE. ) );
#607 = DIRECTION ( 'NONE',  ( -1.000000000000000000, -1.301042606982605567E-16, 0.000000000000000000 ) ) ;
#608 = FACE_OUTER_BOUND ( 'NONE', #1002, .T. ) ;
#609 = DIRECTION ( 'NONE',  ( 1.000000000000000000, 0.000000000000000000, -0.000000000000000000 ) ) ;
#610 = ORIENTED_EDGE ( 'NONE', *, *, #986, .F. ) ;
#611 = EDGE_CURVE ( 'NONE', #628, #91, #680, .T. ) ;
#612 = CARTESIAN_POINT ( 'NONE',  ( 3.270708597260456152, -10.44625168483803712, 0.000000000000000000 ) ) ;
#613 = EDGE_CURVE ( 'NONE', #732, #262, #127, .T. ) ;
#614 = CARTESIAN_POINT ( 'NONE',  ( -3.500000000000000000, 0.000000000000000000, 4.199999999999981526 ) ) ;
#615 =( GEOMETRIC_REPRESENTATION_CONTEXT ( 3 ) GLOBAL_UNCERTAINTY_ASSIGNED_CONTEXT ( ( #556 ) ) GLOBAL_UNIT_ASSIGNED_CONTEXT ( ( #380, #952, #705 ) ) REPRESENTATION_CONTEXT ( 'NONE', 'WORKASPACE' ) );
#616 = FACE_OUTER_BOUND ( 'NONE', #913, .T. ) ;
#617 = ORIENTED_EDGE ( 'NONE', *, *, #943, .T. ) ;
#618 = DIRECTION ( 'NONE',  ( 0.000000000000000000, 0.000000000000000000, 1.000000000000000000 ) ) ;
#619 = FACE_OUTER_BOUND ( 'NONE', #81, .T. ) ;
#620 = CARTESIAN_POINT ( 'NONE',  ( 7.500000000000000000, 0.000000000000000000, -1.000000000000000888 ) ) ;
#621 = LINE ( 'NONE', #934, #196 ) ;
#622 = ORIENTED_EDGE ( 'NONE', *, *, #185, .F. ) ;
#623 = AXIS2_PLACEMENT_3D ( 'NONE', #926, #1008, #992 ) ;
#624 = DIRECTION ( 'NONE',  ( 0.000000000000000000, 0.000000000000000000, 1.000000000000000000 ) ) ;
#625 = CIRCLE ( 'NONE', #573, 2.490000000000000213 ) ;
#626 = DIRECTION ( 'NONE',  ( -0.000000000000000000, 0.000000000000000000, 1.000000000000000000 ) ) ;
#627 = DIRECTION ( 'NONE',  ( 1.000000000000000000, 0.000000000000000000, 0.000000000000000000 ) ) ;
#628 = VERTEX_POINT ( 'NONE', #140 ) ;
#629 = EDGE_CURVE ( 'NONE', #572, #628, #394, .T. ) ;
#630 = DIRECTION ( 'NONE',  ( -0.000000000000000000, -0.000000000000000000, -1.000000000000000000 ) ) ;
#631 = AXIS2_PLACEMENT_3D ( 'NONE', #1003, #437, #447 ) ;
#632 = VERTEX_POINT ( 'NONE', #708 ) ;
#633 =( LENGTH_UNIT ( ) NAMED_UNIT ( * ) SI_UNIT ( .MILLI., .METRE. ) );
#634 = CARTESIAN_POINT ( 'NONE',  ( 0.000000000000000000, 0.000000000000000000, 0.000000000000000000 ) ) ;
#635 = CARTESIAN_POINT ( 'NONE',  ( 0.3530000000000002025, 0.000000000000000000, 0.000000000000000000 ) ) ;
#636 = VERTEX_POINT ( 'NONE', #701 ) ;
#637 = AXIS2_PLACEMENT_3D ( 'NONE', #770, #537, #102 ) ;
#638 = DIRECTION ( 'NONE',  ( -1.000000000000000000, -1.301042606982605567E-16, 0.000000000000000000 ) ) ;
#639 = VECTOR ( 'NONE', #694, 1000.000000000000000 ) ;
#640 = SURFACE_SIDE_STYLE ('',( #776 ) ) ;
#641 = VERTEX_POINT ( 'NONE', #276 ) ;
#642 = DIRECTION ( 'NONE',  ( 1.000000000000000000, 0.000000000000000000, 0.000000000000000000 ) ) ;
#643 = ADVANCED_FACE ( 'NONE', ( #619 ), #528, .F. ) ;
#644 = DIRECTION ( 'NONE',  ( -0.9922983898229190691, -0.1238705193128786797, -0.000000000000000000 ) ) ;
#645 = ORIENTED_EDGE ( 'NONE', *, *, #512, .F. ) ;
#646 = AXIS2_PLACEMENT_3D ( 'NONE', #486, #149, #716 ) ;
#647 = DIRECTION ( 'NONE',  ( 0.000000000000000000, 0.000000000000000000, 1.000000000000000000 ) ) ;
#648 = COLOUR_RGB ( '',0.7921568627450980005, 0.8196078431372548767, 0.9333333333333333481 ) ;
#649 = ORIENTED_EDGE ( 'NONE', *, *, #16, .F. ) ;
#650 = CARTESIAN_POINT ( 'NONE',  ( 2.439282681445510637, 0.4999999999999995559, 4.700000000000000178 ) ) ;
#651 = LINE ( 'NONE', #963, #924 ) ;
#652 = EDGE_CURVE ( 'NONE', #44, #595, #970, .T. ) ;
#653 = VERTEX_POINT ( 'NONE', #781 ) ;
#654 = ADVANCED_FACE ( 'NONE', ( #459 ), #217, .T. ) ;
#655 = DIRECTION ( 'NONE',  ( -1.000000000000000000, 0.000000000000000000, 0.000000000000000000 ) ) ;
#656 = ORIENTED_EDGE ( 'NONE', *, *, #167, .F. ) ;
#657 = CARTESIAN_POINT ( 'NONE',  ( 0.000000000000000000, 0.000000000000000000, 4.199999999999981526 ) ) ;
#658 = CIRCLE ( 'NONE', #186, 10.00000000000000178 ) ;
#659 = CARTESIAN_POINT ( 'NONE',  ( -2.500000000000000000, 0.000000000000000000, 4.199999999999981526 ) ) ;
#660 = AXIS2_PLACEMENT_3D ( 'NONE', #1012, #57, #1017 ) ;
#661 = LINE ( 'NONE', #503, #96 ) ;
#662 = ORIENTED_EDGE ( 'NONE', *, *, #611, .F. ) ;
#663 = FACE_OUTER_BOUND ( 'NONE', #381, .T. ) ;
#664 = CARTESIAN_POINT ( 'NONE',  ( 0.3573806474034352809, -0.004961491949114188449, 0.2500000000000000000 ) ) ;
#665 = PRODUCT_RELATED_PRODUCT_CATEGORY ( 'part', '', ( #689 ) ) ;
#666 = ORIENTED_EDGE ( 'NONE', *, *, #389, .T. ) ;
#667 = FACE_OUTER_BOUND ( 'NONE', #252, .T. ) ;
#668 = CARTESIAN_POINT ( 'NONE',  ( -1.517883041479705468E-16, -0.4999999999999996669, 4.700000000000000178 ) ) ;
#669 = LINE ( 'NONE', #445, #593 ) ;
#670 = ORIENTED_EDGE ( 'NONE', *, *, #470, .T. ) ;
#671 =( NAMED_UNIT ( * ) SI_UNIT ( $, .STERADIAN. ) SOLID_ANGLE_UNIT ( ) );
#672 = SHAPE_REPRESENTATION ( '\X2\77ed5c0e67f1\X0\', ( #139 ), #805 ) ;
#673 = MECHANICAL_DESIGN_GEOMETRIC_PRESENTATION_REPRESENTATION (  '', ( #407 ), #615 ) ;
#674 = AXIS2_PLACEMENT_3D ( 'NONE', #612, #769, #120 ) ;
#675 = LINE ( 'NONE', #122, #749 ) ;
#676 = LINE ( 'NONE', #921, #108 ) ;
#677 = ORIENTED_EDGE ( 'NONE', *, *, #803, .F. ) ;
#678 =( NAMED_UNIT ( * ) SI_UNIT ( $, .STERADIAN. ) SOLID_ANGLE_UNIT ( ) );
#679 = UNCERTAINTY_MEASURE_WITH_UNIT (LENGTH_MEASURE( 1.000000000000000082E-05 ), #606, 'distance_accuracy_value', 'NONE');
#680 = LINE ( 'NONE', #778, #819 ) ;
#681 = SHAPE_REPRESENTATION ( '\X2\896f5957\X0\', ( #139 ), #569 ) ;
#682 = EDGE_CURVE ( 'NONE', #386, #478, #450, .T. ) ;
#683 = CARTESIAN_POINT ( 'NONE',  ( 0.000000000000000000, 0.000000000000000000, -1.000000000000000888 ) ) ;
#684 = ADVANCED_FACE ( 'NONE', ( #773 ), #839, .T. ) ;
#685 = AXIS2_PLACEMENT_3D ( 'NONE', #362, #1021, #1011 ) ;
#686 = DIRECTION ( 'NONE',  ( 0.000000000000000000, 0.000000000000000000, 1.000000000000000000 ) ) ;
#687 = ORIENTED_EDGE ( 'NONE', *, *, #417, .T. ) ;
#688 = LINE ( 'NONE', #216, #787 ) ;
#689 = PRODUCT ( '\X2\77ed5c0e67f1\X0\', '\X2\77ed5c0e67f1\X0\', '', ( #560 ) ) ;
#690 = ADVANCED_FACE ( 'NONE', ( #521 ), #303, .T. ) ;
#691 = AXIS2_PLACEMENT_3D ( 'NONE', #8, #345, #328 ) ;
#692 = CARTESIAN_POINT ( 'NONE',  ( -6.505213034913017976E-17, 0.4999999999999992784, 4.700000000000000178 ) ) ;
#693 = DIRECTION ( 'NONE',  ( 0.000000000000000000, 0.000000000000000000, -1.000000000000000000 ) ) ;
#694 = DIRECTION ( 'NONE',  ( -0.000000000000000000, -0.000000000000000000, -1.000000000000000000 ) ) ;
#695 = ORIENTED_EDGE ( 'NONE', *, *, #316, .T. ) ;
#696 = CARTESIAN_POINT ( 'NONE',  ( 0.000000000000000000, 0.000000000000000000, 4.199999999999981526 ) ) ;
#697 = CIRCLE ( 'NONE', #956, 0.004999999999999796274 ) ;
#698 = DIRECTION ( 'NONE',  ( -1.000000000000000000, 0.000000000000000000, -0.000000000000000000 ) ) ;
#699 = CARTESIAN_POINT ( 'NONE',  ( 3.270708597260458816, 10.44625168483803712, 0.2500000000000000000 ) ) ;
#700 = ORIENTED_EDGE ( 'NONE', *, *, #3, .T. ) ;
#701 = CARTESIAN_POINT ( 'NONE',  ( 0.3573806474034352809, -0.004961491949114188449, 0.2500000000000000000 ) ) ;
#702 = PRODUCT_RELATED_PRODUCT_CATEGORY ( 'part', '', ( #118 ) ) ;
#703 = DIRECTION ( 'NONE',  ( -0.000000000000000000, -0.000000000000000000, -1.000000000000000000 ) ) ;
#704 = EDGE_CURVE ( 'NONE', #91, #262, #808, .T. ) ;
#705 =( NAMED_UNIT ( * ) SI_UNIT ( $, .STERADIAN. ) SOLID_ANGLE_UNIT ( ) );
#706 = VERTEX_POINT ( 'NONE', #297 ) ;
#707 = CIRCLE ( 'NONE', #243, 2.500000000000000000 ) ;
#708 = CARTESIAN_POINT ( 'NONE',  ( -2.490000000000000213, 0.000000000000000000, 4.700000000000000178 ) ) ;
#709 = CIRCLE ( 'NONE', #415, 2.500000000000000000 ) ;
#710 = LINE ( 'NONE', #549, #872 ) ;
#711 = EDGE_LOOP ( 'NONE', ( #964, #409 ) ) ;
#712 = PLANE ( 'NONE',  #821 ) ;
#713 = ORIENTED_EDGE ( 'NONE', *, *, #803, .T. ) ;
#714 = APPLICATION_PROTOCOL_DEFINITION ( 'draft international standard', 'automotive_design', 1998, #382 ) ;
#715 = AXIS2_PLACEMENT_3D ( 'NONE', #398, #802, #323 ) ;
#716 = DIRECTION ( 'NONE',  ( -1.000000000000000000, 0.000000000000000000, 0.000000000000000000 ) ) ;
#717 = ADVANCED_FACE ( 'NONE', ( #227 ), #364, .T. ) ;
#718 = DIRECTION ( 'NONE',  ( 0.2904383886488114408, 0.9568936944086746665, -0.000000000000000000 ) ) ;
#719 = ORIENTED_EDGE ( 'NONE', *, *, #969, .F. ) ;
#720 = CARTESIAN_POINT ( 'NONE',  ( 0.000000000000000000, 0.000000000000000000, 0.000000000000000000 ) ) ;
#721 = EDGE_CURVE ( 'NONE', #338, #577, #465, .T. ) ;
#722 = CIRCLE ( 'NONE', #261, 2.490000000000000213 ) ;
#723 = CARTESIAN_POINT ( 'NONE',  ( 0.000000000000000000, 0.000000000000000000, -11.00000000000000000 ) ) ;
#724 = ORIENTED_EDGE ( 'NONE', *, *, #388, .T. ) ;
#725 = CARTESIAN_POINT ( 'NONE',  ( 0.3573806474034359471, 0.004961491949114615191, 0.000000000000000000 ) ) ;
#726 = ORIENTED_EDGE ( 'NONE', *, *, #613, .F. ) ;
#727 = SURFACE_SIDE_STYLE ('',( #740 ) ) ;
#728 = EDGE_CURVE ( 'NONE', #504, #957, #282, .T. ) ;
#729 = DIRECTION ( 'NONE',  ( -1.000000000000000000, 0.000000000000000000, 0.000000000000000000 ) ) ;
#730 = ORIENTED_EDGE ( 'NONE', *, *, #879, .T. ) ;
#731 = ADVANCED_FACE ( 'NONE', ( #547 ), #369, .F. ) ;
#732 = VERTEX_POINT ( 'NONE', #809 ) ;
#733 =( NAMED_UNIT ( * ) SI_UNIT ( $, .STERADIAN. ) SOLID_ANGLE_UNIT ( ) );
#734 = ORIENTED_EDGE ( 'NONE', *, *, #728, .F. ) ;
#735 = CYLINDRICAL_SURFACE ( 'NONE', #349, 2.500000000000000000 ) ;
#736 = ORIENTED_EDGE ( 'NONE', *, *, #548, .T. ) ;
#737 = CARTESIAN_POINT ( 'NONE',  ( 20.50000000000000000, 0.000000000000000000, 0.2500000000000000000 ) ) ;
#738 = CARTESIAN_POINT ( 'NONE',  ( 2.439282681445510637, -0.5000000000000004441, 6.000000000000000000 ) ) ;
#739 = VERTEX_POINT ( 'NONE', #555 ) ;
#740 = SURFACE_STYLE_FILL_AREA ( #801 ) ;
#741 = ORIENTED_EDGE ( 'NONE', *, *, #682, .F. ) ;
#742 = LINE ( 'NONE', #664, #287 ) ;
#743 = CIRCLE ( 'NONE', #561, 3.500000000000000000 ) ;
#744 = PRODUCT_DEFINITION_CONTEXT ( 'detailed design', #382, 'design' ) ;
#745 = ORIENTED_EDGE ( 'NONE', *, *, #834, .F. ) ;
#746 = EDGE_CURVE ( 'NONE', #830, #739, #1024, .T. ) ;
#747 = DIRECTION ( 'NONE',  ( 0.000000000000000000, 0.000000000000000000, -1.000000000000000000 ) ) ;
#748 = DIRECTION ( 'NONE',  ( -0.000000000000000000, -0.000000000000000000, -1.000000000000000000 ) ) ;
#749 = VECTOR ( 'NONE', #843, 1000.000000000000000 ) ;
#750 = CARTESIAN_POINT ( 'NONE',  ( 4.509413790389235288, -0.5232677866088448759, 0.2500000000000000000 ) ) ;
#751 = DIRECTION ( 'NONE',  ( 0.2904383886488114408, -0.9568936944086746665, 0.000000000000000000 ) ) ;
#752 = PRESENTATION_LAYER_ASSIGNMENT (  '', '', ( #320 ) ) ;
#753 = UNCERTAINTY_MEASURE_WITH_UNIT (LENGTH_MEASURE( 1.000000000000000082E-05 ), #33, 'distance_accuracy_value', 'NONE');
#754 = CARTESIAN_POINT ( 'NONE',  ( -1.517883041479705468E-16, -0.4999999999999996669, 6.000000000000000000 ) ) ;
#755 = PLANE ( 'NONE',  #348 ) ;
#756 = VERTEX_POINT ( 'NONE', #797 ) ;
#757 = ADVANCED_FACE ( 'NONE', ( #448 ), #239, .T. ) ;
#758 = AXIS2_PLACEMENT_3D ( 'NONE', #551, #867, #885 ) ;
#759 = DIRECTION ( 'NONE',  ( 1.000000000000000000, 0.000000000000000000, 0.000000000000000000 ) ) ;
#760 = CARTESIAN_POINT ( 'NONE',  ( -2.439282681445510637, 0.4999999999999989453, 4.700000000000000178 ) ) ;
#761 = ORIENTED_EDGE ( 'NONE', *, *, #500, .T. ) ;
#762 = ADVANCED_FACE ( 'NONE', ( #153, #329 ), #712, .F. ) ;
#763 = CARTESIAN_POINT ( 'NONE',  ( 0.000000000000000000, 0.000000000000000000, 6.000000000000000000 ) ) ;
#764 = CYLINDRICAL_SURFACE ( 'NONE', #128, 0.004999999999999796274 ) ;
#765 = CLOSED_SHELL ( 'NONE', ( #582, #654, #453, #234, #342, #684, #154, #643, #485, #58, #762 ) ) ;
#766 = CARTESIAN_POINT ( 'NONE',  ( -2.439282681445510637, -0.4999999999999989453, 6.000000000000000000 ) ) ;
#767 = VERTEX_POINT ( 'NONE', #880 ) ;
#768 = VECTOR ( 'NONE', #244, 1000.000000000000000 ) ;
#769 = DIRECTION ( 'NONE',  ( -0.000000000000000000, -0.000000000000000000, -1.000000000000000000 ) ) ;
#770 = CARTESIAN_POINT ( 'NONE',  ( 0.000000000000000000, 0.000000000000000000, 0.000000000000000000 ) ) ;
#771 = DIRECTION ( 'NONE',  ( -1.000000000000000000, 0.000000000000000000, 0.000000000000000000 ) ) ;
#772 = VERTEX_POINT ( 'NONE', #1023 ) ;
#773 = FACE_OUTER_BOUND ( 'NONE', #115, .T. ) ;
#774 = DIRECTION ( 'NONE',  ( 0.1238705193128786797, -0.9922983898229190691, 0.000000000000000000 ) ) ;
#775 = AXIS2_PLACEMENT_3D ( 'NONE', #696, #222, #862 ) ;
#776 = SURFACE_STYLE_FILL_AREA ( #794 ) ;
#777 = EDGE_LOOP ( 'NONE', ( #845, #695, #111, #800 ) ) ;
#778 = CARTESIAN_POINT ( 'NONE',  ( 0.3573806474034352809, -0.004961491949114188449, 0.000000000000000000 ) ) ;
#779 = EDGE_LOOP ( 'NONE', ( #192, #961 ) ) ;
#780 = ITEM_DEFINED_TRANSFORMATION ( 'NONE', 'NONE', #449,  #139 ) ;
#781 = CARTESIAN_POINT ( 'NONE',  ( 19.04780805675595090, 4.784468472043375442, 0.000000000000000000 ) ) ;
#782 = PLANE ( 'NONE',  #464 ) ;
#783 = ORIENTED_EDGE ( 'NONE', *, *, #899, .F. ) ;
#784 = APPLICATION_PROTOCOL_DEFINITION ( 'draft international standard', 'automotive_design', 1998, #432 ) ;
#785 = FACE_OUTER_BOUND ( 'NONE', #825, .T. ) ;
#786 = EDGE_CURVE ( 'NONE', #1020, #767, #357, .T. ) ;
#787 = VECTOR ( 'NONE', #996, 1000.000000000000000 ) ;
#788 = DIRECTION ( 'NONE',  ( 1.000000000000000000, 0.000000000000000000, 0.000000000000000000 ) ) ;
#789 = VERTEX_POINT ( 'NONE', #165 ) ;
#790 = VECTOR ( 'NONE', #947, 1000.000000000000114 ) ;
#791 = CIRCLE ( 'NONE', #715, 3.500000000000000000 ) ;
#792 = ADVANCED_FACE ( 'NONE', ( #231, #490 ), #1028, .F. ) ;
#793 = CARTESIAN_POINT ( 'NONE',  ( -6.505213034913017976E-17, 0.4999999999999992784, 6.000000000000000000 ) ) ;
#794 = FILL_AREA_STYLE ('',( #855 ) ) ;
#795 = ORIENTED_EDGE ( 'NONE', *, *, #930, .F. ) ;
#796 = CARTESIAN_POINT ( 'NONE',  ( 0.7776375478249566431, -2.096116504847392648, 999.8750000000070486 ) ) ;
#797 = CARTESIAN_POINT ( 'NONE',  ( 19.04780805675594735, -4.784468472043374554, 0.000000000000000000 ) ) ;
#798 = VECTOR ( 'NONE', #20, 1000.000000000000114 ) ;
#799 = AXIS2_PLACEMENT_3D ( 'NONE', #965, #579, #173 ) ;
#800 = ORIENTED_EDGE ( 'NONE', *, *, #82, .F. ) ;
#801 = FILL_AREA_STYLE ('',( #974 ) ) ;
#802 = DIRECTION ( 'NONE',  ( 0.000000000000000000, 0.000000000000000000, 1.000000000000000000 ) ) ;
#803 = EDGE_CURVE ( 'NONE', #772, #732, #98, .T. ) ;
#804 = ORIENTED_EDGE ( 'NONE', *, *, #433, .F. ) ;
#805 =( GEOMETRIC_REPRESENTATION_CONTEXT ( 3 ) GLOBAL_UNCERTAINTY_ASSIGNED_CONTEXT ( ( #34 ) ) GLOBAL_UNIT_ASSIGNED_CONTEXT ( ( #987, #286, #671 ) ) REPRESENTATION_CONTEXT ( 'NONE', 'WORKASPACE' ) );
#806 = DIRECTION ( 'NONE',  ( -1.000000000000000000, 0.000000000000000000, 0.000000000000000000 ) ) ;
#807 = VERTEX_POINT ( 'NONE', #476 ) ;
#808 = CIRCLE ( 'NONE', #674, 10.00000000000000178 ) ;
#809 = CARTESIAN_POINT ( 'NONE',  ( 6.175092483748564121, -0.8773147407512872364, 0.2500000000000000000 ) ) ;
#810 = EDGE_LOOP ( 'NONE', ( #344, #877, #56, #24 ) ) ;
#811 = DIRECTION ( 'NONE',  ( -0.000000000000000000, -0.000000000000000000, -1.000000000000000000 ) ) ;
#812 = VERTEX_POINT ( 'NONE', #70 ) ;
#813 = CIRCLE ( 'NONE', #365, 2.490000000000000213 ) ;
#814 = DIRECTION ( 'NONE',  ( -1.000000000000000000, 0.000000000000000000, 0.000000000000000000 ) ) ;
#815 = CARTESIAN_POINT ( 'NONE',  ( 0.000000000000000000, 0.000000000000000000, 4.199999999999981526 ) ) ;
#816 = EDGE_CURVE ( 'NONE', #361, #572, #376, .T. ) ;
#817 = ORIENTED_EDGE ( 'NONE', *, *, #1007, .T. ) ;
#818 = FACE_BOUND ( 'NONE', #158, .T. ) ;
#819 = VECTOR ( 'NONE', #540, 1000.000000000000114 ) ;
#820 = CARTESIAN_POINT ( 'NONE',  ( 2.500000000000000000, 3.061616997868383141E-16, 4.199999999999981526 ) ) ;
#821 = AXIS2_PLACEMENT_3D ( 'NONE', #720, #945, #309 ) ;
#822 = STYLED_ITEM ( 'NONE', ( #17 ), #916 ) ;
#823 = ORIENTED_EDGE ( 'NONE', *, *, #375, .T. ) ;
#824 = FACE_OUTER_BOUND ( 'NONE', #882, .T. ) ;
#825 = EDGE_LOOP ( 'NONE', ( #335, #975, #531, #645, #468, #804, #143, #662, #977 ) ) ;
#826 = SHAPE_REPRESENTATION_RELATIONSHIP ( 'NONE' , 'NONE' ,  #535, #351 ) ;
#827 = AXIS2_PLACEMENT_3D ( 'NONE', #39, #69, #159 ) ;
#828 = DIRECTION ( 'NONE',  ( -0.000000000000000000, -0.000000000000000000, 1.000000000000000000 ) ) ;
#829 = LINE ( 'NONE', #49, #900 ) ;
#830 = VERTEX_POINT ( 'NONE', #74 ) ;
#831 =( NAMED_UNIT ( * ) PLANE_ANGLE_UNIT ( ) SI_UNIT ( $, .RADIAN. ) );
#832 = VECTOR ( 'NONE', #455, 1000.000000000000000 ) ;
#833 = ADVANCED_FACE ( 'NONE', ( #785 ), #65, .F. ) ;
#834 = EDGE_CURVE ( 'NONE', #183, #206, #315, .T. ) ;
#835 = DIRECTION ( 'NONE',  ( 1.000000000000000000, -3.035766082959412908E-16, 0.000000000000000000 ) ) ;
#836 = CARTESIAN_POINT ( 'NONE',  ( 6.175092483748555239, 0.8773147407512820184, 0.2500000000000000000 ) ) ;
#837 = EDGE_LOOP ( 'NONE', ( #656, #50, #285, #2, #874, #670, #312, #918 ) ) ;
#838 = CIRCLE ( 'NONE', #522, 2.500000000000000000 ) ;
#839 = PLANE ( 'NONE',  #426 ) ;
#840 = AXIS2_PLACEMENT_3D ( 'NONE', #467, #1029, #483 ) ;
#841 = AXIS2_PLACEMENT_3D ( 'NONE', #241, #406, #729 ) ;
#842 = PRODUCT_DEFINITION_SHAPE ( 'NONE', 'NONE',  #219 ) ;
#843 = DIRECTION ( 'NONE',  ( -0.000000000000000000, -0.000000000000000000, 1.000000000000000000 ) ) ;
#844 = CARTESIAN_POINT ( 'NONE',  ( 4.509413790389228183, 0.5232677866088432106, 0.2500000000000000000 ) ) ;
#845 = ORIENTED_EDGE ( 'NONE', *, *, #879, .F. ) ;
#846 = DIRECTION ( 'NONE',  ( 0.000000000000000000, 0.000000000000000000, 1.000000000000000000 ) ) ;
#847 = DIRECTION ( 'NONE',  ( -0.000000000000000000, -0.000000000000000000, 1.000000000000000000 ) ) ;
#848 = AXIS2_PLACEMENT_3D ( 'NONE', #683, #693, #529 ) ;
#849 = DIRECTION ( 'NONE',  ( -0.000000000000000000, -0.000000000000000000, -1.000000000000000000 ) ) ;
#850 = ORIENTED_EDGE ( 'NONE', *, *, #1007, .F. ) ;
#851 = CIRCLE ( 'NONE', #552, 0.004999999999999796274 ) ;
#852 = CARTESIAN_POINT ( 'NONE',  ( 0.000000000000000000, 0.000000000000000000, 4.199999999999981526 ) ) ;
#853 = EDGE_CURVE ( 'NONE', #137, #478, #791, .T. ) ;
#854 = CARTESIAN_POINT ( 'NONE',  ( 0.3573806474034359471, 0.004961491949114615191, 0.2500000000000000000 ) ) ;
#855 = FILL_AREA_STYLE_COLOUR ( '', #424 ) ;
#856 = ORIENTED_EDGE ( 'NONE', *, *, #512, .T. ) ;
#857 = DIRECTION ( 'NONE',  ( -0.000000000000000000, -0.000000000000000000, -1.000000000000000000 ) ) ;
#858 = CIRCLE ( 'NONE', #840, 5.000000000000000888 ) ;
#859 = DIRECTION ( 'NONE',  ( -0.9568936944086745555, 0.2904383886488113853, 0.000000000000000000 ) ) ;
#860 = EDGE_LOOP ( 'NONE', ( #251, #515 ) ) ;
#861 = APPLICATION_PROTOCOL_DEFINITION ( 'draft international standard', 'automotive_design', 1998, #566 ) ;
#862 = DIRECTION ( 'NONE',  ( -1.000000000000000000, 0.000000000000000000, 0.000000000000000000 ) ) ;
#863 = DIRECTION ( 'NONE',  ( -0.000000000000000000, -0.000000000000000000, 1.000000000000000000 ) ) ;
#864 = ORIENTED_EDGE ( 'NONE', *, *, #275, .F. ) ;
#865 = EDGE_CURVE ( 'NONE', #830, #756, #9, .T. ) ;
#866 = EDGE_CURVE ( 'NONE', #641, #361, #403, .T. ) ;
#867 = DIRECTION ( 'NONE',  ( 0.000000000000000000, 0.000000000000000000, -1.000000000000000000 ) ) ;
#868 = EDGE_CURVE ( 'NONE', #386, #72, #909, .T. ) ;
#869 = ORIENTED_EDGE ( 'NONE', *, *, #41, .F. ) ;
#870 = DIRECTION ( 'NONE',  ( 0.9920857479505066356, -0.1255622105312104442, 0.000000000000000000 ) ) ;
#871 = DIRECTION ( 'NONE',  ( 0.000000000000000000, 0.000000000000000000, 1.000000000000000000 ) ) ;
#872 = VECTOR ( 'NONE', #150, 1000.000000000000114 ) ;
#873 = CARTESIAN_POINT ( 'NONE',  ( 0.000000000000000000, 0.000000000000000000, 4.700000000000000178 ) ) ;
#874 = ORIENTED_EDGE ( 'NONE', *, *, #417, .F. ) ;
#875 = AXIS2_PLACEMENT_3D ( 'NONE', #763, #999, #145 ) ;
#876 = CARTESIAN_POINT ( 'NONE',  ( 20.50000000000000000, 0.000000000000000000, 0.2500000000000000000 ) ) ;
#877 = ORIENTED_EDGE ( 'NONE', *, *, #728, .T. ) ;
#878 = PRODUCT_DEFINITION ( 'UNKNOWN', '', #383, #744 ) ;
#879 = EDGE_CURVE ( 'NONE', #595, #44, #440, .T. ) ;
#880 = CARTESIAN_POINT ( 'NONE',  ( 2.490000000000000213, 3.049370529876909390E-16, 0.000000000000000000 ) ) ;
#881 = AXIS2_PLACEMENT_3D ( 'NONE', #854, #774, #54 ) ;
#882 = EDGE_LOOP ( 'NONE', ( #745, #666 ) ) ;
#883 = DIRECTION ( 'NONE',  ( 1.000000000000000000, 0.000000000000000000, 0.000000000000000000 ) ) ;
#884 = ORIENTED_EDGE ( 'NONE', *, *, #119, .F. ) ;
#885 = DIRECTION ( 'NONE',  ( -1.000000000000000000, 0.000000000000000000, -0.000000000000000000 ) ) ;
#886 = ORIENTED_EDGE ( 'NONE', *, *, #433, .T. ) ;
#887 = VECTOR ( 'NONE', #748, 1000.000000000000000 ) ;
#888 = DIRECTION ( 'NONE',  ( -0.000000000000000000, -0.000000000000000000, -1.000000000000000000 ) ) ;
#889 = CIRCLE ( 'NONE', #208, 3.500000000000000000 ) ;
#890 = AXIS2_PLACEMENT_3D ( 'NONE', #393, #169, #481 ) ;
#891 = CARTESIAN_POINT ( 'NONE',  ( -2.500000000000000000, 3.061616997868383141E-16, 0.000000000000000000 ) ) ;
#892 = ORIENTED_EDGE ( 'NONE', *, *, #392, .T. ) ;
#893 = DIRECTION ( 'NONE',  ( -1.000000000000000000, 0.000000000000000000, 0.000000000000000000 ) ) ;
#894 = EDGE_CURVE ( 'NONE', #32, #396, #651, .T. ) ;
#895 = LINE ( 'NONE', #659, #887 ) ;
#896 = PRODUCT_DEFINITION_FORMATION_WITH_SPECIFIED_SOURCE ( 'ANY', '', #994, .NOT_KNOWN. ) ;
#897 = AXIS2_PLACEMENT_3D ( 'NONE', #523, #847, #911 ) ;
#898 = ORIENTED_EDGE ( 'NONE', *, *, #141, .F. ) ;
#899 = EDGE_CURVE ( 'NONE', #636, #772, #184, .T. ) ;
#900 = VECTOR ( 'NONE', #435, 1000.000000000000000 ) ;
#901 = CARTESIAN_POINT ( 'NONE',  ( 0.3530000000000002025, 0.000000000000000000, 0.2500000000000000000 ) ) ;
#902 = ORIENTED_EDGE ( 'NONE', *, *, #339, .T. ) ;
#903 = DIRECTION ( 'NONE',  ( -0.000000000000000000, -0.000000000000000000, -1.000000000000000000 ) ) ;
#904 = ORIENTED_EDGE ( 'NONE', *, *, #125, .T. ) ;
#905 = CARTESIAN_POINT ( 'NONE',  ( 2.439282681445510637, 0.4999999999999995559, 6.000000000000000000 ) ) ;
#906 = CARTESIAN_POINT ( 'NONE',  ( 6.175092483748555239, 0.8773147407512820184, 0.2500000000000000000 ) ) ;
#907 = CIRCLE ( 'NONE', #226, 7.500000000000000000 ) ;
#908 = DIRECTION ( 'NONE',  ( -0.000000000000000000, -0.000000000000000000, -1.000000000000000000 ) ) ;
#909 = CIRCLE ( 'NONE', #7, 3.500000000000000000 ) ;
#910 = ADVANCED_FACE ( 'NONE', ( #667 ), #21, .T. ) ;
#911 = DIRECTION ( 'NONE',  ( 1.000000000000000000, 0.000000000000000000, 0.000000000000000000 ) ) ;
#912 = DIRECTION ( 'NONE',  ( -0.000000000000000000, -0.000000000000000000, -1.000000000000000000 ) ) ;
#913 = EDGE_LOOP ( 'NONE', ( #1015, #187, #15, #953 ) ) ;
#914 = ADVANCED_FACE ( 'NONE', ( #353 ), #270, .T. ) ;
#915 = CARTESIAN_POINT ( 'NONE',  ( 0.000000000000000000, 0.000000000000000000, -11.00000000000000000 ) ) ;
#916 = MANIFOLD_SOLID_BREP ( '填料-伸長2', #258 ) ;
#917 = LINE ( 'NONE', #524, #536 ) ;
#918 = ORIENTED_EDGE ( 'NONE', *, *, #275, .T. ) ;
#919 = CARTESIAN_POINT ( 'NONE',  ( 0.000000000000000000, 0.000000000000000000, -1.000000000000000888 ) ) ;
#920 = DIRECTION ( 'NONE',  ( -0.9922983898229190691, 0.1238705193128785131, 0.000000000000000000 ) ) ;
#921 = CARTESIAN_POINT ( 'NONE',  ( -2.490000000000000213, 0.000000000000000000, 6.000000000000000000 ) ) ;
#922 = ORIENTED_EDGE ( 'NONE', *, *, #375, .F. ) ;
#923 = CARTESIAN_POINT ( 'NONE',  ( 0.3579999999999999849, 0.000000000000000000, 0.2500000000000000000 ) ) ;
#924 = VECTOR ( 'NONE', #248, 1000.000000000000000 ) ;
#925 = PRODUCT ( 'pole\X2\7d445408\X0\', 'pole\X2\7d445408\X0\', '', ( #221 ) ) ;
#926 = CARTESIAN_POINT ( 'NONE',  ( 0.000000000000000000, 0.000000000000000000, 4.700000000000000178 ) ) ;
#927 = CARTESIAN_POINT ( 'NONE',  ( 3.500000000000000000, 4.286263797015736595E-16, 4.199999999999981526 ) ) ;
#928 = EDGE_LOOP ( 'NONE', ( #734, #850, #6, #904 ) ) ;
#929 = CARTESIAN_POINT ( 'NONE',  ( 0.3579999999999999849, 0.000000000000000000, 0.2500000000000000000 ) ) ;
#930 = EDGE_CURVE ( 'NONE', #706, #256, #959, .T. ) ;
#931 = DIRECTION ( 'NONE',  ( -1.000000000000000000, 0.000000000000000000, 0.000000000000000000 ) ) ;
#932 = DIRECTION ( 'NONE',  ( 0.000000000000000000, 0.000000000000000000, -1.000000000000000000 ) ) ;
#933 = VECTOR ( 'NONE', #113, 1000.000000000000000 ) ;
#934 = CARTESIAN_POINT ( 'NONE',  ( 6.175092483748555239, 0.8773147407512820184, 0.2500000000000000000 ) ) ;
#935 = EDGE_LOOP ( 'NONE', ( #649, #421 ) ) ;
#936 = CIRCLE ( 'NONE', #848, 2.500000000000000000 ) ;
#937 = DIRECTION ( 'NONE',  ( 1.000000000000000000, 0.000000000000000000, -0.000000000000000000 ) ) ;
#938 = FACE_OUTER_BOUND ( 'NONE', #229, .T. ) ;
#939 = ORIENTED_EDGE ( 'NONE', *, *, #310, .F. ) ;
#940 = CONTEXT_DEPENDENT_SHAPE_REPRESENTATION ( #418, #131 ) ;
#941 = CARTESIAN_POINT ( 'NONE',  ( -7.500000000000000000, 9.184850993605147944E-16, -1.000000000000000888 ) ) ;
#942 = AXIS2_PLACEMENT_3D ( 'NONE', #634, #493, #568 ) ;
#943 = EDGE_CURVE ( 'NONE', #807, #580, #838, .T. ) ;
#944 = ORIENTED_EDGE ( 'NONE', *, *, #853, .T. ) ;
#945 = DIRECTION ( 'NONE',  ( 0.000000000000000000, 0.000000000000000000, -1.000000000000000000 ) ) ;
#946 = EDGE_CURVE ( 'NONE', #256, #807, #895, .T. ) ;
#947 = DIRECTION ( 'NONE',  ( -0.9922983898229190691, -0.1238705193128786797, -0.000000000000000000 ) ) ;
#948 = ORIENTED_EDGE ( 'NONE', *, *, #1004, .F. ) ;
#949 = ORIENTED_EDGE ( 'NONE', *, *, #236, .F. ) ;
#950 = DIRECTION ( 'NONE',  ( 0.000000000000000000, 0.000000000000000000, 1.000000000000000000 ) ) ;
#951 = VECTOR ( 'NONE', #92, 1000.000000000000000 ) ;
#952 =( NAMED_UNIT ( * ) PLANE_ANGLE_UNIT ( ) SI_UNIT ( $, .RADIAN. ) );
#953 = ORIENTED_EDGE ( 'NONE', *, *, #472, .T. ) ;
#954 = DIRECTION ( 'NONE',  ( 0.000000000000000000, 0.000000000000000000, 0.9999999999999998890 ) ) ;
#955 = DIRECTION ( 'NONE',  ( 1.000000000000000000, 0.000000000000000000, 0.000000000000000000 ) ) ;
#956 = AXIS2_PLACEMENT_3D ( 'NONE', #929, #618, #269 ) ;
#957 = VERTEX_POINT ( 'NONE', #891 ) ;
#958 = VECTOR ( 'NONE', #638, 1000.000000000000000 ) ;
#959 = CIRCLE ( 'NONE', #509, 2.500000000000000000 ) ;
#960 = DIRECTION ( 'NONE',  ( 1.000000000000000000, 0.000000000000000000, 0.000000000000000000 ) ) ;
#961 = ORIENTED_EDGE ( 'NONE', *, *, #565, .F. ) ;
#962 = CARTESIAN_POINT ( 'NONE',  ( 0.000000000000000000, 0.000000000000000000, 0.000000000000000000 ) ) ;
#963 = CARTESIAN_POINT ( 'NONE',  ( -1.517883041479705468E-16, -0.4999999999999996669, 4.700000000000000178 ) ) ;
#964 = ORIENTED_EDGE ( 'NONE', *, *, #125, .F. ) ;
#965 = CARTESIAN_POINT ( 'NONE',  ( 0.000000000000000000, 0.000000000000000000, 4.199999999999981526 ) ) ;
#966 = EDGE_LOOP ( 'NONE', ( #622, #823, #163, #610 ) ) ;
#967 = EDGE_CURVE ( 'NONE', #334, #985, #658, .T. ) ;
#968 = DIRECTION ( 'NONE',  ( -0.000000000000000000, -0.000000000000000000, -1.000000000000000000 ) ) ;
#969 = EDGE_CURVE ( 'NONE', #706, #580, #498, .T. ) ;
#970 = CIRCLE ( 'NONE', #67, 7.500000000000000000 ) ;
#971 = PLANE ( 'NONE',  #66 ) ;
#972 = ADVANCED_FACE ( 'NONE', ( #980, #88 ), #971, .T. ) ;
#973 = ORIENTED_EDGE ( 'NONE', *, *, #527, .F. ) ;
#974 = FILL_AREA_STYLE_COLOUR ( '', #997 ) ;
#975 = ORIENTED_EDGE ( 'NONE', *, *, #866, .F. ) ;
#976 = DIRECTION ( 'NONE',  ( 0.000000000000000000, 0.000000000000000000, -1.000000000000000000 ) ) ;
#977 = ORIENTED_EDGE ( 'NONE', *, *, #629, .F. ) ;
#978 = AXIS2_PLACEMENT_3D ( 'NONE', #273, #371, #604 ) ;
#979 = DIRECTION ( 'NONE',  ( 0.000000000000000000, 0.000000000000000000, 1.000000000000000000 ) ) ;
#980 = FACE_OUTER_BOUND ( 'NONE', #592, .T. ) ;
#981 =( REPRESENTATION_RELATIONSHIP ('NONE','NONE', #94, #681 ) REPRESENTATION_RELATIONSHIP_WITH_TRANSFORMATION ( #780 )SHAPE_REPRESENTATION_RELATIONSHIP( ) );
#982 = PRODUCT_RELATED_PRODUCT_CATEGORY ( 'part', '', ( #925 ) ) ;
#983 = DIRECTION ( 'NONE',  ( -3.035766082959412908E-16, -1.000000000000000000, 0.000000000000000000 ) ) ;
#984 = CARTESIAN_POINT ( 'NONE',  ( 7.500000000000000000, 0.000000000000000000, 0.000000000000000000 ) ) ;
#985 = VERTEX_POINT ( 'NONE', #511 ) ;
#986 = EDGE_CURVE ( 'NONE', #636, #628, #742, .T. ) ;
#987 =( LENGTH_UNIT ( ) NAMED_UNIT ( * ) SI_UNIT ( .MILLI., .METRE. ) );
#988 = PLANE ( 'NONE',  #430 ) ;
#989 = PLANE ( 'NONE',  #978 ) ;
#990 = EDGE_LOOP ( 'NONE', ( #719, #232, #488, #617 ) ) ;
#991 = CARTESIAN_POINT ( 'NONE',  ( 0.000000000000000000, 0.000000000000000000, 4.700000000000000178 ) ) ;
#992 = DIRECTION ( 'NONE',  ( 1.000000000000000000, 0.000000000000000000, 0.000000000000000000 ) ) ;
#993 = CARTESIAN_POINT ( 'NONE',  ( 0.3573806474034359471, 0.004961491949114615191, 0.2500000000000000000 ) ) ;
#994 = PRODUCT ( '\X2\896f5957\X0\', '\X2\896f5957\X0\', '', ( #144 ) ) ;
#995 = ORIENTED_EDGE ( 'NONE', *, *, #310, .T. ) ;
#996 = DIRECTION ( 'NONE',  ( -0.000000000000000000, -0.000000000000000000, -1.000000000000000000 ) ) ;
#997 = COLOUR_RGB ( '',0.7921568627450980005, 0.8196078431372548767, 0.9333333333333333481 ) ;
#998 = EDGE_CURVE ( 'NONE', #412, #400, #907, .T. ) ;
#999 = DIRECTION ( 'NONE',  ( 0.000000000000000000, 0.000000000000000000, 1.000000000000000000 ) ) ;
#1000 = LINE ( 'NONE', #754, #487 ) ;
#1001 = CARTESIAN_POINT ( 'NONE',  ( 0.3573806474034359471, 0.004961491949114615191, 0.000000000000000000 ) ) ;
#1002 = EDGE_LOOP ( 'NONE', ( #525, #474, #166, #124 ) ) ;
#1003 = CARTESIAN_POINT ( 'NONE',  ( 0.000000000000000000, 0.000000000000000000, -11.00000000000000000 ) ) ;
#1004 = EDGE_CURVE ( 'NONE', #494, #220, #697, .T. ) ;
#1005 = VECTOR ( 'NONE', #811, 1000.000000000000000 ) ;
#1006 = CARTESIAN_POINT ( 'NONE',  ( 6.175092483748564121, -0.8773147407512872364, 0.2500000000000000000 ) ) ;
#1007 = EDGE_CURVE ( 'NONE', #789, #504, #207, .T. ) ;
#1008 = DIRECTION ( 'NONE',  ( -0.000000000000000000, 0.000000000000000000, 1.000000000000000000 ) ) ;
#1009 = CARTESIAN_POINT ( 'NONE',  ( 0.000000000000000000, 0.000000000000000000, 6.000000000000000000 ) ) ;
#1010 = ORIENTED_EDGE ( 'NONE', *, *, #899, .T. ) ;
#1011 = DIRECTION ( 'NONE',  ( 1.000000000000000000, 0.000000000000000000, 0.000000000000000000 ) ) ;
#1012 = CARTESIAN_POINT ( 'NONE',  ( 0.000000000000000000, 0.000000000000000000, 6.000000000000000000 ) ) ;
#1013 = FACE_OUTER_BOUND ( 'NONE', #177, .T. ) ;
#1014 = DIRECTION ( 'NONE',  ( 0.000000000000000000, 0.000000000000000000, 1.000000000000000000 ) ) ;
#1015 = ORIENTED_EDGE ( 'NONE', *, *, #422, .T. ) ;
#1016 = VECTOR ( 'NONE', #492, 1000.000000000000000 ) ;
#1017 = DIRECTION ( 'NONE',  ( -1.000000000000000000, 0.000000000000000000, 0.000000000000000000 ) ) ;
#1018 = EDGE_CURVE ( 'NONE', #739, #653, #688, .T. ) ;
#1019 = LINE ( 'NONE', #1, #5 ) ;
#1020 = VERTEX_POINT ( 'NONE', #133 ) ;
#1021 = DIRECTION ( 'NONE',  ( 0.000000000000000000, 0.000000000000000000, 1.000000000000000000 ) ) ;
#1022 = EDGE_CURVE ( 'NONE', #739, #334, #200, .T. ) ;
#1023 = CARTESIAN_POINT ( 'NONE',  ( 4.509413790389235288, -0.5232677866088448759, 0.2500000000000000000 ) ) ;
#1024 = CIRCLE ( 'NONE', #117, 5.000000000000000888 ) ;
#1025 = DIRECTION ( 'NONE',  ( 0.000000000000000000, 0.000000000000000000, 1.000000000000000000 ) ) ;
#1026 = ORIENTED_EDGE ( 'NONE', *, *, #611, .T. ) ;
#1027 = ITEM_DEFINED_TRANSFORMATION ( 'NONE', 'NONE', #589,  #139 ) ;
#1028 = PLANE ( 'NONE',  #758 ) ;
#1029 = DIRECTION ( 'NONE',  ( 0.000000000000000000, 0.000000000000000000, 1.000000000000000000 ) ) ;
#1030 = AXIS2_PLACEMENT_3D ( 'NONE', #699, #103, #771 ) ;
#1031 = NEXT_ASSEMBLY_USAGE_OCCURRENCE ( 'NAUO1', ' ', ' ', #99, #878, $ ) ;
#1032 = NEXT_ASSEMBLY_USAGE_OCCURRENCE ( 'NAUO2', ' ', ' ', #99, #336, $ ) ;
#1033 = NEXT_ASSEMBLY_USAGE_OCCURRENCE ( 'NAUO3', ' ', ' ', #99, #219, $ ) ;
ENDSEC;
END-ISO-10303-21;
