ISO-10303-21;
HEADER;
FILE_DESCRIPTION (( 'STEP AP214' ),
    '1' );
FILE_NAME ('pole.STEP',
    '2026-07-10T15:13:05',
    ( '' ),
    ( '' ),
    'SwSTEP 2.0',
    'SolidWorks 2024',
    '' );
FILE_SCHEMA (( 'AUTOMOTIVE_DESIGN' ));
ENDSEC;

DATA;
#1 = VERTEX_POINT ( 'NONE', #343 ) ;
#2 = AXIS2_PLACEMENT_3D ( 'NONE', #7, #100, #286 ) ;
#3 = SURFACE_SIDE_STYLE ('',( #91 ) ) ;
#4 = ORIENTED_EDGE ( 'NONE', *, *, #199, .F. ) ;
#5 = DIRECTION ( 'NONE',  ( -1.000000000000000000, 0.000000000000000000, 0.000000000000000000 ) ) ;
#6 = ORIENTED_EDGE ( 'NONE', *, *, #348, .F. ) ;
#7 = CARTESIAN_POINT ( 'NONE',  ( 3.270708597260456152, -10.44625168483803712, 0.2500000000000000000 ) ) ;
#8 = LINE ( 'NONE', #61, #338 ) ;
#9 = FACE_OUTER_BOUND ( 'NONE', #336, .T. ) ;
#10 = MANIFOLD_SOLID_BREP ( '¶ñ®Æ-¦ùªø2', #231 ) ;
#11 = EDGE_CURVE ( 'NONE', #319, #222, #8, .T. ) ;
#12 = VERTEX_POINT ( 'NONE', #281 ) ;
#13 = CARTESIAN_POINT ( 'NONE',  ( 19.04780805675595090, 4.784468472043375442, 0.2500000000000000000 ) ) ;
#14 = DIRECTION ( 'NONE',  ( 0.9922983898229190691, 0.1238705193128786797, 0.000000000000000000 ) ) ;
#15 = CARTESIAN_POINT ( 'NONE',  ( 6.175092483748555239, 0.8773147407512820184, 0.2500000000000000000 ) ) ;
#16 = FACE_OUTER_BOUND ( 'NONE', #274, .T. ) ;
#17 = AXIS2_PLACEMENT_3D ( 'NONE', #351, #263, #14 ) ;
#18 = PLANE ( 'NONE',  #329 ) ;
#19 = DIRECTION ( 'NONE',  ( -0.9568936944086745555, -0.2904383886488113853, -0.000000000000000000 ) ) ;
#20 = CARTESIAN_POINT ( 'NONE',  ( 3.270708597260458816, 10.44625168483803712, 0.000000000000000000 ) ) ;
#21 = DIRECTION ( 'NONE',  ( 0.000000000000000000, 0.000000000000000000, 1.000000000000000000 ) ) ;
#22 = ORIENTED_EDGE ( 'NONE', *, *, #73, .T. ) ;
#23 = DIRECTION ( 'NONE',  ( 1.000000000000000000, 0.000000000000000000, 0.000000000000000000 ) ) ;
#24 = ORIENTED_EDGE ( 'NONE', *, *, #87, .F. ) ;
#25 = EDGE_CURVE ( 'NONE', #218, #1, #345, .T. ) ;
#26 = VERTEX_POINT ( 'NONE', #223 ) ;
#27 = CIRCLE ( 'NONE', #97, 0.004999999999999796274 ) ;
#28 = PRODUCT ( 'pole', 'pole', '', ( #85 ) ) ;
#29 = VECTOR ( 'NONE', #47, 1000.000000000000000 ) ;
#30 = AXIS2_PLACEMENT_3D ( 'NONE', #283, #200, #40 ) ;
#31 = ORIENTED_EDGE ( 'NONE', *, *, #193, .T. ) ;
#32 = VECTOR ( 'NONE', #64, 1000.000000000000114 ) ;
#33 = EDGE_LOOP ( 'NONE', ( #197, #254, #128, #326 ) ) ;
#34 =( GEOMETRIC_REPRESENTATION_CONTEXT ( 3 ) GLOBAL_UNCERTAINTY_ASSIGNED_CONTEXT ( ( #116 ) ) GLOBAL_UNIT_ASSIGNED_CONTEXT ( ( #110, #165, #297 ) ) REPRESENTATION_CONTEXT ( 'NONE', 'WORKASPACE' ) );
#35 = AXIS2_PLACEMENT_3D ( 'NONE', #203, #204, #66 ) ;
#36 = EDGE_CURVE ( 'NONE', #335, #261, #27, .T. ) ;
#37 = DIRECTION ( 'NONE',  ( 1.000000000000000000, 0.000000000000000000, 0.000000000000000000 ) ) ;
#38 = CYLINDRICAL_SURFACE ( 'NONE', #2, 10.00000000000000178 ) ;
#39 = MECHANICAL_DESIGN_GEOMETRIC_PRESENTATION_REPRESENTATION (  '', ( #59 ), #171 ) ;
#40 = DIRECTION ( 'NONE',  ( 1.000000000000000000, 0.000000000000000000, 0.000000000000000000 ) ) ;
#41 = ORIENTED_EDGE ( 'NONE', *, *, #25, .T. ) ;
#42 = EDGE_CURVE ( 'NONE', #177, #347, #293, .T. ) ;
#43 = LINE ( 'NONE', #129, #304 ) ;
#44 = ORIENTED_EDGE ( 'NONE', *, *, #305, .F. ) ;
#45 = DIRECTION ( 'NONE',  ( -0.000000000000000000, -0.000000000000000000, -1.000000000000000000 ) ) ;
#46 = ORIENTED_EDGE ( 'NONE', *, *, #275, .F. ) ;
#47 = DIRECTION ( 'NONE',  ( -0.000000000000000000, -0.000000000000000000, -1.000000000000000000 ) ) ;
#48 = CARTESIAN_POINT ( 'NONE',  ( 4.509413790389228183, 0.5232677866088432106, 0.2500000000000000000 ) ) ;
#49 = AXIS2_PLACEMENT_3D ( 'NONE', #183, #68, #23 ) ;
#50 = VECTOR ( 'NONE', #51, 1000.000000000000114 ) ;
#51 = DIRECTION ( 'NONE',  ( -0.9568936944086745555, -0.2904383886488113853, -0.000000000000000000 ) ) ;
#52 = EDGE_CURVE ( 'NONE', #120, #12, #106, .T. ) ;
#53 = CIRCLE ( 'NONE', #228, 0.004999999999999796274 ) ;
#54 = CYLINDRICAL_SURFACE ( 'NONE', #313, 0.004999999999999796274 ) ;
#55 = DIRECTION ( 'NONE',  ( -0.9922983898229190691, -0.1238705193128786797, -0.000000000000000000 ) ) ;
#56 = ORIENTED_EDGE ( 'NONE', *, *, #156, .F. ) ;
#57 = APPLICATION_PROTOCOL_DEFINITION ( 'draft international standard', 'automotive_design', 1998, #267 ) ;
#58 = CIRCLE ( 'NONE', #146, 5.000000000000000888 ) ;
#59 = STYLED_ITEM ( 'NONE', ( #337 ), #10 ) ;
#60 = EDGE_CURVE ( 'NONE', #120, #218, #323, .T. ) ;
#61 = CARTESIAN_POINT ( 'NONE',  ( 6.175092483748564121, -0.8773147407512872364, 0.2500000000000000000 ) ) ;
#62 = DIRECTION ( 'NONE',  ( -0.9568936944086745555, 0.2904383886488113853, 0.000000000000000000 ) ) ;
#63 =( NAMED_UNIT ( * ) SI_UNIT ( $, .STERADIAN. ) SOLID_ANGLE_UNIT ( ) );
#64 = DIRECTION ( 'NONE',  ( 0.9922983898229190691, -0.1238705193128785131, 0.000000000000000000 ) ) ;
#65 = ORIENTED_EDGE ( 'NONE', *, *, #348, .T. ) ;
#66 = DIRECTION ( 'NONE',  ( -1.000000000000000000, 0.000000000000000000, 0.000000000000000000 ) ) ;
#67 = CARTESIAN_POINT ( 'NONE',  ( 0.3573806474034359471, 0.004961491949114615191, 0.000000000000000000 ) ) ;
#68 = DIRECTION ( 'NONE',  ( 0.000000000000000000, 0.000000000000000000, 1.000000000000000000 ) ) ;
#69 = EDGE_LOOP ( 'NONE', ( #56, #114, #84, #253, #44, #24, #4, #154, #166 ) ) ;
#70 = DIRECTION ( 'NONE',  ( 0.2904383886488114408, 0.9568936944086746665, -0.000000000000000000 ) ) ;
#71 = CARTESIAN_POINT ( 'NONE',  ( 0.3573806474034359471, 0.004961491949114615191, 0.2500000000000000000 ) ) ;
#72 = DIRECTION ( 'NONE',  ( -0.9922983898229190691, 0.1238705193128785131, 0.000000000000000000 ) ) ;
#73 = EDGE_CURVE ( 'NONE', #172, #245, #75, .T. ) ;
#74 = DIRECTION ( 'NONE',  ( -0.000000000000000000, -0.000000000000000000, -1.000000000000000000 ) ) ;
#75 = LINE ( 'NONE', #187, #300 ) ;
#76 = CARTESIAN_POINT ( 'NONE',  ( 0.3579999999999999849, 0.000000000000000000, 0.2500000000000000000 ) ) ;
#77 = ORIENTED_EDGE ( 'NONE', *, *, #42, .T. ) ;
#78 = PRODUCT_DEFINITION ( 'UNKNOWN', '', #124, #196 ) ;
#79 = DIRECTION ( 'NONE',  ( 1.000000000000000000, 0.000000000000000000, 0.000000000000000000 ) ) ;
#80 = ORIENTED_EDGE ( 'NONE', *, *, #268, .T. ) ;
#81 = AXIS2_PLACEMENT_3D ( 'NONE', #76, #210, #132 ) ;
#82 = CIRCLE ( 'NONE', #248, 10.00000000000000178 ) ;
#83 = ADVANCED_FACE ( 'NONE', ( #211 ), #18, .F. ) ;
#84 = ORIENTED_EDGE ( 'NONE', *, *, #117, .F. ) ;
#85 = PRODUCT_CONTEXT ( 'NONE', #267, 'mechanical' ) ;
#86 = ORIENTED_EDGE ( 'NONE', *, *, #52, .F. ) ;
#87 = EDGE_CURVE ( 'NONE', #222, #347, #298, .T. ) ;
#88 = ORIENTED_EDGE ( 'NONE', *, *, #291, .T. ) ;
#89 = CYLINDRICAL_SURFACE ( 'NONE', #332, 5.000000000000000888 ) ;
#90 = AXIS2_PLACEMENT_3D ( 'NONE', #95, #260, #349 ) ;
#91 = SURFACE_STYLE_FILL_AREA ( #287 ) ;
#92 = CIRCLE ( 'NONE', #30, 10.00000000000000178 ) ;
#93 = CARTESIAN_POINT ( 'NONE',  ( 3.270708597260456152, -10.44625168483803712, 0.000000000000000000 ) ) ;
#94 = VERTEX_POINT ( 'NONE', #188 ) ;
#95 = CARTESIAN_POINT ( 'NONE',  ( 20.50000000000000000, 0.000000000000000000, 0.2500000000000000000 ) ) ;
#96 =( NAMED_UNIT ( * ) PLANE_ANGLE_UNIT ( ) SI_UNIT ( $, .RADIAN. ) );
#97 = AXIS2_PLACEMENT_3D ( 'NONE', #173, #149, #37 ) ;
#98 = FACE_OUTER_BOUND ( 'NONE', #69, .T. ) ;
#99 = ORIENTED_EDGE ( 'NONE', *, *, #87, .T. ) ;
#100 = DIRECTION ( 'NONE',  ( -0.000000000000000000, -0.000000000000000000, -1.000000000000000000 ) ) ;
#101 = AXIS2_PLACEMENT_3D ( 'NONE', #206, #70, #62 ) ;
#102 = CARTESIAN_POINT ( 'NONE',  ( 4.509413790389235288, -0.5232677866088448759, 0.000000000000000000 ) ) ;
#103 = EDGE_CURVE ( 'NONE', #319, #177, #324, .T. ) ;
#104 = DIRECTION ( 'NONE',  ( -1.000000000000000000, 0.000000000000000000, 0.000000000000000000 ) ) ;
#105 = CARTESIAN_POINT ( 'NONE',  ( 6.175092483748565009, -0.8773147407512854601, 0.000000000000000000 ) ) ;
#106 = LINE ( 'NONE', #71, #246 ) ;
#107 = FACE_OUTER_BOUND ( 'NONE', #181, .T. ) ;
#108 = ORIENTED_EDGE ( 'NONE', *, *, #175, .T. ) ;
#109 = ADVANCED_FACE ( 'NONE', ( #135 ), #295, .F. ) ;
#110 =( LENGTH_UNIT ( ) NAMED_UNIT ( * ) SI_UNIT ( .MILLI., .METRE. ) );
#111 = DIRECTION ( 'NONE',  ( 1.000000000000000000, 0.000000000000000000, 0.000000000000000000 ) ) ;
#112 = EDGE_LOOP ( 'NONE', ( #41, #167, #86, #152 ) ) ;
#113 = VECTOR ( 'NONE', #74, 1000.000000000000000 ) ;
#114 = ORIENTED_EDGE ( 'NONE', *, *, #25, .F. ) ;
#115 = EDGE_CURVE ( 'NONE', #245, #202, #270, .T. ) ;
#116 = UNCERTAINTY_MEASURE_WITH_UNIT (LENGTH_MEASURE( 1.000000000000000082E-05 ), #110, 'distance_accuracy_value', 'NONE');
#117 = EDGE_CURVE ( 'NONE', #202, #218, #82, .T. ) ;
#118 = VERTEX_POINT ( 'NONE', #102 ) ;
#119 = AXIS2_PLACEMENT_3D ( 'NONE', #255, #174, #160 ) ;
#120 = VERTEX_POINT ( 'NONE', #48 ) ;
#121 = ORIENTED_EDGE ( 'NONE', *, *, #193, .F. ) ;
#122 = DIRECTION ( 'NONE',  ( -0.000000000000000000, -0.000000000000000000, -1.000000000000000000 ) ) ;
#123 = SURFACE_STYLE_USAGE ( .BOTH. , #3 ) ;
#124 = PRODUCT_DEFINITION_FORMATION_WITH_SPECIFIED_SOURCE ( 'ANY', '', #28, .NOT_KNOWN. ) ;
#125 = CARTESIAN_POINT ( 'NONE',  ( 4.509413790389235288, -0.5232677866088448759, 0.2500000000000000000 ) ) ;
#126 = ORIENTED_EDGE ( 'NONE', *, *, #117, .T. ) ;
#127 = PLANE ( 'NONE',  #119 ) ;
#128 = ORIENTED_EDGE ( 'NONE', *, *, #252, .F. ) ;
#129 = CARTESIAN_POINT ( 'NONE',  ( 0.3530000000000002025, 0.000000000000000000, 0.2500000000000000000 ) ) ;
#130 = DIRECTION ( 'NONE',  ( 1.000000000000000000, 0.000000000000000000, 0.000000000000000000 ) ) ;
#131 = ADVANCED_FACE ( 'NONE', ( #266 ), #237, .T. ) ;
#132 = DIRECTION ( 'NONE',  ( -1.000000000000000000, 0.000000000000000000, 0.000000000000000000 ) ) ;
#133 = DIRECTION ( 'NONE',  ( 0.2904383886488114408, -0.9568936944086746665, 0.000000000000000000 ) ) ;
#134 = CARTESIAN_POINT ( 'NONE',  ( 0.3579999999999999849, 0.000000000000000000, 0.2500000000000000000 ) ) ;
#135 = FACE_OUTER_BOUND ( 'NONE', #112, .T. ) ;
#136 = DIRECTION ( 'NONE',  ( 0.000000000000000000, 0.000000000000000000, 1.000000000000000000 ) ) ;
#137 = ORIENTED_EDGE ( 'NONE', *, *, #341, .F. ) ;
#138 = VECTOR ( 'NONE', #19, 1000.000000000000114 ) ;
#139 = DIRECTION ( 'NONE',  ( 0.1238705193128785131, 0.9922983898229190691, -0.000000000000000000 ) ) ;
#140 = ORIENTED_EDGE ( 'NONE', *, *, #252, .T. ) ;
#141 = ADVANCED_FACE ( 'NONE', ( #16 ), #89, .T. ) ;
#142 = APPLICATION_PROTOCOL_DEFINITION ( 'draft international standard', 'automotive_design', 1998, #288 ) ;
#143 = PRESENTATION_LAYER_ASSIGNMENT (  '', '', ( #59 ) ) ;
#144 = EDGE_CURVE ( 'NONE', #12, #1, #224, .T. ) ;
#145 = ORIENTED_EDGE ( 'NONE', *, *, #244, .F. ) ;
#146 = AXIS2_PLACEMENT_3D ( 'NONE', #186, #136, #212 ) ;
#147 = EDGE_LOOP ( 'NONE', ( #216, #46, #198, #285 ) ) ;
#148 = CARTESIAN_POINT ( 'NONE',  ( 19.04780805675594735, -4.784468472043374554, 0.2500000000000000000 ) ) ;
#149 = DIRECTION ( 'NONE',  ( 0.000000000000000000, 0.000000000000000000, 1.000000000000000000 ) ) ;
#150 = ADVANCED_FACE ( 'NONE', ( #9 ), #38, .F. ) ;
#151 = CYLINDRICAL_SURFACE ( 'NONE', #35, 10.00000000000000178 ) ;
#152 = ORIENTED_EDGE ( 'NONE', *, *, #60, .T. ) ;
#153 = FACE_OUTER_BOUND ( 'NONE', #278, .T. ) ;
#154 = ORIENTED_EDGE ( 'NONE', *, *, #309, .F. ) ;
#155 = CARTESIAN_POINT ( 'NONE',  ( 20.50000000000000000, 0.000000000000000000, 0.2500000000000000000 ) ) ;
#156 = EDGE_CURVE ( 'NONE', #1, #335, #306, .T. ) ;
#157 = ORIENTED_EDGE ( 'NONE', *, *, #73, .F. ) ;
#158 = VECTOR ( 'NONE', #163, 1000.000000000000114 ) ;
#159 = CYLINDRICAL_SURFACE ( 'NONE', #81, 0.004999999999999796274 ) ;
#160 = DIRECTION ( 'NONE',  ( 1.000000000000000000, 0.000000000000000000, -0.000000000000000000 ) ) ;
#161 = DIRECTION ( 'NONE',  ( -0.000000000000000000, -0.000000000000000000, -1.000000000000000000 ) ) ;
#162 = DIRECTION ( 'NONE',  ( 0.9922983898229190691, -0.1238705193128785131, 0.000000000000000000 ) ) ;
#163 = DIRECTION ( 'NONE',  ( 0.9568936944086745555, -0.2904383886488113853, 0.000000000000000000 ) ) ;
#164 = CARTESIAN_POINT ( 'NONE',  ( 6.175092483748565009, -0.8773147407512854601, 0.2500000000000000000 ) ) ;
#165 =( NAMED_UNIT ( * ) PLANE_ANGLE_UNIT ( ) SI_UNIT ( $, .RADIAN. ) );
#166 = ORIENTED_EDGE ( 'NONE', *, *, #36, .F. ) ;
#167 = ORIENTED_EDGE ( 'NONE', *, *, #144, .F. ) ;
#168 = ORIENTED_EDGE ( 'NONE', *, *, #238, .T. ) ;
#169 = ADVANCED_FACE ( 'NONE', ( #98 ), #127, .F. ) ;
#170 = AXIS2_PLACEMENT_3D ( 'NONE', #339, #262, #346 ) ;
#171 =( GEOMETRIC_REPRESENTATION_CONTEXT ( 3 ) GLOBAL_UNCERTAINTY_ASSIGNED_CONTEXT ( ( #333 ) ) GLOBAL_UNIT_ASSIGNED_CONTEXT ( ( #315, #96, #63 ) ) REPRESENTATION_CONTEXT ( 'NONE', 'WORKASPACE' ) );
#172 = VERTEX_POINT ( 'NONE', #13 ) ;
#173 = CARTESIAN_POINT ( 'NONE',  ( 0.3579999999999999849, 0.000000000000000000, 0.000000000000000000 ) ) ;
#174 = DIRECTION ( 'NONE',  ( 0.000000000000000000, 0.000000000000000000, 1.000000000000000000 ) ) ;
#175 = EDGE_CURVE ( 'NONE', #94, #335, #43, .T. ) ;
#176 = PLANE ( 'NONE',  #101 ) ;
#177 = VERTEX_POINT ( 'NONE', #148 ) ;
#178 = DIRECTION ( 'NONE',  ( -0.000000000000000000, -0.000000000000000000, -1.000000000000000000 ) ) ;
#179 = DIRECTION ( 'NONE',  ( -0.9922983898229190691, -0.1238705193128786797, -0.000000000000000000 ) ) ;
#180 = DIRECTION ( 'NONE',  ( 1.000000000000000000, 0.000000000000000000, -0.000000000000000000 ) ) ;
#181 = EDGE_LOOP ( 'NONE', ( #328, #108, #258, #145 ) ) ;
#182 = CARTESIAN_POINT ( 'NONE',  ( 4.509413790389235288, -0.5232677866088448759, 0.2500000000000000000 ) ) ;
#183 = CARTESIAN_POINT ( 'NONE',  ( 0.3579999999999999849, 0.000000000000000000, 0.2500000000000000000 ) ) ;
#184 = CARTESIAN_POINT ( 'NONE',  ( 6.175092483748555239, 0.8773147407512820184, 0.000000000000000000 ) ) ;
#185 = VECTOR ( 'NONE', #179, 1000.000000000000114 ) ;
#186 = CARTESIAN_POINT ( 'NONE',  ( 20.50000000000000000, 0.000000000000000000, 0.000000000000000000 ) ) ;
#187 = CARTESIAN_POINT ( 'NONE',  ( 19.04780805675595090, 4.784468472043375442, 0.2500000000000000000 ) ) ;
#188 = CARTESIAN_POINT ( 'NONE',  ( 0.3530000000000002025, 0.000000000000000000, 0.2500000000000000000 ) ) ;
#189 = ORIENTED_EDGE ( 'NONE', *, *, #11, .T. ) ;
#190 = CARTESIAN_POINT ( 'NONE',  ( 0.3573806474034352809, -0.004961491949114188449, 0.2500000000000000000 ) ) ;
#191 = ORIENTED_EDGE ( 'NONE', *, *, #60, .F. ) ;
#192 = ORIENTED_EDGE ( 'NONE', *, *, #275, .T. ) ;
#193 = EDGE_CURVE ( 'NONE', #362, #120, #92, .T. ) ;
#194 = VECTOR ( 'NONE', #316, 1000.000000000000000 ) ;
#195 = PRODUCT_DEFINITION_SHAPE ( 'NONE', 'NONE',  #78 ) ;
#196 = PRODUCT_DEFINITION_CONTEXT ( 'detailed design', #288, 'design' ) ;
#197 = ORIENTED_EDGE ( 'NONE', *, *, #309, .T. ) ;
#198 = ORIENTED_EDGE ( 'NONE', *, *, #144, .T. ) ;
#199 = EDGE_CURVE ( 'NONE', #118, #222, #307, .T. ) ;
#200 = DIRECTION ( 'NONE',  ( -0.000000000000000000, -0.000000000000000000, -1.000000000000000000 ) ) ;
#201 = CIRCLE ( 'NONE', #49, 0.004999999999999796274 ) ;
#202 = VERTEX_POINT ( 'NONE', #229 ) ;
#203 = CARTESIAN_POINT ( 'NONE',  ( 3.270708597260458816, 10.44625168483803712, 0.2500000000000000000 ) ) ;
#204 = DIRECTION ( 'NONE',  ( -0.000000000000000000, -0.000000000000000000, -1.000000000000000000 ) ) ;
#205 = ADVANCED_FACE ( 'NONE', ( #153 ), #151, .F. ) ;
#206 = CARTESIAN_POINT ( 'NONE',  ( 6.175092483748565009, -0.8773147407512854601, 0.2500000000000000000 ) ) ;
#207 = ORIENTED_EDGE ( 'NONE', *, *, #52, .T. ) ;
#208 = CARTESIAN_POINT ( 'NONE',  ( 19.04780805675595090, 4.784468472043375442, 0.000000000000000000 ) ) ;
#209 = DIRECTION ( 'NONE',  ( 0.9568936944086745555, -0.2904383886488113853, 0.000000000000000000 ) ) ;
#210 = DIRECTION ( 'NONE',  ( -0.000000000000000000, -0.000000000000000000, -1.000000000000000000 ) ) ;
#211 = FACE_OUTER_BOUND ( 'NONE', #221, .T. ) ;
#212 = DIRECTION ( 'NONE',  ( 1.000000000000000000, 0.000000000000000000, 0.000000000000000000 ) ) ;
#213 = EDGE_CURVE ( 'NONE', #279, #118, #317, .T. ) ;
#214 = CARTESIAN_POINT ( 'NONE',  ( 6.175092483748555239, 0.8773147407512820184, 0.2500000000000000000 ) ) ;
#215 = CARTESIAN_POINT ( 'NONE',  ( 6.175092483748564121, -0.8773147407512872364, 0.2500000000000000000 ) ) ;
#216 = ORIENTED_EDGE ( 'NONE', *, *, #175, .F. ) ;
#217 = CIRCLE ( 'NONE', #296, 10.00000000000000178 ) ;
#218 = VERTEX_POINT ( 'NONE', #344 ) ;
#219 = ADVANCED_FACE ( 'NONE', ( #290 ), #176, .F. ) ;
#220 = AXIS2_PLACEMENT_3D ( 'NONE', #276, #251, #79 ) ;
#221 = EDGE_LOOP ( 'NONE', ( #310, #137, #6, #22 ) ) ;
#222 = VERTEX_POINT ( 'NONE', #284 ) ;
#223 = CARTESIAN_POINT ( 'NONE',  ( 0.3573806474034352809, -0.004961491949114188449, 0.2500000000000000000 ) ) ;
#224 = LINE ( 'NONE', #342, #29 ) ;
#225 = ORIENTED_EDGE ( 'NONE', *, *, #42, .F. ) ;
#226 = DIRECTION ( 'NONE',  ( -1.000000000000000000, 0.000000000000000000, 0.000000000000000000 ) ) ;
#227 = ORIENTED_EDGE ( 'NONE', *, *, #238, .F. ) ;
#228 = AXIS2_PLACEMENT_3D ( 'NONE', #359, #21, #111 ) ;
#229 = CARTESIAN_POINT ( 'NONE',  ( 6.175092483748555239, 0.8773147407512820184, 0.000000000000000000 ) ) ;
#230 = DIRECTION ( 'NONE',  ( -0.000000000000000000, -0.000000000000000000, -1.000000000000000000 ) ) ;
#231 = CLOSED_SHELL ( 'NONE', ( #361, #334, #273, #150, #219, #141, #83, #205, #109, #131, #169 ) ) ;
#232 = LINE ( 'NONE', #282, #294 ) ;
#233 = ORIENTED_EDGE ( 'NONE', *, *, #305, .T. ) ;
#234 = DIRECTION ( 'NONE',  ( -0.000000000000000000, -0.000000000000000000, -1.000000000000000000 ) ) ;
#235 = DIRECTION ( 'NONE',  ( 0.9568936944086745555, 0.2904383886488113853, 0.000000000000000000 ) ) ;
#236 = DIRECTION ( 'NONE',  ( -0.000000000000000000, -0.000000000000000000, -1.000000000000000000 ) ) ;
#237 = PLANE ( 'NONE',  #314 ) ;
#238 = EDGE_CURVE ( 'NONE', #177, #172, #352, .T. ) ;
#239 = FACE_OUTER_BOUND ( 'NONE', #147, .T. ) ;
#240 = CARTESIAN_POINT ( 'NONE',  ( 19.04780805675594735, -4.784468472043374554, 0.2500000000000000000 ) ) ;
#241 = LINE ( 'NONE', #15, #138 ) ;
#242 = CARTESIAN_POINT ( 'NONE',  ( 0.3530000000000002025, 0.000000000000000000, 0.000000000000000000 ) ) ;
#243 = ORIENTED_EDGE ( 'NONE', *, *, #103, .F. ) ;
#244 = EDGE_CURVE ( 'NONE', #26, #261, #232, .T. ) ;
#245 = VERTEX_POINT ( 'NONE', #208 ) ;
#246 = VECTOR ( 'NONE', #55, 1000.000000000000114 ) ;
#247 = SHAPE_DEFINITION_REPRESENTATION ( #195, #259 ) ;
#248 = AXIS2_PLACEMENT_3D ( 'NONE', #20, #321, #130 ) ;
#249 = COLOUR_RGB ( '',0.7921568627450980005, 0.8196078431372548767, 0.9333333333333333481 ) ;
#250 = ORIENTED_EDGE ( 'NONE', *, *, #213, .T. ) ;
#251 = DIRECTION ( 'NONE',  ( 0.000000000000000000, 0.000000000000000000, 1.000000000000000000 ) ) ;
#252 = EDGE_CURVE ( 'NONE', #26, #279, #320, .T. ) ;
#253 = ORIENTED_EDGE ( 'NONE', *, *, #115, .F. ) ;
#254 = ORIENTED_EDGE ( 'NONE', *, *, #213, .F. ) ;
#255 = CARTESIAN_POINT ( 'NONE',  ( 0.3579999999999999849, 0.000000000000000000, 0.000000000000000000 ) ) ;
#256 = ORIENTED_EDGE ( 'NONE', *, *, #199, .T. ) ;
#257 = CARTESIAN_POINT ( 'NONE',  ( 0.3573806474034352809, -0.004961491949114188449, 0.000000000000000000 ) ) ;
#258 = ORIENTED_EDGE ( 'NONE', *, *, #36, .T. ) ;
#259 = ADVANCED_BREP_SHAPE_REPRESENTATION ( 'pole', ( #10, #220 ), #34 ) ;
#260 = DIRECTION ( 'NONE',  ( 0.000000000000000000, 0.000000000000000000, 1.000000000000000000 ) ) ;
#261 = VERTEX_POINT ( 'NONE', #257 ) ;
#262 = DIRECTION ( 'NONE',  ( 0.000000000000000000, 0.000000000000000000, 1.000000000000000000 ) ) ;
#263 = DIRECTION ( 'NONE',  ( 0.1238705193128786797, -0.9922983898229190691, 0.000000000000000000 ) ) ;
#264 = LINE ( 'NONE', #322, #280 ) ;
#265 = DIRECTION ( 'NONE',  ( 0.000000000000000000, 0.000000000000000000, 1.000000000000000000 ) ) ;
#266 = FACE_OUTER_BOUND ( 'NONE', #303, .T. ) ;
#267 = APPLICATION_CONTEXT ( 'automotive_design' ) ;
#268 = EDGE_CURVE ( 'NONE', #94, #26, #201, .T. ) ;
#269 = DIRECTION ( 'NONE',  ( -0.000000000000000000, -0.000000000000000000, -1.000000000000000000 ) ) ;
#270 = LINE ( 'NONE', #184, #50 ) ;
#271 = FACE_OUTER_BOUND ( 'NONE', #33, .T. ) ;
#272 = ORIENTED_EDGE ( 'NONE', *, *, #341, .T. ) ;
#273 = ADVANCED_FACE ( 'NONE', ( #271 ), #330, .F. ) ;
#274 = EDGE_LOOP ( 'NONE', ( #233, #157, #227, #77 ) ) ;
#275 = EDGE_CURVE ( 'NONE', #12, #94, #53, .T. ) ;
#276 = CARTESIAN_POINT ( 'NONE',  ( 0.000000000000000000, 0.000000000000000000, 0.000000000000000000 ) ) ;
#277 = AXIS2_PLACEMENT_3D ( 'NONE', #190, #139, #72 ) ;
#278 = EDGE_LOOP ( 'NONE', ( #126, #191, #121, #272 ) ) ;
#279 = VERTEX_POINT ( 'NONE', #182 ) ;
#280 = VECTOR ( 'NONE', #269, 1000.000000000000000 ) ;
#281 = CARTESIAN_POINT ( 'NONE',  ( 0.3573806474034359471, 0.004961491949114615191, 0.2500000000000000000 ) ) ;
#282 = CARTESIAN_POINT ( 'NONE',  ( 0.3573806474034352809, -0.004961491949114188449, 0.2500000000000000000 ) ) ;
#283 = CARTESIAN_POINT ( 'NONE',  ( 3.270708597260458816, 10.44625168483803712, 0.2500000000000000000 ) ) ;
#284 = CARTESIAN_POINT ( 'NONE',  ( 6.175092483748564121, -0.8773147407512872364, 0.000000000000000000 ) ) ;
#285 = ORIENTED_EDGE ( 'NONE', *, *, #156, .T. ) ;
#286 = DIRECTION ( 'NONE',  ( -1.000000000000000000, 0.000000000000000000, 0.000000000000000000 ) ) ;
#287 = FILL_AREA_STYLE ('',( #340 ) ) ;
#288 = APPLICATION_CONTEXT ( 'automotive_design' ) ;
#289 = CARTESIAN_POINT ( 'NONE',  ( 3.270708597260456152, -10.44625168483803712, 0.2500000000000000000 ) ) ;
#290 = FACE_OUTER_BOUND ( 'NONE', #302, .T. ) ;
#291 = EDGE_CURVE ( 'NONE', #279, #319, #217, .T. ) ;
#292 = VECTOR ( 'NONE', #354, 1000.000000000000000 ) ;
#293 = LINE ( 'NONE', #240, #292 ) ;
#294 = VECTOR ( 'NONE', #45, 1000.000000000000000 ) ;
#295 = PLANE ( 'NONE',  #17 ) ;
#296 = AXIS2_PLACEMENT_3D ( 'NONE', #289, #236, #104 ) ;
#297 =( NAMED_UNIT ( * ) SI_UNIT ( $, .STERADIAN. ) SOLID_ANGLE_UNIT ( ) );
#298 = LINE ( 'NONE', #105, #311 ) ;
#299 = CARTESIAN_POINT ( 'NONE',  ( 0.3573806474034352809, -0.004961491949114188449, 0.000000000000000000 ) ) ;
#300 = VECTOR ( 'NONE', #161, 1000.000000000000000 ) ;
#301 = CARTESIAN_POINT ( 'NONE',  ( 19.04780805675594735, -4.784468472043374554, 0.000000000000000000 ) ) ;
#302 = EDGE_LOOP ( 'NONE', ( #99, #225, #243, #189 ) ) ;
#303 = EDGE_LOOP ( 'NONE', ( #192, #80, #140, #88, #360, #168, #65, #31, #207 ) ) ;
#304 = VECTOR ( 'NONE', #178, 1000.000000000000000 ) ;
#305 = EDGE_CURVE ( 'NONE', #347, #245, #58, .T. ) ;
#306 = CIRCLE ( 'NONE', #170, 0.004999999999999796274 ) ;
#307 = CIRCLE ( 'NONE', #327, 10.00000000000000178 ) ;
#308 = ORIENTED_EDGE ( 'NONE', *, *, #291, .F. ) ;
#309 = EDGE_CURVE ( 'NONE', #261, #118, #357, .T. ) ;
#310 = ORIENTED_EDGE ( 'NONE', *, *, #115, .T. ) ;
#311 = VECTOR ( 'NONE', #209, 1000.000000000000114 ) ;
#312 = CARTESIAN_POINT ( 'NONE',  ( 0.3579999999999999849, 0.000000000000000000, 0.2500000000000000000 ) ) ;
#313 = AXIS2_PLACEMENT_3D ( 'NONE', #134, #353, #355 ) ;
#314 = AXIS2_PLACEMENT_3D ( 'NONE', #312, #265, #180 ) ;
#315 =( LENGTH_UNIT ( ) NAMED_UNIT ( * ) SI_UNIT ( .MILLI., .METRE. ) );
#316 = DIRECTION ( 'NONE',  ( -0.000000000000000000, -0.000000000000000000, -1.000000000000000000 ) ) ;
#317 = LINE ( 'NONE', #125, #194 ) ;
#318 = CARTESIAN_POINT ( 'NONE',  ( 0.3573806474034352809, -0.004961491949114188449, 0.2500000000000000000 ) ) ;
#319 = VERTEX_POINT ( 'NONE', #215 ) ;
#320 = LINE ( 'NONE', #318, #32 ) ;
#321 = DIRECTION ( 'NONE',  ( -0.000000000000000000, -0.000000000000000000, -1.000000000000000000 ) ) ;
#322 = CARTESIAN_POINT ( 'NONE',  ( 6.175092483748555239, 0.8773147407512820184, 0.2500000000000000000 ) ) ;
#323 = LINE ( 'NONE', #356, #113 ) ;
#324 = LINE ( 'NONE', #164, #158 ) ;
#325 = CARTESIAN_POINT ( 'NONE',  ( 6.175092483748555239, 0.8773147407512820184, 0.2500000000000000000 ) ) ;
#326 = ORIENTED_EDGE ( 'NONE', *, *, #244, .T. ) ;
#327 = AXIS2_PLACEMENT_3D ( 'NONE', #93, #234, #5 ) ;
#328 = ORIENTED_EDGE ( 'NONE', *, *, #268, .F. ) ;
#329 = AXIS2_PLACEMENT_3D ( 'NONE', #214, #133, #235 ) ;
#330 = PLANE ( 'NONE',  #277 ) ;
#331 = ORIENTED_EDGE ( 'NONE', *, *, #11, .F. ) ;
#332 = AXIS2_PLACEMENT_3D ( 'NONE', #155, #122, #226 ) ;
#333 = UNCERTAINTY_MEASURE_WITH_UNIT (LENGTH_MEASURE( 1.000000000000000082E-05 ), #315, 'distance_accuracy_value', 'NONE');
#334 = ADVANCED_FACE ( 'NONE', ( #239 ), #159, .T. ) ;
#335 = VERTEX_POINT ( 'NONE', #242 ) ;
#336 = EDGE_LOOP ( 'NONE', ( #256, #331, #308, #250 ) ) ;
#337 = PRESENTATION_STYLE_ASSIGNMENT (( #123 ) ) ;
#338 = VECTOR ( 'NONE', #230, 1000.000000000000000 ) ;
#339 = CARTESIAN_POINT ( 'NONE',  ( 0.3579999999999999849, 0.000000000000000000, 0.000000000000000000 ) ) ;
#340 = FILL_AREA_STYLE_COLOUR ( '', #249 ) ;
#341 = EDGE_CURVE ( 'NONE', #362, #202, #264, .T. ) ;
#342 = CARTESIAN_POINT ( 'NONE',  ( 0.3573806474034359471, 0.004961491949114615191, 0.2500000000000000000 ) ) ;
#343 = CARTESIAN_POINT ( 'NONE',  ( 0.3573806474034359471, 0.004961491949114615191, 0.000000000000000000 ) ) ;
#344 = CARTESIAN_POINT ( 'NONE',  ( 4.509413790389228183, 0.5232677866088432106, 0.000000000000000000 ) ) ;
#345 = LINE ( 'NONE', #67, #185 ) ;
#346 = DIRECTION ( 'NONE',  ( 1.000000000000000000, 0.000000000000000000, 0.000000000000000000 ) ) ;
#347 = VERTEX_POINT ( 'NONE', #301 ) ;
#348 = EDGE_CURVE ( 'NONE', #172, #362, #241, .T. ) ;
#349 = DIRECTION ( 'NONE',  ( 1.000000000000000000, 0.000000000000000000, 0.000000000000000000 ) ) ;
#350 = VECTOR ( 'NONE', #162, 1000.000000000000114 ) ;
#351 = CARTESIAN_POINT ( 'NONE',  ( 0.3573806474034359471, 0.004961491949114615191, 0.2500000000000000000 ) ) ;
#352 = CIRCLE ( 'NONE', #90, 5.000000000000000888 ) ;
#353 = DIRECTION ( 'NONE',  ( -0.000000000000000000, -0.000000000000000000, -1.000000000000000000 ) ) ;
#354 = DIRECTION ( 'NONE',  ( -0.000000000000000000, -0.000000000000000000, -1.000000000000000000 ) ) ;
#355 = DIRECTION ( 'NONE',  ( -1.000000000000000000, 0.000000000000000000, 0.000000000000000000 ) ) ;
#356 = CARTESIAN_POINT ( 'NONE',  ( 4.509413790389228183, 0.5232677866088432106, 0.2500000000000000000 ) ) ;
#357 = LINE ( 'NONE', #299, #350 ) ;
#358 = PRODUCT_RELATED_PRODUCT_CATEGORY ( 'part', '', ( #28 ) ) ;
#359 = CARTESIAN_POINT ( 'NONE',  ( 0.3579999999999999849, 0.000000000000000000, 0.2500000000000000000 ) ) ;
#360 = ORIENTED_EDGE ( 'NONE', *, *, #103, .T. ) ;
#361 = ADVANCED_FACE ( 'NONE', ( #107 ), #54, .T. ) ;
#362 = VERTEX_POINT ( 'NONE', #325 ) ;
ENDSEC;
END-ISO-10303-21;
