ISO-10303-21;
HEADER;
FILE_DESCRIPTION (( 'STEP AP214' ),
    '1' );
FILE_NAME ('µu¾É¬W.STEP',
    '2026-06-02T13:22:47',
    ( '' ),
    ( '' ),
    'SwSTEP 2.0',
    'SolidWorks 2024',
    '' );
FILE_SCHEMA (( 'AUTOMOTIVE_DESIGN' ));
ENDSEC;

DATA;
#1 = DIRECTION ( 'NONE',  ( 0.000000000000000000, 0.000000000000000000, 1.000000000000000000 ) ) ;
#2 = FACE_OUTER_BOUND ( 'NONE', #303, .T. ) ;
#3 = VERTEX_POINT ( 'NONE', #308 ) ;
#4 = VECTOR ( 'NONE', #122, 1000.000000000000000 ) ;
#5 = DIRECTION ( 'NONE',  ( -1.192622389734054631E-16, 1.000000000000000000, 0.000000000000000000 ) ) ;
#6 = ORIENTED_EDGE ( 'NONE', *, *, #92, .F. ) ;
#7 = EDGE_CURVE ( 'NONE', #135, #160, #305, .T. ) ;
#8 = EDGE_LOOP ( 'NONE', ( #195, #224 ) ) ;
#9 = ORIENTED_EDGE ( 'NONE', *, *, #301, .T. ) ;
#10 = PRESENTATION_LAYER_ASSIGNMENT (  '', '', ( #177 ) ) ;
#11 = DIRECTION ( 'NONE',  ( 1.000000000000000000, 0.000000000000000000, 0.000000000000000000 ) ) ;
#12 = EDGE_LOOP ( 'NONE', ( #197, #29, #118, #68, #19, #161, #333, #190 ) ) ;
#13 = EDGE_CURVE ( 'NONE', #299, #117, #96, .T. ) ;
#14 = DIRECTION ( 'NONE',  ( -0.000000000000000000, -0.000000000000000000, -1.000000000000000000 ) ) ;
#15 = CARTESIAN_POINT ( 'NONE',  ( -2.448999795835026028, 0.4499999999999996780, 6.000000000000000000 ) ) ;
#16 = VECTOR ( 'NONE', #334, 1000.000000000000000 ) ;
#17 = DIRECTION ( 'NONE',  ( -0.000000000000000000, -0.000000000000000000, -1.000000000000000000 ) ) ;
#18 = PRODUCT_RELATED_PRODUCT_CATEGORY ( 'part', '', ( #200 ) ) ;
#19 = ORIENTED_EDGE ( 'NONE', *, *, #157, .F. ) ;
#20 = DIRECTION ( 'NONE',  ( 0.000000000000000000, 0.000000000000000000, 1.000000000000000000 ) ) ;
#21 = FILL_AREA_STYLE_COLOUR ( '', #244 ) ;
#22 = ADVANCED_FACE ( 'NONE', ( #201 ), #46, .T. ) ;
#23 = DIRECTION ( 'NONE',  ( -1.000000000000000000, 0.000000000000000000, 0.000000000000000000 ) ) ;
#24 = DIRECTION ( 'NONE',  ( 1.000000000000000000, 0.000000000000000000, 0.000000000000000000 ) ) ;
#25 = DIRECTION ( 'NONE',  ( -1.000000000000000000, -1.192622389734054631E-16, 0.000000000000000000 ) ) ;
#26 = DIRECTION ( 'NONE',  ( 1.000000000000000000, 0.000000000000000000, -0.000000000000000000 ) ) ;
#27 = ORIENTED_EDGE ( 'NONE', *, *, #267, .T. ) ;
#28 = CARTESIAN_POINT ( 'NONE',  ( 2.490000000000000213, 3.049370529876909390E-16, 6.000000000000000000 ) ) ;
#29 = ORIENTED_EDGE ( 'NONE', *, *, #284, .T. ) ;
#30 = AXIS2_PLACEMENT_3D ( 'NONE', #213, #266, #222 ) ;
#31 = VECTOR ( 'NONE', #245, 1000.000000000000000 ) ;
#32 = EDGE_CURVE ( 'NONE', #90, #270, #103, .T. ) ;
#33 = CARTESIAN_POINT ( 'NONE',  ( 2.490000000000000213, 3.049370529876909390E-16, 4.700000000000000178 ) ) ;
#34 = VERTEX_POINT ( 'NONE', #228 ) ;
#35 = CARTESIAN_POINT ( 'NONE',  ( 0.000000000000000000, 0.000000000000000000, 0.000000000000000000 ) ) ;
#36 = ORIENTED_EDGE ( 'NONE', *, *, #85, .F. ) ;
#37 = DIRECTION ( 'NONE',  ( -1.000000000000000000, 0.000000000000000000, 0.000000000000000000 ) ) ;
#38 = ORIENTED_EDGE ( 'NONE', *, *, #206, .T. ) ;
#39 = AXIS2_PLACEMENT_3D ( 'NONE', #240, #105, #182 ) ;
#40 = LINE ( 'NONE', #176, #324 ) ;
#41 = DIRECTION ( 'NONE',  ( 1.000000000000000000, 0.000000000000000000, 0.000000000000000000 ) ) ;
#42 = CARTESIAN_POINT ( 'NONE',  ( -2.448999795835026028, -0.4499999999999996780, 6.000000000000000000 ) ) ;
#43 = DIRECTION ( 'NONE',  ( 1.000000000000000000, 0.000000000000000000, -0.000000000000000000 ) ) ;
#44 = EDGE_CURVE ( 'NONE', #165, #218, #101, .T. ) ;
#45 = AXIS2_PLACEMENT_3D ( 'NONE', #293, #211, #23 ) ;
#46 = PLANE ( 'NONE',  #221 ) ;
#47 = DIRECTION ( 'NONE',  ( 1.000000000000000000, 0.000000000000000000, 0.000000000000000000 ) ) ;
#48 = EDGE_CURVE ( 'NONE', #34, #203, #226, .T. ) ;
#49 = CYLINDRICAL_SURFACE ( 'NONE', #229, 2.500000000000000000 ) ;
#50 = VECTOR ( 'NONE', #212, 1000.000000000000000 ) ;
#51 = LINE ( 'NONE', #154, #97 ) ;
#52 = CARTESIAN_POINT ( 'NONE',  ( -2.490000000000000213, 0.000000000000000000, 0.000000000000000000 ) ) ;
#53 = FACE_OUTER_BOUND ( 'NONE', #194, .T. ) ;
#54 = AXIS2_PLACEMENT_3D ( 'NONE', #209, #1, #78 ) ;
#55 = AXIS2_PLACEMENT_3D ( 'NONE', #130, #88, #278 ) ;
#56 = DIRECTION ( 'NONE',  ( 0.000000000000000000, 0.000000000000000000, 1.000000000000000000 ) ) ;
#57 = EDGE_LOOP ( 'NONE', ( #279, #277 ) ) ;
#58 = DIRECTION ( 'NONE',  ( 1.000000000000000000, 0.000000000000000000, 0.000000000000000000 ) ) ;
#59 = EDGE_LOOP ( 'NONE', ( #247, #139 ) ) ;
#60 = CIRCLE ( 'NONE', #106, 2.490000000000000213 ) ;
#61 = CIRCLE ( 'NONE', #230, 2.490000000000000213 ) ;
#62 = LINE ( 'NONE', #318, #31 ) ;
#63 = PRODUCT_DEFINITION_CONTEXT ( 'detailed design', #291, 'design' ) ;
#64 = ORIENTED_EDGE ( 'NONE', *, *, #341, .F. ) ;
#65 = EDGE_CURVE ( 'NONE', #34, #243, #40, .T. ) ;
#66 = PLANE ( 'NONE',  #281 ) ;
#67 = ORIENTED_EDGE ( 'NONE', *, *, #48, .F. ) ;
#68 = ORIENTED_EDGE ( 'NONE', *, *, #206, .F. ) ;
#69 = VECTOR ( 'NONE', #174, 1000.000000000000000 ) ;
#70 = CARTESIAN_POINT ( 'NONE',  ( -2.500000000000000000, 3.061616997868383141E-16, -11.00000000000000000 ) ) ;
#71 = LINE ( 'NONE', #175, #147 ) ;
#72 = ADVANCED_FACE ( 'NONE', ( #286 ), #149, .T. ) ;
#73 = DIRECTION ( 'NONE',  ( 0.000000000000000000, 0.000000000000000000, 1.000000000000000000 ) ) ;
#74 = AXIS2_PLACEMENT_3D ( 'NONE', #123, #255, #233 ) ;
#75 = ADVANCED_BREP_SHAPE_REPRESENTATION ( '\X2\77ed5c0e67f1\X0\', ( #239, #272 ), #164 ) ;
#76 = EDGE_LOOP ( 'NONE', ( #298, #330, #268, #223 ) ) ;
#77 = ADVANCED_FACE ( 'NONE', ( #310 ), #205, .T. ) ;
#78 = DIRECTION ( 'NONE',  ( 1.000000000000000000, 0.000000000000000000, 0.000000000000000000 ) ) ;
#79 = CARTESIAN_POINT ( 'NONE',  ( 0.000000000000000000, 0.000000000000000000, 4.700000000000000178 ) ) ;
#80 = AXIS2_PLACEMENT_3D ( 'NONE', #35, #316, #192 ) ;
#81 = CARTESIAN_POINT ( 'NONE',  ( -2.490000000000000213, 0.000000000000000000, 6.000000000000000000 ) ) ;
#82 = PRODUCT_DEFINITION ( 'UNKNOWN', '', #148, #63 ) ;
#83 = DIRECTION ( 'NONE',  ( -1.000000000000000000, 0.000000000000000000, 0.000000000000000000 ) ) ;
#84 = AXIS2_PLACEMENT_3D ( 'NONE', #263, #237, #110 ) ;
#85 = EDGE_CURVE ( 'NONE', #137, #243, #150, .T. ) ;
#86 = CARTESIAN_POINT ( 'NONE',  ( 2.500000000000000000, 0.000000000000000000, 0.000000000000000000 ) ) ;
#87 = ORIENTED_EDGE ( 'NONE', *, *, #136, .F. ) ;
#88 = DIRECTION ( 'NONE',  ( -1.084202172485504588E-17, -1.000000000000000000, 0.000000000000000000 ) ) ;
#89 = ORIENTED_EDGE ( 'NONE', *, *, #275, .F. ) ;
#90 = VERTEX_POINT ( 'NONE', #124 ) ;
#91 = CIRCLE ( 'NONE', #54, 2.490000000000000213 ) ;
#92 = EDGE_CURVE ( 'NONE', #270, #170, #140, .T. ) ;
#93 = CARTESIAN_POINT ( 'NONE',  ( 0.000000000000000000, 0.000000000000000000, -11.00000000000000000 ) ) ;
#94 = EDGE_LOOP ( 'NONE', ( #6, #89 ) ) ;
#95 = ORIENTED_EDGE ( 'NONE', *, *, #254, .T. ) ;
#96 = LINE ( 'NONE', #15, #313 ) ;
#97 = VECTOR ( 'NONE', #25, 1000.000000000000000 ) ;
#98 = EDGE_CURVE ( 'NONE', #34, #243, #185, .T. ) ;
#99 = DIRECTION ( 'NONE',  ( 1.000000000000000000, -1.084202172485504588E-17, 0.000000000000000000 ) ) ;
#100 = ORIENTED_EDGE ( 'NONE', *, *, #107, .T. ) ;
#101 = LINE ( 'NONE', #332, #152 ) ;
#102 = VECTOR ( 'NONE', #17, 1000.000000000000000 ) ;
#103 = LINE ( 'NONE', #282, #16 ) ;
#104 = SURFACE_STYLE_USAGE ( .BOTH. , #337 ) ;
#105 = DIRECTION ( 'NONE',  ( 0.000000000000000000, 0.000000000000000000, -1.000000000000000000 ) ) ;
#106 = AXIS2_PLACEMENT_3D ( 'NONE', #184, #276, #11 ) ;
#107 = EDGE_CURVE ( 'NONE', #215, #170, #306, .T. ) ;
#108 = LINE ( 'NONE', #81, #50 ) ;
#109 = CYLINDRICAL_SURFACE ( 'NONE', #317, 2.490000000000000213 ) ;
#110 = DIRECTION ( 'NONE',  ( 1.000000000000000000, 0.000000000000000000, 0.000000000000000000 ) ) ;
#111 = EDGE_LOOP ( 'NONE', ( #208, #115, #131, #251 ) ) ;
#112 = CARTESIAN_POINT ( 'NONE',  ( -5.366800753803245099E-17, 0.4499999999999999556, 4.700000000000000178 ) ) ;
#113 = ORIENTED_EDGE ( 'NONE', *, *, #171, .F. ) ;
#114 = FACE_OUTER_BOUND ( 'NONE', #12, .T. ) ;
#115 = ORIENTED_EDGE ( 'NONE', *, *, #183, .F. ) ;
#116 = CARTESIAN_POINT ( 'NONE',  ( 2.448999795835026028, -0.4499999999999996780, 6.000000000000000000 ) ) ;
#117 = VERTEX_POINT ( 'NONE', #253 ) ;
#118 = ORIENTED_EDGE ( 'NONE', *, *, #7, .T. ) ;
#119 = PRODUCT_DEFINITION_SHAPE ( 'NONE', 'NONE',  #82 ) ;
#120 = ORIENTED_EDGE ( 'NONE', *, *, #157, .T. ) ;
#121 = ORIENTED_EDGE ( 'NONE', *, *, #171, .T. ) ;
#122 = DIRECTION ( 'NONE',  ( 0.000000000000000000, 0.000000000000000000, 1.000000000000000000 ) ) ;
#123 = CARTESIAN_POINT ( 'NONE',  ( 0.000000000000000000, 0.000000000000000000, -11.00000000000000000 ) ) ;
#124 = CARTESIAN_POINT ( 'NONE',  ( 2.500000000000000000, 0.000000000000000000, -11.00000000000000000 ) ) ;
#125 = AXIS2_PLACEMENT_3D ( 'NONE', #145, #234, #336 ) ;
#126 = FILL_AREA_STYLE ('',( #21 ) ) ;
#127 = FACE_BOUND ( 'NONE', #57, .T. ) ;
#128 = DIRECTION ( 'NONE',  ( 1.000000000000000000, 0.000000000000000000, 0.000000000000000000 ) ) ;
#129 = FACE_OUTER_BOUND ( 'NONE', #321, .T. ) ;
#130 = CARTESIAN_POINT ( 'NONE',  ( -4.878909776184766101E-18, -0.4499999999999996780, 4.700000000000000178 ) ) ;
#131 = ORIENTED_EDGE ( 'NONE', *, *, #32, .T. ) ;
#132 = DIRECTION ( 'NONE',  ( -1.000000000000000000, -1.192622389734054631E-16, 0.000000000000000000 ) ) ;
#133 = ORIENTED_EDGE ( 'NONE', *, *, #48, .T. ) ;
#134 = LINE ( 'NONE', #28, #271 ) ;
#135 = VERTEX_POINT ( 'NONE', #307 ) ;
#136 = EDGE_CURVE ( 'NONE', #203, #137, #71, .T. ) ;
#137 = VERTEX_POINT ( 'NONE', #338 ) ;
#138 = PLANE ( 'NONE',  #55 ) ;
#139 = ORIENTED_EDGE ( 'NONE', *, *, #98, .T. ) ;
#140 = CIRCLE ( 'NONE', #125, 2.500000000000000000 ) ;
#141 = AXIS2_PLACEMENT_3D ( 'NONE', #163, #219, #26 ) ;
#142 = UNCERTAINTY_MEASURE_WITH_UNIT (LENGTH_MEASURE( 1.000000000000000082E-05 ), #181, 'distance_accuracy_value', 'NONE');
#143 = ORIENTED_EDGE ( 'NONE', *, *, #301, .F. ) ;
#144 = SHAPE_DEFINITION_REPRESENTATION ( #119, #75 ) ;
#145 = CARTESIAN_POINT ( 'NONE',  ( 0.000000000000000000, 0.000000000000000000, 0.000000000000000000 ) ) ;
#146 = CARTESIAN_POINT ( 'NONE',  ( 0.000000000000000000, 0.000000000000000000, -11.00000000000000000 ) ) ;
#147 = VECTOR ( 'NONE', #285, 1000.000000000000000 ) ;
#148 = PRODUCT_DEFINITION_FORMATION_WITH_SPECIFIED_SOURCE ( 'ANY', '', #200, .NOT_KNOWN. ) ;
#149 = CYLINDRICAL_SURFACE ( 'NONE', #280, 2.500000000000000000 ) ;
#150 = LINE ( 'NONE', #287, #4 ) ;
#151 = DIRECTION ( 'NONE',  ( 1.000000000000000000, 0.000000000000000000, 0.000000000000000000 ) ) ;
#152 = VECTOR ( 'NONE', #14, 1000.000000000000000 ) ;
#153 = PRESENTATION_STYLE_ASSIGNMENT (( #104 ) ) ;
#154 = CARTESIAN_POINT ( 'NONE',  ( -5.366800753803245099E-17, 0.4499999999999999556, 6.000000000000000000 ) ) ;
#155 = CARTESIAN_POINT ( 'NONE',  ( -2.448999795835026028, -0.4499999999999996780, 4.700000000000000178 ) ) ;
#156 = CIRCLE ( 'NONE', #45, 2.500000000000000000 ) ;
#157 = EDGE_CURVE ( 'NONE', #299, #3, #191, .T. ) ;
#158 = CARTESIAN_POINT ( 'NONE',  ( 0.000000000000000000, 0.000000000000000000, 0.000000000000000000 ) ) ;
#159 =( LENGTH_UNIT ( ) NAMED_UNIT ( * ) SI_UNIT ( .MILLI., .METRE. ) );
#160 = VERTEX_POINT ( 'NONE', #52 ) ;
#161 = ORIENTED_EDGE ( 'NONE', *, *, #13, .T. ) ;
#162 = AXIS2_PLACEMENT_3D ( 'NONE', #172, #283, #47 ) ;
#163 = CARTESIAN_POINT ( 'NONE',  ( 0.000000000000000000, 0.000000000000000000, 6.000000000000000000 ) ) ;
#164 =( GEOMETRIC_REPRESENTATION_CONTEXT ( 3 ) GLOBAL_UNCERTAINTY_ASSIGNED_CONTEXT ( ( #187 ) ) GLOBAL_UNIT_ASSIGNED_CONTEXT ( ( #159, #242, #250 ) ) REPRESENTATION_CONTEXT ( 'NONE', 'WORKASPACE' ) );
#165 = VERTEX_POINT ( 'NONE', #311 ) ;
#166 = EDGE_CURVE ( 'NONE', #160, #135, #204, .T. ) ;
#167 =( NAMED_UNIT ( * ) SI_UNIT ( $, .STERADIAN. ) SOLID_ANGLE_UNIT ( ) );
#168 = ORIENTED_EDGE ( 'NONE', *, *, #231, .T. ) ;
#169 = DIRECTION ( 'NONE',  ( -0.000000000000000000, -0.000000000000000000, -1.000000000000000000 ) ) ;
#170 = VERTEX_POINT ( 'NONE', #294 ) ;
#171 = EDGE_CURVE ( 'NONE', #137, #326, #210, .T. ) ;
#172 = CARTESIAN_POINT ( 'NONE',  ( 0.000000000000000000, 0.000000000000000000, 0.000000000000000000 ) ) ;
#173 = PRODUCT_CONTEXT ( 'NONE', #329, 'mechanical' ) ;
#174 = DIRECTION ( 'NONE',  ( -0.000000000000000000, -0.000000000000000000, 1.000000000000000000 ) ) ;
#175 = CARTESIAN_POINT ( 'NONE',  ( -4.878909776184766101E-18, -0.4499999999999996780, 4.700000000000000178 ) ) ;
#176 = CARTESIAN_POINT ( 'NONE',  ( -4.878909776184766872E-18, -0.4499999999999996780, 6.000000000000000000 ) ) ;
#177 = STYLED_ITEM ( 'NONE', ( #153 ), #239 ) ;
#178 = EDGE_LOOP ( 'NONE', ( #274, #113, #220, #319, #133, #143, #38, #304 ) ) ;
#179 = FACE_OUTER_BOUND ( 'NONE', #178, .T. ) ;
#180 = DIRECTION ( 'NONE',  ( -0.000000000000000000, 0.000000000000000000, 1.000000000000000000 ) ) ;
#181 =( LENGTH_UNIT ( ) NAMED_UNIT ( * ) SI_UNIT ( .MILLI., .METRE. ) );
#182 = DIRECTION ( 'NONE',  ( -1.000000000000000000, 0.000000000000000000, -0.000000000000000000 ) ) ;
#183 = EDGE_CURVE ( 'NONE', #90, #215, #156, .T. ) ;
#184 = CARTESIAN_POINT ( 'NONE',  ( 0.000000000000000000, 0.000000000000000000, 4.700000000000000178 ) ) ;
#185 = CIRCLE ( 'NONE', #290, 2.490000000000000213 ) ;
#186 = CIRCLE ( 'NONE', #193, 2.500000000000000000 ) ;
#187 = UNCERTAINTY_MEASURE_WITH_UNIT (LENGTH_MEASURE( 1.000000000000000082E-05 ), #159, 'distance_accuracy_value', 'NONE');
#188 = ORIENTED_EDGE ( 'NONE', *, *, #196, .F. ) ;
#189 = ADVANCED_FACE ( 'NONE', ( #53 ), #49, .T. ) ;
#190 = ORIENTED_EDGE ( 'NONE', *, *, #44, .T. ) ;
#191 = CIRCLE ( 'NONE', #84, 2.490000000000000213 ) ;
#192 = DIRECTION ( 'NONE',  ( -1.000000000000000000, 0.000000000000000000, 0.000000000000000000 ) ) ;
#193 = AXIS2_PLACEMENT_3D ( 'NONE', #93, #273, #37 ) ;
#194 = EDGE_LOOP ( 'NONE', ( #64, #100, #323, #300 ) ) ;
#195 = ORIENTED_EDGE ( 'NONE', *, *, #183, .T. ) ;
#196 = EDGE_CURVE ( 'NONE', #165, #117, #51, .T. ) ;
#197 = ORIENTED_EDGE ( 'NONE', *, *, #254, .F. ) ;
#198 = DIRECTION ( 'NONE',  ( 1.000000000000000000, 0.000000000000000000, 0.000000000000000000 ) ) ;
#199 = DIRECTION ( 'NONE',  ( 1.000000000000000000, 0.000000000000000000, 0.000000000000000000 ) ) ;
#200 = PRODUCT ( '\X2\77ed5c0e67f1\X0\', '\X2\77ed5c0e67f1\X0\', '', ( #173 ) ) ;
#201 = FACE_OUTER_BOUND ( 'NONE', #59, .T. ) ;
#202 = ADVANCED_FACE ( 'NONE', ( #129 ), #339, .T. ) ;
#203 = VERTEX_POINT ( 'NONE', #155 ) ;
#204 = CIRCLE ( 'NONE', #264, 2.490000000000000213 ) ;
#205 = PLANE ( 'NONE',  #74 ) ;
#206 = EDGE_CURVE ( 'NONE', #3, #160, #108, .T. ) ;
#207 = CARTESIAN_POINT ( 'NONE',  ( -2.500000000000000000, 3.061616997868383141E-16, -11.00000000000000000 ) ) ;
#208 = ORIENTED_EDGE ( 'NONE', *, *, #107, .F. ) ;
#209 = CARTESIAN_POINT ( 'NONE',  ( 0.000000000000000000, 0.000000000000000000, 6.000000000000000000 ) ) ;
#210 = CIRCLE ( 'NONE', #309, 2.490000000000000213 ) ;
#211 = DIRECTION ( 'NONE',  ( 0.000000000000000000, 0.000000000000000000, -1.000000000000000000 ) ) ;
#212 = DIRECTION ( 'NONE',  ( -0.000000000000000000, -0.000000000000000000, -1.000000000000000000 ) ) ;
#213 = CARTESIAN_POINT ( 'NONE',  ( 0.000000000000000000, 0.000000000000000000, 6.000000000000000000 ) ) ;
#214 = FACE_OUTER_BOUND ( 'NONE', #248, .T. ) ;
#215 = VERTEX_POINT ( 'NONE', #207 ) ;
#216 = ADVANCED_FACE ( 'NONE', ( #127, #314 ), #258, .F. ) ;
#217 = PLANE ( 'NONE',  #141 ) ;
#218 = VERTEX_POINT ( 'NONE', #340 ) ;
#219 = DIRECTION ( 'NONE',  ( 0.000000000000000000, 0.000000000000000000, 1.000000000000000000 ) ) ;
#220 = ORIENTED_EDGE ( 'NONE', *, *, #85, .T. ) ;
#221 = AXIS2_PLACEMENT_3D ( 'NONE', #257, #20, #43 ) ;
#222 = DIRECTION ( 'NONE',  ( -1.000000000000000000, 0.000000000000000000, 0.000000000000000000 ) ) ;
#223 = ORIENTED_EDGE ( 'NONE', *, *, #44, .F. ) ;
#224 = ORIENTED_EDGE ( 'NONE', *, *, #341, .T. ) ;
#225 = APPLICATION_PROTOCOL_DEFINITION ( 'draft international standard', 'automotive_design', 1998, #291 ) ;
#226 = LINE ( 'NONE', #42, #102 ) ;
#227 = CIRCLE ( 'NONE', #80, 2.500000000000000000 ) ;
#228 = CARTESIAN_POINT ( 'NONE',  ( -2.448999795835026028, -0.4499999999999996780, 6.000000000000000000 ) ) ;
#229 = AXIS2_PLACEMENT_3D ( 'NONE', #265, #260, #151 ) ;
#230 = AXIS2_PLACEMENT_3D ( 'NONE', #302, #322, #58 ) ;
#231 = EDGE_CURVE ( 'NONE', #165, #117, #91, .T. ) ;
#232 = DIRECTION ( 'NONE',  ( 0.000000000000000000, 0.000000000000000000, 1.000000000000000000 ) ) ;
#233 = DIRECTION ( 'NONE',  ( -1.000000000000000000, 0.000000000000000000, -0.000000000000000000 ) ) ;
#234 = DIRECTION ( 'NONE',  ( 0.000000000000000000, 0.000000000000000000, -1.000000000000000000 ) ) ;
#235 = ADVANCED_FACE ( 'NONE', ( #179 ), #109, .T. ) ;
#236 = SURFACE_STYLE_FILL_AREA ( #126 ) ;
#237 = DIRECTION ( 'NONE',  ( -0.000000000000000000, 0.000000000000000000, 1.000000000000000000 ) ) ;
#238 = CARTESIAN_POINT ( 'NONE',  ( 0.000000000000000000, 0.000000000000000000, 4.700000000000000178 ) ) ;
#239 = MANIFOLD_SOLID_BREP ( '¶ñ®Æ-¦ùªø2', #335 ) ;
#240 = CARTESIAN_POINT ( 'NONE',  ( 0.000000000000000000, 0.000000000000000000, 0.000000000000000000 ) ) ;
#241 = DIRECTION ( 'NONE',  ( 1.000000000000000000, 0.000000000000000000, 0.000000000000000000 ) ) ;
#242 =( NAMED_UNIT ( * ) PLANE_ANGLE_UNIT ( ) SI_UNIT ( $, .RADIAN. ) );
#243 = VERTEX_POINT ( 'NONE', #116 ) ;
#244 = COLOUR_RGB ( '',0.7921568627450980005, 0.8196078431372548767, 0.9333333333333333481 ) ;
#245 = DIRECTION ( 'NONE',  ( -1.000000000000000000, -1.192622389734054631E-16, 0.000000000000000000 ) ) ;
#246 = ORIENTED_EDGE ( 'NONE', *, *, #136, .T. ) ;
#247 = ORIENTED_EDGE ( 'NONE', *, *, #65, .F. ) ;
#248 = EDGE_LOOP ( 'NONE', ( #188, #168 ) ) ;
#249 = MECHANICAL_DESIGN_GEOMETRIC_PRESENTATION_REPRESENTATION (  '', ( #177 ), #331 ) ;
#250 =( NAMED_UNIT ( * ) SI_UNIT ( $, .STERADIAN. ) SOLID_ANGLE_UNIT ( ) );
#251 = ORIENTED_EDGE ( 'NONE', *, *, #92, .T. ) ;
#252 = CARTESIAN_POINT ( 'NONE',  ( 0.000000000000000000, 0.000000000000000000, 6.000000000000000000 ) ) ;
#253 = CARTESIAN_POINT ( 'NONE',  ( -2.448999795835026028, 0.4499999999999996780, 6.000000000000000000 ) ) ;
#254 = EDGE_CURVE ( 'NONE', #326, #218, #60, .T. ) ;
#255 = DIRECTION ( 'NONE',  ( 0.000000000000000000, 0.000000000000000000, -1.000000000000000000 ) ) ;
#256 = DIRECTION ( 'NONE',  ( -0.000000000000000000, -0.000000000000000000, 1.000000000000000000 ) ) ;
#257 = CARTESIAN_POINT ( 'NONE',  ( 0.000000000000000000, 0.000000000000000000, 6.000000000000000000 ) ) ;
#258 = PLANE ( 'NONE',  #39 ) ;
#259 = AXIS2_PLACEMENT_3D ( 'NONE', #238, #180, #241 ) ;
#260 = DIRECTION ( 'NONE',  ( -0.000000000000000000, -0.000000000000000000, 1.000000000000000000 ) ) ;
#261 =( NAMED_UNIT ( * ) PLANE_ANGLE_UNIT ( ) SI_UNIT ( $, .RADIAN. ) );
#262 = ADVANCED_FACE ( 'NONE', ( #114 ), #269, .T. ) ;
#263 = CARTESIAN_POINT ( 'NONE',  ( 0.000000000000000000, 0.000000000000000000, 4.700000000000000178 ) ) ;
#264 = AXIS2_PLACEMENT_3D ( 'NONE', #158, #312, #128 ) ;
#265 = CARTESIAN_POINT ( 'NONE',  ( 0.000000000000000000, 0.000000000000000000, -11.00000000000000000 ) ) ;
#266 = DIRECTION ( 'NONE',  ( -0.000000000000000000, -0.000000000000000000, -1.000000000000000000 ) ) ;
#267 = EDGE_CURVE ( 'NONE', #218, #299, #62, .T. ) ;
#268 = ORIENTED_EDGE ( 'NONE', *, *, #267, .F. ) ;
#269 = CYLINDRICAL_SURFACE ( 'NONE', #30, 2.490000000000000213 ) ;
#270 = VERTEX_POINT ( 'NONE', #86 ) ;
#271 = VECTOR ( 'NONE', #169, 1000.000000000000000 ) ;
#272 = AXIS2_PLACEMENT_3D ( 'NONE', #297, #56, #41 ) ;
#273 = DIRECTION ( 'NONE',  ( 0.000000000000000000, 0.000000000000000000, -1.000000000000000000 ) ) ;
#274 = ORIENTED_EDGE ( 'NONE', *, *, #284, .F. ) ;
#275 = EDGE_CURVE ( 'NONE', #170, #270, #227, .T. ) ;
#276 = DIRECTION ( 'NONE',  ( -0.000000000000000000, 0.000000000000000000, 1.000000000000000000 ) ) ;
#277 = ORIENTED_EDGE ( 'NONE', *, *, #7, .F. ) ;
#278 = DIRECTION ( 'NONE',  ( 1.000000000000000000, -1.084202172485504588E-17, 0.000000000000000000 ) ) ;
#279 = ORIENTED_EDGE ( 'NONE', *, *, #166, .F. ) ;
#280 = AXIS2_PLACEMENT_3D ( 'NONE', #146, #256, #199 ) ;
#281 = AXIS2_PLACEMENT_3D ( 'NONE', #112, #5, #132 ) ;
#282 = CARTESIAN_POINT ( 'NONE',  ( 2.500000000000000000, 0.000000000000000000, -11.00000000000000000 ) ) ;
#283 = DIRECTION ( 'NONE',  ( 0.000000000000000000, 0.000000000000000000, 1.000000000000000000 ) ) ;
#284 = EDGE_CURVE ( 'NONE', #326, #135, #134, .T. ) ;
#285 = DIRECTION ( 'NONE',  ( 1.000000000000000000, -1.084202172485504434E-17, 0.000000000000000000 ) ) ;
#286 = FACE_OUTER_BOUND ( 'NONE', #111, .T. ) ;
#287 = CARTESIAN_POINT ( 'NONE',  ( 2.448999795835026028, -0.4499999999999996780, 6.000000000000000000 ) ) ;
#288 = DIRECTION ( 'NONE',  ( -0.000000000000000000, 0.000000000000000000, 1.000000000000000000 ) ) ;
#289 = CARTESIAN_POINT ( 'NONE',  ( 0.000000000000000000, 0.000000000000000000, 6.000000000000000000 ) ) ;
#290 = AXIS2_PLACEMENT_3D ( 'NONE', #252, #232, #198 ) ;
#291 = APPLICATION_CONTEXT ( 'automotive_design' ) ;
#292 = ADVANCED_FACE ( 'NONE', ( #214 ), #217, .T. ) ;
#293 = CARTESIAN_POINT ( 'NONE',  ( 0.000000000000000000, 0.000000000000000000, -11.00000000000000000 ) ) ;
#294 = CARTESIAN_POINT ( 'NONE',  ( -2.500000000000000000, 3.061616997868383141E-16, 0.000000000000000000 ) ) ;
#295 = ADVANCED_FACE ( 'NONE', ( #325 ), #66, .F. ) ;
#296 = APPLICATION_PROTOCOL_DEFINITION ( 'draft international standard', 'automotive_design', 1998, #329 ) ;
#297 = CARTESIAN_POINT ( 'NONE',  ( 0.000000000000000000, 0.000000000000000000, 0.000000000000000000 ) ) ;
#298 = ORIENTED_EDGE ( 'NONE', *, *, #196, .T. ) ;
#299 = VERTEX_POINT ( 'NONE', #320 ) ;
#300 = ORIENTED_EDGE ( 'NONE', *, *, #32, .F. ) ;
#301 = EDGE_CURVE ( 'NONE', #3, #203, #61, .T. ) ;
#302 = CARTESIAN_POINT ( 'NONE',  ( 0.000000000000000000, 0.000000000000000000, 4.700000000000000178 ) ) ;
#303 = EDGE_LOOP ( 'NONE', ( #327, #36, #87, #67 ) ) ;
#304 = ORIENTED_EDGE ( 'NONE', *, *, #166, .T. ) ;
#305 = CIRCLE ( 'NONE', #162, 2.490000000000000213 ) ;
#306 = LINE ( 'NONE', #70, #69 ) ;
#307 = CARTESIAN_POINT ( 'NONE',  ( 2.490000000000000213, 3.049370529876909390E-16, 0.000000000000000000 ) ) ;
#308 = CARTESIAN_POINT ( 'NONE',  ( -2.490000000000000213, 0.000000000000000000, 4.700000000000000178 ) ) ;
#309 = AXIS2_PLACEMENT_3D ( 'NONE', #79, #288, #24 ) ;
#310 = FACE_OUTER_BOUND ( 'NONE', #8, .T. ) ;
#311 = CARTESIAN_POINT ( 'NONE',  ( 2.448999795835026028, 0.4500000000000001776, 6.000000000000000000 ) ) ;
#312 = DIRECTION ( 'NONE',  ( 0.000000000000000000, 0.000000000000000000, 1.000000000000000000 ) ) ;
#313 = VECTOR ( 'NONE', #73, 1000.000000000000000 ) ;
#314 = FACE_OUTER_BOUND ( 'NONE', #94, .T. ) ;
#315 = DIRECTION ( 'NONE',  ( -0.000000000000000000, -0.000000000000000000, -1.000000000000000000 ) ) ;
#316 = DIRECTION ( 'NONE',  ( 0.000000000000000000, 0.000000000000000000, -1.000000000000000000 ) ) ;
#317 = AXIS2_PLACEMENT_3D ( 'NONE', #289, #315, #83 ) ;
#318 = CARTESIAN_POINT ( 'NONE',  ( -5.366800753803245099E-17, 0.4499999999999999556, 4.700000000000000178 ) ) ;
#319 = ORIENTED_EDGE ( 'NONE', *, *, #98, .F. ) ;
#320 = CARTESIAN_POINT ( 'NONE',  ( -2.448999795835026028, 0.4499999999999996780, 4.700000000000000178 ) ) ;
#321 = EDGE_LOOP ( 'NONE', ( #120, #9, #246, #121, #95, #27 ) ) ;
#322 = DIRECTION ( 'NONE',  ( -0.000000000000000000, 0.000000000000000000, 1.000000000000000000 ) ) ;
#323 = ORIENTED_EDGE ( 'NONE', *, *, #275, .T. ) ;
#324 = VECTOR ( 'NONE', #99, 1000.000000000000000 ) ;
#325 = FACE_OUTER_BOUND ( 'NONE', #76, .T. ) ;
#326 = VERTEX_POINT ( 'NONE', #33 ) ;
#327 = ORIENTED_EDGE ( 'NONE', *, *, #65, .T. ) ;
#328 = ADVANCED_FACE ( 'NONE', ( #2 ), #138, .F. ) ;
#329 = APPLICATION_CONTEXT ( 'automotive_design' ) ;
#330 = ORIENTED_EDGE ( 'NONE', *, *, #13, .F. ) ;
#331 =( GEOMETRIC_REPRESENTATION_CONTEXT ( 3 ) GLOBAL_UNCERTAINTY_ASSIGNED_CONTEXT ( ( #142 ) ) GLOBAL_UNIT_ASSIGNED_CONTEXT ( ( #181, #261, #167 ) ) REPRESENTATION_CONTEXT ( 'NONE', 'WORKASPACE' ) );
#332 = CARTESIAN_POINT ( 'NONE',  ( 2.448999795835026028, 0.4500000000000001776, 6.000000000000000000 ) ) ;
#333 = ORIENTED_EDGE ( 'NONE', *, *, #231, .F. ) ;
#334 = DIRECTION ( 'NONE',  ( -0.000000000000000000, -0.000000000000000000, 1.000000000000000000 ) ) ;
#335 = CLOSED_SHELL ( 'NONE', ( #189, #262, #22, #235, #292, #202, #328, #295, #72, #77, #216 ) ) ;
#336 = DIRECTION ( 'NONE',  ( -1.000000000000000000, 0.000000000000000000, 0.000000000000000000 ) ) ;
#337 = SURFACE_SIDE_STYLE ('',( #236 ) ) ;
#338 = CARTESIAN_POINT ( 'NONE',  ( 2.448999795835026028, -0.4499999999999996780, 4.700000000000000178 ) ) ;
#339 = PLANE ( 'NONE',  #259 ) ;
#340 = CARTESIAN_POINT ( 'NONE',  ( 2.448999795835026028, 0.4500000000000001776, 4.700000000000000178 ) ) ;
#341 = EDGE_CURVE ( 'NONE', #215, #90, #186, .T. ) ;
ENDSEC;
END-ISO-10303-21;
