ISO-10303-21;
HEADER;
FILE_DESCRIPTION (( 'STEP AP214' ),
    '1' );
FILE_NAME ('Å¨®M.STEP',
    '2026-06-02T13:22:26',
    ( '' ),
    ( '' ),
    'SwSTEP 2.0',
    'SolidWorks 2024',
    '' );
FILE_SCHEMA (( 'AUTOMOTIVE_DESIGN' ));
ENDSEC;

DATA;
#1 = DIRECTION ( 'NONE',  ( 1.000000000000000000, 0.000000000000000000, 0.000000000000000000 ) ) ;
#2 = CARTESIAN_POINT ( 'NONE',  ( 0.000000000000000000, 0.000000000000000000, 4.200000000000000178 ) ) ;
#3 = ADVANCED_FACE ( 'NONE', ( #159 ), #96, .T. ) ;
#4 = AXIS2_PLACEMENT_3D ( 'NONE', #108, #174, #62 ) ;
#5 = ORIENTED_EDGE ( 'NONE', *, *, #266, .F. ) ;
#6 = PRODUCT_CONTEXT ( 'NONE', #114, 'mechanical' ) ;
#7 = ORIENTED_EDGE ( 'NONE', *, *, #69, .T. ) ;
#8 = EDGE_LOOP ( 'NONE', ( #244, #179, #261, #48 ) ) ;
#9 = ORIENTED_EDGE ( 'NONE', *, *, #214, .F. ) ;
#10 = ORIENTED_EDGE ( 'NONE', *, *, #266, .T. ) ;
#11 = EDGE_LOOP ( 'NONE', ( #37, #10 ) ) ;
#12 = CIRCLE ( 'NONE', #207, 7.000000000000000000 ) ;
#13 = CARTESIAN_POINT ( 'NONE',  ( -3.000000000000000444, 0.000000000000000000, 4.200000000000000178 ) ) ;
#14 = DIRECTION ( 'NONE',  ( -1.000000000000000000, 0.000000000000000000, 0.000000000000000000 ) ) ;
#15 =( NAMED_UNIT ( * ) SI_UNIT ( $, .STERADIAN. ) SOLID_ANGLE_UNIT ( ) );
#16 = DIRECTION ( 'NONE',  ( -1.000000000000000000, 0.000000000000000000, -0.000000000000000000 ) ) ;
#17 = CYLINDRICAL_SURFACE ( 'NONE', #74, 2.500000000000000000 ) ;
#18 = FACE_OUTER_BOUND ( 'NONE', #72, .T. ) ;
#19 = CARTESIAN_POINT ( 'NONE',  ( 0.000000000000000000, 0.000000000000000000, 4.200000000000000178 ) ) ;
#20 = AXIS2_PLACEMENT_3D ( 'NONE', #183, #181, #50 ) ;
#21 = CARTESIAN_POINT ( 'NONE',  ( 0.000000000000000000, 0.000000000000000000, -1.000000000000000000 ) ) ;
#22 = CARTESIAN_POINT ( 'NONE',  ( 0.000000000000000000, 0.000000000000000000, 0.000000000000000000 ) ) ;
#23 = VECTOR ( 'NONE', #42, 1000.000000000000000 ) ;
#24 = MECHANICAL_DESIGN_GEOMETRIC_PRESENTATION_REPRESENTATION (  '', ( #235 ), #269 ) ;
#25 = PRODUCT_RELATED_PRODUCT_CATEGORY ( 'part', '', ( #153 ) ) ;
#26 = APPLICATION_CONTEXT ( 'automotive_design' ) ;
#27 = EDGE_CURVE ( 'NONE', #201, #203, #76, .T. ) ;
#28 = PRODUCT_DEFINITION_SHAPE ( 'NONE', 'NONE',  #172 ) ;
#29 = ORIENTED_EDGE ( 'NONE', *, *, #229, .F. ) ;
#30 = ORIENTED_EDGE ( 'NONE', *, *, #27, .T. ) ;
#31 = DIRECTION ( 'NONE',  ( -0.000000000000000000, -0.000000000000000000, -1.000000000000000000 ) ) ;
#32 = AXIS2_PLACEMENT_3D ( 'NONE', #131, #36, #91 ) ;
#33 = EDGE_LOOP ( 'NONE', ( #94, #200 ) ) ;
#34 = CARTESIAN_POINT ( 'NONE',  ( -3.000000000000000444, 0.000000000000000000, 0.000000000000000000 ) ) ;
#35 = DIRECTION ( 'NONE',  ( -0.000000000000000000, -0.000000000000000000, -1.000000000000000000 ) ) ;
#36 = DIRECTION ( 'NONE',  ( 0.000000000000000000, 0.000000000000000000, -1.000000000000000000 ) ) ;
#37 = ORIENTED_EDGE ( 'NONE', *, *, #54, .T. ) ;
#38 = CIRCLE ( 'NONE', #47, 3.000000000000000444 ) ;
#39 = DIRECTION ( 'NONE',  ( 1.000000000000000000, 0.000000000000000000, 0.000000000000000000 ) ) ;
#40 = CARTESIAN_POINT ( 'NONE',  ( 0.000000000000000000, 0.000000000000000000, -1.000000000000000000 ) ) ;
#41 = MANIFOLD_SOLID_BREP ( '¶ñ®Æ-¦ùªø2', #199 ) ;
#42 = DIRECTION ( 'NONE',  ( -0.000000000000000000, -0.000000000000000000, -1.000000000000000000 ) ) ;
#43 = EDGE_CURVE ( 'NONE', #177, #98, #77, .T. ) ;
#44 = PLANE ( 'NONE',  #84 ) ;
#45 = DIRECTION ( 'NONE',  ( 0.000000000000000000, 0.000000000000000000, 1.000000000000000000 ) ) ;
#46 = EDGE_CURVE ( 'NONE', #264, #231, #119, .T. ) ;
#47 = AXIS2_PLACEMENT_3D ( 'NONE', #22, #79, #218 ) ;
#48 = ORIENTED_EDGE ( 'NONE', *, *, #46, .F. ) ;
#49 = AXIS2_PLACEMENT_3D ( 'NONE', #19, #88, #63 ) ;
#50 = DIRECTION ( 'NONE',  ( 1.000000000000000000, 0.000000000000000000, 0.000000000000000000 ) ) ;
#51 = ORIENTED_EDGE ( 'NONE', *, *, #69, .F. ) ;
#52 = ORIENTED_EDGE ( 'NONE', *, *, #105, .F. ) ;
#53 = VERTEX_POINT ( 'NONE', #187 ) ;
#54 = EDGE_CURVE ( 'NONE', #157, #53, #12, .T. ) ;
#55 = ORIENTED_EDGE ( 'NONE', *, *, #165, .F. ) ;
#56 = CARTESIAN_POINT ( 'NONE',  ( -3.000000000000000444, 0.000000000000000000, 4.200000000000000178 ) ) ;
#57 = DIRECTION ( 'NONE',  ( -0.000000000000000000, -0.000000000000000000, -1.000000000000000000 ) ) ;
#58 = DIRECTION ( 'NONE',  ( 1.000000000000000000, 0.000000000000000000, 0.000000000000000000 ) ) ;
#59 = CARTESIAN_POINT ( 'NONE',  ( 0.000000000000000000, 0.000000000000000000, 4.200000000000000178 ) ) ;
#60 = AXIS2_PLACEMENT_3D ( 'NONE', #213, #257, #259 ) ;
#61 = CARTESIAN_POINT ( 'NONE',  ( 0.000000000000000000, 0.000000000000000000, -1.000000000000000000 ) ) ;
#62 = DIRECTION ( 'NONE',  ( -1.000000000000000000, 0.000000000000000000, 0.000000000000000000 ) ) ;
#63 = DIRECTION ( 'NONE',  ( 1.000000000000000000, 0.000000000000000000, 0.000000000000000000 ) ) ;
#64 =( NAMED_UNIT ( * ) PLANE_ANGLE_UNIT ( ) SI_UNIT ( $, .RADIAN. ) );
#65 = CARTESIAN_POINT ( 'NONE',  ( -2.500000000000000000, 0.000000000000000000, -1.000000000000000000 ) ) ;
#66 = CARTESIAN_POINT ( 'NONE',  ( 0.000000000000000000, 0.000000000000000000, 4.200000000000000178 ) ) ;
#67 = VERTEX_POINT ( 'NONE', #160 ) ;
#68 = ADVANCED_FACE ( 'NONE', ( #164, #78 ), #44, .T. ) ;
#69 = EDGE_CURVE ( 'NONE', #98, #206, #120, .T. ) ;
#70 = EDGE_LOOP ( 'NONE', ( #51, #55 ) ) ;
#71 =( GEOMETRIC_REPRESENTATION_CONTEXT ( 3 ) GLOBAL_UNCERTAINTY_ASSIGNED_CONTEXT ( ( #178 ) ) GLOBAL_UNIT_ASSIGNED_CONTEXT ( ( #189, #64, #198 ) ) REPRESENTATION_CONTEXT ( 'NONE', 'WORKASPACE' ) );
#72 = EDGE_LOOP ( 'NONE', ( #5, #262, #30, #103 ) ) ;
#73 = ORIENTED_EDGE ( 'NONE', *, *, #85, .T. ) ;
#74 = AXIS2_PLACEMENT_3D ( 'NONE', #59, #148, #253 ) ;
#75 = SURFACE_SIDE_STYLE ('',( #230 ) ) ;
#76 = CIRCLE ( 'NONE', #169, 7.000000000000000000 ) ;
#77 = LINE ( 'NONE', #228, #254 ) ;
#78 = FACE_BOUND ( 'NONE', #70, .T. ) ;
#79 = DIRECTION ( 'NONE',  ( 0.000000000000000000, 0.000000000000000000, 1.000000000000000000 ) ) ;
#80 = CARTESIAN_POINT ( 'NONE',  ( 0.000000000000000000, 0.000000000000000000, 0.000000000000000000 ) ) ;
#81 = CARTESIAN_POINT ( 'NONE',  ( 0.000000000000000000, 0.000000000000000000, 4.200000000000000178 ) ) ;
#82 = DIRECTION ( 'NONE',  ( 0.000000000000000000, 0.000000000000000000, -1.000000000000000000 ) ) ;
#83 = CARTESIAN_POINT ( 'NONE',  ( 2.500000000000000000, 3.061616997868383141E-16, -1.000000000000000000 ) ) ;
#84 = AXIS2_PLACEMENT_3D ( 'NONE', #21, #149, #16 ) ;
#85 = EDGE_CURVE ( 'NONE', #231, #134, #243, .T. ) ;
#86 = ADVANCED_FACE ( 'NONE', ( #106 ), #17, .F. ) ;
#87 = DIRECTION ( 'NONE',  ( -0.000000000000000000, -0.000000000000000000, 1.000000000000000000 ) ) ;
#88 = DIRECTION ( 'NONE',  ( 0.000000000000000000, 0.000000000000000000, 1.000000000000000000 ) ) ;
#89 = VECTOR ( 'NONE', #170, 1000.000000000000000 ) ;
#90 = ADVANCED_FACE ( 'NONE', ( #236 ), #217, .T. ) ;
#91 = DIRECTION ( 'NONE',  ( -1.000000000000000000, 0.000000000000000000, 0.000000000000000000 ) ) ;
#92 = ORIENTED_EDGE ( 'NONE', *, *, #133, .F. ) ;
#93 = ORIENTED_EDGE ( 'NONE', *, *, #135, .T. ) ;
#94 = ORIENTED_EDGE ( 'NONE', *, *, #161, .F. ) ;
#95 = AXIS2_PLACEMENT_3D ( 'NONE', #2, #175, #112 ) ;
#96 = CYLINDRICAL_SURFACE ( 'NONE', #147, 3.000000000000000444 ) ;
#97 = AXIS2_PLACEMENT_3D ( 'NONE', #238, #128, #1 ) ;
#98 = VERTEX_POINT ( 'NONE', #65 ) ;
#99 = VECTOR ( 'NONE', #57, 1000.000000000000000 ) ;
#100 = CARTESIAN_POINT ( 'NONE',  ( 0.000000000000000000, 0.000000000000000000, -1.000000000000000000 ) ) ;
#101 = VERTEX_POINT ( 'NONE', #111 ) ;
#102 = AXIS2_PLACEMENT_3D ( 'NONE', #61, #82, #215 ) ;
#103 = ORIENTED_EDGE ( 'NONE', *, *, #123, .F. ) ;
#104 = FACE_OUTER_BOUND ( 'NONE', #136, .T. ) ;
#105 = EDGE_CURVE ( 'NONE', #203, #201, #197, .T. ) ;
#106 = FACE_OUTER_BOUND ( 'NONE', #249, .T. ) ;
#107 = CARTESIAN_POINT ( 'NONE',  ( 7.000000000000000000, 0.000000000000000000, -1.000000000000000000 ) ) ;
#108 = CARTESIAN_POINT ( 'NONE',  ( 0.000000000000000000, 0.000000000000000000, -1.000000000000000000 ) ) ;
#109 = AXIS2_PLACEMENT_3D ( 'NONE', #239, #45, #58 ) ;
#110 = DIRECTION ( 'NONE',  ( -0.000000000000000000, -0.000000000000000000, -1.000000000000000000 ) ) ;
#111 = CARTESIAN_POINT ( 'NONE',  ( 3.000000000000000444, 3.673940397442060361E-16, 4.200000000000000178 ) ) ;
#112 = DIRECTION ( 'NONE',  ( 1.000000000000000000, 0.000000000000000000, 0.000000000000000000 ) ) ;
#113 = ADVANCED_BREP_SHAPE_REPRESENTATION ( '\X2\896f5957\X0\', ( #41, #20 ), #71 ) ;
#114 = APPLICATION_CONTEXT ( 'automotive_design' ) ;
#115 = ADVANCED_FACE ( 'NONE', ( #273 ), #130, .T. ) ;
#116 = ORIENTED_EDGE ( 'NONE', *, *, #165, .T. ) ;
#117 = ORIENTED_EDGE ( 'NONE', *, *, #242, .F. ) ;
#118 = ORIENTED_EDGE ( 'NONE', *, *, #255, .T. ) ;
#119 = LINE ( 'NONE', #13, #99 ) ;
#120 = CIRCLE ( 'NONE', #102, 2.500000000000000000 ) ;
#121 = DIRECTION ( 'NONE',  ( -1.000000000000000000, 0.000000000000000000, 0.000000000000000000 ) ) ;
#122 = DIRECTION ( 'NONE',  ( 0.000000000000000000, 0.000000000000000000, -1.000000000000000000 ) ) ;
#123 = EDGE_CURVE ( 'NONE', #157, #203, #196, .T. ) ;
#124 = CIRCLE ( 'NONE', #4, 2.500000000000000000 ) ;
#125 = CYLINDRICAL_SURFACE ( 'NONE', #97, 7.000000000000000000 ) ;
#126 = LINE ( 'NONE', #211, #89 ) ;
#127 = DIRECTION ( 'NONE',  ( -1.000000000000000000, 0.000000000000000000, 0.000000000000000000 ) ) ;
#128 = DIRECTION ( 'NONE',  ( -0.000000000000000000, -0.000000000000000000, 1.000000000000000000 ) ) ;
#129 = PRODUCT_DEFINITION_FORMATION_WITH_SPECIFIED_SOURCE ( 'ANY', '', #153, .NOT_KNOWN. ) ;
#130 = CYLINDRICAL_SURFACE ( 'NONE', #233, 3.000000000000000444 ) ;
#131 = CARTESIAN_POINT ( 'NONE',  ( 0.000000000000000000, 0.000000000000000000, -1.000000000000000000 ) ) ;
#132 = UNCERTAINTY_MEASURE_WITH_UNIT (LENGTH_MEASURE( 1.000000000000000082E-05 ), #139, 'distance_accuracy_value', 'NONE');
#133 = EDGE_CURVE ( 'NONE', #101, #134, #194, .T. ) ;
#134 = VERTEX_POINT ( 'NONE', #237 ) ;
#135 = EDGE_CURVE ( 'NONE', #67, #206, #190, .T. ) ;
#136 = EDGE_LOOP ( 'NONE', ( #208, #118 ) ) ;
#137 = AXIS2_PLACEMENT_3D ( 'NONE', #150, #152, #127 ) ;
#138 = EDGE_CURVE ( 'NONE', #67, #177, #185, .T. ) ;
#139 =( LENGTH_UNIT ( ) NAMED_UNIT ( * ) SI_UNIT ( .MILLI., .METRE. ) );
#140 = EDGE_LOOP ( 'NONE', ( #265, #29 ) ) ;
#141 = CARTESIAN_POINT ( 'NONE',  ( 0.000000000000000000, 0.000000000000000000, 4.200000000000000178 ) ) ;
#142 = ORIENTED_EDGE ( 'NONE', *, *, #43, .F. ) ;
#143 = DIRECTION ( 'NONE',  ( -0.000000000000000000, -0.000000000000000000, -1.000000000000000000 ) ) ;
#144 = VECTOR ( 'NONE', #252, 1000.000000000000000 ) ;
#145 = CARTESIAN_POINT ( 'NONE',  ( 2.500000000000000000, 3.061616997868383141E-16, 4.200000000000000178 ) ) ;
#146 = CARTESIAN_POINT ( 'NONE',  ( 0.000000000000000000, 0.000000000000000000, 0.000000000000000000 ) ) ;
#147 = AXIS2_PLACEMENT_3D ( 'NONE', #271, #35, #14 ) ;
#148 = DIRECTION ( 'NONE',  ( -0.000000000000000000, -0.000000000000000000, -1.000000000000000000 ) ) ;
#149 = DIRECTION ( 'NONE',  ( 0.000000000000000000, 0.000000000000000000, -1.000000000000000000 ) ) ;
#150 = CARTESIAN_POINT ( 'NONE',  ( 0.000000000000000000, 0.000000000000000000, 0.000000000000000000 ) ) ;
#151 = DIRECTION ( 'NONE',  ( 1.000000000000000000, 0.000000000000000000, -0.000000000000000000 ) ) ;
#152 = DIRECTION ( 'NONE',  ( 0.000000000000000000, 0.000000000000000000, -1.000000000000000000 ) ) ;
#153 = PRODUCT ( '\X2\896f5957\X0\', '\X2\896f5957\X0\', '', ( #6 ) ) ;
#154 = ADVANCED_FACE ( 'NONE', ( #18 ), #125, .T. ) ;
#155 = PLANE ( 'NONE',  #158 ) ;
#156 = ORIENTED_EDGE ( 'NONE', *, *, #105, .T. ) ;
#157 = VERTEX_POINT ( 'NONE', #274 ) ;
#158 = AXIS2_PLACEMENT_3D ( 'NONE', #146, #241, #250 ) ;
#159 = FACE_OUTER_BOUND ( 'NONE', #8, .T. ) ;
#160 = CARTESIAN_POINT ( 'NONE',  ( 2.500000000000000000, 3.061616997868383141E-16, 4.200000000000000178 ) ) ;
#161 = EDGE_CURVE ( 'NONE', #177, #67, #224, .T. ) ;
#162 = FILL_AREA_STYLE_COLOUR ( '', #278 ) ;
#163 = CIRCLE ( 'NONE', #95, 3.000000000000000444 ) ;
#164 = FACE_OUTER_BOUND ( 'NONE', #11, .T. ) ;
#165 = EDGE_CURVE ( 'NONE', #206, #98, #124, .T. ) ;
#166 = DIRECTION ( 'NONE',  ( 1.000000000000000000, 0.000000000000000000, 0.000000000000000000 ) ) ;
#167 = DIRECTION ( 'NONE',  ( 0.000000000000000000, 0.000000000000000000, 1.000000000000000000 ) ) ;
#168 = AXIS2_PLACEMENT_3D ( 'NONE', #141, #143, #219 ) ;
#169 = AXIS2_PLACEMENT_3D ( 'NONE', #80, #122, #121 ) ;
#170 = DIRECTION ( 'NONE',  ( -0.000000000000000000, -0.000000000000000000, 1.000000000000000000 ) ) ;
#171 = CARTESIAN_POINT ( 'NONE',  ( 3.000000000000000444, 3.673940397442060361E-16, 4.200000000000000178 ) ) ;
#172 = PRODUCT_DEFINITION ( 'UNKNOWN', '', #129, #225 ) ;
#173 = AXIS2_PLACEMENT_3D ( 'NONE', #40, #279, #166 ) ;
#174 = DIRECTION ( 'NONE',  ( 0.000000000000000000, 0.000000000000000000, -1.000000000000000000 ) ) ;
#175 = DIRECTION ( 'NONE',  ( 0.000000000000000000, 0.000000000000000000, 1.000000000000000000 ) ) ;
#176 = FACE_OUTER_BOUND ( 'NONE', #184, .T. ) ;
#177 = VERTEX_POINT ( 'NONE', #192 ) ;
#178 = UNCERTAINTY_MEASURE_WITH_UNIT (LENGTH_MEASURE( 1.000000000000000082E-05 ), #189, 'distance_accuracy_value', 'NONE');
#179 = ORIENTED_EDGE ( 'NONE', *, *, #133, .T. ) ;
#180 = APPLICATION_PROTOCOL_DEFINITION ( 'draft international standard', 'automotive_design', 1998, #114 ) ;
#181 = DIRECTION ( 'NONE',  ( 0.000000000000000000, 0.000000000000000000, 1.000000000000000000 ) ) ;
#182 = ORIENTED_EDGE ( 'NONE', *, *, #161, .T. ) ;
#183 = CARTESIAN_POINT ( 'NONE',  ( 0.000000000000000000, 0.000000000000000000, 0.000000000000000000 ) ) ;
#184 = EDGE_LOOP ( 'NONE', ( #226, #222, #188, #7 ) ) ;
#185 = CIRCLE ( 'NONE', #60, 2.500000000000000000 ) ;
#186 = SURFACE_STYLE_USAGE ( .BOTH. , #75 ) ;
#187 = CARTESIAN_POINT ( 'NONE',  ( -7.000000000000000000, 8.572527594031473190E-16, -1.000000000000000000 ) ) ;
#188 = ORIENTED_EDGE ( 'NONE', *, *, #43, .T. ) ;
#189 =( LENGTH_UNIT ( ) NAMED_UNIT ( * ) SI_UNIT ( .MILLI., .METRE. ) );
#190 = LINE ( 'NONE', #145, #23 ) ;
#191 = DIRECTION ( 'NONE',  ( -1.000000000000000000, 0.000000000000000000, 0.000000000000000000 ) ) ;
#192 = CARTESIAN_POINT ( 'NONE',  ( -2.500000000000000000, 0.000000000000000000, 4.200000000000000178 ) ) ;
#193 = PRESENTATION_LAYER_ASSIGNMENT (  '', '', ( #235 ) ) ;
#194 = LINE ( 'NONE', #171, #144 ) ;
#195 = CYLINDRICAL_SURFACE ( 'NONE', #168, 2.500000000000000000 ) ;
#196 = LINE ( 'NONE', #107, #267 ) ;
#197 = CIRCLE ( 'NONE', #137, 7.000000000000000000 ) ;
#198 =( NAMED_UNIT ( * ) SI_UNIT ( $, .STERADIAN. ) SOLID_ANGLE_UNIT ( ) );
#199 = CLOSED_SHELL ( 'NONE', ( #154, #86, #3, #246, #115, #275, #68, #220, #90 ) ) ;
#200 = ORIENTED_EDGE ( 'NONE', *, *, #138, .F. ) ;
#201 = VERTEX_POINT ( 'NONE', #276 ) ;
#202 = APPLICATION_PROTOCOL_DEFINITION ( 'draft international standard', 'automotive_design', 1998, #26 ) ;
#203 = VERTEX_POINT ( 'NONE', #240 ) ;
#204 = ORIENTED_EDGE ( 'NONE', *, *, #27, .F. ) ;
#205 = CIRCLE ( 'NONE', #32, 7.000000000000000000 ) ;
#206 = VERTEX_POINT ( 'NONE', #83 ) ;
#207 = AXIS2_PLACEMENT_3D ( 'NONE', #100, #270, #272 ) ;
#208 = ORIENTED_EDGE ( 'NONE', *, *, #242, .T. ) ;
#209 = FACE_BOUND ( 'NONE', #33, .T. ) ;
#210 =( NAMED_UNIT ( * ) PLANE_ANGLE_UNIT ( ) SI_UNIT ( $, .RADIAN. ) );
#211 = CARTESIAN_POINT ( 'NONE',  ( -7.000000000000000000, 8.572527594031473190E-16, -1.000000000000000000 ) ) ;
#212 = CARTESIAN_POINT ( 'NONE',  ( 0.000000000000000000, 0.000000000000000000, 0.000000000000000000 ) ) ;
#213 = CARTESIAN_POINT ( 'NONE',  ( 0.000000000000000000, 0.000000000000000000, 4.200000000000000178 ) ) ;
#214 = EDGE_CURVE ( 'NONE', #53, #201, #126, .T. ) ;
#215 = DIRECTION ( 'NONE',  ( -1.000000000000000000, 0.000000000000000000, 0.000000000000000000 ) ) ;
#216 = CIRCLE ( 'NONE', #109, 3.000000000000000444 ) ;
#217 = CYLINDRICAL_SURFACE ( 'NONE', #173, 7.000000000000000000 ) ;
#218 = DIRECTION ( 'NONE',  ( 1.000000000000000000, 0.000000000000000000, 0.000000000000000000 ) ) ;
#219 = DIRECTION ( 'NONE',  ( -1.000000000000000000, 0.000000000000000000, 0.000000000000000000 ) ) ;
#220 = ADVANCED_FACE ( 'NONE', ( #234, #256 ), #155, .F. ) ;
#221 = ORIENTED_EDGE ( 'NONE', *, *, #123, .T. ) ;
#222 = ORIENTED_EDGE ( 'NONE', *, *, #138, .T. ) ;
#223 = SHAPE_DEFINITION_REPRESENTATION ( #28, #113 ) ;
#224 = CIRCLE ( 'NONE', #49, 2.500000000000000000 ) ;
#225 = PRODUCT_DEFINITION_CONTEXT ( 'detailed design', #26, 'design' ) ;
#226 = ORIENTED_EDGE ( 'NONE', *, *, #135, .F. ) ;
#227 = FILL_AREA_STYLE ('',( #162 ) ) ;
#228 = CARTESIAN_POINT ( 'NONE',  ( -2.500000000000000000, 0.000000000000000000, 4.200000000000000178 ) ) ;
#229 = EDGE_CURVE ( 'NONE', #134, #231, #38, .T. ) ;
#230 = SURFACE_STYLE_FILL_AREA ( #227 ) ;
#231 = VERTEX_POINT ( 'NONE', #34 ) ;
#232 = DIRECTION ( 'NONE',  ( 0.000000000000000000, 0.000000000000000000, 1.000000000000000000 ) ) ;
#233 = AXIS2_PLACEMENT_3D ( 'NONE', #81, #110, #191 ) ;
#234 = FACE_BOUND ( 'NONE', #140, .T. ) ;
#235 = STYLED_ITEM ( 'NONE', ( #251 ), #41 ) ;
#236 = FACE_OUTER_BOUND ( 'NONE', #263, .T. ) ;
#237 = CARTESIAN_POINT ( 'NONE',  ( 3.000000000000000444, 3.673940397442060361E-16, 0.000000000000000000 ) ) ;
#238 = CARTESIAN_POINT ( 'NONE',  ( 0.000000000000000000, 0.000000000000000000, -1.000000000000000000 ) ) ;
#239 = CARTESIAN_POINT ( 'NONE',  ( 0.000000000000000000, 0.000000000000000000, 4.200000000000000178 ) ) ;
#240 = CARTESIAN_POINT ( 'NONE',  ( 7.000000000000000000, 0.000000000000000000, 0.000000000000000000 ) ) ;
#241 = DIRECTION ( 'NONE',  ( 0.000000000000000000, 0.000000000000000000, -1.000000000000000000 ) ) ;
#242 = EDGE_CURVE ( 'NONE', #264, #101, #163, .T. ) ;
#243 = CIRCLE ( 'NONE', #258, 3.000000000000000444 ) ;
#244 = ORIENTED_EDGE ( 'NONE', *, *, #255, .F. ) ;
#245 = EDGE_LOOP ( 'NONE', ( #92, #117, #247, #73 ) ) ;
#246 = ADVANCED_FACE ( 'NONE', ( #104, #209 ), #260, .T. ) ;
#247 = ORIENTED_EDGE ( 'NONE', *, *, #46, .T. ) ;
#248 = EDGE_LOOP ( 'NONE', ( #52, #204 ) ) ;
#249 = EDGE_LOOP ( 'NONE', ( #182, #93, #116, #142 ) ) ;
#250 = DIRECTION ( 'NONE',  ( -1.000000000000000000, 0.000000000000000000, -0.000000000000000000 ) ) ;
#251 = PRESENTATION_STYLE_ASSIGNMENT (( #186 ) ) ;
#252 = DIRECTION ( 'NONE',  ( -0.000000000000000000, -0.000000000000000000, -1.000000000000000000 ) ) ;
#253 = DIRECTION ( 'NONE',  ( -1.000000000000000000, 0.000000000000000000, 0.000000000000000000 ) ) ;
#254 = VECTOR ( 'NONE', #31, 1000.000000000000000 ) ;
#255 = EDGE_CURVE ( 'NONE', #101, #264, #216, .T. ) ;
#256 = FACE_OUTER_BOUND ( 'NONE', #248, .T. ) ;
#257 = DIRECTION ( 'NONE',  ( 0.000000000000000000, 0.000000000000000000, 1.000000000000000000 ) ) ;
#258 = AXIS2_PLACEMENT_3D ( 'NONE', #212, #167, #39 ) ;
#259 = DIRECTION ( 'NONE',  ( 1.000000000000000000, 0.000000000000000000, 0.000000000000000000 ) ) ;
#260 = PLANE ( 'NONE',  #277 ) ;
#261 = ORIENTED_EDGE ( 'NONE', *, *, #229, .T. ) ;
#262 = ORIENTED_EDGE ( 'NONE', *, *, #214, .T. ) ;
#263 = EDGE_LOOP ( 'NONE', ( #9, #268, #221, #156 ) ) ;
#264 = VERTEX_POINT ( 'NONE', #56 ) ;
#265 = ORIENTED_EDGE ( 'NONE', *, *, #85, .F. ) ;
#266 = EDGE_CURVE ( 'NONE', #53, #157, #205, .T. ) ;
#267 = VECTOR ( 'NONE', #87, 1000.000000000000000 ) ;
#268 = ORIENTED_EDGE ( 'NONE', *, *, #54, .F. ) ;
#269 =( GEOMETRIC_REPRESENTATION_CONTEXT ( 3 ) GLOBAL_UNCERTAINTY_ASSIGNED_CONTEXT ( ( #132 ) ) GLOBAL_UNIT_ASSIGNED_CONTEXT ( ( #139, #210, #15 ) ) REPRESENTATION_CONTEXT ( 'NONE', 'WORKASPACE' ) );
#270 = DIRECTION ( 'NONE',  ( 0.000000000000000000, 0.000000000000000000, -1.000000000000000000 ) ) ;
#271 = CARTESIAN_POINT ( 'NONE',  ( 0.000000000000000000, 0.000000000000000000, 4.200000000000000178 ) ) ;
#272 = DIRECTION ( 'NONE',  ( -1.000000000000000000, 0.000000000000000000, 0.000000000000000000 ) ) ;
#273 = FACE_OUTER_BOUND ( 'NONE', #245, .T. ) ;
#274 = CARTESIAN_POINT ( 'NONE',  ( 7.000000000000000000, 0.000000000000000000, -1.000000000000000000 ) ) ;
#275 = ADVANCED_FACE ( 'NONE', ( #176 ), #195, .F. ) ;
#276 = CARTESIAN_POINT ( 'NONE',  ( -7.000000000000000000, 8.572527594031473190E-16, 0.000000000000000000 ) ) ;
#277 = AXIS2_PLACEMENT_3D ( 'NONE', #66, #232, #151 ) ;
#278 = COLOUR_RGB ( '',0.7921568627450980005, 0.8196078431372548767, 0.9333333333333333481 ) ;
#279 = DIRECTION ( 'NONE',  ( -0.000000000000000000, -0.000000000000000000, 1.000000000000000000 ) ) ;
ENDSEC;
END-ISO-10303-21;
