                                                                        S      1
1H,,1H;,,19HMag_Guide_Post.iges,                                        G      1
5HANSYS,22H  25.2      UP20250519,,,,,,,1.0,6,,,,13H000403.215622,      G      2
1.0000E-04,,,,9,,;                                                      G      3
     128       1       0       0       0       0       0       000010001D      1
     128       0       0      12       1       0       0 SURFACE       0D      2
     126      13       0       0       0       0       0       000010001D      3
     126       0       0       9       2       0       0B-SPLINE       0D      4
     126      22       0       0       0       0       0       000010001D      5
     126       0       0       9       2       0       0B-SPLINE       0D      6
     126      31       0       0       0       0       0       000010001D      7
     126       0       0       9       2       0       0B-SPLINE       0D      8
     126      40       0       0       0       0       0       000010001D      9
     126       0       0       9       2       0       0B-SPLINE       0D     10
     128      49       0       0       0       0       0       000010001D     11
     128       0       0      12       1       0       0 SURFACE       0D     12
     126      61       0       0       0       0       0       000010001D     13
     126       0       0       9       2       0       0B-SPLINE       0D     14
     126      70       0       0       0       0       0       000010001D     15
     126       0       0       9       2       0       0B-SPLINE       0D     16
     126      79       0       0       0       0       0       000010001D     17
     126       0       0       9       2       0       0B-SPLINE       0D     18
     126      88       0       0       0       0       0       000010001D     19
     126       0       0       9       2       0       0B-SPLINE       0D     20
     128      97       0       0       0       0       0       000010001D     21
     128       0       0      18       2       0       0 SURFACE       0D     22
     126     115       0       0       0       0       0       000010001D     23
     126       0       0       7       1       0       0B-SPLINE       0D     24
     126     122       0       0       0       0       0       000010001D     25
     126       0       0       7       1       0       0B-SPLINE       0D     26
     128     129       0       0       0       0       0       000010001D     27
     128       0       0      18       2       0       0 SURFACE       0D     28
     502     147       0       0       0       0       0       000010001D     29
     502       0       0       9       1       0       0  VERTEX       0D     30
     504     156       0       0       0       0       0       000010001D     31
     504       0       0      10       1       0       0    EDGE       0D     32
     508     166       0       0       0       0       0       000010001D     33
     508       0       0       4       1       0       0    LOOP       0D     34
     510     170       0       0       0       0       0       000010001D     35
     510       0       0       1       1       0       0    FACE       0D     36
     508     171       0       0       0       0       0       000010001D     37
     508       0       0       4       1       0       0    LOOP       0D     38
     510     175       0       0       0       0       0       000010001D     39
     510       0       0       1       1       0       0    FACE       0D     40
     508     176       0       0       0       0       0       000010001D     41
     508       0       0       6       1       0       0    LOOP       0D     42
     510     182       0       0       0       0       0       000010001D     43
     510       0       0       1       1       0       0    FACE       0D     44
     508     183       0       0       0       0       0       000010001D     45
     508       0       0       6       1       0       0    LOOP       0D     46
     510     189       0       0       0       0       0       000010001D     47
     510       0       0       1       1       0       0    FACE       0D     48
     514     190       0       0       0       0       0       000010001D     49
     514       0       0       1       1       0       0   SHELL       0D     50
     186     191       0       0       0       0       0       000000001D     51
     186       0       0       1       0       0       0   B-REP       0D     52
128,1,1,1,1,0,0,                                                       1P      1
1,0,0,                                                                 1P      2
0.00000000000,0.00000000000,1.00000000000,                             1P      3
1.00000000000,0.00000000000,0.00000000000,                             1P      4
1.00000000000,1.00000000000,1.00000000000,                             1P      5
1.00000000000,1.00000000000,1.00000000000,                             1P      6
-0.222224721846,0.222224721846,0.00000000000,                          1P      7
0.222224721846,0.222224721846,0.00000000000,                           1P      8
-0.222224721846,-0.222224721846,0.00000000000,                         1P      9
0.222224721846,-0.222224721846,0.00000000000,                          1P     10
0.00000000000,1.00000000000,0.00000000000,                             1P     11
1.00000000000,0,0,0;                                                   1P     12
126,2,2,0,0,0,0,                                                       3P     13
0.00000000000,0.00000000000,0.00000000000,                             3P     14
1.00000000000,1.00000000000,1.00000000000,                             3P     15
0.500000000000,0.500000000000,1.00000000000,                           3P     16
-0.138777878078E-16,-0.157480314961,0.00000000000,                     3P     17
0.157480314961,-0.157480314961,0.00000000000,                          3P     18
0.157480314961,0.00000000000,0.00000000000,                            3P     19
0.00000000000,1.00000000000,0.00000000000,                             3P     20
0.00000000000,0.00000000000,0,0,0;                                     3P     21
126,2,2,0,0,0,0,                                                       5P     22
0.00000000000,0.00000000000,0.00000000000,                             5P     23
1.00000000000,1.00000000000,1.00000000000,                             5P     24
1.00000000000,0.500000000000,0.500000000000,                           5P     25
-0.157480314961,0.192857763645E-16,0.00000000000,                      5P     26
-0.157480314961,-0.157480314961,0.00000000000,                         5P     27
-0.138777878078E-16,-0.157480314961,0.00000000000,                     5P     28
0.00000000000,1.00000000000,0.00000000000,                             5P     29
0.00000000000,0.00000000000,0,0,0;                                     5P     30
126,2,2,0,0,0,0,                                                       7P     31
0.00000000000,0.00000000000,0.00000000000,                             7P     32
1.00000000000,1.00000000000,1.00000000000,                             7P     33
0.500000000000,0.500000000000,1.00000000000,                           7P     34
0.138777878078E-16,0.157480314961,0.00000000000,                       7P     35
-0.157480314961,0.157480314961,0.00000000000,                          7P     36
-0.157480314961,0.192857763645E-16,0.00000000000,                      7P     37
0.00000000000,1.00000000000,0.00000000000,                             7P     38
0.00000000000,0.00000000000,0,0,0;                                     7P     39
126,2,2,0,0,0,0,                                                       9P     40
0.00000000000,0.00000000000,0.00000000000,                             9P     41
1.00000000000,1.00000000000,1.00000000000,                             9P     42
1.00000000000,0.500000000000,0.500000000000,                           9P     43
0.157480314961,0.00000000000,0.00000000000,                            9P     44
0.157480314961,0.157480314961,0.00000000000,                           9P     45
0.138777878078E-16,0.157480314961,0.00000000000,                       9P     46
0.00000000000,1.00000000000,0.00000000000,                             9P     47
0.00000000000,0.00000000000,0,0,0;                                     9P     48
128,1,1,1,1,0,0,                                                      11P     49
1,0,0,                                                                11P     50
0.00000000000,0.00000000000,1.00000000000,                            11P     51
1.00000000000,0.00000000000,0.00000000000,                            11P     52
1.00000000000,1.00000000000,1.00000000000,                            11P     53
1.00000000000,1.00000000000,1.00000000000,                            11P     54
-0.222224721846,-0.222224721846,1.81102362205,                        11P     55
0.222224721846,-0.222224721846,1.81102362205,                         11P     56
-0.222224721846,0.222224721846,1.81102362205,                         11P     57
0.222224721846,0.222224721846,1.81102362205,                          11P     58
0.00000000000,1.00000000000,0.00000000000,                            11P     59
1.00000000000,0,0,0;                                                  11P     60
126,2,2,0,0,0,0,                                                      13P     61
0.00000000000,0.00000000000,0.00000000000,                            13P     62
1.00000000000,1.00000000000,1.00000000000,                            13P     63
1.00000000000,0.500000000000,0.500000000000,                          13P     64
0.157480314961,0.00000000000,1.81102362205,                           13P     65
0.157480314961,0.157480314961,1.81102362205,                          13P     66
0.138777878078E-16,0.157480314961,1.81102362205,                      13P     67
0.00000000000,1.00000000000,0.00000000000,                            13P     68
0.00000000000,0.00000000000,0,0,0;                                    13P     69
126,2,2,0,0,0,0,                                                      15P     70
0.00000000000,0.00000000000,0.00000000000,                            15P     71
1.00000000000,1.00000000000,1.00000000000,                            15P     72
0.500000000000,0.500000000000,1.00000000000,                          15P     73
0.138777878078E-16,0.157480314961,1.81102362205,                      15P     74
-0.157480314961,0.157480314961,1.81102362205,                         15P     75
-0.157480314961,0.192857763645E-16,1.81102362205,                     15P     76
0.00000000000,1.00000000000,0.00000000000,                            15P     77
0.00000000000,0.00000000000,0,0,0;                                    15P     78
126,2,2,0,0,0,0,                                                      17P     79
0.00000000000,0.00000000000,0.00000000000,                            17P     80
1.00000000000,1.00000000000,1.00000000000,                            17P     81
1.00000000000,0.500000000000,0.500000000000,                          17P     82
-0.157480314961,0.192857763645E-16,1.81102362205,                     17P     83
-0.157480314961,-0.157480314961,1.81102362205,                        17P     84
-0.138777878078E-16,-0.157480314961,1.81102362205,                    17P     85
0.00000000000,1.00000000000,0.00000000000,                            17P     86
0.00000000000,0.00000000000,0,0,0;                                    17P     87
126,2,2,0,0,0,0,                                                      19P     88
0.00000000000,0.00000000000,0.00000000000,                            19P     89
1.00000000000,1.00000000000,1.00000000000,                            19P     90
0.500000000000,0.500000000000,1.00000000000,                          19P     91
-0.138777878078E-16,-0.157480314961,1.81102362205,                    19P     92
0.157480314961,-0.157480314961,1.81102362205,                         19P     93
0.157480314961,0.00000000000,1.81102362205,                           19P     94
0.00000000000,1.00000000000,0.00000000000,                            19P     95
0.00000000000,0.00000000000,0,0,0;                                    19P     96
128,3,1,2,1,0,0,                                                      21P     97
0,0,0,                                                                21P     98
0.00000000000,0.00000000000,0.00000000000,                            21P     99
0.500000000000,1.00000000000,1.00000000000,                           21P    100
1.00000000000,0.00000000000,0.00000000000,                            21P    101
1.00000000000,1.00000000000,1.00000000000,                            21P    102
0.500000000000,0.500000000000,1.00000000000,                          21P    103
1.00000000000,0.500000000000,0.500000000000,                          21P    104
1.00000000000,0.157480314961,0.00000000000,                           21P    105
0.00000000000,0.157480314961,0.157480314961,                          21P    106
0.00000000000,-0.157480314961,0.157480314961,                         21P    107
0.00000000000,-0.157480314961,0.192857763645E-16,                     21P    108
0.00000000000,0.157480314961,0.00000000000,                           21P    109
1.81102362205,0.157480314961,0.157480314961,                          21P    110
1.81102362205,-0.157480314961,0.157480314961,                         21P    111
1.81102362205,-0.157480314961,0.192857763645E-16,                     21P    112
1.81102362205,0.00000000000,1.00000000000,                            21P    113
0.00000000000,1.00000000000,0,0,0;                                    21P    114
126,1,1,0,0,0,0,                                                      23P    115
0.00000000000,0.00000000000,1.00000000000,                            23P    116
1.00000000000,1.00000000000,1.00000000000,                            23P    117
-0.157480314961,0.192857763645E-16,0.00000000000,                     23P    118
-0.157480314961,0.192857763645E-16,1.81102362205,                     23P    119
0.00000000000,1.00000000000,0.00000000000,                            23P    120
0.00000000000,0.00000000000,0,0,0;                                    23P    121
126,1,1,0,0,0,0,                                                      25P    122
0.00000000000,0.00000000000,1.00000000000,                            25P    123
1.00000000000,1.00000000000,1.00000000000,                            25P    124
0.157480314961,0.00000000000,0.00000000000,                           25P    125
0.157480314961,0.00000000000,1.81102362205,                           25P    126
0.00000000000,1.00000000000,0.00000000000,                            25P    127
0.00000000000,0.00000000000,0,0,0;                                    25P    128
128,3,1,2,1,0,0,                                                      27P    129
0,0,0,                                                                27P    130
0.00000000000,0.00000000000,0.00000000000,                            27P    131
0.500000000000,1.00000000000,1.00000000000,                           27P    132
1.00000000000,0.00000000000,0.00000000000,                            27P    133
1.00000000000,1.00000000000,1.00000000000,                            27P    134
0.500000000000,0.500000000000,1.00000000000,                          27P    135
1.00000000000,0.500000000000,0.500000000000,                          27P    136
1.00000000000,-0.157480314961,0.192857763645E-16,                     27P    137
0.00000000000,-0.157480314961,-0.157480314961,                        27P    138
0.00000000000,0.157480314961,-0.157480314961,                         27P    139
0.00000000000,0.157480314961,0.00000000000,                           27P    140
0.00000000000,-0.157480314961,0.192857763645E-16,                     27P    141
1.81102362205,-0.157480314961,-0.157480314961,                        27P    142
1.81102362205,0.157480314961,-0.157480314961,                         27P    143
1.81102362205,0.157480314961,0.00000000000,                           27P    144
1.81102362205,0.00000000000,1.00000000000,                            27P    145
0.00000000000,1.00000000000,0,0,0;                                    27P    146
502,8,0.157480314961,0.00000000000,                                   29P    147
0.00000000000,-0.138777878078E-16,-0.157480314961,                    29P    148
0.00000000000,-0.157480314961,0.192857763645E-16,                     29P    149
0.00000000000,0.138777878078E-16,0.157480314961,                      29P    150
0.00000000000,0.157480314961,0.00000000000,                           29P    151
1.81102362205,0.138777878078E-16,0.157480314961,                      29P    152
1.81102362205,-0.157480314961,0.192857763645E-16,                     29P    153
1.81102362205,-0.138777878078E-16,-0.157480314961,                    29P    154
1.81102362205,0,0;                                                    29P    155
504,10,3,29,1,29,2,                                                   31P    156
5,29,2,29,3,                                                          31P    157
7,29,3,29,4,                                                          31P    158
9,29,4,29,1,                                                          31P    159
13,29,5,29,6,                                                         31P    160
15,29,6,29,7,                                                         31P    161
17,29,7,29,8,                                                         31P    162
19,29,8,29,5,                                                         31P    163
23,29,3,29,7,                                                         31P    164
25,29,5,29,1;                                                         31P    165
508,4,0,31,1,0,0,                                                     33P    166
0,31,2,0,0,                                                           33P    167
0,31,3,0,0,                                                           33P    168
0,31,4,0,0;                                                           33P    169
510,1,1,1,33,0,0;                                                     35P    170
508,4,0,31,5,1,0,                                                     37P    171
0,31,6,1,0,                                                           37P    172
0,31,7,1,0,                                                           37P    173
0,31,8,1,0;                                                           37P    174
510,11,1,1,37,0,0;                                                    39P    175
508,6,0,31,4,1,0,                                                     41P    176
0,31,3,1,0,                                                           41P    177
0,31,9,1,0,                                                           41P    178
0,31,6,0,0,                                                           41P    179
0,31,5,0,0,                                                           41P    180
0,31,10,0,0;                                                          41P    181
510,21,1,1,41,0,0;                                                    43P    182
508,6,0,31,2,1,0,                                                     45P    183
0,31,1,1,0,                                                           45P    184
0,31,10,1,0,                                                          45P    185
0,31,8,0,0,                                                           45P    186
0,31,7,0,0,                                                           45P    187
0,31,9,0,0;                                                           45P    188
510,27,1,1,45,0,0;                                                    47P    189
514,4,35,1,39,1,43,1,47,1;                                            49P    190
186,49,1,0,0,0,0;                                                     51P    191
S      1G      3D     52P    191                                        T      1
