                                                                        S      1
1H,,1H;,,22HPole_Block_Bottom.iges,                                     G      1
5HANSYS,22H  25.2      UP20250519,,,,,,,1.0,6,,,,13H000403.213548,      G      2
1.0000E-04,,,,9,,;                                                      G      3
     128       1       0       0       0       0       0       000010001D      1
     128       0       0      12       1       0       0 SURFACE       0D      2
     126      13       0       0       0       0       0       000010001D      3
     126       0       0       7       1       0       0B-SPLINE       0D      4
     126      20       0       0       0       0       0       000010001D      5
     126       0       0       7       1       0       0B-SPLINE       0D      6
     126      27       0       0       0       0       0       000010001D      7
     126       0       0       7       1       0       0B-SPLINE       0D      8
     126      34       0       0       0       0       0       000010001D      9
     126       0       0       7       1       0       0B-SPLINE       0D     10
     128      41       0       0       0       0       0       000010001D     11
     128       0       0      12       1       0       0 SURFACE       0D     12
     126      53       0       0       0       0       0       000010001D     13
     126       0       0       7       1       0       0B-SPLINE       0D     14
     126      60       0       0       0       0       0       000010001D     15
     126       0       0       7       1       0       0B-SPLINE       0D     16
     126      67       0       0       0       0       0       000010001D     17
     126       0       0       7       1       0       0B-SPLINE       0D     18
     126      74       0       0       0       0       0       000010001D     19
     126       0       0       7       1       0       0B-SPLINE       0D     20
     128      81       0       0       0       0       0       000010001D     21
     128       0       0      12       1       0       0 SURFACE       0D     22
     126      93       0       0       0       0       0       000010001D     23
     126       0       0       7       1       0       0B-SPLINE       0D     24
     126     100       0       0       0       0       0       000010001D     25
     126       0       0       7       1       0       0B-SPLINE       0D     26
     126     107       0       0       0       0       0       000010001D     27
     126       0       0       7       1       0       0B-SPLINE       0D     28
     126     114       0       0       0       0       0       000010001D     29
     126       0       0       7       1       0       0B-SPLINE       0D     30
     128     121       0       0       0       0       0       000010001D     31
     128       0       0      12       1       0       0 SURFACE       0D     32
     126     133       0       0       0       0       0       000010001D     33
     126       0       0       7       1       0       0B-SPLINE       0D     34
     126     140       0       0       0       0       0       000010001D     35
     126       0       0       7       1       0       0B-SPLINE       0D     36
     126     147       0       0       0       0       0       000010001D     37
     126       0       0       7       1       0       0B-SPLINE       0D     38
     126     154       0       0       0       0       0       000010001D     39
     126       0       0       7       1       0       0B-SPLINE       0D     40
     128     161       0       0       0       0       0       000010001D     41
     128       0       0      12       1       0       0 SURFACE       0D     42
     128     173       0       0       0       0       0       000010001D     43
     128       0       0      12       1       0       0 SURFACE       0D     44
     126     185       0       0       0       0       0       000010001D     45
     126       0       0       7       1       0       0B-SPLINE       0D     46
     128     192       0       0       0       0       0       000010001D     47
     128       0       0      12       1       0       0 SURFACE       0D     48
     126     204       0       0       0       0       0       000010001D     49
     126       0       0       7       1       0       0B-SPLINE       0D     50
     128     211       0       0       0       0       0       000010001D     51
     128       0       0      12       1       0       0 SURFACE       0D     52
     126     223       0       0       0       0       0       000010001D     53
     126       0       0       7       1       0       0B-SPLINE       0D     54
     126     230       0       0       0       0       0       000010001D     55
     126       0       0       7       1       0       0B-SPLINE       0D     56
     126     237       0       0       0       0       0       000010001D     57
     126       0       0       7       1       0       0B-SPLINE       0D     58
     128     244       0       0       0       0       0       000010001D     59
     128       0       0      12       1       0       0 SURFACE       0D     60
     126     256       0       0       0       0       0       000010001D     61
     126       0       0       7       1       0       0B-SPLINE       0D     62
     126     263       0       0       0       0       0       000010001D     63
     126       0       0       7       1       0       0B-SPLINE       0D     64
     126     270       0       0       0       0       0       000010001D     65
     126       0       0       7       1       0       0B-SPLINE       0D     66
     128     277       0       0       0       0       0       000010001D     67
     128       0       0      12       1       0       0 SURFACE       0D     68
     126     289       0       0       0       0       0       000010001D     69
     126       0       0       7       1       0       0B-SPLINE       0D     70
     128     296       0       0       0       0       0       000010001D     71
     128       0       0      12       1       0       0 SURFACE       0D     72
     126     308       0       0       0       0       0       000010001D     73
     126       0       0       7       1       0       0B-SPLINE       0D     74
     128     315       0       0       0       0       0       000010001D     75
     128       0       0      12       1       0       0 SURFACE       0D     76
     502     327       0       0       0       0       0       000010001D     77
     502       0       0      17       1       0       0  VERTEX       0D     78
     504     344       0       0       0       0       0       000010001D     79
     504       0       0      26       1       0       0    EDGE       0D     80
     508     370       0       0       0       0       0       000010001D     81
     508       0       0       4       1       0       0    LOOP       0D     82
     510     374       0       0       0       0       0       000010001D     83
     510       0       0       1       1       0       0    FACE       0D     84
     508     375       0       0       0       0       0       000010001D     85
     508       0       0       4       1       0       0    LOOP       0D     86
     510     379       0       0       0       0       0       000010001D     87
     510       0       0       1       1       0       0    FACE       0D     88
     508     380       0       0       0       0       0       000010001D     89
     508       0       0       6       1       0       0    LOOP       0D     90
     510     386       0       0       0       0       0       000010001D     91
     510       0       0       1       1       0       0    FACE       0D     92
     508     387       0       0       0       0       0       000010001D     93
     508       0       0       6       1       0       0    LOOP       0D     94
     510     393       0       0       0       0       0       000010001D     95
     510       0       0       1       1       0       0    FACE       0D     96
     508     394       0       0       0       0       0       000010001D     97
     508       0       0       4       1       0       0    LOOP       0D     98
     510     398       0       0       0       0       0       000010001D     99
     510       0       0       1       1       0       0    FACE       0D    100
     508     399       0       0       0       0       0       000010001D    101
     508       0       0       4       1       0       0    LOOP       0D    102
     510     403       0       0       0       0       0       000010001D    103
     510       0       0       1       1       0       0    FACE       0D    104
     508     404       0       0       0       0       0       000010001D    105
     508       0       0       4       1       0       0    LOOP       0D    106
     510     408       0       0       0       0       0       000010001D    107
     510       0       0       1       1       0       0    FACE       0D    108
     508     409       0       0       0       0       0       000010001D    109
     508       0       0       4       1       0       0    LOOP       0D    110
     510     413       0       0       0       0       0       000010001D    111
     510       0       0       1       1       0       0    FACE       0D    112
     508     414       0       0       0       0       0       000010001D    113
     508       0       0       4       1       0       0    LOOP       0D    114
     510     418       0       0       0       0       0       000010001D    115
     510       0       0       1       1       0       0    FACE       0D    116
     508     419       0       0       0       0       0       000010001D    117
     508       0       0       4       1       0       0    LOOP       0D    118
     510     423       0       0       0       0       0       000010001D    119
     510       0       0       1       1       0       0    FACE       0D    120
     508     424       0       0       0       0       0       000010001D    121
     508       0       0       4       1       0       0    LOOP       0D    122
     510     428       0       0       0       0       0       000010001D    123
     510       0       0       1       1       0       0    FACE       0D    124
     508     429       0       0       0       0       0       000010001D    125
     508       0       0       4       1       0       0    LOOP       0D    126
     510     433       0       0       0       0       0       000010001D    127
     510       0       0       1       1       0       0    FACE       0D    128
     514     434       0       0       0       0       0       000010001D    129
     514       0       0       3       1       0       0   SHELL       0D    130
     186     437       0       0       0       0       0       000000001D    131
     186       0       0       1       0       0       0   B-REP       0D    132
128,1,1,1,1,0,0,                                                       1P      1
1,0,0,                                                                 1P      2
0.00000000000,0.00000000000,1.00000000000,                             1P      3
1.00000000000,0.00000000000,0.00000000000,                             1P      4
1.00000000000,1.00000000000,1.00000000000,                             1P      5
1.00000000000,1.00000000000,1.00000000000,                             1P      6
0.787401574803E-01,-0.433070866142,0.393700787402,                     1P      7
0.787401574803E-01,0.433070866142,0.393700787402,                      1P      8
0.787401574803E-01,-0.433070866142,0.00000000000,                      1P      9
0.787401574803E-01,0.433070866142,0.00000000000,                       1P     10
0.00000000000,1.00000000000,0.00000000000,                             1P     11
1.00000000000,0,0,0;                                                   1P     12
126,1,1,0,0,1,0,                                                       3P     13
0.00000000000,0.00000000000,1.00000000000,                             3P     14
1.00000000000,1.00000000000,1.00000000000,                             3P     15
0.787401574803E-01,-0.196850393701,0.00000000000,                      3P     16
0.787401574803E-01,-0.433070866142,0.00000000000,                      3P     17
0.00000000000,1.00000000000,0.00000000000,                             3P     18
0.00000000000,0.00000000000,0,0,0;                                     3P     19
126,1,1,0,0,1,0,                                                       5P     20
0.00000000000,0.00000000000,1.00000000000,                             5P     21
1.00000000000,1.00000000000,1.00000000000,                             5P     22
0.787401574803E-01,-0.433070866142,0.393700787402,                     5P     23
0.787401574803E-01,-0.433070866142,0.00000000000,                      5P     24
0.00000000000,1.00000000000,0.00000000000,                             5P     25
0.00000000000,0.00000000000,0,0,0;                                     5P     26
126,1,1,0,0,1,0,                                                       7P     27
0.00000000000,0.00000000000,1.00000000000,                             7P     28
1.00000000000,1.00000000000,1.00000000000,                             7P     29
0.787401574803E-01,-0.196850393701,0.393700787402,                     7P     30
0.787401574803E-01,-0.433070866142,0.393700787402,                     7P     31
0.00000000000,1.00000000000,0.00000000000,                             7P     32
0.00000000000,0.00000000000,0,0,0;                                     7P     33
126,1,1,0,0,1,0,                                                       9P     34
0.00000000000,0.00000000000,1.00000000000,                             9P     35
1.00000000000,1.00000000000,1.00000000000,                             9P     36
0.787401574803E-01,-0.196850393701,0.00000000000,                      9P     37
0.787401574803E-01,-0.196850393701,0.393700787402,                     9P     38
0.00000000000,1.00000000000,0.00000000000,                             9P     39
0.00000000000,0.00000000000,0,0,0;                                     9P     40
128,1,1,1,1,0,0,                                                      11P     41
1,0,0,                                                                11P     42
0.00000000000,0.00000000000,1.00000000000,                            11P     43
1.00000000000,0.00000000000,0.00000000000,                            11P     44
1.00000000000,1.00000000000,1.00000000000,                            11P     45
1.00000000000,1.00000000000,1.00000000000,                            11P     46
0.354330708661,-0.433070866142,0.393700787402,                        11P     47
0.354330708661,-0.433070866142,0.00000000000,                         11P     48
0.354330708661,0.433070866142,0.393700787402,                         11P     49
0.354330708661,0.433070866142,0.00000000000,                          11P     50
0.00000000000,1.00000000000,0.00000000000,                            11P     51
1.00000000000,0,0,0;                                                  11P     52
126,1,1,0,0,1,0,                                                      13P     53
0.00000000000,0.00000000000,1.00000000000,                            13P     54
1.00000000000,1.00000000000,1.00000000000,                            13P     55
0.354330708661,-0.433070866142,0.00000000000,                         13P     56
0.354330708661,-0.433070866142,0.393700787402,                        13P     57
0.00000000000,1.00000000000,0.00000000000,                            13P     58
0.00000000000,0.00000000000,0,0,0;                                    13P     59
126,1,1,0,0,1,0,                                                      15P     60
0.00000000000,0.00000000000,1.00000000000,                            15P     61
1.00000000000,1.00000000000,1.00000000000,                            15P     62
0.354330708661,-0.433070866142,0.00000000000,                         15P     63
0.354330708661,0.433070866142,0.00000000000,                          15P     64
0.00000000000,1.00000000000,0.00000000000,                            15P     65
0.00000000000,0.00000000000,0,0,0;                                    15P     66
126,1,1,0,0,1,0,                                                      17P     67
0.00000000000,0.00000000000,1.00000000000,                            17P     68
1.00000000000,1.00000000000,1.00000000000,                            17P     69
0.354330708661,0.433070866142,0.00000000000,                          17P     70
0.354330708661,0.433070866142,0.393700787402,                         17P     71
0.00000000000,1.00000000000,0.00000000000,                            17P     72
0.00000000000,0.00000000000,0,0,0;                                    17P     73
126,1,1,0,0,1,0,                                                      19P     74
0.00000000000,0.00000000000,1.00000000000,                            19P     75
1.00000000000,1.00000000000,1.00000000000,                            19P     76
0.354330708661,-0.433070866142,0.393700787402,                        19P     77
0.354330708661,0.433070866142,0.393700787402,                         19P     78
0.00000000000,1.00000000000,0.00000000000,                            19P     79
0.00000000000,0.00000000000,0,0,0;                                    19P     80
128,1,1,1,1,0,0,                                                      21P     81
1,0,0,                                                                21P     82
0.00000000000,0.00000000000,1.00000000000,                            21P     83
1.00000000000,0.00000000000,0.00000000000,                            21P     84
1.00000000000,1.00000000000,1.00000000000,                            21P     85
1.00000000000,1.00000000000,1.00000000000,                            21P     86
0.787401574803E-01,-0.433070866142,0.00000000000,                     21P     87
0.787401574803E-01,0.433070866142,0.00000000000,                      21P     88
0.354330708661,-0.433070866142,0.00000000000,                         21P     89
0.354330708661,0.433070866142,0.00000000000,                          21P     90
0.00000000000,1.00000000000,0.00000000000,                            21P     91
1.00000000000,0,0,0;                                                  21P     92
126,1,1,0,0,1,0,                                                      23P     93
0.00000000000,0.00000000000,1.00000000000,                            23P     94
1.00000000000,1.00000000000,1.00000000000,                            23P     95
0.787401574803E-01,0.433070866142,0.00000000000,                      23P     96
0.787401574803E-01,0.196850393701,0.00000000000,                      23P     97
0.00000000000,1.00000000000,0.00000000000,                            23P     98
0.00000000000,0.00000000000,0,0,0;                                    23P     99
126,1,1,0,0,1,0,                                                      25P    100
0.00000000000,0.00000000000,1.00000000000,                            25P    101
1.00000000000,1.00000000000,1.00000000000,                            25P    102
0.354330708661,0.433070866142,0.00000000000,                          25P    103
0.787401574803E-01,0.433070866142,0.00000000000,                      25P    104
0.00000000000,1.00000000000,0.00000000000,                            25P    105
0.00000000000,0.00000000000,0,0,0;                                    25P    106
126,1,1,0,0,1,0,                                                      27P    107
0.00000000000,0.00000000000,1.00000000000,                            27P    108
1.00000000000,1.00000000000,1.00000000000,                            27P    109
0.787401574803E-01,-0.433070866142,0.00000000000,                     27P    110
0.354330708661,-0.433070866142,0.00000000000,                         27P    111
0.00000000000,1.00000000000,0.00000000000,                            27P    112
0.00000000000,0.00000000000,0,0,0;                                    27P    113
126,1,1,0,0,1,0,                                                      29P    114
0.00000000000,0.00000000000,1.00000000000,                            29P    115
1.00000000000,1.00000000000,1.00000000000,                            29P    116
0.787401574803E-01,-0.196850393701,0.00000000000,                     29P    117
0.787401574803E-01,0.196850393701,0.00000000000,                      29P    118
0.00000000000,1.00000000000,0.00000000000,                            29P    119
0.00000000000,0.00000000000,0,0,0;                                    29P    120
128,1,1,1,1,0,0,                                                      31P    121
1,0,0,                                                                31P    122
0.00000000000,0.00000000000,1.00000000000,                            31P    123
1.00000000000,0.00000000000,0.00000000000,                            31P    124
1.00000000000,1.00000000000,1.00000000000,                            31P    125
1.00000000000,1.00000000000,1.00000000000,                            31P    126
0.787401574803E-01,-0.433070866142,0.393700787402,                    31P    127
0.354330708661,-0.433070866142,0.393700787402,                        31P    128
0.787401574803E-01,0.433070866142,0.393700787402,                     31P    129
0.354330708661,0.433070866142,0.393700787402,                         31P    130
0.00000000000,1.00000000000,0.00000000000,                            31P    131
1.00000000000,0,0,0;                                                  31P    132
126,1,1,0,0,1,0,                                                      33P    133
0.00000000000,0.00000000000,1.00000000000,                            33P    134
1.00000000000,1.00000000000,1.00000000000,                            33P    135
0.787401574803E-01,-0.433070866142,0.393700787402,                    33P    136
0.354330708661,-0.433070866142,0.393700787402,                        33P    137
0.00000000000,1.00000000000,0.00000000000,                            33P    138
0.00000000000,0.00000000000,0,0,0;                                    33P    139
126,1,1,0,0,1,0,                                                      35P    140
0.00000000000,0.00000000000,1.00000000000,                            35P    141
1.00000000000,1.00000000000,1.00000000000,                            35P    142
0.354330708661,0.433070866142,0.393700787402,                         35P    143
0.787401574803E-01,0.433070866142,0.393700787402,                     35P    144
0.00000000000,1.00000000000,0.00000000000,                            35P    145
0.00000000000,0.00000000000,0,0,0;                                    35P    146
126,1,1,0,0,1,0,                                                      37P    147
0.00000000000,0.00000000000,1.00000000000,                            37P    148
1.00000000000,1.00000000000,1.00000000000,                            37P    149
0.787401574803E-01,0.433070866142,0.393700787402,                     37P    150
0.787401574803E-01,0.196850393701,0.393700787402,                     37P    151
0.00000000000,1.00000000000,0.00000000000,                            37P    152
0.00000000000,0.00000000000,0,0,0;                                    37P    153
126,1,1,0,0,1,0,                                                      39P    154
0.00000000000,0.00000000000,1.00000000000,                            39P    155
1.00000000000,1.00000000000,1.00000000000,                            39P    156
0.787401574803E-01,-0.196850393701,0.393700787402,                    39P    157
0.787401574803E-01,0.196850393701,0.393700787402,                     39P    158
0.00000000000,1.00000000000,0.00000000000,                            39P    159
0.00000000000,0.00000000000,0,0,0;                                    39P    160
128,1,1,1,1,0,0,                                                      41P    161
1,0,0,                                                                41P    162
0.00000000000,0.00000000000,1.00000000000,                            41P    163
1.00000000000,0.00000000000,0.00000000000,                            41P    164
1.00000000000,1.00000000000,1.00000000000,                            41P    165
1.00000000000,1.00000000000,1.00000000000,                            41P    166
0.787401574803E-01,-0.433070866142,0.393700787402,                    41P    167
0.787401574803E-01,-0.433070866142,0.00000000000,                     41P    168
0.354330708661,-0.433070866142,0.393700787402,                        41P    169
0.354330708661,-0.433070866142,0.00000000000,                         41P    170
0.00000000000,1.00000000000,0.00000000000,                            41P    171
1.00000000000,0,0,0;                                                  41P    172
128,1,1,1,1,0,0,                                                      43P    173
1,0,0,                                                                43P    174
0.00000000000,0.00000000000,1.00000000000,                            43P    175
1.00000000000,0.00000000000,0.00000000000,                            43P    176
1.00000000000,1.00000000000,1.00000000000,                            43P    177
1.00000000000,1.00000000000,1.00000000000,                            43P    178
0.787401574803E-01,0.433070866142,0.393700787402,                     43P    179
0.354330708661,0.433070866142,0.393700787402,                         43P    180
0.787401574803E-01,0.433070866142,0.00000000000,                      43P    181
0.354330708661,0.433070866142,0.00000000000,                          43P    182
0.00000000000,1.00000000000,0.00000000000,                            43P    183
1.00000000000,0,0,0;                                                  43P    184
126,1,1,0,0,1,0,                                                      45P    185
0.00000000000,0.00000000000,1.00000000000,                            45P    186
1.00000000000,1.00000000000,1.00000000000,                            45P    187
0.787401574803E-01,0.433070866142,0.393700787402,                     45P    188
0.787401574803E-01,0.433070866142,0.00000000000,                      45P    189
0.00000000000,1.00000000000,0.00000000000,                            45P    190
0.00000000000,0.00000000000,0,0,0;                                    45P    191
128,1,1,1,1,0,0,                                                      47P    192
1,0,0,                                                                47P    193
0.00000000000,0.00000000000,1.00000000000,                            47P    194
1.00000000000,0.00000000000,0.00000000000,                            47P    195
1.00000000000,1.00000000000,1.00000000000,                            47P    196
1.00000000000,1.00000000000,1.00000000000,                            47P    197
0.787401574803E-01,-0.433070866142,0.393700787402,                    47P    198
0.787401574803E-01,0.433070866142,0.393700787402,                     47P    199
0.787401574803E-01,-0.433070866142,0.00000000000,                     47P    200
0.787401574803E-01,0.433070866142,0.00000000000,                      47P    201
0.00000000000,1.00000000000,0.00000000000,                            47P    202
1.00000000000,0,0,0;                                                  47P    203
126,1,1,0,0,1,0,                                                      49P    204
0.00000000000,0.00000000000,1.00000000000,                            49P    205
1.00000000000,1.00000000000,1.00000000000,                            49P    206
0.787401574803E-01,0.196850393701,0.00000000000,                      49P    207
0.787401574803E-01,0.196850393701,0.393700787402,                     49P    208
0.00000000000,1.00000000000,0.00000000000,                            49P    209
0.00000000000,0.00000000000,0,0,0;                                    49P    210
128,1,1,1,1,0,0,                                                      51P    211
1,0,0,                                                                51P    212
0.00000000000,0.00000000000,1.00000000000,                            51P    213
1.00000000000,0.00000000000,0.00000000000,                            51P    214
1.00000000000,1.00000000000,1.00000000000,                            51P    215
1.00000000000,1.00000000000,1.00000000000,                            51P    216
-0.511811023622,-0.196850393701,0.00000000000,                        51P    217
-0.511811023622,0.196850393701,0.00000000000,                         51P    218
0.787401574803E-01,-0.196850393701,0.00000000000,                     51P    219
0.787401574803E-01,0.196850393701,0.00000000000,                      51P    220
0.00000000000,1.00000000000,0.00000000000,                            51P    221
1.00000000000,0,0,0;                                                  51P    222
126,1,1,0,0,1,0,                                                      53P    223
0.00000000000,0.00000000000,1.00000000000,                            53P    224
1.00000000000,1.00000000000,1.00000000000,                            53P    225
-0.511811023622,0.196850393701,0.00000000000,                         53P    226
-0.511811023622,-0.196850393701,0.00000000000,                        53P    227
0.00000000000,1.00000000000,0.00000000000,                            53P    228
0.00000000000,0.00000000000,0,0,0;                                    53P    229
126,1,1,0,0,1,0,                                                      55P    230
0.00000000000,0.00000000000,1.00000000000,                            55P    231
1.00000000000,1.00000000000,1.00000000000,                            55P    232
0.787401574803E-01,0.196850393701,0.00000000000,                      55P    233
-0.511811023622,0.196850393701,0.00000000000,                         55P    234
0.00000000000,1.00000000000,0.00000000000,                            55P    235
0.00000000000,0.00000000000,0,0,0;                                    55P    236
126,1,1,0,0,1,0,                                                      57P    237
0.00000000000,0.00000000000,1.00000000000,                            57P    238
1.00000000000,1.00000000000,1.00000000000,                            57P    239
-0.511811023622,-0.196850393701,0.00000000000,                        57P    240
0.787401574803E-01,-0.196850393701,0.00000000000,                     57P    241
0.00000000000,1.00000000000,0.00000000000,                            57P    242
0.00000000000,0.00000000000,0,0,0;                                    57P    243
128,1,1,1,1,0,0,                                                      59P    244
1,0,0,                                                                59P    245
0.00000000000,0.00000000000,1.00000000000,                            59P    246
1.00000000000,0.00000000000,0.00000000000,                            59P    247
1.00000000000,1.00000000000,1.00000000000,                            59P    248
1.00000000000,1.00000000000,1.00000000000,                            59P    249
-0.511811023622,-0.196850393701,0.393700787402,                       59P    250
0.787401574803E-01,-0.196850393701,0.393700787402,                    59P    251
-0.511811023622,0.196850393701,0.393700787402,                        59P    252
0.787401574803E-01,0.196850393701,0.393700787402,                     59P    253
0.00000000000,1.00000000000,0.00000000000,                            59P    254
1.00000000000,0,0,0;                                                  59P    255
126,1,1,0,0,1,0,                                                      61P    256
0.00000000000,0.00000000000,1.00000000000,                            61P    257
1.00000000000,1.00000000000,1.00000000000,                            61P    258
-0.511811023622,-0.196850393701,0.393700787402,                       61P    259
0.787401574803E-01,-0.196850393701,0.393700787402,                    61P    260
0.00000000000,1.00000000000,0.00000000000,                            61P    261
0.00000000000,0.00000000000,0,0,0;                                    61P    262
126,1,1,0,0,1,0,                                                      63P    263
0.00000000000,0.00000000000,1.00000000000,                            63P    264
1.00000000000,1.00000000000,1.00000000000,                            63P    265
0.787401574803E-01,0.196850393701,0.393700787402,                     63P    266
-0.511811023622,0.196850393701,0.393700787402,                        63P    267
0.00000000000,1.00000000000,0.00000000000,                            63P    268
0.00000000000,0.00000000000,0,0,0;                                    63P    269
126,1,1,0,0,1,0,                                                      65P    270
0.00000000000,0.00000000000,1.00000000000,                            65P    271
1.00000000000,1.00000000000,1.00000000000,                            65P    272
-0.511811023622,0.196850393701,0.393700787402,                        65P    273
-0.511811023622,-0.196850393701,0.393700787402,                       65P    274
0.00000000000,1.00000000000,0.00000000000,                            65P    275
0.00000000000,0.00000000000,0,0,0;                                    65P    276
128,1,1,1,1,0,0,                                                      67P    277
1,0,0,                                                                67P    278
0.00000000000,0.00000000000,1.00000000000,                            67P    279
1.00000000000,0.00000000000,0.00000000000,                            67P    280
1.00000000000,1.00000000000,1.00000000000,                            67P    281
1.00000000000,1.00000000000,1.00000000000,                            67P    282
-0.511811023622,-0.196850393701,0.393700787402,                       67P    283
-0.511811023622,-0.196850393701,0.00000000000,                        67P    284
0.787401574803E-01,-0.196850393701,0.393700787402,                    67P    285
0.787401574803E-01,-0.196850393701,0.00000000000,                     67P    286
0.00000000000,1.00000000000,0.00000000000,                            67P    287
1.00000000000,0,0,0;                                                  67P    288
126,1,1,0,0,1,0,                                                      69P    289
0.00000000000,0.00000000000,1.00000000000,                            69P    290
1.00000000000,1.00000000000,1.00000000000,                            69P    291
-0.511811023622,-0.196850393701,0.393700787402,                       69P    292
-0.511811023622,-0.196850393701,0.00000000000,                        69P    293
0.00000000000,1.00000000000,0.00000000000,                            69P    294
0.00000000000,0.00000000000,0,0,0;                                    69P    295
128,1,1,1,1,0,0,                                                      71P    296
1,0,0,                                                                71P    297
0.00000000000,0.00000000000,1.00000000000,                            71P    298
1.00000000000,0.00000000000,0.00000000000,                            71P    299
1.00000000000,1.00000000000,1.00000000000,                            71P    300
1.00000000000,1.00000000000,1.00000000000,                            71P    301
-0.511811023622,0.196850393701,0.393700787402,                        71P    302
0.787401574803E-01,0.196850393701,0.393700787402,                     71P    303
-0.511811023622,0.196850393701,0.00000000000,                         71P    304
0.787401574803E-01,0.196850393701,0.00000000000,                      71P    305
0.00000000000,1.00000000000,0.00000000000,                            71P    306
1.00000000000,0,0,0;                                                  71P    307
126,1,1,0,0,1,0,                                                      73P    308
0.00000000000,0.00000000000,1.00000000000,                            73P    309
1.00000000000,1.00000000000,1.00000000000,                            73P    310
-0.511811023622,0.196850393701,0.393700787402,                        73P    311
-0.511811023622,0.196850393701,0.00000000000,                         73P    312
0.00000000000,1.00000000000,0.00000000000,                            73P    313
0.00000000000,0.00000000000,0,0,0;                                    73P    314
128,1,1,1,1,0,0,                                                      75P    315
1,0,0,                                                                75P    316
0.00000000000,0.00000000000,1.00000000000,                            75P    317
1.00000000000,0.00000000000,0.00000000000,                            75P    318
1.00000000000,1.00000000000,1.00000000000,                            75P    319
1.00000000000,1.00000000000,1.00000000000,                            75P    320
-0.511811023622,-0.196850393701,0.393700787402,                       75P    321
-0.511811023622,0.196850393701,0.393700787402,                        75P    322
-0.511811023622,-0.196850393701,0.00000000000,                        75P    323
-0.511811023622,0.196850393701,0.00000000000,                         75P    324
0.00000000000,1.00000000000,0.00000000000,                            75P    325
1.00000000000,0,0,0;                                                  75P    326
502,16,0.787401574803E-01,-0.196850393701,                            77P    327
0.00000000000,0.787401574803E-01,-0.433070866142,                     77P    328
0.00000000000,0.787401574803E-01,-0.433070866142,                     77P    329
0.393700787402,0.787401574803E-01,-0.196850393701,                    77P    330
0.393700787402,0.354330708661,-0.433070866142,                        77P    331
0.393700787402,0.354330708661,-0.433070866142,                        77P    332
0.00000000000,0.354330708661,0.433070866142,                          77P    333
0.00000000000,0.354330708661,0.433070866142,                          77P    334
0.393700787402,0.787401574803E-01,0.196850393701,                     77P    335
0.00000000000,0.787401574803E-01,0.433070866142,                      77P    336
0.00000000000,0.787401574803E-01,0.433070866142,                      77P    337
0.393700787402,0.787401574803E-01,0.196850393701,                     77P    338
0.393700787402,-0.511811023622,-0.196850393701,                       77P    339
0.00000000000,-0.511811023622,0.196850393701,                         77P    340
0.00000000000,-0.511811023622,-0.196850393701,                        77P    341
0.393700787402,-0.511811023622,0.196850393701,                        77P    342
0.393700787402,0,0;                                                   77P    343
504,26,3,77,1,77,2,                                                   79P    344
5,77,2,77,3,                                                          79P    345
7,77,3,77,4,                                                          79P    346
9,77,4,77,1,                                                          79P    347
13,77,5,77,6,                                                         79P    348
15,77,6,77,7,                                                         79P    349
17,77,7,77,8,                                                         79P    350
19,77,8,77,5,                                                         79P    351
23,77,9,77,10,                                                        79P    352
25,77,10,77,7,                                                        79P    353
27,77,6,77,2,                                                         79P    354
29,77,1,77,9,                                                         79P    355
33,77,3,77,5,                                                         79P    356
35,77,8,77,11,                                                        79P    357
37,77,11,77,12,                                                       79P    358
39,77,12,77,4,                                                        79P    359
45,77,10,77,11,                                                       79P    360
49,77,9,77,12,                                                        79P    361
53,77,13,77,14,                                                       79P    362
55,77,14,77,9,                                                        79P    363
57,77,1,77,13,                                                        79P    364
61,77,15,77,4,                                                        79P    365
63,77,12,77,16,                                                       79P    366
65,77,16,77,15,                                                       79P    367
69,77,15,77,13,                                                       79P    368
73,77,14,77,16;                                                       79P    369
508,4,0,79,1,1,0,                                                     81P    370
0,79,2,0,0,                                                           81P    371
0,79,3,0,0,                                                           81P    372
0,79,4,0,0;                                                           81P    373
510,1,1,1,81,0,0;                                                     83P    374
508,4,0,79,5,0,0,                                                     85P    375
0,79,6,1,0,                                                           85P    376
0,79,7,1,0,                                                           85P    377
0,79,8,0,0;                                                           85P    378
510,11,1,1,85,0,0;                                                    87P    379
508,6,0,79,9,0,0,                                                     89P    380
0,79,10,0,0,                                                          89P    381
0,79,6,0,0,                                                           89P    382
0,79,11,0,0,                                                          89P    383
0,79,1,0,0,                                                           89P    384
0,79,12,1,0;                                                          89P    385
510,21,1,1,89,0,0;                                                    91P    386
508,6,0,79,13,1,0,                                                    93P    387
0,79,8,1,0,                                                           93P    388
0,79,14,1,0,                                                          93P    389
0,79,15,1,0,                                                          93P    390
0,79,16,0,0,                                                          93P    391
0,79,3,1,0;                                                           93P    392
510,31,1,1,93,0,0;                                                    95P    393
508,4,0,79,2,1,0,                                                     97P    394
0,79,11,1,0,                                                          97P    395
0,79,5,1,0,                                                           97P    396
0,79,13,0,0;                                                          97P    397
510,41,1,1,97,0,0;                                                    99P    398
508,4,0,79,14,0,0,                                                   101P    399
0,79,7,0,0,                                                          101P    400
0,79,10,1,0,                                                         101P    401
0,79,17,0,0;                                                         101P    402
510,43,1,1,101,0,0;                                                  103P    403
508,4,0,79,15,0,0,                                                   105P    404
0,79,17,1,0,                                                         105P    405
0,79,9,1,0,                                                          105P    406
0,79,18,1,0;                                                         105P    407
510,47,1,1,105,0,0;                                                  107P    408
508,4,0,79,19,0,0,                                                   109P    409
0,79,20,0,0,                                                         109P    410
0,79,12,0,0,                                                         109P    411
0,79,21,0,0;                                                         109P    412
510,51,1,1,109,0,0;                                                  111P    413
508,4,0,79,22,1,0,                                                   113P    414
0,79,16,1,0,                                                         113P    415
0,79,23,1,0,                                                         113P    416
0,79,24,1,0;                                                         113P    417
510,59,1,1,113,0,0;                                                  115P    418
508,4,0,79,25,1,0,                                                   117P    419
0,79,21,1,0,                                                         117P    420
0,79,4,1,0,                                                          117P    421
0,79,22,0,0;                                                         117P    422
510,67,1,1,117,0,0;                                                  119P    423
508,4,0,79,23,0,0,                                                   121P    424
0,79,18,0,0,                                                         121P    425
0,79,20,1,0,                                                         121P    426
0,79,26,0,0;                                                         121P    427
510,71,1,1,121,0,0;                                                  123P    428
508,4,0,79,24,0,0,                                                   125P    429
0,79,26,1,0,                                                         125P    430
0,79,19,1,0,                                                         125P    431
0,79,25,0,0;                                                         125P    432
510,75,1,1,125,0,0;                                                  127P    433
514,12,83,1,87,1,91,1,95,1,                                          129P    434
99,1,103,1,107,1,111,1,115,1,                                        129P    435
119,1,123,1,127,1,0,0,0,0;                                           129P    436
186,129,1,0,0,0,0;                                                   131P    437
S      1G      3D    132P    437                                        T      1
