                                                                        S      1
1H,,1H;,,18HMag_Iron_Ring.iges,                                         G      1
5HANSYS,22H  25.2      UP20250519,,,,,,,1.0,6,,,,13H000403.213549,      G      2
1.0000E-04,,,,9,,;                                                      G      3
     128       1       0       0       0       0       0       000010001D      1
     128       0       0      12       1       0       0 SURFACE       0D      2
     126      13       0       0       0       0       0       000010001D      3
     126       0       0       9       2       0       0B-SPLINE       0D      4
     126      22       0       0       0       0       0       000010001D      5
     126       0       0       9       2       0       0B-SPLINE       0D      6
     126      31       0       0       0       0       0       000010001D      7
     126       0       0       9       2       0       0B-SPLINE       0D      8
     126      40       0       0       0       0       0       000010001D      9
     126       0       0       9       2       0       0B-SPLINE       0D     10
     126      49       0       0       0       0       0       000010001D     11
     126       0       0       9       2       0       0B-SPLINE       0D     12
     126      58       0       0       0       0       0       000010001D     13
     126       0       0       9       2       0       0B-SPLINE       0D     14
     126      67       0       0       0       0       0       000010001D     15
     126       0       0       9       2       0       0B-SPLINE       0D     16
     126      76       0       0       0       0       0       000010001D     17
     126       0       0       9       2       0       0B-SPLINE       0D     18
     128      85       0       0       0       0       0       000010001D     19
     128       0       0      12       1       0       0 SURFACE       0D     20
     126      97       0       0       0       0       0       000010001D     21
     126       0       0       9       2       0       0B-SPLINE       0D     22
     126     106       0       0       0       0       0       000010001D     23
     126       0       0       9       2       0       0B-SPLINE       0D     24
     126     115       0       0       0       0       0       000010001D     25
     126       0       0       9       2       0       0B-SPLINE       0D     26
     126     124       0       0       0       0       0       000010001D     27
     126       0       0       9       2       0       0B-SPLINE       0D     28
     126     133       0       0       0       0       0       000010001D     29
     126       0       0       9       2       0       0B-SPLINE       0D     30
     126     142       0       0       0       0       0       000010001D     31
     126       0       0       9       2       0       0B-SPLINE       0D     32
     126     151       0       0       0       0       0       000010001D     33
     126       0       0       9       2       0       0B-SPLINE       0D     34
     126     160       0       0       0       0       0       000010001D     35
     126       0       0       9       2       0       0B-SPLINE       0D     36
     128     169       0       0       0       0       0       000010001D     37
     128       0       0      18       2       0       0 SURFACE       0D     38
     126     187       0       0       0       0       0       000010001D     39
     126       0       0       7       1       0       0B-SPLINE       0D     40
     126     194       0       0       0       0       0       000010001D     41
     126       0       0       7       1       0       0B-SPLINE       0D     42
     128     201       0       0       0       0       0       000010001D     43
     128       0       0      18       2       0       0 SURFACE       0D     44
     128     219       0       0       0       0       0       000010001D     45
     128       0       0      18       2       0       0 SURFACE       0D     46
     126     237       0       0       0       0       0       000010001D     47
     126       0       0       7       1       0       0B-SPLINE       0D     48
     126     244       0       0       0       0       0       000010001D     49
     126       0       0       7       1       0       0B-SPLINE       0D     50
     128     251       0       0       0       0       0       000010001D     51
     128       0       0      18       2       0       0 SURFACE       0D     52
     502     269       0       0       0       0       0       000010001D     53
     502       0       0      17       1       0       0  VERTEX       0D     54
     504     286       0       0       0       0       0       000010001D     55
     504       0       0      20       1       0       0    EDGE       0D     56
     508     306       0       0       0       0       0       000010001D     57
     508       0       0       4       1       0       0    LOOP       0D     58
     508     310       0       0       0       0       0       000010001D     59
     508       0       0       4       1       0       0    LOOP       0D     60
     510     314       0       0       0       0       0       000010001D     61
     510       0       0       1       1       0       0    FACE       0D     62
     508     315       0       0       0       0       0       000010001D     63
     508       0       0       4       1       0       0    LOOP       0D     64
     508     319       0       0       0       0       0       000010001D     65
     508       0       0       4       1       0       0    LOOP       0D     66
     510     323       0       0       0       0       0       000010001D     67
     510       0       0       1       1       0       0    FACE       0D     68
     508     324       0       0       0       0       0       000010001D     69
     508       0       0       6       1       0       0    LOOP       0D     70
     510     330       0       0       0       0       0       000010001D     71
     510       0       0       1       1       0       0    FACE       0D     72
     508     331       0       0       0       0       0       000010001D     73
     508       0       0       6       1       0       0    LOOP       0D     74
     510     337       0       0       0       0       0       000010001D     75
     510       0       0       1       1       0       0    FACE       0D     76
     508     338       0       0       0       0       0       000010001D     77
     508       0       0       6       1       0       0    LOOP       0D     78
     510     344       0       0       0       0       0       000010001D     79
     510       0       0       1       1       0       0    FACE       0D     80
     508     345       0       0       0       0       0       000010001D     81
     508       0       0       6       1       0       0    LOOP       0D     82
     510     351       0       0       0       0       0       000010001D     83
     510       0       0       1       1       0       0    FACE       0D     84
     514     352       0       0       0       0       0       000010001D     85
     514       0       0       2       1       0       0   SHELL       0D     86
     186     354       0       0       0       0       0       000000001D     87
     186       0       0       1       0       0       0   B-REP       0D     88
128,1,1,1,1,0,0,                                                       1P      1
1,0,0,                                                                 1P      2
0.00000000000,0.00000000000,1.00000000000,                             1P      3
1.00000000000,0.00000000000,0.00000000000,                             1P      4
1.00000000000,1.00000000000,1.00000000000,                             1P      5
1.00000000000,1.00000000000,1.00000000000,                             1P      6
-3.47226127884,3.47226127884,0.00000000000,                            1P      7
3.47226127884,3.47226127884,0.00000000000,                             1P      8
-3.47226127884,-3.47226127884,0.00000000000,                           1P      9
3.47226127884,-3.47226127884,0.00000000000,                            1P     10
0.00000000000,1.00000000000,0.00000000000,                             1P     11
1.00000000000,0,0,0;                                                   1P     12
126,2,2,0,0,0,0,                                                       3P     13
0.00000000000,0.00000000000,0.00000000000,                             3P     14
1.00000000000,1.00000000000,1.00000000000,                             3P     15
0.500000000000,0.500000000000,1.00000000000,                           3P     16
-0.222044604925E-15,-2.46062992126,0.00000000000,                      3P     17
2.46062992126,-2.46062992126,0.00000000000,                            3P     18
2.46062992126,0.00000000000,0.00000000000,                             3P     19
0.00000000000,1.00000000000,0.00000000000,                             3P     20
0.00000000000,0.00000000000,0,0,0;                                     3P     21
126,2,2,0,0,0,0,                                                       5P     22
0.00000000000,0.00000000000,0.00000000000,                             5P     23
1.00000000000,1.00000000000,1.00000000000,                             5P     24
1.00000000000,0.500000000000,0.500000000000,                           5P     25
-2.46062992126,0.301340255696E-15,0.00000000000,                       5P     26
-2.46062992126,-2.46062992126,0.00000000000,                           5P     27
-0.222044604925E-15,-2.46062992126,0.00000000000,                      5P     28
0.00000000000,1.00000000000,0.00000000000,                             5P     29
0.00000000000,0.00000000000,0,0,0;                                     5P     30
126,2,2,0,0,0,0,                                                       7P     31
0.00000000000,0.00000000000,0.00000000000,                             7P     32
1.00000000000,1.00000000000,1.00000000000,                             7P     33
0.500000000000,0.500000000000,1.00000000000,                           7P     34
0.222044604925E-15,2.46062992126,0.00000000000,                        7P     35
-2.46062992126,2.46062992126,0.00000000000,                            7P     36
-2.46062992126,0.301340255696E-15,0.00000000000,                       7P     37
0.00000000000,1.00000000000,0.00000000000,                             7P     38
0.00000000000,0.00000000000,0,0,0;                                     7P     39
126,2,2,0,0,0,0,                                                       9P     40
0.00000000000,0.00000000000,0.00000000000,                             9P     41
1.00000000000,1.00000000000,1.00000000000,                             9P     42
1.00000000000,0.500000000000,0.500000000000,                           9P     43
2.46062992126,0.00000000000,0.00000000000,                             9P     44
2.46062992126,2.46062992126,0.00000000000,                             9P     45
0.222044604925E-15,2.46062992126,0.00000000000,                        9P     46
0.00000000000,1.00000000000,0.00000000000,                             9P     47
0.00000000000,0.00000000000,0,0,0;                                     9P     48
126,2,2,0,0,0,0,                                                      11P     49
0.00000000000,0.00000000000,0.00000000000,                            11P     50
1.00000000000,1.00000000000,1.00000000000,                            11P     51
1.00000000000,0.500000000000,0.500000000000,                          11P     52
1.49606299213,0.00000000000,0.00000000000,                            11P     53
1.49606299213,1.49606299213,0.00000000000,                            11P     54
0.111022302463E-15,1.49606299213,0.00000000000,                       11P     55
0.00000000000,1.00000000000,0.00000000000,                            11P     56
0.00000000000,0.00000000000,0,0,0;                                    11P     57
126,2,2,0,0,0,0,                                                      13P     58
0.00000000000,0.00000000000,0.00000000000,                            13P     59
1.00000000000,1.00000000000,1.00000000000,                            13P     60
0.500000000000,0.500000000000,1.00000000000,                          13P     61
0.111022302463E-15,1.49606299213,0.00000000000,                       13P     62
-1.49606299213,1.49606299213,0.00000000000,                           13P     63
-1.49606299213,0.183214875463E-15,0.00000000000,                      13P     64
0.00000000000,1.00000000000,0.00000000000,                            13P     65
0.00000000000,0.00000000000,0,0,0;                                    13P     66
126,2,2,0,0,0,0,                                                      15P     67
0.00000000000,0.00000000000,0.00000000000,                            15P     68
1.00000000000,1.00000000000,1.00000000000,                            15P     69
1.00000000000,0.500000000000,0.500000000000,                          15P     70
-1.49606299213,0.183214875463E-15,0.00000000000,                      15P     71
-1.49606299213,-1.49606299213,0.00000000000,                          15P     72
-0.111022302463E-15,-1.49606299213,0.00000000000,                     15P     73
0.00000000000,1.00000000000,0.00000000000,                            15P     74
0.00000000000,0.00000000000,0,0,0;                                    15P     75
126,2,2,0,0,0,0,                                                      17P     76
0.00000000000,0.00000000000,0.00000000000,                            17P     77
1.00000000000,1.00000000000,1.00000000000,                            17P     78
0.500000000000,0.500000000000,1.00000000000,                          17P     79
-0.111022302463E-15,-1.49606299213,0.00000000000,                     17P     80
1.49606299213,-1.49606299213,0.00000000000,                           17P     81
1.49606299213,0.00000000000,0.00000000000,                            17P     82
0.00000000000,1.00000000000,0.00000000000,                            17P     83
0.00000000000,0.00000000000,0,0,0;                                    17P     84
128,1,1,1,1,0,0,                                                      19P     85
1,0,0,                                                                19P     86
0.00000000000,0.00000000000,1.00000000000,                            19P     87
1.00000000000,0.00000000000,0.00000000000,                            19P     88
1.00000000000,1.00000000000,1.00000000000,                            19P     89
1.00000000000,1.00000000000,1.00000000000,                            19P     90
-3.47226127884,-3.47226127884,0.787401574803E-01,                     19P     91
3.47226127884,-3.47226127884,0.787401574803E-01,                      19P     92
-3.47226127884,3.47226127884,0.787401574803E-01,                      19P     93
3.47226127884,3.47226127884,0.787401574803E-01,                       19P     94
0.00000000000,1.00000000000,0.00000000000,                            19P     95
1.00000000000,0,0,0;                                                  19P     96
126,2,2,0,0,0,0,                                                      21P     97
0.00000000000,0.00000000000,0.00000000000,                            21P     98
1.00000000000,1.00000000000,1.00000000000,                            21P     99
1.00000000000,0.500000000000,0.500000000000,                          21P    100
2.46062992126,0.00000000000,0.787401574803E-01,                       21P    101
2.46062992126,2.46062992126,0.787401574803E-01,                       21P    102
0.222044604925E-15,2.46062992126,0.787401574803E-01,                  21P    103
0.00000000000,1.00000000000,0.00000000000,                            21P    104
0.00000000000,0.00000000000,0,0,0;                                    21P    105
126,2,2,0,0,0,0,                                                      23P    106
0.00000000000,0.00000000000,0.00000000000,                            23P    107
1.00000000000,1.00000000000,1.00000000000,                            23P    108
0.500000000000,0.500000000000,1.00000000000,                          23P    109
0.222044604925E-15,2.46062992126,0.787401574803E-01,                  23P    110
-2.46062992126,2.46062992126,0.787401574803E-01,                      23P    111
-2.46062992126,0.301340255696E-15,0.787401574803E-01,                 23P    112
0.00000000000,1.00000000000,0.00000000000,                            23P    113
0.00000000000,0.00000000000,0,0,0;                                    23P    114
126,2,2,0,0,0,0,                                                      25P    115
0.00000000000,0.00000000000,0.00000000000,                            25P    116
1.00000000000,1.00000000000,1.00000000000,                            25P    117
1.00000000000,0.500000000000,0.500000000000,                          25P    118
-2.46062992126,0.301340255696E-15,0.787401574803E-01,                 25P    119
-2.46062992126,-2.46062992126,0.787401574803E-01,                     25P    120
-0.222044604925E-15,-2.46062992126,0.787401574803E-01,                25P    121
0.00000000000,1.00000000000,0.00000000000,                            25P    122
0.00000000000,0.00000000000,0,0,0;                                    25P    123
126,2,2,0,0,0,0,                                                      27P    124
0.00000000000,0.00000000000,0.00000000000,                            27P    125
1.00000000000,1.00000000000,1.00000000000,                            27P    126
0.500000000000,0.500000000000,1.00000000000,                          27P    127
-0.222044604925E-15,-2.46062992126,0.787401574803E-01,                27P    128
2.46062992126,-2.46062992126,0.787401574803E-01,                      27P    129
2.46062992126,0.00000000000,0.787401574803E-01,                       27P    130
0.00000000000,1.00000000000,0.00000000000,                            27P    131
0.00000000000,0.00000000000,0,0,0;                                    27P    132
126,2,2,0,0,0,0,                                                      29P    133
0.00000000000,0.00000000000,0.00000000000,                            29P    134
1.00000000000,1.00000000000,1.00000000000,                            29P    135
0.500000000000,0.500000000000,1.00000000000,                          29P    136
-0.111022302463E-15,-1.49606299213,0.787401574803E-01,                29P    137
1.49606299213,-1.49606299213,0.787401574803E-01,                      29P    138
1.49606299213,0.00000000000,0.787401574803E-01,                       29P    139
0.00000000000,1.00000000000,0.00000000000,                            29P    140
0.00000000000,0.00000000000,0,0,0;                                    29P    141
126,2,2,0,0,0,0,                                                      31P    142
0.00000000000,0.00000000000,0.00000000000,                            31P    143
1.00000000000,1.00000000000,1.00000000000,                            31P    144
1.00000000000,0.500000000000,0.500000000000,                          31P    145
-1.49606299213,0.183214875463E-15,0.787401574803E-01,                 31P    146
-1.49606299213,-1.49606299213,0.787401574803E-01,                     31P    147
-0.111022302463E-15,-1.49606299213,0.787401574803E-01,                31P    148
0.00000000000,1.00000000000,0.00000000000,                            31P    149
0.00000000000,0.00000000000,0,0,0;                                    31P    150
126,2,2,0,0,0,0,                                                      33P    151
0.00000000000,0.00000000000,0.00000000000,                            33P    152
1.00000000000,1.00000000000,1.00000000000,                            33P    153
0.500000000000,0.500000000000,1.00000000000,                          33P    154
0.111022302463E-15,1.49606299213,0.787401574803E-01,                  33P    155
-1.49606299213,1.49606299213,0.787401574803E-01,                      33P    156
-1.49606299213,0.183214875463E-15,0.787401574803E-01,                 33P    157
0.00000000000,1.00000000000,0.00000000000,                            33P    158
0.00000000000,0.00000000000,0,0,0;                                    33P    159
126,2,2,0,0,0,0,                                                      35P    160
0.00000000000,0.00000000000,0.00000000000,                            35P    161
1.00000000000,1.00000000000,1.00000000000,                            35P    162
1.00000000000,0.500000000000,0.500000000000,                          35P    163
1.49606299213,0.00000000000,0.787401574803E-01,                       35P    164
1.49606299213,1.49606299213,0.787401574803E-01,                       35P    165
0.111022302463E-15,1.49606299213,0.787401574803E-01,                  35P    166
0.00000000000,1.00000000000,0.00000000000,                            35P    167
0.00000000000,0.00000000000,0,0,0;                                    35P    168
128,3,1,2,1,0,0,                                                      37P    169
0,0,0,                                                                37P    170
0.00000000000,0.00000000000,0.00000000000,                            37P    171
0.500000000000,1.00000000000,1.00000000000,                           37P    172
1.00000000000,0.00000000000,0.00000000000,                            37P    173
1.00000000000,1.00000000000,1.00000000000,                            37P    174
0.500000000000,0.500000000000,1.00000000000,                          37P    175
1.00000000000,0.500000000000,0.500000000000,                          37P    176
1.00000000000,2.46062992126,0.00000000000,                            37P    177
0.00000000000,2.46062992126,2.46062992126,                            37P    178
0.00000000000,-2.46062992126,2.46062992126,                           37P    179
0.00000000000,-2.46062992126,0.301340255696E-15,                      37P    180
0.00000000000,2.46062992126,0.00000000000,                            37P    181
0.787401574803E-01,2.46062992126,2.46062992126,                       37P    182
0.787401574803E-01,-2.46062992126,2.46062992126,                      37P    183
0.787401574803E-01,-2.46062992126,0.301340255696E-15,                 37P    184
0.787401574803E-01,0.00000000000,1.00000000000,                       37P    185
0.00000000000,1.00000000000,0,0,0;                                    37P    186
126,1,1,0,0,0,0,                                                      39P    187
0.00000000000,0.00000000000,1.00000000000,                            39P    188
1.00000000000,1.00000000000,1.00000000000,                            39P    189
-2.46062992126,0.301340255696E-15,0.00000000000,                      39P    190
-2.46062992126,0.301340255696E-15,0.787401574803E-01,                 39P    191
0.00000000000,1.00000000000,0.00000000000,                            39P    192
0.00000000000,0.00000000000,0,0,0;                                    39P    193
126,1,1,0,0,0,0,                                                      41P    194
0.00000000000,0.00000000000,1.00000000000,                            41P    195
1.00000000000,1.00000000000,1.00000000000,                            41P    196
2.46062992126,0.00000000000,0.00000000000,                            41P    197
2.46062992126,0.00000000000,0.787401574803E-01,                       41P    198
0.00000000000,1.00000000000,0.00000000000,                            41P    199
0.00000000000,0.00000000000,0,0,0;                                    41P    200
128,3,1,2,1,0,0,                                                      43P    201
0,0,0,                                                                43P    202
0.00000000000,0.00000000000,0.00000000000,                            43P    203
0.500000000000,1.00000000000,1.00000000000,                           43P    204
1.00000000000,0.00000000000,0.00000000000,                            43P    205
1.00000000000,1.00000000000,1.00000000000,                            43P    206
0.500000000000,0.500000000000,1.00000000000,                          43P    207
1.00000000000,0.500000000000,0.500000000000,                          43P    208
1.00000000000,-2.46062992126,0.301340255696E-15,                      43P    209
0.00000000000,-2.46062992126,-2.46062992126,                          43P    210
0.00000000000,2.46062992126,-2.46062992126,                           43P    211
0.00000000000,2.46062992126,0.00000000000,                            43P    212
0.00000000000,-2.46062992126,0.301340255696E-15,                      43P    213
0.787401574803E-01,-2.46062992126,-2.46062992126,                     43P    214
0.787401574803E-01,2.46062992126,-2.46062992126,                      43P    215
0.787401574803E-01,2.46062992126,0.00000000000,                       43P    216
0.787401574803E-01,0.00000000000,1.00000000000,                       43P    217
0.00000000000,1.00000000000,0,0,0;                                    43P    218
128,3,1,2,1,0,0,                                                      45P    219
0,0,0,                                                                45P    220
0.00000000000,0.00000000000,0.00000000000,                            45P    221
0.500000000000,1.00000000000,1.00000000000,                           45P    222
1.00000000000,0.00000000000,0.00000000000,                            45P    223
1.00000000000,1.00000000000,1.00000000000,                            45P    224
0.500000000000,0.500000000000,1.00000000000,                          45P    225
1.00000000000,0.500000000000,0.500000000000,                          45P    226
1.00000000000,1.49606299213,0.00000000000,                            45P    227
0.00000000000,1.49606299213,1.49606299213,                            45P    228
0.00000000000,-1.49606299213,1.49606299213,                           45P    229
0.00000000000,-1.49606299213,0.183214875463E-15,                      45P    230
0.00000000000,1.49606299213,0.00000000000,                            45P    231
0.787401574803E-01,1.49606299213,1.49606299213,                       45P    232
0.787401574803E-01,-1.49606299213,1.49606299213,                      45P    233
0.787401574803E-01,-1.49606299213,0.183214875463E-15,                 45P    234
0.787401574803E-01,0.00000000000,1.00000000000,                       45P    235
0.00000000000,1.00000000000,0,0,0;                                    45P    236
126,1,1,0,0,0,0,                                                      47P    237
0.00000000000,0.00000000000,1.00000000000,                            47P    238
1.00000000000,1.00000000000,1.00000000000,                            47P    239
1.49606299213,0.00000000000,0.00000000000,                            47P    240
1.49606299213,0.00000000000,0.787401574803E-01,                       47P    241
0.00000000000,1.00000000000,0.00000000000,                            47P    242
0.00000000000,0.00000000000,0,0,0;                                    47P    243
126,1,1,0,0,0,0,                                                      49P    244
0.00000000000,0.00000000000,1.00000000000,                            49P    245
1.00000000000,1.00000000000,1.00000000000,                            49P    246
-1.49606299213,0.183214875463E-15,0.00000000000,                      49P    247
-1.49606299213,0.183214875463E-15,0.787401574803E-01,                 49P    248
0.00000000000,1.00000000000,0.00000000000,                            49P    249
0.00000000000,0.00000000000,0,0,0;                                    49P    250
128,3,1,2,1,0,0,                                                      51P    251
0,0,0,                                                                51P    252
0.00000000000,0.00000000000,0.00000000000,                            51P    253
0.500000000000,1.00000000000,1.00000000000,                           51P    254
1.00000000000,0.00000000000,0.00000000000,                            51P    255
1.00000000000,1.00000000000,1.00000000000,                            51P    256
0.500000000000,0.500000000000,1.00000000000,                          51P    257
1.00000000000,0.500000000000,0.500000000000,                          51P    258
1.00000000000,-1.49606299213,0.183214875463E-15,                      51P    259
0.00000000000,-1.49606299213,-1.49606299213,                          51P    260
0.00000000000,1.49606299213,-1.49606299213,                           51P    261
0.00000000000,1.49606299213,0.00000000000,                            51P    262
0.00000000000,-1.49606299213,0.183214875463E-15,                      51P    263
0.787401574803E-01,-1.49606299213,-1.49606299213,                     51P    264
0.787401574803E-01,1.49606299213,-1.49606299213,                      51P    265
0.787401574803E-01,1.49606299213,0.00000000000,                       51P    266
0.787401574803E-01,0.00000000000,1.00000000000,                       51P    267
0.00000000000,1.00000000000,0,0,0;                                    51P    268
502,16,2.46062992126,0.00000000000,                                   53P    269
0.00000000000,-0.222044604925E-15,-2.46062992126,                     53P    270
0.00000000000,-2.46062992126,0.301340255696E-15,                      53P    271
0.00000000000,0.222044604925E-15,2.46062992126,                       53P    272
0.00000000000,1.49606299213,0.00000000000,                            53P    273
0.00000000000,0.111022302463E-15,1.49606299213,                       53P    274
0.00000000000,-1.49606299213,0.183214875463E-15,                      53P    275
0.00000000000,-0.111022302463E-15,-1.49606299213,                     53P    276
0.00000000000,2.46062992126,0.00000000000,                            53P    277
0.787401574803E-01,0.222044604925E-15,2.46062992126,                  53P    278
0.787401574803E-01,-2.46062992126,0.301340255696E-15,                 53P    279
0.787401574803E-01,-0.222044604925E-15,-2.46062992126,                53P    280
0.787401574803E-01,1.49606299213,0.00000000000,                       53P    281
0.787401574803E-01,-0.111022302463E-15,-1.49606299213,                53P    282
0.787401574803E-01,-1.49606299213,0.183214875463E-15,                 53P    283
0.787401574803E-01,0.111022302463E-15,1.49606299213,                  53P    284
0.787401574803E-01,0,0;                                               53P    285
504,20,3,53,1,53,2,                                                   55P    286
5,53,2,53,3,                                                          55P    287
7,53,3,53,4,                                                          55P    288
9,53,4,53,1,                                                          55P    289
11,53,5,53,6,                                                         55P    290
13,53,6,53,7,                                                         55P    291
15,53,7,53,8,                                                         55P    292
17,53,8,53,5,                                                         55P    293
21,53,9,53,10,                                                        55P    294
23,53,10,53,11,                                                       55P    295
25,53,11,53,12,                                                       55P    296
27,53,12,53,9,                                                        55P    297
29,53,13,53,14,                                                       55P    298
31,53,14,53,15,                                                       55P    299
33,53,15,53,16,                                                       55P    300
35,53,16,53,13,                                                       55P    301
39,53,3,53,11,                                                        55P    302
41,53,9,53,1,                                                         55P    303
47,53,5,53,13,                                                        55P    304
49,53,15,53,7;                                                        55P    305
508,4,0,55,1,0,0,                                                     57P    306
0,55,2,0,0,                                                           57P    307
0,55,3,0,0,                                                           57P    308
0,55,4,0,0;                                                           57P    309
508,4,0,55,5,1,0,                                                     59P    310
0,55,6,1,0,                                                           59P    311
0,55,7,1,0,                                                           59P    312
0,55,8,1,0;                                                           59P    313
510,1,2,1,57,59,0;                                                    61P    314
508,4,0,55,9,1,0,                                                     63P    315
0,55,10,1,0,                                                          63P    316
0,55,11,1,0,                                                          63P    317
0,55,12,1,0;                                                          63P    318
508,4,0,55,13,0,0,                                                    65P    319
0,55,14,0,0,                                                          65P    320
0,55,15,0,0,                                                          65P    321
0,55,16,0,0;                                                          65P    322
510,19,2,1,63,65,0;                                                   67P    323
508,6,0,55,4,1,0,                                                     69P    324
0,55,3,1,0,                                                           69P    325
0,55,17,1,0,                                                          69P    326
0,55,10,0,0,                                                          69P    327
0,55,9,0,0,                                                           69P    328
0,55,18,0,0;                                                          69P    329
510,37,1,1,69,0,0;                                                    71P    330
508,6,0,55,2,1,0,                                                     73P    331
0,55,1,1,0,                                                           73P    332
0,55,18,1,0,                                                          73P    333
0,55,12,0,0,                                                          73P    334
0,55,11,0,0,                                                          73P    335
0,55,17,0,0;                                                          73P    336
510,43,1,1,73,0,0;                                                    75P    337
508,6,0,55,19,1,0,                                                    77P    338
0,55,16,1,0,                                                          77P    339
0,55,15,1,0,                                                          77P    340
0,55,20,0,0,                                                          77P    341
0,55,6,0,0,                                                           77P    342
0,55,5,0,0;                                                           77P    343
510,45,1,1,77,0,0;                                                    79P    344
508,6,0,55,20,1,0,                                                    81P    345
0,55,14,1,0,                                                          81P    346
0,55,13,1,0,                                                          81P    347
0,55,19,0,0,                                                          81P    348
0,55,8,0,0,                                                           81P    349
0,55,7,0,0;                                                           81P    350
510,51,1,1,81,0,0;                                                    83P    351
514,6,61,1,67,1,71,1,75,1,                                            85P    352
79,0,83,0,0,0,0,0,0,0;                                                85P    353
186,85,1,0,0,0,0;                                                     87P    354
S      1G      3D     88P    354                                        T      1
