SolidWorks IGES file using analytic representation for surfaces         S      1
1H,,1H;,29HHallSensor_Bone_Bottom_Branch,124HF:\BACK UP WORK DIR\STUDY\RG      1
ESEARCH\Daisuke's MT CAD design\hall sensor assemble (5-1-2014)\HallSensG      2
or_Bone_Bottom_Branch.IGS,15HSolidWorks 2013,15HSolidWorks 2013,32,308, G      3
15,308,15,29HHallSensor_Bone_Bottom_Branch,1.,2,2HMM,50,0.125,13H140714.G      4
100423,1E-008,499990.,9Hlong9_000,,11,0,13H140714.100423;               G      5
     314       1       0       0       0                        00000200D      1
     314       0       5       1       0                               0D      2
     128       2       0       0       0                        01010000D      3
     128       0       0       3       0                               0D      4
     126       5       0       0       0                        01010500D      5
     126       0       0       2       0                               0D      6
     110       7       0       0       0                        01010000D      7
     110       0       0       1       0                               0D      8
     126       8       0       0       0                        01010500D      9
     126       0       0       2       0                               0D     10
     110      10       0       0       0                        01010000D     11
     110       0       0       1       0                               0D     12
     126      11       0       0       0                        01010500D     13
     126       0       0       2       0                               0D     14
     110      13       0       0       0                        01010000D     15
     110       0       0       1       0                               0D     16
     126      14       0       0       0                        01010500D     17
     126       0       0       2       0                               0D     18
     110      16       0       0       0                        01010000D     19
     110       0       0       1       0                               0D     20
     102      17       0       0       0                        01010500D     21
     102       0       0       1       0                               0D     22
     102      18       0       0       0                        01010000D     23
     102       0       0       1       0                               0D     24
     142      19       0       0       0                        00010500D     25
     142       0       0       1       0                               0D     26
     144      20       0       0       0                        00000000D     27
     144       0      -1       1       0                               0D     28
     128      21       0       0       0                        01010000D     29
     128       0       0       3       0                               0D     30
     126      24       0       0       0                        01010500D     31
     126       0       0       2       0                               0D     32
     110      26       0       0       0                        01010000D     33
     110       0       0       1       0                               0D     34
     126      27       0       0       0                        01010500D     35
     126       0       0       2       0                               0D     36
     110      29       0       0       0                        01010000D     37
     110       0       0       1       0                               0D     38
     126      30       0       0       0                        01010500D     39
     126       0       0       2       0                               0D     40
     110      32       0       0       0                        01010000D     41
     110       0       0       1       0                               0D     42
     126      33       0       0       0                        01010500D     43
     126       0       0       2       0                               0D     44
     110      35       0       0       0                        01010000D     45
     110       0       0       1       0                               0D     46
     102      36       0       0       0                        01010500D     47
     102       0       0       1       0                               0D     48
     102      37       0       0       0                        01010000D     49
     102       0       0       1       0                               0D     50
     142      38       0       0       0                        00010500D     51
     142       0       0       1       0                               0D     52
     144      39       0       0       0                        00000000D     53
     144       0      -1       1       0                               0D     54
     128      40       0       0       0                        01010000D     55
     128       0       0       3       0                               0D     56
     126      43       0       0       0                        01010500D     57
     126       0       0       2       0                               0D     58
     110      45       0       0       0                        01010000D     59
     110       0       0       1       0                               0D     60
     126      46       0       0       0                        01010500D     61
     126       0       0       2       0                               0D     62
     110      48       0       0       0                        01010000D     63
     110       0       0       1       0                               0D     64
     126      49       0       0       0                        01010500D     65
     126       0       0       2       0                               0D     66
     110      51       0       0       0                        01010000D     67
     110       0       0       1       0                               0D     68
     102      52       0       0       0                        01010500D     69
     102       0       0       1       0                               0D     70
     102      53       0       0       0                        01010000D     71
     102       0       0       1       0                               0D     72
     142      54       0       0       0                        00010500D     73
     142       0       0       1       0                               0D     74
     144      55       0       0       0                        00000000D     75
     144       0      -1       1       0                               0D     76
     128      56       0       0       0                        01010000D     77
     128       0       0       3       0                               0D     78
     126      59       0       0       0                        01010500D     79
     126       0       0       2       0                               0D     80
     110      61       0       0       0                        01010000D     81
     110       0       0       1       0                               0D     82
     126      62       0       0       0                        01010500D     83
     126       0       0       2       0                               0D     84
     110      64       0       0       0                        01010000D     85
     110       0       0       1       0                               0D     86
     126      65       0       0       0                        01010500D     87
     126       0       0       2       0                               0D     88
     110      67       0       0       0                        01010000D     89
     110       0       0       1       0                               0D     90
     102      68       0       0       0                        01010500D     91
     102       0       0       1       0                               0D     92
     102      69       0       0       0                        01010000D     93
     102       0       0       1       0                               0D     94
     142      70       0       0       0                        00010500D     95
     142       0       0       1       0                               0D     96
     144      71       0       0       0                        00000000D     97
     144       0      -1       1       0                               0D     98
     128      72       0       0       0                        01010000D     99
     128       0       0       2       0                               0D    100
     126      74       0       0       0                        01010500D    101
     126       0       0       2       0                               0D    102
     110      76       0       0       0                        01010000D    103
     110       0       0       1       0                               0D    104
     126      77       0       0       0                        01010500D    105
     126       0       0       2       0                               0D    106
     110      79       0       0       0                        01010000D    107
     110       0       0       1       0                               0D    108
     126      80       0       0       0                        01010500D    109
     126       0       0       2       0                               0D    110
     110      82       0       0       0                        01010000D    111
     110       0       0       1       0                               0D    112
     126      83       0       0       0                        01010500D    113
     126       0       0       2       0                               0D    114
     110      85       0       0       0                        01010000D    115
     110       0       0       1       0                               0D    116
     126      86       0       0       0                        01010500D    117
     126       0       0       2       0                               0D    118
     110      88       0       0       0                        01010000D    119
     110       0       0       1       0                               0D    120
     126      89       0       0       0                        01010500D    121
     126       0       0       2       0                               0D    122
     110      91       0       0       0                        01010000D    123
     110       0       0       1       0                               0D    124
     126      92       0       0       0                        01010500D    125
     126       0       0       2       0                               0D    126
     110      94       0       0       0                        01010000D    127
     110       0       0       1       0                               0D    128
     126      95       0       0       0                        01010500D    129
     126       0       0       2       0                               0D    130
     110      97       0       0       0                        01010000D    131
     110       0       0       1       0                               0D    132
     102      98       0       0       0                        01010500D    133
     102       0       0       1       0                               0D    134
     102      99       0       0       0                        01010000D    135
     102       0       0       1       0                               0D    136
     142     100       0       0       0                        00010500D    137
     142       0       0       1       0                               0D    138
     144     101       0       0       0                        00000000D    139
     144       0      -1       1       0                               0D    140
     128     102       0       0       0                        01010000D    141
     128       0       0       3       0                               0D    142
     126     105       0       0       0                        01010500D    143
     126       0       0       2       0                               0D    144
     110     107       0       0       0                        01010000D    145
     110       0       0       1       0                               0D    146
     126     108       0       0       0                        01010500D    147
     126       0       0       2       0                               0D    148
     110     110       0       0       0                        01010000D    149
     110       0       0       1       0                               0D    150
     126     111       0       0       0                        01010500D    151
     126       0       0       2       0                               0D    152
     110     113       0       0       0                        01010000D    153
     110       0       0       1       0                               0D    154
     126     114       0       0       0                        01010500D    155
     126       0       0       2       0                               0D    156
     110     116       0       0       0                        01010000D    157
     110       0       0       1       0                               0D    158
     126     117       0       0       0                        01010500D    159
     126       0       0       2       0                               0D    160
     110     119       0       0       0                        01010000D    161
     110       0       0       1       0                               0D    162
     126     120       0       0       0                        01010500D    163
     126       0       0       2       0                               0D    164
     110     122       0       0       0                        01010000D    165
     110       0       0       1       0                               0D    166
     102     123       0       0       0                        01010500D    167
     102       0       0       1       0                               0D    168
     102     124       0       0       0                        01010000D    169
     102       0       0       1       0                               0D    170
     142     125       0       0       0                        00010500D    171
     142       0       0       1       0                               0D    172
     144     126       0       0       0                        00000000D    173
     144       0      -1       1       0                               0D    174
     128     127       0       0       0                        01010000D    175
     128       0       0       3       0                               0D    176
     126     130       0       0       0                        01010500D    177
     126       0       0       2       0                               0D    178
     110     132       0       0       0                        01010000D    179
     110       0       0       1       0                               0D    180
     126     133       0       0       0                        01010500D    181
     126       0       0       2       0                               0D    182
     110     135       0       0       0                        01010000D    183
     110       0       0       1       0                               0D    184
     126     136       0       0       0                        01010500D    185
     126       0       0       2       0                               0D    186
     110     138       0       0       0                        01010000D    187
     110       0       0       1       0                               0D    188
     126     139       0       0       0                        01010500D    189
     126       0       0       2       0                               0D    190
     110     141       0       0       0                        01010000D    191
     110       0       0       1       0                               0D    192
     102     142       0       0       0                        01010500D    193
     102       0       0       1       0                               0D    194
     102     143       0       0       0                        01010000D    195
     102       0       0       1       0                               0D    196
     142     144       0       0       0                        00010500D    197
     142       0       0       1       0                               0D    198
     144     145       0       0       0                        00000000D    199
     144       0      -1       1       0                               0D    200
     128     146       0       0       0                        01010000D    201
     128       0       0       3       0                               0D    202
     126     149       0       0       0                        01010500D    203
     126       0       0       2       0                               0D    204
     110     151       0       0       0                        01010000D    205
     110       0       0       1       0                               0D    206
     126     152       0       0       0                        01010500D    207
     126       0       0       2       0                               0D    208
     110     154       0       0       0                        01010000D    209
     110       0       0       1       0                               0D    210
     126     155       0       0       0                        01010500D    211
     126       0       0       2       0                               0D    212
     110     157       0       0       0                        01010000D    213
     110       0       0       1       0                               0D    214
     126     158       0       0       0                        01010500D    215
     126       0       0       2       0                               0D    216
     110     160       0       0       0                        01010000D    217
     110       0       0       1       0                               0D    218
     102     161       0       0       0                        01010500D    219
     102       0       0       1       0                               0D    220
     102     162       0       0       0                        01010000D    221
     102       0       0       1       0                               0D    222
     142     163       0       0       0                        00010500D    223
     142       0       0       1       0                               0D    224
     144     164       0       0       0                        00000000D    225
     144       0      -1       1       0                               0D    226
     128     165       0       0       0                        01010000D    227
     128       0       0       3       0                               0D    228
     126     168       0       0       0                        01010500D    229
     126       0       0       2       0                               0D    230
     110     170       0       0       0                        01010000D    231
     110       0       0       1       0                               0D    232
     126     171       0       0       0                        01010500D    233
     126       0       0       2       0                               0D    234
     110     173       0       0       0                        01010000D    235
     110       0       0       1       0                               0D    236
     126     174       0       0       0                        01010500D    237
     126       0       0       2       0                               0D    238
     110     176       0       0       0                        01010000D    239
     110       0       0       1       0                               0D    240
     126     177       0       0       0                        01010500D    241
     126       0       0       2       0                               0D    242
     110     179       0       0       0                        01010000D    243
     110       0       0       1       0                               0D    244
     102     180       0       0       0                        01010500D    245
     102       0       0       1       0                               0D    246
     102     181       0       0       0                        01010000D    247
     102       0       0       1       0                               0D    248
     142     182       0       0       0                        00010500D    249
     142       0       0       1       0                               0D    250
     144     183       0       0       0                        00000000D    251
     144       0      -1       1       0                               0D    252
     128     184       0       0       0                        01010000D    253
     128       0       0       3       0                               0D    254
     126     187       0       0       0                        01010500D    255
     126       0       0       2       0                               0D    256
     110     189       0       0       0                        01010000D    257
     110       0       0       1       0                               0D    258
     126     190       0       0       0                        01010500D    259
     126       0       0       2       0                               0D    260
     110     192       0       0       0                        01010000D    261
     110       0       0       1       0                               0D    262
     126     193       0       0       0                        01010500D    263
     126       0       0       2       0                               0D    264
     110     195       0       0       0                        01010000D    265
     110       0       0       1       0                               0D    266
     126     196       0       0       0                        01010500D    267
     126       0       0       2       0                               0D    268
     110     198       0       0       0                        01010000D    269
     110       0       0       1       0                               0D    270
     102     199       0       0       0                        01010500D    271
     102       0       0       1       0                               0D    272
     102     200       0       0       0                        01010000D    273
     102       0       0       1       0                               0D    274
     142     201       0       0       0                        00010500D    275
     142       0       0       1       0                               0D    276
     144     202       0       0       0                        00000000D    277
     144       0      -1       1       0                               0D    278
314,100.,100.,0.,;                                                     1P      1
128,1,1,1,1,0,0,1,0,0,0.,0.,1.,1.,0.,0.,1.,1.,1.,1.,1.,1.,0.,          3P      2
0.100000001,-1.5,0.,0.100000001,-2.,0.,3.,-1.5,0.,3.,-2.,0.,1.,        3P      3
0.,1.;                                                                 3P      4
126,1,1,1,0,1,0,0.,0.,1.,1.,1.,1.,0.,0.,0.,1.,0.,0.,0.,1.,0.,          5P      5
0.,1.;                                                                 5P      6
110,0.,0.100000001,-1.5,0.,0.100000001,-2.;                            7P      7
126,1,1,1,0,1,0,0.,0.,1.,1.,1.,1.,1.,0.,0.,1.,1.,0.,0.,1.,0.,          9P      8
0.,1.;                                                                 9P      9
110,0.,0.100000001,-2.,0.,3.,-2.;                                     11P     10
126,1,1,1,0,1,0,0.,0.,1.,1.,1.,1.,1.,1.,0.,0.,1.,0.,0.,1.,0.,         13P     11
0.,1.;                                                                13P     12
110,0.,3.,-2.,0.,3.,-1.5;                                             15P     13
126,1,1,1,0,1,0,0.,0.,1.,1.,1.,1.,0.,1.,0.,0.,0.,0.,0.,1.,0.,         17P     14
0.,1.;                                                                17P     15
110,0.,3.,-1.5,0.,0.100000001,-1.5;                                   19P     16
102,4,5,9,13,17;                                                      21P     17
102,4,7,11,15,19;                                                     23P     18
142,1,3,21,23,1;                                                      25P     19
144,3,1,0,25;                                                         27P     20
128,1,1,1,1,0,0,1,0,0,0.,0.,1.,1.,0.,0.,1.,1.,1.,1.,1.,1.,0.,         29P     21
0.100000001,0.,0.,0.100000001,-0.5,0.,3.,0.,0.,3.,-0.5,0.,1.,         29P     22
0.,1.;                                                                29P     23
126,1,1,1,0,1,0,0.,0.,1.,1.,1.,1.,1.,1.,0.,0.,1.,0.,0.,1.,0.,         31P     24
0.,1.;                                                                31P     25
110,0.,3.,-0.5,0.,3.,0.;                                              33P     26
126,1,1,1,0,1,0,0.,0.,1.,1.,1.,1.,0.,1.,0.,0.,0.,0.,0.,1.,0.,         35P     27
0.,1.;                                                                35P     28
110,0.,3.,0.,0.,0.100000001,0.;                                       37P     29
126,1,1,1,0,1,0,0.,0.,1.,1.,1.,1.,0.,0.,0.,1.,0.,0.,0.,1.,0.,         39P     30
0.,1.;                                                                39P     31
110,0.,0.100000001,0.,0.,0.100000001,-0.5;                            41P     32
126,1,1,1,0,1,0,0.,0.,1.,1.,1.,1.,1.,0.,0.,1.,1.,0.,0.,1.,0.,         43P     33
0.,1.;                                                                43P     34
110,0.,0.100000001,-0.5,0.,3.,-0.5;                                   45P     35
102,4,31,35,39,43;                                                    47P     36
102,4,33,37,41,45;                                                    49P     37
142,1,29,47,49,1;                                                     51P     38
144,29,1,0,51;                                                        53P     39
128,1,1,1,1,0,0,1,0,0,0.,0.,1.,1.,0.,0.,1.,1.,1.,1.,1.,1.,            55P     40
14.587,0.082600001,0.,0.,0.082600001,0.,14.587,3.,0.,0.,3.,0.,        55P     41
0.,1.,0.,1.;                                                          55P     42
126,1,1,1,0,1,0,0.,0.,1.,1.,1.,1.,1.,1.,0.,0.005964215,1.,0.,         57P     43
0.,1.,0.,0.,1.;                                                       57P     44
110,0.,3.,0.,14.5,3.,0.;                                              59P     45
126,1,1,1,0,1,0,0.,0.,1.,1.,1.,1.,0.005964215,1.,0.,1.,               61P     46
0.005964215,0.,0.,1.,0.,0.,1.;                                        61P     47
110,14.5,3.,0.,0.,0.100000001,0.;                                     63P     48
126,1,1,1,0,1,0,0.,0.,1.,1.,1.,1.,1.,0.005964215,0.,1.,1.,0.,         65P     49
0.,1.,0.,0.,1.;                                                       65P     50
110,0.,0.100000001,0.,0.,3.,0.;                                       67P     51
102,3,57,61,65;                                                       69P     52
102,3,59,63,67;                                                       71P     53
142,1,55,69,71,1;                                                     73P     54
144,55,1,0,73;                                                        75P     55
128,1,1,1,1,0,0,1,0,0,0.,0.,1.,1.,0.,0.,1.,1.,1.,1.,1.,1.,0.,         77P     56
0.082600001,-2.,14.587,0.082600001,-2.,0.,3.,-2.,14.587,3.,-2.,       77P     57
0.,1.,0.,1.;                                                          77P     58
126,1,1,1,0,1,0,0.,0.,1.,1.,1.,1.,0.,1.,0.,0.,0.005964215,0.,         79P     59
0.,1.,0.,0.,1.;                                                       79P     60
110,0.,3.,-2.,0.,0.100000001,-2.;                                     81P     61
126,1,1,1,0,1,0,0.,0.,1.,1.,1.,1.,0.,0.005964215,0.,                  83P     62
0.994035785,1.,0.,0.,1.,0.,0.,1.;                                     83P     63
110,0.,0.100000001,-2.,14.5,3.,-2.;                                   85P     64
126,1,1,1,0,1,0,0.,0.,1.,1.,1.,1.,0.994035785,1.,0.,0.,1.,0.,         87P     65
0.,1.,0.,0.,1.;                                                       87P     66
110,14.5,3.,-2.,0.,3.,-2.;                                            89P     67
102,3,79,83,87;                                                       91P     68
102,3,81,85,89;                                                       93P     69
142,1,77,91,93,1;                                                     95P     70
144,77,1,0,95;                                                        97P     71
128,1,1,1,1,0,0,1,0,0,0.,0.,1.,1.,0.,0.,1.,1.,1.,1.,1.,1.,-1.,        99P     72
3.,0.,-1.,3.,-2.,14.5,3.,0.,14.5,3.,-2.,0.,1.,0.,1.;                  99P     73
126,1,1,1,0,1,0,0.,0.,1.,1.,1.,1.,1.,0.064516129,0.,1.,1.,0.,        101P     74
0.,1.,0.,0.,1.;                                                      101P     75
110,0.,3.,-2.,14.5,3.,-2.;                                           103P     76
126,1,1,1,0,1,0,0.,0.,1.,1.,1.,1.,1.,1.,0.,0.,1.,0.,0.,1.,0.,        105P     77
0.,1.;                                                               105P     78
110,14.5,3.,-2.,14.5,3.,0.;                                          107P     79
126,1,1,1,0,1,0,0.,0.,1.,1.,1.,1.,0.,1.,0.,0.,0.064516129,0.,        109P     80
0.,1.,0.,0.,1.;                                                      109P     81
110,14.5,3.,0.,0.,3.,0.;                                             111P     82
126,1,1,1,0,1,0,0.,0.,1.,1.,1.,1.,0.,0.064516129,0.,0.25,            113P     83
0.064516129,0.,0.,1.,0.,0.,1.;                                       113P     84
110,0.,3.,0.,0.,3.,-0.5;                                             115P     85
126,1,1,1,0,1,0,0.,0.,1.,1.,1.,1.,0.25,0.064516129,0.,0.25,0.,       117P     86
0.,0.,1.,0.,0.,1.;                                                   117P     87
110,0.,3.,-0.5,-1.,3.,-0.5;                                          119P     88
126,1,1,1,0,1,0,0.,0.,1.,1.,1.,1.,0.25,0.,0.,0.75,0.,0.,0.,1.,       121P     89
0.,0.,1.;                                                            121P     90
110,-1.,3.,-0.5,-1.,3.,-1.5;                                         123P     91
126,1,1,1,0,1,0,0.,0.,1.,1.,1.,1.,0.75,0.,0.,0.75,0.064516129,       125P     92
0.,0.,1.,0.,0.,1.;                                                   125P     93
110,-1.,3.,-1.5,0.,3.,-1.5;                                          127P     94
126,1,1,1,0,1,0,0.,0.,1.,1.,1.,1.,0.75,0.064516129,0.,1.,            129P     95
0.064516129,0.,0.,1.,0.,0.,1.;                                       129P     96
110,0.,3.,-1.5,0.,3.,-2.;                                            131P     97
102,8,101,105,109,113,117,121,125,129;                               133P     98
102,8,103,107,111,115,119,123,127,131;                               135P     99
142,1,99,133,135,1;                                                  137P    100
144,99,1,0,137;                                                      139P    101
128,1,1,1,1,0,0,1,0,0,0.,0.,1.,1.,0.,0.,1.,1.,1.,1.,1.,1.,14.5,      141P    102
3.,-2.,0.,0.100000001,-2.,14.5,3.,0.,0.,0.100000001,0.,0.,1.,        141P    103
0.,1.;                                                               141P    104
126,1,1,1,0,1,0,0.,0.,1.,1.,1.,1.,1.,0.,0.,1.,0.25,0.,0.,1.,0.,      143P    105
0.,1.;                                                               143P    106
110,0.,0.100000001,-2.,0.,0.100000001,-1.5;                          145P    107
126,1,1,1,0,1,0,0.,0.,1.,1.,1.,1.,1.,0.25,0.,1.,0.75,0.,0.,1.,       147P    108
0.,0.,1.;                                                            147P    109
110,0.,0.100000001,-1.5,0.,0.100000001,-0.5;                         149P    110
126,1,1,1,0,1,0,0.,0.,1.,1.,1.,1.,1.,0.75,0.,1.,1.,0.,0.,1.,0.,      151P    111
0.,1.;                                                               151P    112
110,0.,0.100000001,-0.5,0.,0.100000001,0.;                           153P    113
126,1,1,1,0,1,0,0.,0.,1.,1.,1.,1.,1.,1.,0.,0.,1.,0.,0.,1.,0.,        155P    114
0.,1.;                                                               155P    115
110,0.,0.100000001,0.,14.5,3.,0.;                                    157P    116
126,1,1,1,0,1,0,0.,0.,1.,1.,1.,1.,0.,1.,0.,0.,0.,0.,0.,1.,0.,        159P    117
0.,1.;                                                               159P    118
110,14.5,3.,0.,14.5,3.,-2.;                                          161P    119
126,1,1,1,0,1,0,0.,0.,1.,1.,1.,1.,0.,0.,0.,1.,0.,0.,0.,1.,0.,        163P    120
0.,1.;                                                               163P    121
110,14.5,3.,-2.,0.,0.100000001,-2.;                                  165P    122
102,6,143,147,151,155,159,163;                                       167P    123
102,6,145,149,153,157,161,165;                                       169P    124
142,1,141,167,169,1;                                                 171P    125
144,141,1,0,171;                                                     173P    126
128,1,1,1,1,0,0,1,0,0,0.,0.,1.,1.,0.,0.,1.,1.,1.,1.,1.,1.,-1.,       175P    127
3.,-1.5,-1.,0.100000001,-1.5,0.,3.,-1.5,0.,0.100000001,-1.5,0.,      175P    128
1.,0.,1.;                                                            175P    129
126,1,1,1,0,1,0,0.,0.,1.,1.,1.,1.,0.,1.,0.,0.,0.,0.,0.,1.,0.,        177P    130
0.,1.;                                                               177P    131
110,0.,3.,-1.5,-1.,3.,-1.5;                                          179P    132
126,1,1,1,0,1,0,0.,0.,1.,1.,1.,1.,0.,0.,0.,1.,0.,0.,0.,1.,0.,        181P    133
0.,1.;                                                               181P    134
110,-1.,3.,-1.5,-1.,0.100000001,-1.5;                                183P    135
126,1,1,1,0,1,0,0.,0.,1.,1.,1.,1.,1.,0.,0.,1.,1.,0.,0.,1.,0.,        185P    136
0.,1.;                                                               185P    137
110,-1.,0.100000001,-1.5,0.,0.100000001,-1.5;                        187P    138
126,1,1,1,0,1,0,0.,0.,1.,1.,1.,1.,1.,1.,0.,0.,1.,0.,0.,1.,0.,        189P    139
0.,1.;                                                               189P    140
110,0.,0.100000001,-1.5,0.,3.,-1.5;                                  191P    141
102,4,177,181,185,189;                                               193P    142
102,4,179,183,187,191;                                               195P    143
142,1,175,193,195,1;                                                 197P    144
144,175,1,0,197;                                                     199P    145
128,1,1,1,1,0,0,1,0,0,0.,0.,1.,1.,0.,0.,1.,1.,1.,1.,1.,1.,-1.,       201P    146
0.100000001,-1.5,-1.,0.100000001,-0.5,0.,0.100000001,-1.5,0.,        201P    147
0.100000001,-0.5,0.,1.,0.,1.;                                        201P    148
126,1,1,1,0,1,0,0.,0.,1.,1.,1.,1.,0.,1.,0.,0.,0.,0.,0.,1.,0.,        203P    149
0.,1.;                                                               203P    150
110,0.,0.100000001,-1.5,-1.,0.100000001,-1.5;                        205P    151
126,1,1,1,0,1,0,0.,0.,1.,1.,1.,1.,0.,0.,0.,1.,0.,0.,0.,1.,0.,        207P    152
0.,1.;                                                               207P    153
110,-1.,0.100000001,-1.5,-1.,0.100000001,-0.5;                       209P    154
126,1,1,1,0,1,0,0.,0.,1.,1.,1.,1.,1.,0.,0.,1.,1.,0.,0.,1.,0.,        211P    155
0.,1.;                                                               211P    156
110,-1.,0.100000001,-0.5,0.,0.100000001,-0.5;                        213P    157
126,1,1,1,0,1,0,0.,0.,1.,1.,1.,1.,1.,1.,0.,0.,1.,0.,0.,1.,0.,        215P    158
0.,1.;                                                               215P    159
110,0.,0.100000001,-0.5,0.,0.100000001,-1.5;                         217P    160
102,4,203,207,211,215;                                               219P    161
102,4,205,209,213,217;                                               221P    162
142,1,201,219,221,1;                                                 223P    163
144,201,1,0,223;                                                     225P    164
128,1,1,1,1,0,0,1,0,0,0.,0.,1.,1.,0.,0.,1.,1.,1.,1.,1.,1.,-1.,       227P    165
0.100000001,-0.5,-1.,3.,-0.5,0.,0.100000001,-0.5,0.,3.,-0.5,0.,      227P    166
1.,0.,1.;                                                            227P    167
126,1,1,1,0,1,0,0.,0.,1.,1.,1.,1.,0.,1.,0.,0.,0.,0.,0.,1.,0.,        229P    168
0.,1.;                                                               229P    169
110,0.,0.100000001,-0.5,-1.,0.100000001,-0.5;                        231P    170
126,1,1,1,0,1,0,0.,0.,1.,1.,1.,1.,0.,0.,0.,1.,0.,0.,0.,1.,0.,        233P    171
0.,1.;                                                               233P    172
110,-1.,0.100000001,-0.5,-1.,3.,-0.5;                                235P    173
126,1,1,1,0,1,0,0.,0.,1.,1.,1.,1.,1.,0.,0.,1.,1.,0.,0.,1.,0.,        237P    174
0.,1.;                                                               237P    175
110,-1.,3.,-0.5,0.,3.,-0.5;                                          239P    176
126,1,1,1,0,1,0,0.,0.,1.,1.,1.,1.,1.,1.,0.,0.,1.,0.,0.,1.,0.,        241P    177
0.,1.;                                                               241P    178
110,0.,3.,-0.5,0.,0.100000001,-0.5;                                  243P    179
102,4,229,233,237,241;                                               245P    180
102,4,231,235,239,243;                                               247P    181
142,1,227,245,247,1;                                                 249P    182
144,227,1,0,249;                                                     251P    183
128,1,1,1,1,0,0,1,0,0,0.,0.,1.,1.,0.,0.,1.,1.,1.,1.,1.,1.,-1.,       253P    184
0.100000001,-1.5,-1.,0.100000001,-0.5,-1.,3.,-1.5,-1.,3.,-0.5,       253P    185
0.,1.,0.,1.;                                                         253P    186
126,1,1,1,0,1,0,0.,0.,1.,1.,1.,1.,0.,1.,0.,0.,0.,0.,0.,1.,0.,        255P    187
0.,1.;                                                               255P    188
110,-1.,3.,-1.5,-1.,0.100000001,-1.5;                                257P    189
126,1,1,1,0,1,0,0.,0.,1.,1.,1.,1.,0.,0.,0.,1.,0.,0.,0.,1.,0.,        259P    190
0.,1.;                                                               259P    191
110,-1.,0.100000001,-1.5,-1.,0.100000001,-0.5;                       261P    192
126,1,1,1,0,1,0,0.,0.,1.,1.,1.,1.,1.,0.,0.,1.,1.,0.,0.,1.,0.,        263P    193
0.,1.;                                                               263P    194
110,-1.,0.100000001,-0.5,-1.,3.,-0.5;                                265P    195
126,1,1,1,0,1,0,0.,0.,1.,1.,1.,1.,1.,1.,0.,0.,1.,0.,0.,1.,0.,        267P    196
0.,1.;                                                               267P    197
110,-1.,3.,-0.5,-1.,3.,-1.5;                                         269P    198
102,4,255,259,263,267;                                               271P    199
102,4,257,261,265,269;                                               273P    200
142,1,253,271,273,1;                                                 275P    201
144,253,1,0,275;                                                     277P    202
S      1G      5D    278P    202                                        T      1
