SolidWorks IGES file using analytic representation for surfaces         S      1
1H,,1H;,21HSupporting_Bone_Lower,132HD:\STUDY\RESEARCH\Daisuke's MT CAD G      1
design\hall sensor assemble Rnd_Supporter_Upper (10-6-2014)\Supporting_BG      2
one_Lower (10-7-2014).IGS,15HSolidWorks 2013,15HSolidWorks 2013,32,308, G      3
15,308,15,21HSupporting_Bone_Lower,1.,1,2HIN,50,0.125,13H141008.115456, G      4
1E-008,19684.6456692913,3HFei,,11,0,13H141008.115456;                   G      5
     314       1       0       0       0                        00000200D      1
     314       0       3       1       0                               0D      2
     128       2       0       0       0                        01010000D      3
     128       0       0       2       0                               0D      4
     126       4       0       0       0                        01010500D      5
     126       0       0       2       0                               0D      6
     110       6       0       0       0                        01010000D      7
     110       0       0       1       0                               0D      8
     126       7       0       0       0                        01010500D      9
     126       0       0       2       0                               0D     10
     110       9       0       0       0                        01010000D     11
     110       0       0       1       0                               0D     12
     126      10       0       0       0                        01010500D     13
     126       0       0       2       0                               0D     14
     110      12       0       0       0                        01010000D     15
     110       0       0       1       0                               0D     16
     126      13       0       0       0                        01010500D     17
     126       0       0       2       0                               0D     18
     110      15       0       0       0                        01010000D     19
     110       0       0       1       0                               0D     20
     102      16       0       0       0                        01010500D     21
     102       0       0       1       0                               0D     22
     102      17       0       0       0                        01010000D     23
     102       0       0       1       0                               0D     24
     142      18       0       0       0                        00010500D     25
     142       0       0       1       0                               0D     26
     144      19       0       0       0                        00000000D     27
     144       0      -1       1       0                               0D     28
     128      20       0       0       0                        01010000D     29
     128       0       0       2       0                               0D     30
     126      22       0       0       0                        01010500D     31
     126       0       0       2       0                               0D     32
     110      24       0       0       0                        01010000D     33
     110       0       0       1       0                               0D     34
     126      25       0       0       0                        01010500D     35
     126       0       0      11       0                               0D     36
     124      36       0       0       0                        00000000D     37
     124       0       0       5       0                               0D     38
     100      41       0       0       0              37        01010000D     39
     100       0       0       1       0                               0D     40
     126      42       0       0       0                        01010500D     41
     126       0       0      11       0                               0D     42
     124      53       0       0       0                        00000000D     43
     124       0       0       4       0                               0D     44
     100      57       0       0       0              43        01010000D     45
     100       0       0       1       0                               0D     46
     126      58       0       0       0                        01010500D     47
     126       0       0       2       0                               0D     48
     110      60       0       0       0                        01010000D     49
     110       0       0       1       0                               0D     50
     126      61       0       0       0                        01010500D     51
     126       0       0       2       0                               0D     52
     110      63       0       0       0                        01010000D     53
     110       0       0       1       0                               0D     54
     126      64       0       0       0                        01010500D     55
     126       0       0      10       0                               0D     56
     100      74       0       0       0                        01010000D     57
     100       0       0       1       0                               0D     58
     126      75       0       0       0                        01010500D     59
     126       0       0       2       0                               0D     60
     110      77       0       0       0                        01010000D     61
     110       0       0       1       0                               0D     62
     102      78       0       0       0                        01010500D     63
     102       0       0       1       0                               0D     64
     102      79       0       0       0                        01010000D     65
     102       0       0       1       0                               0D     66
     142      80       0       0       0                        00010500D     67
     142       0       0       1       0                               0D     68
     144      81       0       0       0                        00000000D     69
     144       0      -1       1       0                               0D     70
     128      82       0       0       0                        01010000D     71
     128       0       0       2       0                               0D     72
     126      84       0       0       0                        01010500D     73
     126       0       0       2       0                               0D     74
     110      86       0       0       0                        01010000D     75
     110       0       0       1       0                               0D     76
     126      87       0       0       0                        01010500D     77
     126       0       0       2       0                               0D     78
     110      89       0       0       0                        01010000D     79
     110       0       0       1       0                               0D     80
     126      90       0       0       0                        01010500D     81
     126       0       0       2       0                               0D     82
     110      92       0       0       0                        01010000D     83
     110       0       0       1       0                               0D     84
     126      93       0       0       0                        01010500D     85
     126       0       0       2       0                               0D     86
     110      95       0       0       0                        01010000D     87
     110       0       0       1       0                               0D     88
     102      96       0       0       0                        01010500D     89
     102       0       0       1       0                               0D     90
     102      97       0       0       0                        01010000D     91
     102       0       0       1       0                               0D     92
     142      98       0       0       0                        00010500D     93
     142       0       0       1       0                               0D     94
     144      99       0       0       0                        00000000D     95
     144       0      -1       1       0                               0D     96
     128     100       0       0       0                        01010000D     97
     128       0       0       3       0                               0D     98
     126     103       0       0       0                        01010500D     99
     126       0       0       2       0                               0D    100
     110     105       0       0       0                        01010000D    101
     110       0       0       1       0                               0D    102
     126     106       0       0       0                        01010500D    103
     126       0       0      11       0                               0D    104
     100     117       0       0       0                        01010000D    105
     100       0       0       1       0                               0D    106
     126     118       0       0       0                        01010500D    107
     126       0       0      11       0                               0D    108
     100     129       0       0       0                        01010000D    109
     100       0       0       1       0                               0D    110
     126     130       0       0       0                        01010500D    111
     126       0       0       2       0                               0D    112
     110     132       0       0       0                        01010000D    113
     110       0       0       1       0                               0D    114
     126     133       0       0       0                        01010500D    115
     126       0       0       2       0                               0D    116
     110     135       0       0       0                        01010000D    117
     110       0       0       1       0                               0D    118
     126     136       0       0       0                        01010500D    119
     126       0       0      10       0                               0D    120
     124     146       0       0       0                        00000000D    121
     124       0       0       3       0                               0D    122
     100     149       0       0       0             121        01010000D    123
     100       0       0       1       0                               0D    124
     126     150       0       0       0                        01010500D    125
     126       0       0       2       0                               0D    126
     110     152       0       0       0                        01010000D    127
     110       0       0       1       0                               0D    128
     102     153       0       0       0                        01010500D    129
     102       0       0       1       0                               0D    130
     102     154       0       0       0                        01010000D    131
     102       0       0       1       0                               0D    132
     142     155       0       0       0                        00010500D    133
     142       0       0       1       0                               0D    134
     144     156       0       0       0                        00000000D    135
     144       0      -1       1       0                               0D    136
     128     157       0       0       0                        01010000D    137
     128       0       0       3       0                               0D    138
     126     160       0       0       0                        01010500D    139
     126       0       0       2       0                               0D    140
     110     162       0       0       0                        01010000D    141
     110       0       0       1       0                               0D    142
     126     163       0       0       0                        01010500D    143
     126       0       0       2       0                               0D    144
     110     165       0       0       0                        01010000D    145
     110       0       0       1       0                               0D    146
     126     166       0       0       0                        01010500D    147
     126       0       0       2       0                               0D    148
     110     168       0       0       0                        01010000D    149
     110       0       0       1       0                               0D    150
     126     169       0       0       0                        01010500D    151
     126       0       0       2       0                               0D    152
     110     171       0       0       0                        01010000D    153
     110       0       0       1       0                               0D    154
     102     172       0       0       0                        01010500D    155
     102       0       0       1       0                               0D    156
     102     173       0       0       0                        01010000D    157
     102       0       0       1       0                               0D    158
     142     174       0       0       0                        00010500D    159
     142       0       0       1       0                               0D    160
     144     175       0       0       0                        00000000D    161
     144       0      -1       1       0                               0D    162
     128     176       0       0       0                        01010000D    163
     128       0       0       2       0                               0D    164
     126     178       0       0       0                        01010500D    165
     126       0       0       2       0                               0D    166
     110     180       0       0       0                        01010000D    167
     110       0       0       1       0                               0D    168
     126     181       0       0       0                        01010500D    169
     126       0       0       2       0                               0D    170
     110     183       0       0       0                        01010000D    171
     110       0       0       1       0                               0D    172
     126     184       0       0       0                        01010500D    173
     126       0       0       2       0                               0D    174
     110     186       0       0       0                        01010000D    175
     110       0       0       1       0                               0D    176
     126     187       0       0       0                        01010500D    177
     126       0       0       2       0                               0D    178
     110     189       0       0       0                        01010000D    179
     110       0       0       1       0                               0D    180
     102     190       0       0       0                        01010500D    181
     102       0       0       1       0                               0D    182
     102     191       0       0       0                        01010000D    183
     102       0       0       1       0                               0D    184
     142     192       0       0       0                        00010500D    185
     142       0       0       1       0                               0D    186
     144     193       0       0       0                        00000000D    187
     144       0      -1       1       0                               0D    188
     110     194       0       0       0                        01010000D    189
     110       0       0       1       0                               0D    190
     110     195       0       0       0                        01010000D    191
     110       0       0       1       0                               0D    192
     120     196       0       0       0                        01010000D    193
     120       0       0       1       0                               0D    194
     126     197       0       0       0                        01010500D    195
     126       0       0       2       0                               0D    196
     110     199       0       0       0                        01010000D    197
     110       0       0       1       0                               0D    198
     126     200       0       0       0                        01010500D    199
     126       0       0       2       0                               0D    200
     100     202       0       0       0                        01010000D    201
     100       0       0       1       0                               0D    202
     126     203       0       0       0                        01010500D    203
     126       0       0       2       0                               0D    204
     110     205       0       0       0                        01010000D    205
     110       0       0       1       0                               0D    206
     126     206       0       0       0                        01010500D    207
     126       0       0       2       0                               0D    208
     124     208       0       0       0                        00000000D    209
     124       0       0       4       0                               0D    210
     100     212       0       0       0             209        01010000D    211
     100       0       0       1       0                               0D    212
     102     213       0       0       0                        01010500D    213
     102       0       0       1       0                               0D    214
     102     214       0       0       0                        01010000D    215
     102       0       0       1       0                               0D    216
     142     215       0       0       0                        00010500D    217
     142       0       0       1       0                               0D    218
     144     216       0       0       0                        00000000D    219
     144       0      -1       1       0                               0D    220
     110     217       0       0       0                        01010000D    221
     110       0       0       1       0                               0D    222
     110     218       0       0       0                        01010000D    223
     110       0       0       1       0                               0D    224
     120     219       0       0       0                        01010000D    225
     120       0       0       1       0                               0D    226
     126     220       0       0       0                        01010500D    227
     126       0       0       2       0                               0D    228
     100     222       0       0       0                        01010000D    229
     100       0       0       1       0                               0D    230
     126     223       0       0       0                        01010500D    231
     126       0       0       2       0                               0D    232
     110     225       0       0       0                        01010000D    233
     110       0       0       1       0                               0D    234
     126     226       0       0       0                        01010500D    235
     126       0       0       2       0                               0D    236
     124     228       0       0       0                        00000000D    237
     124       0       0       5       0                               0D    238
     100     233       0       0       0             237        01010000D    239
     100       0       0       1       0                               0D    240
     126     234       0       0       0                        01010500D    241
     126       0       0       2       0                               0D    242
     110     236       0       0       0                        01010000D    243
     110       0       0       1       0                               0D    244
     102     237       0       0       0                        01010500D    245
     102       0       0       1       0                               0D    246
     102     238       0       0       0                        01010000D    247
     102       0       0       1       0                               0D    248
     142     239       0       0       0                        00010500D    249
     142       0       0       1       0                               0D    250
     144     240       0       0       0                        00000000D    251
     144       0      -1       1       0                               0D    252
     110     241       0       0       0                        01010000D    253
     110       0       0       1       0                               0D    254
     110     242       0       0       0                        01010000D    255
     110       0       0       1       0                               0D    256
     120     243       0       0       0                        01010000D    257
     120       0       0       1       0                               0D    258
     126     244       0       0       0                        01010500D    259
     126       0       0       2       0                               0D    260
     110     246       0       0       0                        01010000D    261
     110       0       0       1       0                               0D    262
     126     247       0       0       0                        01010500D    263
     126       0       0       2       0                               0D    264
     124     249       0       0       0                        00000000D    265
     124       0       0       3       0                               0D    266
     100     252       0       0       0             265        01010000D    267
     100       0       0       1       0                               0D    268
     126     253       0       0       0                        01010500D    269
     126       0       0       2       0                               0D    270
     110     255       0       0       0                        01010000D    271
     110       0       0       1       0                               0D    272
     126     256       0       0       0                        01010500D    273
     126       0       0       2       0                               0D    274
     100     258       0       0       0                        01010000D    275
     100       0       0       1       0                               0D    276
     102     259       0       0       0                        01010500D    277
     102       0       0       1       0                               0D    278
     102     260       0       0       0                        01010000D    279
     102       0       0       1       0                               0D    280
     142     261       0       0       0                        00010500D    281
     142       0       0       1       0                               0D    282
     144     262       0       0       0                        00000000D    283
     144       0      -1       1       0                               0D    284
314,0.,75.2941176470588,0.,;                                           1P      1
128,1,1,1,1,0,0,1,0,0,0.,0.,1.,1.,0.,0.,1.,1.,1.,1.,1.,1.,0.25,        3P      2
0.,-0.2,0.25,0.,0.,0.25,0.04,-0.2,0.25,0.04,0.,0.,1.,0.,1.;            3P      3
126,1,1,1,0,1,0,0.,0.,1.,1.,1.,1.,0.,0.,0.,1.,0.,0.,0.,1.,0.,          5P      4
0.,1.;                                                                 5P      5
110,0.25,0.,-0.2,0.25,0.,0.;                                           7P      6
126,1,1,1,0,1,0,0.,0.,1.,1.,1.,1.,1.,0.,0.,1.,1.,0.,0.,1.,0.,          9P      7
0.,1.;                                                                 9P      8
110,0.25,0.,0.,0.25,0.04,0.;                                          11P      9
126,1,1,1,0,1,0,0.,0.,1.,1.,1.,1.,1.,1.,0.,0.,1.,0.,0.,1.,0.,         13P     10
0.,1.;                                                                13P     11
110,0.25,0.04,0.,0.25,0.04,-0.2;                                      15P     12
126,1,1,1,0,1,0,0.,0.,1.,1.,1.,1.,0.,1.,0.,0.,0.,0.,0.,1.,0.,         17P     13
0.,1.;                                                                17P     14
110,0.25,0.04,-0.2,0.25,0.,-0.2;                                      19P     15
102,4,5,9,13,17;                                                      21P     16
102,4,7,11,15,19;                                                     23P     17
142,1,3,21,23,1;                                                      25P     18
144,3,1,0,25;                                                         27P     19
128,1,1,1,1,0,0,1,0,0,0.,0.,1.,1.,0.,0.,1.,1.,1.,1.,1.,1.,0.25,       29P     20
0.,0.,-0.13228,0.,0.,0.25,0.1,0.,-0.13228,0.1,0.,0.,1.,0.,1.;         29P     21
126,1,1,1,0,1,0,0.,0.,1.,1.,1.,1.,0.,0.,0.,0.863241603,0.,0.,         31P     22
0.,1.,0.,0.,1.;                                                       31P     23
110,0.25,0.,0.,-0.08,0.,0.;                                           33P     24
126,16,2,1,0,1,0,0.,0.,0.,0.125,0.125,0.25,0.25,0.375,0.375,          35P     25
0.5,0.5,0.625,0.625,0.75,0.75,0.875,0.875,1.,1.,1.,1.,1.,1.,1.,       35P     26
1.,1.,1.,1.,1.,1.,1.,1.,1.,1.,1.,1.,1.,0.863241603,0.,0.,             35P     27
0.876123706,0.,0.,0.888758282,0.00960736,0.,0.901392859,              35P     28
0.01921472,0.,0.91329437,0.038060234,0.,0.925195881,                  35P     29
0.056905748,0.,0.935906957,0.084265194,0.,0.946618034,                35P     30
0.11162464,0.,0.955727056,0.146446609,0.,0.964836078,                 35P     31
0.181268579,0.,0.971992991,0.222214883,0.,0.979149904,                35P     32
0.263161188,0.,0.984079671,0.308658284,0.,0.989009438,                35P     33
0.35415538,0.,0.991522612,0.402454839,0.,0.994035785,                 35P     34
0.450754298,0.,0.994035785,0.5,0.,0.,1.,0.,0.,-1.;                    35P     35
124,-7.04419501764363E-015,-1.,1.36592399683213E-015,                 37P     36
-0.0300000000000005,-1.,7.04419501764364E-015,                        37P     37
6.98296267768627E-015,-0.0300000000000003,                            37P     38
-6.98296267768628E-015,-1.36592399683208E-015,-1.,                    37P     39
-4.90340814373297E-016;                                               37P     40
100,0.,-0.08,0.05,-0.03,0.05,-0.08,0.1;                               39P     41
126,16,2,1,0,1,0,0.,0.,0.,0.125,0.125,0.25,0.25,0.375,0.375,          41P     42
0.5,0.5,0.625,0.625,0.75,0.75,0.875,0.875,1.,1.,1.,1.,1.,1.,1.,       41P     43
1.,1.,1.,1.,1.,1.,1.,1.,1.,1.,1.,1.,1.,0.994035785,0.5,0.,            41P     44
0.994035785,0.549245702,0.,0.991522612,0.597545161,0.,                41P     45
0.989009438,0.64584462,0.,0.984079671,0.691341716,0.,                 41P     46
0.979149904,0.736838812,0.,0.971992991,0.777785117,0.,                41P     47
0.964836078,0.818731421,0.,0.955727056,0.853553391,0.,                41P     48
0.946618034,0.88837536,0.,0.935906957,0.915734806,0.,                 41P     49
0.925195881,0.943094252,0.,0.91329437,0.961939766,0.,                 41P     50
0.901392859,0.98078528,0.,0.888758282,0.99039264,0.,                  41P     51
0.876123706,1.,0.,0.863241603,1.,0.,0.,1.,0.,0.,-1.;                  41P     52
124,-1.,2.93357649129064E-030,6.98296267768627E-015,-0.16,            43P     53
-2.93357649129064E-030,1.,-8.40568613435157E-016,                     43P     54
3.5528281540289E-032,-6.98296267768627E-015,                          43P     55
-8.40568613435157E-016,-1.,-5.16608583543143E-016;                    43P     56
100,0.,-0.08,0.05,-0.03,0.05,-0.08,0.1;                               45P     57
126,1,1,1,0,1,0,0.,0.,1.,1.,1.,1.,0.863241603,1.,0.,0.,1.,0.,         47P     58
0.,1.,0.,0.,1.;                                                       47P     59
110,-0.08,0.1,0.,0.25,0.1,0.;                                         49P     60
126,1,1,1,0,1,0,0.,0.,1.,1.,1.,1.,0.,1.,0.,0.,0.6,0.,0.,1.,0.,        51P     61
0.,1.;                                                                51P     62
110,0.25,0.1,0.,0.25,0.06,0.;                                         53P     63
126,16,2,1,0,1,0,0.,0.,0.,0.125,0.125,0.25,0.25,0.375,0.375,          55P     64
0.5,0.5,0.625,0.625,0.75,0.75,0.875,0.875,1.,1.,1.,1.,1.,1.,1.,       55P     65
1.,1.,1.,1.,1.,1.,1.,1.,1.,1.,1.,1.,1.,0.,0.6,0.,0.005203316,         55P     66
0.6,0.,0.010010553,0.592387953,0.,0.014817791,0.584775907,0.,         55P     67
0.018497091,0.570710678,0.,0.022176391,0.55664545,0.,                 55P     68
0.024167614,0.538268343,0.,0.026158836,0.519891237,0.,                55P     69
0.026158836,0.5,0.,0.026158836,0.480108763,0.,0.024167614,            55P     70
0.461731657,0.,0.022176391,0.44335455,0.,0.018497091,                 55P     71
0.429289322,0.,0.014817791,0.415224093,0.,0.010010553,                55P     72
0.407612047,0.,0.005203316,0.4,0.,0.,0.4,0.,0.,1.,0.,0.,1.;           55P     73
100,0.,0.25,0.05,0.25,0.06,0.25,0.04;                                 57P     74
126,1,1,1,0,1,0,0.,0.,1.,1.,1.,1.,0.,0.4,0.,0.,0.,0.,0.,1.,0.,        59P     75
0.,1.;                                                                59P     76
110,0.25,0.04,0.,0.25,0.,0.;                                          61P     77
102,7,31,35,41,47,51,55,59;                                           63P     78
102,7,33,39,45,49,53,57,61;                                           65P     79
142,1,29,63,65,1;                                                     67P     80
144,29,1,0,67;                                                        69P     81
128,1,1,1,1,0,0,1,0,0,0.,0.,1.,1.,0.,0.,1.,1.,1.,1.,1.,1.,0.25,       71P     82
0.06,-0.2,0.25,0.06,0.,0.25,0.1,-0.2,0.25,0.1,0.,0.,1.,0.,1.;         71P     83
126,1,1,1,0,1,0,0.,0.,1.,1.,1.,1.,1.,1.,0.,0.,1.,0.,0.,1.,0.,         73P     84
0.,1.;                                                                73P     85
110,0.25,0.1,0.,0.25,0.1,-0.2;                                        75P     86
126,1,1,1,0,1,0,0.,0.,1.,1.,1.,1.,0.,1.,0.,0.,0.,0.,0.,1.,0.,         77P     87
0.,1.;                                                                77P     88
110,0.25,0.1,-0.2,0.25,0.06,-0.2;                                     79P     89
126,1,1,1,0,1,0,0.,0.,1.,1.,1.,1.,0.,0.,0.,1.,0.,0.,0.,1.,0.,         81P     90
0.,1.;                                                                81P     91
110,0.25,0.06,-0.2,0.25,0.06,0.;                                      83P     92
126,1,1,1,0,1,0,0.,0.,1.,1.,1.,1.,1.,0.,0.,1.,1.,0.,0.,1.,0.,         85P     93
0.,1.;                                                                85P     94
110,0.25,0.06,0.,0.25,0.1,0.;                                         87P     95
102,4,73,77,81,85;                                                    89P     96
102,4,75,79,83,87;                                                    91P     97
142,1,71,89,91,1;                                                     93P     98
144,71,1,0,93;                                                        95P     99
128,1,1,1,1,0,0,1,0,0,0.,0.,1.,1.,0.,0.,1.,1.,1.,1.,1.,1.,            97P    100
-0.13228,0.,-0.2,0.25,0.,-0.2,-0.13228,0.1,-0.2,0.25,0.1,-0.2,        97P    101
0.,1.,0.,1.;                                                          97P    102
126,1,1,1,0,1,0,0.,0.,1.,1.,1.,1.,1.,1.,0.,0.136758397,1.,0.,         99P    103
0.,1.,0.,0.,1.;                                                       99P    104
110,0.25,0.1,-0.2,-0.08,0.1,-0.2;                                    101P    105
126,16,2,1,0,1,0,0.,0.,0.,0.125,0.125,0.25,0.25,0.375,0.375,         103P    106
0.5,0.5,0.625,0.625,0.75,0.75,0.875,0.875,1.,1.,1.,1.,1.,1.,1.,      103P    107
1.,1.,1.,1.,1.,1.,1.,1.,1.,1.,1.,1.,1.,0.136758397,1.,0.,            103P    108
0.123876294,1.,0.,0.111241718,0.99039264,0.,0.098607141,             103P    109
0.98078528,0.,0.08670563,0.961939766,0.,0.074804119,                 103P    110
0.943094252,0.,0.064093043,0.915734806,0.,0.053381966,               103P    111
0.88837536,0.,0.044272944,0.853553391,0.,0.035163922,                103P    112
0.818731421,0.,0.028007009,0.777785117,0.,0.020850096,               103P    113
0.736838812,0.,0.015920329,0.691341716,0.,0.010990562,               103P    114
0.64584462,0.,0.008477388,0.597545161,0.,0.005964215,                103P    115
0.549245702,0.,0.005964215,0.5,0.,0.,1.,0.,0.,-1.;                   103P    116
100,-0.2,-0.08,0.05,-0.08,0.1,-0.13,0.05;                            105P    117
126,16,2,1,0,1,0,0.,0.,0.,0.125,0.125,0.25,0.25,0.375,0.375,         107P    118
0.5,0.5,0.625,0.625,0.75,0.75,0.875,0.875,1.,1.,1.,1.,1.,1.,1.,      107P    119
1.,1.,1.,1.,1.,1.,1.,1.,1.,1.,1.,1.,1.,0.005964215,0.5,0.,           107P    120
0.005964215,0.450754298,0.,0.008477388,0.402454839,0.,               107P    121
0.010990562,0.35415538,0.,0.015920329,0.308658284,0.,                107P    122
0.020850096,0.263161188,0.,0.028007009,0.222214883,0.,               107P    123
0.035163922,0.181268579,0.,0.044272944,0.146446609,0.,               107P    124
0.053381966,0.11162464,0.,0.064093043,0.084265194,0.,                107P    125
0.074804119,0.056905748,0.,0.08670563,0.038060234,0.,                107P    126
0.098607141,0.01921472,0.,0.111241718,0.00960736,0.,                 107P    127
0.123876294,0.,0.,0.136758397,0.,0.,0.,1.,0.,0.,-1.;                 107P    128
100,-0.2,-0.08,0.05,-0.13,0.05,-0.08,0.;                             109P    129
126,1,1,1,0,1,0,0.,0.,1.,1.,1.,1.,0.136758397,0.,0.,1.,0.,0.,        111P    130
0.,1.,0.,0.,1.;                                                      111P    131
110,-0.08,0.,-0.2,0.25,0.,-0.2;                                      113P    132
126,1,1,1,0,1,0,0.,0.,1.,1.,1.,1.,1.,0.,0.,1.,0.4,0.,0.,1.,0.,       115P    133
0.,1.;                                                               115P    134
110,0.25,0.,-0.2,0.25,0.04,-0.2;                                     117P    135
126,16,2,1,0,1,0,0.,0.,0.,0.125,0.125,0.25,0.25,0.375,0.375,         119P    136
0.5,0.5,0.625,0.625,0.75,0.75,0.875,0.875,1.,1.,1.,1.,1.,1.,1.,      119P    137
1.,1.,1.,1.,1.,1.,1.,1.,1.,1.,1.,1.,1.,1.,0.4,0.,0.994796684,        119P    138
0.4,0.,0.989989447,0.407612047,0.,0.985182209,0.415224093,0.,        119P    139
0.981502909,0.429289322,0.,0.977823609,0.44335455,0.,                119P    140
0.975832386,0.461731657,0.,0.973841164,0.480108763,0.,               119P    141
0.973841164,0.5,0.,0.973841164,0.519891237,0.,0.975832386,           119P    142
0.538268343,0.,0.977823609,0.55664545,0.,0.981502909,                119P    143
0.570710678,0.,0.985182209,0.584775907,0.,0.989989447,               119P    144
0.592387953,0.,0.994796684,0.6,0.,1.,0.6,0.,0.,1.,0.,0.,1.;          119P    145
124,1.60812264967664E-016,-1.,6.98296267768627E-015,                 121P    146
0.300000000000001,-1.,-1.60812264967664E-016,0.,0.3,                 121P    147
1.12294604438339E-030,-6.98296267768627E-015,-1.,-0.4;               121P    148
100,-0.2,0.25,0.05,0.26,0.05,0.24,0.05;                              123P    149
126,1,1,1,0,1,0,0.,0.,1.,1.,1.,1.,1.,0.6,0.,1.,1.,0.,0.,1.,0.,       125P    150
0.,1.;                                                               125P    151
110,0.25,0.06,-0.2,0.25,0.1,-0.2;                                    127P    152
102,7,99,103,107,111,115,119,125;                                    129P    153
102,7,101,105,109,113,117,123,127;                                   131P    154
142,1,97,129,131,1;                                                  133P    155
144,97,1,0,133;                                                      135P    156
128,1,1,1,1,0,0,1,0,0,0.,0.,1.,1.,0.,0.,1.,1.,1.,1.,1.,1.,           137P    157
-0.08,0.1,-0.2,-0.08,0.1,0.,0.25,0.1,-0.2,0.25,0.1,0.,0.,1.,0.,      137P    158
1.;                                                                  137P    159
126,1,1,1,0,1,0,0.,0.,1.,1.,1.,1.,0.,1.,0.,0.,0.,0.,0.,1.,0.,        139P    160
0.,1.;                                                               139P    161
110,0.25,0.1,-0.2,-0.08,0.1,-0.2;                                    141P    162
126,1,1,1,0,1,0,0.,0.,1.,1.,1.,1.,0.,0.,0.,1.,0.,0.,0.,1.,0.,        143P    163
0.,1.;                                                               143P    164
110,-0.08,0.1,-0.2,-0.08,0.1,0.;                                     145P    165
126,1,1,1,0,1,0,0.,0.,1.,1.,1.,1.,1.,0.,0.,1.,1.,0.,0.,1.,0.,        147P    166
0.,1.;                                                               147P    167
110,-0.08,0.1,0.,0.25,0.1,0.;                                        149P    168
126,1,1,1,0,1,0,0.,0.,1.,1.,1.,1.,1.,1.,0.,0.,1.,0.,0.,1.,0.,        151P    169
0.,1.;                                                               151P    170
110,0.25,0.1,0.,0.25,0.1,-0.2;                                       153P    171
102,4,139,143,147,151;                                               155P    172
102,4,141,145,149,153;                                               157P    173
142,1,137,155,157,1;                                                 159P    174
144,137,1,0,159;                                                     161P    175
128,1,1,1,1,0,0,1,0,0,0.,0.,1.,1.,0.,0.,1.,1.,1.,1.,1.,1.,           163P    176
-0.08,0.,-0.2,-0.08,0.,0.,0.25,0.,-0.2,0.25,0.,0.,0.,1.,0.,1.;       163P    177
126,1,1,1,0,1,0,0.,0.,1.,1.,1.,1.,1.,1.,0.,0.,1.,0.,0.,1.,0.,        165P    178
0.,1.;                                                               165P    179
110,0.25,0.,0.,0.25,0.,-0.2;                                         167P    180
126,1,1,1,0,1,0,0.,0.,1.,1.,1.,1.,0.,1.,0.,0.,0.,0.,0.,1.,0.,        169P    181
0.,1.;                                                               169P    182
110,0.25,0.,-0.2,-0.08,0.,-0.2;                                      171P    183
126,1,1,1,0,1,0,0.,0.,1.,1.,1.,1.,0.,0.,0.,1.,0.,0.,0.,1.,0.,        173P    184
0.,1.;                                                               173P    185
110,-0.08,0.,-0.2,-0.08,0.,0.;                                       175P    186
126,1,1,1,0,1,0,0.,0.,1.,1.,1.,1.,1.,0.,0.,1.,1.,0.,0.,1.,0.,        177P    187
0.,1.;                                                               177P    188
110,-0.08,0.,0.,0.25,0.,0.;                                          179P    189
102,4,165,169,173,177;                                               181P    190
102,4,167,171,175,179;                                               183P    191
142,1,163,181,183,1;                                                 185P    192
144,163,1,0,185;                                                     187P    193
110,-0.08,0.05,0.,-0.08,0.05,-39.37007874;                           189P    194
110,-0.13,0.05,0.,-0.13,0.05,-0.2;                                   191P    195
120,189,191,0.,6.28318530717959;                                     193P    196
126,1,1,1,0,1,0,0.,0.,1.,1.,1.,1.,0.,1.570796327,0.,1.,              195P    197
1.570796327,0.,0.,1.,0.,0.,1.;                                       195P    198
110,-0.08,0.1,0.,-0.08,0.1,-0.2;                                     197P    199
126,1,1,1,0,1,0,0.,0.,1.,1.,1.,1.,1.,1.570796327,0.,1.,0.,0.,        199P    200
0.,1.,0.,0.,1.;                                                      199P    201
100,-0.2,-0.08,0.05,-0.08,0.1,-0.13,0.05;                            201P    202
126,1,1,1,0,1,0,0.,0.,1.,1.,1.,1.,1.,0.,0.,0.,0.,0.,0.,1.,0.,        203P    203
0.,1.;                                                               203P    204
110,-0.13,0.05,-0.2,-0.13,0.05,0.;                                   205P    205
126,1,1,1,0,1,0,0.,0.,1.,1.,1.,1.,0.,0.,0.,0.,1.570796327,0.,        207P    206
0.,1.,0.,0.,1.;                                                      207P    207
124,-1.,2.93357649129064E-030,6.98296267768627E-015,-0.16,           209P    208
-2.93357649129064E-030,1.,-8.40568613435157E-016,                    209P    209
3.5528281540289E-032,-6.98296267768627E-015,                         209P    210
-8.40568613435157E-016,-1.,-5.16608583543143E-016;                   209P    211
100,0.,-0.08,0.05,-0.03,0.05,-0.08,0.1;                              211P    212
102,4,195,199,203,207;                                               213P    213
102,4,197,201,205,211;                                               215P    214
142,1,193,213,215,1;                                                 217P    215
144,193,1,0,217;                                                     219P    216
110,-0.08,0.05,-0.2,-0.08,0.05,39.17007874;                          221P    217
110,-0.03,0.05,-0.2,-0.03,0.05,0.;                                   223P    218
120,221,223,0.,6.28318530717959;                                     225P    219
126,1,1,1,0,1,0,0.,0.,1.,1.,1.,1.,0.,3.141592654,0.,0.,              227P    220
4.71238898,0.,0.,1.,0.,0.,1.;                                        227P    221
100,-0.2,-0.08,0.05,-0.13,0.05,-0.08,0.;                             229P    222
126,1,1,1,0,1,0,0.,0.,1.,1.,1.,1.,0.,4.71238898,0.,1.,               231P    223
4.71238898,0.,0.,1.,0.,0.,1.;                                        231P    224
110,-0.08,0.,-0.2,-0.08,0.,0.;                                       233P    225
126,1,1,1,0,1,0,0.,0.,1.,1.,1.,1.,1.,4.71238898,0.,1.,               235P    226
3.141592654,0.,0.,1.,0.,0.,1.;                                       235P    227
124,-7.04419501764363E-015,-1.,1.36592399683213E-015,                237P    228
-0.0300000000000005,-1.,7.04419501764364E-015,                       237P    229
6.98296267768627E-015,-0.0300000000000003,                           237P    230
-6.98296267768628E-015,-1.36592399683208E-015,-1.,                   237P    231
-4.90340814373297E-016;                                              237P    232
100,0.,-0.08,0.05,-0.03,0.05,-0.08,0.1;                              239P    233
126,1,1,1,0,1,0,0.,0.,1.,1.,1.,1.,1.,3.141592654,0.,0.,              241P    234
3.141592654,0.,0.,1.,0.,0.,1.;                                       241P    235
110,-0.13,0.05,0.,-0.13,0.05,-0.2;                                   243P    236
102,4,227,231,235,241;                                               245P    237
102,4,229,233,239,243;                                               247P    238
142,1,225,245,247,1;                                                 249P    239
144,225,1,0,249;                                                     251P    240
110,0.25,0.05,0.,0.25,0.05,39.37007874;                              253P    241
110,0.26,0.05,-0.2,0.26,0.05,0.;                                     255P    242
120,253,255,0.,6.28318530717959;                                     257P    243
126,1,1,1,0,1,0,0.,0.,1.,1.,1.,1.,0.,4.71238898,0.,1.,               259P    244
4.71238898,0.,0.,1.,0.,0.,1.;                                        259P    245
110,0.25,0.04,-0.2,0.25,0.04,0.;                                     261P    246
126,1,1,1,0,1,0,0.,0.,1.,1.,1.,1.,1.,4.71238898,0.,1.,               263P    247
1.570796327,0.,0.,1.,0.,0.,1.;                                       263P    248
124,1.60812264967664E-016,-1.,6.98296267768627E-015,0.3,-1.,         265P    249
-1.60812264967664E-016,0.,0.3,1.12294604438339E-030,                 265P    250
-6.98296267768627E-015,-1.,4.69163520200753E-016;                    265P    251
100,0.,0.25,0.05,0.26,0.05,0.24,0.05;                                267P    252
126,1,1,1,0,1,0,0.,0.,1.,1.,1.,1.,1.,1.570796327,0.,0.,              269P    253
1.570796327,0.,0.,1.,0.,0.,1.;                                       269P    254
110,0.25,0.06,0.,0.25,0.06,-0.2;                                     271P    255
126,1,1,1,0,1,0,0.,0.,1.,1.,1.,1.,0.,1.570796327,0.,0.,              273P    256
4.71238898,0.,0.,1.,0.,0.,1.;                                        273P    257
100,-0.2,0.25,0.05,0.25,0.06,0.25,0.04;                              275P    258
102,4,259,263,269,273;                                               277P    259
102,4,261,267,271,275;                                               279P    260
142,1,257,277,279,1;                                                 281P    261
144,257,1,0,281;                                                     283P    262
S      1G      5D    284P    262                                        T      1
